<svg width="34" height="24" fill="none" xmlns="http://www.w3.org/2000/svg"><rect width="34" height="24" rx="2" fill="#fff"/><path fill-rule="evenodd" clip-rule="evenodd" d="M16.069 14.822v-2.935h1.497c.613 0 1.13-.208 1.553-.618l.101-.104a2.13 2.13 0 00-.101-2.958 2.123 2.123 0 00-1.553-.63h-2.403v7.245h.906zm0-3.824v-2.53h1.52c.326 0 .636.126.866.357.49.486.501 1.295.028 1.797a1.17 1.17 0 01-.895.376H16.07zm7.377-.746c-.388-.364-.917-.548-1.587-.548-.86 0-1.508.323-1.936.964l.8.514c.292-.439.692-.658 1.198-.658.32 0 .63.121.872.34.237.209.372.51.372.827v.214c-.35-.197-.788-.3-1.328-.3-.63 0-1.137.15-1.514.456-.377.306-.568.71-.568 1.224a1.55 1.55 0 00.534 1.213c.355.324.805.486 1.334.486.624 0 1.12-.283 1.497-.85h.04v.688h.866v-3.056c0-.641-.192-1.15-.58-1.514zm-2.459 3.657a.756.756 0 01-.298-.606c0-.272.124-.497.366-.676.247-.18.557-.272.923-.272.506-.006.9.11 1.182.341 0 .393-.152.734-.45 1.023-.27.277-.637.433-1.02.433-.253.006-.5-.081-.703-.243zM25.973 17L29 9.866h-.985l-1.4 3.559h-.018l-1.435-3.559h-.984l1.986 4.64L25.039 17h.934z" fill="#979899"/><path d="M12.941 11.252c0-.283-.022-.566-.067-.843H9.053v1.6h2.189a1.93 1.93 0 01-.81 1.265v1.04h1.305c.765-.722 1.204-1.791 1.204-3.062z" fill="#979899"/><path d="M9.053 15.319c1.092 0 2.014-.37 2.684-1.005l-1.305-1.04c-.366.254-.833.399-1.379.399-1.058 0-1.953-.734-2.273-1.716H5.435v1.074c.686 1.404 2.087 2.288 3.618 2.288z" fill="#979899"/><path d="M6.78 11.957a2.573 2.573 0 010-1.595V9.294H5.435a4.222 4.222 0 000 3.732l1.345-1.07z" fill="#979899"/><path d="M9.053 8.647a2.15 2.15 0 011.553.624l1.16-1.19A3.855 3.855 0 009.052 7c-1.53 0-2.932.889-3.618 2.293l1.345 1.074c.32-.988 1.215-1.721 2.273-1.721z" fill="#979899"/></svg>