<svg width="15" height="13" fill="none" xmlns="http://www.w3.org/2000/svg"><path d="M14.95 2.175a6.486 6.486 0 01-1.725.45c.6-.375 1.125-.975 1.35-1.65-.6.375-1.2.6-1.95.75A2.951 2.951 0 0010.45.75c-1.65 0-3 1.35-3 3 0 .225 0 .45.075.675A8.84 8.84 0 011.3 1.275c-.225.45-.375.975-.375 1.5 0 1.05.525 1.95 1.35 2.475a2.59 2.59 0 01-1.35-.375c0 1.425 1.05 2.7 2.4 2.925-.225.075-.525.075-.825.075-.225 0-.375 0-.6-.075.375 1.2 1.5 2.1 2.85 2.1-1.05.825-2.325 1.275-3.75 1.275-.225 0-.45 0-.75-.075 1.35.825 2.925 1.35 4.65 1.35 5.55 0 8.55-4.575 8.55-8.55v-.375c.6-.225 1.125-.75 1.5-1.35z" fill="#979899"/></svg>