<svg width="40" height="49" fill="none" xmlns="http://www.w3.org/2000/svg"><path d="M11.324 7.175v.611c1.875 0 4.327.446 4.327 3.59v13.983c-4.775 0-7.34-1.825-7.916-6.287-.461-3.564-.445-9.63-4.155-11.927-.935-.578-2.105-.918-3.58-.918v.948s1.49-.458 2.129 1.51c.174.536.285 1.251.285 2.207 0 4.462-.192 11.436 4.872 14.1 5.064 2.666 8.365 2.328 8.365 2.328v11.29c0 3.143-2.452 3.59-4.327 3.59v.61h6.344V7.175h-6.344z" fill="#257799"/><path d="M24.012 42.2c-1.875 0-4.326-.447-4.326-3.59V27.32s3.3.338 8.365-2.327c5.064-2.665 4.872-9.64 4.872-14.1 0-.957.11-1.672.285-2.209.639-1.967 2.129-1.509 2.129-1.509v-.948c-1.475 0-2.646.34-3.58.918-3.71 2.297-3.694 8.363-4.155 11.927-.577 4.462-3.14 6.287-7.916 6.287V11.376c0-3.144 2.451-3.59 4.326-3.59v-.61H17.67V42.81h6.343v-.612z" fill="#fff"/><path d="M17.669 42.81V49H40V0H17.67v7.175h6.343v.611c-1.875 0-4.326.446-4.326 3.59v13.983c4.775 0 7.34-1.825 7.916-6.287.461-3.564.445-9.63 4.155-11.927.934-.578 2.105-.918 3.58-.918v.948s-1.49-.458-2.13 1.51c-.173.536-.284 1.251-.284 2.207 0 4.462.192 11.436-4.872 14.1-5.064 2.666-8.365 2.328-8.365 2.328v11.29c0 3.143 2.451 3.59 4.326 3.59v.61H17.67z" fill="#EDA62F"/></svg>