<svg fill="none" xmlns="http://www.w3.org/2000/svg" viewBox="0 0 1149 253"><path d="M1104.58 217.7l6.62 18.5-20.05 1.94-.11-1.16 18.57-1.8-6.11-17.08 1.08-.4z" fill="#262B52"/><path d="M1103.17 222.68a4.86 4.86 0 006.15-3.18c.84-2.6-.56-5.4-3.12-6.25a4.86 4.86 0 00-6.15 3.17c-.84 2.6.56 5.41 3.12 6.26z" fill="#6563B8"/><path d="M1104.89 221.48a3.68 3.68 0 002.82-2.51.35.35 0 01.44-.23c.19.06.29.26.23.45a4.4 4.4 0 01-3.36 3 .35.35 0 01-.41-.29.35.35 0 01.28-.42z" fill="#D1D8F0"/><path d="M1089.96 243.17c3.01 1 6.25-.67 7.23-3.74a5.86 5.86 0 00-3.67-7.36c-3.01-1-6.25.67-7.24 3.74a5.86 5.86 0 003.68 7.36z" fill="#E6E6E5"/><path d="M1092.07 241.85a4.4 4.4 0 003.37-3c.06-.2.26-.3.44-.23.19.06.29.26.23.45a5.12 5.12 0 01-3.91 3.48.35.35 0 01-.41-.29.36.36 0 01.28-.41z" fill="#6563B8"/><path d="M1123.11 250.81a3.7 3.7 0 004.7-2.43 3.8 3.8 0 00-2.38-4.78 3.7 3.7 0 00-4.7 2.43 3.8 3.8 0 002.38 4.78z" fill="#E6E6E5"/><path d="M1124.3 249.78a2.75 2.75 0 002.1-1.87c.06-.19.26-.3.44-.23.19.06.29.26.23.45a3.47 3.47 0 01-2.64 2.35.35.35 0 01-.41-.29.36.36 0 01.28-.41z" fill="#6563B8"/><path d="M1107.41 241.9a7 7 0 008.86-4.57 7.17 7.17 0 00-4.49-9.02 7.01 7.01 0 00-8.87 4.58 7.19 7.19 0 004.5 9.02z" fill="#68CDD4"/><path d="M1110.12 240.4a5.46 5.46 0 004.18-3.73c.06-.19.26-.29.45-.23.18.06.28.27.22.46a6.17 6.17 0 01-4.72 4.2.35.35 0 01-.41-.28.35.35 0 01.28-.42z" fill="#D1D8F0"/><path d="M985 206.5a7.5 7.5 0 11-15 0 7.5 7.5 0 0115 0z" fill="#E6E6E5"/><path d="M982.31 208.14a5.47 5.47 0 01-4.81 2.86.7.7 0 000 1.41 6.9 6.9 0 006.05-3.59.7.7 0 00-1.24-.68z" fill="#6563B8"/><path d="M1149 49.5a9.5 9.5 0 11-19 0 9.5 9.5 0 0119 0z" fill="#E6E6E5"/><path d="M1145.59 51.58a6.93 6.93 0 01-6.09 3.62.9.9 0 100 1.8 8.73 8.73 0 007.67-4.56.9.9 0 00-.36-1.22.9.9 0 00-1.22.36z" fill="#6563B8"/><path d="M1058.1 189l15.32-4.57-3.18-10.59-15.32 4.58 3.18 10.58zM1041.51 133.74l15.33-4.58-1.06-3.52-15.33 4.57 1.06 3.53zM1050.69 164.3l15.32-4.57-8.29-27.63-15.33 4.58 8.3 27.63z" fill="#262B52"/><path d="M1054.92 178.42l15.32-4.58-4.23-14.1-15.32 4.57 4.23 14.1zM1042.39 136.68l15.33-4.58-.88-2.94-15.33 4.58.88 2.94z" fill="#6563B8"/><path d="M1036.92 118.46l3.53 11.75 15.33-4.57-3.53-11.76-15.33 4.58z" fill="#68CDD4"/><path d="M1072.31 69.46a39.87 39.87 0 01-26.84 49.65 40 40 0 01-49.78-26.77 39.87 39.87 0 0126.84-49.65 40 40 0 0149.78 26.77z" fill="#68CDD4"/><path d="M1069.36 70.34a36.8 36.8 0 01-24.77 45.83 36.93 36.93 0 01-45.95-24.71 36.8 36.8 0 0124.77-45.83 36.93 36.93 0 0145.95 24.7z" fill="#4AC2C1"/><path d="M1066.42 71.22a33.73 33.73 0 01-22.72 42.01 33.85 33.85 0 01-42.12-22.66 33.74 33.74 0 0122.72-42 33.85 33.85 0 0142.12 22.65z" fill="#3D4995"/><path d="M1059.35 89.79a26.98 26.98 0 01-18.06 17.8.96.96 0 10.55 1.84 28.93 28.93 0 0019.36-19.07.97.97 0 00-1.85-.57z" fill="#D1D8F0"/><path d="M37.37 15.98l20.75 16.06L69.09 7.18l-1.44-.61L57.5 29.59 38.33 14.76l-.96 1.22z" fill="#262B52"/><path d="M44.3 16.22a6.6 6.6 0 01-6.65 6.56A6.6 6.6 0 0131 16.22a6.6 6.6 0 016.65-6.57 6.6 6.6 0 016.65 6.57z" fill="#6563B8"/><path d="M42.05 17.93a5.01 5.01 0 01-4.4 2.57.48.48 0 00-.48.48c0 .26.22.47.48.47a5.98 5.98 0 005.24-3.07.47.47 0 00-.19-.64.48.48 0 00-.65.19z" fill="#D1D8F0"/><path d="M76 7.72c0 4.27-3.5 7.73-7.83 7.73a7.77 7.77 0 01-7.82-7.73c0-4.26 3.5-7.72 7.82-7.72A7.78 7.78 0 0176 7.72z" fill="#E6E6E5"/><path d="M73.42 9.89a5.98 5.98 0 01-5.25 3.07.48.48 0 00-.48.48c0 .26.22.47.48.47a6.94 6.94 0 006.1-3.57.47.47 0 00-.2-.64.48.48 0 00-.65.19z" fill="#6563B8"/><path d="M67 29.54c0 5.22-4.3 9.46-9.59 9.46a9.52 9.52 0 01-9.58-9.46c0-5.23 4.29-9.46 9.58-9.46 5.3 0 9.59 4.23 9.59 9.46z" fill="#68CDD4"/><path d="M63.93 32.39a7.44 7.44 0 01-6.52 3.82.48.48 0 00-.48.48c0 .26.22.47.48.47a8.4 8.4 0 007.37-4.32.47.47 0 00-.2-.64.48.48 0 00-.65.19z" fill="#D1D8F0"/><path d="M95.29 230.54a6.93 6.93 0 1113.58 1.93v6a51.54 51.54 0 0042.65-28.16h-14.67A37.88 37.88 0 1189.28 152a13.82 13.82 0 01-2.47-13.02 51.57 51.57 0 008.76 98.62v-5.14a6.95 6.95 0 01-.28-1.93z" fill="#262B52"/><path d="M123.24 180.06l2.2 3.86 18.29-10.45-2.2-3.85-18.3 10.44z" fill="#262B52"/><path d="M126.6 178.14L77.38 92.62l11.55-6.6 49.24 85.52-11.55 6.6z" fill="#6868BB"/><path d="M119.4 173.32l2.19 3.86 18.3-10.45-2.2-3.85-18.3 10.44z" fill="#68CDD4"/><path d="M121.04 176.21l-36.6-63.37 18.29-10.44 36.6 63.37-18.29 10.44zM74.34 91.8l2.2 3.85 15.4-8.8-2.2-3.85-15.4 8.8z" fill="#262B52"/><path d="M100 151.54c-2.2 0-4.2-.87-5.69-2.27a8.29 8.29 0 01.78-12.75 8.26 8.26 0 018.04-1 8.31 8.31 0 01-3.13 16.02zm11.71-15.7a13.83 13.83 0 00-24.9 3.15A13.82 13.82 0 0089.28 152a13.86 13.86 0 0022.43-16.16z" fill="#68CDCC"/><path d="M103.13 135.52a8.28 8.28 0 00-8.04 1 8.3 8.3 0 004.91 15.02 8.3 8.3 0 003.13-16.02zM108.87 242.47v-4s.27-7.25.27-7.93a6.93 6.93 0 10-13.85 0c0 .68.28 7.07.28 7.07v4.86" fill="#6868BB"/><path d="M108.87 241.91v.56h-13.3v-.56h-38.8V253h101.98v-11.09h-49.88z" fill="#5D63B8"/><path d="M161.8 202.55H118v7.76H169v-7.76h-7.2z" fill="#6868BB"/><path d="M155.88 198.11h-30.66v4.44h36.57v-4.44h-5.91zM102.22 226.16a3.83 3.83 0 110 7.66 3.83 3.83 0 010-7.66z" fill="#68CDD1"/><path d="M170 54a9 9 0 11-18 0 9 9 0 0118 0z" fill="#E6E6E5"/><path d="M166.77 55.97A6.57 6.57 0 01161 59.4a.85.85 0 000 1.7 8.27 8.27 0 007.26-4.32.85.85 0 00-1.49-.81z" fill="#6563B8"/><path d="M14 138a7 7 0 11-14 0 7 7 0 0114 0z" fill="#E6E6E5"/><path d="M11.49 139.53A5.11 5.11 0 017 142.2a.66.66 0 100 1.32 6.44 6.44 0 005.65-3.36.66.66 0 00-1.16-.63z" fill="#6563B8"/></svg>