<svg fill="none" xmlns="http://www.w3.org/2000/svg" viewBox="0 0 123 36"><path d="M11.52 6.45a2.06 2.06 0 00-.74-1.5c-.44-.37-1.11-.55-2-.55-.58 0-1.05.07-1.41.2-.36.13-.63.31-.8.54-.17.22-.26.48-.27.77-.01.24.03.45.13.64.1.2.27.36.5.52.22.14.51.28.87.4.35.12.77.23 1.25.33l1.68.35c1.13.23 2.1.54 2.9.91.8.38 1.46.83 1.97 1.35.51.5.89 1.08 1.13 1.71.24.64.37 1.34.38 2.09-.01 1.3-.35 2.4-1.01 3.3a6.14 6.14 0 01-2.85 2.06c-1.23.47-2.7.7-4.44.7-1.77 0-3.32-.25-4.64-.76a6.45 6.45 0 01-3.07-2.35A7.13 7.13 0 010 13.1h5.26c.04.6.2 1.11.47 1.53.28.4.67.72 1.18.93.51.21 1.12.32 1.82.32.6 0 1.09-.07 1.49-.21a2 2 0 00.9-.6c.21-.24.32-.53.32-.85 0-.3-.1-.57-.3-.8a2.4 2.4 0 00-.96-.6c-.45-.2-1.05-.37-1.8-.53l-2.04-.43a9.5 9.5 0 01-4.28-1.9A4.55 4.55 0 01.52 6.3C.52 5.04.86 3.94 1.56 3A6.9 6.9 0 014.48.8C5.73.25 7.16 0 8.78 0c1.64 0 3.07.27 4.27.8a5.93 5.93 0 013.78 5.65h-5.3zM38.28 7.68h-5.63a3.6 3.6 0 00-.32-1.22 2.93 2.93 0 00-1.76-1.56c-.42-.15-.9-.23-1.43-.23a4.1 4.1 0 00-2.36.66 4.06 4.06 0 00-1.45 1.88c-.33.82-.5 1.8-.5 2.95 0 1.2.17 2.22.5 3.04a3.9 3.9 0 001.47 1.83c.64.4 1.4.6 2.3.6.52 0 .97-.05 1.38-.17.4-.13.76-.32 1.06-.55.3-.24.54-.53.72-.86.2-.35.33-.73.4-1.15l5.62.04a7.2 7.2 0 01-.73 2.55 8.33 8.33 0 01-4.63 4.16c-1.13.44-2.44.66-3.94.66-1.87 0-3.55-.39-5.04-1.17a8.6 8.6 0 01-3.52-3.43 11.1 11.1 0 01-1.28-5.55c0-2.2.43-4.06 1.31-5.56A8.66 8.66 0 0124 1.17 10.59 10.59 0 0128.98 0c1.3 0 2.48.17 3.56.51 1.09.34 2.04.84 2.85 1.5a7.44 7.44 0 011.98 2.4c.5.95.8 2.05.9 3.27zM46.33.27v19.77H40.8V.27h5.54zM48.96 20.04V.27h14.71V4.6H54.5V8h8.42v4.32H54.5v3.4h9.13v4.32H48.96zM84.09.27v19.77h-4.63L72.1 9.65h-.12v10.4h-5.55V.26h4.7l7.27 10.35h.16V.27h5.54zM105.77 7.68h-5.62a3.61 3.61 0 00-.32-1.22 2.93 2.93 0 00-1.76-1.56c-.42-.15-.9-.23-1.43-.23a4.1 4.1 0 00-2.36.66 4.06 4.06 0 00-1.46 1.88c-.32.82-.49 1.8-.49 2.95 0 1.2.17 2.22.5 3.04a3.9 3.9 0 001.47 1.83c.63.4 1.4.6 2.3.6.51 0 .97-.05 1.38-.17.4-.13.75-.32 1.05-.55.3-.24.54-.53.73-.86.2-.35.32-.73.39-1.15l5.62.04c-.06.83-.3 1.69-.73 2.55a8.32 8.32 0 01-4.62 4.16c-1.13.44-2.44.66-3.94.66-1.87 0-3.56-.39-5.04-1.17a8.6 8.6 0 01-3.52-3.43 11.1 11.1 0 01-1.29-5.55c0-2.2.44-4.06 1.32-5.56a8.66 8.66 0 013.55-3.43A10.59 10.59 0 0196.48 0c1.29 0 2.48.17 3.56.51 1.08.34 2.03.84 2.85 1.5a7.44 7.44 0 011.97 2.4c.5.95.8 2.05.91 3.27zM108.29 20.04V.27H123V4.6h-9.17V8h8.41v4.32h-8.41v3.4h9.13v4.32h-14.67zM4.52 30v.92H.89V30h3.63zm-3.39-2.72v6.35h-1v-6.35h1zm4.16 0v6.35H4.28v-6.35h1zM9.06 33.78c-.42 0-.8-.07-1.13-.23-.34-.15-.61-.37-.81-.66-.2-.3-.3-.65-.3-1.06 0-.36.07-.66.22-.89.15-.22.35-.4.6-.53.24-.13.52-.23.82-.3l.9-.15.98-.11c.25-.03.43-.08.54-.14.12-.06.18-.17.18-.33v-.03c0-.41-.12-.73-.35-.95-.23-.23-.57-.34-1.04-.34-.48 0-.85.1-1.13.3-.27.2-.46.42-.57.66L7 28.69c.17-.4.4-.7.68-.9.29-.22.6-.38.94-.46a4.03 4.03 0 011.74-.06c.27.05.54.15.8.3.25.14.47.37.64.67.17.3.26.7.26 1.2v4.2h-1.01v-.87H11c-.07.14-.19.29-.34.45-.16.15-.38.29-.64.4-.27.1-.59.16-.97.16zm.15-.87c.4 0 .74-.08 1.01-.23.28-.15.49-.35.62-.59.15-.24.22-.5.22-.76v-.89c-.04.05-.14.1-.28.14a4.88 4.88 0 01-1.04.17l-.42.05c-.27.04-.51.09-.74.16-.22.08-.4.19-.55.33a.82.82 0 00-.2.59c0 .34.13.6.39.77.26.17.6.26 1 .26zM14.32 36a2.28 2.28 0 01-.73-.12l.25-.86c.37.1.68.1.92 0 .25-.1.46-.38.64-.86l.19-.5-2.43-6.38h1.1l1.8 5.06h.07l1.81-5.06 1.1.02-2.79 7.26a2.7 2.7 0 01-.46.8c-.19.22-.4.38-.65.48-.24.1-.51.16-.82.16zM20.38 33.63v-6.35h1v2.76h.68l2.35-2.76h1.3l-2.65 3.06 2.69 3.3h-1.3l-2.15-2.69h-.91v2.68h-1zM28.77 33.78c-.41 0-.79-.07-1.13-.23-.34-.15-.6-.37-.8-.66-.2-.3-.3-.65-.3-1.06 0-.36.07-.66.22-.89.15-.22.34-.4.6-.53.24-.13.51-.23.81-.3a43.15 43.15 0 011.88-.27c.25-.02.43-.07.55-.13.12-.06.17-.17.17-.33v-.03c0-.41-.11-.73-.34-.95-.23-.23-.58-.34-1.04-.34-.48 0-.86.1-1.13.3-.28.2-.47.42-.58.66l-.96-.33c.17-.4.4-.7.69-.9.28-.22.6-.38.94-.46a4.03 4.03 0 011.73-.06c.28.05.54.15.8.3.26.14.47.37.65.67.17.3.25.7.25 1.2v4.2h-1v-.87h-.06c-.07.14-.18.29-.34.45-.16.15-.37.29-.64.4-.26.1-.58.16-.97.16zm.16-.87c.4 0 .73-.08 1-.23.28-.15.49-.35.63-.59s.21-.5.21-.76v-.89c-.04.05-.13.1-.28.14a4.88 4.88 0 01-1.04.17l-.42.05c-.26.04-.5.09-.73.16-.23.08-.41.19-.55.33a.82.82 0 00-.2.59c0 .34.12.6.38.77.26.17.6.26 1 .26zM36.3 35.45v-2.73h.55a2.45 2.45 0 00.6-1c.07-.21.14-.48.19-.79.05-.31.1-.7.13-1.14l.23-2.51h4.17v5.44h1v2.73h-1v-1.82H37.3v1.82h-1zm1.7-2.73h3.16V28.2h-2.22l-.17 1.6c-.08.67-.16 1.25-.27 1.75-.1.5-.27.89-.5 1.18zM43.93 33.63v-.9h.24c.2 0 .36-.04.5-.12a.8.8 0 00.3-.4c.1-.2.15-.46.2-.8.04-.35.08-.79.1-1.32l.12-2.81h4.37v6.35h-1V28.2h-2.42l-.1 2.27c-.02.52-.07.98-.15 1.37-.07.4-.18.73-.32 1-.15.26-.34.47-.59.6-.24.14-.54.2-.9.2h-.35zM55.56 33.63v-5.46H53.8c-.39 0-.7.09-.92.27a.87.87 0 00-.34.73c0 .3.1.54.3.71.2.17.49.26.85.26h2.11v.91H53.7c-.45 0-.83-.07-1.15-.23a1.7 1.7 0 01-1-1.65c0-.4.08-.73.27-1.01.18-.29.44-.5.78-.65.34-.16.74-.23 1.21-.23h2.7v6.35h-.95zm-4.38 0l1.87-3.16h1.09l-1.86 3.16h-1.1zM61.75 33.63v-6.35h2.68c.7 0 1.27.15 1.69.46.41.31.62.72.62 1.23 0 .38-.12.68-.35.9a1.9 1.9 0 01-.91.42c.24.03.47.12.7.25a1.5 1.5 0 01.8 1.39c0 .32-.09.62-.26.87-.17.26-.41.46-.73.61-.32.15-.7.22-1.15.22h-3.09zm.96-.89h2.13c.35 0 .62-.08.82-.24a.8.8 0 00.3-.65c0-.33-.1-.59-.3-.78-.2-.19-.47-.28-.82-.28h-2.13v1.95zm0-2.8h1.72a2 2 0 00.7-.1c.2-.08.34-.18.44-.32.1-.14.16-.3.16-.49a.71.71 0 00-.34-.63 1.7 1.7 0 00-.96-.23h-1.72v1.77zM71.17 33.77a2.9 2.9 0 01-1.59-.43 2.78 2.78 0 01-1.02-1.16 3.83 3.83 0 01-.36-1.7c0-.64.12-1.2.37-1.7.24-.5.59-.88 1.03-1.16.44-.28.96-.42 1.55-.42.47 0 .88.08 1.25.24.37.17.68.4.91.7.24.3.39.64.44 1.04h-1a1.5 1.5 0 00-.52-.77 1.57 1.57 0 00-1.06-.34 1.81 1.81 0 00-1.72 1.13 3 3 0 00-.24 1.26c0 .49.08.91.24 1.28.16.36.39.65.68.85.3.2.64.3 1.04.3.26 0 .5-.05.72-.13.2-.1.39-.22.54-.38.15-.17.25-.37.31-.6h1.01a2.22 2.22 0 01-1.3 1.73c-.37.17-.8.26-1.28.26zM77.98 33.77c-.63 0-1.18-.14-1.64-.41-.45-.27-.8-.65-1.05-1.14a3.79 3.79 0 01-.37-1.71c0-.66.12-1.23.37-1.73.24-.5.59-.88 1.03-1.16a3.2 3.2 0 012.57-.26 2.53 2.53 0 011.56 1.52c.16.4.24.9.24 1.5v.4h-5.05v-.84h4.03c0-.36-.07-.68-.22-.96-.15-.28-.36-.5-.63-.66a1.79 1.79 0 00-.94-.25 1.85 1.85 0 00-1.72 1.04c-.15.3-.23.63-.23.98v.56c0 .48.08.9.25 1.23.18.33.42.58.73.75.3.17.66.26 1.07.26.26 0 .5-.04.72-.1a1.5 1.5 0 00.92-.89l.97.26c-.1.32-.27.6-.51.84-.25.24-.55.43-.9.57-.36.13-.76.2-1.2.2zM82.8 27.28l1.58 2.6 1.57-2.6h1.16L85 30.46l2.12 3.17h-1.16l-1.57-2.46-1.58 2.46h-1.16l2.09-3.17-2.09-3.18h1.16z" fill="#2F3878"/></svg>