<svg fill="none" xmlns="http://www.w3.org/2000/svg" viewBox="0 0 218 152"><path d="M43.4 47.2a4.29 4.29 0 01-4.24-3.14 7.37 7.37 0 01-.33-2.3c0-.85.12-1.6.35-2.28.24-.67.56-1.24.98-1.71a4.45 4.45 0 013.33-1.46c.64 0 1.2.14 1.68.4.49.26.89.56 1.2.9l-.72.86c-.28-.3-.6-.54-.95-.72a3 3 0 00-3.6.88c-.28.36-.5.8-.67 1.33a6.4 6.4 0 00-.22 1.76c0 .66.07 1.26.22 1.8.16.51.38.96.66 1.34.28.37.61.66 1 .86.41.2.86.3 1.37.3.5 0 .96-.1 1.34-.3.38-.21.75-.5 1.09-.88l.73.83c-.41.48-.88.86-1.4 1.12-.53.27-1.13.4-1.81.4zM39.44 73V62.5h1.33v4.4h4.88v-4.4h1.34V73h-1.34v-4.94h-4.88V73h-1.33zM43.4 21.2a4.29 4.29 0 01-4.24-3.14 7.37 7.37 0 01-.33-2.3c0-.85.12-1.6.35-2.28.24-.67.56-1.24.98-1.71a4.45 4.45 0 013.33-1.46c.64 0 1.2.14 1.68.4.49.26.89.56 1.2.9l-.72.86c-.28-.3-.6-.54-.95-.72a3 3 0 00-3.6.88c-.28.36-.5.8-.67 1.33a6.4 6.4 0 00-.22 1.76c0 .66.07 1.26.22 1.8.16.51.38.96.66 1.34.28.37.61.66 1 .86.41.2.86.3 1.37.3.5 0 .96-.1 1.34-.3.38-.21.75-.5 1.09-.88l.73.83c-.41.48-.88.86-1.4 1.12-.53.27-1.13.4-1.81.4zm5.18-.2V10.5h1.33v4.4h4.88v-4.4h1.34V21H54.8v-4.94H49.9V21h-1.33zm9.83 2.82v-.6l1.28-1.18c.37-.34.68-.66.93-.94.24-.3.43-.56.56-.8.13-.26.19-.5.19-.74 0-.4-.1-.73-.32-.96-.21-.23-.5-.35-.88-.35-.27 0-.51.09-.74.27-.22.17-.42.38-.6.64l-.61-.56c.24-.36.54-.66.9-.88.36-.22.75-.34 1.18-.34.63 0 1.13.17 1.5.52.39.34.58.84.58 1.5 0 .3-.06.59-.18.86a7.48 7.48 0 01-1.23 1.71l-.91.97h2.64v.88H58.4zm10.36-2.63a4.1 4.1 0 01-3.23-1.47c-.4-.48-.71-1.06-.93-1.73a7.65 7.65 0 01-.32-2.29c0-.84.1-1.6.32-2.25.22-.67.53-1.24.92-1.7.4-.47.87-.82 1.41-1.07A4.46 4.46 0 0172 11.77c.4.46.71 1.02.93 1.7.22.66.33 1.4.33 2.23 0 .85-.11 1.6-.33 2.3a4.98 4.98 0 01-.93 1.72 4.06 4.06 0 01-3.23 1.47zm0-1.17c.46 0 .89-.1 1.26-.3.38-.2.7-.5.98-.86.27-.39.49-.84.64-1.36.14-.54.22-1.13.22-1.8a6.4 6.4 0 00-.22-1.76 3.95 3.95 0 00-.64-1.32 2.7 2.7 0 00-.98-.84c-.37-.2-.8-.3-1.26-.3-.47 0-.9.1-1.28.3-.38.2-.7.47-.98.84-.27.36-.48.8-.62 1.32a6.4 6.4 0 00-.23 1.76c0 .67.08 1.26.23 1.8.14.52.35.97.62 1.36a2.7 2.7 0 002.26 1.17zm6.75.98V10.5h1.33v4.4h4.88v-4.4h1.34V21h-1.34v-4.94h-4.88V21h-1.33zM182.4 82.2a4.29 4.29 0 01-4.24-3.14 7.37 7.37 0 01-.33-2.3c0-.85.12-1.6.35-2.28.24-.67.56-1.24.98-1.71a4.45 4.45 0 013.33-1.46c.64 0 1.2.14 1.68.4.49.26.89.56 1.2.9l-.72.86c-.28-.3-.6-.54-.95-.72a3 3 0 00-3.6.88c-.28.36-.5.8-.67 1.33-.15.52-.22 1.1-.22 1.76 0 .66.07 1.26.22 1.8.16.51.38.96.66 1.34.28.37.61.66 1 .86.41.2.87.3 1.37.3.5 0 .96-.1 1.34-.3.38-.21.75-.5 1.09-.88l.73.83c-.41.48-.88.86-1.4 1.12-.53.27-1.13.4-1.81.4zM5.4 82.2a4.29 4.29 0 01-4.24-3.14 7.37 7.37 0 01-.33-2.3c0-.85.12-1.6.35-2.28.24-.67.56-1.24.98-1.71a4.45 4.45 0 013.33-1.46c.64 0 1.2.14 1.68.4.49.26.89.56 1.2.9l-.72.86c-.28-.3-.6-.54-.95-.72a3 3 0 00-3.6.88c-.28.36-.5.8-.67 1.33a6.4 6.4 0 00-.22 1.76c0 .66.07 1.26.22 1.8.16.51.38.96.66 1.34.28.37.61.66 1 .86.41.2.86.3 1.37.3.5 0 .96-.1 1.34-.3.38-.21.75-.5 1.09-.88l.73.83c-.41.48-.88.86-1.4 1.12-.53.27-1.13.4-1.81.4zM1.44 56V45.5h1.33v4.4h4.88v-4.4h1.34V56H7.65v-4.94H2.77V56H1.44zM5.31 108.2a4.11 4.11 0 01-3.23-1.47c-.4-.49-.7-1.07-.93-1.74a7.65 7.65 0 01-.32-2.29c0-.84.1-1.6.32-2.25.23-.67.54-1.24.93-1.7.4-.47.86-.82 1.4-1.07a4.46 4.46 0 015.06 1.09c.4.46.72 1.02.93 1.7.23.66.34 1.4.34 2.23 0 .85-.11 1.6-.34 2.3a4.98 4.98 0 01-.93 1.72 4.07 4.07 0 01-3.23 1.47zm0-1.18c.47 0 .9-.1 1.27-.3.38-.2.7-.5.97-.86.28-.39.5-.84.64-1.36.15-.54.23-1.14.23-1.8a6.4 6.4 0 00-.23-1.76 3.94 3.94 0 00-.64-1.32 2.7 2.7 0 00-.97-.84c-.38-.2-.8-.3-1.27-.3s-.9.1-1.28.3c-.37.2-.7.47-.97.84-.27.36-.48.8-.63 1.32a6.4 6.4 0 00-.22 1.76c0 .66.07 1.26.22 1.8.15.52.36.97.63 1.36a2.7 2.7 0 002.26 1.17zm6.75.98V97.5h1.33v4.4h4.88v-4.4h1.35V108h-1.35v-4.94H13.4V108h-1.33zM144.4 117.2a4.28 4.28 0 01-4.24-3.14 7.37 7.37 0 01-.33-2.3c0-.85.12-1.6.35-2.28.24-.67.56-1.24.98-1.71a4.45 4.45 0 013.33-1.46c.64 0 1.2.13 1.68.4.49.26.89.56 1.2.9l-.72.86a3.4 3.4 0 00-.95-.72 3 3 0 00-3.6.88c-.28.36-.5.8-.67 1.33-.15.52-.22 1.1-.22 1.76 0 .66.07 1.26.22 1.8.16.52.38.96.66 1.34.28.37.61.66 1 .86.41.2.87.3 1.37.3.5 0 .96-.1 1.34-.3.38-.21.75-.5 1.09-.88l.73.83c-.41.48-.88.86-1.4 1.12-.53.27-1.13.4-1.81.4zM139.44 91V80.5h1.33v4.4h4.88v-4.4h1.34V91h-1.34v-4.94h-4.88V91h-1.33zM197.44 56V45.5h1.33v4.4h4.88v-4.4h1.34V56h-1.34v-4.94h-4.88V56h-1.33zM201.31 108.2a4.11 4.11 0 01-3.23-1.47c-.4-.49-.7-1.07-.93-1.74a7.66 7.66 0 01-.32-2.29c0-.84.1-1.6.32-2.25.23-.67.53-1.24.93-1.7.4-.47.86-.82 1.4-1.07a4.46 4.46 0 015.06 1.09c.4.46.72 1.02.93 1.7.23.66.34 1.4.34 2.23 0 .85-.11 1.6-.34 2.3a4.98 4.98 0 01-.93 1.72 4.07 4.07 0 01-3.23 1.47zm0-1.18c.47 0 .9-.1 1.27-.3.38-.2.7-.5.97-.86.28-.39.5-.84.64-1.36.15-.54.23-1.14.23-1.8 0-.65-.08-1.23-.23-1.76a3.94 3.94 0 00-.64-1.32 2.7 2.7 0 00-.97-.84c-.38-.2-.8-.3-1.27-.3s-.9.1-1.28.3c-.37.2-.7.47-.97.84-.27.36-.48.8-.63 1.32-.15.53-.22 1.11-.22 1.76 0 .66.07 1.26.22 1.8.15.52.36.97.63 1.36a2.7 2.7 0 002.26 1.17zm6.75.98V97.5h1.33v4.4h4.88v-4.4h1.35V108h-1.35v-4.94h-4.88V108h-1.32zM143.31 143.2a4.11 4.11 0 01-3.23-1.47c-.4-.49-.7-1.07-.93-1.74a7.66 7.66 0 01-.32-2.29c0-.84.1-1.6.32-2.25.23-.67.53-1.24.93-1.7.4-.47.86-.82 1.4-1.07a4.47 4.47 0 015.06 1.09c.4.46.72 1.02.93 1.7.23.66.34 1.4.34 2.23 0 .85-.11 1.6-.34 2.3a4.98 4.98 0 01-.93 1.72 4.07 4.07 0 01-3.23 1.47zm0-1.18c.47 0 .9-.1 1.27-.3.38-.2.7-.5.97-.86.28-.39.5-.84.64-1.36.15-.54.23-1.13.23-1.8 0-.65-.08-1.23-.23-1.76a3.95 3.95 0 00-.64-1.32 2.7 2.7 0 00-.97-.84c-.38-.2-.8-.3-1.27-.3s-.9.1-1.28.3c-.37.2-.7.47-.97.84-.27.36-.48.8-.63 1.32-.15.53-.22 1.11-.22 1.76 0 .67.07 1.26.22 1.8.15.52.36.97.63 1.36a2.7 2.7 0 002.26 1.17zm6.75.98v-10.5h1.33v4.4h4.88v-4.4h1.35V143h-1.35v-4.94h-4.88V143h-1.32zM43.4 117.2a4.28 4.28 0 01-4.24-3.14 7.37 7.37 0 01-.33-2.3c0-.85.12-1.6.35-2.28.24-.67.56-1.24.98-1.71a4.45 4.45 0 013.33-1.46c.64 0 1.2.13 1.68.4.49.26.89.56 1.2.9l-.72.86a3.4 3.4 0 00-.95-.72 3 3 0 00-3.6.88c-.28.36-.5.8-.67 1.33a6.4 6.4 0 00-.22 1.76c0 .66.07 1.26.22 1.8.16.52.38.96.66 1.34.28.37.61.66 1 .86.41.2.86.3 1.37.3.5 0 .96-.1 1.34-.3.38-.21.75-.5 1.09-.88l.73.83c-.41.48-.88.86-1.4 1.12-.53.27-1.13.4-1.81.4zM39.44 143v-10.5h1.33v4.4h4.88v-4.4h1.34V143h-1.34v-4.94h-4.88V143h-1.33zM43.31 91.2a4.1 4.1 0 01-3.23-1.47c-.4-.49-.7-1.07-.93-1.74a7.65 7.65 0 01-.32-2.29c0-.84.1-1.6.32-2.25.23-.67.54-1.24.93-1.7.4-.47.86-.82 1.4-1.07a4.46 4.46 0 015.06 1.09c.4.46.72 1.02.93 1.7.23.66.34 1.4.34 2.23 0 .85-.11 1.6-.34 2.3a4.98 4.98 0 01-.93 1.72 4.06 4.06 0 01-3.23 1.47zm0-1.18c.47 0 .9-.1 1.27-.3.38-.2.7-.5.97-.86.28-.39.5-.84.64-1.36.15-.54.23-1.13.23-1.8a6.4 6.4 0 00-.23-1.76 3.95 3.95 0 00-.64-1.32 2.7 2.7 0 00-.97-.84c-.38-.2-.8-.3-1.27-.3s-.9.1-1.28.3c-.37.2-.7.47-.97.84-.27.36-.48.8-.63 1.32a6.4 6.4 0 00-.22 1.76c0 .67.07 1.26.22 1.8.15.52.36.97.63 1.36a2.7 2.7 0 002.26 1.17zm6.75.98V80.5h1.33v4.4h4.88v-4.4h1.35V91h-1.35v-4.94H51.4V91h-1.33zM143.31 47.2a4.11 4.11 0 01-3.23-1.47c-.4-.49-.7-1.07-.93-1.74a7.66 7.66 0 01-.32-2.29c0-.84.1-1.6.32-2.25.23-.67.53-1.24.93-1.7.4-.47.86-.82 1.4-1.07a4.46 4.46 0 015.06 1.09c.4.46.72 1.02.93 1.7.23.66.34 1.4.34 2.23 0 .85-.11 1.6-.34 2.3a4.98 4.98 0 01-.93 1.72 4.06 4.06 0 01-3.23 1.47zm0-1.18c.47 0 .9-.1 1.27-.3.38-.2.7-.5.97-.86.28-.39.5-.84.64-1.36.15-.54.23-1.13.23-1.8 0-.65-.08-1.23-.23-1.76a3.95 3.95 0 00-.64-1.32 2.7 2.7 0 00-.97-.84c-.38-.2-.8-.3-1.27-.3s-.9.1-1.28.3c-.37.2-.7.47-.97.84-.27.36-.48.8-.63 1.32-.15.53-.22 1.11-.22 1.76 0 .67.07 1.26.22 1.8.15.52.36.97.63 1.36a2.7 2.7 0 002.26 1.17z" fill="#111032"/><path d="M52 42h82M53 112h82M43 51v8M43 24v8M43 95v8M5 85v8M5 59v8M43 121v8M144 120v8M144 95v8M35 46L13 73.72m0 7.05L35 110M152 42l22 27.72m0 7.05L152 106M187 68l9-9M187 86l9 9" stroke="#111032"/></svg>