<svg fill="none" xmlns="http://www.w3.org/2000/svg" viewBox="0 0 98 242"><path d="M12.44 89V78.5h1.33v4.4h4.88v-4.4h1.34V89h-1.34v-4.94h-4.88V89h-1.33zM12.44 161v-10.5h1.33v4.4h4.88v-4.4h1.34V161h-1.34v-4.94h-4.88V161h-1.33zM12.44 197v-10.5h1.33v4.4h4.88v-4.4h1.34V197h-1.34v-4.94h-4.88V197h-1.33zM1.44 125v-10.5h1.33v4.4h4.88v-4.4h1.34V125H7.65v-4.94H2.77V125H1.44zm14.3.2a4.11 4.11 0 01-3.23-1.47c-.39-.49-.7-1.07-.92-1.74a7.65 7.65 0 01-.32-2.29c0-.84.1-1.6.32-2.25.22-.67.53-1.24.93-1.7.4-.47.86-.83 1.4-1.07a4.46 4.46 0 015.06 1.09c.4.46.72 1.02.93 1.7.22.66.34 1.4.34 2.23 0 .85-.12 1.6-.34 2.3a4.98 4.98 0 01-.93 1.72 4.07 4.07 0 01-3.23 1.47zm0-1.18c.48 0 .9-.1 1.27-.3.39-.2.71-.5.98-.86.28-.39.49-.84.64-1.36.15-.54.22-1.14.22-1.8a6.4 6.4 0 00-.22-1.76 3.95 3.95 0 00-.64-1.32 2.7 2.7 0 00-.98-.84c-.37-.2-.8-.3-1.26-.3-.47 0-.9.1-1.28.3-.37.2-.7.47-.98.84-.26.36-.47.8-.62 1.32a6.4 6.4 0 00-.22 1.76c0 .66.07 1.26.22 1.8.15.52.36.97.62 1.36a2.7 2.7 0 002.26 1.17zM81.31 89.2a4.1 4.1 0 01-3.23-1.47c-.4-.49-.7-1.07-.93-1.74a7.65 7.65 0 01-.32-2.29c0-.84.1-1.6.32-2.25.23-.67.54-1.24.93-1.7.4-.47.86-.82 1.4-1.07a4.46 4.46 0 015.06 1.09c.4.46.72 1.02.93 1.7.23.66.34 1.4.34 2.23 0 .85-.11 1.6-.34 2.3a4.98 4.98 0 01-.93 1.72 4.06 4.06 0 01-3.23 1.47zm0-1.18c.47 0 .9-.1 1.27-.3.38-.2.7-.5.97-.86.28-.39.5-.84.64-1.36.15-.54.23-1.13.23-1.8a6.4 6.4 0 00-.23-1.76 3.95 3.95 0 00-.64-1.32 2.7 2.7 0 00-.97-.84c-.38-.2-.8-.3-1.27-.3s-.9.1-1.28.3c-.37.2-.7.47-.97.84-.27.36-.48.8-.63 1.32a6.4 6.4 0 00-.22 1.76c0 .67.07 1.26.22 1.8.15.52.36.97.63 1.36a2.7 2.7 0 002.26 1.17zm6.75.98V78.5h1.33v4.4h4.88v-4.4h1.35V89h-1.35v-4.94H89.4V89h-1.33zM81.31 161.2a4.11 4.11 0 01-3.23-1.47c-.4-.49-.7-1.07-.93-1.74a7.65 7.65 0 01-.32-2.29c0-.84.1-1.6.32-2.25.23-.67.54-1.24.93-1.7.4-.47.86-.82 1.4-1.07a4.46 4.46 0 015.06 1.09c.4.46.72 1.02.93 1.7.23.66.34 1.4.34 2.23 0 .85-.11 1.6-.34 2.3a4.98 4.98 0 01-.93 1.72 4.07 4.07 0 01-3.23 1.47zm0-1.18c.47 0 .9-.1 1.27-.3.38-.2.7-.5.97-.86.28-.39.5-.84.64-1.36.15-.54.23-1.13.23-1.8a6.4 6.4 0 00-.23-1.76 3.95 3.95 0 00-.64-1.32 2.7 2.7 0 00-.97-.84c-.38-.2-.8-.3-1.27-.3s-.9.1-1.28.3c-.37.2-.7.47-.97.84-.27.36-.48.8-.63 1.32a6.4 6.4 0 00-.22 1.76c0 .67.07 1.26.22 1.8.15.52.36.97.63 1.36a2.7 2.7 0 002.26 1.17zm6.75.98v-10.5h1.33v4.4h4.88v-4.4h1.35V161h-1.35v-4.94H89.4V161h-1.33zM81.31 197.2a4.11 4.11 0 01-3.23-1.47c-.4-.49-.7-1.07-.93-1.74a7.65 7.65 0 01-.32-2.29c0-.84.1-1.6.32-2.25.23-.67.54-1.24.93-1.7.4-.47.86-.82 1.4-1.07a4.46 4.46 0 015.06 1.09c.4.46.72 1.02.93 1.7.23.66.34 1.4.34 2.23 0 .85-.11 1.6-.34 2.3a4.98 4.98 0 01-.93 1.72 4.07 4.07 0 01-3.23 1.47zm0-1.18c.47 0 .9-.1 1.27-.3.38-.2.7-.5.97-.86.28-.39.5-.84.64-1.36.15-.54.23-1.13.23-1.8a6.4 6.4 0 00-.23-1.76 3.95 3.95 0 00-.64-1.32 2.7 2.7 0 00-.97-.84c-.38-.2-.8-.3-1.27-.3s-.9.1-1.28.3c-.37.2-.7.47-.97.84-.27.36-.48.8-.63 1.32a6.4 6.4 0 00-.22 1.76c0 .67.07 1.26.22 1.8.15.52.36.97.63 1.36a2.7 2.7 0 002.26 1.17zm6.75.98v-10.5h1.33v4.4h4.88v-4.4h1.35V197h-1.35v-4.94H89.4V197h-1.33zM77.44 125v-10.5h1.33v4.4h4.88v-4.4h1.34V125h-1.34v-4.94h-4.88V125h-1.33zM22.44 21V10.5h1.33v4.4h4.88v-4.4h1.34V21h-1.34v-4.94h-4.88V21h-1.33zM75.31 21.2a4.1 4.1 0 01-3.23-1.47c-.4-.49-.7-1.07-.93-1.74a7.65 7.65 0 01-.32-2.29c0-.84.1-1.6.32-2.25.23-.67.54-1.24.93-1.7.4-.47.86-.82 1.4-1.07a4.46 4.46 0 015.06 1.09c.4.46.72 1.02.93 1.7.23.66.34 1.4.34 2.23 0 .85-.11 1.6-.34 2.3a4.98 4.98 0 01-.93 1.72 4.06 4.06 0 01-3.23 1.47zm0-1.18c.47 0 .9-.1 1.27-.3.38-.2.7-.5.97-.86.28-.39.5-.84.64-1.36.15-.54.23-1.13.23-1.8a6.4 6.4 0 00-.23-1.76 3.95 3.95 0 00-.64-1.32 2.7 2.7 0 00-.97-.84c-.38-.2-.8-.3-1.27-.3s-.9.1-1.28.3c-.37.2-.7.47-.97.84-.27.36-.48.8-.63 1.32a6.4 6.4 0 00-.22 1.76c0 .67.07 1.26.22 1.8.15.52.36.97.63 1.36a2.7 2.7 0 002.26 1.17z" fill="#111032"/><path d="M35 24l12 13M69 25L54 39M67 23L52 37" stroke="#111032"/><path d="M46.44 233v-10.5h1.33v4.4h4.88v-4.4h1.34V233h-1.34v-4.94h-4.88V233h-1.33zM50.4 53.2a4.29 4.29 0 01-4.24-3.14 7.37 7.37 0 01-.33-2.3c0-.85.12-1.6.35-2.28.24-.67.56-1.24.98-1.71a4.45 4.45 0 013.33-1.46c.64 0 1.2.14 1.68.4.49.26.89.56 1.2.9l-.72.86c-.28-.3-.6-.54-.95-.72a3 3 0 00-3.6.88c-.28.36-.5.8-.67 1.33a6.4 6.4 0 00-.22 1.76c0 .66.07 1.26.22 1.8.16.51.38.96.66 1.34.28.37.61.66 1 .86.41.2.86.3 1.37.3.5 0 .96-.1 1.34-.3.38-.21.75-.5 1.09-.88l.73.83c-.41.48-.88.86-1.4 1.12-.53.27-1.13.4-1.81.4zM50.4 89.2a4.29 4.29 0 01-4.24-3.14 7.37 7.37 0 01-.33-2.3c0-.85.12-1.6.35-2.28.24-.67.56-1.24.98-1.71a4.45 4.45 0 013.33-1.46c.64 0 1.2.14 1.68.4.49.26.89.56 1.2.9l-.72.86c-.28-.3-.6-.54-.95-.72a3 3 0 00-3.6.88c-.28.36-.5.8-.67 1.33a6.4 6.4 0 00-.22 1.76c0 .66.07 1.26.22 1.8.16.51.38.96.66 1.34.28.37.61.66 1 .86.41.2.86.3 1.37.3.5 0 .96-.1 1.34-.3.38-.21.75-.5 1.09-.88l.73.83c-.41.48-.88.86-1.4 1.12-.53.27-1.13.4-1.81.4zM50.4 161.2a4.28 4.28 0 01-4.24-3.14 7.37 7.37 0 01-.33-2.3c0-.85.12-1.6.35-2.28.24-.67.56-1.24.98-1.71a4.45 4.45 0 013.33-1.46c.64 0 1.2.13 1.68.4.49.26.89.56 1.2.9l-.72.86a3.4 3.4 0 00-.95-.72 3 3 0 00-3.6.88c-.28.37-.5.8-.67 1.33a6.4 6.4 0 00-.22 1.76c0 .66.07 1.26.22 1.8.16.51.38.96.66 1.34.28.37.61.66 1 .86.41.2.86.3 1.37.3.5 0 .96-.1 1.34-.3.38-.21.75-.5 1.09-.88l.73.83c-.41.48-.88.86-1.4 1.12-.53.27-1.13.4-1.81.4zM50.4 125.2a4.28 4.28 0 01-4.24-3.14 7.37 7.37 0 01-.33-2.3c0-.85.12-1.6.35-2.28.24-.67.56-1.24.98-1.71a4.45 4.45 0 013.33-1.46c.64 0 1.2.13 1.68.4.49.26.89.56 1.2.9l-.72.86a3.4 3.4 0 00-.95-.72 3 3 0 00-3.6.88c-.28.36-.5.8-.67 1.33a6.4 6.4 0 00-.22 1.76c0 .66.07 1.26.22 1.8.16.52.38.96.66 1.34.28.37.61.66 1 .86.41.2.86.3 1.37.3.5 0 .96-.1 1.34-.3.38-.21.75-.5 1.09-.88l.73.83c-.41.48-.88.86-1.4 1.12-.53.27-1.13.4-1.81.4zM50.4 197.2a4.28 4.28 0 01-4.24-3.14 7.37 7.37 0 01-.33-2.3c0-.85.12-1.6.35-2.28.24-.67.56-1.24.98-1.71a4.45 4.45 0 013.33-1.46c.64 0 1.2.13 1.68.4.49.26.89.56 1.2.9l-.72.86a3.4 3.4 0 00-.95-.72 3 3 0 00-3.6.88c-.28.37-.5.8-.67 1.33a6.4 6.4 0 00-.22 1.76c0 .66.07 1.26.22 1.8.16.51.38.96.66 1.34.28.37.61.66 1 .86.41.2.86.3 1.37.3.5 0 .96-.1 1.34-.3.38-.21.75-.5 1.09-.88l.73.83c-.41.48-.88.86-1.4 1.12-.53.27-1.13.4-1.81.4z" fill="#111032"/><path d="M50 58v14M50 130v14M50 94v14M50 166v14M50 202v14M58 83h14M58 155h14M58 191h14M58 119h14M26 83h14M26 155h14M26 191h14M26 119h14" stroke="#111032"/></svg>