<svg fill="none" xmlns="http://www.w3.org/2000/svg" viewBox="0 0 15 16"><path d="M8.78 12.02l-3.32-1.83A3.15 3.15 0 010 8a3.23 3.23 0 012-2.98 3.12 3.12 0 013.46.8l3.32-1.84a3.24 3.24 0 011.9-3.76 3.12 3.12 0 013.93 1.45 3.24 3.24 0 01-.92 4.12 3.13 3.13 0 01-4.15-.4L6.22 7.22c.13.51.13 1.05 0 1.56l3.32 1.83a3.14 3.14 0 015.38 1.49 3.24 3.24 0 01-2 3.7 3.12 3.12 0 01-3.89-1.54c-.35-.69-.44-1.49-.25-2.24zM3.16 9.6c.42 0 .82-.17 1.11-.47a1.61 1.61 0 000-2.26 1.57 1.57 0 00-2.23 0 1.61 1.61 0 000 2.26c.3.3.7.47 1.12.47zm8.68-4.8c.42 0 .82-.17 1.12-.47a1.61 1.61 0 000-2.26 1.57 1.57 0 00-2.23 0 1.61 1.61 0 000 2.26c.3.3.7.47 1.11.47zm0 9.6c.42 0 .82-.17 1.12-.47a1.61 1.61 0 000-2.26 1.57 1.57 0 00-2.23 0 1.61 1.61 0 000 2.26c.3.3.7.47 1.11.47z" fill="#111032"/></svg>