<svg fill="none" xmlns="http://www.w3.org/2000/svg" viewBox="0 0 137 44"><path d="M.9 41.8H1c.1 0 .18-.04.26-.12.08-.08.15-.17.2-.28.07-.1.11-.22.14-.34.03-.13.04-.25.04-.36V30.06c0-.1-.01-.2-.04-.32a1.08 1.08 0 00-.14-.34.67.67 0 00-.22-.28.38.38 0 00-.28-.12h-.1v-.2h3.28c1.24 0 2.2.27 2.9.82.7.55 1.06 1.27 1.06 2.18 0 .39-.07.73-.2 1.04a3.61 3.61 0 01-1.86 1.84 3.33 3.33 0 012.3 1.42c.24.32.4.67.5 1.04.1.37.14.74.14 1.1 0 .7-.13 1.28-.38 1.76-.25.47-.6.85-1.02 1.16-.41.3-.9.5-1.44.64-.53.13-1.09.2-1.66.2H.9v-.2zm6.72-3.44a3.69 3.69 0 00-1.04-2.38 3.45 3.45 0 00-2.48-.84H2.98v6.2h1.16c1.08 0 1.93-.24 2.54-.72.63-.5.94-1.17.94-2.04v-.22zm-.82-6.38a2.53 2.53 0 00-.82-1.84 2.84 2.84 0 00-2-.68h-1v5.04h1.04c.56 0 1.01-.07 1.36-.22a2 2 0 001.3-1.34c.08-.28.12-.55.12-.82v-.14zm5.09 9.82h.1c.1 0 .2-.03.28-.1.08-.08.14-.17.2-.28.06-.1.1-.22.14-.34.04-.12.06-.23.06-.34v-10.7c0-.1-.02-.2-.06-.32a1.08 1.08 0 00-.14-.34.8.8 0 00-.2-.26.38.38 0 00-.28-.12h-.1v-.2h7.7v1.86h-.2a1.3 1.3 0 00-.36-.8c-.22-.24-.55-.36-1-.36H14v5.06h3.32c.3 0 .56-.1.76-.28.2-.19.32-.4.32-.66h.2v2.5h-.2a.8.8 0 00-.3-.62c-.2-.17-.46-.26-.78-.26H14v6.06h4.38c.25 0 .47-.06.66-.18a1.75 1.75 0 00.74-.96c.06-.2.1-.37.1-.5h.2V42h-8.2v-.2zm17.28-12.48a5.8 5.8 0 00-2.58.54 5.72 5.72 0 00-2.88 3.28 6.15 6.15 0 00.12 4.42c.3.75.72 1.41 1.26 2a6.81 6.81 0 001.9 1.4 5.32 5.32 0 003.18.44 3.17 3.17 0 001.86-.96c.28-.28.5-.65.64-1.1h.2v2.22c-.2 0-.42.03-.64.08l-.72.18c-.35.1-.74.18-1.16.26-.42.08-.86.12-1.32.12-1.16 0-2.18-.2-3.06-.6a6.47 6.47 0 01-3.52-3.72 7.2 7.2 0 010-4.92 6.68 6.68 0 013.6-3.76 7.88 7.88 0 015.88-.08c.17.03.34.04.5.04v2.22h-.2a2.3 2.3 0 00-1.2-1.66 4.6 4.6 0 00-1.86-.4zm14.6 12.48h.1a.4.4 0 00.26-.1c.08-.08.15-.17.2-.28.07-.12.11-.24.14-.36.03-.13.04-.25.04-.36v-5.44h-6.4v5.44a1.46 1.46 0 00.34.98c.08.08.17.12.28.12h.1v.2h-2.8v-.2h.1a.4.4 0 00.26-.1c.08-.08.15-.17.2-.28.07-.12.11-.24.14-.36.03-.13.04-.25.04-.36V30.04a1.5 1.5 0 00-.16-.66.8.8 0 00-.2-.26.38.38 0 00-.28-.12h-.1v-.2h2.8v.2h-.1c-.1 0-.2.04-.28.12a.8.8 0 00-.2.26 2.52 2.52 0 00-.14.66v4.52h6.4v-4.52a1.5 1.5 0 00-.16-.66.8.8 0 00-.2-.26.38.38 0 00-.28-.12h-.1v-.2h2.8v.2h-.1c-.1 0-.2.04-.28.12a.8.8 0 00-.2.26 2.52 2.52 0 00-.14.66V40.7c0 .1.01.23.04.36l.14.34c.05.1.11.2.18.28.08.08.17.12.26.12h.1v.2h-2.8v-.2zm13.3 0h.1c.32 0 .48-.15.48-.44 0-.1-.02-.22-.06-.34l-1.8-4.86h-3.5l-1.74 4.78c-.04.1-.06.2-.06.3 0 .17.05.31.14.42.1.1.2.14.3.14h.1v.2h-2.22v-.2h.1c.17 0 .34-.1.5-.3.17-.21.31-.46.42-.74l4.58-12.2 4.48 12.08c.1.27.22.53.38.78.17.25.4.38.66.38h.1v.2h-2.96v-.2zm-4.58-6.32h3.08l-1.54-4.18-1.54 4.18zm16.33 6.32h.1c.1 0 .18-.04.26-.12.08-.08.15-.17.2-.28.07-.1.12-.22.14-.34.03-.13.04-.25.04-.36V30.06c0-.1-.01-.2-.04-.32a1.08 1.08 0 00-.14-.34.67.67 0 00-.22-.28.38.38 0 00-.28-.12h-.1v-.2h3.28c1.24 0 2.2.27 2.9.82.7.55 1.06 1.27 1.06 2.18 0 .39-.06.73-.2 1.04a3.61 3.61 0 01-1.86 1.84 3.33 3.33 0 012.3 1.42c.24.32.4.67.5 1.04.1.37.14.74.14 1.1 0 .7-.12 1.28-.38 1.76-.25.47-.6.85-1.02 1.16-.41.3-.9.5-1.44.64-.53.13-1.08.2-1.66.2h-3.58v-.2zm6.72-3.44a3.7 3.7 0 00-1.04-2.38 3.45 3.45 0 00-2.48-.84H70.9v6.2h1.16c1.08 0 1.93-.24 2.54-.72.63-.5.94-1.17.94-2.04v-.22zm-.82-6.38a2.53 2.53 0 00-.82-1.84 2.84 2.84 0 00-2-.68h-1v5.04h1.04c.56 0 1.02-.07 1.36-.22a2 2 0 001.3-1.34c.08-.28.12-.55.12-.82v-.14zm11.42-2.66a5.8 5.8 0 00-2.58.54 5.72 5.72 0 00-2.88 3.28 6.15 6.15 0 00.12 4.42c.31.75.73 1.41 1.26 2a6.81 6.81 0 001.9 1.4 5.32 5.32 0 003.18.44 3.17 3.17 0 001.86-.96c.28-.28.5-.65.64-1.1h.2v2.22c-.2 0-.4.03-.64.08l-.72.18c-.34.1-.73.18-1.16.26-.4.08-.85.12-1.32.12-1.16 0-2.18-.2-3.06-.6a6.46 6.46 0 01-3.52-3.72 7.2 7.2 0 010-4.92 6.68 6.68 0 013.6-3.76 7.88 7.88 0 015.88-.08c.18.03.34.04.5.04v2.22h-.2a2.3 2.3 0 00-1.2-1.66 4.6 4.6 0 00-1.86-.4zm6.63 12.48h.1c.1 0 .2-.03.28-.1.08-.08.14-.17.2-.28.06-.1.1-.22.14-.34.04-.12.06-.23.06-.34v-10.7c0-.1-.02-.2-.06-.32a1.08 1.08 0 00-.14-.34.8.8 0 00-.2-.26.38.38 0 00-.28-.12h-.1v-.2h7.7v1.86h-.2a1.3 1.3 0 00-.36-.8c-.22-.24-.55-.36-1-.36h-4.02v5.06h3.32c.3 0 .56-.1.76-.28.2-.19.32-.4.32-.66h.2v2.5h-.2a.8.8 0 00-.3-.62c-.2-.17-.46-.26-.78-.26h-3.32v6.06h4.38c.25 0 .47-.06.66-.18a1.76 1.76 0 00.74-.96c.06-.2.1-.37.1-.5h.2V42h-8.2v-.2zm13.68 0h.1v.2h-2.88v-.2h.1c.1 0 .2-.03.28-.1.08-.08.15-.17.2-.28.07-.1.12-.22.14-.34.03-.12.04-.23.04-.34v-10.7c0-.1-.01-.2-.04-.32a1.1 1.1 0 00-.14-.34.8.8 0 00-.2-.26.38.38 0 00-.28-.12h-.1v-.2h7.7v2.12h-.2c0-.48-.1-.83-.32-1.06-.2-.24-.52-.36-.96-.36h-4.1v11.24a1.55 1.55 0 00.16.68c.07.1.14.2.22.28.08.07.18.1.28.1zm16.17-.5v2.5h-.2a2.23 2.23 0 00-.96-1.62c-.19-.12-.4-.18-.62-.18h-9.22c-.23 0-.43.06-.62.18-.19.13-.35.29-.5.46-.13.19-.25.39-.34.6-.08.21-.13.4-.14.56h-.2v-2.5h.88c.43 0 .73-.25.9-.74l4.6-12.06 4.64 12c.1.2.22.39.38.56.16.16.35.24.56.24h.84zm-10.58 0h7.7l-3.86-9.94-3.84 9.94zm21.05.5h.1c.32 0 .48-.15.48-.44 0-.1-.02-.22-.06-.34l-1.8-4.86h-3.5l-1.74 4.78c-.04.1-.06.2-.06.3 0 .17.04.31.14.42.1.1.2.14.3.14h.1v.2h-2.22v-.2h.1c.17 0 .34-.1.5-.3.17-.21.31-.46.42-.74l4.58-12.2 4.48 12.08c.1.27.22.53.38.78.17.25.4.38.66.38h.1v.2h-2.96v-.2zm-4.58-6.32h3.08l-1.54-4.18-1.54 4.18z" fill="#fff"/><path d="M72.75 9c0 2.33-1.13 4.47-2.3 6.07a17.3 17.3 0 01-2.02 2.26 15.2 15.2 0 01-2-2.26c-1.18-1.6-2.32-3.74-2.32-6.07s1.14-4.47 2.32-6.07a17.32 17.32 0 012-2.26l.4.39c.44.44 1.03 1.08 1.61 1.87 1.18 1.6 2.31 3.74 2.31 6.07z" stroke="#fff"/><path d="M66.56 8.78c1.46 1.67 2.03 4.1 2.22 6.18a20.83 20.83 0 01.04 3.27l-.56.04c-.59.03-1.4.03-2.3-.08-1.83-.22-3.96-.87-5.42-2.54s-2.04-4.1-2.23-6.18a20.85 20.85 0 01-.03-3.27l.56-.04c.58-.03 1.4-.03 2.3.08 1.83.22 3.96.87 5.42 2.54zM71.65 8.78c-1.46 1.67-2.03 4.1-2.23 6.18a20.83 20.83 0 00-.03 3.27l.56.04c.59.03 1.4.03 2.3-.08 1.83-.22 3.96-.87 5.42-2.54s2.03-4.1 2.22-6.18a20.85 20.85 0 00.04-3.27l-.56-.04c-.59-.03-1.4-.03-2.3.08-1.83.22-3.96.87-5.42 2.54zM47 12H2M136 12H90" stroke="#fff"/></svg>