<svg fill="none" xmlns="http://www.w3.org/2000/svg" viewBox="0 0 240 78"><path d="M2.58 73.65h.17c.16 0 .31-.07.46-.21.14-.14.25-.3.35-.49.11-.19.2-.39.24-.6.05-.23.07-.44.07-.63V53.1c0-.16-.02-.34-.07-.55-.05-.21-.13-.41-.24-.6-.1-.21-.23-.37-.39-.49a.67.67 0 00-.49-.21H2.5v-.35h5.74c2.17 0 3.87.48 5.08 1.44a4.58 4.58 0 011.86 3.81c0 .68-.12 1.28-.36 1.82a6.32 6.32 0 01-3.25 3.22c.98.19 1.8.5 2.45.95.65.44 1.18.95 1.58 1.53.42.56.7 1.17.87 1.83.16.65.25 1.29.25 1.92 0 1.21-.23 2.24-.67 3.08a5.98 5.98 0 01-1.79 2.03c-.72.51-1.56.89-2.52 1.12-.93.23-1.9.35-2.9.35H2.58v-.35zm11.76-6.02a6.46 6.46 0 00-1.82-4.16c-1.03-.98-2.48-1.48-4.34-1.48H6.22v10.85h2.02c1.9 0 3.38-.42 4.45-1.26a4.3 4.3 0 001.65-3.56v-.39zM12.9 56.47a4.43 4.43 0 00-1.44-3.23 4.97 4.97 0 00-3.5-1.19H6.21v8.83h1.83c.98 0 1.77-.13 2.38-.39a3.49 3.49 0 002.28-2.34c.13-.5.2-.97.2-1.44v-.24zm8.9 17.18h.17c.2 0 .35-.06.5-.18.13-.14.25-.3.34-.48.12-.2.2-.39.25-.6.07-.21.1-.4.1-.6V53.08c0-.16-.03-.35-.1-.56-.05-.21-.13-.4-.25-.6a1.4 1.4 0 00-.35-.45.67.67 0 00-.49-.21h-.17v-.35h13.47v3.26h-.35c-.04-.54-.25-1-.63-1.4-.37-.42-.95-.63-1.75-.63h-7.03v8.85h5.8c.55 0 .99-.16 1.34-.49.37-.33.56-.71.56-1.16h.35v4.38h-.35c0-.42-.18-.78-.53-1.09-.35-.3-.8-.45-1.36-.45H25.5v10.6h7.66c.45 0 .83-.1 1.16-.31a3.06 3.06 0 001.3-1.68c.11-.35.17-.64.17-.88h.35V74H21.8v-.35zm30.24-21.84c-1.72 0-3.23.31-4.51.95a9.31 9.31 0 00-3.15 2.41 10 10 0 00-1.9 3.32c-.39 1.24-.59 2.47-.59 3.68 0 1.38.27 2.73.8 4.06.55 1.3 1.28 2.47 2.21 3.5.96 1 2.07 1.82 3.33 2.45a9.31 9.31 0 005.56.77 5.55 5.55 0 003.26-1.68c.49-.49.86-1.13 1.12-1.92h.35v3.88c-.35 0-.72.05-1.12.14l-1.26.31c-.6.17-1.28.32-2.03.46-.72.14-1.5.21-2.31.21-2.03 0-3.82-.35-5.36-1.05a11.31 11.31 0 01-6.16-6.51 12.6 12.6 0 010-8.61c.52-1.42 1.3-2.7 2.35-3.81a11.69 11.69 0 013.95-2.77 13.78 13.78 0 017.67-.84 29.34 29.34 0 012.62.7c.3.05.6.07.88.07v3.88h-.35a4.03 4.03 0 00-2.1-2.9 8.05 8.05 0 00-3.26-.7zM77.6 73.65h.17a.7.7 0 00.46-.18 2.35 2.35 0 00.6-1.12c.04-.23.06-.44.06-.63V62.2H67.7v9.52a2.57 2.57 0 00.6 1.72c.14.14.3.21.49.21h.17V74h-4.9v-.35h.18a.7.7 0 00.45-.18 2.35 2.35 0 00.6-1.12c.04-.23.07-.44.07-.63V53.07a2.62 2.62 0 00-.28-1.16 1.4 1.4 0 00-.35-.45.67.67 0 00-.5-.21h-.17v-.35h4.9v.35h-.17a.67.67 0 00-.5.21 1.4 1.4 0 00-.34.45 4.42 4.42 0 00-.25 1.16v7.91h11.2v-7.91a2.62 2.62 0 00-.28-1.16 1.4 1.4 0 00-.35-.45.67.67 0 00-.49-.21h-.17v-.35h4.9v.35h-.18a.67.67 0 00-.49.21 1.4 1.4 0 00-.35.45 4.42 4.42 0 00-.24 1.16v18.65c0 .2.02.4.07.64.07.2.15.4.24.59.1.19.2.35.32.49.14.14.29.21.45.21h.18V74h-4.9v-.35zm23.27 0h.18c.56 0 .84-.26.84-.77 0-.19-.04-.38-.1-.6l-3.16-8.5h-6.12l-3.05 8.36c-.07.2-.1.37-.1.53 0 .3.08.55.24.73.17.17.34.25.53.25h.17V74h-3.88v-.35h.17c.3 0 .6-.18.88-.53.3-.37.55-.8.73-1.29l8.02-21.35 7.84 21.14c.16.47.38.92.66 1.36.3.45.7.67 1.16.67h.17V74h-5.18v-.35zm-8.01-11.06h5.39l-2.7-7.32-2.7 7.32zm28.58 11.06h.17c.17 0 .32-.07.46-.21.14-.14.26-.3.35-.49.12-.19.2-.39.25-.6.04-.23.06-.44.06-.63V53.1c0-.16-.02-.34-.06-.55-.05-.21-.13-.41-.25-.6-.1-.21-.22-.37-.39-.49a.67.67 0 00-.48-.21h-.18v-.35h5.74c2.17 0 3.86.48 5.08 1.44a4.58 4.58 0 011.85 3.81c0 .68-.12 1.28-.35 1.82a6.32 6.32 0 01-3.25 3.22c.97.19 1.8.5 2.44.95.66.44 1.18.95 1.58 1.53.42.56.71 1.17.88 1.83.16.65.24 1.29.24 1.92 0 1.21-.22 2.24-.67 3.08a6 6 0 01-1.78 2.03 7.3 7.3 0 01-2.52 1.12c-.93.23-1.9.35-2.9.35h-6.27v-.35zm11.76-6.02a6.46 6.46 0 00-1.82-4.16c-1.03-.98-2.47-1.48-4.34-1.48h-1.96v10.85h2.03c1.89 0 3.37-.42 4.45-1.26a4.3 4.3 0 001.64-3.56v-.39zm-1.44-11.16a4.43 4.43 0 00-1.43-3.23 4.97 4.97 0 00-3.5-1.19h-1.75v8.83h1.82c.98 0 1.77-.13 2.38-.39a3.5 3.5 0 002.28-2.34c.13-.5.2-.97.2-1.44v-.24zm20-4.66c-1.73 0-3.24.31-4.52.95a9.31 9.31 0 00-3.15 2.41 10 10 0 00-1.9 3.32 12 12 0 00-.59 3.68c0 1.38.27 2.73.8 4.06.54 1.3 1.28 2.47 2.21 3.5.96 1 2.07 1.82 3.33 2.45a9.31 9.31 0 005.56.77 5.54 5.54 0 003.26-1.68c.49-.49.86-1.13 1.12-1.92h.35v3.88c-.35 0-.72.05-1.12.14l-1.26.31c-.6.17-1.28.32-2.03.46-.72.14-1.5.21-2.31.21-2.03 0-3.82-.35-5.36-1.05a11.33 11.33 0 01-6.16-6.51 12.62 12.62 0 010-8.61c.52-1.42 1.3-2.7 2.35-3.81a11.7 11.7 0 013.95-2.77 13.79 13.79 0 017.67-.84 29.34 29.34 0 012.62.7c.3.05.6.07.88.07v3.88h-.35a4.03 4.03 0 00-2.1-2.9 8.05 8.05 0 00-3.26-.7zm11.58 21.84h.17c.2 0 .36-.06.5-.18.14-.14.25-.3.34-.48.12-.2.2-.39.25-.6.07-.21.1-.4.1-.6V53.08c0-.16-.03-.35-.1-.56-.05-.21-.13-.4-.25-.6-.09-.18-.2-.33-.34-.45a.67.67 0 00-.5-.21h-.17v-.35h13.47v3.26h-.34c-.05-.54-.26-1-.63-1.4-.38-.42-.96-.63-1.75-.63h-7.04v8.85h5.81c.54 0 .98-.16 1.33-.49.37-.33.56-.71.56-1.16h.35v4.38h-.35c0-.42-.18-.78-.53-1.09-.34-.3-.8-.45-1.36-.45h-5.81v10.6h7.66c.45 0 .83-.1 1.16-.31a3.06 3.06 0 001.3-1.68c.11-.35.17-.64.17-.88h.35V74h-14.35v-.35zm23.95 0h.18V74h-5.04v-.35h.17c.19 0 .35-.06.5-.18.13-.14.25-.3.34-.48.12-.2.2-.39.25-.6.04-.21.07-.4.07-.6V53.08c0-.16-.03-.35-.07-.56-.05-.21-.13-.4-.25-.6-.1-.18-.2-.33-.35-.45a.67.67 0 00-.49-.21h-.17v-.35h13.47v3.71h-.35c0-.84-.19-1.46-.56-1.85-.35-.42-.9-.63-1.68-.63h-7.17v19.66a2.73 2.73 0 00.28 1.2c.11.18.24.34.38.48.14.12.3.18.5.18zm28.3-.88v4.38h-.35a3.91 3.91 0 00-1.68-2.84 1.96 1.96 0 00-1.09-.31h-16.13c-.4 0-.76.1-1.09.31-.32.24-.62.5-.87.81-.23.33-.43.68-.6 1.05-.14.37-.22.7-.24.98h-.35v-4.38h1.54c.75 0 1.27-.43 1.57-1.29l8.05-21.1 8.12 21c.17.34.39.67.67.98.28.28.6.42.98.42h1.47zm-18.52 0h13.48l-6.76-17.39-6.72 17.4zm36.83.88h.18c.56 0 .84-.26.84-.77 0-.19-.04-.38-.1-.6l-3.16-8.5h-6.12l-3.05 8.36c-.07.2-.1.37-.1.53 0 .3.08.55.24.73.17.17.34.25.53.25h.17V74h-3.88v-.35h.17c.3 0 .6-.18.88-.53.3-.37.55-.8.73-1.29l8.02-21.35 7.84 21.14c.16.47.38.92.66 1.36.3.45.7.67 1.16.67h.17V74h-5.18v-.35zm-8.01-11.06h5.39l-2.7-7.32-2.7 7.32z" fill="#fff"/><path d="M128.31 16.07c0 4.28-2.08 8.2-4.2 11.07a31.31 31.31 0 01-3.9 4.34 31.31 31.31 0 01-3.9-4.34c-2.13-2.87-4.21-6.79-4.21-11.07s2.08-8.2 4.2-11.07a31.31 31.31 0 013.9-4.33c.02 0 .03.02.04.03A31.31 31.31 0 01124.1 5c2.12 2.88 4.2 6.79 4.2 11.07z" stroke="#fff"/><path d="M116.11 14.38c2.7 3.08 3.73 7.54 4.08 11.3a37.61 37.61 0 01.05 6.16l-.01.1a18.64 18.64 0 01-1.33.1c-1.06.05-2.53.05-4.16-.15-3.3-.39-7.2-1.57-9.9-4.65s-3.73-7.53-4.07-11.29a37.61 37.61 0 01-.05-6.17v-.1h.09a25.38 25.38 0 015.4.05c3.3.4 7.2 1.57 9.9 4.65zM124.69 14.38c-2.7 3.08-3.73 7.54-4.08 11.3a37.61 37.61 0 00-.05 6.16l.01.1a18.64 18.64 0 001.33.1c1.05.05 2.52.05 4.16-.15 3.3-.39 7.2-1.57 9.9-4.65 2.69-3.08 3.72-7.53 4.07-11.29a37.61 37.61 0 00.05-6.17l-.01-.1h-.08a25.38 25.38 0 00-5.4.05c-3.3.4-7.2 1.57-9.9 4.65zM80.93 20.43H.57M239.86 20.43H157.7" stroke="#fff"/></svg>