<svg fill="none" xmlns="http://www.w3.org/2000/svg" viewBox="0 0 28 28"><g clip-path="url(#clip0)" stroke="#515076"><path d="M18.42 4.9V.81A.32.32 0 0018.1.5h-4.39a.32.32 0 00-.32.32v4.07H4.78l-.06-.43-.2-1.5s0 0 0 0c-.1-.72-.4-1.35-.78-1.8C3.34.74 2.88.5 2.44.5H.99a.32.32 0 100 .64h1.47c.22 0 .4.1.53.2.14.1.28.24.4.4.23.31.43.76.5 1.3 0 0 0 0 0 0l2.35 17.61h0c.09.65.42 1.27.96 1.74h0c.4.34.86.57 1.34.67l.67.13-.33.6a2.52 2.52 0 104.45.05l-.37-.73h5.94l-.38.73a2.52 2.52 0 104.48 0l-.37-.73H25.59a.32.32 0 000-.64H9.04a2.26 2.26 0 01-2.17-1.9h0l-.17-1.3-.08-.56H23.4c.65 0 1.31-.25 1.85-.72L18.42 4.9zm0 0h6.73c.68 0 1.28.26 1.7.74l.38-.33m-8.8-.42l8.8.42m0 0l-.38.33c.42.48.61 1.11.52 1.8l.5.06m-.64-2.19l.64 2.19m0 0l-.5-.07-1.18 8.83m1.68-8.76l-1.68 8.76m0 0a2.82 2.82 0 01-.95 1.73l.95-1.73zM14.53 1.14h-.5V4.9h3.75V1.14h-3.25zm12.2 6.2l-.5-.06.5.07a1.6 1.6 0 00-.36-1.29h0a1.6 1.6 0 00-1.22-.53H4.86l.08.57 1.54 11.54.06.43h16.85c1.05 0 2.03-.85 2.17-1.9h0l1.17-8.82zM11.1 26.87a1.88 1.88 0 100-3.76 1.88 1.88 0 000 3.76zm9.66 0a1.88 1.88 0 100-3.76 1.88 1.88 0 000 3.76z"/><path d="M10.9 5.15l.3 13.14M14.87 4.67l.3 13.14M18.84 5.19l.29 13.14M22.8 5.7l.3 13.15" stroke-width="1.5"/></g><defs><clipPath id="clip0"><path fill="#fff" d="M0 0h28v28H0z"/></clipPath></defs></svg>