<svg width="144" height="19" fill="none" xmlns="http://www.w3.org/2000/svg"><path d="M0 17.527c.53-.016.907-.123 1.131-.319.24-.213.393-.515.457-.908.065-.393.097-.892.097-1.498V4.59c0-.752.024-1.39.072-1.914l-.89.049c-.321.016-.61.033-.867.049v-1.35l5.872-.05c2.247 0 3.987.418 5.223 1.253 1.251.818 1.893 2.078 1.925 3.78a5.578 5.578 0 0 1-.337 1.988c-.24.671-.65 1.301-1.227 1.89-.578.573-1.364 1.04-2.359 1.4-.994.36-2.23.54-3.706.54-.16.016-.345.024-.554.024a7.094 7.094 0 0 0-.601-.024v3.093c0 .883-.024 1.563-.072 2.037.337-.032.706-.057 1.107-.073a85.54 85.54 0 0 0 1.059-.05v1.375H0v-1.08zm4.236-6.603c.257.033.49.057.698.073h.722c1.348 0 2.447-.376 3.297-1.129.85-.769 1.276-1.84 1.276-3.216 0-1.063-.21-1.89-.626-2.479A3.115 3.115 0 0 0 7.99 2.946a6.15 6.15 0 0 0-2.166-.368c-.738 0-1.187.22-1.348.662-.16.426-.24 1.072-.24 1.94v5.744zM20.107 19c-1.123 0-2.134-.262-3.032-.785-.883-.54-1.58-1.293-2.094-2.259-.513-.982-.77-2.136-.77-3.461 0-1.146.249-2.218.746-3.216a6.345 6.345 0 0 1 2.118-2.406c.914-.621 1.981-.932 3.2-.932a5.38 5.38 0 0 1 2.48.589c.77.376 1.388.982 1.853 1.816.481.819.722 1.899.722 3.24l-8.28.148c0 1.129.121 2.127.362 2.995.257.85.666 1.514 1.227 1.988.562.475 1.292.712 2.19.712.658 0 1.356-.172 2.094-.516a4.996 4.996 0 0 0 1.805-1.448l.746.663c-.497.736-1.059 1.317-1.684 1.743-.61.409-1.244.695-1.902.859-.642.18-1.235.27-1.78.27zm-2.96-8.543h5.56c0-.916-.193-1.693-.578-2.332-.385-.654-.987-.982-1.805-.982-.867 0-1.573.279-2.118.835-.53.54-.883 1.367-1.059 2.48zM27.352 17.576c.481 0 .818-.114 1.01-.343.193-.23.306-.549.338-.958.048-.409.072-.883.072-1.424V8.911c.016-.295.048-.597.096-.908-.273 0-.561.008-.866.024a84.65 84.65 0 0 0-.843.05V6.774h.819c.673 0 1.179-.073 1.516-.22.353-.148.618-.303.794-.467h.866c.033.229.057.548.073.957.016.41.032.868.048 1.375a6.887 6.887 0 0 1 1.684-1.743c.674-.49 1.396-.736 2.166-.736.498 0 .923.139 1.276.417.37.262.554.695.554 1.3 0 .263-.105.557-.313.885-.209.327-.562.482-1.06.466a1.35 1.35 0 0 1-.89-.393c-.24-.245-.353-.58-.337-1.006-.385 0-.77.123-1.155.368-.385.23-.746.54-1.083.933a5.37 5.37 0 0 0-.818 1.276v5.376c0 .295-.008.598-.024.909 0 .294-.024.597-.072.908.256-.017.521-.025.794-.025.273-.016.521-.032.746-.049v1.301h-5.391v-1.03zM39.68 5.744c0-1.865.352-3.29 1.058-4.271C41.461.49 42.592 0 44.132 0c.722 0 1.356.172 1.901.516.562.343.843.81.843 1.399 0 .36-.105.663-.313.908-.193.245-.474.376-.843.393-.417 0-.722-.123-.914-.368-.177-.262-.265-.524-.265-.786v-.27c.016-.098.048-.196.096-.295a.86.86 0 0 0-.433-.27 1.563 1.563 0 0 0-.457-.073c-.417 0-.738.122-.963.368a2.14 2.14 0 0 0-.481.933 4.636 4.636 0 0 0-.145 1.154v2.724h3.081V7.61l-3.056.073.023 7.856a17.68 17.68 0 0 1-.096 1.84c.257-.016.522-.024.794-.024.29-.016.546-.032.77-.049v1.301H38.26v-1.03c.48 0 .818-.115 1.01-.344.193-.23.305-.549.337-.958.048-.409.072-.883.072-1.424V7.708l-1.9.05V6.332h1.9v-.589zM52.357 19c-1.139 0-2.166-.262-3.08-.785a5.9 5.9 0 0 1-2.19-2.185c-.53-.95-.795-2.038-.795-3.265 0-1.326.265-2.496.795-3.51.545-1.031 1.275-1.842 2.19-2.43a5.525 5.525 0 0 1 3.056-.884c1.14 0 2.166.27 3.08.81A5.677 5.677 0 0 1 57.58 8.96c.546.933.818 2.013.818 3.24 0 1.31-.265 2.48-.794 3.51-.53 1.015-1.252 1.817-2.166 2.406-.899.59-1.925.884-3.08.884zm.169-1.227c.77 0 1.372-.238 1.805-.712.45-.491.77-1.105.963-1.841.192-.753.288-1.53.288-2.332 0-.704-.064-1.391-.192-2.062a7.214 7.214 0 0 0-.554-1.866c-.256-.556-.593-.998-1.01-1.326-.418-.343-.923-.507-1.517-.49-.77 0-1.396.237-1.877.711-.465.475-.802 1.089-1.01 1.841a8.61 8.61 0 0 0-.314 2.357c0 .965.12 1.882.361 2.75.241.867.61 1.579 1.107 2.135.514.556 1.164.835 1.95.835zM60.35 17.576c.481 0 .818-.114 1.01-.343.194-.23.306-.549.338-.958.048-.409.072-.883.072-1.424V8.911c.016-.295.048-.597.096-.908-.272 0-.561.008-.866.024a84.62 84.62 0 0 0-.842.05V6.774h.818c.674 0 1.18-.073 1.516-.22.353-.148.618-.303.794-.467h.867c.032.229.056.548.072.957.016.41.032.868.048 1.375a6.889 6.889 0 0 1 1.685-1.743c.674-.49 1.396-.736 2.166-.736.497 0 .922.139 1.275.417.37.262.554.695.554 1.3 0 .263-.104.557-.313.885-.209.327-.561.482-1.059.466a1.35 1.35 0 0 1-.89-.393c-.241-.245-.353-.58-.337-1.006-.385 0-.77.123-1.156.368-.385.23-.746.54-1.083.933-.337.393-.61.818-.818 1.276v5.376c0 .295-.008.598-.024.909 0 .294-.024.597-.072.908.257-.017.521-.025.794-.025.273-.016.521-.032.746-.049v1.301h-5.39v-1.03zM71.162 18.607v-1.03c.48 0 .818-.115 1.01-.344.193-.23.305-.549.337-.958.048-.409.073-.883.073-1.424V8.911c.016-.295.048-.597.096-.908-.273 0-.562.016-.867.049-.305.016-.585.024-.842.024v-1.3c.722 0 1.284-.034 1.685-.099.417-.065.73-.147.938-.245.225-.115.393-.23.506-.344h.866c.032.164.048.36.048.589.016.213.032.442.048.687a6.332 6.332 0 0 1 1.685-1.03c.642-.263 1.26-.393 1.853-.393.786 0 1.436.147 1.95.441.53.279.946.68 1.251 1.203A7.788 7.788 0 0 1 83.7 6.407c.706-.311 1.396-.466 2.07-.466 1.364 0 2.375.417 3.033 1.252.674.818.995 2.192.962 4.123l-.024 4.247c0 .295-.008.598-.024.909 0 .294-.024.597-.072.908.257-.017.522-.025.794-.025.273-.016.522-.032.746-.049v1.301h-5.294v-1.03c.449 0 .762-.115.938-.344.193-.23.305-.549.337-.958.048-.409.072-.883.072-1.424v-3.535c-.016-1.292-.224-2.242-.625-2.847-.401-.606-1.011-.908-1.83-.908-.465 0-.93.106-1.395.319-.45.196-.843.45-1.18.76.16.557.241 1.212.241 1.965-.016.834-.024 1.66-.024 2.479v2.48a17.573 17.573 0 0 1-.096 1.816c.24-.017.497-.025.77-.025.273-.016.521-.032.746-.049v1.301h-5.343v-1.03c.465 0 .794-.115.987-.344.192-.23.305-.549.337-.958.048-.409.072-.883.072-1.424v-3.559c.016-1.293-.169-2.242-.554-2.848-.369-.621-.962-.924-1.78-.908-.466 0-.915.107-1.348.32-.434.196-.81.45-1.132.76v.614c.016.213.025.442.025.687v5.646a17.573 17.573 0 0 1-.097 1.817c.24-.017.49-.025.746-.025.273-.016.522-.032.746-.049v1.301h-5.343zM100.002 18.607c-.032-.262-.057-.49-.073-.687a9.099 9.099 0 0 0-.072-.614C98.75 18.436 97.515 19 96.151 19c-1.155 0-2.03-.286-2.623-.86-.578-.588-.867-1.317-.867-2.184 0-.753.217-1.407.65-1.964.433-.556 1.003-1.006 1.709-1.35a8.775 8.775 0 0 1 2.31-.785c.835-.18 1.653-.27 2.455-.27v-1.449c0-.523-.048-1.006-.144-1.448-.097-.458-.297-.827-.602-1.105-.305-.294-.762-.442-1.372-.442a2.848 2.848 0 0 0-1.251.246 1.864 1.864 0 0 0-.963.835.87.87 0 0 1 .24.466c.049.164.073.319.073.466 0 .23-.097.491-.289.786-.193.278-.522.409-.987.393-.385 0-.682-.131-.89-.393a1.642 1.642 0 0 1-.29-.957c0-.59.21-1.113.627-1.572.433-.458 1.01-.818 1.733-1.08.738-.262 1.572-.392 2.502-.392 1.38 0 2.407.368 3.081 1.104.69.737 1.035 1.899 1.035 3.486 0 .9-.008 1.743-.024 2.528v2.504c0 .246-.008.524-.024.835-.016.31-.04.638-.072.982l.842-.05c.289-.016.562-.024.818-.024v1.301h-3.826zm-.217-5.891a8.658 8.658 0 0 0-2.094.368c-.69.196-1.267.507-1.733.933-.449.409-.665.949-.65 1.62.033.556.217.965.554 1.227.337.262.722.393 1.155.393.562 0 1.06-.106 1.492-.319a5.9 5.9 0 0 0 1.276-.933 6.06 6.06 0 0 1-.024-.54v-1.424c.016-.392.024-.834.024-1.325zM105.382 18.607v-1.03c.481 0 .818-.115 1.011-.344.192-.23.305-.549.337-.958.048-.409.072-.883.072-1.424l.024-5.106v-.834a9.24 9.24 0 0 1 .096-.908c-.289 0-.585.016-.89.049-.305.016-.578.024-.819.024v-1.3c.722 0 1.284-.034 1.685-.099.417-.065.73-.147.939-.245a1.96 1.96 0 0 0 .505-.344h.867c.032.229.048.442.048.638 0 .18.016.434.048.761a7.288 7.288 0 0 1 1.805-1.08c.69-.311 1.348-.466 1.973-.466 1.428 0 2.455.441 3.081 1.325.642.884.963 2.267.963 4.149v4.148a17.684 17.684 0 0 1-.097 1.817c.257-.017.514-.025.771-.025.272-.016.521-.032.746-.049v1.301h-5.367v-1.03c.481 0 .818-.115 1.01-.344.193-.23.305-.549.337-.958.049-.409.073-.883.073-1.424v-3.436c-.016-1.293-.217-2.267-.602-2.921-.385-.655-1.019-.974-1.901-.958-.514 0-1.027.131-1.541.393a4.098 4.098 0 0 0-1.227.957v6.677a17.684 17.684 0 0 1-.096 1.817 11.4 11.4 0 0 1 .77-.025c.273-.016.521-.032.746-.049v1.301h-5.367zM126.036 19a6.07 6.07 0 0 1-2.96-.736c-.899-.508-1.621-1.228-2.166-2.16-.53-.933-.795-2.063-.795-3.388a7.4 7.4 0 0 1 .434-2.529 6.96 6.96 0 0 1 1.299-2.184 6.123 6.123 0 0 1 1.974-1.498c.77-.376 1.62-.564 2.551-.564.947 0 1.749.147 2.407.441.674.295 1.195.68 1.564 1.154.369.475.554.99.554 1.547 0 .392-.113.736-.337 1.03-.225.295-.546.443-.963.443-.481.016-.818-.123-1.011-.418-.176-.31-.265-.597-.265-.859 0-.147.024-.31.073-.49.048-.18.136-.353.264-.516a1.402 1.402 0 0 0-.625-.761 2.657 2.657 0 0 0-.891-.32 4.98 4.98 0 0 0-.77-.073c-.979.016-1.805.45-2.479 1.3-.658.836-.987 2.046-.987 3.634 0 1.015.145 1.923.433 2.725.305.802.739 1.44 1.3 1.914.578.475 1.276.72 2.094.737a4.24 4.24 0 0 0 2.094-.565 5.138 5.138 0 0 0 1.636-1.473l.77.688c-.705 1.08-1.54 1.84-2.503 2.283-.946.425-1.845.638-2.695.638zM138.633 19c-1.123 0-2.134-.262-3.032-.785-.883-.54-1.581-1.293-2.094-2.259-.514-.982-.77-2.136-.77-3.461 0-1.146.248-2.218.746-3.216a6.337 6.337 0 0 1 2.118-2.406c.914-.621 1.981-.932 3.201-.932.882 0 1.708.196 2.478.589.771.376 1.388.982 1.854 1.816.481.819.722 1.899.722 3.24l-8.279.148c0 1.129.12 2.127.361 2.995.256.85.665 1.514 1.227 1.988.562.475 1.292.712 2.19.712.658 0 1.356-.172 2.094-.516a4.993 4.993 0 0 0 1.805-1.448l.746.663c-.497.736-1.059 1.317-1.685 1.743a5.994 5.994 0 0 1-1.901.859c-.642.18-1.235.27-1.781.27zm-2.96-8.543h5.559c0-.916-.192-1.693-.577-2.332-.385-.654-.987-.982-1.805-.982-.867 0-1.573.279-2.118.835-.53.54-.883 1.367-1.059 2.48z" fill="#1F1E1C"/></svg>