<svg width="225" height="18" fill="none" xmlns="http://www.w3.org/2000/svg"><path d="M0 .35h13.61V3.6h-5v14.04H4.98V3.61H0V.35zM30.26 17.65h-3.94l-3.72-6h-2.78v6h-3.65V.35h7.4c1.71 0 3.17.56 4.36 1.68a5.35 5.35 0 01.82 7.04c-.65.91-1.51 1.6-2.59 2.06l4.1 6.52zM23.57 3.54h-3.75v5.11h3.75a2.54 2.54 0 002.51-2.57c0-.7-.24-1.3-.74-1.8-.49-.5-1.08-.74-1.77-.74zM48.8 17.65h-3.97l-1.11-3.11h-7.38l-1.1 3.11H31.3L37.77.35h4.52l6.5 17.3zM40.03 4.28l-2.53 7.07h5.07l-2.54-7.07zM59.15 17.65h-4.52L48.42.35h3.96l4.52 13.3L61.4.35h3.99l-6.24 17.3zM71.34 10.5v3.89h7.8v3.26H67.7V.35H79V3.6h-7.66v3.68h7v3.22h-7zM85.89.35v14.04h7.05v3.26h-10.7V.35h3.65zM99.19 10.5v3.89h7.8v3.26H95.53V.35h11.31V3.6H99.2v3.68h7v3.22h-7zM124.17 17.65h-3.94l-3.72-6h-2.78v6h-3.65V.35h7.4c1.71 0 3.17.56 4.36 1.68a5.35 5.35 0 01.82 7.04c-.65.91-1.51 1.6-2.59 2.06l4.1 6.52zm-6.69-14.11h-3.75v5.11h3.75A2.54 2.54 0 00120 6.08c0-.7-.24-1.3-.74-1.8-.49-.5-1.08-.74-1.77-.74zM127.2.32h3.7L128.9 7.2h-2.77L127.2.32zM139.94 18a8.72 8.72 0 01-4.6-1.14 6.3 6.3 0 01-2.67-3.14l3.12-1.7c.72 1.76 2.14 2.64 4.25 2.64.99 0 1.73-.16 2.22-.5.5-.32.74-.77.74-1.33 0-.6-.29-1.08-.87-1.4-.58-.35-1.62-.72-3.12-1.12-1.62-.46-2.9-1-3.83-1.6-1.16-.81-1.75-2-1.75-3.57 0-1.58.6-2.82 1.78-3.73A6.7 6.7 0 01139.5 0c1.48 0 2.8.34 3.94 1.01a6.91 6.91 0 012.67 2.87l-3.07 1.66a3.7 3.7 0 00-3.54-2.23c-.74 0-1.33.17-1.77.5-.44.31-.66.72-.66 1.23 0 .55.24 1 .71 1.34.53.35 1.47.7 2.8 1.09l1.27.4a17.7 17.7 0 012.36.93c.86.5 1.44 1 1.74 1.54.46.69.69 1.5.69 2.44 0 1.6-.63 2.87-1.88 3.81a7.84 7.84 0 01-4.84 1.41zM167.87 8.68a4.24 4.24 0 012.43 3.95c0 1.47-.56 2.67-1.67 3.61a6.12 6.12 0 01-4.1 1.41h-7.84V.35h7.3c1.56 0 2.9.46 3.98 1.38a4.37 4.37 0 011.64 3.49c0 1.43-.58 2.58-1.74 3.46zm-3.89-5.14h-3.64v3.8h3.64c.57 0 1.03-.18 1.4-.54.4-.36.59-.82.59-1.36 0-.54-.19-1-.56-1.36a1.95 1.95 0 00-1.43-.54zm-3.64 10.92h4.2c.62 0 1.13-.19 1.53-.56.4-.4.6-.9.6-1.49 0-.57-.2-1.05-.6-1.43-.4-.4-.91-.6-1.53-.6h-4.2v4.08zM176.87.35v14.04h7.05v3.26h-10.7V.35h3.65zM200.95 15.4a9.67 9.67 0 01-6.82 2.6 9.66 9.66 0 01-6.81-2.6 8.52 8.52 0 01-2.78-6.4 8.4 8.4 0 012.78-6.38A9.61 9.61 0 01194.13 0c2.68 0 4.95.87 6.82 2.62a8.36 8.36 0 012.8 6.38c0 2.52-.93 4.66-2.8 6.4zm-11.07-2.32a5.99 5.99 0 004.25 1.58c1.71 0 3.13-.53 4.26-1.58A5.34 5.34 0 00200.1 9c0-1.65-.58-3-1.72-4.08a6 6 0 00-4.26-1.6 6 6 0 00-4.25 1.6A5.35 5.35 0 00188.16 9c0 1.65.57 3 1.72 4.08zM215.72 8.36H225v1.33c0 2.47-.85 4.48-2.54 6.01-1.69 1.53-3.87 2.3-6.55 2.3-2.85 0-5.22-.87-7.11-2.6a8.41 8.41 0 01-2.8-6.38c0-2.52.92-4.65 2.77-6.4A9.75 9.75 0 01215.7 0c1.7 0 3.28.36 4.7 1.09a8.54 8.54 0 013.36 2.94l-3.12 1.68a4.78 4.78 0 00-2-1.73 6.57 6.57 0 00-2.97-.67c-1.78 0-3.23.55-4.36 1.64a5.33 5.33 0 00-1.69 4.07c0 1.64.57 2.99 1.72 4.06a6.52 6.52 0 004.6 1.58c1.39 0 2.55-.29 3.48-.86a4.33 4.33 0 001.9-2.43h-5.6V8.36z" fill="#131313"/></svg>