<svg fill="none" xmlns="http://www.w3.org/2000/svg" viewBox="0 0 44 45"><path d="M44 22.46A22 22 0 1018.56 44.2V28.82h-5.58v-6.36h5.58V17.6c0-5.52 3.29-8.57 8.31-8.57 2.4 0 4.93.43 4.93.43v5.42h-2.78c-2.73 0-3.58 1.7-3.58 3.44v4.13h6.1l-.98 6.36h-5.12v15.39A22.02 22.02 0 0044 22.46z" fill="#CFDCE3"/><path d="M30.56 28.82l.98-6.36h-6.1v-4.13c0-1.74.85-3.44 3.58-3.44h2.78V9.47s-2.52-.43-4.93-.43c-5.02 0-8.3 3.05-8.3 8.57v4.85h-5.6v6.36h5.6v15.39c2.27.35 4.59.35 6.87 0V28.82h5.12z" fill="#fff"/></svg>