<svg fill="none" xmlns="http://www.w3.org/2000/svg" viewBox="0 0 44 44"><rect width="44" height="44" rx="22" fill="#CFDCE3"/><path fill-rule="evenodd" clip-rule="evenodd" d="M22 11.27c3.64 0 4.07.02 5.5.08 1.34.06 2.06.28 2.54.47.6.22 1.13.57 1.57 1.02.45.44.8.98 1.02 1.57.19.48.4 1.2.47 2.54.06 1.44.08 1.87.08 5.51 0 3.64-.02 4.07-.08 5.51a7.56 7.56 0 01-.47 2.54 4.52 4.52 0 01-2.59 2.59c-.48.18-1.2.4-2.53.47-1.44.06-1.87.08-5.5.08-3.65 0-4.08-.02-5.52-.08a7.54 7.54 0 01-2.53-.47 4.22 4.22 0 01-1.57-1.02c-.45-.44-.8-.98-1.02-1.57-.19-.49-.4-1.2-.47-2.54a94.85 94.85 0 01-.08-5.51c0-3.65.02-4.08.08-5.52.06-1.33.28-2.05.47-2.53.22-.6.57-1.13 1.02-1.57.44-.45.98-.8 1.57-1.02.48-.19 1.2-.41 2.53-.47 1.44-.07 1.87-.08 5.51-.08zm0-2.46c-3.7 0-4.17.02-5.62.08a10 10 0 00-3.31.64 6.7 6.7 0 00-2.42 1.57 6.7 6.7 0 00-1.57 2.42c-.34.87-.57 1.86-.63 3.31a96.97 96.97 0 00-.08 5.63c0 3.7.01 4.17.08 5.62.06 1.46.3 2.45.63 3.31a6.7 6.7 0 001.57 2.42c.68.7 1.5 1.23 2.42 1.58.87.33 1.86.56 3.3.63 1.46.07 1.93.08 5.63.08s4.17-.01 5.62-.08a9.97 9.97 0 003.3-.63 6.97 6.97 0 004-4 10 10 0 00.63-3.3c.07-1.46.08-1.93.08-5.63s-.01-4.17-.08-5.63a9.99 9.99 0 00-.63-3.3 6.7 6.7 0 00-1.58-2.43 6.7 6.7 0 00-2.41-1.57 10 10 0 00-3.31-.63A96.77 96.77 0 0022 8.8zm0 6.64a7 7 0 100 14 7 7 0 000-14zm0 11.56a4.54 4.54 0 110-9.1 4.54 4.54 0 010 9.1zm8.91-11.84a1.64 1.64 0 11-3.27 0 1.64 1.64 0 013.27 0z" fill="#fff"/></svg>