<svg fill="none" xmlns="http://www.w3.org/2000/svg" viewBox="0 0 97 30"><path d="M55.4 30c-1.2 0-2.27-.25-3.22-.74a5.64 5.64 0 01-3-5.09 5.5 5.5 0 013-5.06c.95-.5 2.02-.76 3.21-.76 1.2 0 2.26.25 3.2.76a5.49 5.49 0 013 5.06 5.64 5.64 0 01-3 5.09c-.94.49-2 .73-3.2.73zm0-2.7c.83 0 1.52-.28 2.05-.84.55-.57.82-1.34.82-2.29s-.27-1.7-.82-2.27a2.68 2.68 0 00-2.06-.86c-.84 0-1.53.29-2.08.86a3.11 3.11 0 00-.82 2.27c0 .95.28 1.72.82 2.3.55.55 1.24.83 2.08.83zM78.26 18.35a4.5 4.5 0 013.36 1.26c.84.83 1.26 2.08 1.26 3.74v6.47h-3.27v-5.96c0-.9-.2-1.57-.57-2-.37-.45-.89-.67-1.58-.67-.77 0-1.38.25-1.83.75-.44.5-.67 1.23-.67 2.21v5.67h-3.28v-5.96c0-1.78-.71-2.67-2.14-2.67a2.3 2.3 0 00-1.8.75c-.45.5-.68 1.23-.68 2.21v5.67h-3.28v-11.3h3.13v1.3c.42-.47.94-.84 1.54-1.1a5.28 5.28 0 014.18.11c.64.31 1.16.77 1.55 1.37a4.66 4.66 0 011.75-1.37 5.6 5.6 0 012.33-.48zM91.64 27.37c.59 0 1.1-.09 1.56-.26a3.9 3.9 0 001.28-.84l1.74 1.9c-1.06 1.21-2.62 1.82-4.66 1.82-1.28 0-2.4-.24-3.39-.73a5.54 5.54 0 01-3.06-5.09 5.52 5.52 0 012.94-5.06c.92-.5 1.96-.76 3.1-.76 1.09 0 2.07.23 2.95.7a5.1 5.1 0 012.1 1.97c.53.85.8 1.87.8 3.05l-8.36 1.61c.23.57.6.99 1.11 1.27.52.28 1.15.42 1.9.42zm-.48-6.54c-.83 0-1.5.27-2.02.8s-.8 1.27-.82 2.2l5.5-1.07a2.47 2.47 0 00-.94-1.4 2.83 2.83 0 00-1.72-.53z" fill="#06A9B3"/><path fill-rule="evenodd" clip-rule="evenodd" d="M46.76 10.1v19.72h-3.4V23.8h-6.58v6.03h-3.5V10.25l-19.8 3.96-.69-3.44L34.63 6.4a1.76 1.76 0 012.14 1.69v12.83h6.59V0h3.4v6.55l38.48 6.84-.61 3.45-37.87-6.73z" fill="#FFB257"/><path d="M6.75 14.87a7.5 7.5 0 013.55.8 5.6 5.6 0 012.35 2.35c.56 1.04.84 2.3.84 3.76v8.05h-3.4V26.3H3.36v3.53H0v-8.05c0-1.47.28-2.72.84-3.76a5.6 5.6 0 012.35-2.35c1.01-.53 2.2-.8 3.56-.8zm3.34 8.7v-2.1c0-1.22-.3-2.14-.9-2.76a3.24 3.24 0 00-2.47-.94c-1.05 0-1.87.31-2.48.94-.58.62-.88 1.54-.88 2.76v2.1h6.73zM20.68 30a4.18 4.18 0 01-2.99-1 3.83 3.83 0 01-1.07-2.9V15h3.28v10.9c0 .48.12.85.36 1.12.25.25.6.37 1.05.37.16 0 .33-.02.5-.06.18-.04.32-.1.42-.15l.15 2.55c-.55.18-1.12.27-1.7.27zM30.8 29.28a3.5 3.5 0 01-1.2.55c-.46.11-.95.17-1.45.17-1.36 0-2.4-.34-3.13-1.03s-1.1-1.7-1.1-3.03v-9.92h3.28v2.76H30v2.52h-2.8v4.6c0 .48.12.85.36 1.12.24.25.58.37 1.03.37.5 0 .95-.14 1.34-.42l.87 2.31z" fill="#06A9B3"/></svg>