<svg fill="none" xmlns="http://www.w3.org/2000/svg" viewBox="0 0 44 44"><rect width="44" height="44" rx="22" fill="#CFDCE3"/><path fill-rule="evenodd" clip-rule="evenodd" d="M35.91 15.57c.22-.68 0-1.18-.96-1.18h-3.19c-.8 0-1.18.44-1.4.9 0 0-1.64 3.97-3.93 6.55-.74.74-1.08.99-1.49.99-.21 0-.5-.25-.5-.93v-6.36c0-.8-.24-1.18-.92-1.18H18.5c-.5 0-.8.37-.8.75 0 .77 1.14.96 1.26 3.13v4.71c0 1.03-.18 1.21-.59 1.21-1.08 0-3.71-4-5.3-8.56-.3-.9-.61-1.24-1.42-1.24H8.43c-.93 0-1.09.44-1.09.9 0 .84 1.09 5.06 5.05 10.64 2.64 3.81 6.39 5.86 9.76 5.86 2.05 0 2.3-.46 2.3-1.24v-2.88c0-.93.18-1.09.83-1.09.47 0 1.3.25 3.2 2.08 2.16 2.17 2.54 3.16 3.75 3.16h3.19c.93 0 1.36-.46 1.11-1.36-.28-.9-1.33-2.2-2.7-3.76-.74-.86-1.85-1.83-2.2-2.3-.46-.61-.33-.86 0-1.42-.02 0 3.88-5.52 4.28-7.38z" fill="#fff"/></svg>