<svg fill="none" xmlns="http://www.w3.org/2000/svg" viewBox="0 0 73 19"><path d="M15.4 18h-5.38L5.7 10.15 4.69 8h-.05l.1 3.15V18H.46V2.16h5.36l4.32 7.85 1.03 2.16h.02l-.1-3.15V2.16h4.3V18zm7.48 0h-4.84V6h4.84v12zm-.93-13.25l-1.49-1.9-1.49 1.9H15.6L18.16.53h4.6l2.57 4.22h-3.38zm19.53 1.01c1.2 0 2.15.36 2.86 1.08.7.72 1.05 1.74 1.05 3.05V18h-4.85v-6.91c0-.61-.1-1.04-.3-1.3-.2-.27-.5-.4-.9-.4-.5 0-.9.19-1.2.57-.27.38-.4.95-.4 1.7V18h-4.85v-6.91c0-.61-.1-1.04-.31-1.3-.2-.27-.5-.4-.9-.4-.49 0-.88.19-1.17.57-.29.38-.43.96-.43 1.73V18h-4.85V6h4.37l.12 2.47a4.4 4.4 0 011.58-2.01c.7-.47 1.55-.7 2.52-.7.91 0 1.68.2 2.3.62a3.4 3.4 0 011.37 1.8c.37-.78.9-1.38 1.59-1.8a4.55 4.55 0 012.4-.62zm18.4 5.95a6.5 6.5 0 01-.12 1.4h-7.9c.1.67.31 1.14.65 1.41s.8.4 1.41.4c.98 0 1.58-.38 1.8-1.14l3.92 1.12a4.02 4.02 0 01-2 2.5c-1 .56-2.24.84-3.72.84-2.17 0-3.84-.54-4.99-1.6C47.78 15.53 47.2 14 47.2 12c0-1.98.56-3.52 1.68-4.6 1.14-1.1 2.73-1.64 4.78-1.64 2 0 3.54.54 4.6 1.6a5.82 5.82 0 011.62 4.35zm-6.2-2.66c-.52 0-.94.15-1.24.45-.3.3-.48.8-.58 1.5h3.48a2.76 2.76 0 00-.53-1.47c-.25-.32-.63-.48-1.13-.48zm13.3 9.19c-1.42 0-2.64-.15-3.65-.46-.99-.3-1.81-.8-2.47-1.48l2.28-2.64c.42.5.93.88 1.54 1.15.6.25 1.28.38 2.01.38.42 0 .75-.05 1.01-.14.26-.1.38-.24.38-.43 0-.18-.14-.33-.43-.46-.29-.14-.8-.3-1.53-.46-1.76-.33-3.04-.81-3.82-1.44a2.98 2.98 0 01-1.15-2.42c0-.69.22-1.34.67-1.97a4.83 4.83 0 012.06-1.51c.93-.4 2.08-.6 3.44-.6 2.6 0 4.48.66 5.64 2l-2.19 2.37c-.75-.88-1.84-1.32-3.26-1.32-.5 0-.87.06-1.13.19-.26.11-.38.26-.38.46 0 .16.13.3.4.43.3.11.76.22 1.42.33 1.8.28 3.11.72 3.91 1.35a3 3 0 011.23 2.54c0 1.2-.5 2.2-1.52 2.98-1 .77-2.5 1.15-4.46 1.15z" fill="#151C22"/></svg>