<svg fill="none" xmlns="http://www.w3.org/2000/svg" viewBox="0 0 21 21"><path d="M11.93.1A10.77 10.77 0 004.8 1.63 10.04 10.04 0 00.48 7.29a9.64 9.64 0 00.61 7 10.24 10.24 0 005.25 4.88 7.46 7.46 0 01.17-2.3c.19-.83 1.35-5.46 1.35-5.46a3.61 3.61 0 01-.34-1.57c0-1.49.9-2.6 2-2.6a1.44 1.44 0 011.06.45 1.33 1.33 0 01.34 1.06c0 .9-.6 2.26-.92 3.54a1.48 1.48 0 00.32 1.36 1.6 1.6 0 001.32.57c1.98 0 3.3-2.43 3.3-5.3 0-2.2-1.51-3.85-4.31-3.85a5.13 5.13 0 00-1.96.3A4.97 4.97 0 005.87 8a4.58 4.58 0 00-.38 1.87c-.03.71.21 1.41.68 1.97a.48.48 0 01.18.25c.03.1.03.2-.01.3l-.22.79a.35.35 0 01-.07.15.38.38 0 01-.46.1c-1.44-.55-2.12-2.07-2.12-3.81 0-2.85 2.48-6.26 7.45-6.26 3.96 0 6.58 2.78 6.58 5.75 0 3.9-2.26 6.85-5.61 6.85-.5.01-1-.1-1.45-.31a2.94 2.94 0 01-1.11-.94l-.72 2.75a7.89 7.89 0 01-1.06 2.14c.96.28 1.96.42 2.96.41a10.78 10.78 0 003.99-.76 10.44 10.44 0 003.38-2.17 9.97 9.97 0 002.26-3.24 9.64 9.64 0 00.78-3.83c0-2.42-.9-4.75-2.56-6.57-1.65-1.82-3.94-3-6.43-3.33z" fill="#fff"/></svg>