<svg fill="none" xmlns="http://www.w3.org/2000/svg" viewBox="0 0 162 36"><path d="M48.31 16.3h7.03v2.67H45V2.88h3.31v13.43zM62.77 19.2a5.88 5.88 0 01-4.29-1.62 5.75 5.75 0 01-1.64-4.3v-.3c0-1.2.23-2.28.7-3.22a5.08 5.08 0 011.96-2.2 5.53 5.53 0 012.91-.76c1.64 0 2.92.51 3.86 1.54s1.41 2.5 1.41 4.39v1.3h-7.6c.1.78.4 1.4.92 1.88.52.47 1.18.7 1.98.7 1.23 0 2.19-.44 2.88-1.33l1.57 1.76a4.83 4.83 0 01-1.95 1.59c-.81.37-1.72.56-2.71.56zm-.37-9.82c-.63 0-1.15.21-1.54.64a3.34 3.34 0 00-.75 1.84h4.43v-.26c-.01-.7-.2-1.25-.57-1.63-.37-.4-.89-.59-1.57-.59zM73.55 4.08v2.94h2.04v2.34h-2.04v5.97c0 .44.08.75.25.95.17.19.5.28.97.28.36 0 .67-.02.94-.07v2.42c-.63.19-1.27.28-1.93.28-2.24 0-3.38-1.13-3.42-3.39V9.36H68.6V7.02h1.75V4.08h3.19zM78.77 7.82l-1.5-.87c.63-1 .96-2.02.98-3.08V2h2.54v1.71a5.92 5.92 0 01-2.02 4.11zM87.18 15.67c0-.4-.2-.7-.59-.92-.38-.23-1-.43-1.85-.6-2.84-.6-4.26-1.81-4.26-3.63 0-1.06.44-1.95 1.31-2.65a5.32 5.32 0 013.46-1.07 5.7 5.7 0 013.63 1.07 3.37 3.37 0 011.37 2.78h-3.2c0-.46-.14-.83-.43-1.13-.3-.3-.76-.45-1.38-.45-.54 0-.96.12-1.25.37-.3.24-.44.55-.44.92 0 .36.16.65.5.87.33.21.9.4 1.7.56.79.15 1.46.33 2 .53 1.69.62 2.53 1.69 2.53 3.22 0 1.09-.47 1.97-1.4 2.65-.94.67-2.14 1-3.62 1-1 0-1.9-.17-2.67-.53a4.54 4.54 0 01-1.82-1.47 3.44 3.44 0 01-.67-2.02h3.03c.03.57.24 1 .63 1.3.39.3.91.46 1.56.46.62 0 1.08-.12 1.38-.35.32-.23.48-.54.48-.91zM106.97 14.75c0-.63-.22-1.1-.66-1.44a8.45 8.45 0 00-2.39-1.06 17.21 17.21 0 01-2.72-1.1c-1.83-.99-2.74-2.32-2.74-3.99 0-.87.24-1.64.73-2.32.5-.69 1.2-1.22 2.1-1.6a7.97 7.97 0 013.1-.58c1.15 0 2.17.21 3.07.63.9.42 1.6 1 2.08 1.76.5.76.75 1.62.75 2.59H107c0-.74-.24-1.31-.7-1.72a2.84 2.84 0 00-1.96-.62c-.8 0-1.44.18-1.88.52a1.6 1.6 0 00-.68 1.35c0 .52.26.96.79 1.32.53.35 1.3.68 2.33.99 1.88.57 3.25 1.27 4.11 2.11a4.2 4.2 0 011.3 3.14c0 1.4-.53 2.48-1.58 3.28a6.93 6.93 0 01-4.25 1.18 8.26 8.26 0 01-3.38-.67 4.8 4.8 0 01-3.12-4.6h3.32c0 1.77 1.06 2.65 3.18 2.65.78 0 1.4-.15 1.84-.47.44-.33.66-.77.66-1.35zM123.31 13.1c0 1.85-.42 3.32-1.25 4.44a4 4 0 01-3.38 1.65c-1.2 0-2.18-.42-2.93-1.26v5.64h-3.19V7.02h2.96l.11 1.17a3.75 3.75 0 013.03-1.4c1.47 0 2.61.55 3.43 1.64.82 1.1 1.22 2.6 1.22 4.5v.17zm-3.19-.23c0-1.11-.2-1.97-.6-2.57a1.9 1.9 0 00-1.7-.9c-1 0-1.7.37-2.07 1.14v4.9c.4.78 1.09 1.18 2.09 1.18 1.52 0 2.28-1.25 2.28-3.75zM131.03 19.2a5.88 5.88 0 01-4.29-1.62 5.75 5.75 0 01-1.64-4.3v-.3c0-1.2.23-2.28.7-3.22a5.07 5.07 0 011.96-2.2 5.53 5.53 0 012.91-.76c1.64 0 2.92.51 3.86 1.54s1.4 2.5 1.4 4.39v1.3h-7.6c.1.78.41 1.4.93 1.88.52.47 1.18.7 1.98.7 1.22 0 2.19-.44 2.88-1.33l1.56 1.76a4.84 4.84 0 01-1.94 1.59c-.82.37-1.72.56-2.72.56zm-.37-9.82c-.63 0-1.15.21-1.54.64a3.33 3.33 0 00-.75 1.84h4.43v-.26c-.01-.7-.2-1.25-.57-1.63-.37-.4-.9-.59-1.57-.59zM144.9 18.97a3.55 3.55 0 01-.31-1.07 3.86 3.86 0 01-3.02 1.3 4.26 4.26 0 01-2.91-1.02 3.28 3.28 0 01-1.15-2.57c0-1.26.47-2.24 1.4-2.91.94-.68 2.3-1.02 4.08-1.03h1.46v-.69c0-.55-.14-1-.43-1.32-.28-.33-.72-.5-1.33-.5-.54 0-.96.13-1.27.39-.3.25-.45.6-.45 1.06h-3.2c0-.7.22-1.34.65-1.93a4.2 4.2 0 011.8-1.38c.79-.34 1.66-.5 2.63-.5 1.47 0 2.64.37 3.5 1.11.87.74 1.3 1.78 1.3 3.12v5.18c.01 1.13.17 2 .48 2.57v.2h-3.22zm-2.63-2.22c.47 0 .9-.1 1.3-.3.4-.22.7-.5.88-.86v-2.05h-1.19c-1.6 0-2.44.55-2.55 1.65v.2c0 .39.13.72.41.97.28.26.66.4 1.15.4zM154.67 14.18l-1.15 1.15v3.64h-3.19V2h3.2v9.4l.61-.8 3.06-3.58h3.83L156.7 12l4.7 6.97h-3.67l-3.07-4.8zM49.7 26.11v5.98h-.66v-2.41h-1.85l-1.46 2.4H45l1.5-2.48c-.4-.11-.73-.32-.95-.62-.23-.3-.34-.67-.34-1.09 0-.54.2-.97.58-1.3a2.4 2.4 0 011.58-.48h2.33zm-3.83 1.8c0 .35.11.63.33.86.23.22.54.34.94.35h1.9v-2.45h-1.69c-.46 0-.82.11-1.09.34-.26.22-.39.52-.39.9zM56.96 27.7a.97.97 0 00-.4-.84c-.27-.2-.64-.3-1.1-.3-.44 0-.8.11-1.1.34-.3.21-.46.49-.46.82h-.66c0-.5.21-.9.64-1.23.42-.32.95-.48 1.57-.48.69 0 1.22.14 1.6.44.38.3.58.71.58 1.25 0 .29-.1.55-.27.78a1.7 1.7 0 01-.77.54c.76.21 1.15.69 1.15 1.43 0 .54-.21.96-.63 1.27-.41.32-.97.47-1.65.47-.67 0-1.22-.16-1.66-.5a1.58 1.58 0 01-.66-1.31h.67c0 .36.15.66.47.9.32.24.71.36 1.18.36.5 0 .9-.1 1.18-.31.28-.22.43-.5.43-.87 0-.4-.13-.7-.4-.87a2.16 2.16 0 00-1.2-.26h-.9v-.58h1.02c.91-.02 1.37-.37 1.37-1.06zM61.9 28.28h1.72c.44 0 .83.08 1.16.24.34.16.59.38.76.67.17.28.26.61.26.99 0 .57-.2 1.04-.6 1.39-.4.34-.93.52-1.6.52h-2.36V26.1h.66v2.17zm0 .57v2.68h1.71c.48 0 .85-.12 1.12-.36.27-.24.4-.57.4-.98 0-.4-.13-.72-.4-.96a1.54 1.54 0 00-1.07-.38H61.9zm5.92 3.24h-.66V26.1h.66v5.98zM73.26 29.35h-.92v2.74h-.66V26.1h.66v2.65h.91l2.2-2.65h.82l-2.45 2.9 2.73 3.08h-.88l-2.4-2.74zM79 29.01c0-.57.1-1.1.32-1.55A2.55 2.55 0 0181.65 26c.8 0 1.44.28 1.93.84.5.56.74 1.3.74 2.22v.13c0 .58-.1 1.1-.33 1.57a2.48 2.48 0 01-2.33 1.44c-.79 0-1.43-.28-1.93-.84-.5-.56-.74-1.3-.74-2.22v-.13zm.65.18c0 .72.19 1.3.56 1.77.37.45.85.68 1.45.68s1.08-.23 1.45-.68a2.8 2.8 0 00.56-1.82V29c0-.46-.09-.87-.26-1.25s-.4-.68-.7-.88a1.8 1.8 0 00-1.06-.32c-.59 0-1.07.24-1.44.7a2.8 2.8 0 00-.56 1.81v.12zM87.74 32.09V26.1h2.2c.75 0 1.33.14 1.74.4.4.28.6.67.6 1.2 0 .3-.08.56-.26.8-.19.23-.45.4-.8.5.4.08.7.25.94.5.24.27.36.57.36.92 0 .53-.2.94-.58 1.23-.39.28-.94.43-1.65.43h-2.55zm.66-2.75v2.2h1.92c.5 0 .87-.1 1.14-.3.27-.18.4-.46.4-.82 0-.33-.13-.6-.4-.79-.27-.2-.65-.3-1.14-.3H88.4zm0-.56h1.67c1.04-.01 1.56-.36 1.56-1.06 0-.36-.14-.63-.43-.8a2.5 2.5 0 00-1.27-.25H88.4v2.11zM99.74 32.09c-.06-.19-.1-.47-.12-.84-.23.3-.53.54-.9.7-.35.17-.73.25-1.13.25-.57 0-1.04-.16-1.4-.48a1.57 1.57 0 01-.52-1.22c0-.58.24-1.04.72-1.38a3.5 3.5 0 012.02-.5h1.2v-.69c0-.42-.13-.76-.4-1-.26-.25-.64-.37-1.14-.37-.46 0-.84.12-1.15.35-.3.24-.45.52-.45.85h-.66c0-.48.22-.89.66-1.24.44-.35.99-.52 1.63-.52.67 0 1.19.17 1.57.5.39.33.59.8.6 1.4v2.82c0 .58.06 1.01.18 1.3v.07h-.7zm-2.07-.48c.44 0 .83-.1 1.18-.32.35-.21.6-.5.76-.85v-1.32h-1.18c-.66 0-1.17.13-1.54.37-.38.23-.56.55-.56.96 0 .33.12.61.37.83.25.22.57.33.97.33zM108.37 26.11v5.98h-.66v-2.41h-1.86l-1.46 2.4h-.72l1.5-2.48c-.41-.11-.73-.32-.96-.62-.22-.3-.33-.67-.33-1.09 0-.54.19-.97.58-1.3a2.4 2.4 0 011.57-.48h2.34zm-3.83 1.8c0 .35.1.63.33.86.22.22.53.34.93.35h1.9v-2.45h-1.68c-.46 0-.83.11-1.09.34-.26.22-.4.52-.4.9zM120.66 26.11v5.42h2.66v-5.42h.66v5.42h2.63v-5.42h.67v5.98H120V26.1h.66zM132.53 29.35h-.91v2.74h-.67V26.1h.67v2.65h.9l2.2-2.65h.82l-2.45 2.9 2.73 3.08h-.88l-2.4-2.74zM138.26 29.01c0-.57.11-1.1.33-1.55a2.56 2.56 0 012.33-1.46c.8 0 1.44.28 1.94.84.49.56.73 1.3.73 2.22v.13c0 .58-.1 1.1-.33 1.57a2.48 2.48 0 01-2.33 1.44c-.79 0-1.43-.28-1.93-.84-.49-.56-.74-1.3-.74-2.22v-.13zm.67.18c0 .72.18 1.3.55 1.77.37.45.86.68 1.45.68.6 0 1.08-.23 1.45-.68a2.8 2.8 0 00.56-1.82V29c0-.46-.09-.87-.26-1.25s-.4-.68-.7-.88a1.8 1.8 0 00-1.06-.32c-.58 0-1.07.24-1.44.7a2.8 2.8 0 00-.55 1.81v.12zM151.45 26.11v5.98h-.67v-5.41h-2.44l-.1 2.24a9.47 9.47 0 01-.25 1.9c-.13.43-.3.75-.55.96-.23.2-.55.3-.95.3h-.25v-.58h.2c.38-.02.65-.2.82-.56.16-.36.27-1 .32-1.93l.12-2.9h3.75zM158.97 32.09c-.06-.19-.1-.47-.13-.84-.23.3-.52.54-.88.7-.36.17-.74.25-1.14.25-.58 0-1.04-.16-1.4-.48a1.57 1.57 0 01-.53-1.22c0-.58.24-1.04.73-1.38a3.5 3.5 0 012.02-.5h1.2v-.69c0-.42-.13-.76-.4-1-.26-.25-.64-.37-1.15-.37-.46 0-.84.12-1.14.35-.3.24-.45.52-.45.85h-.66c0-.48.22-.89.66-1.24.44-.35.98-.52 1.63-.52.66 0 1.19.17 1.57.5.39.33.58.8.6 1.4v2.82c0 .58.06 1.01.18 1.3v.07h-.7zm-2.07-.48c.44 0 .83-.1 1.18-.32.35-.21.6-.5.76-.85v-1.32h-1.18c-.66 0-1.18.13-1.55.37-.37.23-.56.55-.56.96 0 .33.13.61.37.83.26.22.58.33.98.33z" fill="#3C425F"/><path fill-rule="evenodd" clip-rule="evenodd" d="M0 8a8 8 0 018-8h17a8 8 0 018 8v15a8 8 0 01-8 8H15L5 36v-5.58A8 8 0 010 23V8zm25 4a4 4 0 00-4-4h-9a4 4 0 00-4 4v6a4 4 0 004 4h2l8 4v-4.13A4 4 0 0025 18v-6z" fill="url(#paint0_linear)"/><defs><linearGradient id="paint0_linear" x1="33" y1="0" x2="0" y2="36" gradientUnits="userSpaceOnUse"><stop stop-color="#6F85EF"/><stop offset="1" stop-color="#0DE1D4"/></linearGradient></defs></svg>