<?xml version="1.0" encoding="utf-8"?>

<svg version="1.1" xmlns="http://www.w3.org/2000/svg" xmlns:xlink="http://www.w3.org/1999/xlink" x="0px" y="0px"
	 viewBox="0 0 198 29" style="enable-background:new 0 0 198 29;" xml:space="preserve">

<g>
	<path style="fill:#CC0000;" d="M2.1,22.6c-0.6,0-0.8,0.3-0.8,0.8c0,0.1,0,0.2,0,0.4c0,0.2,0,0.3,0,0.4c0,0.4-0.1,0.5-0.5,0.5
		c-0.1,0-0.2,0-0.2-0.1v-1.3c0-0.1,0.3-0.5,0.8-1.3c0-0.1,0-0.1,0-0.1c0.2-0.4,0.7-1.1,1.5-2.1c0.9-1.1,1.5-1.6,1.8-1.6
		c0.8,0,1.7,0.3,2.8,0.8C8.6,19.7,9.3,20,9.5,20c0.2,0,0.3-0.1,0.4-0.4c0.3-1.3,0.8-2.3,1.6-3.1c0.6-0.6,1-0.9,1.1-0.9
		c0.5-0.1,0.8-0.3,0.8-0.5c0-0.3-0.4-0.6-1.3-0.9c-0.8-0.3-1.4-0.5-1.7-0.5c-0.4,0-1.1,0.5-1.9,1.4c-0.9,1-1.5,1.4-1.8,1.4
		c-0.3,0-0.7-0.2-1.2-0.7c-2.4-2-3.6-4-3.6-6.2c0-1,0.9-2.4,2.6-4.1C4.8,5.3,5.3,4.7,6,4c0.2-0.2,0.6-0.5,1.1-0.9
		C7.3,3,7.4,2.9,7.6,2.6c0.6-0.7,1.3-1.2,2-1.7h0.2c0.2,0,0.4,0.1,0.7,0.2c0.4,0.2,0.6,0.4,0.6,0.4c2.1,0.8,3.6,1.3,4.6,1.3
		c0.7,0,1.1-0.1,1.3-0.3c0.1-0.1,0.1-0.5,0.1-1.2c0-0.1,0.1-0.1,0.2-0.1c0.3,0,0.4,0.3,0.4,0.9c0,0.8-0.4,1.9-1,3.2
		c-0.1,0.2-0.3,0.4-0.5,0.7c-0.6,1.1-1,1.6-1.2,1.6h-2c-0.3-0.1-0.8-0.2-1.5-0.2h-0.4c-0.2,0.3-0.5,0.7-0.9,1.3
		C9.8,9.1,9.5,9.4,9,9.6c-0.1,0.1-0.6,0.2-1.4,0.5l-0.1,0.1v0c0,0.3,0.3,0.8,1,1.3c0.6,0.5,1.2,0.9,1.6,1h0c0.3,0,0.9-0.4,1.8-1.3
		c0.6-0.6,1.1-1.2,1.7-1.8h0.2c0.3,0,1,0.3,2,0.8c1,0.5,1.6,0.9,1.6,1.2c0.9,0.9,1.6,1.8,2,2.9c0.3,0.8,0.6,2,0.8,3.5
		c0,0.1,0,0.2,0,0.3c0,0.1,0,0.2,0,0.3c0,0,0,0.2,0,0.5c0,0.3,0,0.5,0,0.6c0,0.2-0.1,0.3-0.2,0.5c-0.3,0.2-0.8,0.5-1.4,1
		c-0.3,0.3-0.9,0.7-1.6,1.2c-0.9,0.6-2.1,1.8-3.7,3.5c-0.4,0.4-0.9,0.6-1.4,0.6c-0.8,0-1.7-0.2-2.7-0.6c-0.8-0.4-1.7-0.8-2.5-1.2
		c-1.1-0.5-2.2-0.9-3-1.2C2.9,22.8,2.4,22.6,2.1,22.6z M12.5,25.8h0.3l0.2-0.3v0c-0.3-0.2-0.7-0.4-1.2-0.5c-0.8-0.2-1.2-0.3-1.3-0.3
		c0,0-0.8-0.4-2.3-1.1c-0.9-0.3-1.9-0.8-3.2-1.4c0,0-0.5-0.2-1.4-0.4c-0.2-0.1-0.5-0.1-0.8-0.2c-0.3,0-0.5,0.1-0.5,0.4
		c0,0,0.8,0.3,2.4,0.9c0.9,0.4,2.4,1,4.3,1.8c0.4,0.2,1.1,0.4,2,0.8C11.4,25.7,11.9,25.8,12.5,25.8z M2.3,9.9c0,0.7,0.1,1.3,0.4,1.8
		c0.3,0.7,0.8,1.6,1.7,2.5c0.9,1.1,1.7,1.7,2.3,1.7c0.2,0,0.2-0.1,0.2-0.3c-2-1.6-3.3-3.2-3.8-4.7c-0.1-0.3-0.2-0.6-0.3-1
		C2.6,9.4,2.5,9.1,2.5,9.1C2.4,9.1,2.3,9.4,2.3,9.9z M2.4,8.8C2.4,8.9,2.4,8.9,2.4,8.8L2.4,8.8L2.4,8.8L2.4,8.8z M2.8,21
		c0.3,0.2,1.1,0.5,2.6,0.9c0.3,0.2,0.7,0.4,1.3,0.7c1.1,0.5,2.2,0.9,3.2,1.4c1.5,0.6,2.6,0.9,3.2,0.9c0.4,0,0.6-0.1,0.6-0.4
		c0-0.3-0.8-0.5-2.3-0.8c-0.7-0.1-2.1-0.7-4-1.7c-1.8-0.9-3.1-1.3-4-1.3C3,20.6,2.8,20.7,2.8,21z M7.5,15.1c0.3,0,0.4-0.1,0.4-0.4
		c-0.1-0.2-0.6-0.7-1.7-1.4c-0.7-0.5-1.3-1.3-1.8-2.6c-0.4-1-0.8-2-1-3.1c-0.2,0-0.2,0.1-0.2,0.2v1.7c0,0.5,0.1,1,0.4,1.5
		c0.4,0.7,1,1.5,1.6,2.3c0,0,0.4,0.4,1.1,1.1C6.8,14.8,7.2,15.1,7.5,15.1z M7.2,9.6c0.4,0,1-0.4,1.8-1.1c0.9-0.7,1.3-1.2,1.3-1.6
		C9.5,6.6,8.8,6.1,8.1,5.6C7.7,5.3,7.2,4.9,6.6,4.4c0,0-0.1,0-0.1,0C6.3,4.4,6.1,4.6,5.9,5S5.7,5.6,5.7,5.8c0,0.5,0.1,1.2,0.5,2.1
		C6.5,9,6.8,9.6,7.2,9.6z M11.9,6.8C12.9,6.9,13.9,7,14.8,7c0.4-0.2,0.6-0.4,0.6-0.5l-0.1-0.1c-1.7,0-2.8-0.1-3.4-0.3
		c-0.3-0.1-0.7-0.3-1.3-0.5C10.3,5.4,9.9,5.2,9.4,5c-0.3-0.3-0.6-0.5-1-0.8C7.9,3.8,7.6,3.6,7.5,3.6C7.2,3.6,7.1,3.7,7.1,4
		c0.7,0.8,1.6,1.4,2.8,1.9c0.3,0.3,0.6,0.4,1.1,0.6C11.4,6.6,11.7,6.7,11.9,6.8z M8,3.1c0,0.2,0.3,0.5,1,1c0.5,0.3,0.9,0.6,1.3,0.8
		c0.3,0.1,0.8,0.3,1.5,0.5c0.6,0.3,1.5,0.5,2.8,0.5c0.5,0,0.8,0,0.9-0.1c0.3-0.1,0.5-0.3,0.5-0.7c0,0-0.2-0.1-0.7-0.1
		c-1.1,0-2.1-0.1-3.1-0.4c-1-0.3-1.9-0.8-2.9-1.5C8.9,2.8,8.5,2.7,8.3,2.7C8.1,2.7,8,2.8,8,3.1z M10.4,20.1c0,0.3,0.1,0.4,0.4,0.5
		c2.2,0.9,3.9,1.4,4.9,1.4c0.2-0.2,0.3-0.7,0.3-1.4c0-0.9-0.1-1.8-0.4-2.7c-0.3-1.1-0.8-1.8-1.4-2.3h-0.2c-0.5,0-1.2,0.6-2.1,1.8
		C11.1,18.5,10.6,19.3,10.4,20.1L10.4,20.1z M16.2,18.4c0,0.3,0,0.8,0.1,1.4c0.1,0.6,0.1,1,0.1,1.3c0,0.2,0,0.3,0.1,0.4l0.2-0.4
		c0.1-0.5,0.1-1,0.1-1.6c0-1.5-0.6-3-1.7-4.4c-1.2-1.6-2.5-2.3-4-2.3c-0.4,0-0.6,0.1-0.6,0.2c0,0.1,0.4,0.3,1.3,0.6
		c0.9,0.3,1.5,0.6,1.7,0.8c0.3,0.3,0.7,0.7,1.2,1.3c0.2,0.2,0.4,0.6,0.7,1.2c0.3,0.6,0.5,1,0.5,1.2C16.2,18.2,16.2,18.3,16.2,18.4z
		 M17.5,18.9c0,1,0.1,1.6,0.3,1.8c0.3-0.2,0.4-0.5,0.4-1.2c0-2.8-0.9-5-2.8-6.5c-1-0.9-2-1.3-2.8-1.3c-0.4,0-0.6,0.1-0.6,0.4
		c0.1,0.1,0.7,0.4,1.8,0.9c0.9,0.4,1.4,0.8,1.4,1l0.8,0.8c0.1,0.1,0.4,0.6,0.7,1.3s0.5,1.2,0.6,1.4C17.3,17.9,17.3,18.3,17.5,18.9z"
		/>
	<path d="M23,20.3c0-0.4,0-1,0-1.8c0-0.8,0-1.4,0-1.8c0-1.5-0.1-2.4-0.2-2.8c-0.1-0.1-0.2-0.2-0.5-0.4c-0.3-0.1-0.4-0.3-0.4-0.6
		c0.1-0.1,0.6-0.6,1.5-1.6c0.9-0.9,1.4-1.4,1.5-1.4c0.4,0,0.9,0.2,1.5,0.7c0.7,0.4,1.1,0.8,1.2,1.2c0.2,0.5,0.3,1,0.3,1.5
		c0,0.1,0,0.2,0.2,0.2c0.7-0.4,1.9-1.5,3.7-3.5c0.1-0.1,0.3-0.2,0.5-0.2c0.8,0,1.7,0.5,2.6,1.4c0.5,0.5,0.9,1.2,1,2.1H36
		c0.1,0,0.4-0.3,0.9-0.9c0.5-0.6,0.8-0.9,0.9-0.9c0.1-0.2,0.6-0.7,1.6-1.6h0.1c0.4,0,1.2,0.6,2.2,1.9c0.9,1.2,1.5,2,1.7,2.6
		c0.5,1.3,0.8,2.4,0.8,3.2c0,1.2-0.4,2.2-1.1,3c-0.5,0.5-1.6,1.5-3.4,3c-1.9,1.6-2.9,2.4-3.1,2.4h-0.9c-0.2-0.1-0.6-0.3-1.2-0.4
		c-0.6-0.1-1-0.3-1.1-0.5c-0.7-0.3-1.2-0.6-1.5-1.1c-0.3-0.4-0.5-0.9-0.7-1.7L31,22.3c0,0-0.6,0.8-1.6,2.1c-0.8,1.1-1.3,1.7-1.6,1.7
		c-0.6,0-1.3-0.2-2.2-0.6c-1-0.4-1.6-0.8-1.9-1.2c-0.4-0.6-0.6-1-0.6-1.3c0-0.3,0-0.7-0.1-1.3C23.1,21.3,23,20.9,23,20.3z
		 M27.9,19.5c0,0.9,0.1,1.5,0.4,1.8c0.3,0.3,0.9,0.6,1.7,0.7h0c0.6,0,1-0.9,1.1-2.6c0-0.2,0-1.2,0-3c0-0.8-0.1-1.4-0.4-1.9
		c-0.4-0.7-0.9-1-1.6-1c-0.6,0-1,0.4-1.1,1.2c0,0.1,0,0.8,0,1.9c0,0.1,0,0.3,0,0.6s0,0.4,0,0.6V19.5z M35.8,18.9
		c0,1.3,0.3,2.3,1,2.9c0.1,0,0.3,0.1,0.8,0.3c0.6,0.3,1.4,0.4,2.4,0.4c0.2-0.1,0.2-0.2,0.2-0.4c0-2.9-0.8-5.4-2.5-7.4
		c-0.6-0.7-1-1-1.4-1c-0.2,0-0.4,0.2-0.4,0.7c0,0.3,0,0.6,0,1l-0.1,1.9c0,0,0,0.1,0,0.2c0,0.1,0,0.1,0,0.2V18.9z"/>
	<path d="M45.6,12.9l0.1-0.1c1.5,0,3.5-0.5,6-1.6c0.1,0,0.5-0.3,1.3-0.7c0.6-0.3,1-0.5,1.2-0.5c0.3,0,0.8,0.5,1.4,1.5
		c0.6,0.9,0.9,1.5,1.1,2c0.2,0.6,0.3,1.2,0.3,1.8c0,0.1,0,0.3,0,0.5c0,0.2,0,0.4,0,0.5c-0.4,0.7-1.9,1.6-4.2,2.8
		c-0.4,0.2-1,0.5-1.8,1c-0.1,0.1-0.2,0.2-0.2,0.4c0,0.6,0.5,1.1,1.6,1.4c0.8,0.3,1.6,0.4,2.3,0.4c0.1,0,0.2,0,0.3,0
		c0.1,0,0.2,0,0.3,0c0.2-0.1,0.4-0.5,0.7-1c0.3-0.6,0.5-1,0.6-1.1c0.2,0,0.3,0.1,0.3,0.3c0,0.3-0.5,1.3-1.6,2.8
		c-1.1,1.5-1.8,2.5-2.2,2.8c0,0-0.1,0-0.2,0s-0.2,0-0.2,0c-1.1,0-2.3-0.3-3.7-1c-1.1-0.6-1.8-1.1-2.1-1.6c-0.5-0.8-0.8-1.9-0.9-3.5
		c0-0.2,0-1.4,0-3.7c0-1-0.1-2-0.2-3.1V12.9z M50.8,19.5L50.8,19.5L50.8,19.5c0.4,0.1,0.8-0.1,1.3-0.5c0.5-0.4,0.7-0.8,0.7-1.1
		c0-0.6-0.1-1.2-0.3-1.8c-0.2-0.6-0.4-1.2-0.8-1.8c-0.5-0.9-0.8-1.4-1.1-1.4c0,0.2-0.1,0.4-0.1,0.5v0.8c0-0.1,0,0,0.1,0.4
		c0-0.2,0,0.2,0,1.2C50.6,17.4,50.7,18.6,50.8,19.5z"/>
	<path d="M58.4,13.8c0-0.2,0.4-0.4,1.3-0.6c0.5-0.1,1.1-0.3,1.6-0.4c0.3-0.1,0.7-0.3,1.2-0.6c0.6-0.4,1-0.6,1-0.8
		c0-0.2-0.1-0.4-0.2-0.6c-0.6-0.8-1.2-2.1-1.6-4c0.1-0.4,0.5-0.7,1.1-1c0.4-0.1,1.1-0.4,2.2-0.8s1.8-0.5,2-0.5
		c0.2,0,0.3,0.1,0.3,0.2c0,0.1-0.2,0.2-0.5,0.4c-0.3,0.1-0.5,0.3-0.5,0.5c0,0.5,1,2.4,3,5.6c2,3.2,3,5.3,3,6.4
		c0,0.8-0.3,1.5-0.8,2.2c-0.8,0.9-2,2.2-3.7,3.7c-2,1.9-3.4,2.8-4,2.8c-0.4,0-1.2-0.3-2.3-0.9c-1.7-1-2.6-2-2.7-2.9l-0.3-7.6
		c0-0.1,0-0.3-0.1-0.5C58.4,14.1,58.4,13.9,58.4,13.8z M63.6,17.9c0,0,0,0.3,0,0.6c0,2.6,1.3,3.9,4,3.9c0.4,0,0.7-0.1,0.8-0.3
		c0.1-0.1,0.1-0.4,0.1-0.9c0-0.4-0.1-1-0.4-1.7c-0.3-0.7-0.9-2.1-2-4.1c-1.2-2.3-2-3.4-2.3-3.4c-0.2,0-0.3,0.5-0.3,1.6
		c0,0.1,0,0.3,0,0.5c0,0.2,0,0.4,0,0.5c0,0.4,0,0.9,0.1,1.6C63.6,17.1,63.6,17.6,63.6,17.9z"/>
	<path d="M74.3,14c-0.4,0.2-0.6,0.4-0.8,0.4c0-0.4,0.2-0.8,0.5-1.1c0.3-0.3,0.6-0.6,0.9-0.9c0.2-0.2,0.8-0.9,1.7-2.2
		c0.1-0.2,0.3-0.3,0.5-0.3c0.3,0,0.6,0.1,1,0.3c0.4,0.3,0.9,0.7,1.2,1.3c0.4,0.6,0.6,1.1,0.6,1.6c0,0.5,0,1.3,0,2.4
		c0,1.1,0,1.9,0,2.4v2c0,1.6,0.5,2.4,1.4,2.4c0.2,0,0.3-0.2,0.5-0.5c0.2-0.3,0.3-0.5,0.4-0.6l0.1,0.1v0.3c0,0.4-0.4,1.3-1.2,2.4
		c-0.7,1.1-1.3,1.8-1.7,2.1H79c-0.4,0-0.7-0.1-1-0.2c-2.1-1-3.1-2.1-3.1-3.5v-7C74.9,14.6,74.7,14.2,74.3,14z M76,8.4
		c0.7-1.7,1.4-2.8,2.3-3.4c0.3-0.2,0.8-0.3,1.4-0.3c0.2,0,0.3,0.1,0.3,0.4c0,0.3-0.5,1-1.6,2.1c-1.1,1.1-1.8,1.6-2.1,1.6
		C76.1,8.7,76,8.6,76,8.4z"/>
	<path d="M84.8,24.7c-0.5,0-0.8,0.1-0.8,0.5c0,0.2,0.2,0.3,0.5,0.4s0.5,0.2,0.5,0.3c0,0.4-0.2,0.5-0.6,0.5c-0.6,0-0.9-0.3-0.9-0.9
		c0-0.6,0.6-1.6,1.8-3.2c0.2-0.2,0.6-0.5,1-0.9v-0.1c0-0.1-0.2-0.3-0.7-0.6c-0.8-0.6-1.4-1.4-1.7-2.5c-0.2-0.7-0.3-1.7-0.3-3
		c0-0.4,0.1-0.7,0.4-1c0.2-0.2,0.5-0.4,0.9-0.5c1.6-0.7,3.1-1.6,4.5-2.7c0.7-0.5,1.1-0.8,1.3-0.8c0.2,0,0.5,0.2,1.1,0.6
		c0.6,0.4,1,0.6,1.1,0.7c0.8,0.2,1.5,0.3,2.1,0.3c0.8,0,1.2-0.1,1.2-0.5c0-0.3-0.1-0.5-0.5-0.5c0.3,0,0,0-0.9,0
		c0-0.1-0.1-0.2-0.1-0.3c0-0.5,0.3-0.7,0.8-0.7c0.3,0,0.5,0.1,0.8,0.2c0.2,0.1,0.4,0.3,0.4,0.6c0,0.2,0,0.4-0.1,0.7
		c0,0.3-0.1,0.6-0.1,0.7s-0.3,0.6-1,1.5c-0.7,0.9-1,1.3-1,1.4c0,0.2,0.1,0.3,0.5,0.5c0.6,0.3,1,0.8,1.4,1.4c0.7,1.3,1,2.7,1,4.2
		c0,0.1,0,0.2,0,0.4c0,0.2,0,0.3,0,0.4c0,0.7-1.2,1.6-3.5,2.9c-2.2,1.2-3.7,1.9-4.5,1.9c-0.1,0-0.6-0.3-1.6-1
		C86.7,25,85.8,24.7,84.8,24.7z M87.5,14.1c0,1.1,0.6,2.3,2,3.5c0.3,0.3,0.5,0.4,0.7,0.4c0.3-0.1,0.7-0.5,1.4-1.1
		c0.6-0.6,1-1,1.2-1.2v0l-0.1-0.1c-1.2-0.2-2.2-0.5-3-0.9c-0.1,0-0.5-0.3-1-0.7c-0.4-0.3-0.7-0.5-1-0.5l-0.1,0.1V14.1z M87.9,20.7
		c0.2,0.2,0.7,0.5,1.6,0.8s1.5,0.6,1.7,0.8c0.4,0.3,0.8,0.6,1.1,0.9c0.4,0.4,0.7,0.6,1,0.6c0-2.3-0.7-4-2-5.2
		c-0.1-0.1-0.3-0.2-0.4-0.3c-0.3,0-0.8,0.3-1.5,1C88.8,19.8,88.4,20.2,87.9,20.7z"/>
	<path d="M104.9,30.2c0.1-0.1,0.4-0.2,1-0.3c0.7-0.1,1.2-0.2,1.6-0.3c0.6-0.2,1-0.6,1.3-1.2c0.3-0.6,0.4-1.6,0.4-3.2
		c0-0.5,0-1.2-0.1-2.2c0-1-0.1-1.7-0.1-2.2l-0.1-0.1c-0.2-2.8-0.3-4.7-0.2-5.5c-1.9-0.6-3-0.9-3.3-0.9c-0.7,0-1.1,0.7-1.1,2
		c0,0.1,0,0.3,0,0.6c0,0.3,0,0.5,0,0.6c0,1.3,0,2,0,2c0.1,0.7,0.3,1.3,0.7,1.8c0.4,0.5,0.8,0.7,1.2,0.7c0.1,0,0.3-0.2,0.4-0.6
		c0.2-0.4,0.3-0.6,0.4-0.6c0.1,0,0.2,0.1,0.2,0.2c0,0.1-0.3,0.9-0.9,2.2c-0.6,1.3-1,2.1-1.1,2.3c-0.2,0.3-0.4,0.6-0.6,0.8h-0.2
		c-0.6,0-1.2-0.1-2-0.5c-1.7-0.7-2.7-1.8-2.8-3.4c-0.1-0.4-0.2-1.1-0.2-1.9c0-0.2,0-0.6,0-1.3c0-0.5,0-0.9,0-1.3V12c0-0.2,0-0.5,0-1
		c0-0.4,0-0.8,0-1l0.1-0.1c-0.2-0.5-0.2-1.6-0.2-3.1c0-0.1-0.1-0.3-0.3-0.6c-0.2-0.3-0.3-0.5-0.3-0.6c0-0.2,0.1-0.2,0.3-0.2h2.3
		c0.5,0,1.2-0.1,2.1-0.4c0.8-0.3,1.4-0.4,1.6-0.4c0.2,0,0.3,0.1,0.3,0.2c0,0.1-0.1,0.3-0.3,0.4c-0.2,0.1-0.4,0.2-0.5,0.3
		c-0.2,0.2-0.3,0.6-0.3,1.4l0.1,7.1l0.1,0c0.2-0.2,0.6-0.6,1.1-1.1c0.6-0.6,1.4-1.6,2.5-3.1c0.1-0.1,0.1-0.1,0.3-0.1
		c0.2,0,0.5,0.1,0.8,0.2c0.2,0.1,0.6,0.2,1.3,0.4s1.1,0.3,1.3,0.3c0.3,0,0.8,0,1.5,0.1c0.4,0.1,0.6,0.4,0.6,0.8c0,0.4,0,1.1,0,1.9
		c0,0.9,0,1.5,0,1.9c0,1.9,0.1,3.4,0.3,4.4c0,0.1,0,0.1,0,0.2c0,0.1,0,0.2,0,0.3c0,0.1,0,0.2,0,0.3v4.3c0,0.9-1.2,2.1-3.6,3.4
		c-2.2,1.2-4,1.9-5.1,1.9C105,30.3,104.9,30.3,104.9,30.2z"/>
	<path d="M129,12.1V6.9c0-0.3-0.1-0.6-0.3-1c-0.2-0.4-0.3-0.6-0.3-0.7c0-0.1,0-0.1,0.1-0.2c0.2,0,0.6,0,1.2,0c2.9,0,4.5-0.2,5-0.5
		c0.1,0,0.2,0,0.3,0s0.2,0.1,0.2,0.2c0,0.2-0.1,0.2-0.2,0.2c-0.4,0.2-0.7,0.4-0.9,0.7S134,6.2,134,6.7c0,0.3,0,0.7,0,1.2
		c0,0.5,0,0.9,0,1.2c0,0.4,0,1.1,0,1.9c0,0.9,0,1.5,0,2l0.2,0.1c0.4-0.4,1-0.9,1.9-1.6c0.9-0.7,1.5-1.2,1.9-1.6h0.1
		c0.6,0,1.4,0.8,2.4,2.3c0.9,1.3,1.5,2.3,1.8,3.1c0.3,0.8,0.4,1.3,0.4,1.8c0,0.1,0,0.2-0.1,0.4s-0.1,0.3-0.1,0.4
		c0,0.1,0,0.2,0.1,0.3c0,0.1,0.1,0.3,0.1,0.3c0,0.7-1.5,2.5-4.6,5.4c-0.8,0.6-1.7,1.4-2.6,2.1H135c-0.7,0-1.4-0.2-2.3-0.5
		s-1.5-0.7-2-1.2c-0.1-0.1-0.5-0.5-1-1c-0.5-0.5-0.7-2.6-0.7-6.2c0-0.8,0-1.8,0-3C129,12.9,129,12.3,129,12.1z M138.5,22.3l0.1-0.1
		v-0.7c0-0.9-0.2-2-0.5-3.1c-0.4-1.2-0.9-2.1-1.5-2.7l-0.9-0.9c-0.7-0.7-1.2-1.1-1.4-1.1c-0.3,0-0.4,0.3-0.4,0.9v1.3
		c0,0.3,0,0.6,0,1c0,0.5,0.1,0.9,0.1,1c0,0.3,0,0.7,0,1.2c0.1,1.3,0.9,2.2,2.5,2.7C137.5,22.1,138.2,22.3,138.5,22.3z"/>
	<path d="M144.5,14c-0.4,0.2-0.6,0.4-0.8,0.4c0-0.4,0.2-0.8,0.5-1.1c0.3-0.3,0.6-0.6,0.9-0.9c0.2-0.2,0.8-0.9,1.7-2.2
		c0.1-0.2,0.3-0.3,0.5-0.3c0.3,0,0.6,0.1,1,0.3c0.4,0.3,0.9,0.7,1.2,1.3c0.4,0.6,0.6,1.1,0.6,1.6c0,0.5,0,1.3,0,2.4
		c0,1.1,0,1.9,0,2.4v2c0,1.6,0.5,2.4,1.4,2.4c0.2,0,0.3-0.2,0.5-0.5c0.2-0.3,0.3-0.5,0.4-0.6l0.1,0.1v0.3c0,0.4-0.4,1.3-1.2,2.4
		c-0.7,1.1-1.3,1.8-1.7,2.1h-0.3c-0.4,0-0.7-0.1-1-0.2c-2.1-1-3.1-2.1-3.1-3.5v-7C145.1,14.6,144.9,14.2,144.5,14z M146.2,8.4
		c0.7-1.7,1.4-2.8,2.3-3.4c0.3-0.2,0.8-0.3,1.4-0.3c0.2,0,0.3,0.1,0.3,0.4c0,0.3-0.5,1-1.6,2.1c-1.1,1.1-1.8,1.6-2.1,1.6
		C146.3,8.7,146.2,8.6,146.2,8.4z"/>
	<path d="M154.4,21.6c0-0.5,0-1.3,0.1-2.4c0-1.1,0.1-1.8,0.1-2.4c0-1.1-0.1-1.7-0.2-1.8c-0.1-0.1-0.2-0.1-0.5-0.2s-0.4-0.2-0.4-0.3
		c0-0.4,0.8-1.4,2.4-3.1c1.8-1.9,2.8-2.9,2.9-3.1c0.2-0.3,0.3-0.5,0.5-0.5c0.2,0,0.3,0.3,0.3,0.9c0,0.3,0,0.7-0.1,1.4
		c0,0.7-0.1,1.2-0.1,1.5c0,0.9,0.1,1.4,0.4,1.4h1.2c0.1,0,0.3-0.1,0.4-0.2c0.1-0.1,0.3-0.2,0.4-0.2c0.1,0,0.2,0.2,0.2,0.6
		c0,0.2,0,0.5-0.1,0.9c-0.1,0.4-0.1,0.7-0.1,0.9c0,0.7-0.1,1.1-0.3,1.1c-0.2,0-0.3-0.2-0.3-0.7c-0.1-0.4-0.2-0.7-0.3-0.7h-1.1
		c-0.2,0-0.3,0.6-0.3,1.7c0,1.9,0,3,0.1,3.4c0.2,1.6,0.8,2.3,1.8,2.3c0.1,0,0.3-0.1,0.4-0.3c0.1-0.2,0.3-0.3,0.4-0.3
		c0.1,0,0.2,0.1,0.2,0.2c0,0.4-0.3,1-0.9,1.6c-0.1,0.2-0.4,0.6-0.7,1c-0.3,0.3-0.7,0.8-1.2,1.5c-0.2,0.2-0.4,0.3-0.7,0.3
		c-0.3,0-0.7-0.2-1.2-0.5c-1-0.6-1.5-1-1.7-1.2c-0.6-0.5-1-1.1-1.1-1.7v0v0l0-0.2C154.6,22.8,154.5,22.3,154.4,21.6L154.4,21.6z"/>
	<path d="M164.3,21.6c0-0.5,0-1.3,0.1-2.4c0-1.1,0.1-1.8,0.1-2.4c0-1.1-0.1-1.7-0.2-1.8c-0.1-0.1-0.2-0.1-0.5-0.2s-0.4-0.2-0.4-0.3
		c0-0.4,0.8-1.4,2.4-3.1c1.8-1.9,2.8-2.9,2.9-3.1c0.2-0.3,0.3-0.5,0.5-0.5c0.2,0,0.3,0.3,0.3,0.9c0,0.3,0,0.7-0.1,1.4
		c0,0.7-0.1,1.2-0.1,1.5c0,0.9,0.1,1.4,0.4,1.4h1.2c0.1,0,0.3-0.1,0.4-0.2c0.1-0.1,0.3-0.2,0.4-0.2c0.1,0,0.2,0.2,0.2,0.6
		c0,0.2,0,0.5-0.1,0.9c-0.1,0.4-0.1,0.7-0.1,0.9c0,0.7-0.1,1.1-0.3,1.1c-0.2,0-0.3-0.2-0.3-0.7c-0.1-0.4-0.2-0.7-0.3-0.7h-1.1
		c-0.2,0-0.3,0.6-0.3,1.7c0,1.9,0,3,0.1,3.4c0.2,1.6,0.8,2.3,1.8,2.3c0.1,0,0.3-0.1,0.4-0.3c0.1-0.2,0.3-0.3,0.4-0.3
		c0.1,0,0.2,0.1,0.2,0.2c0,0.4-0.3,1-0.9,1.6c-0.1,0.2-0.4,0.6-0.7,1c-0.3,0.3-0.7,0.8-1.2,1.5c-0.2,0.2-0.4,0.3-0.7,0.3
		c-0.3,0-0.7-0.2-1.2-0.5c-1-0.6-1.5-1-1.7-1.2c-0.6-0.5-1-1.1-1.1-1.7v0v0l0-0.2C164.4,22.8,164.4,22.3,164.3,21.6L164.3,21.6z"/>
	<path d="M173.3,12.9l0.1-0.1c1.5,0,3.5-0.5,6-1.6c0.1,0,0.5-0.3,1.3-0.7c0.6-0.3,1-0.5,1.2-0.5c0.3,0,0.8,0.5,1.4,1.5
		c0.6,0.9,0.9,1.5,1.1,2c0.2,0.6,0.3,1.2,0.3,1.8c0,0.1,0,0.3,0,0.5c0,0.2,0,0.4,0,0.5c-0.4,0.7-1.9,1.6-4.2,2.8
		c-0.4,0.2-1,0.5-1.8,1c-0.1,0.1-0.2,0.2-0.2,0.4c0,0.6,0.5,1.1,1.6,1.4c0.8,0.3,1.6,0.4,2.3,0.4c0.1,0,0.2,0,0.3,0
		c0.1,0,0.2,0,0.3,0c0.2-0.1,0.4-0.5,0.7-1c0.3-0.6,0.5-1,0.6-1.1c0.2,0,0.3,0.1,0.3,0.3c0,0.3-0.5,1.3-1.6,2.8
		c-1.1,1.5-1.8,2.5-2.2,2.8c0,0-0.1,0-0.2,0c-0.1,0-0.2,0-0.2,0c-1.1,0-2.3-0.3-3.7-1c-1.1-0.6-1.8-1.1-2.1-1.6
		c-0.5-0.8-0.8-1.9-0.9-3.5c0-0.2,0-1.4,0-3.7c0-1-0.1-2-0.2-3.1V12.9z M178.5,19.5L178.5,19.5L178.5,19.5c0.4,0.1,0.8-0.1,1.3-0.5
		s0.7-0.8,0.7-1.1c0-0.6-0.1-1.2-0.3-1.8s-0.4-1.2-0.8-1.8c-0.5-0.9-0.8-1.4-1.1-1.4c0,0.2-0.1,0.4-0.1,0.5v0.8c0-0.1,0,0,0.1,0.4
		c0-0.2,0,0.2,0,1.2C178.4,17.4,178.4,18.6,178.5,19.5z"/>
	<path d="M187.7,17.3c0-1.8-0.3-2.8-1-2.8c-0.1,0-0.1,0-0.3,0.1s-0.2,0.1-0.3,0.1c-0.1,0-0.1-0.1-0.1-0.2c0-0.1,0-0.2,0.1-0.3
		c0.9-0.8,1.8-1.9,2.9-3.3c0.2-0.3,0.4-0.4,0.6-0.4c0.5,0,1.1,0.3,1.7,0.9s1,1.1,1.1,1.6c0,0.3,0.1,0.8,0.2,1.5
		c0.3-0.1,0.6-0.9,1.1-2.1c0.4-1.2,0.8-1.8,1-1.8c0.2,0,0.7,0.1,1.4,0.4c0.7,0.3,1.2,0.5,1.4,0.5c0.1,0,0.1,0.2,0.1,0.5
		c0,0.1-0.3,0.8-0.9,2.2c-0.7,1.5-1,2.4-1.1,2.6c-0.1,0.4-0.2,0.9-0.2,1.5c0,0.2-0.1,0.3-0.3,0.3c-0.2,0-0.4-0.1-0.4-0.2V18
		c0-0.2,0.1-0.5,0.3-0.9s0.3-0.6,0.3-0.8c0-0.3-0.3-0.6-0.9-0.8c-0.5-0.2-0.9-0.3-1.3-0.3c-0.3,0-0.5,0.8-0.5,2.4V21
		c0,0.5,0.3,0.9,0.8,1.1c0.4,0.2,0.9,0.4,1.4,0.4c0,0,0.1-0.3,0.3-0.8c0.1-0.4,0.3-0.6,0.4-0.6c0.2,0,0.3,0.1,0.3,0.4
		c-0.2,0.3-0.4,0.7-0.5,1s-0.5,1-1.2,2c-0.7,1.1-1.2,1.7-1.3,1.8c-0.2,0.1-0.4,0.2-0.6,0.2c-0.5,0-1.3-0.4-2.4-1.1
		c-1.1-0.7-1.7-1.3-1.8-1.8c-0.1-0.4-0.2-0.9-0.2-1.6c0-0.6,0-1.4,0-2.4C187.7,18.4,187.7,17.6,187.7,17.3z"/>
</g>
</svg>
