<svg xmlns="http://www.w3.org/2000/svg" xmlns:xlink="http://www.w3.org/1999/xlink" width="15" height="15" viewBox="0 0 15 15">

<defs>
    <style>
      .cls-1 {
        fill: #737373;
        fill-rule: evenodd;
        filter: url(#filter);
      }
    </style>
    <filter id="filter" x="1344.34" y="36.219" width="14.88" height="14.875" filterUnits="userSpaceOnUse">
      <feFlood result="flood" flood-color="#7eb252"/>
      <feComposite result="composite" operator="in" in2="SourceGraphic"/>
      <feBlend result="blend" in2="SourceGraphic"/>
    </filter>
  </defs>
  <path id="телефон" class="cls-1" d="M1346.83,36.221a2.239,2.239,0,0,1,1.86,1.022l1.59,1.588a1.8,1.8,0,0,1,.6.912,1.04,1.04,0,0,1,.03.475,2.042,2.042,0,0,1-.71,1.041c-0.17.183-.35,0.365-0.53,0.547a2.136,2.136,0,0,0-.51.547,1.769,1.769,0,0,1,.18.31c0.14,0.2.3,0.389,0.44,0.584,0.16,0.215.39,0.391,0.55,0.6a8.3,8.3,0,0,0,1.53,1.5c0.08,0.058.14,0.16,0.22,0.219,0.22,0.164.43,0.32,0.66,0.474a0.924,0.924,0,0,0,.4.219,4.979,4.979,0,0,1,.64-0.638,3.167,3.167,0,0,1,1.44-1.114,1.154,1.154,0,0,1,.7.109,5.86,5.86,0,0,1,1.46,1.3c0.38,0.383.76,0.767,1.15,1.151a2.348,2.348,0,0,1,.53.584,3.986,3.986,0,0,1,.14.492,1.58,1.58,0,0,1-.03.657,3.775,3.775,0,0,1-1.01,1.15,3.36,3.36,0,0,1-.88.767,5,5,0,0,1-.98.292,4.414,4.414,0,0,1-1.83-.036l-0.31-.037a8.055,8.055,0,0,1-1-.292,15.137,15.137,0,0,1-1.39-.657c-0.25-.138-0.5-0.335-0.75-0.474a14.141,14.141,0,0,1-5.25-5.349c-0.13-.23-0.3-0.466-0.44-0.693a7.315,7.315,0,0,1-.44-0.967,5.686,5.686,0,0,1-.14-4.454,3.213,3.213,0,0,1,.71-0.767l0.78-.8a1.8,1.8,0,0,1,.31-0.183A1.219,1.219,0,0,0,1346.83,36.221Zm0.11,0.8c-0.07.049-.16,0.063-0.22,0.11l-0.84.858a1.8,1.8,0,0,0-.44.474c-0.71,1.6.02,3.675,0.69,4.782a29.243,29.243,0,0,0,1.65,2.446c0.09,0.123.23,0.224,0.32,0.347a3.174,3.174,0,0,0,.57.6c0.07,0.051.1,0.149,0.16,0.2,0.27,0.215.5,0.489,0.77,0.694,0.32,0.24.62,0.5,0.95,0.73a19.87,19.87,0,0,0,1.95,1.169,5.461,5.461,0,0,0,3.78.73,3.776,3.776,0,0,0,.59-0.146,2.137,2.137,0,0,0,.58-0.493c0.29-.286.58-0.572,0.88-0.858a0.616,0.616,0,0,1,.07-0.128,1.264,1.264,0,0,0-.66-1.113c-0.11-.115-0.21-0.249-0.33-0.365-0.36-.36-0.73-0.7-1.09-1.059a2.26,2.26,0,0,0-.79-0.694,0.765,0.765,0,0,0-.67.365c-0.37.359-.73,0.718-1.1,1.077a1.453,1.453,0,0,1-.45.42,2.408,2.408,0,0,0-.41-0.109,4.646,4.646,0,0,1-.69-0.4,13.282,13.282,0,0,1-2.9-2.775,3.848,3.848,0,0,1-1.06-1.807,5.559,5.559,0,0,0,.68-0.676c0.35-.35.71-0.684,1.04-1.059H1350a0.666,0.666,0,0,0,.11-0.511,0.83,0.83,0,0,1-.11-0.164,5.092,5.092,0,0,0-.49-0.493c-0.49-.475-0.97-0.95-1.46-1.424A1.487,1.487,0,0,0,1346.94,37.023Z" transform="translate(-1344.34 -36.219)"/>
</svg>
