<svg width="131" height="28" fill="none" xmlns="http://www.w3.org/2000/svg"><path d="M59.68 20.3H57.7L55.68 8.43 50.3 19.91h-.51L44.41 8.45 42.4 20.3h-2l2.62-15.19h1.87l5.15 11.15L55.2 5.11h1.9l2.59 15.19zM62.19 20.3V18h2.17v2.3H62.2zM91.96 20.3h-1.98L87.96 8.43l-5.38 11.48h-.5L76.7 8.45 74.67 20.3h-2L75.3 5.11h1.86l5.16 11.15 5.15-11.15h1.91l2.58 15.19zM95.1 20.3V5.11h1.92V20.3H95.1zM111.78 5.11h1.91V20.3h-1.64l-8.86-11.85V20.3h-1.9V5.11h1.76l8.73 11.72V5.1zM123.11 5.11c2.28 0 4.17.72 5.65 2.15A7.22 7.22 0 01131 12.7c0 2.2-.75 4-2.24 5.44a7.79 7.79 0 01-5.65 2.15h-5.17V5.11h5.17zm-.06 13.41c1.74 0 3.17-.55 4.28-1.65A5.62 5.62 0 00129 12.7c0-1.1-.25-2.1-.75-2.99a5.3 5.3 0 00-2.11-2.06 6.2 6.2 0 00-3.1-.76h-3.17v11.63h3.18zM14.33 17.5c7.92 0 14.34-1.57 14.34-3.5 0-1.94-6.42-3.51-14.34-3.51C6.42 10.49 0 12.06 0 13.99c0 1.94 6.42 3.5 14.33 3.5zM14.33 7.86c7.92 0 14.34-.78 14.34-1.74 0-.97-6.42-1.75-14.34-1.75C6.42 4.37 0 5.15 0 6.12c0 .96 6.42 1.74 14.33 1.74zM14.33 1.74c7.92 0 14.34-.39 14.34-.87S22.25 0 14.33 0C6.42 0 0 .39 0 .87s6.42.87 14.33.87zM14.33 23.63c7.92 0 14.34-.78 14.34-1.75 0-.96-6.42-1.74-14.34-1.74-7.91 0-14.33.78-14.33 1.74 0 .97 6.42 1.75 14.33 1.75zM14.33 28c7.92 0 14.34-.39 14.34-.87s-6.42-.87-14.34-.87c-7.91 0-14.33.39-14.33.87s6.42.87 14.33.87z" fill="#0C0C0D"/></svg>