<svg width="12" height="16" fill="none" xmlns="http://www.w3.org/2000/svg"><path d="M4.56 14.2c.3.43.73.72 1.2.79.47.06.95-.1 1.32-.44.12-.1.22-.22.31-.35M1 9.25V9.1c.02-.46.14-.9.35-1.28.36-.45.6-1.01.7-1.61 0-.47 0-.94.04-1.41A4.07 4.07 0 015.98 1h.04a4.07 4.07 0 013.9 3.8c.03.47 0 .94.02 1.4.11.61.35 1.17.7 1.63.22.38.34.82.36 1.27v.14c.01.61-.16 1.2-.5 1.68a2.5 2.5 0 01-1.68.96c-1.87.24-3.77.24-5.65 0a2.54 2.54 0 01-1.68-.96A2.84 2.84 0 011 9.25z" stroke="#0C0C0D" stroke-linecap="round" stroke-linejoin="round"/></svg>