<svg width="20" height="20" fill="none" xmlns="http://www.w3.org/2000/svg"><path fill-rule="evenodd" clip-rule="evenodd" d="M.88.01h-.1A.75.75 0 000 .61L0 .72a.75.75 0 00.62.77l1.51.26.92 10.9.01.16a2.55 2.55 0 002.53 2.18H16.5l.17-.01a2.55 2.55 0 002.36-2.18l.95-6.56.01-.15a2.09 2.09 0 00-2.08-2.24H3.8l-.23-2.8-.02-.11a.75.75 0 00-.6-.57L.88.01zm4.6 13.47a1.05 1.05 0 01-.94-.96l-.6-7.17H18a.59.59 0 01.5.68l-.95 6.55-.03.12c-.12.46-.53.79-1.02.79H5.6l-.12-.01zm-1.57 4.6a1.51 1.51 0 113.03 0 1.51 1.51 0 01-3.03 0zm11.25 0a1.52 1.52 0 113.03 0 1.52 1.52 0 01-3.03 0zm.49-9.78a.75.75 0 00-.75-.75h-2.87a.75.75 0 00.1 1.5h2.77l.1-.01a.75.75 0 00.65-.74z" fill="#000C22"/></svg>