<svg width="95" height="42" fill="none" xmlns="http://www.w3.org/2000/svg"><path d="M3.22 39.76a3.35 3.35 0 01-1.65-.4A3.05 3.05 0 01.42 38.2 3.2 3.2 0 010 36.57c0-.61.14-1.16.42-1.64.28-.48.67-.86 1.15-1.13a3.35 3.35 0 011.65-.4c.6 0 1.16.13 1.65.4.48.27.86.65 1.14 1.13.28.49.42 1.03.42 1.64A3.2 3.2 0 016 38.21a2.96 2.96 0 01-1.14 1.14 3.35 3.35 0 01-1.65.4zm0-.75a2.41 2.41 0 001.2-.3c.36-.2.64-.5.84-.87.2-.37.3-.8.3-1.27s-.1-.9-.3-1.27c-.2-.37-.48-.66-.84-.85a2.34 2.34 0 00-1.2-.31c-.45 0-.85.1-1.21.3a2.17 2.17 0 00-.84.86c-.2.37-.3.8-.3 1.27 0 .48.1.9.3 1.27.2.38.48.66.84.87.36.2.76.3 1.21.3zm5.03-5.56h.85v2.76h3.98v-2.76h.85v6.25h-.85v-2.76H9.1v2.76h-.85v-6.25zm13.27 0v6.25h-.85v-5.5h-3.03l-.08 1.54c-.06 1.3-.22 2.3-.46 3-.24.69-.67 1.04-1.28 1.04a2.5 2.5 0 01-.62-.1l.06-.72.3.05a.8.8 0 00.75-.45c.17-.3.28-.68.34-1.12.05-.45.1-1.03.14-1.76l.1-2.23h4.63zm4.6-.05c.83 0 1.46.2 1.9.62.44.4.66 1 .66 1.8v3.88h-.81v-.98a1.94 1.94 0 01-.86.76c-.37.18-.8.27-1.32.27-.7 0-1.26-.16-1.68-.5a1.6 1.6 0 01-.63-1.31c0-.53.2-.96.58-1.29.4-.32 1.01-.48 1.86-.48h2v-.38c0-.54-.14-.95-.45-1.23-.3-.28-.75-.42-1.33-.42-.4 0-.79.06-1.15.2a2.83 2.83 0 00-.95.53l-.39-.63c.32-.27.7-.47 1.16-.62.44-.15.92-.22 1.41-.22zm-.3 5.69c.48 0 .9-.1 1.24-.32a2 2 0 00.77-.95V36.8h-1.98c-1.08 0-1.63.37-1.63 1.11 0 .37.15.66.43.87.28.2.67.31 1.17.31zm5.13-5.64h.86v4.96l4.21-4.96h.76v6.25h-.85v-4.97l-4.2 4.97h-.78v-6.25zm2.88-.9c-.55 0-.98-.14-1.3-.41a1.44 1.44 0 01-.5-1.14h.62c0 .3.12.56.33.75.22.18.5.27.84.27.35 0 .63-.09.85-.27A.97.97 0 0035 31h.62c-.01.5-.18.87-.5 1.14-.33.27-.76.4-1.3.4zm5.4.9h.85v2.76h3.97v-2.76h.86v6.25h-.86v-2.76h-3.97v2.76h-.85v-6.25zm7.61 2.66h3.15v.73h-3.15v-.73zm12.14-2.66v6.25h-.78v-4.95l-2.56 4.18h-.38l-2.56-4.19v4.96h-.78v-6.25h.86l2.68 4.5 2.73-4.5h.8zm4.6-.05c.83 0 1.46.2 1.9.62.44.4.66 1 .66 1.8v3.88h-.81v-.98a1.94 1.94 0 01-.86.76c-.36.18-.8.27-1.32.27-.7 0-1.26-.16-1.68-.5a1.6 1.6 0 01-.62-1.31c0-.53.19-.96.57-1.29.4-.32 1.02-.48 1.86-.48h2.01v-.38c0-.54-.15-.95-.46-1.23-.3-.28-.74-.42-1.33-.42-.4 0-.78.06-1.15.2a2.83 2.83 0 00-.95.53l-.39-.63c.32-.27.7-.47 1.16-.62.45-.15.92-.22 1.42-.22zm-.3 5.69c.49 0 .9-.1 1.24-.32a2 2 0 00.77-.95V36.8h-1.98c-1.08 0-1.62.37-1.62 1.11 0 .37.14.66.42.87.28.2.67.31 1.18.31zm8.4-5.69c.58 0 1.12.13 1.6.4.48.26.86.64 1.13 1.12.27.48.4 1.03.4 1.65 0 .63-.13 1.18-.4 1.66a2.9 2.9 0 01-1.13 1.13c-.47.26-1 .4-1.6.4-.52 0-.99-.1-1.4-.31a2.68 2.68 0 01-1.01-.93V42h-.86v-8.55h.82v1.23a2.63 2.63 0 011.01-.95 3.04 3.04 0 011.43-.33zM71.6 39c.44 0 .84-.1 1.2-.29.36-.2.64-.5.84-.87.21-.37.32-.8.32-1.27s-.1-.9-.32-1.26a2.15 2.15 0 00-.84-.87 2.38 2.38 0 00-1.2-.3c-.45 0-.85.1-1.21.3a2.26 2.26 0 00-.84.87c-.2.37-.3.79-.3 1.26 0 .48.1.9.3 1.27.2.37.48.66.84.87.36.2.76.3 1.21.3zm7.34-2.08H77.5v2.78h-.85v-6.25h.85v2.74h1.46l2.22-2.74h.93l-2.5 3.03 2.68 3.22h-1.01l-2.33-2.78zm9.99-.09h-5.29c.05.65.3 1.18.76 1.58.45.4 1.03.6 1.73.6a2.42 2.42 0 001.93-.82l.48.54c-.28.34-.63.59-1.06.76a3.55 3.55 0 01-1.38.26c-.65 0-1.22-.13-1.73-.4a3.02 3.02 0 01-1.16-1.14 3.2 3.2 0 01-.42-1.64c0-.6.13-1.16.4-1.64s.63-.86 1.1-1.13a3.15 3.15 0 011.58-.4c.59 0 1.11.13 1.58.4.46.27.83.65 1.1 1.13.26.48.39 1.02.39 1.64l-.01.26zm-3.06-2.7a2.17 2.17 0 00-2.23 2.07h4.48a2.21 2.21 0 00-2.25-2.08zm9.12.07h-2.39v5.5h-.85v-5.5h-2.4v-.75H95v.74z" fill="#000C22"/><path d="M12.08 26c-3.82 0-6.8-1.03-8.92-3.1C1.06 20.85 0 17.93 0 14.14V0h7.27v13.91c0 4.08 1.63 6.12 4.88 6.12 3.23 0 4.85-2.04 4.85-6.12V0h7.16v14.13c0 3.79-1.07 6.71-3.2 8.77-2.1 2.07-5.06 3.1-8.88 3.1zM54.63 0v25.49h-5.98L37.31 11.91v13.58h-7.13V0h5.99L47.5 13.58V0h7.12zm6.23 0h7.27v25.49h-7.27V0zm19.01 5.72h-7.89V0H95v5.72h-7.86v19.77h-7.27V5.72z" fill="#0349EB"/></svg>