<svg width="16" height="20" fill="none" xmlns="http://www.w3.org/2000/svg"><path fill-rule="evenodd" clip-rule="evenodd" d="M8 0a5.32 5.32 0 10.03 10.65A5.32 5.32 0 008 0zm0 1.45a3.88 3.88 0 013.87 3.88 3.88 3.88 0 01-3.86 3.9 3.88 3.88 0 01-3.88-3.9A3.88 3.88 0 018 1.45zM5.83 12.82a16.72 16.72 0 00-2.34.33c-1.5.31-2.7.93-3.2 1.95a2.93 2.93 0 000 2.52c.48 1 1.54 1.58 2.97 1.9l.25.05a15.41 15.41 0 002.74.39h.43c1.13.07 2.31.05 3.49-.05a15.66 15.66 0 001.88-.25l.47-.1c1.54-.3 2.7-.88 3.2-1.94a2.93 2.93 0 000-2.5c-.5-1.07-1.65-1.65-3.22-1.97a16.93 16.93 0 00-1.87-.29l-.46-.04a24.68 24.68 0 00-4.34 0zm4.21 1.44h.02c.72.05 1.44.16 2.15.3 1.17.25 1.96.65 2.2 1.17.2.4.2.86 0 1.26-.23.5-.94.88-1.97 1.11l-.22.05c-.72.16-1.44.26-2.16.31-1.12.1-2.23.12-3.34.06l-.4-.01a1.94 1.94 0 01-.29-.03 15.52 15.52 0 01-1.87-.25l-.35-.08c-1.17-.23-1.97-.63-2.23-1.16a1.48 1.48 0 010-1.25c.25-.5 1.1-.94 2.2-1.17a15.39 15.39 0 012.16-.3 23.3 23.3 0 014.1 0z" fill="#000C22"/></svg>