<svg fill="none" xmlns="http://www.w3.org/2000/svg" viewBox="0 0 25 17"><path d="M12.5 7.92a.6.6 0 00.6-.57.6.6 0 00-.6-.58.6.6 0 00-.6.58c0 .31.27.57.6.57z" stroke="#fff" stroke-linecap="round" stroke-linejoin="round"/><path d="M12.5 13.7c3 0 5.45-2.33 5.45-5.2S15.5 3.3 12.5 3.3c-3 0-5.45 2.33-5.45 5.2s2.44 5.2 5.45 5.2z" stroke="#fff" stroke-linecap="round" stroke-linejoin="round"/><path d="M1 8.5S5.1 1 12.5 1 24 8.5 24 8.5 19.9 16 12.5 16 1 8.5 1 8.5z" stroke="#fff" stroke-linecap="round" stroke-linejoin="round"/></svg>