<svg fill="none" xmlns="http://www.w3.org/2000/svg" viewBox="0 0 53 23"><path d="M4.57 11.9h5.19v1.21H5.94v1.63H7.9c.35 0 .66.05.94.14a2 2 0 01.73.41c.2.18.36.4.47.66.11.26.17.56.17.9 0 .7-.2 1.23-.62 1.6-.4.37-.95.55-1.64.55H4.57v-7.1zm3.25 5.93c.33 0 .57-.09.74-.26.17-.18.25-.42.25-.73a1 1 0 00-.25-.71c-.17-.18-.41-.27-.74-.27H5.94v1.97h1.88zm6.55-3.64c-.07.91-.17 1.68-.3 2.3-.12.62-.3 1.12-.52 1.51-.22.38-.5.65-.82.82-.32.17-.72.25-1.2.25l-.08-1.24c.23-.02.43-.08.6-.17.17-.1.31-.28.43-.55.13-.27.24-.66.32-1.17.09-.51.17-1.2.24-2.04l.17-2h4.3V19h-1.37v-5.89h-1.68l-.09 1.08zm8.7 4.86a3.3 3.3 0 01-2.5-1.11 3.8 3.8 0 01-.7-3.85c.19-.43.43-.82.74-1.15a3.47 3.47 0 012.5-1.09 3.43 3.43 0 012.49 1.14 3.8 3.8 0 01.69 3.84 3.57 3.57 0 01-1.82 1.93c-.43.2-.9.29-1.4.29zm-2.05-3.6c0 .3.04.6.14.89a2.09 2.09 0 001.05 1.29c.26.13.55.2.88.2a1.86 1.86 0 001.53-.75 2.8 2.8 0 00.39-2.52c-.1-.29-.23-.54-.41-.76-.18-.22-.4-.4-.65-.52-.26-.13-.54-.2-.86-.2a1.9 1.9 0 00-1.54.75c-.18.22-.31.47-.4.76a2.9 2.9 0 00-.13.86zm11.93-2.34H30V19h-1.37v-7.1h4.33v1.21zm3.28 3.77l3.62-4.98h1.05V19h-1.37v-4.87L35.96 19h-1.1v-7.1h1.37v4.98zm8.58-2.06h.56l2.16-2.92h1.56l-2.55 3.43L49.32 19h-1.54l-2.28-2.94h-.7V19h-1.36v-7.1h1.37v2.92z" fill="#000"/><path d="M5 8l21.28-6.99a.1.1 0 01.07 0L48.5 8" stroke="#000" stroke-width="1.5" stroke-linecap="round"/></svg>