<svg fill="none" xmlns="http://www.w3.org/2000/svg" viewBox="0 0 16 16"><path fill-rule="evenodd" clip-rule="evenodd" d="M6.27 1.42C6.2.84 5.98.76 5.77.7L5.24.53a1.06 1.06 0 00-.88.16c-.35.23-1.32.75-1.77 2.28-.45 1.52.14 3.3.22 3.55.09.24.97 4.01 3.52 6.12 2.12 1.75 2.67 1.7 3.21 1.8.54.1 1.92-.25 2.38-.9.45-.65.63-1.27.6-1.42-.03-.15-.2-.29-.44-.53-.24-.24-1.43-1.4-1.67-1.59-.23-.18-.4-.28-.69-.03-.28.25-1.04.78-1.27.94-.23.16-.4.13-.64-.1-.24-.24-1.07-.84-1.85-2.22a9.66 9.66 0 01-.96-2.62c-.08-.36.12-.48.31-.6.17-.1.4-.27.6-.41.19-.14.27-.25.43-.43.16-.18.16-.37.14-.55-.03-.18-.13-1.87-.2-2.56z" fill="#D4D4D6"/></svg>