<svg fill="none" xmlns="http://www.w3.org/2000/svg" viewBox="0 0 117 103"><path opacity=".1" d="M32.33 64.7c5.68 0 10.07 1.84 13.2 5.53 3.4 3.4 5.1 7.94 5.1 13.62 0 6.24-1.99 11.06-5.96 14.47C41 101.44 35.6 103 28.51 103c-8.8 0-15.75-3.4-20.85-10.21C2.56 85.98 0 76.33 0 63.84 0 51.93 2.55 41 7.66 31.07 13.05 20.86 20.99 10.64 31.48.43c.29-.29.71-.43 1.28-.43.85 0 1.56.43 2.13 1.28.56.85.56 1.56 0 2.12-13.9 14.2-20.85 30.93-20.85 50.23 0 7.94 1.42 13.76 4.25 17.45 2.56-4.26 7.24-6.39 14.04-6.39zm66.38 0c5.67 0 10.07 1.84 13.19 5.53 3.4 3.4 5.1 7.94 5.1 13.62 0 6.24-1.98 11.06-5.96 14.47-3.68 3.12-9.07 4.68-16.16 4.68-8.8 0-15.75-3.4-20.85-10.21-5.1-6.81-7.66-16.46-7.66-28.95 0-11.91 2.55-22.84 7.66-32.77C79.42 20.86 87.36 10.64 97.85.43c.29-.29.71-.43 1.28-.43.85 0 1.56.43 2.13 1.28.56.85.56 1.56 0 2.12C87.36 17.6 80.4 34.33 80.4 53.63c0 7.94 1.42 13.76 4.26 17.45 2.55-4.26 7.23-6.39 14.04-6.39z" fill="#4770A0"/></svg>