<svg fill="none" xmlns="http://www.w3.org/2000/svg" viewBox="0 0 42 37"><path d="M11.4 22.8c2 0 3.55.65 4.65 1.95 1.2 1.2 1.8 2.8 1.8 4.8 0 2.2-.7 3.9-2.1 5.1-1.3 1.1-3.2 1.65-5.7 1.65a8.7 8.7 0 01-7.35-3.6C.9 30.3 0 26.9 0 22.5c0-4.2.9-8.05 2.7-11.55 1.9-3.6 4.7-7.2 8.4-10.8.1-.1.25-.15.45-.15.3 0 .55.15.75.45.2.3.2.55 0 .75-4.9 5-7.35 10.9-7.35 17.7 0 2.8.5 4.85 1.5 6.15.9-1.5 2.55-2.25 4.95-2.25zm23.4 0c2 0 3.55.65 4.65 1.95 1.2 1.2 1.8 2.8 1.8 4.8 0 2.2-.7 3.9-2.1 5.1-1.3 1.1-3.2 1.65-5.7 1.65a8.7 8.7 0 01-7.35-3.6c-1.8-2.4-2.7-5.8-2.7-10.2 0-4.2.9-8.05 2.7-11.55 1.9-3.6 4.7-7.2 8.4-10.8.1-.1.25-.15.45-.15.3 0 .55.15.75.45.2.3.2.55 0 .75-4.9 5-7.35 10.9-7.35 17.7 0 2.8.5 4.85 1.5 6.15.9-1.5 2.55-2.25 4.95-2.25z" fill="#4770A0"/></svg>