<svg width="32" height="32" fill="none" xmlns="http://www.w3.org/2000/svg"><path d="M0 16a16 16 0 1032 0 16 16 0 00-32 0z" fill="#F00073"/><path d="M16 9.45h3.28c.77 0 1.15.19 1.44.28.39.2.68.3.97.58a2 2 0 01.58.97c.1.29.19.67.28 1.44v6.56c0 .77-.19 1.15-.28 1.44-.2.39-.3.68-.58.97a2 2 0 01-.97.58c-.29.1-.67.19-1.44.28h-6.56c-.77 0-1.15-.19-1.44-.28-.39-.2-.68-.3-.97-.58a2 2 0 01-.58-.97c-.1-.29-.19-.67-.28-1.44V16v-3.28c0-.77.19-1.15.28-1.44.2-.39.3-.68.58-.97a2 2 0 01.97-.58c.29-.1.67-.19 1.44-.28H16zM16 8h-3.28a4.84 4.84 0 00-3.37 1.35c-.48.48-.68.87-.96 1.45-.2.48-.3 1.06-.39 1.92v6.56a4.84 4.84 0 001.35 3.37c.48.48.87.68 1.45.96.48.2 1.06.3 1.92.39h6.56a4.84 4.84 0 003.37-1.35c.48-.48.68-.87.96-1.45.2-.48.3-1.06.39-1.92V16v-3.28a4.84 4.84 0 00-1.35-3.37c-.48-.48-.87-.68-1.45-.96A7.46 7.46 0 0019.28 8H16z" fill="#fff"/><path d="M16 11.86A4.11 4.11 0 0011.86 16 4.11 4.11 0 0016 20.14 4.11 4.11 0 0020.14 16 4.11 4.11 0 0016 11.86zm0 6.84a2.7 2.7 0 110-5.4 2.7 2.7 0 012.7 2.7c0 1.45-1.25 2.7-2.7 2.7zM20.24 12.72a.96.96 0 100-1.92.96.96 0 000 1.92z" fill="#fff"/></svg>