<svg width="90" height="20" fill="none" xmlns="http://www.w3.org/2000/svg"><path d="M33.27 17l-.7-2.05h-4.42l-.7 2.05h-3.67l4.9-12.6h3.36L37.06 17h-3.79zm-1.53-4.77l-1.37-3.9-1.38 3.9h2.75zM37.75 17V3.77h3.32V17h-3.32zM42.8 17V3.77h3.31V17H42.8zM55.89 7.53H51.4v2.02h4.01v3.04h-4.01V17h-3.46V4.4h7.94v3.13zM61.83 17.32a5.42 5.42 0 01-3.89-1.45 4.98 4.98 0 01-1.52-3.73c0-1.51.5-2.75 1.52-3.73a5.42 5.42 0 013.89-1.45c1.57 0 2.86.49 3.87 1.47a4.9 4.9 0 011.53 3.71c0 1.5-.5 2.74-1.53 3.73a5.4 5.4 0 01-3.87 1.45zm-1.5-3.61c.4.4.9.6 1.5.6s1.1-.2 1.48-.6c.4-.41.59-.93.59-1.57s-.2-1.16-.6-1.57c-.37-.4-.86-.6-1.47-.6-.4 0-.77.09-1.09.28-.3.18-.55.44-.73.77-.18.33-.27.7-.27 1.12 0 .64.2 1.16.59 1.57zM73.25 17.32a5.42 5.42 0 01-3.9-1.45 4.98 4.98 0 01-1.5-3.73c0-1.51.5-2.75 1.5-3.73a5.42 5.42 0 013.9-1.45c1.57 0 2.86.49 3.87 1.47a4.9 4.9 0 011.53 3.71c0 1.5-.5 2.74-1.53 3.73a5.4 5.4 0 01-3.87 1.45zm-1.5-3.61c.4.4.9.6 1.5.6s1.1-.2 1.48-.6c.4-.41.59-.93.59-1.57s-.2-1.16-.6-1.57c-.37-.4-.87-.6-1.47-.6-.4 0-.77.09-1.1.28-.3.18-.54.44-.72.77-.18.33-.27.7-.27 1.12 0 .64.2 1.16.59 1.57zM86.72 3.77H90V17h-2.46l-.3-.72a4.4 4.4 0 01-2.91 1.04 4.87 4.87 0 01-3.64-1.45 5.1 5.1 0 01-1.43-3.73 5.1 5.1 0 011.43-3.73 4.87 4.87 0 013.64-1.45c.88 0 1.67.22 2.39.68V3.77zm-3.5 9.97c.42.42.94.63 1.55.63.62 0 1.13-.2 1.54-.63.41-.43.62-.96.62-1.6 0-.31-.06-.6-.18-.88a2.02 2.02 0 00-1.14-1.17 1.99 1.99 0 00-.84-.18c-.61 0-1.13.21-1.55.65-.4.42-.6.94-.6 1.58 0 .64.2 1.17.6 1.6zM15.68 0c-4.08-.24-6 7.46-6 7.46S8.61 1.71 4.83 1.78C2.6 1.82-.9 3.7.22 9.53c.73 3.76 3.3 6.43 5.59 8.14.08-.88.34-2.11.23-3-.12-.54-.45-.8-.8-1.16a2.5 2.5 0 01-.75-1.73l.01-.23.51-4.52h.42l-.15 4.77c0 .14.1.26.23.26h.08c.12 0 .22-.11.22-.25V7.03h.45v4.78c0 .14.1.25.23.25.12 0 .23-.11.23-.25V7.03h.4v4.75c0 .14.1.25.22.25h.1c.12 0 .22-.12.22-.26l-.13-4.74H8l.5 4.76v.15a2.53 2.53 0 01-.72 1.56c-.33.37-.69.75-.84 1.25-.09.89.18 2.12.24 2.97l.05.92c1.49.92 2.6 1.36 2.6 1.36s1.25-.41 2.88-1.54l.04-.53c.1-1.12.52-2.87.02-3.64-.9-.3-1.95-1.67-1.95-3.59 0-1.9.93-3.64 2.58-3.67h.04c1.65.03 2.58 1.77 2.58 3.67 0 1.92-1.04 3.28-1.95 3.59-.42.66-.17 2.06-.03 3.14a16.73 16.73 0 004.02-5.14C21.34 5.83 19.75.26 15.68.01z" fill="#31B768"/><path d="M11.88 9.27c0-.14.02-.22.02-.22s-.05.06-.1.19a4.75 4.75 0 00-.33 2.31 2.85 2.85 0 00.31.9 4.81 4.81 0 00.8 1.1c.1.08.17.1.17.1s-.06-.05-.11-.17l-.23-.5-.28-.71a4.58 4.58 0 01-.22-.81c-.08-.55-.05-1.18-.04-1.63l.01-.56z" fill="#31B768"/></svg>