<svg width="32" height="32" fill="none" xmlns="http://www.w3.org/2000/svg"><path d="M0 16a16 16 0 1032 0 16 16 0 00-32 0z" fill="#E60023"/><path d="M16.05 8A8.15 8.15 0 008 16.2a8.14 8.14 0 004.83 7.5c0-.62 0-1.24.1-1.85.2-.72 1-4.52 1-4.52s-.3-.5-.3-1.33c0-1.23.7-2.15 1.51-2.15.7 0 1.11.5 1.11 1.23 0 .71-.5 1.84-.7 2.87-.2.82.4 1.54 1.3 1.54 1.51 0 2.52-1.95 2.52-4.41 0-1.85-1.2-3.18-3.32-3.18a3.82 3.82 0 00-3.92 3.9c0 .71.2 1.23.5 1.64.1.2.2.2.1.4 0 .1-.1.52-.2.62-.1.2-.2.3-.4.2-1.11-.5-1.61-1.74-1.61-3.17 0-2.36 1.9-5.13 5.73-5.13 3.12 0 5.13 2.26 5.13 4.72 0 3.18-1.7 5.64-4.32 5.64-.91 0-1.71-.51-2.02-1.03l-.6 2.26c-.2.61-.5 1.23-.8 1.74A8.15 8.15 0 0024 15.8C24.1 11.7 20.48 8 16.05 8z" fill="#fff"/></svg>