<svg width="15" height="16" fill="none" xmlns="http://www.w3.org/2000/svg"><path d="M1.95 4.7c-.14.25-.27.52-.38.8l-.08.19a6.96 6.96 0 000 5.15 6.62 6.62 0 003.52 3.65c1.6.68 3.38.68 4.98 0 1.59-.69 2.86-2 3.52-3.65.65-1.65.65-3.5 0-5.15a6.62 6.62 0 00-4.38-3.95m-1.87-.7a.55.55 0 00-.3.3.58.58 0 000 .44c.06.13.16.24.3.3.13.06.28.06.41 0m-.41-1.04a.52.52 0 01.41 0c.13.06.24.17.3.3.05.14.05.3 0 .44a.55.55 0 01-.3.3m-.41-1.04l.41 1.04M2.52 3.12l5.2 4.55c.12.11.2.28.2.45a.6.6 0 01-.14.38M2.52 3.12l4.4 5.38c.1.13.26.2.43.2.17 0 .33-.07.43-.2M2.52 3.12L7.78 8.5" stroke="#01170A" stroke-linecap="round" stroke-linejoin="round"/></svg>