<svg fill="none" xmlns="http://www.w3.org/2000/svg" viewBox="0 0 28 28"><path d="M1.2 8.96a3.48 3.48 0 00-.8 2.33c.03.89.43 1.59.75 2.01-.38.95-.52 2.44.75 3.6.93.85 2.51 1.23 4.7 1.13 1.54-.07 2.83-.36 2.88-.37.3-.05.61-.12.93-.19.02.38-.04 1.3-.74 3.4-.82 2.5-.77 4.4.16 5.68A3.72 3.72 0 0012.8 28c.44 0 .84-.18 1.13-.52.65-.75.57-2.14.49-2.79.77-2.07 2.94-7.15 4.77-8.56a6.3 6.3 0 001.24-1.8c.35.18.74.28 1.16.28h3.57c1.35 0 2.44-1.09 2.44-2.43V2.66c0-1.34-1.1-2.43-2.44-2.43H21.6c-.52 0-1 .16-1.4.44L18.82.51c-.21-.03-3.96-.5-7.8-.43A26.2 26.2 0 009.05 0C8.01 0 7.1.08 6.33.25 4.53.63 3.32 1.39 2.7 2.5c-.47.85-.47 1.7-.4 2.24a3.73 3.73 0 00-1.08 4.21zm23.97-7.15c.48 0 .86.39.86.85v9.52c0 .48-.39.86-.86.86H21.6a.86.86 0 01-.85-.86V2.67c0-.47.38-.85.85-.85h3.57V1.8zM2.71 9.65c.24-.26.29-.65.1-.95 0-.01-.24-.42-.27-.98-.04-.77.33-1.45 1.1-2.03a.8.8 0 00.27-.9s-.25-.78.16-1.51c.4-.7 1.27-1.2 2.59-1.49 1.06-.23 2.5-.27 4.27-.13H11a57.8 57.8 0 017.61.42l.6.07c-.04.16-.05.34-.05.51v9.52c0 .26.04.5.1.73-.1.4-.4 1.27-1.08 2-2.63 2.1-5.2 9.13-5.31 9.43a.74.74 0 00-.04.4c.1.65.07 1.45-.07 1.7-.31-.02-1.15-.1-1.66-.8-.6-.83-.57-2.3.08-4.26.98-2.98 1.06-4.55.28-5.24-.38-.34-.9-.36-1.27-.23-.36.09-.7.16-1.02.21l-.08.02c-1.8.39-5.02.63-6.14-.39-.94-.87-.27-2.01-.2-2.14a.78.78 0 00-.14-1.02s-.62-.58-.65-1.36c-.02-.52.23-1.05.74-1.58z" fill="#000"/></svg>