<svg fill="none" xmlns="http://www.w3.org/2000/svg" viewBox="0 0 11 15"><path fill-rule="evenodd" clip-rule="evenodd" d="M4.27 1.42C4.2.84 3.98.76 3.77.7L3.24.53a1.06 1.06 0 00-.88.16C2 .92 1.03 1.44.58 2.97.13 4.49.72 6.27.8 6.52c.09.24.97 4.01 3.52 6.12 2.12 1.75 2.67 1.7 3.21 1.8.54.1 1.92-.25 2.38-.9.45-.65.63-1.27.6-1.42-.03-.15-.2-.29-.44-.53-.24-.24-1.43-1.4-1.67-1.59-.23-.18-.4-.28-.69-.03-.28.25-1.04.78-1.27.94-.23.16-.4.13-.64-.1-.24-.24-1.07-.84-1.85-2.22a9.66 9.66 0 01-.96-2.62c-.08-.36.12-.48.31-.6.17-.1.4-.27.6-.41.19-.14.27-.25.43-.43.16-.18.16-.37.14-.55-.03-.18-.13-1.87-.2-2.56z" fill="#D4D4D6"/></svg>