<svg fill="none" xmlns="http://www.w3.org/2000/svg" viewBox="0 0 25 25"><circle cx="11.73" cy="10.73" r="7.65" transform="rotate(2.3 11.73 10.73)" stroke="#fff" stroke-width="1.5"/><path d="M16.52 17.09l4.3 4.66" stroke="#fff" stroke-width="1.5" stroke-linecap="round" stroke-linejoin="round"/><path d="M14.19 9.96c.27 0 .5.23.5.5v.3a.5.5 0 01-.5.5h-1.63v1.8a.5.5 0 01-.5.5h-.44a.5.5 0 01-.5-.5v-1.8H9.5a.5.5 0 01-.5-.5v-.3c0-.27.22-.5.5-.5h1.62v-1.8c0-.28.23-.5.5-.5h.44c.28 0 .5.22.5.5v1.8h1.63z" fill="#fff"/></svg>