<svg fill="none" xmlns="http://www.w3.org/2000/svg" viewBox="0 0 25 25"><rect x=".5" y=".5" width="24" height="24" rx="3.5" stroke="#D4D4D6"/><path d="M18.35 14.55c1.2 1.17 1.46 1.74 1.5 1.81.5.87-.56.93-.56.93l-2 .04s-.44.08-1.01-.33c-.75-.53-1.78-1.94-2.34-1.76-.56.19-.38 1.66-.38 1.66s0 .18-.12.33c-.14.15-.41.1-.41.1h-.58s-2.15 0-3.9-1.9c-1.91-2.09-3.5-5.97-3.5-5.97s-.1-.25 0-.38c.12-.15.44-.15.44-.15h2.15s.2.03.35.14c.12.1.19.27.19.27s.26.72.72 1.56c.9 1.62 1.32 1.98 1.62 1.8.45-.25.31-2.3.31-2.3s.01-.74-.22-1.07c-.18-.26-.52-.33-.67-.35-.12-.02.08-.31.34-.44a4.7 4.7 0 011.88-.2h.87c.74.18.49.9.49 2.64 0 .56-.1 1.34.28 1.6.17.11.76.13 1.77-1.66.48-.85.86-1.65.86-1.65s.08-.18.2-.26c.13-.08.3-.08.3-.08l2.26.02s.68-.1.79.23c.12.34-.28.93-1.2 2.22-1.52 2.12-1.7 1.92-.43 3.15z" fill="#D4D4D6"/></svg>