<svg fill="none" xmlns="http://www.w3.org/2000/svg" viewBox="0 0 60 61"><path d="M35 53h-2v-9.8a1 1 0 10-2 0V53H5V33h8.32a1 1 0 100-2H4a1 1 0 00-1 1v21H1a1 1 0 00-1 1v2a5 5 0 005 5h26a5 5 0 005-5v-2a1 1 0 00-1-1zm-1 3a3 3 0 01-3 3h-2v-1a1 1 0 10-2 0v1H9v-1a1 1 0 10-2 0v1H5a3 3 0 01-3-3v-1h32v1zM52 7h2a1 1 0 100-2h-2a3 3 0 00-3 3v1h-1a1 1 0 100 2h1v3a1 1 0 102 0v-3h1a1 1 0 100-2h-1V8a1 1 0 011-1z" fill="#868686"/><path d="M57 1H45a3 3 0 00-3 3v2a1 1 0 102 0V4a1 1 0 011-1h12a1 1 0 011 1v12a1 1 0 01-1 1H45a1 1 0 01-1-1v-6a1 1 0 10-2 0v6a3 3 0 003 3h12a3 3 0 003-3V4a3 3 0 00-3-3zM47 41a4 4 0 108 0 4 4 0 00-8 0zm6 0a2 2 0 11-4 0 2 2 0 014 0z" fill="#868686"/><path d="M57 32H45a3 3 0 00-3 3v12a3 3 0 003 3h12a3 3 0 003-3v-2a1 1 0 10-2 0v2a1 1 0 01-1 1H45a1 1 0 01-1-1V35a1 1 0 011-1h12a1 1 0 011 1v6a1 1 0 102 0v-6a3 3 0 00-3-3zM22.47 12.85a1 1 0 00.98.04l6-3a1 1 0 000-1.78l-6-3A1 1 0 0022 6v6a1 1 0 00.47.85zM24 7.62L26.76 9 24 10.38V7.62z" fill="#868686"/><path d="M25 18a9 9 0 100-18 9 9 0 000 18zm0-16a7 7 0 110 14 7 7 0 010-14zm10 20a1 1 0 00.8-.4l3-4a1 1 0 10-1.6-1.2l-3 4A1 1 0 0035 22zm2.2 3.6a1 1 0 001.4.2l4-3a1 1 0 00-1.2-1.6l-4 3a1 1 0 00-.2 1.4zm9.8 2.2a1 1 0 00-1.2-.8l-5 1a1 1 0 10.2 2h.2l5-1a1 1 0 00.8-1.2zM1 28h12a1 1 0 001-1V11a1 1 0 00-1-1H1a1 1 0 00-1 1v16a1 1 0 001 1zm1-16h10v14H2V12z" fill="#868686"/><path d="M9 14H7a1 1 0 100 2h2a1 1 0 100-2zm0 4H5a1 1 0 100 2h4a1 1 0 100-2zm0 4H5a1 1 0 100 2h4a1 1 0 100-2zm25.12 5.7a1 1 0 00-1.74 1l4.41 7.63-16 6h-.15l-2.6 1.5-1.73 1a2 2 0 01-2.73-.73l-2-3.46a2 2 0 01.75-2.64l3.46-2 2.5 4.33a1 1 0 00.87.5 1 1 0 00.87-1.5l-2.58-4.46L30 24.52l.41.71a1 1 0 001.74-1l-1-1.73a1 1 0 00-.69-.48 1 1 0 00-.82.21l-14 11.54-4.26 2.46a4 4 0 00-1.84 4.53l-1 .57a3 3 0 001.5 5.6 3.06 3.06 0 001.5-.4l1-.57a3.88 3.88 0 002.8 1.18 3.94 3.94 0 002-.54l.87-.5 2 3.47a3 3 0 004.09 1.1 3 3 0 001.1-4.1l-1.82-3.17 15-5.63a1 1 0 00.52-1.43l-4.98-8.64zM10.5 44.79a1 1 0 01-.76.1 1 1 0 01-.61-.46 1 1 0 01.37-1.37l.87-.5 1 1.73-.87.5zm13.16 2.8a1 1 0 01.1.76 1 1 0 01-.47.6 1 1 0 01-1.36-.36l-2-3.47 1.66-.95h.08l1.99 3.42z" fill="#868686"/></svg>