<svg fill="none" xmlns="http://www.w3.org/2000/svg" viewBox="0 0 60 56"><path d="M10.07 23h13.86c.6 0 1.07-.45 1.07-1s-.48-1-1.07-1H10.07c-.6 0-1.07.45-1.07 1s.48 1 1.07 1zM36 26H10a1 1 0 100 2h26a1 1 0 100-2zm0 7H10a1 1 0 100 2h26a1 1 0 100-2z" fill="#868686"/><path d="M54.07.07L19.93 0A5.99 5.99 0 0014 6.03v5.21l-8.07.02A5.99 5.99 0 000 17.29v21.5a5.99 5.99 0 005.93 6.02H12v10.17c0 .42.25.8.64.95a.99.99 0 001.1-.26l9.7-10.86 16.63-.07c3.27 0 5.93-2.7 5.93-6.03v-.11l5.26 5.88a1 1 0 001.1.27c.39-.15.64-.53.64-.95V33.63h1.07c3.27 0 5.93-2.7 5.93-6.03V6.1A5.99 5.99 0 0054.07.07zM44 38.71c0 2.2-1.76 4-3.93 4L23 42.78a1 1 0 00-.74.33L14 52.35V43.8a1 1 0 00-1-1.02H5.93a3.97 3.97 0 01-3.93-4v-21.5c0-2.2 1.76-3.99 3.93-3.99l9.07-.02 25.07-.05c2.17 0 3.93 1.79 3.93 4v21.5zM58 27.6c0 2.2-1.76 4-3.93 4H52a1 1 0 00-1 1.01v8.56l-5-5.6V17.23a5.99 5.99 0 00-5.93-6.03L16 11.24V6.03c0-2.2 1.76-4 3.93-4l34.14.07c2.17 0 3.93 1.8 3.93 4v21.5z" fill="#868686"/></svg>