<svg fill="none" xmlns="http://www.w3.org/2000/svg" viewBox="0 0 61 61"><path d="M60.02 29.52h-.99v-6.08c0-2.06-.8-3.99-2.25-5.44a7.65 7.65 0 00-5.45-2.26h-1.15v-1.06a7.87 7.87 0 10-7.88 0v1.06h-1.15c-2.05 0-3.99.8-5.44 2.26a7.65 7.65 0 00-2.26 5.44v6.08h-1.97v-2.96a.98.98 0 00-.98-.98h-2.95v-.34c0-2.87.97-5.58 2.74-7.79.37.16.77.26 1.2.26a2.96 2.96 0 002.94-2.95 2.96 2.96 0 00-2.95-2.95 2.96 2.96 0 00-2.95 2.95c0 .48.13.92.33 1.32a14.31 14.31 0 00-3.28 9.16v.34h-2.95a.98.98 0 00-.99.98v2.96h-.98a.98.98 0 00-.98.98v3.94c0 .54.44.98.98.98h.98v5.9a4.92 4.92 0 00-4.92 4.92 4.9 4.9 0 001.67 3.67 7.91 7.91 0 00-3.63 3.35 7.92 7.92 0 00-3.64-3.35 4.9 4.9 0 001.67-3.67 4.92 4.92 0 00-4.92-4.92 4.92 4.92 0 00-4.92 4.92 4.9 4.9 0 001.67 3.67A7.88 7.88 0 000 57.06v2.95c0 .54.44.98.98.98h41.33c.54 0 .98-.44.98-.98v-.99h14.76c.54 0 .98-.44.98-.98V35.42h.99c.54 0 .98-.44.98-.98V30.5a.98.98 0 00-.98-.98zM31.48 13.77a.98.98 0 010 1.97.98.98 0 010-1.97zm25.58 9.67v6.08H55.1v-3.94h-1.97v3.94h-5.9v-7.27l2.5 1.26a.97.97 0 00.82.03.99.99 0 00.56-.6l1.68-5.04a5.7 5.7 0 012.6 1.49 5.7 5.7 0 011.67 4.05zM42.8 17.71l1.95 2.6-1.87.93-1.17-3.53h1.09zm6.89 0h1.1l-1.19 3.53-1.86-.93 1.95-2.6zM46.24 1.97c2.9 0 5.3 2.09 5.8 4.84a8.45 8.45 0 01-4.93-2.42l-.17-.17a1.01 1.01 0 00-1.4 0l-.16.17a8.44 8.44 0 01-4.94 2.42 5.9 5.9 0 015.8-4.84zM40.41 8.8a10.38 10.38 0 005.83-2.52 10.39 10.39 0 005.83 2.52 5.91 5.91 0 01-5.83 4.97 5.91 5.91 0 01-5.83-4.97zm5.83 6.94c.68 0 1.34-.1 1.97-.26v.92l-1.97 2.62-1.97-2.62v-.92c.63.17 1.3.26 1.97.26zm-10.82 7.7c0-1.53.6-2.97 1.68-4.05a5.7 5.7 0 012.6-1.49l1.67 5.04a.99.99 0 001.38.57l2.5-1.26v7.27h-5.9v-3.94H37.4v3.94h-1.97v-6.08zm-11.8 4.1h5.9v1.98h-5.9v-1.97zm-4.93 18.7a2.96 2.96 0 012.95-2.95 2.96 2.96 0 012.96 2.95 2.96 2.96 0 01-2.96 2.95 2.96 2.96 0 01-2.95-2.95zm-13.77 0a2.96 2.96 0 012.95-2.95 2.96 2.96 0 012.95 2.95 2.96 2.96 0 01-2.95 2.95 2.96 2.96 0 01-2.95-2.95zM1.97 57.06a5.91 5.91 0 015.9-5.9 5.91 5.91 0 015.9 5.9v1.97H1.97v-1.97zm13.77 0a5.91 5.91 0 015.9-5.9 5.91 5.91 0 015.9 5.9v1.97h-11.8v-1.97zm25.58 1.97h-11.8v-1.97a5.91 5.91 0 015.9-5.9 5.91 5.91 0 015.9 5.9v1.97zm-8.85-12.79a2.96 2.96 0 012.95-2.95 2.96 2.96 0 012.95 2.95 2.96 2.96 0 01-2.95 2.95 2.96 2.96 0 01-2.95-2.95zm24.6 10.82H43.28c0-3.18-1.9-5.92-4.62-7.16a4.9 4.9 0 001.67-3.66 4.92 4.92 0 00-4.92-4.92 4.92 4.92 0 00-4.92 4.92 4.9 4.9 0 001.67 3.67 7.91 7.91 0 00-3.64 3.35 7.92 7.92 0 00-3.63-3.35 4.9 4.9 0 001.66-3.67 4.92 4.92 0 00-2.95-4.5v-6.32h33.45v21.64zm1.96-23.6H21.64v-1.98h37.4v1.97zM2.95 19.67H18.7a2.96 2.96 0 002.95-2.95v-1.56l3.65-3.65a.98.98 0 000-1.4l-3.64-3.64V4.92a2.96 2.96 0 00-2.96-2.95H2.95A2.96 2.96 0 000 4.92v11.8a2.96 2.96 0 002.95 2.96zM1.97 4.92c0-.54.44-.98.98-.98H18.7c.55 0 .99.44.99.98v1.97a.98.98 0 00.29.7l3.24 3.23-3.24 3.24a.98.98 0 00-.3.7v1.97a.98.98 0 01-.98.98H2.95a.98.98 0 01-.98-.98V4.92z" fill="#868686"/><path d="M3.94 5.9H17.7v1.97H3.93V5.9zm0 7.87H17.7v1.97H3.93v-1.97zM5.9 9.84h9.84v1.97H5.9V9.84z" fill="#868686"/></svg>