<svg fill="none" xmlns="http://www.w3.org/2000/svg" viewBox="0 0 59 61"><path d="M54.96 57.94c0 .57-.45 1.02-1.01 1.02H43.77v-3.48a7.16 7.16 0 00-5.25-6.89l-5.95-1.62v-1.54a7.14 7.14 0 003.05-5.83v-1.93l.46-.22a1.02 1.02 0 00.56-.91v-6.12l5.46-2.1a1.02 1.02 0 000-1.9l-13.23-5.1a1.03 1.03 0 00-.73 0l-13.24 5.1a1.02 1.02 0 00-.65.95v4.67L11.5 34.8l1.43 1.44 1.32-1.32v1.62h2.04v-1.62l1.31 1.32 1.44-1.44-2.75-2.76v-3.2l4.07 1.58v6.12a1.02 1.02 0 00.56.92l.45.21v1.93a7 7 0 003.06 5.83v1.54l-5.95 1.62a7.16 7.16 0 00-5.25 6.89v3.48H3.05a1.02 1.02 0 01-1.01-1.02V18.2h28.5v-2.04H2.04v-5.1c0-.56.45-1.01 1.01-1.01h27.49V8H3.05A3.06 3.06 0 000 11.06v46.88A3.06 3.06 0 003.05 61h50.9A3.06 3.06 0 0057 57.94v-37.7h-2.04v37.7zm-28.5-10.19v-1.32a6.92 6.92 0 004.08 0v1.32c0 .3.13.57.35.76l-2.39 2-2.4-2a1 1 0 00.36-.76zm2.04-24.39l10.4 4-10.4 4.01-10.4-4 10.4-4zm-.36 10.05c.23.1.49.1.73 0l5.74-2.2v4.68a17.45 17.45 0 01-6.11 1.67 17.49 17.49 0 01-6.1-1.67V31.2l5.74 2.21zM23.4 39.6v-1.1a15.86 15.86 0 005.09 1.1 15.86 15.86 0 005.09-1.1v1.1a5.1 5.1 0 01-2.55 4.4 5.08 5.08 0 01-5.1 0 4.8 4.8 0 01-1.04-.8 5.03 5.03 0 01-1.49-3.6zm-8.14 15.88a5.12 5.12 0 013.75-4.92l4.8-1.3 4.03 3.35c.38.32.92.32 1.3 0l4.03-3.36 4.8 1.3a5.12 5.12 0 013.75 4.93v3.48h-3.05v-4.08h-2.04v4.08H20.36v-4.08h-2.04v4.08h-3.05v-3.48z" fill="#868686"/><path d="M6 13h2v2H6v-2zm5 0h2v2h-2v-2zm4 0h2v2h-2v-2zM56 0H36a3 3 0 00-3 3v12a3 3 0 003 3h3v4a1 1 0 001.78.63l3.7-4.63H56a3 3 0 003-3V3a3 3 0 00-3-3zm1 15a1 1 0 01-1 1H44a1 1 0 00-.78.38L41 19.14V17a1 1 0 00-1-1h-4a1 1 0 01-1-1V3a1 1 0 011-1h20a1 1 0 011 1v12z" fill="#868686"/><path d="M39 4h15v2H39V4zm0 4h15v2H39V8zm0 5h15v2H39v-2z" fill="#868686"/></svg>