<svg width="13" height="13" fill="none" xmlns="http://www.w3.org/2000/svg"><path d="M10.935 0h-9.12A1.78 1.78 0 000 1.814v9.122a1.78 1.78 0 001.814 1.814h9.121a1.78 1.78 0 001.815-1.814V1.814A1.78 1.78 0 0010.935 0zm-4.56 10.2c2.109 0 3.825-1.667 3.825-3.678 0-.343-.05-.735-.147-1.03h1.079v5.198c0 .246-.197.49-.49.49H2.108a.491.491 0 01-.49-.49V5.443h1.127a3.733 3.733 0 00-.147 1.03C2.55 8.533 4.266 10.2 6.375 10.2zm0-1.471c-1.373 0-2.452-1.079-2.452-2.403s1.079-2.403 2.452-2.403 2.452 1.079 2.452 2.403c0 1.373-1.079 2.403-2.452 2.403zm4.708-5.247c0 .294-.245.54-.54.54H9.17a.544.544 0 01-.54-.54V2.158c0-.295.246-.54.54-.54h1.373c.295 0 .54.245.54.54v1.324z" fill="#979899"/></svg>