<svg width="130" height="30" fill="none" xmlns="http://www.w3.org/2000/svg"><path d="M20.625 15H30c0-8.284-6.717-15-15-15C6.717 0 0 6.716 0 15v15h15c8.283 0 15-6.715 15-15h-9.375v4.377a1.872 1.872 0 01-1.875 1.873h-7.5a1.876 1.876 0 01-1.875-1.873v-5.456a1.871 1.871 0 01.625-1.41l3.75-3.284a1.876 1.876 0 012.5 0L20 12.51a1.872 1.872 0 01.625 1.404V15z" fill="#F85A47"/><path d="M19.375 15v-1.085a.622.622 0 00-.212-.468l-3.75-3.277a.625.625 0 00-.825 0l-3.75 3.277a.625.625 0 00-.213.468v5.462a.624.624 0 00.625.625h1.25V16.88a1.872 1.872 0 011.875-1.872h1.25A1.876 1.876 0 0117.5 16.88v3.122h1.25a.625.625 0 00.625-.625V15z" fill="#F85A47"/><path d="M13.75 16.88v3.122h2.5V16.88a.624.624 0 00-.625-.624h-1.25a.625.625 0 00-.625.624zM40 24.693V5h4.752v7.905h9.838V5h4.782v19.693H54.59v-8.185h-9.838v8.185H40zM70.743 25c-1.645 0-3.077-.298-4.295-.894-1.198-.614-2.132-1.471-2.802-2.57-.65-1.098-.975-2.411-.975-3.938 0-1.509.325-2.812.975-3.91.67-1.1 1.604-1.947 2.802-2.543 1.218-.596 2.65-.894 4.295-.894s3.076.298 4.294.894c1.219.596 2.153 1.444 2.803 2.542.67 1.099 1.005 2.402 1.005 3.91 0 1.528-.335 2.84-1.005 3.94-.65 1.098-1.584 1.955-2.803 2.57-1.218.595-2.65.893-4.294.893zm0-3.184c1.056 0 1.888-.345 2.497-1.034.63-.689.945-1.75.945-3.184 0-1.434-.315-2.486-.945-3.157-.609-.67-1.441-1.005-2.497-1.005-1.056 0-1.899.335-2.528 1.005-.61.67-.914 1.723-.914 3.157s.304 2.495.913 3.184c.63.69 1.473 1.034 2.529 1.034zM87.42 25c-1.93 0-3.361-.484-4.295-1.453-.934-.986-1.401-2.476-1.401-4.469v-8.547h4.6v8.547c0 .894.192 1.555.578 1.983.406.429 1.025.643 1.858.643.914 0 1.665-.289 2.254-.866.61-.596.914-1.387.914-2.374V10.53h4.6v14.162H92.05v-2.71h.426a5.336 5.336 0 01-2.01 2.235c-.873.521-1.889.782-3.046.782zM99.86 24.693v-2.738l9.199-9.273v1.005H99.86v-3.156h13.341v2.765l-9.32 9.358-.031-1.09h9.656v3.129H99.86zM123.939 25c-1.787 0-3.321-.298-4.6-.894-1.279-.596-2.254-1.443-2.924-2.542-.67-1.117-1.005-2.43-1.005-3.938 0-1.471.315-2.756.944-3.855a6.819 6.819 0 012.681-2.57c1.157-.633 2.507-.95 4.051-.95 1.523 0 2.792.298 3.807.894a5.568 5.568 0 012.315 2.514c.528 1.062.792 2.3.792 3.715v.978h-10.813v-2.095h7.462l-.517.391c0-1.173-.264-2.058-.792-2.654-.508-.614-1.249-.921-2.224-.921-.731 0-1.35.167-1.858.502-.487.317-.863.792-1.127 1.425-.244.614-.365 1.378-.365 2.29v.447c0 1.379.365 2.403 1.096 3.073.751.67 1.828 1.006 3.229 1.006.832 0 1.614-.093 2.345-.28a7.689 7.689 0 002.132-.95l1.28 2.794c-.772.521-1.665.922-2.681 1.201-.995.28-2.071.419-3.228.419z" fill="#F85A47"/></svg>