<svg width="14" height="14" fill="none" xmlns="http://www.w3.org/2000/svg"><path d="M14 2.158A2.155 2.155 0 0010.318.633L8.351 2.599 3.808 1.088a.7.7 0 00-.7.168L1.442 2.907a.7.7 0 00.203 1.127l3.626 1.645-1.82 1.82-1.197-.603a.7.7 0 00-.812.105L.204 8.268a.7.7 0 000 .987l4.542 4.541a.7.7 0 00.987 0L7 12.559a.7.7 0 00.133-.812l-.602-1.197 1.82-1.82 1.645 3.626a.7.7 0 001.127.203l1.652-1.652a.7.7 0 00.168-.7l-1.512-4.541 1.939-1.981A2.134 2.134 0 0014 2.158zm-1.624.54l-2.268 2.267a.7.7 0 00-.168.7l1.512 4.534-.63.63-1.645-3.618a.7.7 0 00-1.134-.203L5.16 9.92a.7.7 0 00-.133.805L5.6 11.9l-.392.392-3.52-3.527L2.1 8.4l1.197.602a.7.7 0 00.805-.133L7 5.958a.7.7 0 00-.203-1.133L3.15 3.18l.63-.63 4.536 1.512a.7.7 0 00.7-.168l2.268-2.267a.748.748 0 011.071 0 .7.7 0 01.224.531.743.743 0 01-.203.54z" fill="#fff"/></svg>