<svg width="14" height="14" fill="none" xmlns="http://www.w3.org/2000/svg"><path d="M13.511 5.656a2.1 2.1 0 00-1.61-.756H8.709L9.1 3.899A2.89 2.89 0 006.378 0a.7.7 0 00-.638.413L3.745 4.9H2.1A2.1 2.1 0 000 7v4.9A2.1 2.1 0 002.1 14h8.912a2.1 2.1 0 002.065-1.722l.89-4.9a2.1 2.1 0 00-.456-1.722zM3.501 12.6H2.1a.7.7 0 01-.7-.7V7a.7.7 0 01.7-.7h1.4v6.3zm9.1-5.474l-.889 4.9a.7.7 0 01-.7.574H4.9V5.747l1.905-4.284a1.477 1.477 0 01.966 1.946L7.4 4.41A1.4 1.4 0 008.709 6.3H11.9a.7.7 0 01.54.252.701.701 0 01.16.574z" fill="#F1A316"/></svg>