<svg width="12" height="14" fill="none" xmlns="http://www.w3.org/2000/svg"><path d="M8.842 2.048c-.556 0-1.102.167-1.579.485C6.917 1.65 6.31.924 5.542.478a3.45 3.45 0 00-2.5-.395C2.195.273 1.43.78.876 1.522A4.513 4.513 0 000 4.157V6.97c0 .996.318 1.96.896 2.72.578.76 1.38 1.269 2.262 1.435v2.172c0 .186.066.365.185.497.118.132.279.206.446.206a.601.601 0 00.447-.206.746.746 0 00.185-.497v-2.172a3.67 3.67 0 001.756-.886c.225.403.522.75.871 1.022.35.272.745.462 1.163.56v1.476c0 .186.066.365.185.497.118.132.279.206.446.206a.601.601 0 00.447-.206.746.746 0 00.185-.497v-1.476c.713-.162 1.354-.594 1.814-1.222.46-.627.712-1.413.712-2.223V5.564c0-.933-.333-1.827-.925-2.486-.592-.66-1.395-1.03-2.233-1.03zM5.684 5.564v2.812c.006.134.019.268.038.4a2.51 2.51 0 01-1.301.914V7.673a.745.745 0 00-.185-.497.6.6 0 00-.447-.206.6.6 0 00-.446.206.745.745 0 00-.185.497v2.01a2.524 2.524 0 01-1.363-.997 3.021 3.021 0 01-.532-1.716V4.157a3.045 3.045 0 01.423-1.566 2.608 2.608 0 011.134-1.04c.462-.213.97-.27 1.461-.161.491.108.942.377 1.296.77.342.387.575.875.67 1.407a3.798 3.798 0 00-.563 1.997zm5.053 2.812c-.001.435-.123.859-.35 1.214a1.93 1.93 0 01-.913.768V7.673a.745.745 0 00-.185-.497.6.6 0 00-.447-.206.6.6 0 00-.446.206.745.745 0 00-.185.497v2.685a1.93 1.93 0 01-.914-.768 2.276 2.276 0 01-.35-1.214V5.564c0-.56.2-1.096.555-1.492a1.803 1.803 0 011.34-.618c.503 0 .985.223 1.34.618.355.396.555.932.555 1.492v2.812z" fill="#fff"/></svg>