<svg width="16" height="16" fill="none" xmlns="http://www.w3.org/2000/svg"><path d="M10.97 8.567a4.796 4.796 0 001.647-2.419 4.772 4.772 0 00-.07-2.92A4.8 4.8 0 0010.785.889a4.842 4.842 0 00-5.596 0 4.8 4.8 0 00-1.76 2.339 4.772 4.772 0 00-.07 2.92 4.796 4.796 0 001.645 2.42 8.035 8.035 0 00-3.41 2.582 7.971 7.971 0 00-1.59 3.958.8.8 0 00.173.59.81.81 0 001.435-.414 6.385 6.385 0 012.105-4.055 6.451 6.451 0 014.286-1.628c1.582 0 3.108.58 4.287 1.628a6.385 6.385 0 012.105 4.055.798.798 0 00.803.711h.089a.805.805 0 00.707-.88 7.971 7.971 0 00-1.599-3.966 8.035 8.035 0 00-3.425-2.582zM7.989 8a3.228 3.228 0 01-1.787-.54 3.202 3.202 0 01-1.184-1.434 3.182 3.182 0 01.697-3.486 3.221 3.221 0 013.505-.693c.587.242 1.09.652 1.443 1.178a3.185 3.185 0 01-.4 4.038c-.603.6-1.421.937-2.274.937z" fill="#979899"/></svg>