<svg width="55" height="24" fill="none" xmlns="http://www.w3.org/2000/svg"><path fill-rule="evenodd" clip-rule="evenodd" d="M8.66.14a.5.5 0 0 1 .68 0l8.5 8a.5.5 0 0 1-.13.81l-8.5 4a.5.5 0 0 1-.42 0l-8.5-4a.5.5 0 0 1-.13-.81l8.5-8ZM1.38 8.36 9 11.95l7.62-3.59L9 1.19 1.38 8.36ZM.12 11.18a.5.5 0 0 1 .6-.13L9 14.95l8.29-3.9a.5.5 0 0 1 .62.74l-8.5 12a.5.5 0 0 1-.82 0l-8.5-12a.5.5 0 0 1 .03-.61ZM2 12.76l7 9.87 6.98-9.87-6.78 3.2a.5.5 0 0 1-.42 0L2 12.75Zm21.97-5.85V18h5.23v-1.23h-3.79v-3.99h3.2v-1.2h-3.2V8.14h3.54V6.91h-4.98ZM34.26 9.6h-2.12V7.1l-1.37.24v7.97c0 1.03.19 1.76.57 2.21.4.44.99.66 1.78.66.49 0 .95-.13 1.4-.39l-.28-1.1a1.8 1.8 0 0 1-.94.27c-.36 0-.64-.11-.85-.34-.2-.23-.3-.64-.3-1.21v-4.63h2.1V9.6Zm1.42-3.78V18h1.38v-7.2c.38-.1.73-.16 1.04-.16.59 0 .99.2 1.2.58.21.38.32.99.32 1.82V18H41v-5.07c0-.67-.07-1.23-.21-1.68-.13-.46-.31-.82-.55-1.09a1.8 1.8 0 0 0-.8-.56c-.3-.12-.64-.18-.99-.18a4.29 4.29 0 0 0-1.39.23V5.58l-1.38.24Zm7.5 1.1V18h5.23v-1.23h-3.8v-3.99h3.2v-1.2h-3.2V8.14h3.54V6.91h-4.97Zm10.24 7.69-.56-1.06 2.06-3.95h-1.34l-1.46 2.85-1.44-2.85h-1.4l2.07 3.98-.57 1.06a54.27 54.27 0 0 0-1.14 2.27c-.17.38-.31.74-.43 1.09h1.31c.21-.62.45-1.2.72-1.76.28-.57.55-1.1.82-1.58.27.49.55 1.01.83 1.58.29.55.54 1.14.75 1.76H55a17.18 17.18 0 0 0-1-2.26c-.18-.38-.38-.76-.58-1.13Z" fill="#555"/></svg>