<svg width="20" height="20" fill="none" xmlns="http://www.w3.org/2000/svg"><path d="M6.289 16.233c.342 0 .62.284.62.634 0 .35-.278.633-.62.633a.626.626 0 01-.62-.633c0-.35.277-.634.62-.634zM15.412 16.233c.342 0 .62.284.62.634 0 .35-.278.633-.62.633a.627.627 0 01-.62-.633c0-.35.278-.634.62-.634z" fill="#0D0417" stroke="#0D0417" stroke-linecap="round" stroke-linejoin="round"/><path d="M2.5 2.5l1.686.298.781 9.509c.064.775.697 1.37 1.457 1.37h8.848c.726 0 1.342-.546 1.447-1.282l.77-5.435c.094-.67-.414-1.27-1.076-1.27H4.457M11.723 8.753h2.249" stroke="#0D0417" stroke-linecap="round" stroke-linejoin="round"/></svg>
