<svg width="20" height="20" fill="none" xmlns="http://www.w3.org/2000/svg"><path clip-rule="evenodd" d="M9.817 17.378A29.033 29.033 0 014.8 13.471a9.992 9.992 0 01-2.388-3.808c-.897-2.788.15-5.979 3.082-6.923a4.982 4.982 0 014.52.761 4.99 4.99 0 014.521-.761c2.931.944 3.986 4.135 3.09 6.923a9.991 9.991 0 01-2.39 3.808 29.03 29.03 0 01-5.017 3.907l-.196.122-.204-.122z" stroke="#DE012C" stroke-linecap="round" stroke-linejoin="round"/><path d="M13.133 5.878a2.318 2.318 0 011.597 2.018" stroke="#DE012C" stroke-linecap="round" stroke-linejoin="round"/></svg>