<svg width="213" height="48" viewBox="0 0 213 48" fill="none" xmlns="http://www.w3.org/2000/svg">
<g clip-path="url(#clip0)">
<path fill-rule="evenodd" clip-rule="evenodd" d="M23.0369 3.9564L23.0314 3.94016C23.0238 3.93157 22.9378 3.78709 22.7734 3.50672C22.6128 3.2241 22.4941 3.01178 22.4172 2.86976C22.3413 2.72468 22.2869 2.63956 22.2543 2.6144C22.2186 2.58842 22.0149 2.33199 21.6432 1.84512C21.2737 1.36212 20.9334 0.996887 20.6223 0.749418C20.3112 0.501948 19.9892 0.32543 19.6565 0.219862C19.3238 0.114294 19.0247 0.0669674 18.7592 0.0778812C18.4937 0.088795 18.2103 0.135935 17.909 0.219302L17.457 0.344352L17.4049 0.35501L17.3528 0.365669L17.3399 0.376987L17.3237 0.382482L17.3075 0.387976L17.2946 0.399295L17.2817 0.410613L17.2655 0.416107L17.2492 0.421602L17.2363 0.43292L17.1842 0.443578L17.1322 0.454237L17.1193 0.465556L17.103 0.47105L17.0868 0.476545L17.0739 0.487863L17.2515 0.56006L17.4291 0.632258L17.6526 0.716763L17.8761 0.801268L18.0537 0.873465L18.2313 0.945663L18.1792 0.956322L18.1271 0.96698L18.075 0.977639L18.0229 0.988298L18.01 0.999616L17.9938 1.00511L17.9775 1.01061L17.9647 1.02192L17.9126 1.03258L17.8605 1.04324L17.532 1.16691C17.3138 1.24629 17.2006 1.30129 17.1924 1.33191C17.1842 1.36253 17.1014 1.4142 16.9441 1.48692C16.7837 1.55881 16.4812 1.78135 16.0366 2.15453C15.592 2.5277 15.2597 2.84894 15.0399 3.11824C14.82 3.38753 14.6062 3.7569 14.3983 4.22634C14.1905 4.69578 14.0137 5.26379 13.8679 5.93037C13.7221 6.59695 13.6321 7.14719 13.5979 7.5811C13.5637 8.01501 13.544 8.2723 13.5388 8.35296L13.531 8.47394L13.5293 8.57196L13.5277 8.66998L13.539 8.68286L13.5445 8.6991L13.4067 8.66218L13.3669 8.62691L13.3271 8.59163L13.3216 8.57539L13.3103 8.56251L13.299 8.54963L13.2935 8.53339L13.2537 8.49812L13.214 8.46284L13.2085 8.4466L13.1971 8.43372L13.1858 8.42084C13.1822 8.41002 13.1469 8.3579 13.08 8.26449C13.0154 8.17497 12.9429 8.00457 12.8625 7.75329L12.742 7.37638L12.7313 7.32429L12.7207 7.2722L12.7094 7.25932L12.7039 7.24308L12.6984 7.22684L12.687 7.21396L12.6825 7.13891L12.678 7.06386L12.6674 7.01177L12.6567 6.95968L12.3905 8.04526C12.2129 8.76898 12.0993 9.46879 12.0495 10.1447C11.9996 10.8206 12.0045 11.4454 12.0641 12.0194C12.1236 12.5933 12.23 13.1272 12.3832 13.6212C12.5402 14.1129 12.7191 14.5662 12.9197 14.981C13.1204 15.3957 13.3472 15.7437 13.6 16.0248C13.8529 16.3059 14.2059 16.581 14.6589 16.85C15.112 17.1191 15.3815 17.3259 15.4675 17.4704C15.5496 17.6171 15.6008 17.7752 15.621 17.9448C15.6412 18.1143 15.6467 18.247 15.6374 18.343L15.6234 18.4869L15.6156 18.6079L15.6078 18.7289L15.624 18.7234L15.6369 18.7121L15.6498 18.7008L15.666 18.6953L15.6823 18.6898L15.6952 18.6785L15.708 18.6672L15.7243 18.6617L15.7405 18.6562L15.7534 18.6448L15.7663 18.6335L15.7825 18.628L15.7988 18.6225L15.8116 18.6112L15.8245 18.5999L15.8408 18.5944L15.857 18.5889L15.8699 18.5776L15.8828 18.5663L15.899 18.5608L15.9152 18.5553C15.9238 18.5477 16.0475 18.466 16.2862 18.3101C16.5257 18.1511 16.6616 18.0726 16.6939 18.0747C16.7269 18.0737 16.7565 18.0554 16.7825 18.0197C16.8076 17.987 16.8363 17.9717 16.8686 17.9738C16.9017 17.9728 16.9312 17.9545 16.9572 17.9188C16.9823 17.8861 17.011 17.8709 17.0433 17.8729C17.0764 17.872 17.1253 17.8424 17.1901 17.7843C17.2541 17.7292 17.3023 17.7027 17.3345 17.7048C17.3676 17.7038 17.3971 17.6855 17.4231 17.6498C17.4483 17.6171 17.477 17.6019 17.5092 17.6039C17.5423 17.603 17.5719 17.5846 17.5978 17.5489C17.623 17.5163 17.7488 17.4449 17.9752 17.3349C18.2024 17.2219 18.5181 17.0111 18.9224 16.7026L19.5255 16.234L19.5608 16.1943L19.5961 16.1545L19.6314 16.1147L19.6666 16.0749L19.6829 16.0694L19.6958 16.0581L19.7086 16.0468L19.7249 16.0413L19.7601 16.0015L19.7954 15.9617L19.8061 16.0138L19.8167 16.0659L19.795 16.3309C19.7805 16.5075 19.7686 16.6438 19.7593 16.7397L19.7453 16.8837L19.7222 17.0252L19.6944 17.1655L19.7863 17.1901L19.8078 17.1466L19.8339 17.1044L19.8691 17.0646L19.9044 17.0248L19.9397 16.985L19.975 16.9452L20.0102 16.9055C20.0338 16.8789 20.3139 16.5684 20.8507 15.9737C21.3874 15.3791 21.8395 14.7946 22.2067 14.2201C22.5739 13.6457 22.9137 12.9901 23.226 12.2533C23.5383 11.5164 23.8319 10.6351 24.1068 9.60926C24.3817 8.58342 24.5675 7.70604 24.6644 6.97712C24.7612 6.2482 24.7874 5.72187 24.7429 5.39814C24.6983 5.07441 24.6421 4.87391 24.5742 4.79663C24.5024 4.7216 24.2901 4.31354 23.9373 3.57244L23.4139 2.45742L23.4026 2.44454L23.3971 2.4283L23.3916 2.41206L23.3803 2.39918L23.3689 2.3863L23.3635 2.37006L23.358 2.35382L23.3466 2.34094L23.3353 2.32806L23.3298 2.31182L23.3243 2.29558L23.313 2.2827L23.3017 2.26982L23.2962 2.25358L23.2907 2.23734L23.2794 2.22446L23.2779 2.17483L23.281 2.12644L23.1892 2.10182L23.1861 2.15022L23.1875 2.19984L23.1982 2.25193L23.2088 2.30402L23.2195 2.3561L23.2302 2.40819L23.2264 2.97334C23.2239 3.35011 23.2001 3.62271 23.155 3.79113L23.0873 4.04376L23.076 4.03088L23.0705 4.01464L23.065 3.9984L23.0537 3.98552L23.0424 3.97264L23.0369 3.9564ZM44.2512 19.3146L44.2467 19.2396C44.2437 19.1896 44.1895 18.8714 44.084 18.2852C43.9785 17.699 43.8469 17.1796 43.6892 16.7271C43.5314 16.2746 43.5315 16.017 43.6895 15.9543C43.8452 15.8877 44.0579 15.902 44.3278 15.9973C44.5968 16.0957 44.7273 16.1109 44.7192 16.0431C44.7142 15.9761 44.6549 15.8913 44.5412 15.7887C44.4315 15.6838 44.147 15.5698 43.6876 15.4467C43.2283 15.3236 42.8026 15.2588 42.4105 15.2522C42.0184 15.2456 41.5793 15.292 41.0932 15.3915C40.607 15.491 40.1543 15.6372 39.735 15.8301C39.3135 16.0191 39.1335 15.9988 39.1951 15.7691C39.2566 15.5394 39.3825 15.2532 39.5729 14.9103C39.7632 14.5675 39.8393 14.3876 39.8011 14.3709C39.7668 14.3518 39.6317 14.3845 39.3957 14.469C39.1598 14.5535 38.8589 14.7272 38.493 14.9902C38.1272 15.2532 37.741 15.6043 37.3345 16.0435C36.9302 16.4865 36.5547 16.957 36.208 17.4549C35.8612 17.9527 35.5901 18.4134 35.3946 18.8369L35.1013 19.4722L35.085 19.4777L35.0722 19.489L35.0593 19.5003L35.043 19.5058L35.0385 19.4307L35.034 19.3557L35.0357 19.2577L35.0373 19.1597L35.0513 19.0157C35.0606 18.9197 35.0678 18.8314 35.0731 18.7508C35.0783 18.6701 35.1429 18.3674 35.2671 17.8428L35.4534 17.0557L35.5149 16.8261L35.4987 16.8316L35.4858 16.8429L35.4729 16.8542L35.4567 16.8597L35.4214 16.8995L35.3861 16.9393L35.3699 16.9448L35.357 16.9561L35.3441 16.9674L35.3279 16.9729L35.2926 17.0127L35.2573 17.0524L35.2221 17.0922L35.1868 17.132L34.7327 17.7242C34.43 18.119 34.1313 18.6215 33.8365 19.2317C33.5417 19.842 33.2856 20.5528 33.0681 21.3643C32.8507 22.1758 32.7221 22.9619 32.6824 23.7225C32.6427 24.4832 32.6687 25.3353 32.7605 26.2788C32.8523 27.2224 32.9585 28.1124 33.079 28.9488C33.1995 29.7852 33.2616 30.3188 33.2654 30.5495C33.2692 30.7803 33.2685 30.936 33.2633 31.0167L33.2555 31.1376L33.1694 31.4592L33.1581 31.4463L33.1526 31.43L33.1471 31.4138L33.1358 31.4009L33.1244 31.388L33.119 31.3718L33.1135 31.3556L33.1021 31.3427L33.0908 31.3298L33.0853 31.3136L33.0798 31.2973L33.0685 31.2844L33.0572 31.2716L33.0517 31.2553L33.0462 31.2391L33.0349 31.2262L33.0242 31.1741L33.0136 31.122L33.0022 31.1092L32.9968 31.0929L32.9913 31.0767C32.9837 31.0681 32.954 31.0076 32.902 30.8952L32.8241 30.7267L32.8135 30.6746L32.8028 30.6225L32.7915 30.6096L32.786 30.5934L32.7805 30.5771L32.7692 30.5642L32.7585 30.5122L32.7479 30.4601L32.7365 30.4472L32.731 30.4309L32.7256 30.4147L32.7142 30.4018L32.7029 30.3889L32.6974 30.3727L32.6919 30.3565L32.6806 30.3436L32.6437 30.4814L32.655 30.4943L32.6605 30.5105L32.666 30.5267L32.6773 30.5396L32.6886 30.5525L32.6941 30.5687L32.6996 30.585L32.7109 30.5979L32.7216 30.65L32.7323 30.702L32.8495 31.275C32.9277 31.657 32.9662 31.8806 32.9651 31.946C32.964 32.0113 32.9342 32.1838 32.8756 32.4635L32.7878 32.8831L32.7992 32.896L32.8047 32.9122L32.8102 32.9285L32.8215 32.9413L32.8377 32.9358L32.8506 32.9245L33.1447 32.9295C33.3407 32.9328 33.5745 32.979 33.846 33.0682C34.1175 33.1573 34.3578 33.2709 34.5669 33.409C34.7761 33.5471 35.1027 33.6757 35.5467 33.7946C35.9907 33.9136 36.3878 33.9626 36.7381 33.9416C37.0883 33.9205 37.4369 33.863 37.7838 33.7688C38.1284 33.6708 38.4156 33.5787 38.6455 33.4926C38.8722 33.4057 38.9897 33.3469 38.9979 33.3163C39.0061 33.2857 39.1083 33.2228 39.3045 33.1277C39.5037 33.0334 39.8312 32.8093 40.287 32.4556C40.7429 32.1018 41.2177 31.6465 41.7115 31.0896C42.2054 30.5326 42.6456 29.9614 43.0323 29.3758C43.4189 28.7901 43.6798 28.3677 43.8149 28.1085C43.95 27.8493 44.0355 27.6835 44.0713 27.6111L44.125 27.5024L44.1787 27.3937L44.2325 27.285L44.2694 27.1472L44.2532 27.1527L44.2403 27.1641L44.2274 27.1754L44.2112 27.1809L44.1759 27.2206L44.1406 27.2604L44.1244 27.2659L44.1115 27.2772L44.0986 27.2886L44.0824 27.294L44.0661 27.2995L44.0533 27.3109L44.0404 27.3222L44.0241 27.3277L44.0079 27.3332L43.995 27.3445L43.9821 27.3558L43.9659 27.3613L43.9497 27.3668L43.9368 27.3781L43.9239 27.3894C43.9131 27.3931 43.7947 27.4795 43.5689 27.6488L43.2301 27.9026L43.2138 27.9081L43.201 27.9194L43.1881 27.9307L43.1718 27.9362L43.1366 27.976L43.1013 28.0158L43.0851 28.0213L43.0722 28.0326L43.0593 28.0439L43.0431 28.0494L43.0268 28.0549L43.0139 28.0662L43.001 28.0775L42.9848 28.083L42.9686 28.0885L42.9557 28.0998L42.9061 28.1013L42.8577 28.0982L42.8853 28.0318L42.9176 27.9666L42.9651 27.8808L43.0127 27.7951L43.0665 27.6864C43.1023 27.614 43.2103 27.364 43.3905 26.9364C43.5707 26.5087 43.7731 25.9066 43.9977 25.1298C44.2222 24.353 44.3921 23.6273 44.5072 22.9525C44.6224 22.2777 44.7091 21.464 44.7675 20.5114L44.8549 19.0826L44.8504 19.0075L44.8459 18.9325L44.8414 18.8574L44.8369 18.7824L44.7955 18.8451L44.7541 18.9078L44.7065 18.9936L44.6589 19.0793L44.6175 19.142C44.5899 19.1838 44.5464 19.2542 44.487 19.3532L44.398 19.5017L44.3719 19.5439L44.3504 19.5874L44.2586 19.5628L44.2617 19.5144L44.2602 19.4648L44.2557 19.3897L44.2512 19.3146ZM12.3336 17.9008L12.2475 18.2224L12.1938 18.331L12.14 18.4397L12.1047 18.4795L12.0695 18.5193L12.0582 18.5064L12.0527 18.4902L12.0472 18.4739L12.0358 18.461L12.0245 18.4482L12.019 18.4319L12.0135 18.4157L12.0022 18.4028L11.9916 18.3507L11.9809 18.2986L11.9696 18.2857L11.9641 18.2695L11.9586 18.2533L11.9473 18.2404L11.936 18.2275L11.9305 18.2113L11.925 18.195L11.9137 18.1821L11.9023 18.1693C11.8987 18.1584 11.8579 18.0655 11.7801 17.8904L11.6693 17.6244L11.6579 17.6115L11.6525 17.5952L11.647 17.579L11.6356 17.5661L11.6243 17.5532L11.6188 17.537L11.6133 17.5208L11.602 17.5079L11.5907 17.495L11.5852 17.4788L11.5797 17.4625L11.5684 17.4496L11.5571 17.4368L11.5516 17.4205L11.5461 17.4043L11.5348 17.3914L11.5241 17.3393L11.5134 17.2872L11.5021 17.2743L11.4966 17.2581L11.4911 17.2419L11.4798 17.229L11.4552 17.3208L11.4659 17.3729L11.4765 17.425L11.4872 17.4771L11.4978 17.5292L11.5085 17.5813L11.5192 17.6334L11.6101 18.3962C11.6708 18.9048 11.6764 19.374 11.6268 19.8038C11.5773 20.2336 11.4254 20.9231 11.171 21.8724C10.9166 22.8217 10.6938 23.5004 10.5023 23.9086C10.3109 24.3168 10.1157 24.6288 9.91675 24.8446C9.72003 25.0643 9.519 25.2205 9.31366 25.3132C9.10832 25.4059 8.97297 25.4517 8.90762 25.4506L8.8096 25.4489L8.48807 25.3627L8.42286 25.3305L8.35643 25.3029L8.38104 25.211L8.4524 25.2203L8.525 25.2249L8.57708 25.2143C8.61181 25.2072 8.6736 25.1909 8.76246 25.1655L8.89576 25.1274L8.94784 25.1167L8.99993 25.1061L9.01281 25.0947L9.02905 25.0892L9.04529 25.0837L9.05817 25.0724L8.97246 25.0248L8.88675 24.9773L8.61115 24.9034L8.24204 24.903C7.99596 24.9027 7.76648 24.9446 7.55359 25.0287C7.34458 25.1105 7.1307 25.2534 6.91195 25.4574C6.6932 25.6613 6.52448 25.8623 6.4058 26.0602C6.28712 26.2581 6.18826 26.5352 6.10921 26.8915C6.03016 27.2478 5.98908 27.4501 5.98596 27.4985L5.97668 27.5698L5.40498 27.4068C5.02466 27.295 4.71052 27.1813 4.46254 27.0657C4.21456 26.95 3.82072 26.705 3.28103 26.3306C2.74134 25.9563 2.25223 25.5462 1.8137 25.1005C1.37518 24.6548 1.06196 24.2804 0.874037 23.9773C0.683875 23.6704 0.54711 23.3663 0.463744 23.0649L0.338694 22.613L0.355949 22.273C0.831958 22.453 1.31019 22.6267 1.79504 22.7817C1.7008 22.5031 1.34517 22.1924 1.03819 21.9242C0.901542 21.8048 0.774534 21.6939 0.684518 21.5979L1.67944 22.1107C1.62267 21.9429 1.44334 21.761 1.27662 21.592C1.1819 21.4959 1.09125 21.404 1.02946 21.3211C0.800086 21.0135 0.602107 20.6684 0.43552 20.2857C0.265049 19.9052 0.144835 19.5087 0.0748751 19.0961C0.00491563 18.6835 -0.0160187 18.2595 0.0120712 17.8239C0.0370989 17.3875 0.094725 17.1847 0.18495 17.2155C0.274355 17.2493 0.325168 17.1086 0.337389 16.7935L0.369614 15.9751L0.46148 15.9997C0.466112 16.0206 0.470941 16.0426 0.475974 16.0655C0.624282 16.7398 0.950506 18.223 1.68386 18.4195C1.53685 18.1649 1.46133 17.9178 1.37684 17.6414C1.37053 17.6208 1.36416 17.5999 1.35772 17.5789C1.2627 17.2843 1.18692 16.8751 1.13037 16.3512C1.07381 15.8274 1.07045 15.2275 1.12027 14.5516C1.17009 13.8757 1.2817 13.1836 1.45511 12.4752C1.62852 11.7668 1.80478 11.2314 1.9839 10.8692L2.40598 10.1207C2.42193 10.1714 2.43675 10.2349 2.45265 10.3029C2.49231 10.4728 2.53865 10.6713 2.62575 10.7704L2.72257 10.5009C2.78711 10.3213 2.89663 10.0963 3.05114 9.82589C3.20564 9.55549 3.40197 9.31271 3.64014 9.09755C3.8783 8.88239 4.19302 8.68775 4.5843 8.51362L5.17121 8.25242L5.18745 8.24692L5.20033 8.2356L5.25242 8.22494L5.30451 8.21428L5.35659 8.20363L5.40868 8.19297L5.42156 8.18165L5.4378 8.17616L5.45404 8.17066L5.46692 8.15934L5.51655 8.15787L5.56494 8.16099L5.54345 8.20446L5.51736 8.2467L5.42835 8.39516C5.36901 8.49413 5.32553 8.56453 5.29791 8.60636L5.25648 8.66911L5.21956 8.80691L5.2358 8.80142L5.24868 8.7901L5.30077 8.77944L5.35285 8.76878L5.42791 8.76427L5.50296 8.75977L6.10954 8.70076C6.51393 8.66143 6.82535 8.66282 7.04381 8.70495C7.26227 8.74707 7.4162 8.78503 7.5056 8.81883L7.64094 8.86495L7.62373 8.65356C7.61308 8.50958 7.6705 8.47902 7.79599 8.56187C7.92148 8.64473 8.22441 8.92282 8.70476 9.39615C9.18511 9.86948 9.65466 10.4138 10.1134 11.029C10.5721 11.6442 10.9525 12.2335 11.2545 12.7969C11.5526 13.3625 11.8038 13.9681 12.0083 14.6136C12.2127 15.2592 12.3397 15.8266 12.3891 16.3157C12.4386 16.8049 12.4561 17.1377 12.4416 17.3144C12.4271 17.491 12.3911 17.6865 12.3336 17.9008ZM31.753 31.695L31.7132 31.6597C31.6867 31.6362 31.6342 31.5565 31.5557 31.4206C31.4772 31.2847 31.3696 31.0557 31.2327 30.7335C31.0998 30.409 31.0048 29.7715 30.9477 28.8208C30.8906 27.8701 30.8053 27.117 30.6916 26.5614C30.5779 26.0058 30.4429 25.5725 30.2867 25.2615C30.1343 24.9482 29.9219 24.6567 29.6496 24.3868C29.3773 24.1169 29.0126 23.8551 28.5555 23.6013C28.0984 23.3475 27.5962 23.1392 27.0491 22.9762C26.5021 22.8131 26.3002 22.6967 26.4437 22.6268C26.5832 22.5592 26.3924 22.4752 25.8711 22.375C25.346 22.2769 24.714 22.1371 23.9749 21.9555C23.2359 21.7739 22.8135 21.6476 22.7078 21.5766C22.6044 21.5095 22.5573 21.4279 22.5666 21.332C22.5759 21.236 22.6914 21.1849 22.9129 21.1786C23.1376 21.1732 23.254 21.1551 23.2622 21.1245C23.2704 21.0939 22.9095 20.879 22.1795 20.4799C21.4504 20.0778 20.8964 19.8178 20.5178 19.6999C20.1391 19.582 19.6598 19.5028 19.0799 19.4623L18.21 19.4016L18.112 19.3999L18.014 19.3983L17.9619 19.4089L17.9098 19.4196L17.9725 19.461L18.0353 19.5024L18.121 19.55L18.2067 19.5976L18.2695 19.639L18.3322 19.6804L18.2571 19.685L18.1821 19.6895L17.5878 19.7025C17.1916 19.7112 16.7867 19.7833 16.373 19.9186C15.9593 20.0539 15.5346 20.2486 15.0989 20.5027C15.0989 20.5027 14.3133 20.9913 14.0557 21.2176C13.7981 21.444 13.5236 21.7643 13.2321 22.1785C12.9406 22.5927 12.5978 23.1983 12.2037 23.9953C11.8097 24.7922 11.5298 25.3162 11.3641 25.5672L11.0741 26.0064L11.0326 26.0692L10.9974 26.109L10.9621 26.1487L10.9207 26.2115L10.8792 26.2742L10.863 26.2797L10.8501 26.291L10.8042 26.2787L10.7987 26.2625L10.7874 26.2496L10.8382 25.9679L10.8891 25.6861L10.8969 25.5651L10.9047 25.4441L10.851 25.5528L10.7973 25.6615L10.7558 25.7242L10.7144 25.787L10.4209 26.0923C10.2291 26.2937 9.9876 26.4784 9.6964 26.6465C9.40519 26.8146 8.84535 27.0667 8.01687 27.4026C7.18838 27.7386 6.57407 28.0286 6.17393 28.2725C5.76991 28.5187 5.41149 28.7968 5.09868 29.1069C4.78586 29.4169 4.50927 29.7448 4.26891 30.0907C4.02854 30.4366 3.83766 30.8121 3.69627 31.2173C3.55488 31.6225 3.46503 32.0497 3.42671 32.4989C3.38839 32.9481 3.40011 33.3943 3.46187 33.8375C3.52362 34.2808 3.62032 34.7038 3.75196 35.1067C3.87972 35.5118 4.02206 35.8502 4.17898 36.122C4.3359 36.3938 4.473 36.5864 4.59029 36.6999C4.70757 36.8134 4.91262 36.9668 5.20544 37.1601C5.49825 37.3535 5.74663 37.5595 5.95058 37.7782C6.15453 37.997 6.25834 38.1118 6.262 38.1226L6.27332 38.1355L6.28464 38.1484L6.29013 38.1646L6.29563 38.1809L6.30695 38.1937L6.31826 38.2066L6.32376 38.2229L6.36354 38.2581L6.40332 38.2934L6.40881 38.3096L6.42013 38.3225L6.43145 38.3354L6.43694 38.3516L6.44244 38.3679L6.45375 38.3808L6.46507 38.3936L6.47057 38.4099L6.56243 38.4345L6.55694 38.4183L6.54562 38.4054L6.5343 38.3925L6.52881 38.3763L6.52331 38.36L6.51199 38.3471L6.50134 38.2951L6.49068 38.243L6.48002 38.1909L6.46936 38.1388L6.45804 38.1259L6.45255 38.1097L6.44705 38.0934L6.43574 38.0806L6.42507 38.0285C6.41797 37.9937 6.40171 37.9319 6.37629 37.8431L6.33816 37.7098L6.3275 37.6577L6.31684 37.6056L6.30618 37.5535L6.29552 37.5014L6.2842 37.4886L6.27871 37.4723L6.27321 37.4561L6.2619 37.4432L6.28651 37.3513L6.29783 37.3642L6.30332 37.3805L6.3431 37.4157L6.38288 37.451L6.42266 37.4863L6.46244 37.5216L6.50222 37.5568L6.542 37.5921L7.10671 37.965C7.48319 38.2135 7.69999 38.3537 7.75713 38.3854C7.81427 38.4171 7.97299 38.4678 8.23328 38.5376L8.62371 38.6422L8.56096 38.6008L8.49822 38.5593L8.4125 38.5118L8.32679 38.4642L8.26405 38.4228C8.22222 38.3951 8.11409 38.3087 7.93966 38.1635L7.67802 37.9457L7.67252 37.9295L7.66121 37.9166L7.64989 37.9037L7.64439 37.8875L7.60215 37.8614L7.55868 37.8399L7.5618 37.7915L7.56033 37.7419L7.54967 37.6898L7.53901 37.6377L7.54369 37.5651L7.55297 37.4938L7.59644 37.5153L7.63868 37.5413L7.70143 37.5828L7.76417 37.6242L8.70929 38.2861C9.33713 38.7234 9.84947 39.2611 10.2463 39.8991C10.6393 40.5394 11.0391 41.111 11.4459 41.6138C11.8527 42.1167 12.2662 42.5639 12.6865 42.9554C13.1067 43.347 13.4805 43.6359 13.8081 43.8221C14.1356 44.0084 14.5694 44.1656 15.1094 44.2939C15.6494 44.4222 16.1154 44.4896 16.5075 44.4962C16.8995 44.5028 17.165 44.4919 17.3039 44.4635L17.5644 44.4102L17.6165 44.3995L17.6293 44.3882L17.6456 44.3827L17.6618 44.3772L17.6747 44.3659L17.7268 44.3552L17.7789 44.3446L17.7917 44.3332L17.808 44.3277L17.8242 44.3223L17.8371 44.3109L17.85 44.2996L17.8662 44.2941L17.8825 44.2886L17.8954 44.2773L17.9082 44.266L17.9245 44.2605L17.9597 44.2207L17.995 44.1809L18.0113 44.1754L18.0241 44.1641L17.8863 44.1272L17.8113 44.1317L17.7362 44.1362L17.6841 44.1469L17.6321 44.1575L17.557 44.162C17.507 44.165 17.4146 44.1731 17.2798 44.1862C17.145 44.1993 16.8459 44.152 16.3824 44.0442L15.6873 43.8826L15.7623 43.8781L15.8374 43.8736L15.9124 43.8691L15.9875 43.8646L16.0396 43.8539L16.0917 43.8432L17.0399 43.7035C17.672 43.6103 18.2373 43.491 18.7358 43.3456C19.2342 43.2002 19.7215 43.0353 20.1975 42.8511C20.6736 42.6668 21.3227 42.4797 22.1448 42.2898C22.967 42.0998 23.4205 41.9998 23.5053 41.9897C23.59 41.9796 23.6498 41.971 23.6845 41.9639L23.7366 41.9532L23.8116 41.9487L23.8867 41.9442L23.9388 41.9335L23.9908 41.9229L24.0429 41.9122L24.095 41.9016L24.1079 41.8903L24.1241 41.8848L24.0995 41.9766L24.0833 41.9821L24.0704 41.9934L24.0575 42.0048L24.0413 42.0102L24.006 42.05L23.9707 42.0898L23.9355 42.1296L23.9002 42.1694L23.6578 42.5229C23.4962 42.7585 23.3713 42.9795 23.2833 43.1856C23.1952 43.3918 23.1184 43.6173 23.0527 43.8623L22.9543 44.2298L22.9895 44.19L23.0248 44.1502L23.0601 44.1104L23.0954 44.0706L23.1306 44.0309L23.1659 43.9911L23.1821 43.9856L23.195 43.9743L23.2079 43.963L23.2241 43.9575L23.2594 43.9177C23.2829 43.8912 23.3608 43.8333 23.493 43.744C23.6214 43.6569 23.8733 43.5374 24.2489 43.3853C24.6283 43.2309 25.0668 43.1253 25.5646 43.0683C26.0645 43.0152 26.608 43.0262 27.1951 43.1015C27.7821 43.1767 28.2236 43.213 28.5198 43.2103C28.8159 43.2075 29.1319 43.161 29.468 43.0705C29.804 42.98 30.0495 42.8784 30.2044 42.7657C30.3571 42.649 30.5122 42.4805 30.6697 42.2602C30.8272 42.0398 30.9752 41.702 31.1136 41.2468C31.252 40.7916 31.331 40.4353 31.3507 40.178L31.3803 39.7921L31.385 39.7195L31.3942 39.6481L31.4377 39.6696L31.4799 39.6957L31.5825 39.7724C31.6508 39.8236 31.6983 39.8609 31.7248 39.8844L31.7645 39.9197L31.77 39.9359L31.7814 39.9488L31.8306 39.7651L31.8261 39.69C31.8231 39.64 31.813 39.5552 31.7958 39.4357L31.7699 39.2565L31.7654 39.1815L31.7609 39.1064L31.7978 38.9686L31.8092 38.9815L31.8147 38.9977L31.8544 39.033L31.8942 39.0683L31.8997 39.0845L31.911 39.0974L31.9224 39.1103L31.9278 39.1265L31.9333 39.1428L31.9447 39.1556L31.956 39.1685L31.9615 39.1848L31.967 39.201L31.9783 39.2139L32.0752 39.3482C32.1421 39.4416 32.1888 39.5 32.2153 39.5235L32.2551 39.5588L32.2606 39.5751L32.2719 39.5879L32.2832 39.6008L32.2887 39.6171L32.2942 39.6333L32.3055 39.6462L32.3168 39.6591L32.3223 39.6753L32.3278 39.6915L32.3392 39.7044L32.4684 39.2221C32.5545 38.9006 32.6075 38.6112 32.6272 38.3539C32.6469 38.0966 32.6382 37.7004 32.601 37.1653C32.5639 36.6303 32.4711 36.0885 32.3227 35.54C32.1743 34.9915 31.9345 34.2758 31.6033 33.3928L31.1123 32.0649L31.1068 32.0487L31.0955 32.0358L31.0842 32.0229L31.0787 32.0067L31.0732 31.9904L31.0619 31.9775L31.0512 31.9254L31.0405 31.8734L31.0292 31.8605L31.0237 31.8442L31.0182 31.828L31.0069 31.8151L30.9956 31.8022L30.9901 31.786L31.157 31.8061C31.2683 31.8195 31.4102 31.8411 31.5827 31.8709L31.8415 31.9157L31.8936 31.905L31.9457 31.8943L31.9059 31.8591L31.8661 31.8238L31.8606 31.8076L31.8493 31.7947L31.838 31.7818L31.8325 31.7656L31.7927 31.7303L31.753 31.695ZM36.6494 11.0254L36.697 10.9397L36.7477 10.8056L36.7938 10.6703L36.8856 10.6949L36.5593 12.0598C36.3387 12.9688 36.0927 13.7153 35.8215 14.299C35.5502 14.8827 35.2821 15.3934 35.0171 15.8311C34.7521 16.2689 34.6058 16.5086 34.5782 16.5505L34.5367 16.6132L34.4953 16.676L34.4539 16.7387L34.4125 16.8014L34.371 16.8642L34.345 16.9064L34.3235 16.9499L34.3718 16.953L34.4215 16.9516L34.4344 16.9402L34.4506 16.9347L34.4859 16.895L34.5211 16.8552L34.5374 16.8497L34.5503 16.8384L34.5631 16.8271L34.5794 16.8216L34.6147 16.7818L34.6499 16.742L34.6662 16.7365L34.6791 16.7252L34.9596 16.505C35.1466 16.3582 35.2444 16.281 35.253 16.2734L35.2693 16.2679L35.3045 16.2282L35.3398 16.1884L35.3561 16.1829L35.3689 16.1716L35.3818 16.1603L35.3981 16.1548L35.4143 16.1493L35.4272 16.1379L35.4401 16.1266L35.4563 16.1211L35.4885 16.0559L35.5162 15.9895L35.608 16.0141L35.5866 16.0576L35.5605 16.0998L35.519 16.1626L35.4776 16.2253L35.4362 16.2881L35.3948 16.3508L35.3472 16.4365C35.3154 16.4937 35.2326 16.6191 35.0986 16.813C34.9646 17.0068 34.6389 17.3955 34.1216 17.9789C33.6042 18.5623 33.1371 19.0197 32.7201 19.3511C32.3031 19.6824 32.0236 19.8865 31.8816 19.9633C31.7365 20.0393 31.6598 20.0926 31.6516 20.1232C31.6434 20.1539 31.624 20.1651 31.5934 20.1569C31.5628 20.1486 31.5403 20.159 31.526 20.188C31.5086 20.2162 31.4503 20.2498 31.3512 20.2889C31.2491 20.3272 31.1939 20.3616 31.1857 20.3922C31.1775 20.4229 31.1336 20.4521 31.0539 20.48C30.9711 20.507 30.6455 20.6446 30.0768 20.8927C29.5105 21.1446 29.2157 21.3872 29.1925 21.6206L29.1636 21.9674L29.159 22.0399L29.1497 22.1113L29.0373 22.0713L28.9262 22.0268L28.8175 21.9731C28.745 21.9372 28.3206 21.684 27.5441 21.2134C26.7677 20.7428 26.1172 20.3223 25.5928 19.9521C25.0685 19.5818 24.6666 19.2444 24.3872 18.9398C24.1078 18.6352 23.8507 18.2594 23.616 17.8125C23.3851 17.3634 23.2159 16.9111 23.1082 16.4556L22.9467 15.7723L22.9422 15.6972L22.9376 15.6222L22.927 15.5701L22.9163 15.518L22.9533 15.3802L22.9646 15.3931L22.9701 15.4093L22.9756 15.4256L22.9869 15.4384L22.9982 15.4513L23.0037 15.4676L23.0092 15.4838L23.0205 15.4967L23.0318 15.5096L23.0373 15.5258L23.0428 15.542L23.0541 15.5549L23.0654 15.5678L23.0709 15.584L23.0764 15.6003L23.0878 15.6132L23.0991 15.626L23.1046 15.6423L23.1847 15.7474C23.2404 15.8214 23.272 15.8627 23.2795 15.8713L23.285 15.8876L23.2905 15.9038L23.3018 15.9167L23.3131 15.9295L23.3186 15.9458L23.3241 15.962L23.3354 15.9749L23.3468 15.9878L23.3523 16.004L23.3578 16.0203L23.3691 16.0332L23.3804 16.046L23.3859 16.0623L23.3914 16.0785L23.4027 16.0914L23.414 16.1043L23.4195 16.1205L23.5114 16.1451L23.5059 16.1289L23.4946 16.116L23.4839 16.0639L23.4732 16.0118L23.4626 15.9597L23.4519 15.9077L23.4413 15.8556L23.4306 15.8035L23.4199 15.7514C23.4128 15.7167 23.3892 15.4068 23.3491 14.8216C23.3089 14.2365 23.3386 13.7276 23.4382 13.2947C23.5378 12.8619 23.6336 12.5348 23.7258 12.3133C23.8179 12.0919 24.06 11.648 24.4518 10.9817L25.0396 9.9823L25.081 9.91955L25.1225 9.8568L25.1639 9.79406L25.2053 9.73131L25.2314 9.68907L25.2529 9.6456L25.1611 9.62098L25.1396 9.66446L25.1135 9.7067L25.0972 9.71219L25.0843 9.72351L25.0715 9.73483L25.0552 9.74032L25.039 9.74582L25.0261 9.75714L25.0132 9.76845L24.997 9.77395L24.9617 9.81373L24.9264 9.85351L24.9102 9.859C24.9016 9.86655 24.8661 9.89479 24.8038 9.94372L24.7103 10.0171L24.6974 10.0284L24.6812 10.0339L24.6459 10.0737L24.6106 10.1135L24.5944 10.119L24.5815 10.1303L24.5686 10.1416L24.5524 10.1471L24.5171 10.1869L24.4818 10.2267L24.4656 10.2322L24.4527 10.2435L24.4398 10.2548L24.4236 10.2603L24.5097 9.93878L25.1591 8.70968C25.592 7.89029 25.9874 7.24137 26.3453 6.76292C26.7033 6.28447 26.9819 5.94887 27.1813 5.75613C27.3806 5.56339 27.492 5.45376 27.5155 5.42724L27.5508 5.38746L27.567 5.38196L27.5799 5.37065L27.5928 5.35933L27.609 5.35383L27.6443 5.31405L27.6796 5.27427L27.6958 5.26878L27.7087 5.25746L27.7216 5.24614L27.7378 5.24065L27.7541 5.23516L27.767 5.22384L27.7798 5.21252L27.7961 5.20702L27.8084 5.16109L27.7971 5.14821L27.7916 5.13197L27.7861 5.11573L27.7748 5.10285L27.7585 5.10835L27.7456 5.11966L27.7328 5.13098L27.7165 5.13648L27.7003 5.14197L27.6874 5.15329L27.6353 5.16395L27.5832 5.17461L27.5703 5.18592L27.5541 5.19142L27.5379 5.19691C27.5293 5.20446 27.486 5.21911 27.4079 5.24087L27.2875 5.26768L27.2713 5.27317L27.2584 5.28449L27.2063 5.29515L27.1542 5.30581L27.1413 5.31713L27.1251 5.32262L27.1089 5.32812L27.096 5.33943L27.0041 5.31482L27.017 5.3035L27.0332 5.29801L27.0495 5.29251L27.0624 5.28119L27.0752 5.26988L27.0915 5.26438L27.1268 5.2246L27.162 5.18482L27.1783 5.17933L27.1911 5.16801L27.204 5.15669L27.2203 5.1512L27.2555 5.11142L27.2908 5.07164L27.3071 5.06615L27.3199 5.05483L27.3328 5.04351L27.3491 5.03801L27.9735 4.67363C28.392 4.43459 28.8505 4.24236 29.3489 4.09695C29.8474 3.95153 30.3197 3.87296 30.7659 3.86125C31.2121 3.84953 31.6384 3.88169 32.0447 3.95774C32.451 4.03378 32.8582 4.16752 33.2664 4.35894C33.6746 4.55037 34.0142 4.75295 34.2851 4.96667C34.5569 5.17734 34.6886 5.29798 34.6804 5.3286C34.6722 5.35922 34.5194 5.34781 34.2219 5.29436C33.9253 5.23785 33.897 5.36156 34.1372 5.66552C34.3752 5.96558 34.6078 6.33477 34.8349 6.77308C35.0621 7.21139 35.2336 7.64299 35.3495 8.06789C35.4654 8.49279 35.5266 8.96868 35.5331 9.49556C35.5397 10.0224 35.5141 10.5161 35.4563 10.9765C35.3986 11.4369 35.3099 11.9334 35.1902 12.4658C35.0727 13.0022 35.068 13.2405 35.1759 13.1808C35.2815 13.1172 35.4366 12.9487 35.6411 12.6753C35.8457 12.4019 36.0569 12.0728 36.2749 11.6882C36.4928 11.3035 36.6177 11.0826 36.6494 11.0254ZM61.461 8.24415C59.9082 8.15626 58.3116 7.84864 56.6709 7.32129C56.2608 7.46778 56.0704 7.68751 56.0997 7.98047C56.129 8.27344 56.2315 8.59571 56.4073 8.94727C56.6124 9.26954 56.8467 9.5918 57.1104 9.91407C57.3741 10.207 57.5499 10.4414 57.6377 10.6172C57.7842 10.9102 57.8282 11.2031 57.7696 11.4961C57.7403 11.7891 57.7403 12.1406 57.7696 12.5508C57.7989 12.6973 57.8282 12.8584 57.8575 13.0342C57.9161 13.1807 57.96 13.3418 57.9893 13.5176C58.0479 14.7773 57.9014 16.0078 57.5499 17.209C57.2276 18.3809 56.9053 19.4795 56.5831 20.5049C56.4659 20.915 56.3047 21.2813 56.0997 21.6035C55.8946 21.9258 55.7334 22.2481 55.6163 22.5703C55.587 22.7168 55.5723 22.8633 55.5723 23.0098C55.6016 23.1563 55.6016 23.2881 55.5723 23.4053C55.5137 23.669 55.4405 23.918 55.3526 24.1523C55.2647 24.3867 55.2061 24.6357 55.1768 24.8994C55.1475 25.2217 55.1622 25.5586 55.2207 25.9102C55.2793 26.2617 55.2647 26.5986 55.1768 26.9209C55.1182 27.0967 55.0157 27.2578 54.8692 27.4043C54.7227 27.5508 54.6202 27.7119 54.5616 27.8877C54.4151 28.3565 54.3565 28.8398 54.3858 29.3379C54.4444 29.8066 54.4151 30.2607 54.2979 30.7002C54.2393 30.9346 54.1075 31.1543 53.9024 31.3594C53.6973 31.5645 53.5362 31.7842 53.419 32.0186C53.1846 32.5752 53.0088 33.1611 52.8916 33.7764C52.7745 34.3916 52.6133 34.9775 52.4082 35.5342C52.2032 36.1201 51.9541 36.6475 51.6612 37.1162C51.3682 37.585 51.1192 38.083 50.9141 38.6104C50.7676 38.9033 50.5186 39.1523 50.167 39.3574C49.7862 39.5625 49.42 39.7822 49.0684 40.0166C48.7168 40.251 48.4385 40.5 48.2334 40.7637C48.0284 41.0566 47.9991 41.4229 48.1456 41.8623C48.4385 41.8916 48.7461 41.8623 49.0684 41.7744C49.3907 41.7158 49.7129 41.6279 50.0352 41.5107C50.3282 41.3936 50.6358 41.2764 50.9581 41.1592C51.2803 41.0713 51.6172 40.9981 51.9688 40.9395C52.2325 40.8809 52.4815 40.8662 52.7159 40.8955C52.9795 40.9541 53.2286 40.9688 53.4629 40.9395C53.7852 40.8809 54.0928 40.7783 54.3858 40.6318C54.7081 40.5147 55.0303 40.4268 55.3526 40.3682C56.0264 40.2803 56.6416 40.2656 57.1983 40.3242C57.7549 40.3535 58.3995 40.3682 59.1319 40.3682C59.9522 40.3682 60.7432 40.3975 61.5049 40.4561C62.2959 40.4854 62.9405 40.3096 63.4385 39.9287C63.4385 39.6065 63.3653 39.3281 63.2188 39.0938C63.1016 38.8594 62.9551 38.6397 62.7793 38.4346C62.6036 38.2002 62.4278 37.9805 62.252 37.7754C62.1055 37.5703 62.003 37.3359 61.9444 37.0723C61.9151 36.9844 61.9004 36.8672 61.9004 36.7207C61.9297 36.5449 61.9444 36.3691 61.9444 36.1934C61.8858 35.5781 61.9151 34.9922 62.0323 34.4356C62.1495 33.8496 62.3106 33.2783 62.5157 32.7217C62.5743 32.4873 62.6329 32.2676 62.6915 32.0625C62.75 31.8281 62.8086 31.6231 62.8672 31.4473C63.043 31.0957 63.2041 30.832 63.3506 30.6563C63.5264 30.4512 63.7168 30.3047 63.9219 30.2168C64.127 30.0996 64.376 30.0264 64.669 29.9971C64.962 29.9678 65.3135 29.9385 65.7237 29.9092C66.251 29.8506 66.7491 29.8506 67.2178 29.9092C67.6866 29.9385 68.1553 29.9385 68.6241 29.9092C69.0049 29.8799 69.3418 29.8066 69.6348 29.6895C69.9571 29.543 70.25 29.4551 70.5137 29.4258C70.7774 29.4258 70.9971 29.4551 71.1729 29.5137C71.3487 29.5723 71.5391 29.5869 71.7442 29.5576C71.92 29.5283 72.1104 29.4697 72.3155 29.3818C72.5206 29.2647 72.7403 29.1768 72.9747 29.1182C73.6192 28.8838 74.2637 28.6787 74.9082 28.5029C75.5528 28.3272 76.1973 28.1221 76.8418 27.8877C77.0176 27.8291 77.1495 27.7412 77.2374 27.624C77.3252 27.4775 77.4864 27.3457 77.7207 27.2285C77.9551 27.1113 78.2041 26.9941 78.4678 26.877C78.7315 26.7305 78.9512 26.5986 79.127 26.4815C79.2735 26.3643 79.4053 26.2178 79.5225 26.042C79.6397 25.8662 79.7862 25.7051 79.962 25.5586C80.4307 25.207 80.8262 24.8555 81.1485 24.5039C81.5 24.1231 81.837 23.7275 82.1592 23.3174C82.4522 22.8779 82.7452 22.3652 83.0381 21.7793C83.3311 21.1934 83.5801 20.5781 83.7852 19.9336C83.9903 19.2598 84.1221 18.5713 84.1807 17.8682C84.2393 17.1357 84.1807 16.418 84.0049 15.7148C83.8291 15.0996 83.6387 14.5723 83.4336 14.1328C83.2286 13.6641 82.9649 13.2539 82.6426 12.9023C82.3497 12.5508 81.9834 12.2285 81.544 11.9356C81.1045 11.6426 80.5918 11.3496 80.0059 11.0566C79.6836 10.4414 79.3467 10.0166 78.9952 9.78223C78.6729 9.51856 78.1602 9.25489 77.4571 8.99122C77.1934 8.87403 76.9151 8.75684 76.6221 8.63965C76.3584 8.49317 76.0801 8.37598 75.7872 8.28809C75.0254 8.08301 74.2637 7.96583 73.502 7.93653C72.7403 7.90723 71.9639 7.92188 71.1729 7.98047C70.4112 8.00977 69.6495 8.06836 68.8877 8.15626C68.126 8.24415 67.3497 8.28809 66.5586 8.28809C64.7422 8.34669 63.043 8.33204 61.461 8.24415ZM70.3819 25.207C70.1182 25.4707 69.7959 25.6904 69.4151 25.8662C68.6827 26.2178 67.8184 26.3936 66.8223 26.3936C65.8262 26.3936 64.9766 26.2764 64.2735 26.042C64.0684 25.4268 64.0831 24.8262 64.3174 24.2402C64.5518 23.6543 64.7569 23.0391 64.9327 22.3945C65.0791 21.9844 65.1817 21.5596 65.2403 21.1201C65.3282 20.6807 65.4307 20.2705 65.5479 19.8897C65.6065 19.7139 65.6651 19.5527 65.7237 19.4063C65.8116 19.2305 65.8702 19.04 65.8995 18.835C65.9288 18.6592 65.8995 18.4834 65.8116 18.3076C65.753 18.1025 65.7383 17.9121 65.7676 17.7363C65.8262 17.5898 65.9141 17.4434 66.0313 17.2969C66.1778 17.1504 66.2803 16.9893 66.3389 16.8135C66.7491 15.9932 67.086 15.0996 67.3497 14.1328C67.6133 13.1367 67.9502 12.2578 68.3604 11.4961C68.6534 11.4375 68.9317 11.3643 69.1954 11.2764C69.4883 11.1885 69.7813 11.1445 70.0743 11.1445C70.543 11.1152 70.9532 11.1885 71.3047 11.3643C71.6856 11.5107 72.0225 11.6133 72.3155 11.6719C72.5791 11.9648 72.8575 12.2285 73.1504 12.4629C73.4434 12.6973 73.7217 12.9609 73.9854 13.2539C74.2491 13.5176 74.4688 13.8252 74.6446 14.1768C74.8497 14.499 74.9815 14.9092 75.0401 15.4072C75.1866 16.3447 75.1719 17.1943 74.9961 17.9561C74.8204 18.6885 74.542 19.4795 74.1612 20.3291C74.1026 20.4756 74.0147 20.6221 73.8975 20.7686C73.8096 20.8857 73.7364 21.0176 73.6778 21.1641C73.5313 21.5742 73.3848 21.9551 73.2383 22.3066C73.0918 22.6582 72.7989 22.9072 72.3594 23.0537C72.1836 23.3467 72.0372 23.6543 71.92 23.9766C71.8321 24.2988 71.6709 24.5772 71.4366 24.8115C70.9971 24.8115 70.6456 24.9434 70.3819 25.207ZM102.879 17.6484C102.644 17.6484 102.41 17.6191 102.175 17.5606H96.3307C96.0963 17.4434 95.8034 17.3848 95.4518 17.3848C95.1295 17.3848 94.778 17.3994 94.3971 17.4287C94.0163 17.4287 93.65 17.458 93.2985 17.5166C92.9469 17.5459 92.6539 17.5459 92.4196 17.5166H91.5846C91.233 17.4873 90.8668 17.4873 90.486 17.5166C90.1051 17.5166 89.7536 17.5313 89.4313 17.5606C89.109 17.5606 88.8893 17.5752 88.7721 17.6045C88.567 17.6631 88.4059 17.8096 88.2887 18.044C88.1715 18.249 88.0397 18.3662 87.8932 18.3955C87.8053 18.7471 87.8053 19.0254 87.8932 19.2305C88.0104 19.4356 88.1276 19.6553 88.2448 19.8897C88.3913 20.0947 88.4938 20.3731 88.5524 20.7246C88.611 21.0469 88.5524 21.501 88.3766 22.0869C88.318 22.2334 88.318 22.3799 88.3766 22.5264C88.4352 22.6729 88.4498 22.834 88.4205 23.0098C88.362 23.2441 88.2301 23.4346 88.025 23.5811C87.8493 23.7275 87.7321 23.918 87.6735 24.1523C87.5563 24.4453 87.483 24.7529 87.4538 25.0752C87.4538 25.3682 87.4245 25.6611 87.3659 25.9541C87.3073 26.335 87.1901 26.7305 87.0143 27.1406L86.5748 28.2832C86.3991 28.6934 86.2965 29.0596 86.2672 29.3818C86.2672 29.6748 86.2526 29.9971 86.2233 30.3486C86.194 30.6416 86.1354 30.9492 86.0475 31.2715C85.9596 31.5938 85.8864 31.9014 85.8278 32.1943C85.7692 32.5166 85.6666 32.7803 85.5202 32.9854C85.3737 33.1611 85.2858 33.4102 85.2565 33.7324C85.1393 33.8789 85.0807 34.04 85.0807 34.2158C85.0807 34.3623 85.0954 34.5381 85.1246 34.7432C85.1539 34.9482 85.1686 35.168 85.1686 35.4023C85.1979 35.6074 85.1832 35.8418 85.1246 36.1055C85.0075 36.5156 84.7877 37.0137 84.4655 37.5996C84.1725 38.1856 83.9528 38.7861 83.8063 39.4014C83.5719 40.3682 83.5133 41.0713 83.6305 41.5107C83.777 41.9502 84.3336 42.0234 85.3004 41.7305C85.4469 41.6426 85.6959 41.4815 86.0475 41.2471C86.4284 41.042 86.692 40.9102 86.8385 40.8516C87.0436 40.9688 87.2047 41.0273 87.3219 41.0273C87.4684 41.0566 87.6588 41.0859 87.8932 41.1152C88.362 41.1738 88.7282 41.0713 88.9918 40.8076C89.2555 40.5732 89.4459 40.2656 89.5631 39.8848C89.7096 39.2988 89.9 38.6982 90.1344 38.083C90.3688 37.4385 90.5446 36.7793 90.6618 36.1055C90.7204 35.4316 90.8815 34.7871 91.1452 34.1719C91.4088 33.5566 91.7457 33.1758 92.1559 33.0293C92.3903 32.9414 92.6832 32.9268 93.0348 32.9854C93.3864 33.0147 93.7526 33 94.1334 32.9414C94.3971 32.9121 94.6754 32.8535 94.9684 32.7656C95.2907 32.6777 95.6129 32.6631 95.9352 32.7217C96.1696 32.7803 96.4479 32.8828 96.7702 33.0293C97.1217 33.1758 97.3707 33.3076 97.5172 33.4248C97.6637 33.5713 97.7663 33.7764 97.8248 34.04C97.8834 34.2744 97.942 34.4795 98.0006 34.6553C98.0299 34.7432 98.0739 34.8311 98.1325 34.919C98.1911 35.0068 98.235 35.0947 98.2643 35.1826C98.3815 35.5049 98.4987 35.8565 98.6159 36.2373C98.733 36.5889 98.8209 36.9258 98.8795 37.2481C98.9381 37.541 98.9674 37.8047 98.9674 38.0391C98.9967 38.2734 99.0553 38.4932 99.1432 38.6982C99.2311 38.9912 99.3629 39.2695 99.5387 39.5332C99.7145 39.7676 99.8756 40.0166 100.022 40.2803C100.462 41.3057 101.062 42.1553 101.824 42.8291C102.586 43.5322 103.347 44.2207 104.109 44.8945C104.578 44.9824 104.944 45.2022 105.208 45.5537C105.471 45.9346 105.779 46.2275 106.131 46.4326C106.541 46.667 106.965 46.8428 107.405 46.96C107.874 47.0772 108.401 47.1797 108.987 47.2676C109.251 47.3262 109.544 47.4141 109.866 47.5313C110.217 47.6777 110.598 47.751 111.008 47.751C111.653 47.7217 112.341 47.6777 113.074 47.6191C113.806 47.5606 114.524 47.458 115.227 47.3115C115.93 47.1943 116.604 47.0332 117.249 46.8281C117.893 46.6231 118.464 46.3447 118.963 45.9932C119.168 45.8467 119.402 45.627 119.666 45.334C119.929 45.041 120.061 44.792 120.061 44.5869C120.061 44.294 119.944 44.1328 119.71 44.1035C119.475 44.1035 119.197 44.1475 118.875 44.2354C118.582 44.3232 118.274 44.4258 117.952 44.543C117.659 44.6895 117.41 44.7773 117.205 44.8066C116.56 44.9238 115.93 44.9971 115.315 45.0264C114.729 45.085 114.099 45.0557 113.425 44.9385C112.634 44.8213 111.961 44.6748 111.404 44.499C110.877 44.3232 110.393 44.0742 109.954 43.752C109.807 43.7227 109.69 43.7227 109.602 43.752C109.544 43.8106 109.456 43.8545 109.339 43.8838C109.163 43.5029 108.958 43.1807 108.723 42.917L108.02 42.2139C107.786 42.0088 107.566 41.7744 107.361 41.5107C107.156 41.2764 106.965 40.9688 106.79 40.5879C106.673 40.3242 106.57 40.0313 106.482 39.709C106.423 39.3574 106.35 39.0205 106.262 38.6982C106.174 38.376 106.057 38.083 105.911 37.8193C105.794 37.5264 105.632 37.292 105.427 37.1162C105.457 36.7061 105.339 36.3398 105.076 36.0176C104.812 35.6953 104.607 35.3291 104.461 34.919C104.138 34.2451 103.67 33.6006 103.054 32.9854C102.439 32.3408 101.765 31.9307 101.033 31.7549C101.355 31.667 101.575 31.5205 101.692 31.3154C101.809 31.1104 101.97 30.9492 102.175 30.832C102.322 30.7734 102.468 30.7441 102.615 30.7441C102.791 30.7148 102.952 30.6709 103.098 30.6123C103.508 30.4365 103.904 30.2168 104.285 29.9531C104.695 29.6602 105.105 29.4404 105.515 29.294C105.75 29.1768 105.94 29.0596 106.087 28.9424C106.262 28.8252 106.467 28.6934 106.702 28.5469C106.995 28.4004 107.273 28.1514 107.537 27.7998C107.8 27.4482 108.02 27.1113 108.196 26.7891C108.313 26.5547 108.43 26.335 108.548 26.1299C108.665 25.8955 108.753 25.7051 108.811 25.5586C109.046 25.0313 109.148 24.5039 109.119 23.9766C109.089 23.4492 108.987 22.9512 108.811 22.4824C108.635 21.9844 108.416 21.5449 108.152 21.1641C107.888 20.7539 107.669 20.4023 107.493 20.1094C107.083 19.582 106.673 19.1426 106.262 18.791C105.852 18.4102 105.31 18.1318 104.636 17.9561C104.548 17.9268 104.461 17.9268 104.373 17.9561C104.285 17.9854 104.197 17.9854 104.109 17.9561C104.021 17.9268 103.933 17.8828 103.845 17.8242C103.757 17.7656 103.67 17.7363 103.582 17.7363C103.347 17.6777 103.113 17.6484 102.879 17.6484ZM96.1549 28.5908C95.9498 28.708 95.7301 28.7666 95.4957 28.7666C95.0856 28.7959 94.6608 28.7666 94.2213 28.6787C93.7819 28.5615 93.3424 28.5322 92.903 28.5908C92.903 28.0635 92.9616 27.5215 93.0788 26.9648C93.1959 26.4082 93.3424 25.8662 93.5182 25.3389C93.694 24.7822 93.8844 24.2402 94.0895 23.7129C94.2946 23.1856 94.4704 22.7022 94.6168 22.2627C94.7926 21.8818 95.0709 21.6182 95.4518 21.4717C95.8327 21.3252 96.2575 21.2373 96.7262 21.208C97.2243 21.1787 97.737 21.1934 98.2643 21.252C98.7916 21.2813 99.3043 21.2813 99.8024 21.252C100.418 21.1934 100.857 21.2666 101.121 21.4717C101.384 21.6475 101.663 21.9551 101.956 22.3945C102.19 22.7754 102.439 23.2148 102.703 23.7129C102.966 24.1816 102.996 24.7529 102.791 25.4268C102.732 25.6025 102.615 25.8223 102.439 26.0859C102.263 26.3203 102.102 26.5693 101.956 26.833C101.633 27.3604 101.282 27.7119 100.901 27.8877C100.549 28.0635 100.139 28.3272 99.6705 28.6787C99.4362 28.6494 99.2457 28.6641 99.0993 28.7227C98.9528 28.7813 98.8063 28.7959 98.6598 28.7666C98.3082 28.708 97.986 28.6641 97.693 28.6348C97.4 28.6055 97.1071 28.5615 96.8141 28.5029C96.609 28.4443 96.3893 28.4736 96.1549 28.5908ZM111.293 38.2588C111.352 37.585 111.572 36.9844 111.952 36.457C112.363 35.9004 112.67 35.3291 112.875 34.7432C112.992 34.3623 113.066 33.9668 113.095 33.5566C113.154 33.1172 113.183 32.6924 113.183 32.2822C113.212 31.8428 113.256 31.418 113.315 31.0078C113.373 30.5684 113.476 30.1436 113.622 29.7334C113.476 29.4697 113.417 29.1768 113.447 28.8545C113.476 28.5322 113.49 28.1953 113.49 27.8438C113.637 27.6387 113.754 27.4043 113.842 27.1406C113.93 26.877 114.135 26.7012 114.457 26.6133C114.75 25.9688 114.897 25.3096 114.897 24.6357C114.897 23.9326 114.97 23.2148 115.116 22.4824C115.146 22.3359 115.204 22.2041 115.292 22.0869C115.38 21.9697 115.453 21.8379 115.512 21.6914C115.717 21.0762 115.82 20.4316 115.82 19.7578C115.82 19.0547 115.937 18.3955 116.171 17.7803C116.347 17.7217 116.567 17.6338 116.83 17.5166C117.094 17.3701 117.358 17.2383 117.621 17.1211C117.914 16.9746 118.193 16.8574 118.456 16.7695C118.72 16.6816 118.954 16.6523 119.159 16.6816C119.306 16.7402 119.452 16.8281 119.599 16.9453C119.745 17.0332 119.921 17.1504 120.126 17.2969C120.273 17.3848 120.405 17.4873 120.522 17.6045C120.668 17.7217 120.815 17.8242 120.961 17.9121C121.078 17.9707 121.225 18.0293 121.401 18.0879C121.606 18.1172 121.738 18.1611 121.796 18.2197C121.825 18.249 121.913 18.3516 122.06 18.5273C122.236 18.7031 122.397 18.8936 122.543 19.0986C122.719 19.3037 122.88 19.5088 123.027 19.7139C123.173 19.8897 123.261 20.0068 123.29 20.0654C123.32 20.2412 123.305 20.4463 123.246 20.6807C123.188 20.8857 123.1 21.1055 122.983 21.3398C122.895 21.5449 122.792 21.7647 122.675 21.999C122.587 22.2041 122.514 22.3945 122.455 22.5703L122.192 23.5371C122.104 23.8301 121.987 24.1377 121.84 24.46C121.694 24.8408 121.532 25.2803 121.357 25.7783C121.181 26.2764 121.064 26.8037 121.005 27.3604C120.947 27.7705 120.785 28.0781 120.522 28.2832C120.287 28.4883 120.126 28.7813 120.038 29.1621C119.98 29.4258 119.95 29.7041 119.95 29.9971V30.876C119.98 31.1397 119.98 31.4033 119.95 31.667C119.95 31.9307 119.892 32.1797 119.775 32.4141C119.687 32.5606 119.555 32.6777 119.379 32.7656C119.203 32.8242 119.057 32.9268 118.94 33.0732C118.764 33.3662 118.603 33.7324 118.456 34.1719C118.339 34.6113 118.237 35.0801 118.149 35.5781C118.061 36.0469 118.017 36.5303 118.017 37.0283C118.046 37.4971 118.134 37.9219 118.281 38.3027C118.134 38.7715 117.87 39.1816 117.489 39.5332C117.138 39.8848 116.713 40.1631 116.215 40.3682C115.717 40.544 115.175 40.6318 114.589 40.6318C114.032 40.6611 113.461 40.5732 112.875 40.3682C112.641 40.0166 112.363 39.6943 112.04 39.4014C111.718 39.0791 111.469 38.6982 111.293 38.2588ZM150.865 41.2471C150.865 41.4229 150.938 41.5254 151.085 41.5547C151.495 41.5547 151.92 41.4961 152.359 41.3789C152.799 41.2617 153.253 41.1738 153.722 41.1152C154.014 40.8516 154.19 40.5586 154.249 40.2363C154.337 39.8848 154.439 39.4893 154.556 39.0498C154.762 38.2881 155.04 37.5117 155.391 36.7207C155.743 35.9297 155.977 35.1094 156.095 34.2598C156.153 33.8203 156.168 33.3809 156.139 32.9414C156.139 32.4727 156.182 32.0039 156.27 31.5352C156.593 31.3008 156.783 30.9492 156.842 30.4805C156.93 30.0117 157.017 29.5283 157.105 29.0303C157.222 28.415 157.354 27.8291 157.501 27.2725C157.677 26.7158 157.852 26.1445 158.028 25.5586C158.116 25.2949 158.175 25.002 158.204 24.6797C158.263 24.3574 158.365 24.0938 158.512 23.8887C158.599 23.7129 158.731 23.5811 158.907 23.4932C159.112 23.4053 159.273 23.2881 159.39 23.1416C159.537 22.9365 159.552 22.6729 159.434 22.3506C159.317 21.999 159.303 21.6621 159.39 21.3398C159.449 21.1641 159.522 20.9736 159.61 20.7686C159.698 20.5635 159.771 20.3731 159.83 20.1973C159.918 19.9629 160.02 19.7578 160.138 19.582C160.255 19.4063 160.313 19.2451 160.313 19.0986C160.343 18.7764 160.284 18.4834 160.138 18.2197C160.02 17.9268 159.845 17.6777 159.61 17.4727C159.405 17.2383 159.171 17.0479 158.907 16.9014C158.643 16.7256 158.38 16.5791 158.116 16.4619C158.028 16.5205 157.94 16.5645 157.852 16.5938C157.764 16.5938 157.691 16.6231 157.633 16.6816C157.193 16.6231 156.812 16.6377 156.49 16.7256C156.197 16.8135 155.904 16.916 155.611 17.0332C155.347 17.1504 155.055 17.2676 154.732 17.3848C154.439 17.502 154.073 17.5606 153.634 17.5606C153.311 17.5606 152.945 17.5313 152.535 17.4727C152.154 17.3848 151.832 17.3994 151.568 17.5166C151.275 17.6338 150.968 17.9414 150.645 18.4395C150.352 18.9082 150.089 19.2891 149.854 19.582C149.298 20.3438 148.8 21.1201 148.36 21.9111C147.95 22.7022 147.672 23.6543 147.525 24.7676C147.379 24.9727 147.203 25.0898 146.998 25.1191C146.793 25.1484 146.602 25.2363 146.427 25.3828C145.958 25.6758 145.636 26.0859 145.46 26.6133C145.284 27.1406 145.035 27.624 144.713 28.0635C144.303 28.5615 143.951 29.0889 143.658 29.6455C143.365 30.1729 143.072 30.7441 142.779 31.3594C142.633 31.6523 142.472 31.96 142.296 32.2822C142.12 32.5752 141.886 32.7949 141.593 32.9414C141.475 32.3848 141.3 31.8721 141.065 31.4033C140.86 30.9346 140.714 30.4072 140.626 29.8213C140.567 29.5283 140.553 29.2354 140.582 28.9424C140.64 28.6494 140.655 28.3418 140.626 28.0195C140.597 27.8438 140.553 27.668 140.494 27.4922L140.318 26.9648C140.201 25.8516 140.142 24.6943 140.142 23.4932C140.172 22.292 140.025 21.1348 139.703 20.0215C139.41 19.7285 139.058 19.4209 138.648 19.0986C138.238 18.7471 137.769 18.4541 137.242 18.2197C137.154 18.1904 137.037 18.1758 136.89 18.1758C136.744 18.1758 136.597 18.1465 136.451 18.0879C136.099 17.9414 135.792 17.7656 135.528 17.5606C135.264 17.3555 134.972 17.2529 134.649 17.2529C134.532 17.2529 134.386 17.2822 134.21 17.3408C134.034 17.3994 133.873 17.458 133.726 17.5166C133.316 17.6631 132.965 17.8096 132.672 17.9561C132.379 18.0732 132.071 18.2344 131.749 18.4395C131.602 18.5273 131.412 18.6299 131.178 18.7471C130.972 18.8643 130.826 18.9961 130.738 19.1426C130.592 19.3477 130.504 19.582 130.474 19.8457C130.474 20.1094 130.489 20.3877 130.518 20.6807C130.548 20.9443 130.562 21.2227 130.562 21.5156C130.592 21.7793 130.562 22.043 130.474 22.3066C130.416 22.5996 130.284 22.9951 130.079 23.4932C129.903 23.9619 129.742 24.3281 129.596 24.5918C129.508 24.7383 129.39 24.8555 129.244 24.9434C129.097 25.002 128.995 25.0898 128.936 25.207C128.79 25.4414 128.702 25.7051 128.673 25.9981C128.643 26.2617 128.57 26.5693 128.453 26.9209C128.336 27.2432 128.204 27.5801 128.057 27.9316C127.911 28.2539 127.764 28.6055 127.618 28.9863C127.501 29.3379 127.413 29.7041 127.354 30.085C127.325 30.4658 127.354 30.8613 127.442 31.2715C127.266 31.418 127.135 31.5938 127.047 31.7988C126.959 31.9746 126.856 32.165 126.739 32.3701V33.2051C126.388 33.6445 126.124 34.1719 125.948 34.7871C125.802 35.4023 125.626 36.0908 125.421 36.8525C125.274 37.4385 125.084 37.9805 124.849 38.4785C124.644 38.9473 124.513 39.3867 124.454 39.7969C124.395 40.2363 124.425 40.5732 124.542 40.8076C124.659 41.0713 124.835 41.2471 125.069 41.335C125.304 41.4522 125.553 41.4961 125.816 41.4668C126.109 41.4375 126.388 41.3789 126.651 41.291C127.149 41.1152 127.574 40.9395 127.926 40.7637C128.306 40.6172 128.658 40.4268 128.98 40.1924C128.98 39.8994 129.039 39.6357 129.156 39.4014C129.303 39.167 129.464 38.9619 129.639 38.7861C129.815 38.5811 129.991 38.4053 130.167 38.2588C130.343 38.1123 130.46 37.9512 130.518 37.7754C130.665 37.3652 130.753 36.8818 130.782 36.3252C130.841 35.7393 130.958 35.1973 131.134 34.6992C131.251 34.2012 131.412 33.7471 131.617 33.3369C131.822 32.9268 131.998 32.5166 132.144 32.1065C132.203 31.8721 132.262 31.6231 132.32 31.3594C132.408 31.0957 132.467 30.876 132.496 30.7002C132.525 30.4658 132.511 30.2607 132.452 30.085C132.393 29.9092 132.379 29.7334 132.408 29.5576C132.437 29.4111 132.496 29.25 132.584 29.0742C132.701 28.8984 132.804 28.708 132.891 28.5029C133.038 28.0928 133.14 27.7119 133.199 27.3604C133.258 27.0088 133.433 26.7744 133.726 26.6572C133.756 27.1553 133.785 27.668 133.814 28.1953C133.844 28.6934 133.902 29.1621 133.99 29.6016C134.137 29.8359 134.342 30.085 134.605 30.3486C134.898 30.6123 135.089 30.9199 135.177 31.2715C135.235 31.5938 135.25 31.9307 135.221 32.2822C135.191 32.6045 135.191 32.9414 135.221 33.293C135.25 33.4688 135.308 33.6738 135.396 33.9082C135.514 34.1133 135.601 34.333 135.66 34.5674C135.836 35.2705 135.982 36.0615 136.099 36.9404C136.246 37.79 136.466 38.4932 136.759 39.0498C137.022 39.6065 137.374 40.0313 137.813 40.3242C138.282 40.5879 138.736 40.8809 139.176 41.2031C139.469 41.1152 139.718 41.1299 139.923 41.2471C140.157 41.3936 140.45 41.4668 140.802 41.4668C141.182 41.4375 141.49 41.3057 141.724 41.0713C141.959 40.8369 142.149 40.5586 142.296 40.2363C142.472 39.8848 142.603 39.5186 142.691 39.1377C142.808 38.7568 142.911 38.4053 142.999 38.083C143.145 37.6436 143.336 37.2481 143.57 36.8965C143.834 36.5449 144.039 36.208 144.185 35.8857C144.244 35.7393 144.273 35.6074 144.273 35.4902C144.273 35.3438 144.303 35.1973 144.361 35.0508C144.683 34.3184 145.079 33.6885 145.548 33.1611C146.016 32.6045 146.412 31.9893 146.734 31.3154C147.467 29.9092 148.243 28.6787 149.063 27.624C149.884 26.54 150.792 25.4854 151.788 24.46C151.554 25.0166 151.422 25.5879 151.392 26.1738C151.392 26.7305 151.334 27.3018 151.217 27.8877C151.158 28.1807 151.041 28.4443 150.865 28.6787C150.719 28.9131 150.616 29.1621 150.557 29.4258C150.499 29.6602 150.499 29.9531 150.557 30.3047C150.616 30.627 150.631 30.9053 150.601 31.1397C150.455 31.9893 150.206 32.8535 149.854 33.7324C149.503 34.582 149.312 35.4463 149.283 36.3252C149.283 36.4717 149.298 36.6328 149.327 36.8086C149.386 36.9844 149.4 37.1455 149.371 37.292C149.312 37.4385 149.21 37.585 149.063 37.7315C148.946 37.8486 148.858 37.9951 148.8 38.1709C148.653 38.5811 148.58 39.0059 148.58 39.4453C148.58 39.8848 148.668 40.3096 148.844 40.7197C149.254 40.8662 149.561 40.9248 149.766 40.8955H150.689C150.806 40.9541 150.865 41.0713 150.865 41.2471ZM170.618 20.4609C171.174 20.0801 171.658 19.6406 172.068 19.1426C172.478 18.6445 172.873 18.1465 173.254 17.6484C173.489 17.6777 173.694 17.6338 173.87 17.5166C174.045 17.3994 174.236 17.3115 174.441 17.2529C174.851 17.1357 175.261 17.1504 175.671 17.2969C176.111 17.4141 176.536 17.458 176.946 17.4287C177.444 17.3701 177.913 17.2383 178.352 17.0332C178.821 16.8281 179.363 16.7256 179.978 16.7256C180.183 16.7256 180.373 16.7988 180.549 16.9453C180.725 17.0625 180.901 17.1357 181.077 17.165C181.311 17.2236 181.516 17.1943 181.692 17.0772C181.897 16.96 182.117 16.9014 182.351 16.9014C182.761 16.9014 183.069 17.0332 183.274 17.2969C183.508 17.5606 183.772 17.8242 184.065 18.0879C184.211 18.7617 184.226 19.4209 184.109 20.0654C183.992 20.71 183.962 21.3691 184.021 22.043C184.08 22.4824 184.138 22.9072 184.197 23.3174C184.285 23.7275 184.329 24.1523 184.329 24.5918C184.358 24.9727 184.329 25.3828 184.241 25.8223C184.182 26.2324 184.167 26.6426 184.197 27.0527C184.226 27.1992 184.27 27.3457 184.329 27.4922C184.387 27.6387 184.402 27.7852 184.373 27.9316C184.314 28.2539 184.182 28.5029 183.977 28.6787C183.772 28.8545 183.655 29.0889 183.625 29.3818C183.567 29.8213 183.655 30.2315 183.889 30.6123C184.153 30.9932 184.314 31.3887 184.373 31.7988C184.402 31.9746 184.387 32.165 184.329 32.3701C184.27 32.5752 184.241 32.7656 184.241 32.9414C184.182 33.5859 184.182 34.3037 184.241 35.0947C184.329 35.8857 184.387 36.6182 184.416 37.292C184.416 37.5264 184.431 37.7607 184.46 37.9951C184.519 38.2295 184.519 38.4199 184.46 38.5664C184.431 38.7129 184.358 38.8301 184.241 38.918C184.153 39.0059 184.08 39.1084 184.021 39.2256C183.992 39.3721 183.992 39.5772 184.021 39.8408C184.08 40.1045 184.109 40.3535 184.109 40.5879C184.109 40.793 184.094 40.9834 184.065 41.1592C184.036 41.3643 184.021 41.54 184.021 41.6865L184.109 41.9502C184.167 42.0674 184.182 42.1699 184.153 42.2578C184.094 42.5215 183.889 42.7998 183.538 43.0928C183.215 43.415 182.878 43.5615 182.527 43.5322C182.351 43.5029 182.087 43.3565 181.736 43.0928C181.414 42.8584 181.179 42.668 181.033 42.5215C180.769 42.1992 180.608 41.7891 180.549 41.291C180.491 40.793 180.359 40.3389 180.154 39.9287C180.066 39.7822 179.934 39.6504 179.758 39.5332C179.612 39.3867 179.48 39.2256 179.363 39.0498C179.187 38.7275 179.07 38.4053 179.011 38.083C178.953 37.7315 178.909 37.3945 178.879 37.0723C178.879 36.7207 178.865 36.3838 178.835 36.0615C178.806 35.71 178.733 35.3584 178.616 35.0068C178.557 34.8897 178.469 34.7871 178.352 34.6992C178.235 34.6113 178.132 34.4941 178.044 34.3477C177.869 34.0547 177.751 33.8057 177.693 33.6006C177.634 33.3955 177.444 33.2344 177.122 33.1172C176.096 33.1172 175.056 33.0879 174.001 33.0293C172.976 32.9707 171.965 33 170.969 33.1172C170.735 33.1465 170.53 33.2051 170.354 33.293C170.178 33.3516 169.973 33.3955 169.739 33.4248C169.622 33.4248 169.504 33.4102 169.387 33.3809C169.27 33.3516 169.167 33.3369 169.08 33.3369C168.669 33.3955 168.274 33.5859 167.893 33.9082C167.512 34.2012 167.219 34.4941 167.014 34.7871C166.897 34.9629 166.824 35.1826 166.794 35.4463C166.794 35.6807 166.75 35.915 166.663 36.1494C166.575 36.3838 166.428 36.6035 166.223 36.8086C166.018 36.9844 165.945 37.2188 166.003 37.5117C165.681 37.7461 165.403 38.0391 165.168 38.3906C164.963 38.7422 164.758 39.1084 164.553 39.4893C164.348 39.8408 164.114 40.1777 163.85 40.5C163.616 40.8223 163.323 41.0566 162.971 41.2031C162.825 41.2617 162.678 41.335 162.532 41.4229C162.414 41.5107 162.283 41.5547 162.136 41.5547C161.99 41.5254 161.902 41.4815 161.873 41.4229C161.873 41.3643 161.785 41.2764 161.609 41.1592C161.433 41.042 161.228 40.9102 160.994 40.7637C160.73 40.6172 160.481 40.4561 160.247 40.2803C160.012 40.1045 159.807 39.9287 159.631 39.7529C159.426 39.5479 159.28 39.3574 159.192 39.1816C158.957 38.6836 158.914 38.332 159.06 38.127C159.206 37.8926 159.397 37.6143 159.631 37.292C159.954 36.8232 160.32 36.2959 160.73 35.71C161.14 35.124 161.506 34.5674 161.829 34.04C162.004 33.7471 162.151 33.4688 162.268 33.2051C162.414 32.9414 162.59 32.6924 162.795 32.458C163.03 32.1357 163.323 31.8721 163.674 31.667C164.055 31.4619 164.319 31.1982 164.465 30.876C164.524 30.7295 164.553 30.583 164.553 30.4365C164.553 30.2607 164.582 30.085 164.641 29.9092C164.875 29.3232 165.242 28.7959 165.74 28.3272C166.238 27.8584 166.619 27.3311 166.882 26.7451C166.941 26.5986 166.97 26.4668 166.97 26.3496C166.999 26.2031 167.043 26.0566 167.102 25.9102C167.571 24.8262 168.142 23.8594 168.816 23.0098C169.519 22.1602 170.12 21.3106 170.618 20.4609ZM176.77 20.3291C176.418 20.5928 176.111 20.9004 175.847 21.252C175.613 21.5742 175.29 21.8232 174.88 21.999C174.763 22.2627 174.617 22.5117 174.441 22.7461C174.294 22.9805 174.089 23.1709 173.826 23.3174C173.738 23.7861 173.562 24.1963 173.298 24.5479C173.035 24.8701 172.786 25.1924 172.551 25.5147C172.434 25.6318 172.331 25.7637 172.244 25.9102C172.156 26.0273 172.053 26.1592 171.936 26.3057C171.789 26.4522 171.643 26.5693 171.497 26.6572C171.35 26.7158 171.218 26.8037 171.101 26.9209C170.925 27.1553 170.735 27.4775 170.53 27.8877C170.325 28.2979 170.134 28.6348 169.958 28.8984L169.519 29.3379C169.373 29.4844 169.329 29.6748 169.387 29.9092C169.475 30.1436 169.651 30.3047 169.914 30.3926C170.178 30.4512 170.471 30.4951 170.793 30.5244C171.145 30.5244 171.482 30.5098 171.804 30.4805C172.126 30.4512 172.39 30.4365 172.595 30.4365C173.005 30.4365 173.415 30.4512 173.826 30.4805C174.265 30.4805 174.675 30.4658 175.056 30.4365C175.466 30.4072 175.818 30.334 176.111 30.2168C176.433 30.0996 176.682 29.9238 176.858 29.6895C177.151 28.752 177.224 27.8145 177.078 26.877C176.931 25.9102 176.799 24.958 176.682 24.0205C176.623 23.7568 176.58 23.4639 176.55 23.1416C176.521 22.8193 176.521 22.5264 176.55 22.2627C176.58 21.9697 176.667 21.6914 176.814 21.4277C176.99 21.1348 177.019 20.7979 176.902 20.417L176.77 20.3291ZM197.094 40.3242C197.504 40.1484 197.812 40.0752 198.017 40.1045L199.247 40.0166C199.423 39.958 199.628 39.9141 199.862 39.8848C200.097 39.8555 200.331 39.8115 200.565 39.7529L201.269 39.5772C201.503 39.4893 201.737 39.4307 201.972 39.4014C202.587 39.3428 203.188 39.4014 203.773 39.5772C204.389 39.7529 204.96 39.7822 205.487 39.665C205.634 39.6357 205.824 39.5625 206.059 39.4453C206.293 39.2988 206.498 39.1963 206.674 39.1377C206.791 39.1084 206.894 39.1084 206.981 39.1377C207.069 39.1377 207.157 39.1084 207.245 39.0498C207.509 38.9912 207.758 38.9033 207.992 38.7861C208.256 38.6397 208.549 38.5225 208.871 38.4346C209.223 38.3467 209.545 38.3027 209.838 38.3027C210.16 38.3027 210.497 38.2588 210.849 38.1709C211.083 38.1123 211.376 38.0098 211.728 37.8633C212.108 37.7168 212.314 37.5117 212.343 37.2481C212.343 37.0723 212.284 36.9404 212.167 36.8525C212.05 36.7647 211.903 36.7207 211.728 36.7207C211.552 36.6914 211.376 36.6914 211.2 36.7207H210.805C210.277 36.6621 209.706 36.5889 209.091 36.501C208.476 36.3838 207.934 36.3691 207.465 36.457C207.348 36.4863 207.245 36.5303 207.157 36.5889C207.099 36.6182 206.996 36.6621 206.85 36.7207C206.527 36.7793 206.176 36.7793 205.795 36.7207C205.443 36.6328 205.063 36.5596 204.652 36.501C204.242 36.4424 203.817 36.4277 203.378 36.457C202.968 36.4863 202.558 36.4863 202.147 36.457C201.591 36.3984 201.049 36.2813 200.522 36.1055C199.994 35.9297 199.511 35.7832 199.071 35.666C198.778 35.6074 198.529 35.5635 198.324 35.5342C198.148 35.5049 197.987 35.5049 197.841 35.5342C197.694 35.5342 197.533 35.5488 197.357 35.5781C197.182 35.6074 196.977 35.6514 196.742 35.71C196.684 34.9482 196.757 34.1572 196.962 33.3369C197.167 32.5166 197.357 31.7842 197.533 31.1397C197.592 30.9053 197.636 30.6563 197.665 30.3926C197.724 30.1289 197.797 29.8945 197.885 29.6895C198.031 29.25 198.236 28.8691 198.5 28.5469C198.793 28.2246 199.013 27.8438 199.159 27.4043C199.218 27.1992 199.247 26.9941 199.247 26.7891C199.276 26.5547 199.32 26.291 199.379 25.9981C199.408 25.8516 199.452 25.7051 199.511 25.5586C199.599 25.4121 199.672 25.2363 199.731 25.0313C199.789 24.8555 199.833 24.6504 199.862 24.416C199.892 24.1523 199.921 23.9033 199.95 23.669C199.98 23.2588 200.009 22.8047 200.038 22.3066C200.097 21.8086 200.082 21.3691 199.994 20.9883C199.936 20.7832 199.804 20.5928 199.599 20.417C199.423 20.2119 199.262 20.0215 199.115 19.8457C198.969 19.6406 198.705 19.4502 198.324 19.2744C197.943 19.0986 197.709 18.8936 197.621 18.6592C197.416 18.249 197.255 17.8828 197.138 17.5606C197.05 17.2383 196.859 16.9014 196.566 16.5498C195.863 16.4619 195.336 16.5791 194.984 16.9014C194.662 17.2236 194.413 17.6631 194.237 18.2197C194.091 18.7471 193.988 19.3477 193.93 20.0215C193.871 20.6953 193.783 21.3398 193.666 21.9551C193.578 22.4531 193.432 22.8779 193.227 23.2295L192.699 24.2842C192.553 24.6065 192.421 24.9727 192.304 25.3828C192.216 25.793 192.216 26.3057 192.304 26.9209C192.333 27.0967 192.304 27.3604 192.216 27.7119C192.128 28.0342 192.084 28.2686 192.084 28.415C192.084 28.6787 192.04 28.9131 191.952 29.1182C191.864 29.3232 191.747 29.5137 191.601 29.6895C191.483 29.8359 191.366 29.9971 191.249 30.1729C191.132 30.3193 191.044 30.4805 190.985 30.6563C190.927 30.8027 190.912 30.9785 190.941 31.1836C190.971 31.3594 190.971 31.5645 190.941 31.7988C190.912 32.0332 190.854 32.2383 190.766 32.4141C190.707 32.5606 190.678 32.707 190.678 32.8535C190.678 33.0586 190.722 33.2197 190.81 33.3369C190.897 33.4541 190.927 33.6006 190.897 33.7764C190.868 34.0107 190.736 34.2305 190.502 34.4356C190.268 34.6406 190.092 34.8604 189.975 35.0947C189.77 35.5049 189.608 36.0615 189.491 36.7647C189.374 37.4385 189.198 38.083 188.964 38.6982C188.817 39.0498 188.656 39.3721 188.481 39.665C188.334 39.9287 188.231 40.1924 188.173 40.4561C188.085 40.8662 188.158 41.1592 188.393 41.335C188.656 41.54 188.993 41.6572 189.403 41.6865C189.814 41.7158 190.238 41.6865 190.678 41.5986C191.117 41.54 191.498 41.4522 191.82 41.335C191.996 41.2764 192.143 41.1885 192.26 41.0713C192.377 40.9541 192.509 40.8955 192.655 40.8955C192.831 40.8662 193.022 40.8955 193.227 40.9834C193.432 41.1006 193.651 41.1738 193.886 41.2031C194.237 41.2324 194.604 41.1885 194.984 41.0713C195.365 40.9541 195.717 40.8516 196.039 40.7637C196.361 40.6465 196.713 40.5 197.094 40.3242Z" fill="#353535"/>
</g>
<defs>
<clipPath id="clip0">
<rect width="213" height="48" fill="white"/>
</clipPath>
</defs>
</svg>
