<svg width="315" height="191" fill="none" xmlns="http://www.w3.org/2000/svg"><path d="M115.5 185.6C35.26 180.88-29.1 95.4 13.6 45.8 46.73 7.32 90.88 63.33 132.07 35.1c63.35-43.4 166-51.3 179.58 3.43 13.58 54.72-31.42 140.22-64.96 145.35-33.54 5.13-131.18 1.71-131.18 1.71z" fill="#D4F1FE"/><path d="M125.9 69.74c.85 20.52.64 31.63-6.8 40.18-7.42 8.55-28.23 6.42-28.23 6.42s-2.05 30.2-31.13 31.49c-29.08 1.28-33.25-37.62-10.47-47.6 21.69-9.5 28.59-12.25 36.09-35.77 6.85-21.48 28.23-17.38 33.32-8.4 5.1 8.97 7.22 13.68 7.22 13.68z" fill="#303C60"/><path d="M116.35 174.48s13.72 2.7 14.43 2.56c.7-.14 15.71-6.84 17.27-5.84 1.55 1 10.61 4.85 12.6 5.7 1.97.85-1.14 1.14-2.7 1.14-1.55 0-10.47-3.7-11.46-3-1 .72 7.78 2.15 7.78 2.71 0 .58-23.49 5.99-24.9 5.99-1.42 0-12.32-1-12.32-1l-.7-8.26z" fill="#E38540"/><path d="M104.95 98.98c7.4 1.47 11.75 9.35 13.17 16.25 1.41 6.9-13.17-16.25-13.17-16.25z" fill="#1886EB"/><path d="M92.57 93.68S78.35 103.3 70.71 108c-7.64 4.7 2.76 55.36 5.3 74.17 2.55 18.81 46.7 1.71 46.7 1.71s-2.97-15.82.85-41.25c2.74-18.22-7.28-29.64-13.01-37.55-14.47-19.96-17.98-11.4-17.98-11.4z" fill="#1890FF"/><path d="M78.56 108.21c16.35 20.1 21.87 23.85 17.83 37.41-3.18 10.69-4.24 14.54-4.88 18.17-.64 3.63 30.36-2.35 30.36-2.35l-.22 11.76s-24.4 11.75-36.3 14.1c-11.88 2.36-19.31-.42-19.31-.42l12.52-78.67z" fill="#1886EB"/><path d="M283.24 188.7H89.84a2.54 2.54 0 01-2.52-2.55 2.54 2.54 0 012.53-2.55h193.39a2.54 2.54 0 012.52 2.55 2.54 2.54 0 01-2.52 2.54z" fill="#2E5B9A"/><path d="M97.8 73.44L90.46 95.4s8.07 22.02 14.86 17.1c2.32-1.68-.85-14.97-.85-14.97l4.95-17.8-11.6-6.28zm-23.48 33.92c-10.17 1.14-11.04 14.96-15.71 38.05-4.67 23.08-3.27 38.32-1.06 41.25 5.3 7.06 64.95-17.53 72.38-17.31 5.13.14.85-8.55.85-8.55l-56.89 8.76s8.07-26.72 8.07-40.4-3.82-22.23-7.64-21.8z" fill="#F09959"/><path d="M127.17 161.22c5.95-1.5 14.65-4.91 16.35-3.42 1.7 1.5 8.7 12.19 11.04 15.18 2.33 3-1.07.64-3.61-1.7-2.55-2.36-4.67-3.64-4.67-3.64s-3.19 3-6.16 4.7c-2.97 1.71-4.03-1.7-9.13-2.57-5.1-.85-17.83 3.64-17.83 3.64l14.01-12.19z" fill="#F09959"/><path d="M75.45 105.65c-6.23.28-11.04 5.55-12.74 13.68-1.7 8.12-6.65 33.91-6.65 33.91s-.99.72 9.34 2.57c10.33 1.85 18.82-.28 18.82-.28s2.13-14.68 1.56-24.8c-.57-10.12-2.83-19.67-6.51-22.94-3.68-3.28-3.82-2.14-3.82-2.14z" fill="#1890FF"/><path d="M104.46 97.52l4.95-17.8-11.6-6.28-1.77 5.29c-.39 17.7 4.11 23.61 7.15 25.78.94.67 1.76.15 2.44-.95a86.88 86.88 0 00-1.17-6.04z" fill="#E38540"/><path d="M128.02 75.51c0 9.53-1.13 21.22-9.34 20.95-12.73-.43-20.76-10.4-20.76-19.93 0-9.54 6.66-17.27 14.87-17.27 8.22 0 15.23 6.72 15.23 16.25z" fill="#F09959"/><path d="M223.07 183.6h-47.74l19.63-43.51a3.53 3.53 0 013.22-2.09h43.33c1 0 1.67 1.04 1.25 1.96l-19.69 43.63z" fill="#9BD6E8"/><path d="M222.97 183.6h-88.08c0-3.1 2.48-5.6 5.55-5.6h82.53v5.6z" fill="#9BD6E8"/><path d="M241.5 138h-38.18a3.53 3.53 0 00-3.21 2.08l-19.64 43.51h42.6l19.7-43.63a1.39 1.39 0 00-1.26-1.96z" fill="#7BCEE8"/><path d="M114.01 55.95c9.02-.64 14.36 7.66 15.92 14.93 1.12 5.24.57 6.27.57 6.27s-1 1.42-8.07 1.85c-7.07.43-7.92.29-7.92.29l-.43-8.27-2.12 7.98s-1.13 1.57-5.52-.57-6.37-9.26-6.37-9.26-.99-4.7 2.4-7.84c3.4-3.13 11.54-5.38 11.54-5.38z" fill="#303C60"/><path d="M107.3 77.4c-.86 5.76-5.44 9.85-10.21 9.12-4.77-.73-7.94-6-7.08-11.76.87-5.76 5.44-9.85 10.21-9.12 4.78.72 7.95 5.99 7.08 11.75z" fill="#D54A41"/><path d="M103.85 77.24c-.8 5.34-4.55 9.2-8.38 8.61-3.83-.58-6.28-5.38-5.48-10.72.8-5.34 4.55-9.2 8.38-8.61 3.83.58 6.28 5.38 5.48 10.72z" fill="#F39892"/><path d="M98 76.05c-.44 2.93-2.03 5.12-3.54 4.9-1.52-.24-2.4-2.8-1.95-5.74.44-2.93 2.02-5.12 3.54-4.9 1.52.24 2.4 2.8 1.95 5.73z" fill="#F2E5DE"/><path d="M97.77 65.78c4.14-15.5 18.43-13.24 22.05-11.08 3.04 1.82 3.46 4.38 3.46 4.38s-3.93-3.2-10.61-2.03c-6.35 1.12-10.12 4.88-10.65 9.05-.27 2.13-4.25-.32-4.25-.32z" fill="#D54A41"/><path d="M34.27 115.81h-.03a.33.33 0 01-.3-.36c.38-3.92 2.32-7.95 5.48-11.34 3.57-3.84 8.66-6.87 14.7-8.75 13.48-4.2 25.24-9.53 32.62-32.42a.33.33 0 01.41-.21.33.33 0 01.21.41c-3.39 10.52-8.01 18.18-14.12 23.41-5.4 4.62-11.46 7.11-18.92 9.44-5.94 1.85-10.93 4.81-14.42 8.57-3.06 3.29-4.95 7.18-5.3 10.95a.33.33 0 01-.33.3z" fill="#303C60"/><path d="M40.35 100a.33.33 0 01-.2-.6c.06-.04 5.82-4.48 14.14-6.33 15.99-3.54 26.72-13.22 31.03-27.99a.33.33 0 11.63.19c-2.67 9.12-7.68 16.32-14.91 21.4a46.02 46.02 0 01-16.6 7.05c-8.18 1.8-13.83 6.16-13.89 6.2a.32.32 0 01-.2.07z" fill="#303C60"/><path d="M245.27 95.26h-43.1c-.41 0-.62-.33-.47-.74l8.74-24.19c.15-.4.6-.74 1-.74h43.1c.41 0 .62.33.47.74l-8.74 24.2c-.15.4-.6.73-1 .73z" fill="#9EC8FF"/><path d="M244.75 94.13H203.5c-.38 0-.57-.3-.43-.69l7.96-22.03c.13-.38.55-.68.93-.68h41.25c.38 0 .57.3.43.68l-7.96 22.03c-.14.38-.55.7-.93.7z" fill="#fff"/><path d="M244 92.7h-38.72c-.42 0-.64-.35-.49-.78l6.87-18.99c.15-.42.62-.77 1.04-.77h38.73c.42 0 .64.35.49.77l-6.87 19c-.15.42-.62.77-1.04.77z" fill="#9EC8FF"/><path d="M235.43 82.43c-1.42 3.93-5.74 7.12-9.65 7.12-3.9 0-5.92-3.19-4.5-7.12 1.42-3.94 5.74-7.13 9.65-7.13 3.9 0 5.92 3.2 4.5 7.13z" fill="#fff"/><path d="M234.45 82.43c-1.23 3.38-4.95 6.13-8.31 6.13-3.37 0-5.1-2.74-3.88-6.13 1.23-3.4 4.95-6.14 8.31-6.14 3.37 0 5.1 2.75 3.88 6.14z" fill="#9EC8FF"/><path d="M231.48 82.1l-2.7 1.3-2.7 1.29.94-2.59.94-2.59 1.76 1.3 1.76 1.29z" fill="#fff"/><path d="M179.25 60.78c-.78 0-1.7.7-2 1.49l-1.23 3.42c-.12.32-.11.61.01.8.14.2.4.24.59.24h3.4c.78 0 1.7-.69 1.98-1.5l1.24-3.41c.12-.33.11-.62-.02-.8-.13-.2-.39-.24-.58-.24h-3.4zm.76 7.27h-3.4c-.69 0-1.3-.3-1.65-.8a2.18 2.18 0 01-.17-2.01l1.23-3.42a3.68 3.68 0 013.22-2.36h3.4c.7 0 1.3.29 1.66.8.37.54.44 1.27.17 2l-1.23 3.43a3.68 3.68 0 01-3.23 2.36zM174 75.3c-.77 0-1.7.7-1.99 1.5l-1.24 3.41c-.11.33-.1.62.02.8.14.2.4.24.58.24h3.4c.79 0 1.7-.68 2-1.49l1.23-3.42c.11-.32.1-.61-.02-.8-.14-.2-.4-.24-.58-.24h-3.4zm.77 7.27h-3.4c-.7 0-1.3-.3-1.65-.8a2.18 2.18 0 01-.18-2l1.24-3.43a3.68 3.68 0 013.22-2.36h3.4c.7 0 1.3.3 1.65.8.38.55.44 1.28.18 2.01l-1.24 3.42a3.68 3.68 0 01-3.22 2.36z" fill="#9CD499"/><path d="M168.74 89.85c-.79 0-1.7.68-2 1.49l-1.23 3.42c-.12.32-.11.61.02.8.13.2.4.24.58.24h3.4c.78 0 1.7-.68 1.99-1.5l1.23-3.41c.12-.33.11-.62-.01-.8-.14-.2-.4-.24-.59-.24h-3.4zm.77 7.26h-3.4c-.7 0-1.3-.29-1.66-.8a2.18 2.18 0 01-.17-2l1.24-3.42a3.68 3.68 0 013.22-2.36h3.4c.7 0 1.3.3 1.65.8.37.54.44 1.27.17 2l-1.23 3.43a3.68 3.68 0 01-3.22 2.35zm38.45-31.86h-18.68c-.35 0-.54-.29-.4-.64a1 1 0 01.86-.64h18.68c.35 0 .53.28.4.64-.12.35-.51.64-.86.64zm-.93 2.56h-18.68c-.35 0-.53-.28-.4-.64.12-.35.51-.64.86-.64h18.68c.35 0 .54.29.4.64-.12.36-.5.64-.86.64zm-3.94 10.9h-18.68c-.35 0-.53-.28-.4-.64.12-.35.51-.64.86-.64h18.68c.35 0 .54.29.4.64-.12.36-.51.65-.86.65zm-.93 2.57h-18.68c-.35 0-.53-.29-.4-.64a1 1 0 01.87-.64h18.68c.35 0 .53.28.4.64-.13.35-.52.64-.87.64zm-4.48 12.4H179c-.35 0-.53-.3-.4-.64.12-.36.51-.65.87-.65h18.68c.35 0 .53.3.4.65-.13.35-.52.64-.87.64zm-.93 2.56h-18.68c-.35 0-.53-.29-.4-.64.13-.35.52-.64.87-.64h18.68c.35 0 .53.29.4.64-.12.35-.52.64-.87.64z" fill="#9EC8FF"/><path d="M179.22 66.12a.73.73 0 01-.17-.02.66.66 0 01-.43-.4l-1.29-3.2a.66.66 0 01.37-.86.65.65 0 01.85.37l.96 2.4 7.57-5.88a.65.65 0 01.92.12.66.66 0 01-.12.92l-8.26 6.41a.65.65 0 01-.4.14zm-5.25 14.54a.66.66 0 01-.6-.42l-1.29-3.2a.66.66 0 01.36-.86.65.65 0 01.85.36l.96 2.4 7.58-5.88a.65.65 0 01.92.12.66.66 0 01-.12.93l-8.26 6.4a.65.65 0 01-.4.15z" fill="#F37168"/><path d="M297.49 48.36h-71.75l1.85-5.13h71.75l-1.85 5.13zm-2.79 7.7h-71.75l1.86-5.13h71.75l-1.86 5.13zm-79.52 61.51h-52.7c-.68 0-1.04-.56-.79-1.26a1.99 1.99 0 011.71-1.26h52.69c.69 0 1.04.57.8 1.26a1.98 1.98 0 01-1.71 1.26zm-2.03 5.6h-52.69c-.68 0-1.04-.56-.8-1.26a1.99 1.99 0 011.72-1.26h52.68c.69 0 1.05.57.8 1.26a1.99 1.99 0 01-1.7 1.27z" fill="#9EC8FF"/><path d="M262.47 170.54c0-.89 10.65-30.52 3.45-49.6-5.04-13.35-5.84-29.38-5.84-29.38s-9.8 14.16-3.18 35.8c4.08 13.31 5.75 17 6.1 20.92.36 3.92-1.59 23.51-1.59 23.51l1.06-1.25z" fill="#9CD499"/><path d="M259.83 92.6a36.2 36.2 0 00-3.51 8.86c-1.47 5.64-2.5 14.71.9 25.8a606.64 606.64 0 003.35 10.58c1.73 5.34 2.52 7.78 2.76 10.41.3 3.43-1.1 18.39-1.5 22.53l.33-.38c.04-.2.16-.58.44-1.56 6.15-20.7 7.17-36.78 3.01-47.78-4.27-11.32-5.5-24.69-5.78-28.45zm1.58 79.52a.36.36 0 01-.13-.03.33.33 0 01-.2-.33c.03-.2 1.95-19.6 1.6-23.45-.23-2.55-1.02-4.97-2.73-10.27-.89-2.7-1.98-6.08-3.36-10.59-3.45-11.25-2.4-20.45-.9-26.2 1.62-6.22 4.03-9.73 4.13-9.88a.33.33 0 01.6.17c0 .16.84 16.13 5.8 29.29 2.7 7.13 3.24 16.54 1.61 27.96a139.97 139.97 0 01-4.6 20.23c-.22.76-.42 1.42-.43 1.54 0 .08-.03.14-.08.2l-1.06 1.24a.33.33 0 01-.25.12z" fill="#74B570"/><path d="M264.77 173.57c-1.59-32.95 6.2-50.93 22.11-65.18C302.8 94.14 303.5 90.4 303.5 90.4s-2.47 27.78-11.67 37.4c-9.2 9.62-22.64 16.74-24.58 21.73-1.95 4.99-1.24 21.73-1.24 21.73l-1.24 3.02v-.7z" fill="#9CD499"/><path d="M262.83 176.42c-.18-.53 3.36-30.81 16.27-32.59 12.9-1.78 15.92 1.25 24.76-.18 6.3-1.01 11.14-3.03 11.14-3.03s-3.35 8.59-14.86 12.12c-8.13 2.49-18.74-1.6-24.93-.54-6.2 1.07-9.38 14.42-9.38 14.42l-1.06 6.95-1.94 2.85z" fill="#9CD499"/><path d="M264.6 171.94a.33.33 0 01-.33-.3c-.02-.21-1.85-21.48 7.11-37.77 4.64-8.4 9.7-13.28 14.58-18 4.56-4.4 8.86-8.54 12.12-15.11a.33.33 0 01.44-.15c.17.08.23.28.15.45-3.32 6.67-7.66 10.86-12.26 15.29-4.85 4.68-9.87 9.52-14.46 17.84-8.86 16.1-7.05 37.18-7.03 37.4a.33.33 0 01-.3.35h-.03z" fill="#74B570"/><path d="M263.71 167.67a.33.33 0 01-.31-.42c3.38-11.75 7.27-18.61 12.22-21.58 4.43-2.66 9.01-1.84 13.86-.98 1.19.21 2.42.43 3.63.6 10.54 1.39 15.68-1.2 15.73-1.22a.33.33 0 01.44.14.33.33 0 01-.14.45c-.22.1-5.34 2.7-16.11 1.28-1.23-.17-2.47-.39-3.66-.6-4.73-.84-9.19-1.63-13.41.9-4.8 2.88-8.6 9.6-11.93 21.19a.32.32 0 01-.32.24zm16.9-45.68a.32.32 0 01-.27-.13.33.33 0 01.06-.47 39.5 39.5 0 0115.08-6.56.33.33 0 01.13.65 38.77 38.77 0 00-14.8 6.44.32.32 0 01-.2.07zm-10 14.33a.33.33 0 01-.28-.5c4.6-7.82 10-9.79 21.76-13.5a.33.33 0 01.4.22.33.33 0 01-.2.4c-11.6 3.67-16.92 5.6-21.4 13.22a.32.32 0 01-.28.16z" fill="#74B570"/><path d="M267.75 184.52h-7.9c-2.79 0-5.18-2-5.7-4.75l-2.55-13.41H276l-2.54 13.4a5.82 5.82 0 01-5.71 4.76z" fill="#F39892"/><path d="M275.38 169.78H252.4a.66.66 0 01-.65-.66c0-.37.29-.66.65-.66h23c.36 0 .65.3.65.66a.66.66 0 01-.66.66z" fill="#D54A41"/></svg>