<svg width="70" height="60" fill="none" xmlns="http://www.w3.org/2000/svg"><path d="M10.66 56.77c.05.6.23 1.03.53 1.3.3.26.72.39 1.29.39.62 0 1.09-.2 1.39-.62.3-.42.48-1.04.52-1.86h-2.93v-1.56h2.93a3.26 3.26 0 00-.56-1.85c-.32-.4-.78-.61-1.37-.61-.58 0-1.02.14-1.3.42-.3.27-.46.71-.51 1.33H8.74c.1-1.03.46-1.83 1.1-2.42a3.73 3.73 0 012.61-.89 3.52 3.52 0 013.38 2.12c.32.68.48 1.48.48 2.38v.61c0 1.38-.34 2.48-1.02 3.28-.68.8-1.62 1.21-2.81 1.21-1.1 0-1.98-.29-2.64-.87a3.35 3.35 0 01-1.1-2.36h1.92zm7.4 3.1v-9.34h3.25c1.12 0 1.98.22 2.56.65.58.44.87 1.07.87 1.9 0 .47-.11.87-.35 1.22a2.03 2.03 0 01-.97.77c.47.12.85.36 1.12.72.28.36.41.8.41 1.34 0 .9-.28 1.57-.85 2.04-.57.46-1.38.7-2.44.7h-3.6zm1.9-4.07v2.52h1.65c.45 0 .8-.1 1.05-.32.25-.21.38-.51.38-.9 0-.85-.44-1.29-1.32-1.3h-1.75zm0-1.36h1.42c.97-.01 1.45-.4 1.45-1.16 0-.42-.12-.73-.37-.91-.24-.19-.63-.28-1.15-.28h-1.34v2.35zm8.74 2.14v3.3h-1.91v-9.35h3.62c.7 0 1.3.13 1.83.38.53.26.94.63 1.23 1.1.28.47.42 1 .42 1.61a2.7 2.7 0 01-.93 2.17c-.62.53-1.48.79-2.58.79H28.7zm0-1.56h1.7c.51 0 .9-.12 1.16-.36.27-.24.4-.58.4-1.03 0-.45-.13-.82-.4-1.1a1.5 1.5 0 00-1.1-.44H28.7v2.93zm12.47-4.5h1.92v9.35h-1.92v-6.2l-3.72 6.2h-1.9v-9.34h1.9v6.22l3.72-6.22zm7 5.53h-1.1v3.82h-1.92v-9.34h1.92v3.74h.87l2.27-3.74h2.33l-2.86 4.42 3.16 4.92h-2.28l-2.4-3.82zm11.04 1.9h-3.35l-.64 1.92H53.2l3.45-9.34h1.78l3.47 9.34h-2.03l-.65-1.92zm-2.83-1.56h2.32l-1.17-3.5-1.15 3.5z" fill="#1890FF"/><path d="M47.55 12a.74.74 0 11-1.2-.86.74.74 0 011.2.87zm-1.46 12.23a2.4 2.4 0 01-3.37.54 2.41 2.41 0 01-.53-3.37 2.4 2.4 0 013.36-.53 2.41 2.41 0 01.54 3.36zm-8.55 7.7a2.4 2.4 0 01-3.36.53 2.41 2.41 0 01-.54-3.36 2.4 2.4 0 013.36-.54 2.41 2.41 0 01.54 3.37zm-14.14-8.8a2.78 2.78 0 01-3.89.61 2.78 2.78 0 01-.61-3.88 2.78 2.78 0 013.88-.62 2.78 2.78 0 01.62 3.89zm16.5-7.51a3.95 3.95 0 01-5.52.88 3.96 3.96 0 01-.88-5.53 3.95 3.95 0 015.52-.88 3.96 3.96 0 01.88 5.53zm-12.28-3.6a.95.95 0 11-1.54-1.12.95.95 0 011.54 1.11zm25.69-4.38a2.1 2.1 0 01-2.94.46 2.1 2.1 0 01-.46-2.93 2.1 2.1 0 012.93-.47 2.1 2.1 0 01.47 2.94zm-33.2 5.69a1.67 1.67 0 01-2.32.37 1.67 1.67 0 01-.37-2.33 1.67 1.67 0 012.33-.37 1.67 1.67 0 01.37 2.33zm9.3-9.9c-.44.6-1.29.74-1.9.3a1.36 1.36 0 011.6-2.2 1.36 1.36 0 01.3 1.9zm24.61 17.86a1.67 1.67 0 01-2.33.37 1.67 1.67 0 01-.37-2.33 1.67 1.67 0 112.7 1.96zm-20.7 1.62a1.67 1.67 0 01-2.33.37 1.67 1.67 0 011.96-2.7 1.67 1.67 0 01.37 2.33z" fill="#F68652"/><path d="M21.29 21.39l14.28 8.92 8.52-7.65 8.4-2.48-1.04-13.66L37.58 1.9l-9.2.89-9.43 9.6 2.34 9zm14.32 9.33l-.1-.07L21 21.6l-.02-.07-2.4-9.23.06-.07 9.58-9.76 9.38-.9h.04l14.11 4.7 1.09 14.16-8.63 2.54-8.61 7.75z" fill="#F68652"/><path d="M37 13.41l7.06 9.04 2.66-10.67L37 13.4zm7.22 9.78l-7.83-10.01 10.42-1.75.07-.27.09.14 4.51-5.01.25.22-4.57 5.08 5.65 8.63-.28.18-5.51-8.42-2.8 11.21z" fill="#F68652"/><path d="M27.21 11.35l9.34 1.75.85-10.96-10.19 9.21zm-.06.33l4.83 9.89 4.46-8.15-9.3-1.74zm-5.72 9.66l10.27.41-4.86-9.94-5.41 9.53zm10.72.6l3.32 7.86 1.01-15.77-4.33 7.9zm3.56 9.29l-3.85-9.14-11-.44.14-.24 5.66-9.96-.01-.04.07-.06.05-.08h.03l11-9.94-.94 11.98-1.15 17.91z" fill="#F68652"/><path d="M46.83 11.69l-9.35-9.84.24-.23 9.35 9.84-.24.23zm-28.04.82l-.04-.33 7.96-.88 1.44-8.7.33.05L27 11.6l-8.21.91z" fill="#F68652"/><path d="M69.74 22.65a46 46 0 00-20.17 8A58.02 58.02 0 0035 45.24a55.82 55.82 0 0116.66-10.82A39.45 39.45 0 0170 31.29l-.26-8.64zm-49.31 8a46 46 0 00-20.17-8L0 31.3c5.98-.47 12.35.59 18.34 3.14A55.83 55.83 0 0135 45.24a58 58 0 00-14.57-14.6z" fill="#1890FF"/><path d="M65.2 32.6a47.17 47.17 0 00-17.53 5.38A46.48 46.48 0 0035 47.82a51.71 51.71 0 0114.48-7.29 43.26 43.26 0 0115.94-2.11l-.22-5.83zm-42.87 5.38c-5.01-2.74-11-4.7-17.53-5.39l-.22 5.82c5.2-.3 10.74.4 15.94 2.12A51.68 51.68 0 0135 47.83a46.47 46.47 0 00-12.67-9.85zM39 2.75A1.73 1.73 0 1136.2.7 1.73 1.73 0 0138.6.33c.78.56.95 1.64.39 2.42z" fill="#F68652"/></svg>