<svg fill="none" xmlns="http://www.w3.org/2000/svg" viewBox="0 0 18 16"><path d="M17.9 3.05a.59.59 0 00-.45-.23L6.28 2.36a.56.56 0 00-.6.53c-.01.3.23.55.55.56l10.41.43L14.6 9.9H5.5L3.84 1.45a.55.55 0 00-.36-.41L.8.04a.59.59 0 00-.75.3c-.12.29.03.6.33.71l2.4.9 1.67 8.6A.57.57 0 005 11h.28l-.63 1.66a.43.43 0 00.06.42.49.49 0 00.4.2h.44c-.28.28-.45.66-.45 1.08 0 .9.78 1.64 1.73 1.64.96 0 1.74-.73 1.74-1.64 0-.42-.17-.8-.45-1.09h3.78c-.28.3-.45.67-.45 1.1 0 .9.78 1.63 1.74 1.63.95 0 1.73-.73 1.73-1.64 0-.42-.17-.8-.45-1.09h.55a.47.47 0 00.48-.45.47.47 0 00-.48-.46H5.79L6.3 11H15a.57.57 0 00.56-.38l2.4-7.09a.52.52 0 00-.07-.48zM6.83 15.1c-.42 0-.77-.32-.77-.73 0-.4.35-.72.77-.72.43 0 .77.32.77.72 0 .4-.34.73-.77.73zm6.36 0a.75.75 0 01-.77-.73c0-.4.34-.72.77-.72.42 0 .77.32.77.72 0 .4-.35.73-.77.73z" fill="#1B1A17"/></svg>