<svg fill="none" xmlns="http://www.w3.org/2000/svg" viewBox="0 0 130 35"><path d="M39.56 16.9a3.82 3.82 0 012.57.9c.1.09.2.13.27.13.19 0 .3-.28.36-.84h.33c-.04.63-.06 1.76-.06 3.39h-.32a7 7 0 00-.34-1.59 2.26 2.26 0 00-.71-.95 2.29 2.29 0 00-.81-.5 2.61 2.61 0 00-.97-.18c-.94 0-1.64.46-2.1 1.38a7.64 7.64 0 00-.69 3.43c0 1.36.24 2.5.72 3.42s1.18 1.37 2.13 1.37c.31 0 .63-.06.93-.17a2.15 2.15 0 00.8-.52 2 2 0 00.72-.98c.14-.39.24-.96.32-1.72h.32c0 1.7.02 2.87.06 3.53h-.33c-.02-.3-.07-.5-.12-.63-.05-.13-.12-.2-.21-.2a.6.6 0 00-.3.12 3.8 3.8 0 01-2.59.91 5.4 5.4 0 01-2.6-.6 4.23 4.23 0 01-1.72-1.74 5.7 5.7 0 01-.62-2.73c0-1.03.21-1.94.63-2.73a4.58 4.58 0 011.75-1.85 5.04 5.04 0 012.58-.66zm11.83 0c.99 0 1.85.2 2.59.6a4.18 4.18 0 011.74 1.74c.4.76.61 1.67.61 2.72 0 1.03-.2 1.94-.63 2.73a4.55 4.55 0 01-1.76 1.85c-.75.44-1.6.66-2.57.66a5.4 5.4 0 01-2.6-.6 4.23 4.23 0 01-1.72-1.74 5.7 5.7 0 01-.62-2.73c0-1.03.21-1.94.63-2.73a4.58 4.58 0 011.75-1.85 5.04 5.04 0 012.58-.66zm-.06.24c-.51 0-.96.21-1.35.63-.4.41-.7 1-.91 1.74-.21.75-.31 1.6-.31 2.56 0 .97.11 1.83.35 2.56.24.74.56 1.31.96 1.71.41.4.87.6 1.36.6.51 0 .97-.2 1.36-.61.4-.42.69-1 .9-1.75.21-.75.32-1.6.32-2.56a8.2 8.2 0 00-.37-2.57 4.04 4.04 0 00-.96-1.7c-.4-.4-.85-.6-1.35-.6zm17.16.23c-.31.04-.54.12-.7.24a.92.92 0 00-.29.53c-.04.24-.07.6-.07 1.08v7.8h-.71l-6.07-7.7v5.38c0 .55.02.96.08 1.22.06.25.18.44.36.56.19.11.5.2.91.24V27a20.92 20.92 0 00-1.5-.04c-.52 0-.93.01-1.23.04v-.28c.31-.05.53-.13.67-.24a.82.82 0 00.3-.53c.05-.24.08-.6.08-1.08v-6.3c0-.35-.03-.6-.08-.77a.46.46 0 00-.3-.32c-.14-.06-.36-.1-.67-.11v-.28a13.77 13.77 0 002.42 0l5.42 6.68v-4.39c0-.55-.02-.95-.08-1.2a.81.81 0 00-.37-.56c-.18-.12-.49-.2-.9-.25v-.28a20.92 20.92 0 002.72 0v.28zM81.7 26.9c-.16 1.06-.48 1.79-.97 2.19a2.2 2.2 0 01-.78.39 3.22 3.22 0 01-1.02.15c-.5 0-1-.08-1.5-.24a20.16 20.16 0 01-1.8-.71 57.58 57.58 0 01-.6-.25 54.96 54.96 0 00-.7-.28l-.33-.1a2.31 2.31 0 01-.59.21 2.23 2.23 0 01-.59.08 1 1 0 01-.47-.1c-.12-.05-.18-.14-.18-.26 0-.25.25-.38.77-.38.34 0 .7.07 1.06.2.32-.1.65-.22 1-.38l.3-.13.35-.12a5.05 5.05 0 01-2.28-.76 4.3 4.3 0 01-1.5-1.73 5.89 5.89 0 01-.52-2.55c0-1.03.21-1.94.63-2.73a4.58 4.58 0 011.75-1.85 5.04 5.04 0 012.58-.66c.99 0 1.85.2 2.59.6a4.18 4.18 0 011.74 1.75c.4.76.61 1.67.61 2.72 0 .99-.2 1.88-.59 2.66a4.55 4.55 0 01-1.65 1.83c-.7.45-1.52.7-2.42.73a3.41 3.41 0 00-.6.13 7.3 7.3 0 00-.63.24c-.3.13-.59.23-.87.32l1.13.1c1.19.1 2.04.15 2.57.15a8 8 0 001.05-.07 3.7 3.7 0 001.37-.38c.33-.18.61-.46.84-.84l.25.07zm-8.02-4.83c0 .97.11 1.83.35 2.56.24.74.56 1.31.96 1.71.41.4.87.6 1.36.6.51 0 .97-.2 1.36-.61.4-.42.69-1 .9-1.75.21-.75.32-1.6.32-2.56a8.2 8.2 0 00-.37-2.57 4.04 4.04 0 00-.96-1.7c-.4-.4-.85-.6-1.35-.6-.5 0-.96.2-1.35.62-.4.41-.7 1-.91 1.74-.2.75-.31 1.6-.31 2.56zm19.46-4.7c-.3.05-.54.12-.69.24a.92.92 0 00-.3.53c-.04.24-.06.6-.06 1.08v3.7c0 1.34-.2 2.33-.58 2.97a2.57 2.57 0 01-1.09.97 4.1 4.1 0 01-1.75.34 4 4 0 01-2.52-.7 2.52 2.52 0 01-.86-1.3 8.64 8.64 0 01-.23-2.23v-4.4c0-.35-.03-.6-.08-.77a.46.46 0 00-.3-.32c-.14-.06-.36-.1-.67-.11v-.28c.48.03 1.2.04 2.19.04.97 0 1.7-.01 2.22-.04v.28a2.9 2.9 0 00-.74.11.5.5 0 00-.3.32c-.07.16-.1.42-.1.77v5.28c0 .98.15 1.7.43 2.17.29.46.8.69 1.5.69.94 0 1.6-.32 1.98-.94.39-.64.58-1.53.58-2.69v-3.7c0-.54-.04-.94-.1-1.2a.86.86 0 00-.38-.56c-.19-.12-.48-.2-.88-.25v-.28a20.58 20.58 0 002.73 0v.28zm10.37 7.5c0 .86.03 1.57.1 2.13a83.5 83.5 0 00-3.21-.04c-2.04 0-3.56.01-4.57.04v-.28c.31-.02.54-.06.68-.11a.46.46 0 00.29-.32c.06-.16.08-.42.08-.77v-6.95c0-.35-.02-.6-.08-.77a.46.46 0 00-.3-.32c-.13-.06-.36-.1-.67-.11v-.28a180.15 180.15 0 007.5 0 24.65 24.65 0 00-.1 2.07c0 .41.01.73.04.95h-.32c-.14-1-.4-1.7-.76-2.1s-.88-.6-1.54-.6h-.57c-.3 0-.5.02-.63.07a.42.42 0 00-.27.28c-.05.13-.07.34-.07.64v3.48h.45c.5 0 .87-.19 1.12-.55.26-.36.44-.8.54-1.3h.33c-.03.39-.05.83-.05 1.31v.68c0 .47.03 1.14.09 1.98h-.32c-.2-1.23-.77-1.84-1.71-1.84h-.45v3.52c0 .3.02.52.07.66a.42.42 0 00.27.27c.13.05.34.07.63.07h.68c.66 0 1.2-.23 1.6-.67.4-.46.7-1.23.87-2.31h.32c-.03.3-.04.7-.04 1.17zm6.66-7.96c.48 0 .87.04 1.16.14.29.09.58.22.88.4l.27.14a.54.54 0 00.2.06c.1 0 .16-.05.2-.14.05-.1.09-.26.12-.48h.32c-.05.63-.07 1.7-.07 3.2h-.32a4.5 4.5 0 00-.35-1.45 2.66 2.66 0 00-.82-1.1 1.84 1.84 0 00-1.21-.44c-.46 0-.84.13-1.12.4-.28.25-.42.6-.42 1.03 0 .33.07.61.2.85.15.25.34.47.6.68.24.2.63.46 1.15.8l.45.32c.55.36.99.68 1.3.95a3.3 3.3 0 01.78.95c.2.35.3.77.3 1.25 0 .6-.15 1.1-.46 1.5-.3.4-.73.71-1.26.92a4.75 4.75 0 01-1.75.3 5.1 5.1 0 01-1.3-.13 4.29 4.29 0 01-.95-.38c-.2-.13-.37-.2-.48-.2-.08 0-.15.05-.2.16-.04.09-.08.24-.1.46h-.33c.04-.59.06-1.85.06-3.78h.32c.06 1.04.3 1.9.7 2.55.4.64 1.02.96 1.85.96.5 0 .92-.13 1.24-.4.33-.27.5-.66.5-1.17 0-.52-.18-.97-.51-1.34-.34-.37-.87-.8-1.6-1.26a16.77 16.77 0 01-1.34-.95 3.48 3.48 0 01-.83-.95 2.53 2.53 0 01-.32-1.3c0-.55.14-1.02.42-1.4a2.55 2.55 0 011.15-.87c.47-.2 1-.28 1.57-.28zm15.14.18c-.06.88-.1 1.68-.1 2.38 0 .44.02.8.05 1.06h-.32a5.53 5.53 0 00-.93-2.42c-.38-.47-.9-.7-1.58-.7h-.32v8c0 .39.04.67.11.85a.68.68 0 00.42.36c.2.06.53.1.97.1V27a121.7 121.7 0 00-2.66-.04c-.6 0-1.45.01-2.57.04v-.28c.44-.01.76-.04.96-.1a.63.63 0 00.42-.36c.08-.18.12-.46.12-.86v-7.99h-.3c-.45 0-.84.1-1.15.3-.31.19-.58.52-.8.97a7.64 7.64 0 00-.58 1.85h-.32c.03-.27.04-.62.04-1.06 0-.7-.03-1.5-.1-2.38.86.03 2.3.04 4.33.04 2.04 0 3.47-.01 4.31-.04z" fill="#fff"/><path d="M27.18 11.54a11.55 11.55 0 01-4.72 15.64 11.5 11.5 0 01-6.8 1.3 11.54 11.54 0 01-8.84-6.02 11.56 11.56 0 014.72-15.64 11.52 11.52 0 0110.24-.34 11.5 11.5 0 015.4 5.06z" stroke="url(#paint0_linear)" stroke-width="2"/><defs><linearGradient id="paint0_linear" x1="4.91" y1="15.34" x2="31.35" y2="17" gradientUnits="userSpaceOnUse"><stop offset=".29" stop-color="#fff"/><stop offset=".78" stop-color="#fff" stop-opacity="0"/></linearGradient></defs></svg>