<svg fill="none" xmlns="http://www.w3.org/2000/svg" viewBox="0 0 21 18"><path d="M19.97 5.77a5.23 5.23 0 00-9.52-2.48 5.15 5.15 0 00-9.42 2.48c-.02.12-.11.77.16 1.81a7.68 7.68 0 002.63 3.98L10.44 17l6.74-5.44a7.67 7.67 0 002.63-3.98c.27-1.04.18-1.69.16-1.8zm-.87 1.66a7.03 7.03 0 01-2.41 3.64l-6.24 5.04-6.13-5.04A7.03 7.03 0 011.9 7.43c-.26-.99-.16-1.55-.16-1.55v-.04a4.46 4.46 0 014.42-4.18 4.3 4.3 0 013.94 2.49l.34.72.33-.72a4.44 4.44 0 014.05-2.49c2.32 0 4.18 1.76 4.42 4.21 0 .01.1.57-.16 1.56z" fill="#1B1A17" stroke="#1B1A17" stroke-width=".75"/></svg>