<svg fill="none" xmlns="http://www.w3.org/2000/svg" viewBox="0 0 23 24"><path d="M6.66.67A6.64 6.64 0 000 7.28v9.56c0 3.65 2.99 6.6 6.66 6.6h9.68a6.64 6.64 0 006.66-6.6V7.28a6.64 6.64 0 00-6.66-6.6H6.66zm0 1.96h9.68a4.64 4.64 0 014.69 4.65v9.56c0 2.6-2.07 4.65-4.69 4.65H6.66a4.64 4.64 0 01-4.69-4.65V7.28c0-2.6 2.07-4.65 4.69-4.65zM17.67 4.6c-.76 0-1.38.61-1.38 1.37 0 .76.62 1.37 1.38 1.37.76 0 1.38-.61 1.38-1.37 0-.76-.62-1.37-1.38-1.37zm-6.17 1.6c-3.25 0-5.9 2.64-5.9 5.87a5.9 5.9 0 0011.8 0 5.9 5.9 0 00-5.9-5.86zm0 1.96a3.9 3.9 0 110 7.82 3.9 3.9 0 110-7.82z" fill="#5C5C50"/></svg>