<svg fill="none" xmlns="http://www.w3.org/2000/svg" viewBox="0 0 98 20"><path d="M27.14 6.34a3.27 3.27 0 012.2.78c.1.07.17.1.23.1.16 0 .27-.24.31-.72h.28c-.03.52-.05 1.44-.05 2.76h-.27c-.1-.52-.17-.89-.24-1.11a1.98 1.98 0 00-.36-.66 2.17 2.17 0 00-.93-.7 2.98 2.98 0 00-1.2-.24 2 2 0 00-1.37.52c-.38.34-.68.83-.9 1.47a6.91 6.91 0 00-.32 2.24c0 .87.12 1.62.35 2.24.23.62.55 1.1.96 1.43.41.32.88.48 1.4.48.4 0 .79-.08 1.17-.23a1.96 1.96 0 00.88-.68c.16-.23.28-.47.35-.72.07-.26.14-.65.2-1.18h.28c0 1.38.02 2.34.05 2.88h-.28a1.83 1.83 0 00-.1-.54c-.04-.11-.1-.17-.18-.17a.53.53 0 00-.26.1c-.36.25-.7.45-1.03.59-.33.12-.72.19-1.19.19a3.5 3.5 0 01-3.34-2 5.4 5.4 0 01-.46-2.35c0-.88.16-1.66.48-2.34.33-.68.78-1.2 1.36-1.58a3.58 3.58 0 011.98-.56zm9.94 0c.76 0 1.42.17 1.99.51.58.35 1.02.85 1.33 1.5.32.65.48 1.43.48 2.33a5.3 5.3 0 01-.49 2.34 3.7 3.7 0 01-1.36 1.58c-.57.38-1.23.57-1.96.57a3.5 3.5 0 01-3.34-2 5.4 5.4 0 01-.47-2.35c0-.88.16-1.66.48-2.34.33-.68.78-1.2 1.36-1.58a3.58 3.58 0 011.98-.56zm-.05.21c-.51 0-.96.18-1.36.54-.38.35-.68.85-.9 1.49a7.1 7.1 0 00-.3 2.2c0 .83.1 1.56.34 2.2.24.62.56 1.11.96 1.46a2 2 0 002.69-.02c.39-.36.69-.86.9-1.5.21-.64.32-1.37.32-2.2 0-.82-.12-1.56-.36-2.19a3.45 3.45 0 00-.95-1.46 2 2 0 00-1.34-.52zm14.12.2c-.28.01-.5.05-.63.13a.51.51 0 00-.27.33c-.05.15-.08.38-.08.69v7.16h-.27l-5.04-7.79v6.34c0 .31.02.54.07.7.06.15.16.26.31.33.15.06.4.1.71.12V15a15.76 15.76 0 00-1.22-.04c-.48 0-.86.02-1.12.04v-.24c.28-.02.49-.06.62-.12a.55.55 0 00.28-.34c.05-.16.07-.39.07-.7V7.79c0-.3-.02-.53-.07-.66a.43.43 0 00-.27-.28 2.3 2.3 0 00-.63-.1V6.5a13.15 13.15 0 002.05 0l4.24 6.53V7.9a2 2 0 00-.09-.7.5.5 0 00-.3-.32 1.98 1.98 0 00-.7-.14V6.5a15.76 15.76 0 002.34 0v.24zm11.18 8.6c-.17.6-.42 1.06-.75 1.37-.4.36-.93.54-1.62.54-.37 0-.73-.06-1.08-.17a13.2 13.2 0 01-1.33-.53 20.4 20.4 0 00-1.46-.58l-.28-.08c-.35.12-.68.18-1 .18-.37 0-.55-.08-.55-.24 0-.17.21-.25.65-.25.28 0 .58.03.9.1.25-.08.55-.19.88-.34.21-.1.37-.17.47-.2a3.57 3.57 0 01-1.77-.64 3.6 3.6 0 01-1.17-1.48 5.55 5.55 0 01-.4-2.2c0-.89.15-1.67.47-2.35.33-.68.78-1.2 1.36-1.58a3.58 3.58 0 011.98-.56c.76 0 1.42.17 2 .51.57.35 1.01.85 1.32 1.5.32.65.48 1.43.48 2.33a5.5 5.5 0 01-.43 2.23c-.29.65-.7 1.17-1.21 1.56a3.51 3.51 0 01-1.79.67v.02c-.2.02-.36.05-.5.1l-.56.2a5.96 5.96 0 01-.71.28c.88.18 1.64.32 2.25.42.63.1 1.14.16 1.55.16a2.9 2.9 0 001.34-.25c.34-.16.6-.43.78-.8l.18.08zm-7.32-4.57c0 .83.12 1.56.35 2.2.24.62.56 1.11.96 1.46a2 2 0 002.69-.02c.4-.36.7-.86.9-1.5.22-.64.32-1.37.32-2.2 0-.82-.12-1.56-.36-2.19a3.45 3.45 0 00-.94-1.46 2 2 0 00-1.35-.52c-.51 0-.96.18-1.35.54-.39.35-.69.85-.9 1.49a7.1 7.1 0 00-.32 2.2zm16.53-4.04c-.28.02-.49.06-.62.14a.51.51 0 00-.28.33c-.05.15-.07.38-.07.69v3.6a8 8 0 01-.12 1.5c-.07.4-.2.76-.37 1.05-.2.35-.5.62-.9.82-.38.2-.81.3-1.3.3-.88 0-1.55-.22-2.02-.65a2.44 2.44 0 01-.7-1.12 7.18 7.18 0 01-.18-1.86V7.78c0-.3-.03-.53-.08-.66a.43.43 0 00-.27-.28 2.3 2.3 0 00-.63-.1V6.5a24.84 24.84 0 003.06 0v.24c-.28.02-.5.05-.63.1a.43.43 0 00-.27.28c-.04.13-.07.35-.07.66v3.97c0 .64.05 1.17.13 1.6.1.42.27.76.54 1.01.28.26.7.39 1.23.39.85 0 1.44-.27 1.79-.82.34-.54.51-1.3.51-2.29V7.9c0-.44-.08-.73-.24-.9-.15-.15-.43-.24-.85-.26V6.5a15.76 15.76 0 002.34 0v.24zm8.65 6.72c0 .46.03.97.08 1.54a71.54 71.54 0 00-2.75-.04c-1.53 0-2.7.02-3.48.04v-.24c.3-.02.5-.05.63-.1a.43.43 0 00.27-.27c.05-.14.08-.36.08-.66V7.78c0-.3-.03-.53-.08-.66a.43.43 0 00-.27-.28 2.3 2.3 0 00-.63-.1V6.5a123.72 123.72 0 006 0 13.57 13.57 0 00-.06 2.16h-.27c-.06-.52-.13-.9-.22-1.15a.94.94 0 00-.44-.55c-.2-.12-.53-.18-.95-.18h-1c-.28 0-.5.02-.63.07a.4.4 0 00-.26.27 2 2 0 00-.08.66v2.83h.8c.28 0 .5-.07.64-.2a.96.96 0 00.3-.46 4 4 0 00.14-.69l.03-.24h.28c-.03.34-.04.72-.04 1.13v.58c0 .4.03.97.07 1.7h-.27a49.51 49.51 0 01-.07-.57 1.17 1.17 0 00-.34-.76 1.03 1.03 0 00-.74-.25h-.8v2.88c0 .3.03.52.08.66a.43.43 0 00.26.27c.14.04.35.06.64.06h.87c.5 0 .87-.06 1.13-.19.26-.13.46-.35.58-.63.12-.3.2-.73.26-1.3h.27a8.2 8.2 0 00-.03.86zm5.42-7.09a2.3 2.3 0 011.46.45 1 1 0 00.4.16c.08 0 .14-.04.18-.12.04-.08.07-.22.1-.4h.27c-.04.46-.06 1.28-.06 2.44h-.28a3.04 3.04 0 00-.56-1.63 1.62 1.62 0 00-1.4-.67c-.44 0-.79.13-1.06.4a1.3 1.3 0 00-.41 1c0 .3.07.56.2.78.15.23.33.42.54.58.22.16.53.36.93.61l.35.22c.5.31.9.59 1.18.83.3.23.54.5.71.8.18.3.27.66.27 1.07 0 .73-.24 1.29-.72 1.69-.48.4-1.1.59-1.83.59-.38 0-.7-.04-.95-.12a3.43 3.43 0 01-.7-.33c-.17-.1-.3-.16-.4-.16-.07 0-.13.04-.17.13a1.5 1.5 0 00-.1.4h-.27c.03-.45.05-1.4.05-2.89h.27c.06.81.26 1.47.6 1.97s.88.76 1.59.76c.43 0 .8-.13 1.1-.4.3-.27.46-.67.46-1.2 0-.45-.15-.83-.46-1.14a7 7 0 00-1.41-1.05 14.27 14.27 0 01-1.16-.77 2.83 2.83 0 01-.7-.8 2.2 2.2 0 01-.28-1.12c0-.67.22-1.19.65-1.54.43-.36.97-.54 1.6-.54zm12.19.13a15.8 15.8 0 00-.05 2.52h-.28a7.22 7.22 0 00-.24-1.36 1.1 1.1 0 00-.5-.66 2.2 2.2 0 00-1.1-.22h-.65v6.83c0 .33.03.58.1.73a.54.54 0 00.33.31 3 3 0 00.78.11V15a32.75 32.75 0 00-1.76-.04c-.8 0-1.4.02-1.78.04v-.24a3 3 0 00.78-.1.54.54 0 00.34-.32c.06-.15.1-.4.1-.73V6.78h-.66c-.5 0-.86.07-1.1.22-.24.13-.4.35-.5.66-.1.3-.18.75-.24 1.36h-.28a15.8 15.8 0 00-.05-2.52c.67.03 1.8.04 3.39.04a89 89 0 003.37-.04z" fill="#555248"/><path d="M18.01 5.7A9.1 9.1 0 0114.29 18a9.05 9.05 0 01-5.35 1.02A9.1 9.1 0 015.69 1.98a9.07 9.07 0 018.06-.27 9.05 9.05 0 014.26 3.98z" stroke="url(#paint0_linear)"/><defs><linearGradient id="paint0_linear" x1=".76" y1="8.72" x2="20.96" y2="9.99" gradientUnits="userSpaceOnUse"><stop offset=".29" stop-color="#555248"/><stop offset=".78" stop-color="#1B1A17" stop-opacity="0"/></linearGradient></defs></svg>