<svg fill="none" xmlns="http://www.w3.org/2000/svg" viewBox="0 0 22 18"><path d="M22 2.39a9.35 9.35 0 01-2.6.68 4.37 4.37 0 002-2.39 9.28 9.28 0 01-2.87 1.05 4.6 4.6 0 00-3.3-1.36 4.42 4.42 0 00-4.51 4.31c0 .34.04.67.12.98a13.02 13.02 0 01-9.3-4.5 4.14 4.14 0 00-.62 2.16c0 1.5.8 2.82 2.01 3.6a4.65 4.65 0 01-2.05-.55v.06a4.37 4.37 0 003.63 4.23 4.71 4.71 0 01-2.04.07 4.5 4.5 0 004.21 3 9.33 9.33 0 01-5.6 1.84A9.67 9.67 0 010 15.51a13.21 13.21 0 006.92 1.94A12.46 12.46 0 0019.75 4.62 8.97 8.97 0 0022 2.4" fill="#5C5C50"/></svg>