<svg fill="none" xmlns="http://www.w3.org/2000/svg" viewBox="0 0 267 67"><path d="M35.6 28.51c0 .04-.06.07-.18.09-.1.02-.16 0-.18-.06a4.58 4.58 0 00-1.62-2.58 4.94 4.94 0 00-3-.84h-.9c-.6 0-1.04.13-1.32.39s-.42.66-.42 1.2v6.48h2.16c1.16 0 2.04-.2 2.64-.6.62-.42.93-.99.93-1.71 0-.04.06-.06.18-.06s.18.02.18.06l-.03 2.73c0 .64.01 1.12.03 1.44l.03 1.59c0 .06-.06.09-.18.09s-.18-.03-.18-.09c0-.8-.32-1.43-.96-1.89a4.29 4.29 0 00-2.67-.72h-2.13v6.42c0 .62.08 1.08.24 1.38.16.3.46.51.9.63a8.6 8.6 0 002.07.18c.04 0 .06.06.06.18s-.02.18-.06.18c-.82 0-1.46-.01-1.92-.03l-3.06-.03-2.25.03c-.4.02-.95.03-1.65.03-.06 0-.09-.06-.09-.18s.03-.18.1-.18c.7 0 1.2-.05 1.52-.15a.9.9 0 00.63-.57c.12-.3.18-.75.18-1.35V26.68c0-.6-.05-1.04-.15-1.32a.9.9 0 00-.6-.57c-.3-.12-.76-.18-1.38-.18-.06 0-.09-.06-.09-.18s.03-.18.1-.18h12.71c.2 0 .3.09.3.27l.06 3.99zm25.17 14.13c.1 0 .15.06.15.18s-.05.18-.15.18c-.4 0-1.02-.02-1.86-.06a33.83 33.83 0 00-3.72 0c-.68.04-1.22.06-1.62.06-.08 0-.12-.06-.12-.18s.04-.18.12-.18c.52 0 .9-.05 1.11-.15a.62.62 0 00.36-.6c0-.34-.2-.91-.6-1.71l-3.12-6.15h-5.34l-2.13 4.71a3.98 3.98 0 00-.39 1.62c0 .72.25 1.28.75 1.68.52.4 1.21.6 2.07.6.1 0 .15.06.15.18s-.05.18-.15.18c-.36 0-.88-.02-1.56-.06a38.34 38.34 0 00-3.93 0c-.68.04-1.23.06-1.65.06-.08 0-.12-.06-.12-.18s.04-.18.12-.18c.56 0 1.03-.11 1.41-.33.38-.24.76-.65 1.14-1.23.38-.6.83-1.48 1.35-2.64l6.51-14.31c.04-.06.13-.09.27-.09.16 0 .25.03.27.09l7.5 14.76c.7 1.42 1.28 2.4 1.74 2.94.46.54.94.81 1.44.81zm-14.4-9.45h4.53l-2.4-4.74-2.13 4.74zm22.59-5.91c0 .72.18 1.36.54 1.92.38.56.84 1.05 1.38 1.47.54.42 1.27.93 2.19 1.53 1 .64 1.8 1.2 2.4 1.68.6.48 1.1 1.07 1.53 1.77.42.68.63 1.47.63 2.37 0 1.04-.28 1.97-.84 2.79a5.67 5.67 0 01-2.34 1.89c-.98.44-2.08.66-3.3.66-.9 0-1.84-.12-2.82-.36a5.22 5.22 0 01-1.98-.84l-.24-.21a.84.84 0 01-.06-.36l-.1-4.77v-.03c0-.08.06-.12.16-.12.1-.02.16.01.18.09.6 1.22 1.12 2.21 1.56 2.97a8.22 8.22 0 001.7 2.01c.7.58 1.5.87 2.38.87.8 0 1.46-.21 1.98-.63.52-.44.78-1.18.78-2.22 0-.88-.2-1.65-.6-2.31a6.07 6.07 0 00-1.41-1.68 27.15 27.15 0 00-2.31-1.65 26.15 26.15 0 01-2.25-1.59 6.54 6.54 0 01-1.35-1.59 4.1 4.1 0 01-.57-2.19c0-1.06.3-1.95.9-2.67a5.36 5.36 0 012.37-1.62 8.56 8.56 0 013.03-.54c.7 0 1.4.07 2.13.21.72.12 1.3.27 1.74.45.18.08.3.17.36.27.06.08.09.19.09.33v4.41c0 .06-.05.11-.15.15-.1.02-.16 0-.18-.06l-.24-.57a13.16 13.16 0 00-1.77-3.21 3.28 3.28 0 00-2.8-1.32c-.8 0-1.45.23-1.97.69-.5.46-.75 1.13-.75 2.01zm35.18 15.36c.06 0 .09.06.09.18s-.03.18-.1.18c-.7 0-1.25-.01-1.67-.03l-2.31-.03-2.7.03c-.36.02-.85.03-1.47.03-.06 0-.1-.06-.1-.18s.04-.18.1-.18c.74 0 1.28-.05 1.62-.15a1 1 0 00.69-.57c.12-.28.18-.73.18-1.35v-6.9h-9.7v6.9c0 .6.07 1.05.19 1.35a1 1 0 00.69.57c.34.1.88.15 1.62.15.04 0 .06.06.06.18s-.02.18-.06.18c-.7 0-1.26-.01-1.68-.03l-2.61-.03-2.25.03c-.4.02-.95.03-1.65.03-.04 0-.06-.06-.06-.18s.02-.18.06-.18c.7 0 1.2-.05 1.53-.15a1 1 0 00.66-.57c.12-.3.18-.75.18-1.35V26.68c0-.6-.06-1.04-.18-1.32a1 1 0 00-.66-.57 4.3 4.3 0 00-1.47-.18c-.06 0-.1-.06-.1-.18s.04-.18.1-.18l1.62.03a53.53 53.53 0 004.86 0l1.65-.03c.04 0 .06.06.06.18s-.02.18-.06.18c-.72 0-1.25.06-1.6.18a1.2 1.2 0 00-.71.63c-.12.28-.18.72-.18 1.32v6.09h9.69v-6.09c0-.6-.06-1.04-.18-1.32-.12-.3-.35-.51-.7-.63a5.28 5.28 0 00-1.61-.18c-.06 0-.1-.06-.1-.18s.04-.18.1-.18l1.47.03a62.06 62.06 0 005.01 0l1.68-.03c.06 0 .09.06.09.18s-.03.18-.1.18c-.67 0-1.18.06-1.52.18a1 1 0 00-.66.57c-.1.28-.15.72-.15 1.32v13.89c0 .6.05 1.05.15 1.35a1 1 0 00.66.57c.32.1.83.15 1.53.15zm10.76-2.07c0 .62.05 1.07.15 1.35.1.28.29.47.57.57.3.1.77.15 1.4.15.07 0 .1.06.1.18s-.03.18-.1.18c-.65 0-1.17-.01-1.55-.03l-2.28-.03-2.22.03c-.4.02-.94.03-1.62.03-.04 0-.06-.06-.06-.18s.02-.18.06-.18c.64 0 1.1-.05 1.4-.15.3-.1.5-.29.6-.57.13-.3.19-.75.19-1.35V26.68c0-.6-.06-1.04-.18-1.32a.9.9 0 00-.6-.57c-.3-.12-.77-.18-1.41-.18-.04 0-.06-.06-.06-.18s.02-.18.06-.18l1.62.03a53.53 53.53 0 004.53 0l1.53-.03c.06 0 .09.06.09.18s-.03.18-.1.18c-.61 0-1.07.06-1.37.18-.3.12-.5.33-.6.63-.1.28-.15.72-.15 1.32v13.83zm17.42 2.79a9.63 9.63 0 01-4.98-1.29 9.22 9.22 0 01-3.36-3.54 10.44 10.44 0 01-1.17-4.89c0-2.06.52-3.82 1.56-5.28a9.76 9.76 0 014-3.33 12.07 12.07 0 015-1.11c1.9 0 3.57.45 5.01 1.35a8.83 8.83 0 013.3 3.51 9.73 9.73 0 011.17 4.65 9.2 9.2 0 01-1.44 5.01 10.31 10.31 0 01-3.87 3.6c-1.6.88-3.34 1.32-5.22 1.32zm1-.75c1.11 0 2.11-.32 3-.96.9-.66 1.6-1.61 2.1-2.85.5-1.26.74-2.76.74-4.5 0-1.84-.28-3.48-.84-4.92a7.67 7.67 0 00-2.43-3.42 5.9 5.9 0 00-3.72-1.23c-1.82 0-3.22.69-4.2 2.07-.98 1.36-1.47 3.27-1.47 5.73 0 1.94.3 3.68.87 5.22a8.76 8.76 0 002.43 3.57 5.36 5.36 0 003.51 1.29zM169 24.25c.04 0 .06.06.06.18s-.02.18-.06.18c-.8 0-1.43.32-1.89.96a4.14 4.14 0 00-.69 2.52v15.36c0 .06-.05.1-.15.12-.08.02-.14.01-.18-.03l-14.07-16.02v11.67c0 1.06.22 1.9.66 2.52.44.62 1.05.93 1.83.93.04 0 .06.06.06.18s-.02.18-.06.18c-.56 0-.99-.01-1.29-.03l-1.62-.03-1.86.03c-.34.02-.83.03-1.47.03-.06 0-.09-.06-.09-.18s.03-.18.1-.18c.87 0 1.56-.31 2.06-.93a3.8 3.8 0 00.78-2.52V26.5a7.21 7.21 0 00-1.7-1.47 2.73 2.73 0 00-1.45-.42c-.04 0-.06-.06-.06-.18s.02-.18.06-.18l1.26.03c.26.02.64.03 1.14.03l2.28-.03c.28-.02.62-.03 1.02-.03.16 0 .28.04.36.12.08.08.22.25.42.51.34.46.58.77.72.93l10.38 11.97v-9.69c0-1.08-.22-1.93-.66-2.55a2.12 2.12 0 00-1.83-.93c-.04 0-.06-.06-.06-.18s.02-.18.06-.18l1.3.03a26.67 26.67 0 003.3 0l1.34-.03zm10.18 16.32c0 .62.05 1.07.15 1.35.1.28.3.47.57.57.3.1.77.15 1.41.15.06 0 .1.06.1.18s-.04.18-.1.18c-.66 0-1.18-.01-1.56-.03l-2.28-.03-2.22.03c-.4.02-.94.03-1.62.03-.04 0-.06-.06-.06-.18s.02-.18.06-.18c.64 0 1.11-.05 1.41-.15.3-.1.5-.29.6-.57.12-.3.18-.75.18-1.35V26.68c0-.6-.06-1.04-.18-1.32a.9.9 0 00-.6-.57c-.3-.12-.77-.18-1.4-.18-.05 0-.07-.06-.07-.18s.02-.18.06-.18l1.62.03a53.53 53.53 0 004.53 0l1.53-.03c.06 0 .1.06.1.18s-.04.18-.1.18c-.62 0-1.08.06-1.38.18-.3.12-.5.33-.6.63-.1.28-.15.72-.15 1.32v13.83zm11.66-13.29c0 .72.19 1.36.54 1.92.38.56.84 1.05 1.38 1.47.55.42 1.28.93 2.2 1.53 1 .64 1.8 1.2 2.4 1.68.6.48 1.1 1.07 1.52 1.77.43.68.63 1.47.63 2.37 0 1.04-.27 1.97-.83 2.79a5.67 5.67 0 01-2.34 1.89c-.99.44-2.09.66-3.3.66-.9 0-1.84-.12-2.82-.36a5.22 5.22 0 01-1.98-.84l-.25-.21a.84.84 0 01-.06-.36l-.09-4.77v-.03c0-.08.06-.12.16-.12.1-.02.16.01.18.09.6 1.22 1.11 2.21 1.56 2.97a8.22 8.22 0 001.7 2.01c.7.58 1.5.87 2.38.87.8 0 1.46-.21 1.97-.63.53-.44.78-1.18.78-2.22 0-.88-.2-1.65-.6-2.31a6.07 6.07 0 00-1.4-1.68 27.15 27.15 0 00-2.31-1.65 26.15 26.15 0 01-2.25-1.59 6.54 6.54 0 01-1.35-1.59 4.1 4.1 0 01-.57-2.19c0-1.06.3-1.95.9-2.67a5.36 5.36 0 012.36-1.62 8.56 8.56 0 013.03-.54c.7 0 1.41.07 2.13.21.73.12 1.3.27 1.75.45.18.08.3.17.36.27.06.08.09.19.09.33v4.41c0 .06-.06.11-.16.15-.1.02-.16 0-.18-.06l-.24-.57a13.16 13.16 0 00-1.76-3.21 3.28 3.28 0 00-2.8-1.32c-.8 0-1.45.23-1.97.69-.5.46-.75 1.13-.75 2.01zm19.88-2.34c-2.38 0-4.09 1.55-5.13 4.65-.02.06-.08.09-.18.09-.1-.02-.15-.06-.15-.12.08-.8.17-1.83.27-3.09.1-1.28.15-2.24.15-2.88 0-.1.05-.15.15-.15.12 0 .18.05.18.15 0 .44.57.66 1.71.66a175.7 175.7 0 009.78.03l2.04-.03c.76 0 1.31-.05 1.65-.15.36-.1.6-.3.7-.6.01-.08.07-.12.17-.12.12 0 .18.04.18.12a82.76 82.76 0 00-.3 6.06c0 .06-.05.09-.15.09-.1 0-.16-.03-.18-.09a6.17 6.17 0 00-1.68-3.45 4.23 4.23 0 00-3.03-1.17c-.58 0-.97.13-1.17.39-.18.24-.27.71-.27 1.41v13.83c0 .62.06 1.07.18 1.35a1 1 0 00.7.57c.33.1.87.15 1.61.15.06 0 .1.06.1.18s-.04.18-.1.18c-.72 0-1.29-.01-1.7-.03l-2.5-.03-2.43.03c-.42.02-1 .03-1.74.03-.06 0-.09-.06-.09-.18s.03-.18.1-.18c.71 0 1.24-.05 1.58-.15.36-.1.6-.29.72-.57.14-.3.21-.75.21-1.35V26.68c0-.68-.09-1.14-.27-1.38-.18-.24-.55-.36-1.1-.36zm35.02 17.7c.1 0 .15.06.15.18s-.05.18-.15.18c-.4 0-1.02-.02-1.86-.06a33.83 33.83 0 00-3.72 0c-.68.04-1.22.06-1.62.06-.08 0-.12-.06-.12-.18s.04-.18.12-.18c.52 0 .9-.05 1.11-.15a.62.62 0 00.36-.6c0-.34-.2-.91-.6-1.71l-3.12-6.15h-5.34l-2.13 4.71a3.98 3.98 0 00-.39 1.62c0 .72.25 1.28.75 1.68.52.4 1.21.6 2.07.6.1 0 .15.06.15.18s-.05.18-.15.18c-.36 0-.88-.02-1.56-.06a38.34 38.34 0 00-3.93 0c-.68.04-1.23.06-1.65.06-.08 0-.12-.06-.12-.18s.04-.18.12-.18c.56 0 1.03-.11 1.41-.33.38-.24.76-.65 1.14-1.23.38-.6.83-1.48 1.35-2.64l6.51-14.31c.04-.06.13-.09.27-.09.16 0 .25.03.27.09l7.5 14.76c.7 1.42 1.28 2.4 1.74 2.94.46.54.94.81 1.44.81zm-14.4-9.45h4.53l-2.4-4.74-2.13 4.74z" fill="#22100B"/><path d="M250.5 66H1V8M17 1h249.5v58" stroke="#D9D7DD"/></svg>