<svg fill="none" xmlns="http://www.w3.org/2000/svg" viewBox="0 0 40 40"><circle cx="19.85" cy="19.85" r="19.85" fill="#000"/><path d="M20.25 8C14.21 8 11 12.04 11 16.44c0 2.05 1.1 4.6 2.84 5.4.27.13.41.07.47-.18l.4-1.58a.42.42 0 00-.1-.4 5.39 5.39 0 01-1.04-3.18 6.05 6.05 0 016.32-6.06c3.45 0 5.85 2.34 5.85 5.68 0 3.77-1.9 6.38-4.4 6.38-1.37 0-2.4-1.13-2.07-2.52.4-1.66 1.16-3.45 1.16-4.64 0-1.08-.58-1.97-1.77-1.97-1.4 0-2.53 1.45-2.53 3.4a5 5 0 00.42 2.06l-1.65 6.94c-.43 1.84.06 4.84.1 5.1.03.14.18.18.27.06.14-.18 1.81-2.68 2.28-4.48l.87-3.32c.46.87 1.8 1.6 3.21 1.6 4.22 0 7.27-3.87 7.27-8.68C28.9 11.45 25.11 8 20.25 8z" fill="#fff"/></svg>