<svg fill="none" xmlns="http://www.w3.org/2000/svg" viewBox="0 0 248 211"><path opacity=".2" d="M68.36 120.57c12.72 0 22.79 4.23 30.2 12.7 7.95 7.92 11.93 18.5 11.93 31.72 0 14.28-4.77 25.65-14.31 34.11-9 7.93-21.46 11.9-37.36 11.9-18.55 0-33.12-7.14-43.72-21.42C5.03 175.3 0 154.94 0 128.5c0-23.8 5.3-45.74 15.9-65.83C26.5 42.04 42.4 21.42 63.59.79 64.12.26 64.91 0 65.97 0c1.6 0 2.92.8 3.98 2.38 1.06 1.59 1.06 2.9 0 3.97C43.98 32.79 31 63.99 31 99.95c0 14.8 2.65 25.64 7.95 32.52 4.77-7.93 14.57-11.9 29.4-11.9zm137.51 0c12.72 0 22.79 4.23 30.2 12.7 7.96 7.92 11.93 18.5 11.93 31.72 0 14.28-4.77 25.65-14.3 34.11-9.02 7.93-21.47 11.9-37.37 11.9-18.54 0-33.12-7.14-43.72-21.42-10.06-14.28-15.1-34.64-15.1-61.08 0-23.8 5.3-45.74 15.9-65.83 10.6-20.63 26.5-41.25 47.7-61.88.52-.53 1.32-.79 2.38-.79 1.59 0 2.91.8 3.97 2.38 1.06 1.59 1.06 2.9 0 3.97-25.96 26.44-38.95 57.64-38.95 93.6 0 14.8 2.65 25.64 7.95 32.52 4.77-7.93 14.57-11.9 29.41-11.9z" fill="#E9D6C7"/></svg>