<svg fill="none" xmlns="http://www.w3.org/2000/svg" viewBox="0 0 40 40"><circle cx="19.85" cy="19.85" r="19.85" fill="#000"/><path d="M29.87 23.04c2 1.93 2.42 2.88 2.48 3 .83 1.43-.91 1.54-.91 1.54l-3.33.05s-.72.15-1.66-.53c-1.24-.9-2.95-3.22-3.86-2.91-.93.3-.63 2.74-.63 2.74s0 .3-.2.54c-.24.25-.69.15-.69.15h-.96s-3.55.02-6.45-3.14c-3.15-3.43-5.8-9.86-5.8-9.86s-.16-.41.02-.63c.2-.24.73-.24.73-.24h3.56s.33.05.57.23c.2.16.32.44.32.44s.43 1.2 1.19 2.58c1.49 2.69 2.18 3.28 2.68 2.99.74-.42.52-3.8.52-3.8s.01-1.23-.37-1.78c-.3-.43-.86-.55-1.1-.58-.21-.03.12-.52.55-.73.64-.33 1.77-.35 3.1-.34h1.44c1.23.3.81 1.51.81 4.38 0 .92-.16 2.22.48 2.64.27.2 1.25.22 2.92-2.75.8-1.4 1.42-2.72 1.42-2.72s.13-.3.33-.43c.21-.13.49-.13.49-.13l3.75.02s1.12-.15 1.3.39c.2.56-.46 1.53-1.98 3.67-2.52 3.5-2.8 3.18-.72 5.2z" fill="#fff"/></svg>