<svg fill="none" xmlns="http://www.w3.org/2000/svg" viewBox="0 0 670 526"><path opacity=".05" fill="#1C5F87" d="M0 494h670v32H0z"/><path fill="#FA5B3D" d="M0 494h50v32H0z"/><path d="M10.56 516.13c-1.2 0-2.13-.33-2.8-.98-.66-.65-1-1.57-1.04-2.75h1.57c.08 1.52.84 2.29 2.27 2.29.76 0 1.32-.17 1.7-.51.38-.36.57-.82.57-1.4 0-.55-.18-1-.56-1.34-.36-.34-.88-.51-1.57-.51H9.2v-1.38h1.5c.61 0 1.08-.15 1.4-.46.33-.32.5-.74.5-1.25 0-.52-.18-.94-.52-1.25-.34-.32-.85-.48-1.52-.48-.6 0-1.09.17-1.44.51a2.2 2.2 0 00-.6 1.46H6.97c.03-1.07.36-1.9.98-2.5.63-.6 1.5-.9 2.62-.9.58 0 1.09.07 1.54.23.44.15.82.36 1.12.64.3.27.54.6.7 1a3.25 3.25 0 01-.11 2.68 2.5 2.5 0 01-1.06 1c.55.25.96.6 1.23 1.05.28.45.42.96.42 1.54 0 .49-.09.93-.26 1.34-.16.4-.4.76-.73 1.06-.32.28-.72.5-1.2.67a5.2 5.2 0 01-1.65.24zm8.08-5.6c-.4 0-.78-.07-1.12-.2-.33-.12-.62-.3-.86-.54a2.45 2.45 0 01-.55-.83c-.12-.32-.19-.67-.19-1.06v-.6c0-.39.07-.74.2-1.06.12-.32.3-.6.54-.83.24-.24.53-.42.86-.55.34-.12.72-.19 1.12-.19.4 0 .77.07 1.1.2a2.41 2.41 0 011.41 1.37c.14.32.21.67.21 1.06v.6a2.63 2.63 0 01-.77 1.9c-.23.23-.51.4-.84.54-.34.12-.7.19-1.1.19zm0-1.25c.42 0 .74-.12.98-.35.24-.24.37-.58.37-1.03v-.6c0-.45-.13-.8-.37-1.03a1.32 1.32 0 00-.98-.35c-.41 0-.75.12-1 .35-.23.24-.34.58-.34 1.03v.6c0 .45.11.8.35 1.03.24.23.58.35 1 .35zm7.68 6.85c-.4 0-.78-.07-1.12-.2-.33-.12-.62-.3-.86-.54a2.45 2.45 0 01-.55-.83c-.12-.32-.19-.67-.19-1.06v-.6c0-.39.07-.74.2-1.06.12-.32.3-.6.54-.83.24-.24.53-.42.86-.55.34-.12.72-.19 1.12-.19.4 0 .77.07 1.1.2a2.41 2.41 0 011.41 1.37c.14.32.21.67.21 1.06v.6a2.63 2.63 0 01-.77 1.9c-.23.23-.51.4-.84.54-.34.12-.7.19-1.1.19zm0-1.25c.42 0 .74-.12.98-.35.24-.24.37-.58.37-1.03v-.6c0-.45-.13-.8-.37-1.03a1.32 1.32 0 00-.98-.35c-.41 0-.75.12-1 .35-.23.24-.34.58-.34 1.03v.6c0 .45.11.8.35 1.03.24.23.58.35 1 .35zm-1.37-10.08h1.53L20.02 516h-1.54l6.47-11.2z" fill="#FAFAFA"/><path d="M9.52 485H1.44v2.4H.32v-3.42h1a5.45 5.45 0 00.97-2.3c.1-.47.16-1.05.2-1.72.05-.67.07-1.5.07-2.48v-3.68h6.88v10.18h1.2v3.42H9.52V485zm-5.84-7.52a49 49 0 01-.05 2.3c-.03.67-.09 1.25-.17 1.76a7.3 7.3 0 01-.32 1.36c-.13.4-.3.76-.5 1.08h5.68v-9.16H3.68v2.66zm12.31 7.63c-.55 0-1.04-.1-1.47-.3a2.64 2.64 0 01-1.06-.98v4.37h-1.05V477h.81l.13 1.34c.28-.49.64-.85 1.07-1.08.45-.25.97-.37 1.57-.37.46 0 .88.08 1.26.24.39.16.72.4 1 .72.27.3.49.7.64 1.17.16.47.24 1 .24 1.63v.7a5 5 0 01-.24 1.62c-.15.47-.37.86-.64 1.18-.28.32-.61.56-1 .72-.38.16-.8.24-1.26.24zm-.24-.99c.7 0 1.25-.22 1.66-.67.42-.46.63-1.16.63-2.1v-.7c0-.93-.21-1.62-.64-2.08a2.12 2.12 0 00-1.65-.69c-.64 0-1.18.22-1.62.67-.42.45-.65 1.1-.67 1.97v.83c0 .9.22 1.59.64 2.07.43.46.98.7 1.65.7zm7.65.88l-3.31-8h1.18l2.7 6.69L26.5 477h1.12l-4.32 11.2h-1.12l1.23-3.2zm5.96-8h5.12v.96h-4.06V485h-1.06v-8zm9.6 8.11c-.53 0-1.02-.08-1.45-.25a3.14 3.14 0 01-1.83-1.9c-.16-.48-.24-1.01-.24-1.6v-.71c0-.59.09-1.11.26-1.57.17-.47.4-.86.7-1.18.31-.33.68-.58 1.1-.76.44-.17.93-.25 1.46-.25.54 0 1.02.08 1.44.25.44.18.81.42 1.12.74.31.32.55.72.7 1.18.18.47.26 1 .26 1.59v.7a4.6 4.6 0 01-.25 1.59 3.5 3.5 0 01-.72 1.18c-.3.32-.67.56-1.1.74-.44.17-.92.25-1.45.25zm0-.99c.73 0 1.31-.24 1.76-.7.45-.48.67-1.17.67-2.07v-.7c0-.89-.22-1.57-.68-2.05a2.28 2.28 0 00-1.75-.72 2.3 2.3 0 00-1.76.72c-.45.47-.67 1.15-.67 2.05v.7c0 .89.22 1.57.67 2.05.46.48 1.05.72 1.76.72zm8.72 1c-1.06 0-1.9-.33-2.51-.97-.62-.65-.93-1.58-.93-2.8v-.7c0-1.2.3-2.13.93-2.79a3.33 3.33 0 012.5-.97c1.05 0 1.89.32 2.5.97.63.65.95 1.58.95 2.79v.65h-5.8v.05c0 .93.22 1.62.65 2.08.42.46 1 .69 1.7.69.67 0 1.17-.14 1.51-.42.36-.27.61-.62.77-1.04h1.09c-.09.34-.21.66-.38.96a2.76 2.76 0 01-1.67 1.3c-.38.13-.82.2-1.31.2zm0-7.24c-.7 0-1.25.22-1.66.66-.41.42-.64 1.04-.7 1.84h4.7c-.05-.84-.28-1.46-.7-1.88a2.2 2.2 0 00-1.64-.62z" fill="#23201F"/><path opacity=".05" fill="#1C5F87" d="M0 427h670v32H0z"/><path fill="#FA5B3D" d="M0 427h67v32H0z"/><path d="M6.32 445.11l4.96-7.31h1.95v7.31h1.41v1.38h-1.4V449h-1.51v-2.51H6.32v-1.38zm5.4 0v-5.63l-3.75 5.63h3.76zm6.69-1.58c-.4 0-.78-.07-1.12-.2-.33-.12-.62-.3-.87-.54a2.45 2.45 0 01-.54-.83c-.13-.32-.2-.67-.2-1.06v-.6c0-.39.07-.74.2-1.06.13-.32.3-.6.54-.83.25-.24.54-.42.87-.55.34-.12.71-.19 1.12-.19.4 0 .77.07 1.1.2a2.41 2.41 0 011.4 1.37c.15.32.22.67.22 1.06v.6a2.63 2.63 0 01-.77 1.9c-.24.23-.52.4-.85.54-.33.12-.7.19-1.1.19zm0-1.25c.41 0 .74-.12.97-.35.25-.24.37-.58.37-1.03v-.6c0-.45-.12-.8-.37-1.03a1.32 1.32 0 00-.97-.35c-.42 0-.75.12-1 .35-.23.24-.35.58-.35 1.03v.6c0 .45.12.8.35 1.03.25.23.58.35 1 .35zm7.68 6.85c-.4 0-.78-.07-1.12-.2-.33-.12-.62-.3-.87-.54a2.45 2.45 0 01-.54-.83c-.13-.32-.2-.67-.2-1.06v-.6c0-.39.07-.74.2-1.06.13-.32.3-.6.54-.83.25-.24.54-.42.87-.55.34-.12.71-.19 1.12-.19.4 0 .77.07 1.1.2a2.41 2.41 0 011.4 1.37c.15.32.22.67.22 1.06v.6a2.63 2.63 0 01-.77 1.9c-.24.23-.52.4-.85.54-.33.12-.7.19-1.1.19zm0-1.25c.41 0 .74-.12.97-.35.25-.24.37-.58.37-1.03v-.6c0-.45-.12-.8-.37-1.03a1.32 1.32 0 00-.97-.35c-.42 0-.75.12-1 .35-.23.24-.35.58-.35 1.03v.6c0 .45.12.8.35 1.03.25.23.58.35 1 .35zM24.7 437.8h1.54L19.78 449h-1.53l6.46-11.2z" fill="#FAFAFA"/><path d="M5.68 418.11c-.67 0-1.3-.12-1.86-.35a4.17 4.17 0 01-1.47-1.02c-.41-.45-.74-1-.97-1.64a6.62 6.62 0 01-.34-2.19v-1.02c0-.81.12-1.54.35-2.18.24-.64.56-1.18.96-1.63a4.62 4.62 0 013.33-1.4c.67 0 1.3.13 1.86.36.56.23 1.05.58 1.47 1.02.41.45.73 1 .96 1.65.23.64.35 1.37.35 2.18v1.02c0 .81-.12 1.54-.35 2.18a4.79 4.79 0 01-.98 1.63 4.18 4.18 0 01-3.31 1.4zm0-1.05c.5 0 .97-.1 1.4-.28.42-.18.79-.44 1.1-.8.3-.35.55-.78.72-1.3a5.4 5.4 0 00.27-1.77v-1.02c0-.65-.1-1.23-.27-1.75a3.9 3.9 0 00-.74-1.3 3.31 3.31 0 00-2.48-1.09c-.5 0-.97.08-1.4.27-.42.18-.79.44-1.1.8-.3.35-.55.79-.73 1.3-.17.52-.26 1.1-.26 1.77v1.02c0 .66.1 1.25.27 1.76.19.51.43.95.74 1.3a3.2 3.2 0 002.48 1.09zm6.08-7.06h6.4v.96h-2.67V418h-1.06v-7.04h-2.67V410zm13.43 8h-6.13v2.08h-1.05v-3.04h.84a4.18 4.18 0 00.74-1.74 24.74 24.74 0 00.18-2.9V410h5.36v7.04h1.12v3.04h-1.06V418zm-4.37-5.6a26.23 26.23 0 01-.17 2.94 4.94 4.94 0 01-.56 1.7h3.98v-6.08h-3.25v1.44zm7.1-2.4h1.06v2.88h1.77c1.14 0 1.96.23 2.47.69.52.46.78 1.08.78 1.87 0 .77-.26 1.39-.78 1.86-.52.46-1.35.7-2.47.7h-2.83v-8zm1.06 3.84v3.2h1.77c.8 0 1.35-.14 1.67-.42.33-.28.5-.68.5-1.18 0-.5-.17-.9-.5-1.17-.33-.29-.89-.43-1.67-.43h-1.77zM35.5 410h1.05v8h-1.05v-8zm6.4 4.66L39.57 418h-1.25l2.93-4.11-2.74-3.89h1.25l2.18 3.1 2.17-3.1h1.22l-2.74 3.86 2.93 4.14h-1.28l-2.33-3.34z" fill="#23201F"/><path opacity=".05" fill="#1C5F87" d="M0 360h670v32H0z"/><path fill="#FA5B3D" d="M0 360h84v32H0z"/><path d="M7.52 370.8h6.16v1.38H8.9l-.26 3.07c.59-.5 1.32-.75 2.2-.75.5 0 .98.09 1.42.27a3.35 3.35 0 011.87 1.98c.18.46.27.98.27 1.55 0 .58-.1 1.1-.27 1.59a3.4 3.4 0 01-1.98 1.97c-.48.18-1 .27-1.59.27a4.2 4.2 0 01-2.5-.74c-.69-.49-1.14-1.2-1.34-2.14h1.57c.18.48.46.84.85 1.09.38.23.85.35 1.42.35.7 0 1.26-.21 1.66-.63.4-.41.61-1 .61-1.76 0-.74-.2-1.32-.6-1.74-.41-.42-.97-.62-1.67-.62-.48 0-.9.1-1.25.28-.34.2-.6.43-.78.7H7.04l.48-6.12zm10.89 5.73c-.4 0-.78-.07-1.12-.2-.33-.12-.62-.3-.87-.54a2.45 2.45 0 01-.54-.83c-.13-.32-.2-.67-.2-1.06v-.6c0-.39.07-.74.2-1.06.13-.32.3-.6.54-.83.25-.24.54-.42.87-.55.34-.12.71-.19 1.12-.19.4 0 .77.07 1.1.2a2.41 2.41 0 011.4 1.37c.15.32.22.67.22 1.06v.6a2.63 2.63 0 01-.77 1.9c-.24.23-.52.4-.85.54-.33.12-.7.19-1.1.19zm0-1.25c.41 0 .74-.12.97-.35.25-.24.37-.58.37-1.03v-.6c0-.45-.12-.8-.37-1.03a1.32 1.32 0 00-.97-.35c-.42 0-.75.12-1 .35-.23.24-.35.58-.35 1.03v.6c0 .45.12.8.35 1.03.25.23.58.35 1 .35zm7.68 6.85c-.4 0-.78-.07-1.12-.2-.33-.12-.62-.3-.87-.54a2.45 2.45 0 01-.54-.83c-.13-.32-.2-.67-.2-1.06v-.6c0-.39.07-.74.2-1.06.13-.32.3-.6.54-.83.25-.24.54-.42.87-.55.34-.12.71-.19 1.12-.19.4 0 .77.07 1.1.2a2.41 2.41 0 011.4 1.37c.15.32.22.67.22 1.06v.6a2.63 2.63 0 01-.77 1.9c-.24.23-.52.4-.85.54-.33.12-.7.19-1.1.19zm0-1.25c.41 0 .74-.12.97-.35.25-.24.37-.58.37-1.03v-.6c0-.45-.12-.8-.37-1.03a1.32 1.32 0 00-.97-.35c-.42 0-.75.12-1 .35-.23.24-.35.58-.35 1.03v.6c0 .45.12.8.35 1.03.25.23.58.35 1 .35zM24.7 370.8h1.54L19.78 382h-1.53l6.46-11.2z" fill="#FAFAFA"/><path d="M4.8 351.11c-1.23 0-2.17-.3-2.82-.93a3.92 3.92 0 01-1.1-2.62h1.15c.09.81.35 1.43.8 1.86.45.42 1.1.64 1.97.64.86 0 1.51-.2 1.95-.6.44-.4.66-.93.66-1.58 0-.62-.22-1.13-.66-1.52-.44-.4-1.09-.6-1.95-.6H3.44v-1.05H4.8c.79 0 1.38-.18 1.78-.54.4-.37.59-.84.59-1.43 0-.6-.2-1.09-.6-1.45-.39-.37-.98-.55-1.77-.55s-1.39.2-1.8.58c-.4.37-.64.9-.73 1.6H1.12c.09-1 .43-1.8 1.04-2.37.62-.57 1.5-.86 2.64-.86 1.14 0 2.01.28 2.6.85.62.56.92 1.3.92 2.2 0 .55-.13 1.03-.4 1.46-.27.43-.66.76-1.17 1 .61.25 1.06.61 1.36 1.08a3.27 3.27 0 01.2 2.91c-.17.4-.4.74-.73 1.03-.3.27-.7.5-1.16.65a5 5 0 01-1.62.24zm11.98-.11h-6.12v2.08H9.6v-3.04h.85a4.19 4.19 0 00.74-1.74 24.74 24.74 0 00.18-2.9V343h5.35v7.04h1.12v3.04h-1.06V351zm-4.36-5.6a26.23 26.23 0 01-.18 2.94 4.95 4.95 0 01-.56 1.7h3.98v-6.08h-3.24v1.44zm10.68 5.71c-.55 0-1.05-.1-1.47-.3a2.64 2.64 0 01-1.06-.98v4.37h-1.05V343h.81l.13 1.34c.28-.49.63-.85 1.07-1.08.45-.25.97-.37 1.57-.37.46 0 .88.08 1.26.24.39.16.72.4 1 .72.27.3.49.7.64 1.17.16.47.24 1 .24 1.63v.7a5 5 0 01-.24 1.62c-.15.47-.37.86-.64 1.18-.28.32-.61.56-1 .72-.38.16-.8.24-1.26.24zm-.24-.99c.7 0 1.25-.22 1.66-.67.42-.46.63-1.16.63-2.1v-.7c0-.93-.22-1.62-.64-2.08a2.12 2.12 0 00-1.65-.69c-.64 0-1.18.22-1.62.67-.42.45-.65 1.1-.67 1.97v.83c0 .9.22 1.59.64 2.07.43.46.98.7 1.65.7zm7.53 1c-.8 0-1.41-.21-1.84-.62a2.28 2.28 0 01-.64-1.7c0-.4.06-.74.18-1.05.12-.32.32-.58.59-.8.27-.21.63-.38 1.05-.5.43-.11.94-.17 1.54-.17h1.82v-.72c0-.58-.14-1-.43-1.26-.28-.28-.74-.42-1.4-.42-.58 0-1.02.12-1.32.35a1.3 1.3 0 00-.5.93h-1.13c.02-.33.1-.64.22-.91.13-.28.32-.52.56-.72.25-.2.55-.36.92-.47.36-.11.78-.17 1.26-.17.95 0 1.66.23 2.14.7.5.47.74 1.13.74 1.97V351h-.82l-.16-1.5a3.04 3.04 0 01-2.78 1.61zm.08-1c.36 0 .7-.06 1.02-.2.32-.13.6-.31.84-.54a2.42 2.42 0 00.76-1.77v-.37h-1.82c-.82 0-1.4.14-1.76.43a1.4 1.4 0 00-.51 1.12c0 .4.12.73.37.98.25.23.62.35 1.1.35zm6.31-7.12h2.96c.97 0 1.68.2 2.13.6.45.39.67.92.67 1.6 0 .33-.08.65-.25.94-.17.28-.43.52-.77.72.45.18.78.43 1 .76.23.32.34.69.34 1.1 0 .7-.22 1.27-.67 1.67-.45.4-1.16.61-2.13.61h-3.28v-8zm1.06 4.4v2.64h2.22c.63 0 1.07-.11 1.33-.34.26-.22.38-.55.38-.99 0-.42-.12-.75-.38-.97-.26-.23-.7-.34-1.33-.34h-2.22zm0-3.44v2.48h1.9c.63 0 1.07-.1 1.33-.32s.38-.53.38-.93c0-.38-.12-.68-.38-.9-.26-.22-.7-.33-1.33-.33h-1.9zm10.3 7.15c-.54 0-1.02-.08-1.46-.25a3.14 3.14 0 01-1.83-1.9c-.16-.48-.24-1.01-.24-1.6v-.71c0-.59.09-1.11.26-1.57.17-.47.4-.86.7-1.18.31-.33.68-.58 1.1-.76.45-.17.93-.25 1.46-.25.54 0 1.02.08 1.44.25.44.18.81.42 1.12.74.31.32.55.72.7 1.18.18.47.26 1 .26 1.59v.7c0 .59-.08 1.12-.25 1.59a3.5 3.5 0 01-.72 1.18c-.3.32-.67.56-1.1.74-.44.17-.92.25-1.45.25zm0-.99c.72 0 1.3-.24 1.75-.7.45-.48.68-1.17.68-2.07v-.7c0-.89-.23-1.57-.7-2.05a2.28 2.28 0 00-1.74-.72 2.3 2.3 0 00-1.76.72c-.44.47-.67 1.15-.67 2.05v.7c0 .89.23 1.57.67 2.05.46.48 1.05.72 1.76.72zm8.8 1c-.54 0-1.03-.1-1.46-.26a3.14 3.14 0 01-1.83-1.9c-.16-.48-.24-1.01-.24-1.6v-.71c0-.59.09-1.11.26-1.57.17-.47.4-.86.7-1.18.31-.33.68-.58 1.1-.76.44-.17.93-.25 1.46-.25.53 0 1.01.08 1.44.25.44.18.81.42 1.12.74.31.32.55.72.7 1.18.18.47.26 1 .26 1.59v.7c0 .59-.08 1.12-.25 1.59a3.5 3.5 0 01-.72 1.18c-.3.32-.67.56-1.1.74-.45.17-.93.25-1.45.25zm0-1c.72 0 1.3-.24 1.75-.7.45-.48.67-1.17.67-2.07v-.7c0-.89-.23-1.57-.68-2.05a2.28 2.28 0 00-1.75-.72 2.3 2.3 0 00-1.76.72c-.45.47-.67 1.15-.67 2.05v.7c0 .89.22 1.57.67 2.05.46.48 1.05.72 1.76.72zm8.06-2.46L62.66 351h-1.24l2.92-4.11-2.73-3.89h1.25l2.17 3.1 2.18-3.1h1.21l-2.73 3.86 2.93 4.14h-1.28L65 347.66zm8.96 3.45c-.55 0-1.05-.1-1.47-.3a2.64 2.64 0 01-1.06-.98v4.37h-1.05V343h.81l.13 1.34c.28-.49.63-.85 1.07-1.08.45-.25.97-.37 1.57-.37.46 0 .88.08 1.26.24.39.16.72.4 1 .72.27.3.49.7.64 1.17.16.47.24 1 .24 1.63v.7a5 5 0 01-.24 1.62c-.15.47-.37.86-.64 1.18-.28.32-.61.56-1 .72-.38.16-.8.24-1.26.24zm-.24-.99c.7 0 1.25-.22 1.66-.67.42-.46.63-1.16.63-2.1v-.7c0-.93-.22-1.62-.64-2.08a2.12 2.12 0 00-1.65-.69c-.64 0-1.18.22-1.62.67-.42.45-.65 1.1-.67 1.97v.83c0 .9.21 1.59.64 2.07.43.46.98.7 1.65.7zm7.53 1c-.8 0-1.41-.21-1.84-.62a2.28 2.28 0 01-.64-1.7c0-.4.06-.74.17-1.05.13-.32.33-.58.6-.8.27-.21.63-.38 1.05-.5.43-.11.94-.17 1.54-.17h1.82v-.72c0-.58-.14-1-.43-1.26-.28-.28-.74-.42-1.4-.42-.58 0-1.02.12-1.32.35a1.3 1.3 0 00-.5.93h-1.13c.02-.33.1-.64.22-.91.13-.28.32-.52.56-.72.25-.2.55-.36.91-.47.37-.11.79-.17 1.27-.17.95 0 1.66.23 2.14.7.5.47.74 1.13.74 1.97V351h-.82l-.16-1.5a3.04 3.04 0 01-2.78 1.61zm.08-1c.36 0 .7-.06 1.02-.2.32-.13.6-.31.83-.54a2.42 2.42 0 00.77-1.77v-.37h-1.82c-.82 0-1.4.14-1.76.43a1.4 1.4 0 00-.51 1.12c0 .4.12.73.36.98.26.23.63.35 1.1.35zm11.82-2.72H88.7v3.6h-1.06v-8h1.06v3.44h4.45V343h1.05v8h-1.05v-3.6zm6.73 3.71c-1.05 0-1.9-.32-2.5-.96-.63-.65-.94-1.58-.94-2.8v-.7c0-1.2.31-2.13.93-2.79a3.33 3.33 0 012.51-.97c1.05 0 1.88.32 2.5.97.63.65.94 1.58.94 2.79v.65h-5.79v.05c0 .93.21 1.62.64 2.08.43.46 1 .69 1.71.69.66 0 1.17-.14 1.5-.42.36-.27.62-.62.78-1.04h1.08c-.08.34-.21.66-.38.96a2.77 2.77 0 01-1.67 1.3c-.38.13-.82.2-1.3.2zm0-7.23c-.7 0-1.25.22-1.66.66-.4.42-.64 1.04-.69 1.84h4.69c-.04-.84-.28-1.46-.7-1.88a2.2 2.2 0 00-1.64-.62zm11.19 3.52h-4.45v3.6h-1.06v-8h1.06v3.44h4.45V343h1.05v8h-1.05v-3.6zm9.28-3.18l-1 1.66-3.2 5.12h-1.3v-8h1.05v6.8l1-1.68 3.2-5.12h1.3v8h-1.05v-6.78zm6.74 6.9c-1.06 0-1.9-.33-2.52-.97-.61-.65-.92-1.58-.92-2.8v-.7c0-1.2.3-2.13.92-2.79a3.33 3.33 0 012.52-.97c1.04 0 1.87.32 2.5.97.62.65.94 1.58.94 2.79v.65h-5.8v.05c0 .93.22 1.62.64 2.08.43.46 1 .69 1.72.69.66 0 1.16-.14 1.5-.42.35-.27.6-.62.77-1.04h1.09c-.09.34-.22.66-.39.96a2.77 2.77 0 01-1.66 1.3c-.39.13-.82.2-1.31.2zm0-7.24c-.7 0-1.25.22-1.67.66-.4.42-.63 1.04-.69 1.84h4.7c-.05-.84-.29-1.46-.71-1.88a2.2 2.2 0 00-1.63-.62z" fill="#23201F"/><path opacity=".05" fill="#1C5F87" d="M0 293h670v32H0z"/><path fill="#FA5B3D" d="M0 293h84v32H0z"/><path d="M7.52 303.8h6.16v1.38H8.9l-.26 3.07c.59-.5 1.32-.75 2.2-.75.5 0 .98.09 1.42.27a3.35 3.35 0 011.87 1.98c.18.46.27.98.27 1.55 0 .58-.1 1.1-.27 1.59a3.4 3.4 0 01-1.98 1.97c-.48.18-1 .27-1.59.27a4.2 4.2 0 01-2.5-.74c-.69-.49-1.14-1.2-1.34-2.14h1.57c.18.48.46.84.85 1.09.38.23.85.35 1.42.35.7 0 1.26-.21 1.66-.63.4-.41.61-1 .61-1.76 0-.74-.2-1.32-.6-1.74-.41-.42-.97-.62-1.67-.62-.48 0-.9.1-1.25.28-.34.2-.6.43-.78.7H7.04l.48-6.12zm10.89 5.73c-.4 0-.78-.07-1.12-.2-.33-.12-.62-.3-.87-.54a2.45 2.45 0 01-.54-.83c-.13-.32-.2-.67-.2-1.06v-.6c0-.39.07-.74.2-1.06.13-.32.3-.6.54-.83.25-.24.54-.42.87-.55.34-.12.71-.19 1.12-.19.4 0 .77.07 1.1.2a2.41 2.41 0 011.4 1.37c.15.32.22.67.22 1.06v.6a2.63 2.63 0 01-.77 1.9c-.24.23-.52.4-.85.54-.33.12-.7.19-1.1.19zm0-1.25c.41 0 .74-.12.97-.35.25-.24.37-.58.37-1.03v-.6c0-.45-.12-.8-.37-1.03a1.32 1.32 0 00-.97-.35c-.42 0-.75.12-1 .35-.23.24-.35.58-.35 1.03v.6c0 .45.12.8.35 1.03.25.23.58.35 1 .35zm7.68 6.85c-.4 0-.78-.07-1.12-.2-.33-.12-.62-.3-.87-.54a2.45 2.45 0 01-.54-.83c-.13-.32-.2-.67-.2-1.06v-.6c0-.39.07-.74.2-1.06.13-.32.3-.6.54-.83.25-.24.54-.42.87-.55.34-.12.71-.19 1.12-.19.4 0 .77.07 1.1.2a2.41 2.41 0 011.4 1.37c.15.32.22.67.22 1.06v.6a2.63 2.63 0 01-.77 1.9c-.24.23-.52.4-.85.54-.33.12-.7.19-1.1.19zm0-1.25c.41 0 .74-.12.97-.35.25-.24.37-.58.37-1.03v-.6c0-.45-.12-.8-.37-1.03a1.32 1.32 0 00-.97-.35c-.42 0-.75.12-1 .35-.23.24-.35.58-.35 1.03v.6c0 .45.12.8.35 1.03.25.23.58.35 1 .35zM24.7 303.8h1.54L19.78 315h-1.53l6.46-11.2z" fill="#FAFAFA"/><path d="M5.68 284.11c-.67 0-1.3-.12-1.86-.35a4.17 4.17 0 01-1.47-1.02c-.41-.45-.74-1-.97-1.64a6.62 6.62 0 01-.34-2.19v-1.02c0-.81.12-1.54.35-2.18.24-.64.56-1.18.96-1.63a4.62 4.62 0 013.33-1.4c.67 0 1.3.13 1.86.36.56.23 1.05.58 1.47 1.02.41.45.73 1 .96 1.65.23.64.35 1.37.35 2.18v1.02c0 .81-.12 1.54-.35 2.18a4.79 4.79 0 01-.98 1.63 4.18 4.18 0 01-3.31 1.4zm0-1.05c.5 0 .97-.1 1.4-.28.42-.18.79-.44 1.1-.8.3-.35.55-.78.72-1.3a5.4 5.4 0 00.27-1.77v-1.02c0-.65-.1-1.23-.27-1.75a3.9 3.9 0 00-.74-1.3 3.31 3.31 0 00-2.48-1.09c-.5 0-.97.08-1.4.27-.42.18-.79.44-1.1.8-.3.35-.55.79-.73 1.3-.17.52-.26 1.1-.26 1.77v1.02c0 .66.1 1.25.27 1.76.19.51.43.95.74 1.3a3.2 3.2 0 002.48 1.09zm12.62.94h-6.13v2.08h-1.05v-3.04h.84a4.19 4.19 0 00.74-1.74 24.74 24.74 0 00.18-2.9V276h5.35v7.04h1.13v3.04H18.3V284zm-4.37-5.6a26.23 26.23 0 01-.17 2.94 4.94 4.94 0 01-.56 1.7h3.98v-6.08h-3.25v1.44zM24 284.11c-1.05 0-1.9-.32-2.51-.96-.62-.65-.93-1.58-.93-2.8v-.7c0-1.2.31-2.13.93-2.79a3.33 3.33 0 012.51-.97c1.05 0 1.88.32 2.5.97.63.65.94 1.58.94 2.79v.65h-5.79v.05c0 .93.21 1.62.64 2.08.43.46 1 .69 1.71.69.66 0 1.16-.14 1.5-.42.36-.27.61-.62.77-1.04h1.1c-.1.34-.22.66-.4.96a2.76 2.76 0 01-1.66 1.3c-.38.13-.82.2-1.3.2zm0-7.23c-.7 0-1.25.22-1.66.66-.4.42-.64 1.04-.69 1.84h4.69c-.04-.84-.28-1.46-.7-1.88a2.2 2.2 0 00-1.64-.62zm11.74 3.44h-1.44V284h-1.06v-3.68H31.8L29.66 284H28.4l2.45-4.13-2.13-3.87h1.26l1.81 3.36h1.44V276h1.06v3.36h1.44l1.82-3.36h1.25l-2.11 3.8 2.43 4.2h-1.3l-2.1-3.68zM47.1 284h-6.13v2.08H39.9v-3.04h.85a4.19 4.19 0 00.74-1.74 24.74 24.74 0 00.18-2.9V276h5.35v7.04h1.12v3.04H47.1V284zm-4.37-5.6a26.23 26.23 0 01-.18 2.94 4.95 4.95 0 01-.56 1.7h3.99v-6.08h-3.25v1.44zm9.18 5.71c-.8 0-1.42-.2-1.84-.6a2.28 2.28 0 01-.65-1.72c0-.38.06-.73.18-1.04.13-.32.33-.58.6-.8.27-.21.62-.38 1.05-.5.43-.11.94-.17 1.53-.17h1.83v-.72c0-.58-.14-1-.43-1.26-.28-.28-.74-.42-1.4-.42-.58 0-1.02.12-1.32.35a1.3 1.3 0 00-.5.93h-1.13c.02-.33.1-.64.22-.91.13-.28.31-.52.56-.72.24-.2.55-.36.91-.47.36-.11.78-.17 1.26-.17.95 0 1.67.23 2.15.7.49.47.73 1.13.73 1.97V284h-.81l-.16-1.5a3.04 3.04 0 01-2.78 1.61zm.08-.99c.36 0 .7-.06 1.02-.2.32-.13.6-.31.83-.54a2.42 2.42 0 00.77-1.77v-.37h-1.83c-.82 0-1.4.14-1.76.43a1.4 1.4 0 00-.5 1.12c0 .4.12.73.36.98.26.23.63.35 1.1.35z" fill="#23201F"/><path opacity=".05" fill="#1C5F87" d="M0 226h670v32H0z"/><path fill="#FA5B3D" d="M0 226h134v32H0z"/><path d="M10.72 248.13c-.63 0-1.18-.08-1.66-.24a2.92 2.92 0 01-2.18-2.98c0-.64.17-1.19.5-1.65.34-.47.79-.83 1.34-1.1a3.03 3.03 0 01-1.12-.98c-.27-.4-.4-.9-.4-1.48a2.88 2.88 0 01.96-2.14c.3-.28.68-.5 1.1-.65.44-.16.93-.24 1.46-.24.54 0 1.03.08 1.46.23.43.14.8.35 1.1.62a2.89 2.89 0 01.53 3.65c-.28.4-.65.73-1.12.97.56.27 1.02.64 1.36 1.1.34.47.51 1.02.51 1.67a2.87 2.87 0 01-1 2.29c-.33.29-.73.52-1.2.69-.49.16-1.03.24-1.64.24zm0-1.44c.36 0 .68-.05.96-.15a1.71 1.71 0 001.31-1.65 1.8 1.8 0 00-.7-1.47c-.2-.18-.44-.32-.72-.43-.27-.1-.55-.17-.85-.2-.3.03-.6.1-.88.2s-.52.24-.74.42a1.85 1.85 0 00-.65 1.49c0 .24.05.47.14.68.1.22.26.4.45.58.2.16.43.29.7.38.3.1.62.15.98.15zm0-5.14c.23-.03.47-.08.7-.16.24-.08.45-.2.63-.33.19-.15.34-.34.45-.55a1.7 1.7 0 00.04-1.39c-.08-.2-.2-.36-.38-.51a2.27 2.27 0 00-1.44-.5 2.27 2.27 0 00-1.46.5 1.56 1.56 0 00-.5 1.1c0 .3.07.56.18.77a2.09 2.09 0 001.1.9c.23.08.46.14.68.17zm8.08.98c-.4 0-.78-.07-1.12-.2-.33-.12-.62-.3-.87-.54a2.45 2.45 0 01-.54-.83c-.13-.32-.2-.67-.2-1.06v-.6c0-.39.07-.74.2-1.06.13-.32.3-.6.54-.83.25-.24.54-.42.87-.55.34-.12.71-.19 1.12-.19.4 0 .77.07 1.1.2a2.41 2.41 0 011.41 1.37c.14.32.2.67.2 1.06v.6a2.63 2.63 0 01-.76 1.9c-.24.23-.52.4-.85.54-.33.12-.7.19-1.1.19zm0-1.25c.41 0 .74-.12.97-.35.25-.24.37-.58.37-1.03v-.6c0-.45-.12-.8-.37-1.03a1.32 1.32 0 00-.97-.35c-.42 0-.75.12-1 .35-.23.24-.35.58-.35 1.03v.6c0 .45.12.8.36 1.03.24.23.57.35.99.35zm7.68 6.85c-.4 0-.78-.07-1.12-.2-.33-.12-.62-.3-.87-.54a2.45 2.45 0 01-.54-.83c-.13-.32-.2-.67-.2-1.06v-.6c0-.39.07-.74.2-1.06.13-.32.3-.6.54-.83.25-.24.54-.42.87-.55.34-.12.71-.19 1.12-.19.4 0 .77.07 1.1.2a2.41 2.41 0 011.41 1.37c.14.32.2.67.2 1.06v.6a2.63 2.63 0 01-.76 1.9c-.24.23-.52.4-.85.54-.33.12-.7.19-1.1.19zm0-1.25c.41 0 .74-.12.97-.35.25-.24.37-.58.37-1.03v-.6c0-.45-.12-.8-.37-1.03a1.32 1.32 0 00-.97-.35c-.42 0-.75.12-1 .35-.23.24-.35.58-.35 1.03v.6c0 .45.12.8.36 1.03.24.23.57.35.99.35zM25.1 236.8h1.54L20.17 248h-1.53l6.46-11.2z" fill="#FAFAFA"/><path d="M1.44 205.8h6.72v1.02h-5.6v3.56h2.56c1.28 0 2.24.3 2.88.9.64.59.96 1.4.96 2.4 0 1.04-.32 1.85-.96 2.44-.63.59-1.59.88-2.88.88H1.44v-11.2zm1.12 5.6v4.58h2.56c.93 0 1.6-.2 2.03-.6.44-.4.66-.97.66-1.7 0-.7-.23-1.27-.67-1.67-.44-.4-1.11-.61-2.02-.61H2.56zm8.57-2.4h1.05v2.88h1.78c1.13 0 1.95.23 2.46.69.52.46.79 1.08.79 1.87 0 .77-.27 1.39-.79 1.86-.52.46-1.34.7-2.46.7h-2.83v-8zm1.05 3.84v3.2h1.78c.79 0 1.34-.14 1.66-.42.33-.28.5-.68.5-1.18 0-.5-.17-.9-.5-1.17-.33-.29-.88-.43-1.66-.43h-1.78zm6.53-3.84h1.06v8H18.7v-8zm2.81 0h6.4v.96h-2.67V217H24.2v-7.04h-2.68V209zm10.9 8.11c-.54 0-1.02-.08-1.46-.25a3.14 3.14 0 01-1.82-1.9c-.16-.48-.24-1.01-.24-1.6v-.71c0-.59.08-1.11.25-1.57.17-.47.4-.86.7-1.18.31-.34.68-.59 1.11-.76.44-.17.92-.25 1.46-.25.53 0 1 .08 1.44.25.43.18.8.42 1.12.74.3.32.54.72.7 1.18.17.47.26 1 .26 1.59v.7a4.6 4.6 0 01-.26 1.59 3.5 3.5 0 01-.72 1.18c-.3.32-.67.56-1.1.74-.44.17-.92.25-1.44.25zm0-.99c.72 0 1.3-.24 1.76-.7.44-.48.67-1.17.67-2.07v-.7c0-.89-.23-1.57-.69-2.05a2.28 2.28 0 00-1.74-.72 2.3 2.3 0 00-1.76.72c-.45.47-.68 1.15-.68 2.05v.7c0 .89.23 1.57.68 2.05.45.48 1.04.72 1.76.72zm5.75-7.12h2.96c.97 0 1.68.2 2.13.6.45.39.67.92.67 1.6 0 .33-.08.65-.25.94-.17.28-.43.52-.77.72.45.18.78.43 1 .76.23.32.34.69.34 1.1 0 .7-.22 1.27-.67 1.67-.45.4-1.16.61-2.13.61h-3.28v-8zm1.06 4.4v2.64h2.22c.63 0 1.07-.11 1.33-.34.26-.22.38-.55.38-.99 0-.43-.12-.75-.38-.97-.26-.23-.7-.34-1.33-.34h-2.22zm0-3.44v2.48h1.9c.63 0 1.07-.1 1.33-.32s.38-.53.38-.93c0-.38-.12-.68-.38-.9-.26-.22-.7-.33-1.33-.33h-1.9zm7.26-.96h1.05v2.88h1.78c1.13 0 1.95.23 2.46.69.52.46.78 1.08.78 1.87 0 .77-.26 1.39-.78 1.86-.52.46-1.34.7-2.46.7h-2.84v-8zm1.05 3.84v3.2h1.78c.79 0 1.34-.14 1.66-.42.33-.28.5-.68.5-1.18 0-.5-.17-.9-.5-1.17-.33-.29-.88-.43-1.66-.43h-1.78zm6.53-3.84h1.05v8h-1.05v-8zm6.73 8.11c-1.05 0-1.89-.32-2.5-.96-.63-.65-.94-1.58-.94-2.8v-.7c0-1.2.31-2.14.93-2.79a3.33 3.33 0 012.51-.97c1.05 0 1.88.32 2.5.97.63.65.94 1.58.94 2.79v.65h-5.79v.05c0 .93.22 1.62.64 2.08.43.46 1 .69 1.71.69.67 0 1.17-.14 1.5-.42.36-.27.62-.62.78-1.04h1.08c-.08.34-.2.66-.38.96a2.76 2.76 0 01-1.66 1.3c-.39.13-.82.2-1.32.2zm0-7.23c-.69 0-1.24.22-1.66.66-.4.42-.63 1.04-.69 1.84h4.69c-.04-.84-.28-1.46-.7-1.88a2.2 2.2 0 00-1.64-.62zm8.73-.88h6.4v.96h-2.68V217H72.2v-7.04h-2.67V209zm10.89 8.11c-.54 0-1.02-.08-1.46-.25a3.14 3.14 0 01-1.82-1.9c-.16-.48-.24-1.01-.24-1.6v-.71c0-.59.08-1.11.25-1.57.17-.47.4-.86.7-1.18.32-.34.68-.59 1.11-.76.44-.17.92-.25 1.46-.25.53 0 1 .08 1.44.25.43.18.8.42 1.12.74.3.32.54.72.7 1.18.17.47.26 1 .26 1.59v.7a4.6 4.6 0 01-.26 1.59 3.5 3.5 0 01-.72 1.18c-.3.32-.67.56-1.1.74-.44.17-.92.25-1.44.25zm0-.99c.72 0 1.3-.24 1.76-.7.44-.48.67-1.17.67-2.07v-.7c0-.89-.23-1.57-.69-2.05a2.28 2.28 0 00-1.74-.72 2.3 2.3 0 00-1.76.72c-.45.47-.68 1.15-.68 2.05v.7c0 .89.23 1.57.68 2.05.45.48 1.04.72 1.76.72zm5.75-7.12h2.96c.97 0 1.68.2 2.13.6.45.39.67.92.67 1.6 0 .33-.08.65-.25.94-.17.28-.43.52-.77.72.45.18.78.43 1 .76.23.32.34.69.34 1.1 0 .7-.22 1.27-.67 1.67-.45.4-1.16.61-2.13.61h-3.28v-8zm1.06 4.4v2.64h2.22c.63 0 1.07-.11 1.33-.34.26-.22.38-.55.38-.99 0-.43-.12-.75-.38-.97-.26-.23-.7-.34-1.33-.34h-2.22zm0-3.44v2.48h1.9c.63 0 1.07-.1 1.33-.32s.38-.53.38-.93c0-.38-.12-.68-.38-.9-.26-.22-.7-.33-1.33-.33h-1.9zm9.17 7.15c-.8 0-1.4-.2-1.84-.6a2.28 2.28 0 01-.64-1.72c0-.38.06-.73.18-1.04.13-.32.33-.59.6-.8.27-.21.62-.38 1.05-.5.43-.11.94-.17 1.53-.17h1.83v-.72c0-.58-.14-1-.43-1.26-.28-.28-.74-.42-1.4-.42-.58 0-1.02.12-1.32.35a1.3 1.3 0 00-.5.93h-1.13c.02-.33.1-.63.22-.91.13-.28.31-.52.56-.72.24-.2.55-.36.91-.47.36-.11.79-.17 1.27-.17.94 0 1.66.23 2.14.7.49.47.73 1.13.73 1.97V217h-.81l-.16-1.5a3.04 3.04 0 01-2.78 1.61zm.08-.99c.37 0 .7-.06 1.03-.2.32-.13.6-.31.83-.54a2.42 2.42 0 00.77-1.77v-.37h-1.83c-.82 0-1.4.14-1.75.43a1.4 1.4 0 00-.52 1.12c0 .4.13.73.37.98.26.23.63.35 1.1.35zm9.9 1c-.55 0-1.04-.1-1.47-.31a2.64 2.64 0 01-1.06-.98v4.37h-1.05V209h.81l.13 1.34c.28-.49.64-.85 1.07-1.08.45-.25.97-.37 1.57-.37.46 0 .88.08 1.27.24.38.16.71.4.99.72.28.3.49.7.64 1.17.16.47.24 1 .24 1.63v.7a5 5 0 01-.24 1.62c-.15.47-.36.86-.64 1.18-.28.32-.61.56-1 .72-.38.16-.8.24-1.26.24zm-.24-1c.7 0 1.25-.22 1.67-.67.41-.46.62-1.16.62-2.1v-.7c0-.93-.21-1.62-.64-2.08a2.12 2.12 0 00-1.65-.69c-.64 0-1.18.22-1.61.67-.43.45-.66 1.1-.68 1.97v.83c0 .9.22 1.59.64 2.07.43.47.98.7 1.65.7zm5.61-7.12h1.06v2.88h1.77c1.13 0 1.95.23 2.47.69.52.46.78 1.08.78 1.87 0 .77-.26 1.39-.78 1.86-.53.46-1.35.7-2.47.7h-2.83v-8zm1.06 3.84v3.2h1.77c.8 0 1.35-.14 1.67-.42.33-.28.5-.68.5-1.18 0-.5-.17-.9-.5-1.17-.33-.29-.89-.43-1.67-.43h-1.77zm6.52-3.84h1.06v8h-1.06v-8zm13.28 1.22l-.99 1.66-3.2 5.12h-1.31v-8h1.06v6.8l.99-1.68 3.2-5.12h1.31v8h-1.06v-6.78zm10.13 6.78l-3.3-8h1.18l2.7 6.69 2.51-6.69h1.12l-4.32 11.2h-1.12l1.23-3.2zm8.61.11c-.51 0-.98-.08-1.4-.25a3.18 3.18 0 01-1.8-1.9c-.16-.48-.24-1.01-.24-1.6v-.71c0-.59.08-1.11.24-1.57a3.07 3.07 0 011.8-1.94c.42-.17.89-.25 1.4-.25.45 0 .84.06 1.19.17.35.12.65.29.9.5.27.2.49.44.65.72.17.28.3.57.38.88h-1.12c-.16-.36-.4-.67-.7-.91a2 2 0 00-1.3-.37c-.68 0-1.25.24-1.7.72-.43.47-.65 1.15-.65 2.05v.7c0 .44.06.83.18 1.19.11.34.28.63.5.86.2.23.45.42.73.54.28.12.6.18.94.18.58 0 1.02-.13 1.31-.38.3-.26.53-.61.7-1.06h1.11c-.16.7-.5 1.28-1 1.74-.52.46-1.22.7-2.12.7zm3.92-.99h.24c.2 0 .37-.04.53-.13.17-.1.32-.27.43-.51.13-.24.23-.58.3-1 .07-.42.1-.97.1-1.64V209h5.44v8h-1.05v-7.04h-3.33v2.88c0 .83-.06 1.53-.18 2.08-.1.54-.26.98-.48 1.31-.21.32-.47.55-.77.69-.3.13-.62.2-.99.2h-.24v-1zm12.11.88l-3.3-8h1.18l2.7 6.69 2.51-6.69h1.12l-4.32 11.2h-1.12l1.23-3.2zm5.96-8h5.12v.96h-4.06V217h-1.06v-8zm12.38 1.22l-.99 1.66-3.2 5.12h-1.31v-8h1.06v6.8l.99-1.68 3.2-5.12h1.3v8h-1.05v-6.78z" fill="#23201F"/><path opacity=".05" fill="#1C5F87" d="M0 159h670v32H0z"/><path fill="#FA5B3D" d="M0 159h252v32H0z"/><path d="M6.32 171.42l2.34-1.62h1.5V181h-1.5v-9.54l-2.34 1.59v-1.63zm6.8-1.62h6.15v1.38H14.5l-.26 3.07c.59-.5 1.32-.75 2.2-.75.5 0 .98.09 1.42.27a3.35 3.35 0 011.87 1.98c.18.46.27.98.27 1.55 0 .58-.09 1.1-.27 1.59a3.4 3.4 0 01-1.98 1.97c-.47.18-1 .27-1.59.27a4.2 4.2 0 01-2.5-.74c-.69-.49-1.13-1.2-1.34-2.14h1.57c.18.48.47.84.85 1.09.38.23.86.35 1.42.35.7 0 1.26-.21 1.67-.63.4-.41.6-1 .6-1.76 0-.74-.2-1.32-.6-1.74-.4-.42-.96-.62-1.67-.62-.48 0-.9.1-1.24.28-.35.2-.6.43-.79.7h-1.49l.48-6.12zM24 175.53c-.4 0-.78-.07-1.12-.2-.33-.12-.62-.3-.86-.54a2.45 2.45 0 01-.55-.83c-.13-.32-.19-.67-.19-1.06v-.6c0-.39.06-.74.2-1.06.12-.32.3-.6.54-.83.24-.24.53-.42.86-.55.34-.12.72-.19 1.12-.19.4 0 .77.07 1.1.2a2.4 2.4 0 011.41 1.37c.14.32.21.67.21 1.06v.6a2.63 2.63 0 01-.77 1.9 2.4 2.4 0 01-.85.54c-.33.12-.7.19-1.1.19zm0-1.25c.42 0 .74-.12.98-.35.24-.24.36-.58.36-1.03v-.6c0-.45-.12-.8-.36-1.03a1.32 1.32 0 00-.98-.35c-.42 0-.75.12-1 .35-.23.24-.34.58-.34 1.03v.6c0 .45.11.8.35 1.03.24.23.57.35 1 .35zm7.68 6.85c-.4 0-.78-.07-1.12-.2-.33-.12-.62-.3-.86-.54a2.45 2.45 0 01-.55-.83c-.13-.32-.19-.67-.19-1.06v-.6c0-.39.06-.74.2-1.06.12-.32.3-.6.54-.83.24-.24.53-.42.86-.55.34-.12.72-.19 1.12-.19.4 0 .77.07 1.1.2a2.4 2.4 0 011.41 1.37c.14.32.21.67.21 1.06v.6a2.63 2.63 0 01-.77 1.9 2.4 2.4 0 01-.85.54c-.33.12-.7.19-1.1.19zm0-1.25c.42 0 .74-.12.98-.35.24-.24.36-.58.36-1.03v-.6c0-.45-.12-.8-.36-1.03a1.32 1.32 0 00-.98-.35c-.42 0-.75.12-1 .35-.23.24-.34.58-.34 1.03v.6c0 .45.11.8.35 1.03.24.23.57.35 1 .35zM30.3 169.8h1.54L25.38 181h-1.54l6.46-11.2z" fill="#FAFAFA"/><path d="M4.53 146.8l-4.05-8h1.25l3.39 6.8 2.94-6.8h1.22L4.34 150H3.12l1.4-3.2zm7.96 3.31c-.51 0-.98-.08-1.4-.25a3.17 3.17 0 01-1.8-1.9c-.16-.48-.24-1.01-.24-1.6v-.71c0-.59.08-1.11.24-1.57.17-.47.4-.86.7-1.18.32-.34.68-.59 1.1-.76.42-.17.89-.25 1.4-.25.45 0 .84.06 1.19.17.35.12.65.29.9.5.27.2.49.44.65.72.17.28.3.57.38.88H14.5c-.16-.36-.4-.67-.7-.91a2 2 0 00-1.3-.37c-.68 0-1.25.24-1.7.72-.43.47-.65 1.15-.65 2.05v.7c0 .44.06.83.18 1.19.11.34.28.63.5.86.2.23.45.42.73.54.29.12.6.18.94.18.58 0 1.02-.13 1.31-.38.3-.26.53-.61.7-1.06h1.11c-.16.7-.5 1.28-1 1.74-.52.46-1.22.7-2.12.7zm7.16-.11l-3.31-8h1.18l2.7 6.69 2.52-6.69h1.12l-4.32 11.2h-1.12l1.23-3.2zm5.96-8h5.12v.96h-4.06V150H25.6v-8zm12.38 1.22l-1 1.66-3.2 5.12h-1.3v-8h1.05v6.8l1-1.68 3.2-5.12h1.3v8H38v-6.78zm16.1 1.53h-1.76V150H51.2v-5.25h-1.76L46.29 150h-1.32l3.53-5.8-3.21-5.4h1.3l2.86 4.93h1.76v-4.93h1.12v4.93h1.74l2.91-4.93h1.27l-3.22 5.38 3.54 5.82h-1.35l-3.13-5.25zm9.37 0H61.7V150h-1.13v-11.2h1.13v4.93h1.76l3.61-4.93h1.34l-4.01 5.42 4.33 5.78h-1.37l-3.89-5.25zm11.15.35l-3.27 4.9H70l3.93-5.8-3.61-5.4h1.36l2.97 4.43 2.98-4.43h1.33l-3.62 5.33 3.94 5.87H77.9l-3.3-4.9z" fill="#23201F"/><path opacity=".05" fill="#1C5F87" d="M0 92h670v32H0z"/><path fill="#FA5B3D" d="M0 92h335v32H0z"/><path d="M6.64 112.62l3.82-3.7c.69-.66 1.18-1.21 1.5-1.64.31-.44.47-.86.47-1.26 0-.57-.19-1.03-.57-1.38-.39-.35-.9-.53-1.54-.53s-1.15.18-1.54.55c-.38.35-.57.82-.57 1.42H6.64a3.2 3.2 0 012.16-3.15c.46-.17.97-.26 1.52-.26s1.06.09 1.5.26a3.01 3.01 0 011.9 1.76c.19.4.28.85.28 1.33 0 .6-.2 1.2-.62 1.8-.42.61-1.02 1.28-1.81 2.02l-2.95 2.78H14V114H6.64v-1.38zm13.04 1.5c-.59 0-1.12-.09-1.6-.28-.47-.2-.87-.5-1.2-.91a4.64 4.64 0 01-.77-1.63 9.44 9.44 0 01-.27-2.44v-.92c0-.94.09-1.74.27-2.4.18-.68.44-1.22.77-1.64a3 3 0 011.21-.92c.48-.2 1.01-.3 1.59-.3.58 0 1.11.09 1.58.28.48.2.89.5 1.22.93.33.41.58.96.76 1.63.19.66.28 1.47.28 2.42v.92c0 .94-.1 1.75-.28 2.42-.18.66-.44 1.2-.78 1.63-.33.42-.74.73-1.22.93-.46.2-.99.29-1.56.29zm0-1.43c.35 0 .66-.06.94-.18.29-.13.53-.33.72-.62.2-.3.34-.7.45-1.19.1-.49.16-1.1.16-1.84v-.92c0-.74-.05-1.35-.16-1.83-.1-.49-.26-.88-.47-1.18-.19-.3-.43-.5-.72-.63a2.34 2.34 0 00-1.89 0c-.27.12-.5.33-.7.63-.19.29-.34.67-.45 1.17-.1.49-.16 1.1-.16 1.84v.92c0 .74.06 1.35.16 1.84.11.48.26.87.45 1.17.2.3.45.51.72.64.3.12.6.18.95.18zm8.24-4.16c-.4 0-.78-.07-1.12-.2-.33-.12-.62-.3-.86-.54a2.45 2.45 0 01-.55-.83c-.12-.32-.19-.67-.19-1.06v-.6c0-.39.07-.74.2-1.06.12-.32.3-.6.54-.83.24-.24.53-.42.86-.55.34-.12.72-.19 1.12-.19.4 0 .78.07 1.1.2a2.41 2.41 0 011.41 1.37c.14.32.21.67.21 1.06v.6a2.63 2.63 0 01-.77 1.9c-.23.23-.51.4-.84.54-.33.12-.7.19-1.1.19zm0-1.25c.42 0 .74-.12.98-.35.24-.24.37-.58.37-1.03v-.6c0-.45-.13-.8-.37-1.03a1.32 1.32 0 00-.98-.35c-.41 0-.74.12-.99.35-.23.24-.35.58-.35 1.03v.6c0 .45.12.8.35 1.03.25.23.58.35 1 .35zm7.68 6.85c-.4 0-.78-.07-1.12-.2-.33-.12-.62-.3-.86-.54a2.45 2.45 0 01-.55-.83c-.12-.32-.19-.67-.19-1.06v-.6c0-.39.07-.74.2-1.06.12-.32.3-.6.54-.83.24-.24.53-.42.86-.55.34-.12.72-.19 1.12-.19.4 0 .78.07 1.1.2a2.41 2.41 0 011.41 1.37c.14.32.21.67.21 1.06v.6a2.63 2.63 0 01-.77 1.9c-.23.23-.51.4-.84.54-.33.12-.7.19-1.1.19zm0-1.25c.42 0 .74-.12.98-.35.24-.24.37-.58.37-1.03v-.6c0-.45-.13-.8-.37-1.03a1.32 1.32 0 00-.98-.35c-.41 0-.74.12-.99.35-.23.24-.35.58-.35 1.03v.6c0 .45.12.8.35 1.03.25.23.58.35 1 .35zm-1.37-10.08h1.53L29.3 114h-1.54l6.47-11.2z" fill="#FAFAFA"/><path d="M4.34 77.75H2.56V83H1.44V71.8h1.12v4.93h1.76l3.62-4.93h1.34l-4.02 5.42L9.6 83H8.22l-3.88-5.25zm10.76 5.36a3.4 3.4 0 01-1.47-.3 2.64 2.64 0 01-1.06-.98v4.37h-1.05V75h.81l.13 1.34c.28-.49.63-.85 1.07-1.08.45-.25.97-.37 1.57-.37.46 0 .88.08 1.26.24.39.16.72.4 1 .72.27.3.49.7.64 1.17.16.47.24 1 .24 1.63v.7a5 5 0 01-.24 1.62c-.15.47-.37.86-.64 1.18-.28.32-.61.56-1 .72-.38.16-.8.24-1.26.24zm-.24-.99c.7 0 1.25-.22 1.66-.67.42-.46.63-1.16.63-2.1v-.7c0-.93-.22-1.62-.64-2.08a2.12 2.12 0 00-1.65-.69c-.64 0-1.18.22-1.62.67-.42.45-.65 1.1-.67 1.97v.83c0 .9.22 1.59.64 2.07.43.47.98.7 1.65.7zm8.57 1c-1.06 0-1.9-.33-2.51-.97-.62-.65-.93-1.58-.93-2.8v-.7c0-1.2.3-2.14.93-2.79a3.33 3.33 0 012.5-.97c1.05 0 1.89.32 2.5.97.63.65.95 1.58.95 2.79v.65h-5.8v.05c0 .93.22 1.62.65 2.08.42.46 1 .69 1.7.69.67 0 1.17-.14 1.51-.42.36-.27.61-.62.77-1.04h1.09c-.09.35-.21.67-.38.96a2.77 2.77 0 01-1.67 1.3c-.38.13-.82.2-1.31.2zm0-7.24c-.7 0-1.25.22-1.66.66-.41.42-.64 1.04-.7 1.84h4.7c-.05-.84-.28-1.46-.7-1.88a2.2 2.2 0 00-1.64-.62zM35.02 83h-6.13v2.08h-1.06v-3.04h.85a4.18 4.18 0 00.74-1.74 24.73 24.73 0 00.18-2.9V75h5.35v7.04h1.12v3.04h-1.05V83zm-4.37-5.6a26.22 26.22 0 01-.18 2.94 4.94 4.94 0 01-.56 1.7h3.99v-6.08h-3.25v1.44zm12.6-1.18l-.99 1.66-3.2 5.12h-1.3v-8h1.05v6.8l.99-1.68L43 75h1.31v8h-1.06v-6.78zM46.07 75h6.4v.96H49.8V83h-1.06v-7.04h-2.67V75zm8.16 0h1.06v2.88h1.78c1.13 0 1.95.23 2.46.69.52.46.78 1.08.78 1.87 0 .77-.26 1.39-.78 1.86-.52.47-1.34.7-2.46.7h-2.84v-8zm1.06 3.84v3.2h1.78c.79 0 1.34-.14 1.66-.42.33-.28.5-.68.5-1.18 0-.5-.17-.9-.5-1.17-.33-.29-.88-.43-1.66-.43h-1.78zM61.82 75h1.05v8h-1.05v-8z" fill="#23201F"/><path fill="#FA5B3D" d="M0 25h670v32H0z"/><path d="M6.32 43.11l4.96-7.31h1.95v7.31h1.41v1.38h-1.4V47h-1.51v-2.51H6.32V43.1zm5.4 0v-5.63l-3.75 5.63h3.76zm8.2 4.02c-.58 0-1.11-.1-1.6-.29-.46-.2-.86-.5-1.2-.91a4.64 4.64 0 01-.76-1.63 9.44 9.44 0 01-.27-2.44v-.92c0-.94.09-1.74.27-2.4.18-.68.44-1.22.77-1.64a3 3 0 011.21-.92c.48-.2 1.01-.3 1.59-.3.58 0 1.11.09 1.58.28.48.2.89.5 1.22.93.33.41.58.96.76 1.63.19.66.28 1.47.28 2.42v.92c0 .94-.1 1.75-.28 2.42-.18.66-.44 1.2-.78 1.63-.33.42-.74.73-1.22.93-.46.2-.99.29-1.56.29zm0-1.44c.36 0 .67-.06.95-.18.29-.13.53-.33.72-.62.2-.3.34-.7.45-1.19.1-.49.16-1.1.16-1.84v-.92c0-.74-.05-1.35-.16-1.83-.1-.49-.26-.88-.47-1.18-.19-.3-.43-.5-.72-.63a2.34 2.34 0 00-1.89 0c-.27.12-.5.33-.7.63-.19.29-.34.68-.45 1.17-.1.49-.16 1.1-.16 1.84v.92c0 .74.06 1.35.16 1.84.11.48.26.87.45 1.17.2.3.45.51.72.64.3.12.6.18.95.18zm8.25-4.16c-.4 0-.78-.07-1.12-.2-.33-.12-.62-.3-.86-.54a2.45 2.45 0 01-.55-.83c-.12-.32-.19-.67-.19-1.06v-.6c0-.39.07-.74.2-1.06.12-.32.3-.6.54-.83.24-.24.53-.42.86-.55.34-.12.72-.19 1.12-.19.4 0 .78.07 1.1.2a2.41 2.41 0 011.41 1.37c.14.32.21.67.21 1.06v.6a2.63 2.63 0 01-.77 1.9c-.23.23-.51.4-.84.54-.33.12-.7.19-1.1.19zm0-1.25c.42 0 .74-.12.98-.35.24-.24.37-.58.37-1.03v-.6c0-.45-.13-.8-.37-1.03a1.32 1.32 0 00-.98-.35c-.41 0-.74.12-.99.35-.23.24-.35.58-.35 1.03v.6c0 .45.12.8.35 1.03.25.23.58.35 1 .35zm7.68 6.85c-.4 0-.78-.07-1.12-.2-.33-.12-.62-.3-.86-.54a2.45 2.45 0 01-.55-.83c-.12-.32-.19-.67-.19-1.06v-.6c0-.39.07-.74.2-1.06.12-.32.3-.6.54-.83.24-.24.53-.42.86-.55.34-.12.72-.19 1.12-.19.4 0 .78.07 1.1.2a2.41 2.41 0 011.41 1.37c.14.32.21.67.21 1.06v.6a2.63 2.63 0 01-.77 1.9c-.23.23-.51.4-.84.54-.33.12-.7.19-1.1.19zm0-1.25c.42 0 .74-.12.98-.35.24-.24.37-.58.37-1.03v-.6c0-.45-.13-.8-.37-1.03a1.32 1.32 0 00-.98-.35c-.41 0-.74.12-.99.35-.23.24-.35.58-.35 1.03v.6c0 .45.12.8.35 1.03.25.23.58.35 1 .35zM34.48 35.8H36L29.55 47H28l6.47-11.2z" fill="#FAFAFA"/><path d="M8.64 5.82H2.56V16H1.44V4.8h8.32V16H8.64V5.82zm6.96 10.3c-.53 0-1.02-.1-1.45-.26a3.14 3.14 0 01-1.83-1.9c-.16-.48-.24-1.01-.24-1.6v-.71c0-.59.09-1.11.26-1.57.17-.47.4-.86.7-1.18.31-.33.68-.59 1.1-.76.44-.17.93-.25 1.46-.25.54 0 1.02.08 1.44.25a3.13 3.13 0 011.82 1.92c.18.47.26 1 .26 1.59v.7c0 .59-.08 1.12-.25 1.59a3.5 3.5 0 01-.72 1.18c-.3.32-.67.57-1.1.74-.44.17-.92.25-1.45.25zm0-1c.73 0 1.32-.23 1.76-.7.45-.48.68-1.17.68-2.07v-.7c0-.89-.23-1.57-.7-2.05a2.28 2.28 0 00-1.74-.72 2.3 2.3 0 00-1.76.72c-.44.47-.67 1.15-.67 2.05v.7c0 .89.23 1.57.67 2.05.46.48 1.05.72 1.76.72zm8.24-2.8h-1.42V16h-1.06V8h1.06v3.36h1.42L26.13 8h1.31l-2.64 3.86L27.76 16h-1.31l-2.61-3.68zM32.02 16l-3.3-8h1.18l2.7 6.69L35.11 8h1.12l-4.32 11.2H30.8l1.23-3.2zm11.15-7.04h-4.13V16H38V8h6.23v8h-1.05V8.96zm6.25 3.36h-1.43V16h-1.05V8h1.05v3.36h1.43L51.7 8H53l-2.63 3.86L53.34 16h-1.31l-2.61-3.68zm7.44 3.8c-.8 0-1.42-.21-1.84-.62a2.28 2.28 0 01-.64-1.7c0-.4.06-.74.17-1.05.13-.32.33-.58.6-.8.27-.21.63-.38 1.05-.5.43-.11.94-.17 1.54-.17h1.82v-.72c0-.58-.14-1-.43-1.26-.28-.28-.74-.42-1.4-.42-.58 0-1.02.12-1.32.35a1.3 1.3 0 00-.5.93h-1.13c.02-.33.1-.63.22-.91.13-.28.32-.52.56-.72.25-.2.55-.36.91-.47.37-.11.79-.17 1.27-.17.95 0 1.66.23 2.14.7.5.47.74 1.13.74 1.97V16h-.82l-.16-1.5a3.04 3.04 0 01-2.78 1.61zm.08-1c.36 0 .7-.06 1.02-.2.32-.13.6-.31.83-.54a2.42 2.42 0 00.77-1.77v-.37h-1.82c-.82 0-1.41.14-1.76.43a1.4 1.4 0 00-.51 1.12c0 .4.12.73.36.98.26.23.63.35 1.1.35zm15.5-6.16H68.3V16h-1.06V8h6.24v8h-1.06V8.96zm7.35 7.15a3.4 3.4 0 01-1.47-.3 2.64 2.64 0 01-1.06-.98v4.37H76.2V8h.82l.13 1.34c.28-.49.63-.85 1.07-1.08.45-.25.97-.37 1.57-.37.46 0 .88.08 1.26.24.39.16.72.4 1 .72.27.3.48.7.63 1.17.16.47.24 1 .24 1.63v.7a5 5 0 01-.24 1.62c-.15.47-.36.86-.64 1.18-.27.32-.6.56-.99.72-.38.16-.8.24-1.26.24zm-.24-.99c.7 0 1.25-.22 1.66-.67.42-.46.63-1.16.63-2.1v-.7c0-.93-.22-1.62-.64-2.08a2.12 2.12 0 00-1.65-.69c-.64 0-1.18.22-1.62.67-.42.45-.65 1.1-.67 1.97v.83c0 .9.21 1.59.64 2.07.43.47.98.7 1.65.7zm8.65 1c-.54 0-1.02-.1-1.46-.26a3.13 3.13 0 01-1.82-1.9c-.16-.48-.24-1.01-.24-1.6v-.71c0-.59.08-1.11.25-1.57.17-.47.4-.86.7-1.18.32-.33.68-.59 1.11-.76.44-.17.92-.25 1.46-.25.53 0 1.01.08 1.44.25.43.17.8.42 1.12.74.3.32.54.71.7 1.18.17.47.26 1 .26 1.59v.7c0 .59-.09 1.12-.26 1.59a3.5 3.5 0 01-.72 1.18c-.3.32-.67.57-1.1.74-.44.17-.92.25-1.44.25zm0-1c.72 0 1.3-.23 1.76-.7.44-.48.67-1.17.67-2.07v-.7c0-.89-.23-1.57-.69-2.05a2.28 2.28 0 00-1.74-.72 2.3 2.3 0 00-1.76.72c-.45.47-.68 1.15-.68 2.05v.7c0 .89.23 1.57.68 2.05.46.48 1.04.72 1.76.72zm11.66.88h-6.13v2.08h-1.05v-3.04h.85a4.18 4.18 0 00.74-1.74 24.73 24.73 0 00.18-2.9V8h5.35v7.04h1.12v3.04h-1.06V16zm-4.37-5.6a26.22 26.22 0 01-.17 2.94 4.93 4.93 0 01-.56 1.7h3.98V8.96H95.5v1.44zm9.3 5.6l-3.31-8h1.18l2.7 6.69L107.89 8H109l-4.32 11.2h-1.12l1.23-3.2zm8.44-3.68h-1.42V16h-1.06V8h1.06v3.36h1.42L115.52 8h1.31l-2.64 3.86 2.96 4.14h-1.31l-2.6-3.68zM117.95 8h6.4v.96h-2.67V16h-1.06V8.96h-2.67V8zm10.89 8.11c-.54 0-1.02-.08-1.46-.25a3.13 3.13 0 01-1.82-1.9c-.16-.48-.24-1.01-.24-1.6v-.71c0-.59.08-1.11.25-1.57.17-.47.4-.86.7-1.18.32-.33.69-.59 1.11-.76.44-.17.92-.25 1.46-.25.53 0 1.01.08 1.44.25.44.17.8.42 1.12.74.3.32.54.71.7 1.18.17.47.26 1 .26 1.59v.7c0 .59-.09 1.12-.26 1.59a3.5 3.5 0 01-.72 1.18c-.3.32-.66.57-1.1.74-.44.17-.92.25-1.44.25zm0-.99c.72 0 1.31-.23 1.76-.7.45-.48.67-1.17.67-2.07v-.7c0-.89-.23-1.57-.69-2.05a2.28 2.28 0 00-1.74-.72 2.3 2.3 0 00-1.76.72c-.45.47-.67 1.15-.67 2.05v.7c0 .89.22 1.57.67 2.05.46.48 1.04.72 1.76.72zM134.59 8h2.96c.97 0 1.68.2 2.13.6.45.39.67.92.67 1.6 0 .33-.08.65-.25.94a2 2 0 01-.77.72c.45.18.78.43 1 .76.23.32.34.69.34 1.1 0 .7-.22 1.27-.67 1.67-.45.4-1.16.61-2.13.61h-3.28V8zm1.06 4.4v2.64h2.22c.63 0 1.08-.11 1.33-.34.26-.22.39-.55.39-.99 0-.42-.13-.75-.39-.97-.25-.23-.7-.34-1.33-.34h-2.22zm0-3.44v2.48h1.9c.63 0 1.08-.1 1.33-.32.26-.22.39-.53.39-.93 0-.38-.13-.68-.39-.9-.25-.22-.7-.33-1.33-.33h-1.9z" fill="#23201F"/></svg>