<svg fill="none" xmlns="http://www.w3.org/2000/svg" viewBox="0 0 20 16"><path opacity=".4" d="M10 0c4.98 0 9.13 3.45 10 8-.87 4.55-5.02 8-10 8S.87 12.55 0 8c.87-4.55 5.02-8 10-8zm0 14.22c1.89 0 3.71-.61 5.19-1.74A7.97 7.97 0 0018.1 8a7.97 7.97 0 00-2.92-4.47 8.53 8.53 0 00-10.38 0A7.97 7.97 0 001.9 8a7.97 7.97 0 002.92 4.48A8.53 8.53 0 0010 14.22zM10 12c-1.1 0-2.16-.42-2.94-1.17a3.92 3.92 0 010-5.66 4.24 4.24 0 015.88 0 3.92 3.92 0 010 5.66A4.24 4.24 0 0110 12zm0-1.78c.61 0 1.2-.23 1.63-.65a2.18 2.18 0 000-3.14 2.36 2.36 0 00-3.26 0 2.18 2.18 0 000 3.14c.43.42 1.02.65 1.63.65z" fill="#23201F"/></svg>