<svg fill="none" xmlns="http://www.w3.org/2000/svg" viewBox="0 0 85 21"><path d="M5.03 21c-1.64 0-2.9-.5-3.75-1.51C.43 18.46 0 17.03 0 15.19V5.38C0 3.6.43 2.26 1.28 1.37 2.14.46 3.38 0 5.03 0s2.9.46 3.75 1.37c.86.9 1.28 2.23 1.28 4v9.82c0 1.86-.42 3.29-1.28 4.3-.85 1-2.1 1.51-3.75 1.51zm0-3.8c.37 0 .61-.15.74-.47.12-.32.19-.77.19-1.35V5.3c0-.44-.07-.8-.2-1.08-.1-.28-.34-.43-.7-.43-.68 0-1.03.52-1.03 1.56v10.06c0 .59.08 1.04.22 1.34.14.3.4.46.78.46zM11.64 3.24h4.15v2.23c.18-.72.48-1.3.9-1.75.43-.45 1-.67 1.71-.67 1.17 0 2.04.37 2.59 1.1.57.72.85 1.75.85 3.1V20.8h-4.08V7.68c0-.38-.08-.71-.24-.98a.72.72 0 00-.68-.41c-.43 0-.72.2-.86.6-.13.38-.19.9-.19 1.56V20.8h-4.15V3.24zM28.35 21c-1.79 0-3.07-.5-3.85-1.49-.77-.99-1.16-2.47-1.16-4.44V8.02c0-1.62.46-2.85 1.38-3.7.91-.85 2.2-1.27 3.84-1.27 3.34 0 5 1.65 5 4.97v1.27c0 1.28 0 2.32-.04 3.12H27.5v3.4c0 .61.07 1.1.2 1.45.12.33.39.5.8.5.32 0 .54-.1.66-.29.15-.19.23-.4.24-.65.03-.25.05-.62.05-1.1v-1.7h4.13v1c0 2.05-.4 3.56-1.19 4.54-.77.96-2.12 1.44-4.03 1.44zm1.09-10.68V8.06c0-1.26-.3-1.9-.93-1.9-.7 0-1.04.64-1.04 1.9v2.26h1.97zM35.14 20.8V.2h4.2l1.88 9.86V.19h3.94v20.62h-3.99l-2.04-10.32V20.8h-3.99zM51.76 21c-1.79 0-3.07-.5-3.85-1.49-.77-.99-1.16-2.47-1.16-4.44V8.02c0-1.62.46-2.85 1.38-3.7.91-.85 2.2-1.27 3.84-1.27 3.34 0 5.01 1.65 5.01 4.97v1.27c0 1.28-.02 2.32-.05 3.12H50.9v3.4c0 .61.07 1.1.2 1.45.12.33.39.5.8.5.32 0 .54-.1.66-.29.15-.19.23-.4.24-.65.03-.25.05-.62.05-1.1v-1.7h4.13v1c0 2.05-.4 3.56-1.19 4.54-.77.96-2.12 1.44-4.03 1.44zm1.09-10.68V8.06c0-1.26-.3-1.9-.93-1.9-.7 0-1.04.64-1.04 1.9v2.26h1.97zM60.3 20.8L58.2 3.25h3.56l1.16 9.43 1-9.43h3.63l1.18 9.43.98-9.43h3.91L71.4 20.81h-4.15l-1.23-9.99-1.1 9.99h-4.6zM79.78 21c-3.44 0-5.15-1.76-5.15-5.28l.02-1.4h4.16l.02 2.07c0 .42.08.74.24.96.15.21.42.31.78.31.55 0 .83-.45.83-1.36 0-.68-.13-1.2-.4-1.59a5.3 5.3 0 00-1.24-1.22l-2.2-1.73c-.76-.6-1.31-1.2-1.64-1.82a5.92 5.92 0 01-.5-2.7c0-.89.23-1.65.69-2.27a4.35 4.35 0 011.87-1.44 6.72 6.72 0 012.59-.48c3.37 0 5.06 1.7 5.06 5.09v.33h-4.3V7.8c0-.42-.07-.77-.21-1.06-.13-.3-.35-.45-.67-.45-.28 0-.5.09-.66.26a.98.98 0 00-.22.67c0 .64.25 1.14.74 1.5l2.56 1.89a8.03 8.03 0 012.11 2.25c.5.8.74 1.82.74 3.05 0 1.63-.46 2.89-1.38 3.77A5.33 5.33 0 0179.78 21z" fill="#FAFAFA"/></svg>