<svg fill="none" xmlns="http://www.w3.org/2000/svg" viewBox="0 0 700 408"><path d="M556 67H370.03L358 142" stroke="#FABA3D"/><path d="M556.64 67H556a5 5 0 1010 0 5 5 0 00-10 0h1.29a3.71 3.71 0 117.43 0 3.71 3.71 0 01-7.43 0h-.64z" fill="#FABA3D"/><path d="M375.68 48.11a4.8 4.8 0 01-1.86-.35 4.17 4.17 0 01-1.47-1.02 4.8 4.8 0 01-.97-1.64 6.62 6.62 0 01-.34-2.19V41.9c0-.81.12-1.54.35-2.18.24-.64.56-1.18.96-1.63a4.61 4.61 0 013.33-1.4c.67 0 1.3.13 1.86.36.56.23 1.05.58 1.47 1.02.41.45.73 1 .96 1.65.23.64.35 1.37.35 2.18v1.02c0 .81-.12 1.54-.35 2.18a4.8 4.8 0 01-.98 1.63 4.19 4.19 0 01-3.31 1.4zm0-1.05c.5 0 .96-.1 1.4-.28.42-.18.79-.44 1.1-.8.3-.35.55-.78.72-1.3a5.4 5.4 0 00.27-1.77V41.9c0-.65-.1-1.23-.27-1.75a3.9 3.9 0 00-.74-1.3 3.31 3.31 0 00-2.48-1.09c-.5 0-.97.08-1.4.27-.42.18-.79.44-1.1.8-.3.35-.55.79-.73 1.3-.17.52-.26 1.1-.26 1.77v1.02c0 .66.1 1.25.27 1.76.19.51.43.95.74 1.3a3.2 3.2 0 002.48 1.09zm6.08-7.06h6.4v.96h-2.67V48h-1.06v-7.04h-2.67V40zm13.35.96h-4.13V48h-1.06v-8h6.24v8h-1.05v-7.04zm6.12 7.04l-3.31-8h1.18l2.7 6.69 2.52-6.69h1.12l-4.32 11.2H400l1.23-3.2zm8.6.11c-.5 0-.98-.08-1.4-.25a3.17 3.17 0 01-1.8-1.9c-.15-.48-.23-1.01-.23-1.6v-.71c0-.59.08-1.11.24-1.57.17-.47.4-.86.7-1.18.3-.33.67-.59 1.09-.76.42-.17.9-.25 1.4-.25.45 0 .85.06 1.19.17.35.12.66.29.91.5.27.2.48.44.64.72.17.28.3.57.39.88h-1.12c-.16-.36-.4-.67-.7-.91a2 2 0 00-1.3-.37c-.69 0-1.25.24-1.7.72-.44.47-.66 1.15-.66 2.05v.7c0 .44.06.83.18 1.19.12.34.28.63.5.86.2.23.45.42.73.54.29.12.6.18.95.18.57 0 1-.13 1.3-.38.3-.26.54-.61.7-1.06h1.12c-.16.7-.5 1.29-1.01 1.74-.51.46-1.22.7-2.11.7zm7.6-3.79h-1.42V48h-1.06v-8h1.06v3.36h1.42l2.3-3.36h1.3l-2.64 3.86 2.96 4.14h-1.3l-2.62-3.68zm9.97-7.52h1.15l-5.25 14.4h-1.15l5.25-14.4zm5.87 11.31c-.5 0-.98-.08-1.4-.25a3.17 3.17 0 01-1.8-1.9c-.16-.48-.24-1.01-.24-1.6v-.71c0-.59.08-1.11.24-1.57.17-.47.4-.86.7-1.18.32-.33.68-.59 1.1-.76.42-.17.9-.25 1.4-.25.45 0 .85.06 1.19.17.35.12.65.29.9.5.28.2.49.44.65.72.17.28.3.57.38.88h-1.12c-.16-.36-.4-.67-.7-.91a2 2 0 00-1.3-.37c-.68 0-1.25.24-1.7.72-.43.47-.65 1.15-.65 2.05v.7c0 .44.06.83.18 1.19.11.34.28.63.5.86.2.23.45.42.73.54.29.12.6.18.94.18.58 0 1.02-.13 1.31-.38.3-.26.53-.61.7-1.06h1.11c-.16.7-.5 1.29-1 1.74-.52.46-1.22.7-2.12.7zM438.4 40h2.96c.97 0 1.68.2 2.13.6.45.39.67.92.67 1.6 0 .33-.08.65-.25.94a2 2 0 01-.77.72c.44.18.78.43 1 .76.23.32.34.69.34 1.1 0 .7-.22 1.27-.67 1.67-.45.4-1.16.61-2.13.61h-3.28v-8zm1.06 4.4v2.64h2.22c.63 0 1.07-.11 1.33-.34.25-.22.38-.55.38-.99 0-.42-.13-.75-.38-.97-.26-.23-.7-.34-1.33-.34h-2.22zm0-3.44v2.48h1.9c.63 0 1.07-.1 1.33-.32.25-.22.38-.53.38-.93 0-.38-.13-.68-.38-.9-.26-.22-.7-.33-1.33-.33h-1.9zm9.17 7.15c-.8 0-1.41-.2-1.84-.6a2.28 2.28 0 01-.64-1.72c0-.38.06-.73.18-1.04.13-.32.32-.58.6-.8.27-.21.62-.38 1.05-.5.42-.11.94-.17 1.53-.17h1.83v-.72c0-.58-.15-1-.43-1.26-.28-.28-.75-.42-1.4-.42-.58 0-1.03.12-1.32.35a1.3 1.3 0 00-.5.93h-1.14c.02-.33.1-.63.23-.91s.31-.52.56-.72c.24-.2.55-.36.91-.47a4.1 4.1 0 011.26-.17c.95 0 1.67.23 2.15.7.49.47.73 1.13.73 1.97V48h-.81l-.16-1.5a3.05 3.05 0 01-2.79 1.61zm.08-.99c.37 0 .7-.06 1.03-.2.32-.13.6-.31.83-.54a2.42 2.42 0 00.77-1.77v-.37h-1.83c-.82 0-1.4.14-1.76.43a1.4 1.4 0 00-.5 1.12c0 .4.11.73.36.98.26.23.62.35 1.1.35zm12.38.88h-6.13v2.08h-1.05v-3.04h.84a4.14 4.14 0 00.74-1.74 24.73 24.73 0 00.18-2.9V40h5.36v7.04h1.12v3.04h-1.06V48zm-4.37-5.6a26.22 26.22 0 01-.17 2.94 4.91 4.91 0 01-.56 1.7h3.98v-6.08h-3.25v1.44zm7.1-2.4h1.06v2.88h1.77c1.15 0 1.97.23 2.49.69.5.45.76 1.07.76 1.87 0 .78-.26 1.4-.78 1.87-.52.46-1.35.69-2.47.69h-2.83v-8zm1.06 3.84v3.2h1.77c.8 0 1.35-.14 1.67-.42.33-.28.5-.68.5-1.18 0-.51-.17-.9-.5-1.18-.32-.28-.88-.42-1.67-.42h-1.77zm10 4.27c-.55 0-1.04-.08-1.47-.25a2.78 2.78 0 01-1.12-.8c-.3-.37-.54-.83-.7-1.38a7.15 7.15 0 01-.25-1.97V42.7c0-.55.03-1.07.08-1.59a8 8 0 01.27-1.42c.14-.44.33-.83.56-1.17a3.2 3.2 0 011.89-1.23c.33-.07.68-.13 1.04-.16l1.17-.11c.42-.06.88-.16 1.4-.32v.97c-.41.15-.8.25-1.2.3l-1.08.1-.97.13c-.31.06-.6.16-.85.32-.4.27-.71.64-.91 1.1a6.2 6.2 0 00-.39 1.85c.28-.47.65-.83 1.1-1.06.47-.23 1.01-.35 1.62-.35.48 0 .92.08 1.33.25a3.1 3.1 0 011.73 1.89c.17.45.25.96.25 1.54v.7c0 .57-.08 1.08-.25 1.54a3.13 3.13 0 01-1.82 1.89c-.43.17-.9.25-1.43.25zm0-7.07c-.74 0-1.32.22-1.76.66-.44.43-.67 1.07-.69 1.9v.83c0 .86.22 1.52.67 1.99.45.47 1.04.7 1.78.7s1.32-.23 1.76-.69c.44-.47.66-1.13.66-2v-.7c0-.87-.23-1.53-.68-1.99a2.27 2.27 0 00-1.74-.7zm7.66 7.07c-.8 0-1.41-.2-1.84-.6a2.28 2.28 0 01-.64-1.72c0-.38.06-.73.18-1.04.12-.32.32-.58.59-.8.28-.21.63-.38 1.05-.5.43-.11.94-.17 1.54-.17h1.82v-.72c0-.58-.14-1-.43-1.26-.28-.28-.74-.42-1.39-.42-.59 0-1.03.12-1.33.35a1.3 1.3 0 00-.5.93h-1.13c.02-.33.1-.63.22-.91.13-.28.32-.52.56-.72.25-.2.55-.36.92-.47.36-.11.78-.17 1.26-.17.95 0 1.66.23 2.14.7.5.47.74 1.13.74 1.97V48h-.82l-.16-1.5a3.04 3.04 0 01-2.78 1.61zm.08-.99c.36 0 .7-.06 1.02-.2.32-.13.6-.31.84-.54a2.42 2.42 0 00.76-1.77v-.37h-1.82c-.82 0-1.4.14-1.76.43a1.4 1.4 0 00-.51 1.12c0 .4.12.73.37.98.25.23.62.35 1.1.35zm10.6-10.32h1.15l-5.25 14.4h-1.15l5.25-14.4zm1.88 10.32h.24c.19 0 .36-.04.52-.13.17-.1.32-.26.44-.51s.22-.58.28-1c.08-.42.12-.97.12-1.64V40h5.44v8h-1.06v-7.04h-3.33v2.88c0 .83-.06 1.53-.17 2.08-.11.54-.27.98-.48 1.31-.22.32-.47.55-.77.69-.3.13-.63.2-1 .2h-.23v-1zm12.71 1c-1.05 0-1.89-.33-2.5-.97-.63-.65-.94-1.58-.94-2.8v-.7c0-1.2.31-2.14.93-2.79a3.34 3.34 0 012.51-.97c1.05 0 1.88.32 2.5.97.63.65.94 1.58.94 2.79v.65h-5.79v.05c0 .93.22 1.62.64 2.08.43.46 1 .69 1.71.69.67 0 1.17-.14 1.5-.42.36-.27.62-.62.78-1.04h1.08c-.08.35-.2.67-.38.96a2.75 2.75 0 01-1.66 1.3c-.39.13-.82.2-1.32.2zm0-7.24c-.69 0-1.24.22-1.66.66-.4.42-.63 1.04-.69 1.84h4.69c-.04-.84-.28-1.46-.7-1.88a2.2 2.2 0 00-1.64-.62zm10.23 4.16l-.87.16c-.34.05-.71.08-1.12.08-1.06 0-1.83-.23-2.31-.69-.49-.47-.73-1.2-.73-2.19V40h1.06v2.4c0 .7.15 1.2.43 1.49.3.29.82.43 1.55.43a7.28 7.28 0 001.99-.24V40h1.06v8h-1.06v-2.96zm6.73 3.07c-1.06 0-1.9-.32-2.51-.96-.62-.65-.93-1.58-.93-2.8v-.7c0-1.2.3-2.14.93-2.79a3.33 3.33 0 012.5-.97c1.05 0 1.88.32 2.5.97.63.65.95 1.58.95 2.79v.65h-5.8v.05c0 .93.22 1.62.65 2.08.42.46 1 .69 1.7.69.67 0 1.17-.14 1.51-.42.35-.27.61-.62.77-1.04h1.09c-.09.35-.22.67-.39.96a2.78 2.78 0 01-1.66 1.3c-.38.13-.82.2-1.31.2zm0-7.23c-.7 0-1.25.22-1.67.66-.4.42-.63 1.04-.68 1.84h4.68c-.04-.84-.27-1.46-.7-1.88a2.2 2.2 0 00-1.63-.62zm11.18 3.52h-4.45V48h-1.05v-8h1.05v3.44h4.45V40H537v8h-1.06v-3.6zm9.28-3.18l-.99 1.66-3.2 5.12h-1.31v-8h1.05v6.8l1-1.68 3.2-5.12h1.3v8h-1.05v-6.78zm6.74 6.9c-1.06 0-1.9-.33-2.51-.97-.62-.65-.93-1.58-.93-2.8v-.7c0-1.2.31-2.14.93-2.79a3.33 3.33 0 012.51-.97c1.05 0 1.88.32 2.5.97.63.65.94 1.58.94 2.79v.65h-5.8v.05c0 .93.22 1.62.65 2.08.42.46 1 .69 1.71.69.66 0 1.16-.14 1.5-.42.36-.27.61-.62.77-1.04h1.1c-.1.35-.22.67-.4.96a2.78 2.78 0 01-1.66 1.3c-.38.13-.82.2-1.3.2zm0-7.24c-.7 0-1.25.22-1.66.66-.4.42-.64 1.04-.7 1.84h4.7c-.05-.84-.28-1.46-.7-1.88a2.2 2.2 0 00-1.64-.62zM370.25 7.5h11.5v2.65L375.73 25h-3.36l6.1-14.85h-8.22V7.5zm16.64 8.98a4.3 4.3 0 01-3.18-1.18c-.38-.37-.68-.8-.9-1.3-.2-.52-.3-1.08-.3-1.7v-.85a3.87 3.87 0 012.57-3.85 4.74 4.74 0 011.8-.32 4.75 4.75 0 013.18 1.17 4.18 4.18 0 011.2 3v.85c0 .62-.1 1.18-.32 1.7-.2.5-.5.93-.88 1.3a4.32 4.32 0 01-3.17 1.18zm0-2.16c.55 0 .99-.17 1.32-.52.35-.37.53-.87.53-1.5v-.85a2 2 0 00-.53-1.47 1.7 1.7 0 00-1.32-.55c-.57 0-1.03.18-1.38.54-.33.35-.5.85-.5 1.48v.85c0 .63.17 1.13.5 1.5.35.35.81.52 1.38.52zm12.75 10.9a4.3 4.3 0 01-3.18-1.18c-.38-.36-.68-.79-.9-1.29-.2-.52-.3-1.08-.3-1.7v-.85a3.87 3.87 0 012.57-3.85 4.74 4.74 0 011.8-.33 4.75 4.75 0 013.18 1.18 4.18 4.18 0 011.2 3v.85c0 .62-.1 1.18-.32 1.7-.2.5-.5.93-.88 1.3a4.32 4.32 0 01-3.17 1.18zm0-2.14c.55 0 .99-.18 1.32-.53.35-.37.53-.87.53-1.5v-.85a2 2 0 00-.53-1.47 1.7 1.7 0 00-1.32-.55c-.57 0-1.03.18-1.38.55-.33.34-.5.84-.5 1.47v.85c0 .63.17 1.13.5 1.5.35.35.81.52 1.38.52zM397 7.5h2.75L389.51 25h-2.75l10.25-17.5z" fill="#23201F"/><path d="M690 167H501.07L464 194" stroke="#3DCDFA"/><path d="M690.64 167H690a5 5 0 1010 0 5 5 0 00-10 0h1.29a3.71 3.71 0 117.42 0 3.71 3.71 0 01-7.42 0h-.64z" fill="#3DCDFA"/><path d="M501.94 136.8h3.44c1.32 0 2.28.27 2.86.8.6.52.9 1.25.9 2.18 0 .53-.13 1-.38 1.42-.25.4-.63.73-1.16.98.64.23 1.11.58 1.41 1.04.3.46.45 1 .45 1.64 0 1.02-.3 1.8-.9 2.34-.58.53-1.54.8-2.86.8h-3.76v-11.2zm1.12 5.95v4.23h2.64c.94 0 1.6-.18 2-.53.4-.36.6-.9.6-1.59 0-.69-.2-1.21-.6-1.56-.4-.37-1.06-.55-2-.55h-2.64zm0-4.93v3.9h2.32c.94 0 1.6-.16 2-.5.4-.36.6-.84.6-1.44 0-.61-.2-1.09-.6-1.43-.4-.35-1.06-.53-2-.53h-2.32zm8.72 2.18h1.06v2.88h1.77c1.13 0 1.96.23 2.47.69.52.46.78 1.08.78 1.87 0 .77-.26 1.39-.78 1.86-.53.46-1.35.7-2.47.7h-2.83v-8zm1.06 3.84v3.2h1.77c.8 0 1.35-.14 1.67-.42.33-.28.5-.68.5-1.18 0-.5-.17-.9-.5-1.17-.33-.29-.89-.43-1.67-.43h-1.77zm6.53-3.84h1.05v8h-1.05v-8zm8.96.96h-4.13V148h-1.06v-8h6.24v8h-1.05v-7.04zm2.72 6.16h.24c.2 0 .37-.04.53-.13.17-.1.32-.27.43-.51.13-.24.23-.58.3-1 .07-.42.1-.97.1-1.64V140h5.44v8h-1.05v-7.04h-3.33v2.88c0 .83-.06 1.53-.18 2.08-.1.54-.26.98-.48 1.31-.2.32-.46.55-.76.69-.3.13-.63.2-1 .2h-.24v-1zm11.68 1c-.8 0-1.41-.21-1.84-.62a2.28 2.28 0 01-.64-1.7c0-.4.06-.74.18-1.05.13-.32.32-.59.6-.8.27-.21.62-.38 1.05-.5.42-.11.94-.17 1.53-.17h1.83v-.72c0-.58-.15-1-.44-1.26-.27-.28-.74-.42-1.39-.42-.58 0-1.03.12-1.33.35a1.3 1.3 0 00-.5.93h-1.13c.02-.33.1-.63.23-.91s.31-.52.56-.72c.24-.2.55-.36.9-.47.37-.11.8-.17 1.27-.17.95 0 1.67.23 2.15.7.49.47.73 1.13.73 1.97V148h-.81l-.16-1.5a3.04 3.04 0 01-2.79 1.61zm.08-1c.37 0 .7-.06 1.03-.2.32-.13.6-.31.83-.54a2.42 2.42 0 00.77-1.77v-.37h-1.83c-.82 0-1.4.14-1.76.43a1.4 1.4 0 00-.5 1.12c0 .4.11.73.36.98.25.23.62.35 1.1.35zm5.2-7.12h6.4v.96h-2.67V148h-1.06v-7.04h-2.67V140zm9.93 8.11c-.8 0-1.42-.2-1.84-.6a2.28 2.28 0 01-.64-1.72c0-.38.05-.73.17-1.04.13-.32.33-.59.6-.8.27-.21.62-.38 1.05-.5.43-.11.94-.17 1.54-.17h1.82v-.72c0-.58-.14-1-.43-1.26-.28-.28-.74-.42-1.4-.42-.58 0-1.02.12-1.32.35a1.3 1.3 0 00-.5.93h-1.13c.02-.33.1-.63.22-.91.13-.28.31-.52.56-.72.25-.2.55-.36.91-.47.37-.11.79-.17 1.27-.17.95 0 1.66.23 2.14.7.5.47.74 1.13.74 1.97V148h-.82l-.16-1.5a3.04 3.04 0 01-2.78 1.61zm.08-.99c.36 0 .7-.06 1.02-.2.32-.13.6-.31.83-.54a2.4 2.4 0 00.77-1.77v-.37h-1.82c-.83 0-1.41.14-1.76.43a1.4 1.4 0 00-.52 1.12c0 .4.13.73.37.98.26.23.63.35 1.1.35zm16.37.88h-6.13v2.08h-1.05v-3.04h.85a4.2 4.2 0 00.74-1.74 24.74 24.74 0 00.18-2.9V140h5.35v7.04h1.12v3.04h-1.06V148zm-4.37-5.6a26.23 26.23 0 01-.17 2.94 5 5 0 01-.56 1.7h3.98v-6.08h-3.25v1.44zm10.69 5.71c-.56 0-1.05-.1-1.47-.3a2.64 2.64 0 01-1.06-.98v4.37h-1.05V140h.81l.13 1.34c.28-.49.63-.85 1.07-1.08.45-.25.97-.37 1.57-.37.46 0 .88.08 1.26.24.39.16.72.4 1 .72.27.3.49.7.64 1.17.16.47.24 1 .24 1.63v.7a5 5 0 01-.24 1.62c-.15.47-.37.86-.64 1.18-.28.32-.61.56-1 .72-.38.16-.8.24-1.26.24zm-.24-.99c.7 0 1.25-.22 1.66-.67.42-.46.63-1.16.63-2.1v-.7c0-.93-.22-1.62-.64-2.08a2.12 2.12 0 00-1.65-.69c-.64 0-1.18.22-1.62.67-.42.45-.65 1.1-.67 1.97v.83c0 .9.22 1.59.64 2.07.43.47.98.7 1.65.7zm7.65.88l-3.31-8h1.18l2.7 6.69 2.52-6.69h1.12L588 151.2h-1.12l1.23-3.2zm5.96-8h5.12v.96h-4.07V148h-1.05v-8zm9.6 8.11c-.53 0-1.02-.08-1.45-.25a3.15 3.15 0 01-1.83-1.9c-.16-.48-.24-1.01-.24-1.6v-.71c0-.59.09-1.11.26-1.57a3.05 3.05 0 011.8-1.94c.44-.17.93-.25 1.46-.25.54 0 1.02.08 1.44.25a3.1 3.1 0 011.83 1.92c.17.47.25 1 .25 1.59v.7a4.6 4.6 0 01-.25 1.59c-.18.46-.42.85-.73 1.18-.3.32-.66.56-1.1.74-.44.17-.92.25-1.44.25zm0-.99c.73 0 1.31-.24 1.76-.7.45-.48.67-1.17.67-2.07v-.7c0-.89-.23-1.57-.69-2.05a2.28 2.28 0 00-1.74-.72 2.3 2.3 0 00-1.76.72c-.45.47-.67 1.15-.67 2.05v.7c0 .89.22 1.57.67 2.05.46.48 1.05.72 1.76.72zm5.76-7.12h5.12v.96h-4.07V148h-1.05v-8zm9.6 8.11c-.53 0-1.02-.08-1.45-.25a3.13 3.13 0 01-1.83-1.9c-.16-.48-.24-1.01-.24-1.6v-.71c0-.59.09-1.11.26-1.57.17-.47.4-.86.7-1.18.31-.34.68-.59 1.1-.76.44-.17.93-.25 1.46-.25.53 0 1.01.08 1.44.25.44.18.81.42 1.12.74.31.32.54.72.7 1.18.18.47.26 1 .26 1.59v.7c0 .59-.08 1.12-.25 1.59a3.5 3.5 0 01-.72 1.18c-.3.32-.67.56-1.1.74-.45.17-.93.25-1.45.25zm0-.99c.73 0 1.31-.24 1.76-.7.45-.48.67-1.17.67-2.07v-.7c0-.89-.23-1.57-.69-2.05a2.28 2.28 0 00-1.74-.72 2.3 2.3 0 00-1.76.72c-.45.47-.67 1.15-.67 2.05v.7c0 .89.22 1.57.67 2.05.46.48 1.05.72 1.76.72zm12.24-2.8h-1.43V148h-1.05v-8h1.05v3.36h1.43l2.29-3.36h1.3l-2.63 3.86 2.96 4.14h-1.31l-2.61-3.68zm9.26 3.8c-.56 0-1.05-.1-1.47-.31a2.64 2.64 0 01-1.06-.98v4.37h-1.06V140h.82l.13 1.34c.27-.49.63-.85 1.07-1.08.45-.25.97-.37 1.57-.37.46 0 .88.08 1.26.24.39.16.72.4 1 .72.27.3.48.7.63 1.17.16.47.24 1 .24 1.63v.7a5 5 0 01-.24 1.62c-.15.47-.36.86-.64 1.18-.27.32-.6.56-.99.72-.38.16-.8.24-1.26.24zm-.24-1c.7 0 1.25-.22 1.66-.67.42-.46.63-1.16.63-2.1v-.7c0-.93-.22-1.62-.64-2.08a2.12 2.12 0 00-1.65-.69c-.64 0-1.18.22-1.62.67-.42.45-.65 1.1-.67 1.97v.83c0 .9.21 1.59.64 2.07.43.47.98.7 1.65.7zm8.57 1c-1.06 0-1.9-.33-2.51-.97-.62-.65-.93-1.58-.93-2.8v-.7c0-1.2.3-2.14.93-2.79a3.33 3.33 0 012.5-.97c1.05 0 1.88.32 2.5.97.63.65.95 1.58.95 2.79v.65h-5.8v.05c0 .93.22 1.62.64 2.08.43.46 1 .69 1.72.69.66 0 1.16-.14 1.5-.42.35-.27.6-.62.77-1.04h1.09c-.09.34-.22.66-.39.96a2.77 2.77 0 01-1.66 1.3c-.38.13-.82.2-1.31.2zm0-7.24c-.7 0-1.25.22-1.67.66-.4.42-.63 1.04-.69 1.84h4.7c-.05-.84-.28-1.46-.71-1.88a2.2 2.2 0 00-1.63-.62zm11.59 7.12h-6.13v2.08h-1.06v-3.04h.85a4.15 4.15 0 00.74-1.74 24.74 24.74 0 00.18-2.9V140h5.35v7.04h1.12v3.04h-1.05V148zm-4.37-5.6a26.23 26.23 0 01-.18 2.94 4.92 4.92 0 01-.56 1.7h3.99v-6.08h-3.25v1.44zm12.6-1.18l-.99 1.66-3.2 5.12h-1.31v-8h1.05v6.8l1-1.68 3.2-5.12h1.3v8h-1.05v-6.78zm2.82-1.22h6.4v.96h-2.67V148h-1.06v-7.04h-2.67V140zm9.93 8.11c-.8 0-1.42-.2-1.84-.6a2.28 2.28 0 01-.64-1.72c0-.38.05-.73.17-1.04.13-.32.33-.59.6-.8.27-.21.62-.38 1.05-.5.43-.11.94-.17 1.54-.17h1.82v-.72c0-.58-.14-1-.43-1.26-.28-.28-.74-.42-1.4-.42-.58 0-1.02.12-1.32.35a1.3 1.3 0 00-.5.93h-1.13c.02-.33.1-.63.22-.91.13-.28.31-.52.56-.72.25-.2.55-.36.91-.47.37-.11.79-.17 1.27-.17.95 0 1.66.23 2.14.7.5.47.74 1.13.74 1.97V148h-.82l-.16-1.5a3.04 3.04 0 01-2.78 1.61zm.08-.99c.36 0 .7-.06 1.02-.2.32-.13.6-.31.83-.54a2.4 2.4 0 00.77-1.77v-.37h-1.82c-.83 0-1.41.14-1.76.43a1.4 1.4 0 00-.52 1.12c0 .4.13.73.37.98.26.23.63.35 1.1.35zM500.75 109.85l3.5-2.35h3V125h-3v-14.4l-3.5 2.33v-3.08zm15.87 15.38a8.98 8.98 0 01-2.73-.38 5.76 5.76 0 01-1.95-1.05c-.52-.45-.9-.98-1.18-1.6a5.24 5.24 0 01-.4-2.05c0-1 .25-1.85.75-2.55.52-.7 1.2-1.27 2.03-1.7-.7-.4-1.26-.92-1.68-1.55-.4-.63-.6-1.4-.6-2.3a4.46 4.46 0 011.55-3.4c.5-.43 1.1-.77 1.8-1a7.25 7.25 0 012.4-.38c.9 0 1.71.13 2.43.38.72.23 1.32.57 1.8 1a4.51 4.51 0 011.52 3.4c0 .9-.2 1.67-.62 2.3a4.93 4.93 0 01-1.67 1.53c.83.43 1.5 1 2.02 1.72.52.7.77 1.55.77 2.55a4.72 4.72 0 01-1.62 3.63c-.52.44-1.17.8-1.95 1.07-.77.25-1.66.38-2.67.38zm0-2.8c.5 0 .94-.07 1.32-.2.38-.14.7-.31.95-.53.27-.22.47-.47.6-.75a2 2 0 00.23-.9 2.76 2.76 0 00-.93-2.05 3.32 3.32 0 00-1-.6 4.5 4.5 0 00-1.17-.3c-.87.1-1.6.4-2.2.88-.6.48-.9 1.17-.9 2.07 0 .63.26 1.2.8 1.67s1.31.7 2.3.7zm0-7.7c.35-.06.68-.14 1-.26.31-.11.59-.27.82-.47.23-.2.42-.44.55-.72.15-.3.23-.67.23-1.1 0-.26-.07-.5-.2-.76-.12-.25-.3-.47-.53-.67-.22-.2-.48-.36-.8-.47-.32-.14-.68-.2-1.08-.2a2.95 2.95 0 00-1.92.67c-.22.2-.38.42-.5.67-.12.25-.18.5-.18.75a2.32 2.32 0 00.8 1.8c.26.2.53.37.83.5.32.12.64.2.98.25zm12.24 1.74a4.32 4.32 0 01-3.17-1.17c-.39-.37-.69-.8-.9-1.3-.2-.52-.3-1.08-.3-1.7v-.85a3.9 3.9 0 012.58-3.85 4.74 4.74 0 011.8-.32 4.74 4.74 0 013.17 1.17c.38.37.67.8.87 1.33.22.5.33 1.05.33 1.67v.85c0 .62-.11 1.18-.33 1.7-.2.5-.49.93-.87 1.3a4.3 4.3 0 01-3.18 1.17zm0-2.14c.55 0 1-.18 1.33-.53.35-.37.52-.87.52-1.5v-.85a2 2 0 00-.52-1.48 1.7 1.7 0 00-1.33-.55c-.57 0-1.02.19-1.37.55-.34.36-.5.85-.5 1.48v.85c0 .63.16 1.13.5 1.5.35.35.8.53 1.37.53zm12.75 10.9a4.32 4.32 0 01-3.17-1.17c-.39-.38-.69-.81-.9-1.31-.2-.52-.3-1.08-.3-1.7v-.85a3.9 3.9 0 012.58-3.85 4.74 4.74 0 011.8-.32 4.74 4.74 0 013.17 1.17c.38.37.67.8.87 1.33.22.5.33 1.05.33 1.67v.85c0 .62-.11 1.18-.33 1.7-.2.5-.49.93-.87 1.3a4.3 4.3 0 01-3.18 1.17zm0-2.16c.55 0 1-.17 1.33-.52.35-.37.52-.87.52-1.5v-.85a2 2 0 00-.52-1.48 1.7 1.7 0 00-1.33-.55c-.57 0-1.02.19-1.37.55-.34.36-.5.85-.5 1.48v.85c0 .63.16 1.13.5 1.5.35.35.8.53 1.37.53zM539 107.5h2.75L531.49 125h-2.75l10.25-17.5z" fill="#23201F"/><path d="M10 109h227.94L274 149" stroke="#0DAB76"/><path d="M.65 109H0a5 5 0 1010 0 5 5 0 00-10 0h1.29a3.71 3.71 0 117.43 0 3.71 3.71 0 01-7.43 0H.65z" fill="#0DAB76"/><path d="M18.64 79.82h-6.08V90h-1.12V78.8h8.32V90h-1.12V79.82zm6.96 10.3c-.53 0-1.02-.1-1.45-.26a3.14 3.14 0 01-1.83-1.9c-.16-.48-.24-1.01-.24-1.6v-.71c0-.59.09-1.11.26-1.57.17-.47.4-.86.7-1.18.31-.33.68-.59 1.1-.76.44-.17.93-.25 1.46-.25.54 0 1.02.08 1.44.25a3.1 3.1 0 011.83 1.92c.17.47.25 1 .25 1.59v.7c0 .59-.08 1.12-.25 1.59a3.5 3.5 0 01-.72 1.18c-.3.32-.67.57-1.1.74-.44.17-.92.25-1.45.25zm0-1c.73 0 1.32-.23 1.76-.7.45-.48.68-1.17.68-2.07v-.7c0-.89-.23-1.57-.7-2.05a2.28 2.28 0 00-1.74-.72 2.3 2.3 0 00-1.76.72c-.44.47-.67 1.15-.67 2.05v.7c0 .89.23 1.57.67 2.05.46.48 1.05.72 1.76.72zm8.24-2.8h-1.42V90h-1.06v-8h1.06v3.36h1.42L36.13 82h1.31l-2.64 3.86L37.76 90h-1.31l-2.61-3.68zM42.02 90l-3.3-8h1.18l2.7 6.69L45.11 82h1.12l-4.32 11.2H40.8l1.23-3.2zm11.15-7.04h-4.13V90H48v-8h6.23v8h-1.05v-7.04zm6.25 3.36h-1.43V90h-1.05v-8h1.05v3.36h1.43L61.7 82H63l-2.63 3.86L63.34 90h-1.31l-2.61-3.68zm7.44 3.8c-.8 0-1.42-.21-1.84-.62a2.28 2.28 0 01-.64-1.7c0-.4.06-.74.17-1.05.13-.32.33-.58.6-.8.27-.21.63-.38 1.05-.5.43-.11.94-.17 1.54-.17h1.82v-.72c0-.58-.14-1-.43-1.26-.28-.28-.74-.42-1.4-.42-.58 0-1.02.12-1.32.35a1.3 1.3 0 00-.5.93h-1.13c.02-.33.1-.63.22-.91.13-.28.32-.52.56-.72.25-.2.55-.36.91-.47.37-.11.79-.17 1.27-.17.95 0 1.66.23 2.14.7.5.47.74 1.13.74 1.97V90h-.82l-.16-1.5a3.04 3.04 0 01-2.78 1.61zm.08-1c.36 0 .7-.06 1.02-.2.32-.13.6-.31.83-.54a2.42 2.42 0 00.77-1.77v-.37h-1.82c-.82 0-1.41.14-1.76.43a1.4 1.4 0 00-.51 1.12c0 .4.12.73.36.98.26.23.63.35 1.1.35zM76.29 82h6.4v.96h-2.67V90h-1.06v-7.04H76.3V82zm10.81 8.11c-1.05 0-1.9-.32-2.51-.96-.62-.65-.93-1.58-.93-2.8v-.7c0-1.2.31-2.14.93-2.79a3.33 3.33 0 012.51-.97c1.05 0 1.88.32 2.5.97.63.65.94 1.58.94 2.79v.65h-5.8v.05c0 .93.22 1.62.65 2.08.43.46 1 .69 1.71.69.66 0 1.16-.14 1.5-.42.36-.27.61-.62.77-1.04h1.1c-.1.35-.22.67-.4.96a2.77 2.77 0 01-1.66 1.3c-.38.13-.82.2-1.3.2zm0-7.23c-.7 0-1.25.22-1.66.66-.4.42-.64 1.04-.7 1.84h4.7c-.05-.84-.28-1.46-.7-1.88a2.2 2.2 0 00-1.64-.62zm8 3.78L92.75 90H91.5l2.93-4.11L91.7 82h1.25l2.18 3.1L97.3 82h1.22l-2.74 3.86L98.71 90h-1.28l-2.34-3.34zm10.87-.26h-4.44V90h-1.06v-8h1.06v3.44h4.44V82h1.06v8h-1.06v-3.6zm9.28-3.18l-.99 1.66-3.2 5.12h-1.3v-8h1.05v6.8l.99-1.68L115 82h1.31v8h-1.06v-6.78zm6.26 3.1h-1.42V90h-1.06v-8h1.06v3.36h1.42L123.8 82h1.31l-2.64 3.86 2.96 4.14h-1.31l-2.6-3.68zm11.18-3.1l-.99 1.66-3.2 5.12h-1.31v-8h1.05v6.8l1-1.68 3.2-5.12h1.3v8h-1.05v-6.78zm3.94 5.42h1.28l-1.2 3.76h-.88l.8-3.76zm9.36-3.2h3.23c0-.4-.08-.76-.2-1.07a2.15 2.15 0 00-.5-.8c-.2-.23-.45-.4-.74-.51a2.31 2.31 0 00-.91-.18c-.57 0-1 .12-1.31.37-.3.24-.53.55-.7.91h-1.11a3.05 3.05 0 011-1.6c.27-.21.58-.38.92-.5a3.78 3.78 0 012.6.1 3.13 3.13 0 011.8 1.9c.15.45.24.95.24 1.5v.71c0 .61-.09 1.15-.26 1.63-.16.47-.4.87-.7 1.2-.3.33-.66.59-1.09.76-.41.17-.88.25-1.4.25-.89 0-1.6-.23-2.1-.69a3.24 3.24 0 01-1.01-1.74h1.12c.16.45.39.8.69 1.06.3.25.73.38 1.3.38.67 0 1.22-.23 1.66-.69.44-.47.68-1.14.7-2.03H146v-.96zm5.36 3.68h.24c.2 0 .37-.04.53-.13.17-.1.31-.26.43-.51.13-.25.22-.58.29-1 .07-.42.11-.97.11-1.64V82h5.44v8h-1.05v-7.04H154v2.88c0 .83-.06 1.53-.18 2.08-.1.54-.27.98-.48 1.31-.21.32-.47.55-.77.69-.3.13-.63.2-.99.2h-.24v-1zm12.72 1c-1.06 0-1.9-.33-2.51-.97-.62-.65-.93-1.58-.93-2.8v-.7c0-1.2.3-2.14.93-2.79a3.33 3.33 0 012.51-.97c1.05 0 1.88.32 2.5.97.63.65.94 1.58.94 2.79v.65h-5.8v.05c0 .93.22 1.62.65 2.08.42.46 1 .69 1.71.69.66 0 1.16-.14 1.5-.42.36-.27.61-.62.77-1.04h1.09c-.09.35-.21.67-.38.96a2.78 2.78 0 01-1.67 1.3c-.38.13-.82.2-1.31.2zm0-7.24c-.7 0-1.25.22-1.66.66-.4.42-.64 1.04-.7 1.84h4.7c-.05-.84-.28-1.46-.7-1.88a2.2 2.2 0 00-1.64-.62zm8.16 3.44h-1.42V90h-1.06v-8h1.06v3.36h1.42l2.29-3.36h1.31l-2.64 3.86 2.96 4.14h-1.31l-2.6-3.68zm4.72-4.32h6.4v.96h-2.67V90h-1.06v-7.04h-2.67V82zm11.74 8.11a3.4 3.4 0 01-1.47-.3 2.64 2.64 0 01-1.05-.98v4.37h-1.06V82h.82l.12 1.34c.28-.49.64-.85 1.08-1.08.44-.25.97-.37 1.56-.37.46 0 .88.08 1.27.24.38.16.71.4.99.72.28.3.5.7.64 1.17.16.47.24 1 .24 1.63v.7a5 5 0 01-.24 1.62c-.15.47-.36.86-.64 1.18-.28.32-.6.56-1 .72-.38.16-.8.24-1.26.24zm-.24-.99c.7 0 1.25-.22 1.67-.67.41-.46.62-1.16.62-2.1v-.7c0-.93-.21-1.62-.64-2.08a2.12 2.12 0 00-1.65-.69c-.64 0-1.17.22-1.61.67-.43.45-.65 1.1-.67 1.97v.83c0 .9.2 1.59.64 2.07.42.47.97.7 1.64.7zm8.65 1c-.53 0-1.02-.1-1.45-.26a3.13 3.13 0 01-1.83-1.9c-.16-.48-.24-1.01-.24-1.6v-.71c0-.59.09-1.11.26-1.57.17-.47.4-.86.7-1.18.31-.33.68-.59 1.1-.76.44-.17.93-.25 1.46-.25.54 0 1.02.08 1.44.25.44.17.81.42 1.12.74.31.32.55.71.7 1.18.18.47.26 1 .26 1.59v.7a4.6 4.6 0 01-.25 1.59 3.5 3.5 0 01-.72 1.18c-.3.32-.67.57-1.1.74-.44.17-.92.25-1.45.25zm0-1c.73 0 1.31-.23 1.76-.7.45-.48.67-1.17.67-2.07v-.7c0-.89-.22-1.57-.68-2.05a2.28 2.28 0 00-1.75-.72 2.3 2.3 0 00-1.76.72c-.44.47-.67 1.15-.67 2.05v.7c0 .89.23 1.57.67 2.05.46.48 1.05.72 1.76.72zm11.26-2.72h-4.44V90h-1.06v-8h1.06v3.44h4.44V82h1.06v8h-1.06v-3.6zm9.28-3.18l-.99 1.66-3.2 5.12h-1.3v-8h1.05v6.8l.99-1.68 3.2-5.12h1.31v8h-1.05v-6.78zm6.26 3.1h-1.42V90h-1.06v-8h1.06v3.36h1.42l2.3-3.36h1.3l-2.64 3.86 2.96 4.14h-1.3l-2.62-3.68zm11.18-3.1l-.99 1.66-3.2 5.12h-1.31v-8h1.05v6.8l1-1.68 3.2-5.12h1.3v8h-1.05v-6.78zM10.88 64.35l5.64-5.43c.55-.53 1.02-1 1.4-1.4.39-.4.69-.76.9-1.1.24-.33.4-.64.5-.92.1-.28.16-.58.16-.88 0-.76-.25-1.38-.73-1.85a2.76 2.76 0 00-2-.7 2.7 2.7 0 00-2 .73c-.48.48-.72 1.17-.72 2.07h-3.15c0-.85.13-1.61.4-2.3a4.81 4.81 0 013-2.9 7.2 7.2 0 012.47-.4 7 7 0 012.45.4 4.88 4.88 0 013.03 2.8 5.18 5.18 0 01-.55 5.05c-.64.95-1.62 2.04-2.95 3.25l-3.93 3.58h7.82V67H10.88v-2.65zm20.49 2.87c-.97 0-1.84-.15-2.62-.45a4.83 4.83 0 01-1.95-1.47 7.28 7.28 0 01-1.25-2.58 14.87 14.87 0 01-.43-3.82v-1.3c0-1.48.14-2.75.43-3.8.3-1.05.71-1.9 1.25-2.58a4.72 4.72 0 011.97-1.47 6.76 6.76 0 012.6-.48c.97 0 1.83.16 2.6.48.78.3 1.44.78 1.98 1.45.55.67.96 1.52 1.25 2.57.28 1.05.42 2.33.42 3.83v1.3c0 1.48-.15 2.75-.45 3.8a7 7 0 01-1.25 2.6 4.82 4.82 0 01-1.95 1.47c-.77.3-1.63.45-2.6.45zm0-2.8c.48 0 .92-.08 1.3-.25.38-.16.7-.45.98-.87.26-.42.46-.98.6-1.68.15-.71.22-1.62.22-2.72v-1.3c0-1.08-.07-1.98-.22-2.68a5.12 5.12 0 00-.63-1.7c-.27-.43-.6-.73-.97-.9-.39-.16-.81-.25-1.28-.25-.48 0-.92.09-1.3.25-.38.17-.7.46-.97.88s-.48.98-.63 1.7c-.13.7-.2 1.6-.2 2.7v1.3c0 1.08.07 1.98.2 2.7.15.7.36 1.27.63 1.7.28.42.6.7.97.87.38.17.82.25 1.3.25zm12.5-5.95a4.31 4.31 0 01-3.18-1.18c-.37-.36-.67-.79-.89-1.29-.2-.52-.3-1.08-.3-1.7v-.85a3.9 3.9 0 012.57-3.85 4.74 4.74 0 011.8-.33 4.74 4.74 0 013.18 1.18 4.17 4.17 0 011.2 3v.85c0 .62-.1 1.18-.32 1.7-.2.5-.5.93-.88 1.3a4.31 4.31 0 01-3.17 1.17zm0-2.15c.56 0 1-.17 1.33-.52.35-.37.53-.87.53-1.5v-.85a2 2 0 00-.53-1.48 1.7 1.7 0 00-1.32-.55c-.57 0-1.03.19-1.38.55-.33.35-.5.85-.5 1.48v.85c0 .63.17 1.13.5 1.5.35.35.81.52 1.38.52zm12.76 10.9a4.31 4.31 0 01-3.18-1.17c-.38-.37-.68-.8-.9-1.3-.2-.52-.3-1.08-.3-1.7v-.85a3.9 3.9 0 012.57-3.85 4.74 4.74 0 011.8-.33 4.74 4.74 0 013.18 1.18 4.17 4.17 0 011.2 3v.85c0 .62-.1 1.18-.32 1.7-.2.5-.5.93-.88 1.3a4.31 4.31 0 01-3.17 1.17zm0-2.15c.55 0 1-.17 1.32-.52.35-.37.53-.87.53-1.5v-.85a2 2 0 00-.53-1.48 1.7 1.7 0 00-1.32-.55c-.57 0-1.03.19-1.38.55-.33.35-.5.85-.5 1.48v.85c0 .63.17 1.13.5 1.5.35.35.81.52 1.38.52zM54 49.5h2.75L46.5 67h-2.75L54 49.5z" fill="#23201F"/><path d="M10 378h175.38L238 335" stroke="#FA5B3D"/><path d="M.65 378H0a5 5 0 1010 0 5 5 0 00-10 0h1.29a3.72 3.72 0 117.43.01 3.72 3.72 0 01-7.43 0H.65z" fill="#FA5B3D"/><path d="M11.44 347.8h3.52c1.38 0 2.38.3 3.02.91.65.6.98 1.45.98 2.56 0 1.09-.33 1.94-1 2.56-.64.61-1.65.91-3 .91h-2.4V359h-1.12v-11.2zm1.12 1.02v4.9h2.4c1 0 1.71-.2 2.16-.62.46-.42.69-1.03.69-1.83s-.23-1.4-.67-1.82c-.45-.42-1.18-.63-2.18-.63h-2.4zm11.2 10.3c-1.06 0-1.9-.33-2.51-.97-.62-.65-.93-1.58-.93-2.8v-.7c0-1.2.3-2.14.93-2.79a3.33 3.33 0 012.5-.97c1.05 0 1.88.32 2.5.97.63.65.95 1.58.95 2.79v.65h-5.8v.05c0 .93.22 1.62.65 2.08.42.46 1 .69 1.7.69.67 0 1.17-.14 1.51-.42.35-.27.6-.62.77-1.04h1.09c-.09.34-.22.66-.39.96a2.78 2.78 0 01-1.66 1.3c-.38.13-.82.2-1.31.2zm0-7.24c-.7 0-1.25.22-1.67.66-.4.42-.63 1.04-.68 1.84h4.68c-.04-.84-.27-1.46-.7-1.88a2.2 2.2 0 00-1.63-.62zm7.6 2l-.87-1.73V359h-1.05v-8h1.47l2.62 4.94 2.63-4.94h1.44v8h-1.06v-6.85l-.86 1.73-1.63 3.12h-1.06l-1.63-3.12zm12 5.23c-.54 0-1.03-.08-1.46-.25a3.14 3.14 0 01-1.83-1.9c-.16-.48-.24-1.01-.24-1.6v-.71c0-.59.09-1.11.26-1.57.17-.47.4-.86.7-1.18.31-.33.68-.59 1.1-.76.44-.17.93-.25 1.46-.25.54 0 1.02.08 1.44.25a3.1 3.1 0 011.83 1.92c.17.47.25 1 .25 1.59v.7c0 .59-.08 1.12-.25 1.59a3.5 3.5 0 01-.72 1.18c-.3.32-.67.56-1.1.74-.44.17-.92.25-1.45.25zm0-.99c.72 0 1.3-.24 1.75-.7.45-.48.68-1.17.68-2.07v-.7c0-.89-.23-1.57-.7-2.05a2.28 2.28 0 00-1.74-.72 2.3 2.3 0 00-1.76.72c-.44.47-.67 1.15-.67 2.05v.7c0 .89.23 1.57.67 2.05.46.48 1.05.72 1.76.72zm11.25-2.72h-4.44v3.6H49.1v-8h1.06v3.44h4.44V351h1.06v8h-1.06v-3.6zm2.82-4.4h6.4v.96h-2.67V359H60.1v-7.04h-2.67V351zm14.64 4.32h-1.42V359h-1.06v-8h1.06v3.36h1.42l2.3-3.36h1.3l-2.64 3.86L76 359h-1.3l-2.62-3.68zm5.68-4.32h2.96c.97 0 1.68.2 2.13.6.45.39.67.92.67 1.6 0 .33-.08.65-.26.94a2 2 0 01-.76.72c.44.18.78.43 1 .76.23.32.34.69.34 1.1 0 .7-.22 1.27-.67 1.67-.45.4-1.16.61-2.13.61h-3.28v-8zm1.06 4.4v2.64h2.22c.63 0 1.07-.11 1.33-.34.25-.22.38-.55.38-.99 0-.42-.13-.75-.38-.97-.26-.23-.7-.34-1.33-.34h-2.22zm0-3.44v2.48h1.9c.63 0 1.07-.1 1.33-.32.25-.22.38-.53.38-.93 0-.38-.13-.68-.38-.9-.26-.22-.7-.33-1.33-.33h-1.9zm9.17 7.15c-.8 0-1.41-.2-1.84-.6a2.28 2.28 0 01-.64-1.72c0-.38.06-.73.18-1.04.13-.32.32-.58.6-.8.27-.21.62-.38 1.05-.5.42-.11.94-.17 1.53-.17h1.83v-.72c0-.58-.15-1-.43-1.26-.28-.28-.75-.42-1.4-.42-.58 0-1.03.12-1.32.35a1.3 1.3 0 00-.5.93H85.9c.02-.33.1-.64.23-.91.13-.28.31-.52.56-.72.24-.2.55-.36.9-.47a4.1 4.1 0 011.27-.17c.95 0 1.67.23 2.15.7.49.47.73 1.13.73 1.97V359h-.81l-.16-1.5a3.04 3.04 0 01-2.79 1.61zm.08-.99c.37 0 .7-.06 1.03-.2.32-.13.6-.31.83-.54a2.43 2.43 0 00.77-1.77v-.37h-1.83c-.82 0-1.4.14-1.76.43a1.4 1.4 0 00-.5 1.12c0 .4.11.73.36.98.26.23.62.35 1.1.35zm9.9 1a3.4 3.4 0 01-1.47-.31 2.65 2.65 0 01-1.06-.98v4.37h-1.05V351h.81l.13 1.34c.28-.49.63-.85 1.07-1.08a3.2 3.2 0 011.57-.37c.46 0 .88.08 1.26.24.39.16.72.4 1 .72.27.3.49.7.64 1.17.16.47.24 1 .24 1.63v.7a5 5 0 01-.24 1.62c-.15.47-.37.86-.64 1.18-.28.32-.61.56-1 .72-.38.16-.8.24-1.26.24zm-.24-1c.7 0 1.25-.22 1.66-.67.42-.46.63-1.16.63-2.1v-.7c0-.93-.22-1.62-.64-2.08a2.12 2.12 0 00-1.65-.69c-.64 0-1.18.22-1.62.67-.42.45-.65 1.1-.67 1.97v.83c0 .9.21 1.59.64 2.07.43.46.98.7 1.65.7zm4.34-7.12h6.4v.96h-2.68V359h-1.05v-7.04h-2.67V351zm13.66 1.22l-.99 1.66-3.2 5.12h-1.31v-8h1.06v6.8l.99-1.68 3.2-5.12h1.3v8h-1.05v-6.78zm7.36 6.9a3.4 3.4 0 01-1.47-.31 2.64 2.64 0 01-1.05-.98v4.37h-1.06V351h.82l.13 1.34c.27-.49.63-.85 1.07-1.08a3.2 3.2 0 011.56-.37c.46 0 .89.08 1.27.24.38.16.71.4 1 .72.27.3.48.7.63 1.17.16.47.24 1 .24 1.63v.7a5 5 0 01-.24 1.62c-.15.47-.36.86-.64 1.18-.28.32-.6.56-1 .72-.38.16-.8.24-1.26.24zm-.23-1c.69 0 1.24-.22 1.66-.67.41-.46.62-1.16.62-2.1v-.7c0-.93-.21-1.62-.64-2.08a2.12 2.12 0 00-1.64-.69c-.64 0-1.18.22-1.62.67-.43.45-.65 1.1-.67 1.97v.83c0 .9.21 1.59.64 2.07.42.46.97.7 1.64.7zm5.6-7.12h1.06v2.88h1.78c1.13 0 1.95.23 2.46.69.52.46.78 1.08.78 1.87 0 .77-.26 1.39-.78 1.86-.52.46-1.34.7-2.46.7h-2.84v-8zm1.06 3.84v3.2h1.78c.78 0 1.34-.14 1.66-.42.33-.28.5-.68.5-1.18 0-.5-.17-.9-.5-1.17-.33-.29-.89-.43-1.66-.43h-1.78zm6.53-3.84h1.05v8h-1.05v-8zm8.06-3.2h1.15L140 362.2h-1.15l5.25-14.4zm8.98 11.2h-6.13v2.08h-1.05v-3.04h.84a4.15 4.15 0 00.74-1.74 24.74 24.74 0 00.18-2.9V351h5.36v7.04h1.12v3.04h-1.06V359zm-4.37-5.6a26.23 26.23 0 01-.17 2.94 4.92 4.92 0 01-.56 1.7h3.98v-6.08h-3.25v1.44zm10.14 5.71c-.53 0-1.02-.08-1.45-.25a3.13 3.13 0 01-1.83-1.9c-.16-.48-.24-1.01-.24-1.6v-.71c0-.59.09-1.11.26-1.57.17-.47.4-.86.7-1.18.31-.33.68-.59 1.1-.76.44-.17.93-.25 1.46-.25.54 0 1.02.08 1.44.25a3.1 3.1 0 011.83 1.92c.17.47.25 1 .25 1.59v.7a4.6 4.6 0 01-.25 1.59c-.17.45-.41.85-.72 1.18-.3.32-.67.56-1.1.74-.44.17-.92.25-1.45.25zm0-.99c.73 0 1.31-.24 1.76-.7.45-.48.67-1.17.67-2.07v-.7c0-.89-.22-1.57-.68-2.05a2.28 2.28 0 00-1.75-.72 2.3 2.3 0 00-1.76.72c-.44.47-.67 1.15-.67 2.05v.7c0 .89.23 1.57.67 2.05.46.48 1.05.72 1.76.72zm7.68-4.24l-.86-1.73V359h-1.06v-8h1.47l2.63 4.94 2.62-4.94h1.44v8h-1.06v-6.85l-.86 1.73-1.63 3.12h-1.06l-1.63-3.12zm10.88 5.23c-.8 0-1.42-.2-1.84-.6a2.28 2.28 0 01-.64-1.72c0-.38.05-.73.17-1.04.13-.32.33-.58.6-.8.27-.21.62-.38 1.05-.5.43-.11.94-.17 1.53-.17h1.83v-.72c0-.58-.15-1-.43-1.26-.28-.28-.74-.42-1.4-.42-.58 0-1.02.12-1.32.35a1.3 1.3 0 00-.5.93h-1.14c.03-.33.1-.64.23-.91.13-.28.31-.52.56-.72.24-.2.55-.36.91-.47a4.1 4.1 0 011.26-.17c.95 0 1.67.23 2.15.7.49.47.73 1.13.73 1.97V359h-.81l-.16-1.5a3.04 3.04 0 01-2.78 1.61zm.08-.99c.36 0 .7-.06 1.02-.2.32-.13.6-.31.83-.54a2.43 2.43 0 00.77-1.77v-.37h-1.83c-.82 0-1.4.14-1.75.43a1.4 1.4 0 00-.52 1.12c0 .4.13.73.37.98.26.23.63.35 1.1.35zM17.13 336.23c-1.97 0-3.5-.53-4.58-1.58-1.08-1.07-1.64-2.57-1.68-4.52h3.16c.03 1.14.3 1.99.82 2.52.52.52 1.28.78 2.28.78 1.03 0 1.8-.24 2.32-.7.52-.49.78-1.13.78-1.93 0-.72-.25-1.3-.75-1.78-.49-.46-1.21-.7-2.18-.7H15v-2.64h2.3c.8 0 1.43-.21 1.88-.63.45-.42.67-.96.67-1.63 0-.7-.23-1.26-.7-1.7-.45-.43-1.13-.65-2.02-.65-1.67 0-2.58.94-2.73 2.8h-3.15a5.6 5.6 0 011.57-4.1c1.04-1 2.47-1.5 4.3-1.5.97 0 1.82.13 2.55.38.74.23 1.35.57 1.83 1 .5.43.88.96 1.13 1.58a5.15 5.15 0 01-.15 4.17 3.9 3.9 0 01-1.63 1.58 4.31 4.31 0 012.52 4.04c0 .77-.13 1.48-.4 2.13a4.49 4.49 0 01-1.2 1.65c-.51.45-1.16.8-1.95 1.05-.76.25-1.66.38-2.7.38zm15 0c-.97 0-1.84-.16-2.63-.46a4.83 4.83 0 01-1.95-1.47 7.28 7.28 0 01-1.25-2.57 14.86 14.86 0 01-.42-3.83v-1.3c0-1.48.14-2.75.42-3.8.3-1.05.72-1.9 1.25-2.57a4.71 4.71 0 011.98-1.48 6.75 6.75 0 012.6-.48c.96 0 1.83.16 2.6.48.78.3 1.44.78 1.97 1.45.55.67.97 1.53 1.25 2.57.29 1.06.43 2.33.43 3.83v1.3c0 1.48-.15 2.75-.45 3.8a7 7 0 01-1.25 2.6 4.83 4.83 0 01-1.95 1.47c-.77.3-1.64.46-2.6.46zm0-2.8c.48 0 .91-.09 1.3-.25.38-.17.7-.46.97-.88s.47-.98.6-1.68c.15-.71.23-1.62.23-2.72v-1.3c0-1.08-.08-1.98-.23-2.68a5.12 5.12 0 00-.62-1.7c-.27-.43-.6-.73-.98-.9-.38-.16-.8-.25-1.27-.25-.49 0-.92.09-1.3.25-.39.17-.71.46-.98.88-.26.42-.47.98-.62 1.7-.14.7-.2 1.6-.2 2.7v1.3c0 1.08.06 1.98.2 2.7.15.7.36 1.27.62 1.7.29.42.61.7.98.88.38.16.81.25 1.3.25zm12.5-5.95a4.33 4.33 0 01-3.17-1.18c-.38-.37-.68-.8-.9-1.3-.2-.52-.3-1.08-.3-1.7v-.85a3.88 3.88 0 012.58-3.85 4.74 4.74 0 011.8-.32 4.74 4.74 0 013.17 1.17 4.17 4.17 0 011.2 3v.85c0 .62-.1 1.18-.32 1.7-.2.5-.5.93-.88 1.3a4.33 4.33 0 01-3.17 1.18zm0-2.16c.56 0 1-.17 1.33-.52.35-.37.53-.87.53-1.5v-.85a2 2 0 00-.53-1.47 1.7 1.7 0 00-1.32-.56c-.57 0-1.03.19-1.38.56-.33.34-.5.84-.5 1.47v.85c0 .63.17 1.13.5 1.5.35.35.8.52 1.38.52zm12.76 10.9a4.33 4.33 0 01-3.17-1.18c-.4-.36-.7-.79-.9-1.29-.2-.52-.3-1.08-.3-1.7v-.85a3.88 3.88 0 012.58-3.85 4.74 4.74 0 011.79-.32 4.74 4.74 0 013.17 1.17 4.17 4.17 0 011.2 3v.85c0 .62-.1 1.18-.32 1.7-.2.5-.5.93-.88 1.3a4.33 4.33 0 01-3.17 1.18zm0-2.15c.55 0 .99-.17 1.32-.52.35-.37.53-.87.53-1.5v-.85a2 2 0 00-.53-1.47 1.7 1.7 0 00-1.32-.56c-.57 0-1.03.19-1.38.56-.33.34-.5.84-.5 1.47v.85c0 .63.17 1.13.5 1.5.35.35.8.52 1.38.52zm-2.63-15.57h2.75L47.26 336h-2.75l10.25-17.5z" fill="#23201F"/><path d="M654 382H499.5L404 304" stroke="#1C5F87"/><path d="M654.64 382H654a5 5 0 1010 0 5 5 0 00-10 0h1.29a3.71 3.71 0 117.43.01 3.71 3.71 0 01-7.43-.01h-.64z" fill="#1C5F87"/><path d="M509.64 352.82h-6.08V363h-1.12v-11.2h8.32V363h-1.12v-10.18zm6.96 10.3c-.53 0-1.02-.1-1.45-.26a3.13 3.13 0 01-1.83-1.9c-.16-.48-.24-1.01-.24-1.6v-.71c0-.59.09-1.11.26-1.57.17-.47.4-.86.7-1.18.31-.33.68-.58 1.1-.76.44-.17.93-.25 1.46-.25.54 0 1.02.08 1.44.25.44.18.81.42 1.12.74.31.32.55.72.7 1.18.18.47.26 1 .26 1.59v.7a4.6 4.6 0 01-.25 1.59 3.5 3.5 0 01-.72 1.18c-.3.32-.67.56-1.1.74-.44.17-.92.25-1.45.25zm0-1c.73 0 1.31-.24 1.76-.7.45-.48.67-1.17.67-2.07v-.7c0-.89-.22-1.57-.68-2.05a2.28 2.28 0 00-1.75-.72 2.3 2.3 0 00-1.76.72c-.45.47-.67 1.15-.67 2.05v.7c0 .89.23 1.57.67 2.05.46.48 1.05.72 1.76.72zm8.24-2.8h-1.42V363h-1.06v-8h1.06v3.36h1.42l2.29-3.36h1.31l-2.64 3.86 2.96 4.14h-1.31l-2.61-3.68zm8.18 3.68l-3.3-8h1.18l2.7 6.69 2.51-6.69h1.12l-4.32 11.2h-1.12l1.24-3.2zm11.15-7.04h-4.13V363H539v-8h6.24v8h-1.06v-7.04zm6.25 3.36h-1.43V363h-1.05v-8h1.05v3.36h1.43l2.29-3.36h1.3l-2.63 3.86 2.96 4.14h-1.31l-2.61-3.68zm7.44 3.8c-.8 0-1.41-.21-1.84-.62a2.28 2.28 0 01-.64-1.7c0-.4.06-.74.17-1.05.13-.32.33-.58.6-.8.27-.21.63-.38 1.05-.5.43-.11.94-.17 1.54-.17h1.82v-.72c0-.58-.14-1-.43-1.26-.28-.28-.74-.42-1.4-.42-.58 0-1.02.12-1.32.35a1.3 1.3 0 00-.5.93h-1.13c.02-.33.1-.64.22-.91.13-.28.32-.52.56-.72.25-.2.55-.36.91-.47.37-.11.79-.17 1.27-.17.95 0 1.66.23 2.14.7.5.47.74 1.13.74 1.97V363h-.82l-.16-1.5a3.04 3.04 0 01-2.78 1.61zm.08-1c.36 0 .7-.06 1.02-.2.32-.13.6-.31.83-.54a2.42 2.42 0 00.77-1.77v-.37h-1.82c-.82 0-1.41.14-1.76.43a1.4 1.4 0 00-.51 1.12c0 .4.12.73.36.98.26.23.63.35 1.1.35zm12.23 1c-.8 0-1.41-.21-1.84-.62a2.28 2.28 0 01-.64-1.7c0-.4.06-.74.18-1.05.13-.32.32-.58.59-.8.28-.21.63-.38 1.05-.5.43-.11.94-.17 1.54-.17h1.83v-.72c0-.58-.15-1-.44-1.26-.28-.28-.74-.42-1.39-.42-.59 0-1.03.12-1.33.35a1.3 1.3 0 00-.5.93h-1.13c.02-.33.1-.64.23-.91.12-.28.3-.52.55-.72.25-.2.55-.36.92-.47.36-.11.78-.17 1.26-.17.95 0 1.67.23 2.15.7s.73 1.13.73 1.97V363h-.81l-.16-1.5a3.05 3.05 0 01-2.79 1.61zm.08-1c.36 0 .7-.06 1.02-.2.33-.13.6-.31.84-.54a2.42 2.42 0 00.76-1.77v-.37h-1.82c-.82 0-1.4.14-1.76.43a1.4 1.4 0 00-.51 1.12c0 .4.12.73.37.98.25.23.62.35 1.1.35zm6.31-7.12h2.96c.97 0 1.68.2 2.13.6.45.39.67.92.67 1.6 0 .33-.08.65-.25.94-.17.28-.43.52-.77.72.45.18.78.43 1 .76.23.32.34.69.34 1.1 0 .7-.22 1.27-.67 1.67-.45.4-1.16.61-2.13.61h-3.28v-8zm1.06 4.4v2.64h2.22c.63 0 1.07-.11 1.33-.34.26-.22.38-.55.38-.99 0-.42-.12-.75-.38-.97-.25-.23-.7-.34-1.33-.34h-2.22zm0-3.44v2.48h1.9c.63 0 1.08-.1 1.33-.32.26-.22.38-.53.38-.93 0-.38-.12-.68-.38-.9-.25-.22-.7-.33-1.33-.33h-1.9zm6.14-.96h6.4v.96h-2.67V363h-1.06v-7.04h-2.67V355zm10.89 8.11c-.53 0-1.02-.08-1.46-.25a3.13 3.13 0 01-1.82-1.9c-.16-.48-.24-1.01-.24-1.6v-.71c0-.59.09-1.11.26-1.57.17-.47.4-.86.7-1.18.3-.33.68-.58 1.1-.76.44-.17.93-.25 1.46-.25.53 0 1.01.08 1.44.25.44.18.81.42 1.12.74.3.32.54.72.7 1.18.18.47.26 1 .26 1.59v.7a4.6 4.6 0 01-.26 1.59 3.5 3.5 0 01-.72 1.18c-.3.32-.66.56-1.1.74-.44.17-.92.25-1.44.25zm0-.99c.73 0 1.31-.24 1.76-.7.45-.48.67-1.17.67-2.07v-.7c0-.89-.23-1.57-.69-2.05a2.28 2.28 0 00-1.74-.72 2.3 2.3 0 00-1.76.72c-.45.47-.67 1.15-.67 2.05v.7c0 .89.22 1.57.67 2.05.46.48 1.04.72 1.76.72zm7.68-4.24l-.87-1.73V363h-1.05v-8h1.47l2.62 4.94 2.63-4.94h1.44v8h-1.06v-6.85l-.86 1.73-1.63 3.12h-1.06l-1.63-3.12zm12 5.23c-.54 0-1.03-.08-1.46-.25a3.13 3.13 0 01-1.83-1.9c-.16-.48-.24-1.01-.24-1.6v-.71c0-.59.09-1.11.26-1.57.17-.47.4-.86.7-1.18.31-.33.68-.58 1.1-.76.44-.17.93-.25 1.46-.25.53 0 1.01.08 1.44.25.44.18.81.42 1.12.74.31.32.55.72.7 1.18.18.47.26 1 .26 1.59v.7a4.6 4.6 0 01-.25 1.59 3.5 3.5 0 01-.72 1.18c-.3.32-.67.56-1.1.74-.44.17-.92.25-1.45.25zm0-.99c.72 0 1.3-.24 1.75-.7.45-.48.67-1.17.67-2.07v-.7c0-.89-.23-1.57-.68-2.05a2.28 2.28 0 00-1.75-.72 2.3 2.3 0 00-1.76.72c-.45.47-.67 1.15-.67 2.05v.7c0 .89.22 1.57.67 2.05.46.48 1.05.72 1.76.72zm8.8 1c-.54 0-1.03-.1-1.47-.26a2.77 2.77 0 01-1.12-.8c-.3-.37-.53-.82-.7-1.38a7.15 7.15 0 01-.24-1.97v-1.02c0-.55.02-1.07.08-1.59a8 8 0 01.27-1.42c.14-.44.33-.83.56-1.17.24-.34.54-.62.91-.85.33-.19.66-.32.98-.38.33-.07.68-.13 1.04-.16l1.17-.11a8.2 8.2 0 001.39-.32v.97c-.4.15-.8.25-1.18.3l-1.1.1-.97.13c-.3.06-.6.16-.85.32-.4.27-.7.64-.9 1.1-.2.46-.33 1.08-.4 1.85a2.7 2.7 0 011.11-1.06c.47-.23 1-.35 1.62-.35.48 0 .92.08 1.32.25a3.1 3.1 0 011.73 1.89c.17.45.26.96.26 1.54v.7a4.4 4.4 0 01-.26 1.54 3.15 3.15 0 01-1.82 1.89c-.43.17-.9.25-1.42.25zm0-7.08c-.73 0-1.32.22-1.75.66-.44.43-.67 1.07-.7 1.9v.83c0 .86.23 1.52.68 1.99.45.46 1.04.7 1.77.7.74 0 1.33-.23 1.76-.69.44-.47.66-1.13.66-2v-.7c0-.87-.22-1.53-.67-1.99a2.27 2.27 0 00-1.75-.7zm11.25.18l-1 1.66-3.2 5.12h-1.3v-8h1.05v6.8l1-1.68 3.2-5.12h1.3v8h-1.05v-6.78zm2.74 5.9h.24c.19 0 .37-.04.52-.13.18-.1.32-.26.44-.51.13-.25.22-.58.28-1 .08-.42.12-.97.12-1.64V355h5.44v8h-1.06v-7.04h-3.33v2.88c0 .83-.06 1.53-.17 2.08-.11.54-.27.98-.48 1.31-.22.32-.47.55-.77.69-.3.13-.63.2-1 .2h-.23v-1zm9.28-4.6c0-.8.25-1.41.75-1.85.51-.45 1.35-.67 2.53-.67h2.64v8h-1.06v-2.98h-1.98c-.13 0-.25 0-.37-.03l-1.62 3.01h-1.21l1.79-3.23c-.52-.2-.9-.48-1.14-.87a2.72 2.72 0 01-.33-1.39zm1.08 0c0 .5.16.88.48 1.14.32.27.9.4 1.72.4h1.58v-3.1h-1.58c-.83 0-1.4.13-1.72.4-.32.27-.48.65-.48 1.15zM501.88 337.35l5.64-5.43a54 54 0 001.4-1.4c.39-.4.69-.76.9-1.1.24-.33.4-.64.5-.92.1-.28.16-.57.16-.88 0-.76-.25-1.38-.73-1.85a2.76 2.76 0 00-2-.7 2.7 2.7 0 00-2 .73c-.48.48-.73 1.18-.73 2.07h-3.14c0-.85.13-1.61.4-2.3a4.81 4.81 0 013-2.9 7.2 7.2 0 012.47-.4c.92 0 1.73.14 2.45.4a4.9 4.9 0 013.03 2.8 5.18 5.18 0 01-.55 5.05c-.64.96-1.62 2.04-2.95 3.25l-3.93 3.58h7.82V340h-11.75v-2.65zm14.99-14.85H527v2.65h-7.46l-.3 3.9a5 5 0 013.13-.98c.85 0 1.63.15 2.33.43.71.28 1.32.7 1.82 1.23s.9 1.17 1.18 1.92c.28.75.42 1.58.42 2.5 0 .92-.14 1.75-.42 2.5a5.2 5.2 0 01-3.23 3.15 8.16 8.16 0 01-4.85.13 5.6 5.6 0 01-4-4.38h3.15a2.8 2.8 0 001.18 1.4c.54.32 1.19.48 1.92.48.95 0 1.7-.29 2.25-.86.57-.56.85-1.37.85-2.42 0-1.05-.28-1.86-.85-2.42a2.99 2.99 0 00-2.25-.86 3.6 3.6 0 00-1.73.4c-.48.27-.85.6-1.12 1h-2.9l.75-9.77zm16.89 8.98a4.31 4.31 0 01-3.17-1.18c-.4-.37-.7-.8-.9-1.3-.2-.52-.3-1.08-.3-1.7v-.85a3.9 3.9 0 012.58-3.85 4.74 4.74 0 011.79-.32 4.74 4.74 0 013.17 1.17 4.16 4.16 0 011.2 3v.85c0 .62-.1 1.18-.32 1.7-.2.5-.5.93-.88 1.3a4.31 4.31 0 01-3.17 1.18zm0-2.16c.55 0 .99-.17 1.32-.52.35-.37.53-.87.53-1.5v-.85a2 2 0 00-.53-1.47 1.7 1.7 0 00-1.32-.56c-.57 0-1.03.19-1.38.56-.33.34-.5.84-.5 1.47v.85c0 .63.17 1.13.5 1.5.35.35.8.52 1.38.52zm12.75 10.9a4.31 4.31 0 01-3.17-1.18c-.4-.36-.7-.79-.9-1.29-.2-.52-.3-1.08-.3-1.7v-.85a3.9 3.9 0 012.58-3.85 4.74 4.74 0 011.79-.32 4.74 4.74 0 013.17 1.17 4.16 4.16 0 011.2 3v.85c0 .62-.1 1.18-.32 1.7-.2.5-.5.93-.88 1.3a4.31 4.31 0 01-3.17 1.18zm0-2.15c.55 0 .99-.17 1.32-.52.35-.37.53-.87.53-1.5v-.85a2 2 0 00-.53-1.47 1.7 1.7 0 00-1.32-.56c-.57 0-1.03.19-1.38.56-.33.34-.5.84-.5 1.47v.85c0 .63.17 1.13.5 1.5.35.35.8.52 1.38.52zm-2.63-15.57h2.75L536.38 340h-2.75l10.25-17.5z" fill="#23201F"/><path d="M339.84 374.6v-50.53 42.5a118.61 118.61 0 0083.77-35.3 120.65 120.65 0 0035-84.48h-42.13 50.1a128.02 128.02 0 01-37.12 90.38 125.8 125.8 0 01-89.62 37.44z" fill="#1C5F87"/><path d="M339.84 366.56v-42.49a76.8 76.8 0 0055-23.9l4.35-4.94a78.11 78.11 0 0017.29-48.44h42.13a120.65 120.65 0 01-35 84.48 118.61 118.61 0 01-83.77 35.3z" fill="#1C5F87"/><path d="M339.84 408a158.67 158.67 0 01-113.03-47.22 162.17 162.17 0 01-12.02-13.55c-31.13-39.32-41.36-89.92-30.72-136.67l60.18 14-50.69-11.8c-10.9 48.7 2.44 101.8 40.03 139.7a148.13 148.13 0 00105.52 44.08h.73V408z" fill="#FA5B3D"/><path d="M339.1 396.54a148.13 148.13 0 01-105.51-44.07c-37.59-37.91-50.93-91-40.03-139.7l50.69 11.78 19.33 4.5a78.94 78.94 0 007.23 53.7l4.61 7.63a77.06 77.06 0 0064.42 33.7v72.46h-.73z" fill="#FA5B3D"/><path d="M207.61 216.04l-9.22-2.15a146.06 146.06 0 0143.98-75.58 143.92 143.92 0 0170.2-35.31l12.57 66.28-10.8-56.88a133.81 133.81 0 00-70.56 37.51 135.64 135.64 0 00-36.17 66.13z" fill="#0DAB76"/><path d="M263.58 229.05l-55.97-13.01a135.64 135.64 0 0136.17-66.13 133.81 133.81 0 0170.57-37.51l10.79 56.88a76.78 76.78 0 00-34.52 15.96l-4.6 4.05a78.09 78.09 0 00-22.44 39.76z" fill="#0DAB76"/><path d="M393.57 141.22a116.46 116.46 0 00-75.93-11.49l-1.61-8.48a125.3 125.3 0 0144.74-.53l.34.06v-.01c8.55 1.46 17.44 4 25.06 7.03 3.92 1.56 7.78 3.3 11.56 5.25l-4.16 8.17" fill="#FABA3D"/><path d="M375.33 177.07a76.4 76.4 0 00-20.94-7.53l-6.63-1.03a77.51 77.51 0 00-22.62.78l-7.5-39.56a116.46 116.46 0 0175.94 11.5l-18.25 35.84z" fill="#FABA3D"/><path d="M473.91 246.79h-57.43v-.74a78.27 78.27 0 00-8.4-35.37l-3.3-5.9a77.92 77.92 0 00-29.45-27.7l26.24-51.56a136.14 136.14 0 0172.35 121.26z" fill="#3DCDFA"/><path d="M485 246.79h-11.09a136.14 136.14 0 00-72.34-121.27l4.58-9a145.15 145.15 0 0136.34 26.75 147.28 147.28 0 0115.41 18.3l.56.8A146.9 146.9 0 01485 246.78z" fill="#3DCDFA"/></svg>