<svg fill="none" xmlns="http://www.w3.org/2000/svg" viewBox="0 0 14 12"><path d="M14 1.42c-.53.25-1.08.41-1.65.48.6-.38 1.05-.97 1.26-1.67-.56.35-1.18.6-1.82.73a2.74 2.74 0 00-3.45-.6c-.56.31-1 .81-1.27 1.42-.26.61-.32 1.3-.18 1.94a7.83 7.83 0 01-3.27-.92A8.25 8.25 0 01.97.56a3.14 3.14 0 00.9 4.04c-.46-.01-.9-.14-1.3-.38v.04c0 .7.22 1.38.64 1.92.42.54 1 .91 1.66 1.05-.43.12-.87.14-1.3.05.18.6.54 1.13 1.02 1.5.48.38 1.06.6 1.66.6A5.66 5.66 0 010 10.64 7.82 7.82 0 004.4 12c5.29 0 8.18-4.61 8.18-8.62L12.57 3A6.02 6.02 0 0014 1.43z" fill="#23201F"/></svg>