<svg fill="none" xmlns="http://www.w3.org/2000/svg" viewBox="0 0 18 10"><path fill-rule="evenodd" clip-rule="evenodd" d="M8.8 9.96h1.08s.33-.04.5-.21c.15-.16.14-.46.14-.46s-.02-1.4.65-1.61c.66-.2 1.5 1.35 2.4 1.96.69.45 1.2.35 1.2.35l2.4-.03s1.27-.08.67-1.04c-.05-.08-.35-.71-1.79-2.01-1.5-1.37-1.3-1.15.51-3.5 1.1-1.44 1.55-2.31 1.41-2.69-.13-.36-.94-.26-.94-.26l-2.7.01s-.21-.02-.36.06c-.14.09-.24.29-.24.29s-.43 1.1-1 2.05c-1.2 2-1.68 2.1-1.88 1.98-.46-.3-.35-1.16-.35-1.78 0-1.93.3-2.74-.58-2.95C9.62.06 9.4.01 8.66 0 7.69 0 6.87 0 6.4.23c-.3.14-.55.47-.4.49.18.02.58.1.8.39.28.37.27 1.2.27 1.2s.15 2.27-.38 2.55c-.36.2-.86-.2-1.94-2.01C4.21 1.92 3.8.9 3.8.9S3.72.7 3.57.6C3.4.49 3.16.45 3.16.45L.59.46S.2.46.06.63c-.13.15-.01.45-.01.45s2.01 4.59 4.3 6.9C6.42 10.1 8.8 9.96 8.8 9.96z" fill="#FAFAFA"/></svg>