<svg width="180" height="42" viewBox="0 0 180 42" fill="none" xmlns="http://www.w3.org/2000/svg">
<path d="M27.3 30.7364C27.1091 33.7909 25.9636 36.0818 24.2455 37.8C22.1455 39.7091 18.7091 40.6637 13.9364 40.6637C12.7909 40.6637 11.8364 40.4727 11.2636 40.2818C10.6909 39.9 10.5 39.5182 10.5 38.7546C10.5 38.1818 10.6909 37.4182 11.0727 36.0818L12.0273 32.6455C10.3091 32.6455 8.4 32.8364 6.68182 33.0273L5.91818 35.8909C5.53636 37.2273 5.15455 38.3727 4.77273 38.9455C4.39091 39.5182 3.81818 40.0909 3.24545 40.2818C2.48182 40.4727 1.52727 40.6637 0.190909 40.6637L4.55163e-08 41.8091C1.52727 41.6182 3.81818 41.6182 6.87273 41.6182C8.4 41.6182 10.1182 41.6182 12.4091 41.8091H16.4182C19.2818 41.8091 21.9545 41.4273 24.4364 40.4727C26.9182 39.5182 29.0182 38.1818 30.7364 36.4637C32.2636 34.7455 33.2182 32.4546 33.2182 29.9727C31.1182 30.1637 29.2091 30.3546 27.3 30.7364Z" fill="black"/>
<path d="M12.9818 19.8546H17.5637C22.9091 19.8546 25.5818 22.3364 25.5818 27.3C25.5818 27.8727 25.5818 28.2546 25.3909 28.8273C27.3 28.6364 29.2091 28.4455 31.1182 28.2546C31.1182 25.9636 30.3546 23.8636 29.0182 22.3364C27.4909 20.8091 25.2 19.6636 21.9546 19.0909C25.2 18.1364 27.8728 16.6091 30.1637 14.7C32.4546 12.7909 33.4091 10.3091 33.4091 7.63637C33.4091 5.34546 32.4546 3.62728 30.7364 2.29092C29.0182 0.954554 26.3455 0.381827 22.9091 0.381827H18.9C17.9455 0.381827 16.8 0.381827 15.0818 0.381827C12.2182 0.381827 9.9273 0.381827 8.40003 0.190918L8.01821 1.33637C9.35458 1.33637 10.5 1.52728 10.8818 1.9091C11.4546 2.29092 11.6455 2.86365 11.6455 3.43637C11.6455 4.20001 11.4546 4.96365 11.2637 6.1091L4.58185 30.9273C6.49094 30.9273 8.40003 30.7364 10.1182 30.5455L12.9818 19.8546ZM16.8 5.34546C17.1818 3.81819 17.7546 2.67274 18.5182 2.10001C19.2818 1.52728 20.4273 1.33637 21.9546 1.33637C24.0546 1.33637 25.5818 1.9091 26.5364 2.86365C27.4909 4.0091 28.0637 5.53637 28.0637 7.82728C28.0637 9.73637 27.6819 11.6455 26.7273 13.1727C25.7728 14.8909 24.4364 16.2273 22.9091 17.1818C21.1909 18.1364 19.2818 18.7091 17.1818 18.7091H13.1728L16.8 5.34546Z" fill="black"/>
<path d="M51.9273 6.30002C52.3091 4.96365 52.6909 3.8182 53.0727 3.24547C53.4546 2.67274 54.0273 2.10002 54.6 1.90911C55.1727 1.7182 56.3182 1.52729 57.6546 1.52729L58.0364 0.381836C56.3182 0.572745 54.0273 0.572745 50.9727 0.572745C47.7273 0.572745 45.4364 0.572745 43.7182 0.381836L43.5273 1.52729C44.8637 1.52729 46.0091 1.7182 46.3909 2.10002C46.9637 2.29093 47.1546 2.86365 47.1546 3.62729C47.1546 4.20002 46.9637 5.15456 46.5818 6.30002L41.0455 27.1091C42.7637 26.9182 44.6727 26.7273 46.3909 26.5364L51.9273 6.30002Z" fill="black"/>
<path d="M62.8091 36.4636C61.8546 37.9909 60.7091 38.9454 59.3728 39.7091C58.0364 40.4727 56.1273 40.6636 53.8364 40.6636H49.8273C48.491 40.6636 47.3455 40.4727 46.7728 40.2818C46.2 40.0909 46.0091 39.5182 46.0091 38.7545C46.0091 37.9909 46.2 37.2273 46.5819 36.0818L48.6819 28.4454C46.9637 28.6363 45.0546 28.8273 43.3364 29.0182L41.4273 36.0818C41.0455 37.4182 40.6637 38.5636 40.2819 39.1363C39.9 39.7091 39.3273 40.2818 38.7546 40.4727C38.1819 40.6636 37.0364 40.8545 35.7 40.8545L35.1273 41.8091C38.7546 41.6182 44.1 41.6182 51.3546 41.6182C57.2728 41.6182 61.6637 41.6182 64.1455 41.8091C64.5273 39.1363 65.1 36.6545 65.6728 34.5545C66.4364 32.2636 66.8182 30.7363 67.0091 29.9727H65.6728C64.7182 32.8363 63.7637 34.9363 62.8091 36.4636Z" fill="black"/>
<path d="M89.5364 6.87273L90.3 21.1909C92.0182 21 93.7364 20.8091 95.2637 20.6182L94.1182 5.68953e-09H93.3546L77.1273 22.7182C77.5091 22.7182 78.0819 22.5273 78.4637 22.5273L89.5364 6.87273Z" fill="black"/>
<path d="M98.1273 37.2273L97.1728 22.5273C95.4546 22.7182 93.7364 22.9091 92.2091 23.1L92.4 25.7727H79.4182L80.1819 24.6273C79.8 24.6273 79.2273 24.8182 78.8455 24.8182L71.0182 35.8909C68.9182 38.7545 67.2 40.4727 65.4819 40.8545L65.291 42C66.4364 41.8091 67.9637 41.8091 69.491 41.8091C71.7819 41.8091 73.8819 41.8091 75.791 42L75.9819 40.8545C73.3091 40.8545 71.7819 39.9 71.7819 38.3727C71.7819 37.2273 72.7364 35.3182 74.4546 32.8363L78.6546 26.9182H92.4L92.9728 36.0818C92.9728 37.4182 92.9728 38.3727 92.591 38.9454C92.2091 39.5182 91.8273 40.0909 91.0637 40.2818C90.3 40.4727 89.3455 40.6636 88.2 40.6636L88.0091 41.8091C89.5364 41.6182 91.6364 41.6182 94.691 41.6182C97.1728 41.6182 99.2728 41.6182 100.8 41.8091L100.991 40.6636C100.227 40.6636 99.6546 40.2818 99.2728 39.7091C98.891 39.1363 98.3182 38.3727 98.1273 37.2273Z" fill="black"/>
<path d="M119.891 6.10911C120.273 4.77275 120.655 3.8182 121.036 3.05456C121.418 2.29093 121.991 1.90911 122.564 1.7182C123.136 1.52729 124.091 1.33638 125.236 1.33638C129.436 1.33638 132.491 2.10002 134.4 3.8182C136.309 5.53638 137.264 8.0182 137.264 11.2637C137.264 12.2182 137.264 13.1727 137.073 14.1273C138.982 13.7455 140.7 13.5546 142.609 13.1727C142.609 12.9818 142.609 12.7909 142.609 12.6C142.609 8.59093 141.273 5.53638 138.6 3.43638C135.927 1.33638 132.109 0.381836 126.764 0.381836C126 0.381836 124.282 0.381836 121.609 0.572745H116.836C114.546 0.572745 112.636 0.572745 111.491 0.381836V1.33638C112.827 1.33638 113.973 1.52729 114.355 1.90911C114.927 2.29093 115.118 2.67274 115.118 3.43638C115.118 3.8182 114.927 4.77275 114.546 6.10911L111.491 18.3273C113.209 18.1364 115.118 17.7546 116.836 17.5637L119.891 6.10911Z" fill="black"/>
<path d="M139.173 16.0364C138.982 19.8545 138.027 23.4818 136.691 26.9182C134.973 31.1182 132.491 34.5545 129.246 37.0364C126 39.5182 121.991 40.8545 117.409 40.8545C116.073 40.8545 115.309 40.6636 114.736 40.2818C114.164 39.9 113.973 39.5182 113.973 38.7545C113.973 38.1818 114.164 37.4182 114.546 36.0818L118.936 19.4727C117.218 19.6636 115.309 20.0455 113.591 20.2364L109.2 35.8909C108.818 37.2273 108.436 38.3727 108.055 38.9455C107.673 39.5182 107.1 40.0909 106.527 40.2818C105.955 40.4727 105 40.6636 103.664 40.6636L103.473 41.8091C105 41.6182 107.1 41.6182 110.155 41.6182C111.109 41.6182 112.636 41.6182 114.736 41.8091H117.982C122.946 41.8091 127.527 40.4727 131.536 37.9909C135.546 35.5091 138.791 32.0727 141.082 27.8727C143.373 23.8636 144.518 19.6636 144.518 15.0818C142.8 15.4636 140.891 15.8455 139.173 16.0364Z" fill="black"/>
<path d="M149.864 35.8909C149.482 37.2273 149.1 38.3727 148.718 38.9454C148.336 39.5182 147.764 40.0909 147.191 40.2818C146.618 40.4727 145.473 40.6636 144.136 40.6636L143.945 41.8091C147.573 41.6182 152.918 41.6182 160.173 41.6182C166.091 41.6182 170.482 41.6182 172.964 41.8091C173.345 39.1363 173.918 36.6545 174.491 34.5545C174.873 33.0273 175.255 31.6909 175.636 30.5454H174.3C173.345 33.2182 172.391 35.1273 171.436 36.6545C170.482 37.9909 169.336 38.9454 168 39.7091C166.664 40.4727 164.755 40.6636 162.464 40.6636H158.455C157.118 40.6636 155.973 40.4727 155.4 40.2818C154.827 40.0909 154.636 39.5182 154.636 38.7545C154.636 37.9909 154.827 37.2273 155.209 36.0818L158.836 22.7182H162.464C163.8 22.7182 164.946 23.1 165.518 23.6727C166.091 24.2454 166.473 25.2 166.473 26.3454C166.473 26.7273 166.473 27.3 166.282 27.8727C166.282 28.4454 166.091 28.8273 166.091 29.0182L165.9 30.1636H167.236C168 26.9182 168.573 24.2454 168.955 22.1454L169.336 20.8091C169.909 18.9 170.482 16.6091 171.246 14.1273H169.909C169.718 14.5091 169.527 14.8909 169.527 15.2727C168.955 16.6091 168.573 17.5636 168 18.3273C167.427 19.0909 166.855 19.8545 165.9 20.4273C164.945 21 163.991 21.3818 162.655 21.3818H159.027L161.509 12.0273C159.6 12.4091 157.882 12.7909 155.973 13.1727L149.864 35.8909Z" fill="black"/>
<path d="M179.836 0.381836C177.545 0.572745 173.918 0.572745 168.764 0.572745C161.509 0.572745 156.164 0.572745 152.536 0.381836L152.345 1.52729C153.682 1.52729 154.827 1.7182 155.209 2.10002C155.782 2.29093 155.973 2.86365 155.973 3.62729C155.973 4.20002 155.782 5.15456 155.4 6.30002L154.064 11.0727C155.973 10.6909 157.691 10.3091 159.6 9.92729L160.555 6.10911C160.936 4.77274 161.318 3.62729 161.7 3.05456C162.082 2.48184 162.655 1.90911 163.227 1.7182C163.991 1.7182 164.945 1.52729 166.473 1.52729H170.482C172.582 1.52729 174.109 1.90911 174.873 2.48184C175.636 3.05456 176.018 4.20002 176.018 5.9182C176.018 6.10911 176.018 6.30002 176.018 6.68184C176.591 6.49093 177.164 6.49093 177.736 6.30002C178.309 4.58184 179.073 2.67274 179.836 0.381836Z" fill="black"/>
<path d="M176.018 6.49092C176.018 7.44546 175.827 8.59092 175.636 10.3091H176.973C177.164 9.35455 177.355 8.2091 177.736 6.87274C177.736 6.68183 177.927 6.30001 177.927 6.1091C177.355 6.30001 176.782 6.49092 176.018 6.49092Z" fill="black"/>
</svg>
