<svg width="260" height="145" viewBox="0 0 260 145" fill="none" xmlns="http://www.w3.org/2000/svg">
<rect width="260" height="145" fill="white"/>
<path d="M67.3 81.7364C67.1091 84.7909 65.9636 87.0818 64.2455 88.8C62.1455 90.7091 58.7091 91.6637 53.9364 91.6637C52.7909 91.6637 51.8364 91.4727 51.2636 91.2818C50.6909 90.9 50.5 90.5182 50.5 89.7546C50.5 89.1818 50.6909 88.4182 51.0727 87.0818L52.0273 83.6455C50.3091 83.6455 48.4 83.8364 46.6818 84.0273L45.9182 86.8909C45.5364 88.2273 45.1545 89.3727 44.7727 89.9455C44.3909 90.5182 43.8182 91.0909 43.2455 91.2818C42.4818 91.4727 41.5273 91.6637 40.1909 91.6637L40 92.8091C41.5273 92.6182 43.8182 92.6182 46.8727 92.6182C48.4 92.6182 50.1182 92.6182 52.4091 92.8091H56.4182C59.2818 92.8091 61.9545 92.4273 64.4364 91.4727C66.9182 90.5182 69.0182 89.1818 70.7364 87.4637C72.2636 85.7455 73.2182 83.4546 73.2182 80.9727C71.1182 81.1637 69.2091 81.3546 67.3 81.7364Z" fill="black"/>
<path d="M52.9818 70.8546H57.5637C62.9091 70.8546 65.5818 73.3364 65.5818 78.3C65.5818 78.8727 65.5818 79.2546 65.3909 79.8273C67.3 79.6364 69.2091 79.4455 71.1182 79.2546C71.1182 76.9636 70.3546 74.8636 69.0182 73.3364C67.4909 71.8091 65.2 70.6636 61.9546 70.0909C65.2 69.1364 67.8728 67.6091 70.1637 65.7C72.4546 63.7909 73.4091 61.3091 73.4091 58.6364C73.4091 56.3455 72.4546 54.6273 70.7364 53.2909C69.0182 51.9546 66.3455 51.3818 62.9091 51.3818H58.9C57.9455 51.3818 56.8 51.3818 55.0818 51.3818C52.2182 51.3818 49.9273 51.3818 48.4 51.1909L48.0182 52.3364C49.3546 52.3364 50.5 52.5273 50.8818 52.9091C51.4546 53.2909 51.6455 53.8636 51.6455 54.4364C51.6455 55.2 51.4546 55.9636 51.2637 57.1091L44.5818 81.9273C46.4909 81.9273 48.4 81.7364 50.1182 81.5455L52.9818 70.8546ZM56.8 56.3455C57.1818 54.8182 57.7546 53.6727 58.5182 53.1C59.2818 52.5273 60.4273 52.3364 61.9546 52.3364C64.0546 52.3364 65.5818 52.9091 66.5364 53.8636C67.4909 55.0091 68.0637 56.5364 68.0637 58.8273C68.0637 60.7364 67.6819 62.6455 66.7273 64.1727C65.7728 65.8909 64.4364 67.2273 62.9091 68.1818C61.1909 69.1364 59.2818 69.7091 57.1818 69.7091H53.1728L56.8 56.3455Z" fill="black"/>
<path d="M91.9273 57.3C92.3091 55.9637 92.6909 54.8182 93.0727 54.2455C93.4546 53.6727 94.0273 53.1 94.6 52.9091C95.1727 52.7182 96.3182 52.5273 97.6546 52.5273L98.0364 51.3818C96.3182 51.5727 94.0273 51.5727 90.9727 51.5727C87.7273 51.5727 85.4364 51.5727 83.7182 51.3818L83.5273 52.5273C84.8637 52.5273 86.0091 52.7182 86.3909 53.1C86.9637 53.2909 87.1546 53.8637 87.1546 54.6273C87.1546 55.2 86.9637 56.1546 86.5818 57.3L81.0455 78.1091C82.7637 77.9182 84.6727 77.7273 86.3909 77.5364L91.9273 57.3Z" fill="black"/>
<path d="M102.809 87.4636C101.855 88.9909 100.709 89.9454 99.3728 90.7091C98.0364 91.4727 96.1273 91.6636 93.8364 91.6636H89.8273C88.491 91.6636 87.3455 91.4727 86.7728 91.2818C86.2 91.0909 86.0091 90.5182 86.0091 89.7545C86.0091 88.9909 86.2 88.2273 86.5819 87.0818L88.6819 79.4454C86.9637 79.6363 85.0546 79.8273 83.3364 80.0182L81.4273 87.0818C81.0455 88.4182 80.6637 89.5636 80.2819 90.1363C79.9 90.7091 79.3273 91.2818 78.7546 91.4727C78.1819 91.6636 77.0364 91.8545 75.7 91.8545L75.1273 92.8091C78.7546 92.6182 84.1 92.6182 91.3546 92.6182C97.2728 92.6182 101.664 92.6182 104.146 92.8091C104.527 90.1363 105.1 87.6545 105.673 85.5545C106.436 83.2636 106.818 81.7363 107.009 80.9727H105.673C104.718 83.8363 103.764 85.9363 102.809 87.4636Z" fill="black"/>
<path d="M129.536 57.8727L130.3 72.1909C132.018 72 133.736 71.8091 135.264 71.6182L134.118 51H133.355L117.127 73.7182C117.509 73.7182 118.082 73.5273 118.464 73.5273L129.536 57.8727Z" fill="black"/>
<path d="M138.127 88.2273L137.173 73.5273C135.455 73.7182 133.736 73.9091 132.209 74.1L132.4 76.7727H119.418L120.182 75.6273C119.8 75.6273 119.227 75.8182 118.846 75.8182L111.018 86.8909C108.918 89.7545 107.2 91.4727 105.482 91.8545L105.291 93C106.436 92.8091 107.964 92.8091 109.491 92.8091C111.782 92.8091 113.882 92.8091 115.791 93L115.982 91.8545C113.309 91.8545 111.782 90.9 111.782 89.3727C111.782 88.2273 112.736 86.3182 114.455 83.8363L118.655 77.9182H132.4L132.973 87.0818C132.973 88.4182 132.973 89.3727 132.591 89.9454C132.209 90.5182 131.827 91.0909 131.064 91.2818C130.3 91.4727 129.345 91.6636 128.2 91.6636L128.009 92.8091C129.536 92.6182 131.636 92.6182 134.691 92.6182C137.173 92.6182 139.273 92.6182 140.8 92.8091L140.991 91.6636C140.227 91.6636 139.655 91.2818 139.273 90.7091C138.891 90.1363 138.318 89.3727 138.127 88.2273Z" fill="black"/>
<path d="M159.891 57.1091C160.273 55.7727 160.655 54.8182 161.036 54.0546C161.418 53.2909 161.991 52.9091 162.564 52.7182C163.136 52.5273 164.091 52.3364 165.236 52.3364C169.436 52.3364 172.491 53.1 174.4 54.8182C176.309 56.5364 177.264 59.0182 177.264 62.2637C177.264 63.2182 177.264 64.1727 177.073 65.1273C178.982 64.7455 180.7 64.5546 182.609 64.1727C182.609 63.9818 182.609 63.7909 182.609 63.6C182.609 59.5909 181.273 56.5364 178.6 54.4364C175.927 52.3364 172.109 51.3818 166.764 51.3818C166 51.3818 164.282 51.3818 161.609 51.5727H156.836C154.546 51.5727 152.636 51.5727 151.491 51.3818V52.3364C152.827 52.3364 153.973 52.5273 154.355 52.9091C154.927 53.2909 155.118 53.6727 155.118 54.4364C155.118 54.8182 154.927 55.7727 154.546 57.1091L151.491 69.3273C153.209 69.1364 155.118 68.7546 156.836 68.5637L159.891 57.1091Z" fill="black"/>
<path d="M179.173 67.0364C178.982 70.8545 178.027 74.4818 176.691 77.9182C174.973 82.1182 172.491 85.5545 169.246 88.0364C166 90.5182 161.991 91.8545 157.409 91.8545C156.073 91.8545 155.309 91.6636 154.736 91.2818C154.164 90.9 153.973 90.5182 153.973 89.7545C153.973 89.1818 154.164 88.4182 154.546 87.0818L158.936 70.4727C157.218 70.6636 155.309 71.0455 153.591 71.2364L149.2 86.8909C148.818 88.2273 148.436 89.3727 148.055 89.9455C147.673 90.5182 147.1 91.0909 146.527 91.2818C145.955 91.4727 145 91.6636 143.664 91.6636L143.473 92.8091C145 92.6182 147.1 92.6182 150.155 92.6182C151.109 92.6182 152.636 92.6182 154.736 92.8091H157.982C162.946 92.8091 167.527 91.4727 171.536 88.9909C175.546 86.5091 178.791 83.0727 181.082 78.8727C183.373 74.8636 184.518 70.6636 184.518 66.0818C182.8 66.4636 180.891 66.8455 179.173 67.0364Z" fill="black"/>
<path d="M189.864 86.8909C189.482 88.2273 189.1 89.3727 188.718 89.9454C188.336 90.5182 187.764 91.0909 187.191 91.2818C186.618 91.4727 185.473 91.6636 184.136 91.6636L183.945 92.8091C187.573 92.6182 192.918 92.6182 200.173 92.6182C206.091 92.6182 210.482 92.6182 212.964 92.8091C213.345 90.1363 213.918 87.6545 214.491 85.5545C214.873 84.0273 215.255 82.6909 215.636 81.5454H214.3C213.345 84.2182 212.391 86.1273 211.436 87.6545C210.482 88.9909 209.336 89.9454 208 90.7091C206.664 91.4727 204.755 91.6636 202.464 91.6636H198.455C197.118 91.6636 195.973 91.4727 195.4 91.2818C194.827 91.0909 194.636 90.5182 194.636 89.7545C194.636 88.9909 194.827 88.2273 195.209 87.0818L198.836 73.7182H202.464C203.8 73.7182 204.946 74.1 205.518 74.6727C206.091 75.2454 206.473 76.2 206.473 77.3454C206.473 77.7273 206.473 78.3 206.282 78.8727C206.282 79.4454 206.091 79.8273 206.091 80.0182L205.9 81.1636H207.236C208 77.9182 208.573 75.2454 208.955 73.1454L209.336 71.8091C209.909 69.9 210.482 67.6091 211.246 65.1273H209.909C209.718 65.5091 209.527 65.8909 209.527 66.2727C208.955 67.6091 208.573 68.5636 208 69.3273C207.427 70.0909 206.855 70.8545 205.9 71.4273C204.945 72 203.991 72.3818 202.655 72.3818H199.027L201.509 63.0273C199.6 63.4091 197.882 63.7909 195.973 64.1727L189.864 86.8909Z" fill="black"/>
<path d="M219.836 51.3818C217.545 51.5727 213.918 51.5727 208.764 51.5727C201.509 51.5727 196.164 51.5727 192.536 51.3818L192.345 52.5273C193.682 52.5273 194.827 52.7182 195.209 53.1C195.782 53.2909 195.973 53.8637 195.973 54.6273C195.973 55.2 195.782 56.1546 195.4 57.3L194.064 62.0727C195.973 61.6909 197.691 61.3091 199.6 60.9273L200.555 57.1091C200.936 55.7727 201.318 54.6273 201.7 54.0546C202.082 53.4818 202.655 52.9091 203.227 52.7182C203.991 52.7182 204.945 52.5273 206.473 52.5273H210.482C212.582 52.5273 214.109 52.9091 214.873 53.4818C215.636 54.0546 216.018 55.2 216.018 56.9182C216.018 57.1091 216.018 57.3 216.018 57.6818C216.591 57.4909 217.164 57.4909 217.736 57.3C218.309 55.5818 219.073 53.6727 219.836 51.3818Z" fill="black"/>
<path d="M216.018 57.4909C216.018 58.4455 215.827 59.5909 215.636 61.3091H216.973C217.164 60.3546 217.355 59.2091 217.736 57.8727C217.736 57.6818 217.927 57.3 217.927 57.1091C217.355 57.3 216.782 57.4909 216.018 57.4909Z" fill="black"/>
</svg>
