<svg width="44" height="44" viewBox="0 0 44 44" fill="none" xmlns="http://www.w3.org/2000/svg">
<path d="M40 11.3808C40 10.2903 39.561 9.2445 38.7796 8.47342C37.9982 7.70234 36.9385 7.26915 35.8334 7.26915H31.7317V5.6519C31.7317 5.40958 31.6341 5.17717 31.4605 5.00582C31.2868 4.83447 31.0513 4.73821 30.8058 4.73821C30.5602 4.73821 30.3247 4.83447 30.1511 5.00582C29.9774 5.17717 29.8799 5.40958 29.8799 5.6519V7.26915H13.9173V5.6519C13.9173 5.40958 13.8197 5.17717 13.6461 5.00582C13.4725 4.83447 13.237 4.73821 12.9914 4.73821C12.7458 4.73821 12.5103 4.83447 12.3367 5.00582C12.163 5.17717 12.0655 5.40958 12.0655 5.6519V7.26915H7.96374C6.8587 7.26915 5.79892 7.70234 5.01754 8.47342C4.23616 9.2445 3.79718 10.2903 3.79718 11.3808V34.1502C3.79718 35.2406 4.23616 36.2864 5.01754 37.0575C5.79892 37.8286 6.8587 38.2618 7.96374 38.2618H35.8334C36.9385 38.2618 37.9982 37.8286 38.7796 37.0575C39.561 36.2864 40 35.2406 40 34.1502V11.3808ZM38.1482 34.1547C38.1482 34.4547 38.0883 34.7517 37.972 35.0289C37.8556 35.306 37.6851 35.5578 37.4702 35.7699C37.2553 35.982 37.0001 36.1503 36.7192 36.2651C36.4384 36.3799 36.1374 36.439 35.8334 36.439H7.96374C7.65976 36.439 7.35876 36.3799 7.07792 36.2651C6.79708 36.1503 6.54191 35.982 6.32696 35.7699C6.11202 35.5578 5.94151 35.306 5.82519 35.0289C5.70886 34.7517 5.64899 34.4547 5.64899 34.1547V18.2792H38.1482V34.1547ZM38.1482 16.4564H5.64899V11.3808C5.64899 10.775 5.89286 10.194 6.32696 9.76559C6.76106 9.33721 7.34983 9.09655 7.96374 9.09655H12.0701V11.6275C12.0701 11.8698 12.1677 12.1022 12.3413 12.2736C12.515 12.4449 12.7505 12.5412 12.996 12.5412C13.2416 12.5412 13.4771 12.4449 13.6507 12.2736C13.8244 12.1022 13.9219 11.8698 13.9219 11.6275V9.09655H29.8799V11.6275C29.8799 11.8698 29.9774 12.1022 30.1511 12.2736C30.3247 12.4449 30.5602 12.5412 30.8058 12.5412C31.0513 12.5412 31.2868 12.4449 31.4605 12.2736C31.6341 12.1022 31.7317 11.8698 31.7317 11.6275V9.09655H35.8334C36.4473 9.09655 37.0361 9.33721 37.4702 9.76559C37.9043 10.194 38.1482 10.775 38.1482 11.3808V16.4564Z" fill="white"/>
<path d="M14.959 21.0432H14.9544C13.924 21.0432 13.0887 21.8674 13.0887 22.8843V22.8888C13.0887 23.9056 13.924 24.7299 14.9544 24.7299H14.959C15.9894 24.7299 16.8247 23.9056 16.8247 22.8888V22.8843C16.8247 21.8674 15.9894 21.0432 14.959 21.0432Z" fill="white"/>
<path d="M19.5885 21.0432H19.5838C18.5534 21.0432 17.7181 21.8674 17.7181 22.8843V22.8888C17.7181 23.9056 18.5534 24.7299 19.5838 24.7299H19.5885C20.6189 24.7299 21.4542 23.9056 21.4542 22.8888V22.8843C21.4542 21.8674 20.6189 21.0432 19.5885 21.0432Z" fill="white"/>
<path d="M24.218 21.0432H24.2134C23.183 21.0432 22.3477 21.8674 22.3477 22.8843V22.8888C22.3477 23.9056 23.183 24.7299 24.2134 24.7299H24.218C25.2484 24.7299 26.0837 23.9056 26.0837 22.8888V22.8843C26.0837 21.8674 25.2484 21.0432 24.218 21.0432Z" fill="white"/>
<path d="M28.8474 21.0432H28.8428C27.8124 21.0432 26.9771 21.8674 26.9771 22.8843V22.8888C26.9771 23.9056 27.8124 24.7299 28.8428 24.7299H28.8474C29.8778 24.7299 30.7131 23.9056 30.7131 22.8888V22.8843C30.7131 21.8674 29.8778 21.0432 28.8474 21.0432Z" fill="white"/>
<path d="M33.477 21.0432H33.4724C32.442 21.0432 31.6067 21.8674 31.6067 22.8843V22.8888C31.6067 23.9056 32.442 24.7299 33.4724 24.7299H33.477C34.5074 24.7299 35.3427 23.9056 35.3427 22.8888V22.8843C35.3427 21.8674 34.5074 21.0432 33.477 21.0432Z" fill="white"/>
<path d="M10.3294 25.6116H10.3248C9.29441 25.6116 8.45911 26.4359 8.45911 27.4527V27.4573C8.45911 28.4741 9.29441 29.2984 10.3248 29.2984H10.3294C11.3598 29.2984 12.1951 28.4741 12.1951 27.4573V27.4527C12.1951 26.4359 11.3598 25.6116 10.3294 25.6116Z" fill="white"/>
<path d="M14.959 25.6116H14.9544C13.924 25.6116 13.0887 26.4359 13.0887 27.4527V27.4573C13.0887 28.4741 13.924 29.2984 14.9544 29.2984H14.959C15.9894 29.2984 16.8247 28.4741 16.8247 27.4573V27.4527C16.8247 26.4359 15.9894 25.6116 14.959 25.6116Z" fill="white"/>
<path d="M19.5885 25.6116H19.5838C18.5534 25.6116 17.7181 26.4359 17.7181 27.4527V27.4573C17.7181 28.4741 18.5534 29.2984 19.5838 29.2984H19.5885C20.6189 29.2984 21.4542 28.4741 21.4542 27.4573V27.4527C21.4542 26.4359 20.6189 25.6116 19.5885 25.6116Z" fill="white"/>
<path d="M24.218 25.6116H24.2134C23.183 25.6116 22.3477 26.4359 22.3477 27.4527V27.4573C22.3477 28.4741 23.183 29.2984 24.2134 29.2984H24.218C25.2484 29.2984 26.0837 28.4741 26.0837 27.4573V27.4527C26.0837 26.4359 25.2484 25.6116 24.218 25.6116Z" fill="white"/>
<path d="M28.8474 25.6116H28.8428C27.8124 25.6116 26.9771 26.4359 26.9771 27.4527V27.4573C26.9771 28.4741 27.8124 29.2984 28.8428 29.2984H28.8474C29.8778 29.2984 30.7131 28.4741 30.7131 27.4573V27.4527C30.7131 26.4359 29.8778 25.6116 28.8474 25.6116Z" fill="white"/>
<path d="M33.477 25.6116H33.4724C32.442 25.6116 31.6067 26.4359 31.6067 27.4527V27.4573C31.6067 28.4741 32.442 29.2984 33.4724 29.2984H33.477C34.5074 29.2984 35.3427 28.4741 35.3427 27.4573V27.4527C35.3427 26.4359 34.5074 25.6116 33.477 25.6116Z" fill="white"/>
<path d="M10.3294 30.1801H10.3248C9.29441 30.1801 8.45911 31.0044 8.45911 32.0212V32.0258C8.45911 33.0426 9.29441 33.8669 10.3248 33.8669H10.3294C11.3598 33.8669 12.1951 33.0426 12.1951 32.0258V32.0212C12.1951 31.0044 11.3598 30.1801 10.3294 30.1801Z" fill="white"/>
<path d="M14.959 30.1801H14.9544C13.924 30.1801 13.0887 31.0044 13.0887 32.0212V32.0258C13.0887 33.0426 13.924 33.8669 14.9544 33.8669H14.959C15.9894 33.8669 16.8247 33.0426 16.8247 32.0258V32.0212C16.8247 31.0044 15.9894 30.1801 14.959 30.1801Z" fill="white"/>
<path d="M19.5885 30.1801H19.5838C18.5534 30.1801 17.7181 31.0044 17.7181 32.0212V32.0258C17.7181 33.0426 18.5534 33.8669 19.5838 33.8669H19.5885C20.6189 33.8669 21.4542 33.0426 21.4542 32.0258V32.0212C21.4542 31.0044 20.6189 30.1801 19.5885 30.1801Z" fill="white"/>
<path d="M24.218 30.1801H24.2134C23.183 30.1801 22.3477 31.0044 22.3477 32.0212V32.0258C22.3477 33.0426 23.183 33.8669 24.2134 33.8669H24.218C25.2484 33.8669 26.0837 33.0426 26.0837 32.0258V32.0212C26.0837 31.0044 25.2484 30.1801 24.218 30.1801Z" fill="white"/>
<path d="M28.8474 30.1801H28.8428C27.8124 30.1801 26.9771 31.0044 26.9771 32.0212V32.0258C26.9771 33.0426 27.8124 33.8669 28.8428 33.8669H28.8474C29.8778 33.8669 30.7131 33.0426 30.7131 32.0258V32.0212C30.7131 31.0044 29.8778 30.1801 28.8474 30.1801Z" fill="white"/>
</svg>
