<svg width="35" height="26" viewBox="0 0 35 26" fill="none" xmlns="http://www.w3.org/2000/svg">
<g filter="url(#filter0_d)">
<path d="M30.5344 19.9996H4.46554C4.20846 19.9996 4 19.7875 4 19.5259V2.4737C4 2.21211 4.20846 2 4.46554 2H30.5345C30.7915 2 31 2.21211 31 2.4737V19.5259C30.9999 19.7876 30.7915 19.9996 30.5344 19.9996Z" fill="#F5F5F5"/>
<path d="M30.9999 3.38465H4V2.4737C4 2.21211 4.20846 2 4.46554 2H30.5345C30.7915 2 31 2.21211 31 2.4737L30.9999 3.38465Z" fill="#FF4B55"/>
<path d="M30.9999 7.53839H4V8.92299H30.9999V7.53839Z" fill="#FF4B55"/>
<path d="M30.9999 4.76923H4V6.15382H30.9999V4.76923Z" fill="#FF4B55"/>
<path d="M30.9999 11.6922H4.46554C4.20846 11.6922 4 11.4801 4 11.2185V10.3076H30.9999V11.6922Z" fill="#FF4B55"/>
<path d="M30.9999 15.8472H4V17.2318H30.9999V15.8472Z" fill="#FF4B55"/>
<path d="M30.5344 19.9997H4.46554C4.20846 19.9997 4 19.7875 4 19.526V18.6151H30.9999V19.526C30.9999 19.7876 30.7915 19.9997 30.5344 19.9997Z" fill="#FF4B55"/>
<path d="M30.9999 13.0767H4V14.4613H30.9999V13.0767Z" fill="#FF4B55"/>
<path d="M16.1034 2.00201H4.46554C4.20846 2.00201 4 2.21407 4 2.47566V11.2203C4 11.4819 4.20846 11.694 4.46554 11.694H16.1035C16.3605 11.694 16.569 11.4819 16.569 11.2203V2.47566C16.569 2.21407 16.3605 2.00201 16.1034 2.00201Z" fill="#41479B"/>
<path d="M5.30752 3.08663L5.41056 3.40107L5.7363 3.40359C5.77849 3.40396 5.79594 3.4587 5.76204 3.48418L5.5 3.68111L5.5983 3.9971C5.61106 4.03799 5.56523 4.0719 5.5309 4.0469L5.26591 3.85421L5.00092 4.04695C4.96659 4.0719 4.92087 4.03805 4.93353 3.99716L5.03182 3.68116L4.76979 3.48424C4.73588 3.4587 4.75333 3.40402 4.79552 3.40364L5.12126 3.40112L5.2243 3.08668C5.23759 3.0459 5.29412 3.0459 5.30752 3.08663Z" fill="#F5F5F5"/>
<path d="M5.30709 4.73179L5.41013 5.04623L5.73587 5.04875C5.77806 5.04913 5.79552 5.10386 5.76161 5.12935L5.49957 5.32627L5.59787 5.64227C5.61063 5.68315 5.5648 5.71707 5.53047 5.69206L5.26548 5.49937L5.0005 5.69211C4.96617 5.71707 4.92044 5.68321 4.9331 5.64232L5.0314 5.32633L4.76936 5.1294C4.73545 5.10386 4.75291 5.04918 4.7951 5.04881L5.12083 5.04628L5.22388 4.73185C5.23717 4.69112 5.2937 4.69112 5.30709 4.73179Z" fill="#F5F5F5"/>
<path d="M5.30709 6.37596L5.41013 6.69039L5.73587 6.69292C5.77806 6.69329 5.79552 6.74802 5.76161 6.77351L5.49957 6.97044L5.59787 7.28643C5.61063 7.32732 5.5648 7.36123 5.53047 7.33623L5.26548 7.14354L5.0005 7.33628C4.96617 7.36123 4.92044 7.32737 4.9331 7.28648L5.0314 6.97049L4.76936 6.77356C4.73545 6.74802 4.75291 6.69335 4.7951 6.69297L5.12083 6.69045L5.22388 6.37601C5.23717 6.33528 5.2937 6.33528 5.30709 6.37596Z" fill="#F5F5F5"/>
<path d="M5.30709 8.02157L5.41013 8.336L5.73587 8.33853C5.77806 8.3389 5.79552 8.39363 5.76161 8.41912L5.49957 8.61605L5.59787 8.93204C5.61063 8.97293 5.5648 9.00684 5.53047 8.98184L5.26548 8.78915L5.0005 8.98189C4.96617 9.00684 4.92044 8.97298 4.9331 8.93209L5.0314 8.6161L4.76936 8.41917C4.73545 8.39363 4.75291 8.33895 4.7951 8.33858L5.12083 8.33606L5.22388 8.02162C5.23717 7.98084 5.2937 7.98084 5.30709 8.02157Z" fill="#F5F5F5"/>
<path d="M5.30709 9.66583L5.41013 9.98027L5.73587 9.98279C5.77806 9.98317 5.79552 10.0379 5.76161 10.0634L5.49957 10.2603L5.59787 10.5763C5.61063 10.6172 5.5648 10.6511 5.53047 10.6261L5.26548 10.4334L5.0005 10.6262C4.96617 10.6511 4.92044 10.6172 4.9331 10.5764L5.0314 10.2604L4.76936 10.0634C4.73545 10.0379 4.75291 9.98322 4.7951 9.98285L5.12083 9.98032L5.22388 9.66589C5.23717 9.62505 5.2937 9.62505 5.30709 9.66583Z" fill="#F5F5F5"/>
<path d="M6.56185 3.89342L6.6649 4.20786L6.99064 4.21038C7.03282 4.21075 7.05028 4.26549 7.01637 4.29097L6.75433 4.4879L6.85263 4.80389C6.86539 4.84478 6.81957 4.87869 6.78524 4.85369L6.52025 4.66095L6.25526 4.85369C6.22093 4.87864 6.17521 4.84478 6.18786 4.80389L6.28616 4.4879L6.02412 4.29097C5.99021 4.26543 6.00767 4.21075 6.04986 4.21038L6.3756 4.20786L6.47864 3.89342C6.49187 3.85275 6.54851 3.85275 6.56185 3.89342Z" fill="#F5F5F5"/>
<path d="M6.56185 5.53903L6.6649 5.85347L6.99064 5.85599C7.03282 5.85636 7.05028 5.9111 7.01637 5.93658L6.75433 6.13351L6.85263 6.4495C6.86539 6.49039 6.81957 6.5243 6.78524 6.4993L6.52025 6.30656L6.25526 6.4993C6.22093 6.52425 6.17521 6.49044 6.18786 6.4495L6.28616 6.13351L6.02412 5.93658C5.99021 5.91104 6.00767 5.85636 6.04986 5.85599L6.3756 5.85347L6.47864 5.53903C6.49187 5.4983 6.54851 5.4983 6.56185 5.53903Z" fill="#F5F5F5"/>
<path d="M6.56185 7.18326L6.6649 7.49769L6.99064 7.50021C7.03282 7.50059 7.05028 7.55532 7.01637 7.58081L6.75433 7.77774L6.85263 8.09373C6.86539 8.13462 6.81957 8.16853 6.78524 8.14352L6.52025 7.95078L6.25526 8.14352C6.22093 8.16848 6.17521 8.13462 6.18786 8.09373L6.28616 7.77774L6.02412 7.58081C5.99021 7.55527 6.00767 7.50059 6.04986 7.50021L6.3756 7.49769L6.47864 7.18326C6.49187 7.14253 6.54851 7.14253 6.56185 7.18326Z" fill="#F5F5F5"/>
<path d="M6.56185 8.82872L6.6649 9.14316L6.99064 9.14568C7.03282 9.14606 7.05028 9.20079 7.01637 9.22628L6.75433 9.4232L6.85263 9.7392C6.86539 9.78008 6.81957 9.814 6.78524 9.78899L6.52025 9.59625L6.25526 9.78899C6.22093 9.81394 6.17521 9.78008 6.18786 9.7392L6.28616 9.4232L6.02412 9.22628C5.99021 9.20074 6.00767 9.14606 6.04986 9.14568L6.3756 9.14316L6.47864 8.82872C6.49187 8.78805 6.54851 8.78805 6.56185 8.82872Z" fill="#F5F5F5"/>
<path d="M7.81661 3.08627L7.91966 3.40071L8.2454 3.40323C8.28758 3.40361 8.30504 3.45834 8.27113 3.48382L8.00909 3.68075L8.10739 3.99674C8.12015 4.03763 8.07433 4.07154 8.04 4.04654L7.77501 3.8538L7.51002 4.04654C7.47569 4.07149 7.42997 4.03763 7.44262 3.99674L7.54092 3.68075L7.27888 3.48382C7.24497 3.45828 7.26243 3.40361 7.30462 3.40323L7.63036 3.40071L7.7334 3.08627C7.74669 3.04554 7.80327 3.04554 7.81661 3.08627Z" fill="#F5F5F5"/>
<path d="M7.81661 4.7318L7.91966 5.04624L8.2454 5.04876C8.28758 5.04913 8.30504 5.10387 8.27113 5.12935L8.00909 5.32628L8.10739 5.64227C8.12015 5.68316 8.07433 5.71707 8.04 5.69207L7.77501 5.49933L7.51002 5.69207C7.47569 5.71702 7.42997 5.68316 7.44262 5.64227L7.54092 5.32628L7.27888 5.12935C7.24497 5.10381 7.26243 5.04913 7.30462 5.04876L7.63036 5.04624L7.7334 4.7318C7.74669 4.69113 7.80327 4.69113 7.81661 4.7318Z" fill="#F5F5F5"/>
<path d="M7.81661 6.37596L7.91966 6.6904L8.2454 6.69292C8.28758 6.6933 8.30504 6.74803 8.27113 6.77352L8.00909 6.97044L8.10739 7.28644C8.12015 7.32733 8.07433 7.36124 8.04 7.33623L7.77501 7.14349L7.51002 7.33623C7.47569 7.36118 7.42997 7.32733 7.44262 7.28644L7.54092 6.97044L7.27888 6.77352C7.24497 6.74798 7.26243 6.6933 7.30462 6.69292L7.63036 6.6904L7.7334 6.37596C7.74669 6.33529 7.80327 6.33529 7.81661 6.37596Z" fill="#F5F5F5"/>
<path d="M7.81661 8.02157L7.91966 8.33601L8.2454 8.33853C8.28758 8.33891 8.30504 8.39364 8.27113 8.41913L8.00909 8.61605L8.10739 8.93205C8.12015 8.97293 8.07433 9.00685 8.04 8.98184L7.77501 8.7891L7.51002 8.98184C7.47569 9.00679 7.42997 8.97293 7.44262 8.93205L7.54092 8.61605L7.27888 8.41913C7.24497 8.39359 7.26243 8.33891 7.30462 8.33853L7.63036 8.33601L7.7334 8.02157C7.74669 7.98085 7.80327 7.98085 7.81661 8.02157Z" fill="#F5F5F5"/>
<path d="M7.81661 9.66584L7.91966 9.98028L8.2454 9.9828C8.28758 9.98317 8.30504 10.0379 8.27113 10.0634L8.00909 10.2603L8.10739 10.5763C8.12015 10.6172 8.07433 10.6511 8.04 10.6261L7.77501 10.4334L7.51002 10.6261C7.47569 10.6511 7.42997 10.6172 7.44262 10.5763L7.54092 10.2603L7.27888 10.0634C7.24497 10.0379 7.26243 9.98317 7.30462 9.9828L7.63036 9.98028L7.7334 9.66584C7.74669 9.62506 7.80327 9.62506 7.81661 9.66584Z" fill="#F5F5F5"/>
<path d="M9.07125 3.89342L9.1743 4.20786L9.50003 4.21038C9.54222 4.21075 9.55968 4.26549 9.52577 4.29097L9.26373 4.4879L9.36203 4.80389C9.37479 4.84478 9.32896 4.87869 9.29463 4.85369L9.02964 4.66095L8.76466 4.85369C8.73033 4.87864 8.6846 4.84478 8.69726 4.80389L8.79556 4.4879L8.53352 4.29097C8.49961 4.26543 8.51707 4.21075 8.55926 4.21038L8.88499 4.20786L8.98804 3.89342C9.00127 3.85275 9.05791 3.85275 9.07125 3.89342Z" fill="#F5F5F5"/>
<path d="M9.07125 5.53903L9.1743 5.85347L9.50003 5.85599C9.54222 5.85636 9.55968 5.9111 9.52577 5.93658L9.26373 6.13351L9.36203 6.4495C9.37479 6.49039 9.32896 6.5243 9.29463 6.4993L9.02964 6.30656L8.76466 6.4993C8.73033 6.52425 8.6846 6.49044 8.69726 6.4495L8.79556 6.13351L8.53352 5.93658C8.49961 5.91104 8.51707 5.85636 8.55926 5.85599L8.88499 5.85347L8.98804 5.53903C9.00127 5.4983 9.05791 5.4983 9.07125 5.53903Z" fill="#F5F5F5"/>
<path d="M9.07125 7.18326L9.1743 7.49769L9.50003 7.50021C9.54222 7.50059 9.55968 7.55532 9.52577 7.58081L9.26373 7.77774L9.36203 8.09373C9.37479 8.13462 9.32896 8.16853 9.29463 8.14352L9.02964 7.95078L8.76466 8.14352C8.73033 8.16848 8.6846 8.13462 8.69726 8.09373L8.79556 7.77774L8.53352 7.58081C8.49961 7.55527 8.51707 7.50059 8.55926 7.50021L8.88499 7.49769L8.98804 7.18326C9.00127 7.14253 9.05791 7.14253 9.07125 7.18326Z" fill="#F5F5F5"/>
<path d="M9.07125 8.82872L9.1743 9.14316L9.50003 9.14568C9.54222 9.14606 9.55968 9.20079 9.52577 9.22628L9.26373 9.4232L9.36203 9.7392C9.37479 9.78008 9.32896 9.814 9.29463 9.78899L9.02964 9.59625L8.76466 9.78899C8.73033 9.81394 8.6846 9.78008 8.69726 9.7392L8.79556 9.4232L8.53352 9.22628C8.49961 9.20074 8.51707 9.14606 8.55926 9.14568L8.88499 9.14316L8.98804 8.82872C9.00127 8.78805 9.05791 8.78805 9.07125 8.82872Z" fill="#F5F5F5"/>
<path d="M10.3262 3.08627L10.4292 3.40071L10.755 3.40323C10.7972 3.40361 10.8146 3.45834 10.7807 3.48382L10.5187 3.68075L10.617 3.99674C10.6297 4.03763 10.5839 4.07154 10.5496 4.04654L10.2845 3.8538L10.0195 4.04654C9.98521 4.07149 9.93949 4.03763 9.95214 3.99674L10.0504 3.68075L9.7884 3.48382C9.7545 3.45828 9.77195 3.40361 9.81414 3.40323L10.1399 3.40071L10.2429 3.08627C10.2563 3.04554 10.3128 3.04554 10.3262 3.08627Z" fill="#F5F5F5"/>
<path d="M10.3262 4.7318L10.4292 5.04624L10.755 5.04876C10.7972 5.04913 10.8146 5.10387 10.7807 5.12935L10.5187 5.32628L10.617 5.64227C10.6297 5.68316 10.5839 5.71707 10.5496 5.69207L10.2845 5.49933L10.0195 5.69207C9.98521 5.71702 9.93949 5.68316 9.95214 5.64227L10.0504 5.32628L9.7884 5.12935C9.7545 5.10381 9.77195 5.04913 9.81414 5.04876L10.1399 5.04624L10.2429 4.7318C10.2563 4.69113 10.3128 4.69113 10.3262 4.7318Z" fill="#F5F5F5"/>
<path d="M10.3262 6.37596L10.4292 6.6904L10.755 6.69292C10.7972 6.6933 10.8146 6.74803 10.7807 6.77352L10.5187 6.97044L10.617 7.28644C10.6297 7.32733 10.5839 7.36124 10.5496 7.33623L10.2845 7.14349L10.0195 7.33623C9.98521 7.36118 9.93949 7.32733 9.95214 7.28644L10.0504 6.97044L9.7884 6.77352C9.7545 6.74798 9.77195 6.6933 9.81414 6.69292L10.1399 6.6904L10.2429 6.37596C10.2563 6.33529 10.3128 6.33529 10.3262 6.37596Z" fill="#F5F5F5"/>
<path d="M10.3262 8.02157L10.4292 8.33601L10.755 8.33853C10.7972 8.33891 10.8146 8.39364 10.7807 8.41913L10.5187 8.61605L10.617 8.93205C10.6297 8.97293 10.5839 9.00685 10.5496 8.98184L10.2845 8.7891L10.0195 8.98184C9.98521 9.00679 9.93949 8.97293 9.95214 8.93205L10.0504 8.61605L9.7884 8.41913C9.7545 8.39359 9.77195 8.33891 9.81414 8.33853L10.1399 8.33601L10.2429 8.02157C10.2563 7.98085 10.3128 7.98085 10.3262 8.02157Z" fill="#F5F5F5"/>
<path d="M10.3262 9.66584L10.4292 9.98028L10.755 9.9828C10.7972 9.98317 10.8146 10.0379 10.7807 10.0634L10.5187 10.2603L10.617 10.5763C10.6297 10.6172 10.5839 10.6511 10.5496 10.6261L10.2845 10.4334L10.0195 10.6261C9.98521 10.6511 9.93949 10.6172 9.95214 10.5763L10.0504 10.2603L9.7884 10.0634C9.7545 10.0379 9.77195 9.98317 9.81414 9.9828L10.1399 9.98028L10.2429 9.66584C10.2563 9.62506 10.3128 9.62506 10.3262 9.66584Z" fill="#F5F5F5"/>
<path d="M11.5808 3.89342L11.6838 4.20786L12.0096 4.21038C12.0517 4.21075 12.0692 4.26549 12.0353 4.29097L11.7733 4.4879L11.8716 4.80389C11.8843 4.84478 11.8385 4.87869 11.8042 4.85369L11.5392 4.66095L11.2742 4.85369C11.2398 4.87864 11.1941 4.84478 11.2068 4.80389L11.3051 4.4879L11.043 4.29097C11.0091 4.26543 11.0266 4.21075 11.0688 4.21038L11.3945 4.20786L11.4976 3.89342C11.5109 3.85275 11.5674 3.85275 11.5808 3.89342Z" fill="#F5F5F5"/>
<path d="M11.5808 5.53903L11.6838 5.85347L12.0096 5.85599C12.0517 5.85636 12.0692 5.9111 12.0353 5.93658L11.7733 6.13351L11.8716 6.4495C11.8843 6.49039 11.8385 6.5243 11.8042 6.4993L11.5392 6.30656L11.2742 6.4993C11.2398 6.52425 11.1941 6.49044 11.2068 6.4495L11.3051 6.13351L11.043 5.93658C11.0091 5.91104 11.0266 5.85636 11.0688 5.85599L11.3945 5.85347L11.4976 5.53903C11.5109 5.4983 11.5674 5.4983 11.5808 5.53903Z" fill="#F5F5F5"/>
<path d="M11.5808 7.18326L11.6838 7.49769L12.0096 7.50021C12.0517 7.50059 12.0692 7.55532 12.0353 7.58081L11.7733 7.77774L11.8716 8.09373C11.8843 8.13462 11.8385 8.16853 11.8042 8.14352L11.5392 7.95078L11.2742 8.14352C11.2398 8.16848 11.1941 8.13462 11.2068 8.09373L11.3051 7.77774L11.043 7.58081C11.0091 7.55527 11.0266 7.50059 11.0688 7.50021L11.3945 7.49769L11.4976 7.18326C11.5109 7.14253 11.5674 7.14253 11.5808 7.18326Z" fill="#F5F5F5"/>
<path d="M11.5808 8.82872L11.6838 9.14316L12.0096 9.14568C12.0517 9.14606 12.0692 9.20079 12.0353 9.22628L11.7733 9.4232L11.8716 9.7392C11.8843 9.78008 11.8385 9.814 11.8042 9.78899L11.5392 9.59625L11.2742 9.78899C11.2398 9.81394 11.1941 9.78008 11.2068 9.7392L11.3051 9.4232L11.043 9.22628C11.0091 9.20074 11.0266 9.14606 11.0688 9.14568L11.3945 9.14316L11.4976 8.82872C11.5109 8.78805 11.5674 8.78805 11.5808 8.82872Z" fill="#F5F5F5"/>
<path d="M12.8352 3.08627L12.9382 3.40071L13.264 3.40323C13.3061 3.40361 13.3236 3.45834 13.2897 3.48382L13.0276 3.68075L13.1259 3.99674C13.1387 4.03763 13.0929 4.07154 13.0586 4.04654L12.7936 3.8538L12.5286 4.04654C12.4942 4.07149 12.4485 4.03763 12.4612 3.99674L12.5595 3.68075L12.2974 3.48382C12.2635 3.45828 12.281 3.40361 12.3232 3.40323L12.6489 3.40071L12.752 3.08627C12.7652 3.04554 12.8218 3.04554 12.8352 3.08627Z" fill="#F5F5F5"/>
<path d="M12.8352 4.7318L12.9382 5.04624L13.264 5.04876C13.3061 5.04913 13.3236 5.10387 13.2897 5.12935L13.0276 5.32628L13.1259 5.64227C13.1387 5.68316 13.0929 5.71707 13.0586 5.69207L12.7936 5.49933L12.5286 5.69207C12.4942 5.71702 12.4485 5.68316 12.4612 5.64227L12.5595 5.32628L12.2974 5.12935C12.2635 5.10381 12.281 5.04913 12.3232 5.04876L12.6489 5.04624L12.752 4.7318C12.7652 4.69113 12.8218 4.69113 12.8352 4.7318Z" fill="#F5F5F5"/>
<path d="M12.8352 6.37596L12.9382 6.6904L13.264 6.69292C13.3061 6.6933 13.3236 6.74803 13.2897 6.77352L13.0276 6.97044L13.1259 7.28644C13.1387 7.32733 13.0929 7.36124 13.0586 7.33623L12.7936 7.14349L12.5286 7.33623C12.4942 7.36118 12.4485 7.32733 12.4612 7.28644L12.5595 6.97044L12.2974 6.77352C12.2635 6.74798 12.281 6.6933 12.3232 6.69292L12.6489 6.6904L12.752 6.37596C12.7652 6.33529 12.8218 6.33529 12.8352 6.37596Z" fill="#F5F5F5"/>
<path d="M12.8352 8.02157L12.9382 8.33601L13.264 8.33853C13.3061 8.33891 13.3236 8.39364 13.2897 8.41913L13.0276 8.61605L13.1259 8.93205C13.1387 8.97293 13.0929 9.00685 13.0586 8.98184L12.7936 8.7891L12.5286 8.98184C12.4942 9.00679 12.4485 8.97293 12.4612 8.93205L12.5595 8.61605L12.2974 8.41913C12.2635 8.39359 12.281 8.33891 12.3232 8.33853L12.6489 8.33601L12.752 8.02157C12.7652 7.98085 12.8218 7.98085 12.8352 8.02157Z" fill="#F5F5F5"/>
<path d="M12.8352 9.66584L12.9382 9.98028L13.264 9.9828C13.3061 9.98317 13.3236 10.0379 13.2897 10.0634L13.0276 10.2603L13.1259 10.5763C13.1387 10.6172 13.0929 10.6511 13.0586 10.6261L12.7936 10.4334L12.5286 10.6261C12.4942 10.6511 12.4485 10.6172 12.4612 10.5763L12.5595 10.2603L12.2974 10.0634C12.2635 10.0379 12.281 9.98317 12.3232 9.9828L12.6489 9.98028L12.752 9.66584C12.7652 9.62506 12.8218 9.62506 12.8352 9.66584Z" fill="#F5F5F5"/>
<path d="M14.0901 3.89342L14.1931 4.20786L14.5188 4.21038C14.561 4.21075 14.5785 4.26549 14.5446 4.29097L14.2825 4.4879L14.3808 4.80389C14.3936 4.84478 14.3478 4.87869 14.3134 4.85369L14.0484 4.66095L13.7835 4.85369C13.7491 4.87864 13.7034 4.84478 13.7161 4.80389L13.8144 4.4879L13.5523 4.29097C13.5184 4.26543 13.5359 4.21075 13.5781 4.21038L13.9038 4.20786L14.0068 3.89342C14.0201 3.85275 14.0768 3.85275 14.0901 3.89342Z" fill="#F5F5F5"/>
<path d="M14.0901 5.53903L14.1931 5.85347L14.5188 5.85599C14.561 5.85636 14.5785 5.9111 14.5446 5.93658L14.2825 6.13351L14.3808 6.4495C14.3936 6.49039 14.3478 6.5243 14.3134 6.4993L14.0484 6.30656L13.7835 6.4993C13.7491 6.52425 13.7034 6.49044 13.7161 6.4495L13.8144 6.13351L13.5523 5.93658C13.5184 5.91104 13.5359 5.85636 13.5781 5.85599L13.9038 5.85347L14.0068 5.53903C14.0201 5.4983 14.0768 5.4983 14.0901 5.53903Z" fill="#F5F5F5"/>
<path d="M14.0901 7.18326L14.1931 7.49769L14.5188 7.50021C14.561 7.50059 14.5785 7.55532 14.5446 7.58081L14.2825 7.77774L14.3808 8.09373C14.3936 8.13462 14.3478 8.16853 14.3134 8.14352L14.0484 7.95078L13.7835 8.14352C13.7491 8.16848 13.7034 8.13462 13.7161 8.09373L13.8144 7.77774L13.5523 7.58081C13.5184 7.55527 13.5359 7.50059 13.5781 7.50021L13.9038 7.49769L14.0068 7.18326C14.0201 7.14253 14.0768 7.14253 14.0901 7.18326Z" fill="#F5F5F5"/>
<path d="M14.0901 8.82872L14.1931 9.14316L14.5188 9.14568C14.561 9.14606 14.5785 9.20079 14.5446 9.22628L14.2825 9.4232L14.3808 9.7392C14.3936 9.78008 14.3478 9.814 14.3134 9.78899L14.0484 9.59625L13.7835 9.78899C13.7491 9.81394 13.7034 9.78008 13.7161 9.7392L13.8144 9.4232L13.5523 9.22628C13.5184 9.20074 13.5359 9.14606 13.5781 9.14568L13.9038 9.14316L14.0068 8.82872C14.0201 8.78805 14.0768 8.78805 14.0901 8.82872Z" fill="#F5F5F5"/>
<path d="M15.3451 3.08627L15.4481 3.40071L15.7738 3.40323C15.816 3.40361 15.8335 3.45834 15.7996 3.48382L15.5375 3.68075L15.6358 3.99674C15.6486 4.03763 15.6028 4.07154 15.5684 4.04654L15.3034 3.8538L15.0385 4.04654C15.0041 4.07149 14.9584 4.03763 14.9711 3.99674L15.0694 3.68075L14.8073 3.48382C14.7734 3.45828 14.7909 3.40361 14.8331 3.40323L15.1588 3.40071L15.2618 3.08627C15.2751 3.04554 15.3317 3.04554 15.3451 3.08627Z" fill="#F5F5F5"/>
<path d="M15.3451 4.7318L15.4481 5.04624L15.7738 5.04876C15.816 5.04913 15.8335 5.10387 15.7996 5.12935L15.5375 5.32628L15.6358 5.64227C15.6486 5.68316 15.6028 5.71707 15.5684 5.69207L15.3034 5.49933L15.0385 5.69207C15.0041 5.71702 14.9584 5.68316 14.9711 5.64227L15.0694 5.32628L14.8073 5.12935C14.7734 5.10381 14.7909 5.04913 14.8331 5.04876L15.1588 5.04624L15.2618 4.7318C15.2751 4.69113 15.3317 4.69113 15.3451 4.7318Z" fill="#F5F5F5"/>
<path d="M15.3451 6.37596L15.4481 6.6904L15.7738 6.69292C15.816 6.6933 15.8335 6.74803 15.7996 6.77352L15.5375 6.97044L15.6358 7.28644C15.6486 7.32733 15.6028 7.36124 15.5684 7.33623L15.3034 7.14349L15.0385 7.33623C15.0041 7.36118 14.9584 7.32733 14.9711 7.28644L15.0694 6.97044L14.8073 6.77352C14.7734 6.74798 14.7909 6.6933 14.8331 6.69292L15.1588 6.6904L15.2618 6.37596C15.2751 6.33529 15.3317 6.33529 15.3451 6.37596Z" fill="#F5F5F5"/>
<path d="M15.3451 8.02157L15.4481 8.33601L15.7738 8.33853C15.816 8.33891 15.8335 8.39364 15.7996 8.41913L15.5375 8.61605L15.6358 8.93205C15.6486 8.97293 15.6028 9.00685 15.5684 8.98184L15.3034 8.7891L15.0385 8.98184C15.0041 9.00679 14.9584 8.97293 14.9711 8.93205L15.0694 8.61605L14.8073 8.41913C14.7734 8.39359 14.7909 8.33891 14.8331 8.33853L15.1588 8.33601L15.2618 8.02157C15.2751 7.98085 15.3317 7.98085 15.3451 8.02157Z" fill="#F5F5F5"/>
<path d="M15.3451 9.66584L15.4481 9.98028L15.7738 9.9828C15.816 9.98317 15.8335 10.0379 15.7996 10.0634L15.5375 10.2603L15.6358 10.5763C15.6486 10.6172 15.6028 10.6511 15.5684 10.6261L15.3034 10.4334L15.0385 10.6261C15.0041 10.6511 14.9584 10.6172 14.9711 10.5763L15.0694 10.2603L14.8073 10.0634C14.7734 10.0379 14.7909 9.98317 14.8331 9.9828L15.1588 9.98028L15.2618 9.66584C15.2751 9.62506 15.3317 9.62506 15.3451 9.66584Z" fill="#F5F5F5"/>
</g>
<defs>
<filter id="filter0_d" x="0" y="0" width="35" height="25.9997" filterUnits="userSpaceOnUse" color-interpolation-filters="sRGB">
<feFlood flood-opacity="0" result="BackgroundImageFix"/>
<feColorMatrix in="SourceAlpha" type="matrix" values="0 0 0 0 0 0 0 0 0 0 0 0 0 0 0 0 0 0 127 0"/>
<feOffset dy="2"/>
<feGaussianBlur stdDeviation="2"/>
<feColorMatrix type="matrix" values="0 0 0 0 0.00655022 0 0 0 0 0.00655022 0 0 0 0 0.00655022 0 0 0 0.24 0"/>
<feBlend mode="normal" in2="BackgroundImageFix" result="effect1_dropShadow"/>
<feBlend mode="normal" in="SourceGraphic" in2="effect1_dropShadow" result="shape"/>
</filter>
</defs>
</svg>
