<svg width="44" height="44" viewBox="0 0 44 44" fill="none" xmlns="http://www.w3.org/2000/svg">
<path d="M9.33182 4.56592H34.4071C36.7894 4.56592 38.7369 6.52185 38.7369 8.9136V34.0885C38.7369 36.4796 36.7894 38.4342 34.4071 38.4342H9.33182C6.94954 38.4342 5 36.4795 5 34.0885V8.9136C5 6.52185 6.94954 4.56592 9.33182 4.56592ZM29.5769 8.32751C28.7404 8.32751 28.0582 9.01521 28.0582 9.85453V13.5029C28.0582 14.3425 28.7404 15.0287 29.5769 15.0287H33.3895C34.2246 15.0287 34.9083 14.3425 34.9083 13.5029V9.85453C34.9083 9.01521 34.2246 8.32751 33.3895 8.32751H29.5769ZM34.9228 18.8884H31.9544C32.2359 19.8114 32.3885 20.7847 32.3885 21.7966C32.3885 27.4285 27.6917 31.9963 21.9002 31.9963C16.1101 31.9963 11.4132 27.4285 11.4132 21.7966C11.4132 20.7847 11.5672 19.8114 11.8474 18.8884H8.75042V33.1968C8.75042 33.9378 9.35307 34.5406 10.0904 34.5406H33.5834C34.3214 34.5406 34.9228 33.9378 34.9228 33.1968V18.8884ZM21.9003 14.8363C18.16 14.8363 15.1259 17.7862 15.1259 21.4285C15.1259 25.067 18.16 28.0192 21.9003 28.0192C25.6426 28.0192 28.6768 25.067 28.6768 21.4285C28.6768 17.7861 25.6426 14.8363 21.9003 14.8363Z"/>
</svg>
