<svg width="44" height="44" viewBox="0 0 44 44" fill="none" xmlns="http://www.w3.org/2000/svg">
<path d="M39.0715 10.4794C38.5238 10.7232 37.9607 10.929 37.3854 11.0961C38.0666 10.3228 38.5859 9.41275 38.9029 8.41695C38.974 8.19374 38.9003 7.94942 38.7176 7.80343C38.535 7.65733 38.2815 7.63983 38.0805 7.7594C36.8587 8.48695 35.5404 9.0098 34.1582 9.31554C32.7659 7.94964 30.8749 7.1723 28.9199 7.1723C24.7933 7.1723 21.4361 10.5428 21.4361 14.6857C21.4361 15.012 21.4566 15.3364 21.4974 15.6564C16.3767 15.205 11.6161 12.6781 8.34695 8.65212C8.23044 8.50862 8.05096 8.43129 7.86721 8.44608C7.68334 8.46053 7.51814 8.56462 7.42526 8.72461C6.76221 9.86685 6.41169 11.1733 6.41169 12.5025C6.41169 14.3129 7.0555 16.0306 8.19277 17.3728C7.84697 17.2525 7.5114 17.1023 7.19112 16.9238C7.01918 16.8277 6.80933 16.8291 6.63851 16.9275C6.46758 17.0258 6.36041 17.2067 6.35591 17.4044C6.35512 17.4377 6.35512 17.471 6.35512 17.5048C6.35512 20.2071 7.80378 22.64 10.0186 23.9661C9.82833 23.947 9.63817 23.9193 9.44924 23.8831C9.25447 23.8457 9.05418 23.9143 8.92284 24.0634C8.79126 24.2124 8.74774 24.4202 8.80836 24.6099C9.62816 27.1795 11.7389 29.0697 14.2905 29.6459C12.1742 30.9767 9.754 31.6738 7.21339 31.6738C6.68327 31.6738 6.15011 31.6425 5.62832 31.5805C5.36911 31.5496 5.12125 31.7032 5.03297 31.9507C4.9447 32.1983 5.03826 32.4744 5.25879 32.6163C8.5226 34.7173 12.2965 35.8278 16.1723 35.8278C23.7917 35.8278 28.5582 32.2206 31.2149 29.1944C34.5279 25.4211 36.428 20.4266 36.428 15.4917C36.428 15.2855 36.4248 15.0773 36.4185 14.8698C37.7256 13.8811 38.8509 12.6846 39.7667 11.3093C39.9058 11.1004 39.8907 10.8244 39.7296 10.6321C39.5686 10.4397 39.3004 10.3775 39.0715 10.4794Z"/>
</svg>
