<svg width="44" height="44" viewBox="0 0 44 44" fill="none" xmlns="http://www.w3.org/2000/svg">
<path d="M13.5623 22.641H17.3837V38.4355C17.3837 38.7473 17.6353 39 17.9459 39H24.4252C24.7358 39 24.9875 38.7473 24.9875 38.4355V22.7154H29.3805C29.6661 22.7154 29.9065 22.5002 29.9391 22.2154L30.6063 16.4006C30.6246 16.2406 30.5741 16.0804 30.4675 15.9604C30.3608 15.8403 30.2081 15.7715 30.0478 15.7715H24.9877V12.1265C24.9877 11.0278 25.577 10.4706 26.7393 10.4706C26.905 10.4706 30.0478 10.4706 30.0478 10.4706C30.3584 10.4706 30.6101 10.2178 30.6101 9.90608V4.56869C30.6101 4.25685 30.3584 4.00418 30.0478 4.00418H25.4883C25.4561 4.0026 25.3847 4 25.2794 4C24.4883 4 21.7384 4.15592 19.5662 6.16221C17.1594 8.3855 17.494 11.0475 17.5739 11.5091V15.7714H13.5623C13.2517 15.7714 13 16.0241 13 16.3359V22.0764C13 22.3882 13.2517 22.641 13.5623 22.641Z"/>
</svg>
