<svg width="44" height="44" viewBox="0 0 44 44" fill="none" xmlns="http://www.w3.org/2000/svg">
<path d="M8.08638 37.7672L12.892 28.0068C12.9879 27.812 13.1541 27.6628 13.3533 27.5814L15.7441 26.5595L11.6016 19.8932C11.5917 19.8772 11.5824 19.861 11.5735 19.8445C10.7499 18.301 10.3322 16.6331 10.3322 14.8874C10.3322 11.9508 11.5316 9.19765 13.7094 7.13532C15.8868 5.07346 18.7715 3.95982 21.8318 4.00111C24.8041 4.04069 27.6027 5.18701 29.7121 7.22904C31.8213 9.27093 32.9926 11.9672 33.0103 14.8214C33.0211 16.5656 32.5919 18.3025 31.7693 19.8444C31.7605 19.8609 31.7511 19.8772 31.7412 19.8932L27.5988 26.5594L30.0034 27.5869C30.2001 27.6709 30.3588 27.8198 30.4508 28.0067L35.2563 37.7672C35.4171 38.0936 35.3493 38.4818 35.0863 38.74C34.8234 38.9982 34.421 39.0721 34.0773 38.9253L28.0572 36.3518L22.037 38.9253C21.8042 39.0247 21.5382 39.0247 21.3054 38.9253L15.2852 36.3518L9.26509 38.9253C9.14747 38.9755 9.02295 39 8.8995 39C8.66235 39 8.42904 38.9099 8.25611 38.74C7.99332 38.4818 7.92555 38.0938 8.08638 37.7672ZM30.1811 19.0326C30.8738 17.7248 31.2204 16.3116 31.2113 14.8318C31.1808 9.88056 26.9619 5.7967 21.8068 5.72814C19.2319 5.69492 16.8044 6.63041 14.9725 8.36517C13.1401 10.1003 12.1311 12.4166 12.1311 14.8875C12.1311 16.3476 12.4777 17.742 13.1615 19.0326L20.8988 31.4842C21.1351 31.8642 21.5177 31.9053 21.6712 31.9053C21.8249 31.9053 22.2075 31.8642 22.4436 31.4842L30.1811 19.0326ZM14.9196 34.6176C15.1524 34.5181 15.4184 34.5181 15.6512 34.6176L21.6714 37.191L27.6915 34.6176C27.9244 34.5181 28.1903 34.5181 28.4232 34.6176L32.5937 36.4004L28.9671 29.0347L26.6705 28.0533L23.9887 32.3691C23.4972 33.1601 22.6309 33.6324 21.6715 33.6324C20.7122 33.6324 19.8459 33.1601 19.3543 32.3691L16.6725 28.0534L14.3757 29.0351L10.7494 36.4004L14.9196 34.6176Z" fill="white"/>
<path d="M21.671 10.9458C23.9346 10.9458 25.7761 12.7139 25.7761 14.8873C25.7761 17.0606 23.9346 18.8287 21.671 18.8287C19.4075 18.8288 17.566 17.0606 17.566 14.8873C17.566 12.7139 19.4075 10.9458 21.671 10.9458ZM21.671 17.1016C22.9426 17.1016 23.9772 16.1084 23.9772 14.8873C23.9772 13.6663 22.9427 12.673 21.671 12.673C20.3994 12.673 19.3649 13.6663 19.3649 14.8873C19.3649 16.1082 20.3994 17.1016 21.671 17.1016Z" fill="white"/>
</svg>
