<svg width="1368" height="767" viewBox="0 0 1368 767" fill="none" xmlns="http://www.w3.org/2000/svg">
<path fill-rule="evenodd" clip-rule="evenodd" d="M318.264 223.575C295.729 206.884 263.286 197.569 220.936 195.628C252.019 192.523 279.41 185.536 303.111 174.668C326.811 163.8 345.072 150.02 357.894 133.33C371.104 116.251 377.709 97.62 377.709 77.4361C377.709 52.9826 367.219 34.1573 346.238 20.9601C325.257 7.37486 293.009 0.582219 249.493 0.582219C233.952 0.582219 222.101 0.776292 213.942 1.16444L164.404 1.74666C125.939 1.74666 96.4106 1.16444 75.8182 0L72.9042 11.6445C87.6685 12.0327 97.7704 13.9734 103.21 17.4668C109.038 20.9601 111.952 26.3942 111.952 33.7691C111.952 39.9795 110.398 49.2952 107.29 61.716L30.3597 350.5C26.4744 365.25 22.3948 375.924 18.1209 382.523C14.2356 389.121 8.7961 393.585 1.80248 395.914C-5.19114 398.243 -15.6816 399.796 -29.6688 400.572L-32 412.216C-11.0192 411.052 19.0923 410.47 58.3342 410.47C79.7036 410.47 102.433 410.858 126.522 411.634L160.324 412.216C197.624 412.216 230.649 407.364 259.401 397.661C288.541 387.957 311.27 373.789 327.588 355.158C343.907 336.139 352.066 313.238 352.066 286.455C352.066 261.226 340.799 240.265 318.264 223.575ZM215.691 19.7957C221.13 14.3616 229.678 11.6445 241.334 11.6445C257.652 11.6445 269.114 16.4964 275.719 26.2002C282.713 35.904 286.21 49.8774 286.21 68.1205C286.21 89.8569 282.13 110.429 273.971 129.837C266.2 148.856 254.544 164.188 239.003 175.832C223.85 187.477 205.783 193.299 184.802 193.299H164.404L201.703 52.9826C205.977 36.2921 210.64 25.2298 215.691 19.7957ZM205.2 382.523C188.882 393.391 169.261 398.825 146.337 398.825C136.235 398.825 129.047 397.078 124.774 393.585C120.5 389.704 118.363 384.075 118.363 376.701C118.363 372.431 119.917 363.697 123.025 350.5L162.073 203.197H187.716C211.028 203.197 227.929 209.796 238.42 222.993C249.299 236.19 254.738 253.851 254.738 275.975C254.738 298.876 250.464 319.642 241.917 338.274C233.757 356.905 221.519 371.655 205.2 382.523ZM703.508 130.612C758.68 130.612 798.116 130.03 821.817 128.866C812.881 152.931 805.304 176.608 799.088 199.897C792.483 224.351 788.403 241.429 786.849 251.133H773.444C774.999 239.1 775.776 227.262 775.776 215.617C775.776 188.835 770.336 170.01 759.457 159.141C748.967 147.885 731.483 142.257 707.005 142.257H693.601C680.779 142.257 671.066 143.421 664.461 145.75C658.244 147.691 653.193 151.961 649.308 158.559C645.422 165.158 641.731 175.832 638.234 190.582L600.935 330.316H627.744C646.394 330.316 662.129 323.911 674.951 311.102C687.773 298.293 698.652 281.409 707.588 260.449H720.409C714.581 278.692 707.394 303.922 698.846 336.138C695.349 350.888 689.327 379.611 680.779 422.308H667.957C669.123 395.913 666.403 375.924 659.798 362.338C653.582 348.753 640.76 341.96 621.333 341.96H598.021L561.305 479.366C558.196 491.01 556.642 499.55 556.642 504.984C556.642 514.299 560.139 520.51 567.133 523.615C574.515 526.72 587.725 528.661 606.763 529.437L604.432 541.082C580.731 539.917 546.152 539.335 500.693 539.335C457.955 539.335 426.289 539.917 405.697 541.082L408.611 529.437C422.598 528.661 432.894 527.108 439.499 524.78C446.493 522.451 452.127 517.987 456.401 511.388C460.674 504.79 464.754 494.116 468.639 479.366L545.569 190.582C548.677 177.384 550.232 168.069 550.232 162.635C550.232 154.095 547.318 148.467 541.49 145.75C536.05 143.033 525.948 141.286 511.184 140.51L514.098 128.866C556.448 130.03 619.585 130.612 703.508 130.612ZM1323.71 353.619C1341.19 353.619 1355.96 353.037 1368 351.872L1365.09 363.517C1351.49 367.399 1339.44 373.609 1328.95 382.148C1318.46 390.299 1307.58 404.661 1296.32 425.233L1112.73 767H1082.43L1046.29 507.327L889.52 767H859.214L813.173 400.78C811.619 387.582 807.928 378.267 802.1 372.833C796.272 367.01 789.667 363.905 782.285 363.517L785.199 351.872C804.237 353.037 831.434 353.619 866.791 353.619C899.816 353.619 925.071 353.037 942.555 351.872L939.641 363.517C928.374 364.293 920.409 367.01 915.746 371.668C911.084 376.326 908.753 385.059 908.753 397.868C908.753 404.079 908.947 408.931 909.335 412.424L937.31 665.11L1043.96 489.86L1031.72 400.78C1030.17 387.971 1027.06 378.655 1022.4 372.833C1017.74 367.01 1012.49 363.905 1006.66 363.517L1009.58 351.872C1027.84 353.037 1053.09 353.619 1085.34 353.619C1125.75 353.619 1156.05 353.037 1176.26 351.872L1173.34 363.517C1155.86 364.293 1143.62 367.01 1136.63 371.668C1130.02 375.938 1126.72 384.283 1126.72 396.704C1126.72 399.421 1127.11 404.661 1127.89 412.424L1158.77 655.795L1278.83 435.131C1288.54 416.888 1293.4 402.526 1293.4 392.046C1293.4 382.342 1289.32 375.356 1281.16 371.086C1273.39 366.816 1261.15 364.293 1244.45 363.517L1247.36 351.872C1263.29 353.037 1288.74 353.619 1323.71 353.619Z" fill="#7C6AAD"/>
</svg>
