<svg width="13" height="10" viewBox="0 0 13 10" fill="none" xmlns="http://www.w3.org/2000/svg">
<path opacity="0.74" fill-rule="evenodd" clip-rule="evenodd" d="M12.5242 2.84518L10.8988 4.51251L6.0237 9.51152C5.73022 9.81387 5.32363 10 4.87512 10C4.42661 10 4.02003 9.81387 3.72557 9.51152L0.475812 6.17885C0.181355 5.87749 0 5.4609 0 5C0 4.07918 0.727368 3.33366 1.62439 3.33366C2.07388 3.33366 2.47949 3.5198 2.77394 3.82214L4.87512 5.97597L8.60069 2.15482L10.2261 0.488477C10.5195 0.187118 10.9261 0 11.3746 0C12.2726 0 13 0.746504 13 1.66634C13 2.12724 12.8186 2.54382 12.5242 2.84518Z" fill="#303030"/>
</svg>
