<svg xmlns="http://www.w3.org/2000/svg" xmlns:xlink="http://www.w3.org/1999/xlink"><symbol id="icon-fb" viewBox="0 0 44 44">
<path d="M13.5623 22.641H17.3837V38.4355C17.3837 38.7473 17.6353 39 17.9459 39H24.4252C24.7358 39 24.9875 38.7473 24.9875 38.4355V22.7154H29.3805C29.6661 22.7154 29.9065 22.5002 29.9391 22.2154L30.6063 16.4006C30.6246 16.2406 30.5741 16.0804 30.4675 15.9604C30.3608 15.8403 30.2081 15.7715 30.0478 15.7715H24.9877V12.1265C24.9877 11.0278 25.577 10.4706 26.7393 10.4706C26.905 10.4706 30.0478 10.4706 30.0478 10.4706C30.3584 10.4706 30.6101 10.2178 30.6101 9.90608V4.56869C30.6101 4.25685 30.3584 4.00418 30.0478 4.00418H25.4883C25.4561 4.0026 25.3847 4 25.2794 4C24.4883 4 21.7384 4.15592 19.5662 6.16221C17.1594 8.3855 17.494 11.0475 17.5739 11.5091V15.7714H13.5623C13.2517 15.7714 13 16.0241 13 16.3359V22.0764C13 22.3882 13.2517 22.641 13.5623 22.641Z"/>
</symbol><symbol id="icon-insta" viewBox="0 0 44 44">
<path d="M9.33182 4.56592H34.4071C36.7894 4.56592 38.7369 6.52185 38.7369 8.9136V34.0885C38.7369 36.4796 36.7894 38.4342 34.4071 38.4342H9.33182C6.94954 38.4342 5 36.4795 5 34.0885V8.9136C5 6.52185 6.94954 4.56592 9.33182 4.56592ZM29.5769 8.32751C28.7404 8.32751 28.0582 9.01521 28.0582 9.85453V13.5029C28.0582 14.3425 28.7404 15.0287 29.5769 15.0287H33.3895C34.2246 15.0287 34.9083 14.3425 34.9083 13.5029V9.85453C34.9083 9.01521 34.2246 8.32751 33.3895 8.32751H29.5769ZM34.9228 18.8884H31.9544C32.2359 19.8114 32.3885 20.7847 32.3885 21.7966C32.3885 27.4285 27.6917 31.9963 21.9002 31.9963C16.1101 31.9963 11.4132 27.4285 11.4132 21.7966C11.4132 20.7847 11.5672 19.8114 11.8474 18.8884H8.75042V33.1968C8.75042 33.9378 9.35307 34.5406 10.0904 34.5406H33.5834C34.3214 34.5406 34.9228 33.9378 34.9228 33.1968V18.8884ZM21.9003 14.8363C18.16 14.8363 15.1259 17.7862 15.1259 21.4285C15.1259 25.067 18.16 28.0192 21.9003 28.0192C25.6426 28.0192 28.6768 25.067 28.6768 21.4285C28.6768 17.7861 25.6426 14.8363 21.9003 14.8363Z"/>
</symbol><symbol id="icon-twitter" viewBox="0 0 44 44">
<path d="M39.0715 10.4794C38.5238 10.7232 37.9607 10.929 37.3854 11.0961C38.0666 10.3228 38.5859 9.41275 38.9029 8.41695C38.974 8.19374 38.9003 7.94942 38.7176 7.80343C38.535 7.65733 38.2815 7.63983 38.0805 7.7594C36.8587 8.48695 35.5404 9.0098 34.1582 9.31554C32.7659 7.94964 30.8749 7.1723 28.9199 7.1723C24.7933 7.1723 21.4361 10.5428 21.4361 14.6857C21.4361 15.012 21.4566 15.3364 21.4974 15.6564C16.3767 15.205 11.6161 12.6781 8.34695 8.65212C8.23044 8.50862 8.05096 8.43129 7.86721 8.44608C7.68334 8.46053 7.51814 8.56462 7.42526 8.72461C6.76221 9.86685 6.41169 11.1733 6.41169 12.5025C6.41169 14.3129 7.0555 16.0306 8.19277 17.3728C7.84697 17.2525 7.5114 17.1023 7.19112 16.9238C7.01918 16.8277 6.80933 16.8291 6.63851 16.9275C6.46758 17.0258 6.36041 17.2067 6.35591 17.4044C6.35512 17.4377 6.35512 17.471 6.35512 17.5048C6.35512 20.2071 7.80378 22.64 10.0186 23.9661C9.82833 23.947 9.63817 23.9193 9.44924 23.8831C9.25447 23.8457 9.05418 23.9143 8.92284 24.0634C8.79126 24.2124 8.74774 24.4202 8.80836 24.6099C9.62816 27.1795 11.7389 29.0697 14.2905 29.6459C12.1742 30.9767 9.754 31.6738 7.21339 31.6738C6.68327 31.6738 6.15011 31.6425 5.62832 31.5805C5.36911 31.5496 5.12125 31.7032 5.03297 31.9507C4.9447 32.1983 5.03826 32.4744 5.25879 32.6163C8.5226 34.7173 12.2965 35.8278 16.1723 35.8278C23.7917 35.8278 28.5582 32.2206 31.2149 29.1944C34.5279 25.4211 36.428 20.4266 36.428 15.4917C36.428 15.2855 36.4248 15.0773 36.4185 14.8698C37.7256 13.8811 38.8509 12.6846 39.7667 11.3093C39.9058 11.1004 39.8907 10.8244 39.7296 10.6321C39.5686 10.4397 39.3004 10.3775 39.0715 10.4794Z"/>
</symbol></svg>