<svg width="19" height="19" viewBox="0 0 19 19" fill="none" xmlns="http://www.w3.org/2000/svg">
<path d="M14.175 4.825H14.1835M5.25 1H13.75C16.0972 1 18 2.90279 18 5.25V13.75C18 16.0972 16.0972 18 13.75 18H5.25C2.90279 18 1 16.0972 1 13.75V5.25C1 2.90279 2.90279 1 5.25 1ZM12.9 8.9645C13.0049 9.67191 12.8841 10.3944 12.5547 11.0292C12.2253 11.6639 11.7042 12.1787 11.0654 12.5002C10.4266 12.8217 9.70268 12.9337 8.99662 12.82C8.29056 12.7064 7.6383 12.3731 7.13261 11.8674C6.62693 11.3617 6.29357 10.7094 6.17996 10.0034C6.06634 9.29732 6.17826 8.57341 6.49978 7.93462C6.8213 7.29583 7.33606 6.77468 7.97084 6.44531C8.60562 6.11593 9.32809 5.9951 10.0355 6.1C10.7571 6.207 11.4251 6.54324 11.9409 7.05906C12.4568 7.57488 12.793 8.24292 12.9 8.9645Z" stroke="#24110B" stroke-linecap="round" stroke-linejoin="round"/>
</svg>
