<svg width="133" height="42" viewBox="0 0 133 42" fill="none" xmlns="http://www.w3.org/2000/svg">
<path d="M58.8707 19.26L58.201 19.776C57.4038 18.784 56.3793 18.288 55.1275 18.288C54.107 18.288 53.226 18.648 52.4846 19.368C51.7511 20.088 51.3843 20.972 51.3843 22.02C51.3843 23.06 51.7431 23.932 52.4607 24.636C53.1862 25.332 54.0911 25.68 55.1754 25.68C56.3872 25.68 57.3958 25.208 58.201 24.264L58.8707 24.78C58.4482 25.34 57.914 25.768 57.2682 26.064C56.6224 26.352 55.9089 26.496 55.1275 26.496C53.7642 26.496 52.648 26.064 51.779 25.2C50.91 24.336 50.4754 23.244 50.4754 21.924C50.4754 21.108 50.6748 20.356 51.0734 19.668C51.48 18.972 52.0381 18.428 52.7477 18.036C53.4652 17.644 54.2346 17.448 55.0558 17.448C55.877 17.448 56.6145 17.604 57.2682 17.916C57.922 18.228 58.4562 18.676 58.8707 19.26Z" fill="#24110B"/>
<path d="M60.8258 22.008C60.8258 21.176 61.0251 20.408 61.4237 19.704C61.8224 19 62.3685 18.448 63.0621 18.048C63.7558 17.648 64.5092 17.448 65.3224 17.448C66.1436 17.448 66.905 17.648 67.6066 18.048C68.3162 18.44 68.8703 18.988 69.2689 19.692C69.6755 20.388 69.8788 21.148 69.8788 21.972C69.8788 22.788 69.6795 23.548 69.2809 24.252C68.8822 24.948 68.3321 25.496 67.6305 25.896C66.9369 26.296 66.1795 26.496 65.3583 26.496C64.5451 26.496 63.7877 26.3 63.0861 25.908C62.3845 25.508 61.8304 24.96 61.4237 24.264C61.0251 23.568 60.8258 22.816 60.8258 22.008ZM68.9819 21.972C68.9819 20.94 68.6231 20.068 67.9056 19.356C67.196 18.644 66.3389 18.288 65.3344 18.288C64.3059 18.288 63.4448 18.648 62.7512 19.368C62.0655 20.08 61.7227 20.952 61.7227 21.984C61.7227 23.008 62.0775 23.876 62.7871 24.588C63.4967 25.3 64.3537 25.656 65.3583 25.656C66.3629 25.656 67.2159 25.308 67.9175 24.612C68.6271 23.916 68.9819 23.036 68.9819 21.972Z" fill="#24110B"/>
<path d="M71.3037 24.672L72.0332 24.24C72.5434 25.184 73.1374 25.656 73.8151 25.656C74.2536 25.656 74.6283 25.516 74.9392 25.236C75.2502 24.956 75.4056 24.608 75.4056 24.192C75.4056 23.864 75.2741 23.532 75.011 23.196C74.7479 22.86 74.3094 22.464 73.6955 22.008C73.0896 21.544 72.679 21.2 72.4637 20.976C72.2564 20.744 72.1009 20.5 71.9973 20.244C71.9016 19.98 71.8538 19.716 71.8538 19.452C71.8538 18.892 72.0491 18.42 72.4398 18.036C72.8384 17.644 73.3367 17.448 73.9347 17.448C74.4051 17.448 74.8157 17.568 75.1665 17.808C75.5173 18.04 75.8561 18.388 76.183 18.852L75.4893 19.392C75.2661 19.088 75.0349 18.836 74.7957 18.636C74.5565 18.436 74.2615 18.336 73.9107 18.336C73.5679 18.336 73.2849 18.44 73.0616 18.648C72.8464 18.856 72.7387 19.12 72.7387 19.44C72.7387 19.76 72.8344 20.04 73.0258 20.28C73.2251 20.512 73.6676 20.884 74.3532 21.396C75.0469 21.908 75.5491 22.38 75.8601 22.812C76.179 23.244 76.3384 23.7 76.3384 24.18C76.3384 24.804 76.0953 25.348 75.6089 25.812C75.1306 26.268 74.5725 26.496 73.9347 26.496C72.8105 26.496 71.9335 25.888 71.3037 24.672Z" fill="#24110B"/>
<path d="M78.3601 26.28L79.5799 17.664H79.7115L83.2035 24.732L86.6717 17.664H86.8032L88.035 26.28H87.1859L86.3488 20.112L83.3112 26.28H83.0959L80.0224 20.064L79.1853 26.28H78.3601Z" fill="#24110B"/>
<path d="M89.9598 22.008C89.9598 21.176 90.1591 20.408 90.5577 19.704C90.9564 19 91.5025 18.448 92.1961 18.048C92.8898 17.648 93.6432 17.448 94.4564 17.448C95.2776 17.448 96.039 17.648 96.7406 18.048C97.4502 18.44 98.0043 18.988 98.4029 19.692C98.8095 20.388 99.0128 21.148 99.0128 21.972C99.0128 22.788 98.8135 23.548 98.4149 24.252C98.0162 24.948 97.4661 25.496 96.7645 25.896C96.0709 26.296 95.3135 26.496 94.4923 26.496C93.6791 26.496 92.9217 26.3 92.2201 25.908C91.5185 25.508 90.9644 24.96 90.5577 24.264C90.1591 23.568 89.9598 22.816 89.9598 22.008ZM98.1159 21.972C98.1159 20.94 97.7571 20.068 97.0396 19.356C96.33 18.644 95.4729 18.288 94.4684 18.288C93.4399 18.288 92.5788 18.648 91.8852 19.368C91.1995 20.08 90.8567 20.952 90.8567 21.984C90.8567 23.008 91.2115 23.876 91.9211 24.588C92.6307 25.3 93.4877 25.656 94.4923 25.656C95.4969 25.656 96.3499 25.308 97.0515 24.612C97.7611 23.916 98.1159 23.036 98.1159 21.972Z" fill="#24110B"/>
<path d="M100.438 24.672L101.167 24.24C101.677 25.184 102.271 25.656 102.949 25.656C103.388 25.656 103.762 25.516 104.073 25.236C104.384 24.956 104.54 24.608 104.54 24.192C104.54 23.864 104.408 23.532 104.145 23.196C103.882 22.86 103.443 22.464 102.829 22.008C102.224 21.544 101.813 21.2 101.598 20.976C101.39 20.744 101.235 20.5 101.131 20.244C101.036 19.98 100.988 19.716 100.988 19.452C100.988 18.892 101.183 18.42 101.574 18.036C101.972 17.644 102.471 17.448 103.069 17.448C103.539 17.448 103.95 17.568 104.3 17.808C104.651 18.04 104.99 18.388 105.317 18.852L104.623 19.392C104.4 19.088 104.169 18.836 103.93 18.636C103.691 18.436 103.396 18.336 103.045 18.336C102.702 18.336 102.419 18.44 102.196 18.648C101.98 18.856 101.873 19.12 101.873 19.44C101.873 19.76 101.968 20.04 102.16 20.28C102.359 20.512 102.802 20.884 103.487 21.396C104.181 21.908 104.683 22.38 104.994 22.812C105.313 23.244 105.472 23.7 105.472 24.18C105.472 24.804 105.229 25.348 104.743 25.812C104.265 26.268 103.706 26.496 103.069 26.496C101.944 26.496 101.067 25.888 100.438 24.672Z" fill="#24110B"/>
<path d="M107.865 17.664H108.738V21.276H113.103V17.664H113.964V26.28H113.103V22.116H108.738V26.28H107.865V17.664Z" fill="#24110B"/>
<path d="M116.268 22.008C116.268 21.176 116.467 20.408 116.865 19.704C117.264 19 117.81 18.448 118.504 18.048C119.197 17.648 119.951 17.448 120.764 17.448C121.585 17.448 122.347 17.648 123.048 18.048C123.758 18.44 124.312 18.988 124.711 19.692C125.117 20.388 125.321 21.148 125.321 21.972C125.321 22.788 125.121 23.548 124.723 24.252C124.324 24.948 123.774 25.496 123.072 25.896C122.379 26.296 121.621 26.496 120.8 26.496C119.987 26.496 119.229 26.3 118.528 25.908C117.826 25.508 117.272 24.96 116.865 24.264C116.467 23.568 116.268 22.816 116.268 22.008ZM124.424 21.972C124.424 20.94 124.065 20.068 123.347 19.356C122.638 18.644 121.781 18.288 120.776 18.288C119.748 18.288 118.887 18.648 118.193 19.368C117.507 20.08 117.164 20.952 117.164 21.984C117.164 23.008 117.519 23.876 118.229 24.588C118.938 25.3 119.795 25.656 120.8 25.656C121.805 25.656 122.658 25.308 123.359 24.612C124.069 23.916 124.424 23.036 124.424 21.972Z" fill="#24110B"/>
<path d="M127.63 17.664H129.34C130.353 17.664 131.015 17.704 131.326 17.784C131.637 17.864 131.92 18.004 132.175 18.204C132.438 18.404 132.641 18.656 132.785 18.96C132.928 19.256 133 19.588 133 19.956C133 20.548 132.841 21.032 132.522 21.408C132.203 21.784 131.8 22.024 131.314 22.128C130.835 22.224 130.098 22.272 129.101 22.272H128.491V26.28H127.63V17.664ZM128.491 18.504V21.444H129.938C130.807 21.46 131.386 21.32 131.673 21.024C131.96 20.72 132.103 20.364 132.103 19.956C132.103 18.988 131.405 18.504 130.01 18.504H128.491Z" fill="#24110B"/>
<path d="M16.3566 10.3395C7.77474 10.3395 0.793515 17.2647 0.793515 25.7776C0.793515 34.2898 7.77474 41.2151 16.3566 41.2151C24.9369 41.2151 31.9174 34.2898 31.9174 25.7776C31.9174 17.2647 24.9369 10.3395 16.3566 10.3395ZM16.3566 42C7.33718 42 0 34.7225 0 25.7776C0 16.8321 7.33718 9.5549 16.3566 9.5549C25.3759 9.5549 32.7113 16.8321 32.7113 25.7776C32.7113 34.7225 25.3759 42 16.3566 42Z" fill="#24110B"/>
<path d="M31.3833 32.1873C31.193 32.1873 31.0284 32.0544 30.9918 31.8651C30.9516 31.6522 31.0943 31.4469 31.3101 31.4081C38.6967 30.0689 44.0565 23.6824 44.0565 16.2231C44.0565 7.71128 37.0723 0.785673 28.493 0.785673C19.9108 0.785673 12.9292 7.71128 12.9292 16.2231C12.9292 19.8984 14.2533 23.459 16.6577 26.2487C16.7996 26.4142 16.7799 26.6615 16.613 26.8023C16.4462 26.9431 16.196 26.9232 16.0536 26.7585C13.5274 23.8265 12.1361 20.0849 12.1361 16.2231C12.1361 7.27752 19.4733 0 28.493 0C37.5113 0 44.8467 7.27752 44.8467 16.2231C44.8467 24.0615 39.2162 30.7724 31.4528 32.1804L31.3833 32.1873Z" fill="#24110B"/>
</svg>
