<svg width="20" height="17" viewBox="0 0 20 17" fill="none" xmlns="http://www.w3.org/2000/svg">
<path d="M19 1.00841C18.2165 1.57307 17.349 2.00495 16.4309 2.28741C15.9382 1.70852 15.2833 1.29822 14.5548 1.112C13.8264 0.925781 13.0596 0.972624 12.3581 1.24619C11.6565 1.51977 11.0542 2.00686 10.6324 2.64161C10.2107 3.27636 9.98993 4.02813 10 4.79525V5.6312C8.56215 5.6693 7.13741 5.34348 5.85264 4.68277C4.56788 4.02207 3.46299 3.04698 2.63636 1.84435C2.63636 1.84435 -0.636364 9.36789 6.72727 12.7117C5.04225 13.8803 3.03495 14.4663 1 14.3836C8.36364 18.5633 17.3636 14.3836 17.3636 4.77018C17.3629 4.53733 17.341 4.30505 17.2982 4.07634C18.1332 3.23495 18.7225 2.17264 19 1.00841V1.00841Z" stroke="#24110B" stroke-linecap="round" stroke-linejoin="round"/>
</svg>
