<svg fill="none" xmlns="http://www.w3.org/2000/svg" viewBox="0 0 180 26"><path fill-rule="evenodd" clip-rule="evenodd" d="M3 0H0v26h3V0zm60 0h-3v26h3V0zm57 0h3v26h-3V0zM8 0H7v26h1V0zm59 0h1v26h-1V0zm61 0h-1v26h1V0zM10 0h2v26h-2V0zm62 0h-2v26h2V0zm58 0h2v26h-2V0zM19 0h-5v26h5V0zm55 0h5v26h-5V0zm65 0h-5v26h5V0zM20 0h1v26h-1V0zm61 0h-1v26h1V0zm59 0h1v26h-1V0zM25 0h-1v26h1V0zm59 0h1v26h-1V0zm61 0h-1v26h1V0zM28 0h2v26h-2V0zm62 0h-2v26h2V0zm58 0h2v26h-2V0zM34 0h-3v26h3V0zm57 0h3v26h-3V0zm63 0h-3v26h3V0zM36 0h1v26h-1V0zm61 0h-1v26h1V0zm59 0h1v26h-1V0zM45 0h-4v26h4V0zm56 0h4v26h-4V0zm64 0h-4v26h4V0zM47 0h3v26h-3V0zm63 0h-3v26h3V0zm57 0h3v26h-3V0zM52 0h-1v26h1V0zm59 0h1v26h-1V0zm61 0h-1v26h1V0zm2 0h1v26h-1V0zM58 0h-3v26h3V0zm57 0h3v26h-3V0zm65 0h-4v26h4V0z" fill="#000"/></svg>