<svg fill="none" xmlns="http://www.w3.org/2000/svg" viewBox="0 0 80 80"><mask id="a" fill="#fff"><path fill-rule="evenodd" clip-rule="evenodd" d="M16 0a8 8 0 00-8 8v6h6a6 6 0 016 6v38h40V20a6 6 0 016-6h6V8a8 8 0 00-8-8H16zm-4 18a4 4 0 014 4v36H4c-1.54 0-2.94.58-4 1.53V22a4 4 0 014-4h8zm68 41.53V22a4 4 0 00-4-4h-8a4 4 0 00-4 4v36h12c1.54 0 2.94.58 4 1.53zM4 62a4 4 0 00-4 4v10a4 4 0 004 4h72a4 4 0 004-4V66a4 4 0 00-4-4H4z"/></mask><path d="M8 14H6v2h2v-2zm12 44h-2v2h2v-2zm40 0v2h2v-2h-2zm12-44v2h2v-2h-2zM16 58v2h2v-2h-2zM0 59.53h-2V64l3.33-2.98L0 59.52zm80 0l-1.33 1.49L82 64v-4.47h-2zM64 58h-2v2h2v-2zM10 8a6 6 0 016-6v-4A10 10 0 006 8h4zm0 6V8H6v6h4zm4-2H8v4h6v-4zm8 8a8 8 0 00-8-8v4a4 4 0 014 4h4zm0 38V20h-4v38h4zm38-2H20v4h40v-4zm-2-36v38h4V20h-4zm8-8a8 8 0 00-8 8h4a4 4 0 014-4v-4zm6 0h-6v4h6v-4zm-2-4v6h4V8h-4zm-6-6a6 6 0 016 6h4A10 10 0 0064-2v4zM16 2h48v-4H16v4zm2 20a6 6 0 00-6-6v4a2 2 0 012 2h4zm0 36V22h-4v36h4zM4 60h12v-4H4v4zm-2.67 1.02A3.98 3.98 0 014 60v-4c-2.05 0-3.92.77-5.33 2.04l2.66 2.98zM-2 22v37.53h4V22h-4zm6-6a6 6 0 00-6 6h4c0-1.1.9-2 2-2v-4zm8 0H4v4h8v-4zm66 6v37.53h4V22h-4zm-2-2a2 2 0 012 2h4a6 6 0 00-6-6v4zm-8 0h8v-4h-8v4zm-2 2c0-1.1.9-2 2-2v-4a6 6 0 00-6 6h4zm0 36V22h-4v36h4zm10-2H64v4h12v-4zm5.33 2.04A7.98 7.98 0 0076 56v4c1.03 0 1.96.38 2.67 1.02l2.66-2.98zM2 66c0-1.1.9-2 2-2v-4a6 6 0 00-6 6h4zm0 10V66h-4v10h4zm2 2a2 2 0 01-2-2h-4a6 6 0 006 6v-4zm72 0H4v4h72v-4zm2-2a2 2 0 01-2 2v4a6 6 0 006-6h-4zm0-10v10h4V66h-4zm-2-2a2 2 0 012 2h4a6 6 0 00-6-6v4zM4 64h72v-4H4v4z" fill="#ECF2FF" mask="url(#a)"/></svg>