<svg fill="none" xmlns="http://www.w3.org/2000/svg" viewBox="0 0 19 22"><path fill-rule="evenodd" clip-rule="evenodd" d="M12.5 0c9.28 0 4.92 9.18.67 13.7a.91.91 0 01-1.34 0C7.58 9.19 3.23 0 12.5 0zm0 3.08c3.5 0 1.5 4.11 0 4.11s-3.5-4.1 0-4.1zM4.78 14.35a.5.5 0 10-.1-1 5.1 5.1 0 00-1.76.56.5.5 0 00.5.87 3 3 0 01.7-.3c.23-.07.46-.11.66-.13zm10.35-.47a.5.5 0 10-.53.84c.43.27.83.57 1.19.9a.5.5 0 10.68-.73c-.41-.39-.87-.72-1.34-1.01zm-7.95.02a.5.5 0 10-.53.85c.37.23.7.54 1 .9a.5.5 0 00.77-.62 4.98 4.98 0 00-1.24-1.13zM1.9 16.54a.5.5 0 10-.9-.43 9.05 9.05 0 00-.61 1.76.5.5 0 10.97.24c.13-.54.3-1.08.54-1.57zm15.97.55a.5.5 0 10-.97.26c.06.2.09.42.09.65 0 .3-.07.57-.17.8a.5.5 0 00.9.42c.18-.36.27-.77.27-1.22 0-.32-.05-.62-.12-.9zm-8.24 0a.5.5 0 00-.91.42l.29.66v.03c.17.37.38.7.62 1a.5.5 0 10.78-.63 3.19 3.19 0 01-.47-.77l-.02-.03c-.08-.2-.18-.43-.3-.67zm3.15 2.88a.5.5 0 00-.24.97c.75.18 1.52.23 2.25.14a.5.5 0 10-.13-1c-.6.08-1.25.05-1.88-.1zm-11.77.67a.5.5 0 00-1-.05c-.02.42-.02.74-.02.9a.5.5 0 101 0c0-.16 0-.46.02-.85z" fill="#fff"/></svg>