<svg fill="none" xmlns="http://www.w3.org/2000/svg" viewBox="0 0 98 40"><path d="M53.78 7.95h2.08v3.97c-.54.4-1.15.71-1.85.93-.7.21-1.4.32-2.12.32a5.78 5.78 0 01-2.74-.65 4.96 4.96 0 01-1.92-1.8 5.05 5.05 0 01-.68-2.62 4.8 4.8 0 012.62-4.41 5.79 5.79 0 012.77-.66c.85 0 1.63.15 2.33.44.7.29 1.3.7 1.77 1.26l-1.46 1.34a3.37 3.37 0 00-2.53-1.1c-.63 0-1.18.12-1.67.39-.48.26-.86.63-1.13 1.1-.27.48-.4 1.02-.4 1.64 0 .6.13 1.15.4 1.62.27.48.64.85 1.12 1.12.48.27 1.03.4 1.65.4.65 0 1.24-.14 1.76-.42V7.95zM64.21 13l-1.9-2.73h-2.08V13h-2.27V3.2h4.24c.87 0 1.62.14 2.26.43.64.3 1.14.7 1.48 1.24.35.53.52 1.16.52 1.89 0 .72-.18 1.35-.53 1.89a3.3 3.3 0 01-1.49 1.2l2.2 3.15h-2.43zm-.05-6.24c0-.55-.17-.97-.53-1.26-.35-.3-.87-.45-1.55-.45h-1.85v3.41h1.85c.68 0 1.2-.15 1.55-.44.36-.3.53-.72.53-1.26zm11.69 4.42V13h-7.6V3.2h7.41v1.82h-5.15v2.13h4.55V8.9h-4.55v2.27h5.34zm9.39 0V13h-7.59V3.2h7.4v1.82H79.9v2.13h4.55V8.9H79.9v2.27h5.34zm10.8-7.98V13h-1.87l-4.89-5.95V13h-2.24V3.2h1.88l4.87 5.95V3.2h2.24zM49.67 27.07c-.62 0-1.22-.1-1.8-.3-.56-.2-1-.46-1.32-.79l.35-.68c.3.3.71.55 1.21.74.5.18 1.03.28 1.56.28.76 0 1.32-.14 1.7-.41.37-.28.56-.64.56-1.08 0-.34-.1-.6-.31-.8-.2-.2-.45-.36-.75-.46-.3-.11-.7-.23-1.23-.36a14 14 0 01-1.51-.46 2.6 2.6 0 01-.98-.68c-.26-.3-.4-.72-.4-1.24 0-.42.12-.8.34-1.15.23-.35.57-.63 1.04-.84a4.89 4.89 0 014.33.43l-.3.71a4 4 0 00-1.13-.52c-.4-.12-.8-.18-1.18-.18-.73 0-1.29.15-1.66.44-.37.28-.56.64-.56 1.09 0 .33.1.6.3.81.21.2.47.36.77.47.31.1.73.22 1.25.35.62.15 1.11.3 1.49.46.38.14.7.36.97.67.26.3.4.7.4 1.21 0 .42-.12.81-.35 1.16-.23.35-.57.62-1.05.83-.47.2-1.05.3-1.74.3zm8.84 0c-.83 0-1.59-.18-2.26-.55a4.11 4.11 0 01-2.13-3.72 4.06 4.06 0 012.15-3.72 4.62 4.62 0 012.25-.55c.62 0 1.2.1 1.73.31.53.2.97.51 1.34.91l-.56.57c-.66-.67-1.49-1-2.49-1-.66 0-1.26.15-1.8.46A3.38 3.38 0 0055 22.8a3.38 3.38 0 001.74 3.02c.55.3 1.15.46 1.81.46 1.01 0 1.84-.34 2.49-1l.56.56c-.37.4-.82.7-1.35.92-.53.2-1.1.31-1.73.31zM69.35 27l-1.92-2.7c-.21.02-.44.04-.67.04H64.5V27h-.88v-8.4h3.14a3.8 3.8 0 012.52.77c.6.51.91 1.21.91 2.11 0 .66-.17 1.21-.5 1.67-.33.45-.8.77-1.42.97L70.32 27h-.97zm-2.61-3.42c.83 0 1.46-.18 1.9-.55.44-.37.66-.89.66-1.55 0-.68-.22-1.2-.66-1.56-.44-.37-1.07-.55-1.9-.55H64.5v4.21h2.24zm11.6 2.65V27h-5.93v-8.4h5.76v.77H73.3v2.99h4.34v.75H73.3v3.12h5.05zm8.16 0V27h-5.94v-8.4h5.75v.77h-4.87v2.99h4.35v.75h-4.35v3.12h5.06zm9.22-7.63V27H95l-5.4-6.82V27h-.89v-8.4h.73l5.42 6.82V18.6h.87z" fill="#666"/><path fill-rule="evenodd" clip-rule="evenodd" d="M20 36a16 16 0 110-32 16 16 0 010 32zm12 0a20 20 0 10-12 4h78v-4H32zM21.36 7.07a13 13 0 00-7.86 1.67l3.25 5.63a6.5 6.5 0 013.93-.83l.68-6.47zM7 20a13 13 0 012.48-7.64l5.26 3.82A6.5 6.5 0 0013.5 20H7zm26 0a13 13 0 01-2.48 7.64l-5.26-3.82A6.5 6.5 0 0026.5 20H33zm-6.5 11.26a13 13 0 01-7.86 1.67l.68-6.47a6.5 6.5 0 003.93-.83l3.25 5.63zM8.12 25.29a13 13 0 005.38 5.97l3.25-5.63a6.5 6.5 0 01-2.69-2.99L8.12 25.3zM26.5 8.74a13 13 0 015.38 5.97l-5.94 2.65a6.5 6.5 0 00-2.69-2.99l3.25-5.63zM17 20a3 3 0 116 0 3 3 0 01-6 0z" fill="#43D000"/></svg>