<svg fill="none" xmlns="http://www.w3.org/2000/svg" viewBox="0 0 18 22"><path fill-rule="evenodd" clip-rule="evenodd" d="M1 0a1 1 0 00-1 1v20a1 1 0 001 1h16a1 1 0 001-1V1a1 1 0 00-1-1H1zm2 4h5v5H3V4zM2 4a1 1 0 011-1h5a1 1 0 011 1v5a1 1 0 01-1 1H3a1 1 0 01-1-1V4zm10.91-1h2.59a.5.5 0 010 1h-4a.5.5 0 010-1h1.41zm1.18 3H11.5a.5.5 0 000 1h4a.5.5 0 000-1h-1.41zM12.9 9h2.59a.5.5 0 010 1h-4a.5.5 0 010-1h1.41zm1.18 4h1.41a.5.5 0 000-1h-13a.5.5 0 000 1h11.59zm1.41 3h-13a.5.5 0 010-1h13a.5.5 0 010 1zM3.91 19H9.5a.5.5 0 000-1h-7a.5.5 0 000 1h1.41z" fill="#fff"/></svg>