<svg fill="none" xmlns="http://www.w3.org/2000/svg" viewBox="0 0 40 40"><path d="M0 0h40.21v40.21H0V0z" fill="#fff"/><path d="M14.28 28.43l10.15.86s3.71 4.28 3.57 5.21c-.14.93.86 5.36-1 6.29-1.86.92-7.72-1-8.64-1.22-.93-.21-3.93 1.22-5.93-1.36-2-2.71-.5-1.07-.5-2.42-.15-1.36 2.35-7.36 2.35-7.36z" fill="#555659"/><path d="M26.64 28.36c-.28.07-.43.14-.43.21 0 .22.29.07 1.22.5-1.25.36-2.56.49-3.86.36.16-.32.28-.65.36-1 .09-.18.14-.37.14-.57 1-.15.57-.29 1.64-.43 0-.07.43-.07.43-.14-.14-.08.65-.22.5-.22l-.43-.28a10.5 10.5 0 005-5.79c-2.28-.36-3.21-1.14-3.57-2.79a4.84 4.84 0 00-4.43 1.29c-.07-.36-.07-.64-.14-1-1.07 1.71-1.36 2-2.07 2.14-.6-1.21-1-2.52-1.21-3.85-.36 1.64-.36 2.64-1.08 4.07-.64-.15-1.21-.72-2.28-2.36a5.6 5.6 0 00-.14 1 4.34 4.34 0 00-4.22-1c-.36 1.64-.36 2.29-2.64 2.71.93 2.58 2.21 4.36 4.57 5.65-.2.12-.42.22-.64.28-.15.07-.22.22-.36.29 0 .07-.57-.29-.57-.22.93.15 2 .5 2.93.72.09.18.14.37.14.57.08.35.2.68.36 1-1.3.13-2.6 0-3.86-.36 1.21-.14 1.21-.28 1.21-.5 0-.07 0-.28-.35-.35-4.07-.43-5.86-3.72-6.72-5.15.86.36 1.29.65 1.43.43.14-.21.14-.28-.14-.5-.86-.86-1.29-3.64-1.43-4.86.57.22 1.57.72 2.5.43 1.14-.35 2.07-1.35 2.71-3 .08 0 .15.07.22.07l.21-.42a.6.6 0 000-.5c-.47-1.21-.74-2.5-.78-3.79.06-.5.16-1 .28-1.5.79.38 1.47.95 2 1.64.3.35.6.69.93 1 .5.5 1.43.72 1.57 0 .07-.21-.14-.43-.28-.64a.07.07 0 01-.07-.07c.78-.29 2.64-.93 4.21-.57h.21c.08 0 .15.07.22 0a9.24 9.24 0 014.57.21l.36.57c-.15.22-.5.43-.43.57.21.29.28.43.78-.14.3-.37.6-.73.93-1.07a7.9 7.9 0 012.72-2c.07.43.21 1.79.21 2.14a8.94 8.94 0 01-.78 3.57c-.08.15-.36.36-.29.58.07.21 0 0 .07.14.07 0 .29.14.36.14l-.07.14c.64 1.65 1.5 2.36 2.64 2.72.94.2 1.92.07 2.79-.36-.15 1.14-1.08 4.14-2 5.07-.22.22-.22.43-.15.5s.79-.28 1.72-.64c-.65 2-3.36 4.86-6.72 5.36z" fill="#C3C2CE"/><path d="M33.36 20.36c-.2.4-.52.73-.93.93V20c-1.29.14-3.5.29-3.79-2.71h-.07a4.12 4.12 0 00-1.86-.65c-.21 0-.42-.07-.57-.07l.5-.86s-2.93-.14-4.5 1.58c-.21.21 0-1.08 0-1.08-.75.23-1.45.59-2.07 1.08l-.28 1.07-.29-1.07a6.16 6.16 0 00-2.07-1.08s.21 1.22 0 1.08c-1.64-1.72-4.5-1.58-4.5-1.58l.5.86a6.43 6.43 0 00-2.43.71h-.07c-.29 3-2.5 2.86-3.79 2.72v1.29a1.58 1.58 0 01-.93-.93l-.07.35.07.43c1.93 4.22 3.93 4.86 7 5.57l.93.08 1.22.64.14.86c.29 1.07.71 1.35 1.64 2.07l.36.28 1.07-.57 1.14-.14 1.15.14.85.43.43.14a4.29 4.29 0 001.79-2.35l.14-.86 1.22-.64.92-.08c3.08-.78 5.36-1.85 7.22-6.14l-.07-.21z" fill="#fff"/><path d="M19.14 26.07a1.9 1.9 0 011.65.07.71.71 0 01.21 1.22l-.07.07c-.86 1.14-1.43.86-2.21-.22a.62.62 0 01.21-.92c0-.15.07-.15.21-.22z" fill="#1E1E40"/><path d="M33.57 22.43c-.21.07-.43.21-.64.28a15.09 15.09 0 001.21-4.85l.08-.65-.5.36c-.78.46-1.7.62-2.58.43-.93-.29-1.78-1.14-2.35-2.64v-.07a.26.26 0 01.07-.22c.34-.74.62-1.5.86-2.28.45-1.33.4-2.78-.15-4.08-.43-.92-.43-.92-1.43-.71a7.56 7.56 0 00-3.64 2.29.61.61 0 01-.43.21 7.86 7.86 0 00-4.21-.43h-.14a7.86 7.86 0 00-4.22.43.62.62 0 01-.43-.21A8.13 8.13 0 0011.43 8c-1-.29-1-.21-1.43.71a5.56 5.56 0 00-.29 4.15c.22.78.58 1.43.86 2.28a.26.26 0 00.07.22v.07c-.57 1.43-1.28 2.36-2.35 2.64a3.4 3.4 0 01-2.58-.43l-.5-.35.22.57c.13 1.67.54 3.31 1.21 4.85-.21-.07-.43-.21-.64-.28l-.79-.36.36.79c.07.21 2.07 4.35 5.93 5.64-.36.07-.71.07-1.07.14l-1 .15.93.5c1.52.5 3.1.78 4.71.85.39 0 .77-.05 1.14-.14.16.22.35.42.58.57.16.1.32.2.5.29h.21l.64-.36.36.14a2.86 2.86 0 002.43 0l.36-.14.64.36h.21c.2-.06.36-.16.5-.29.21-.17.4-.36.57-.57.38.09.76.13 1.15.14 1.6-.07 3.19-.36 4.71-.85l1.29-.43L29 28.7c-.36-.07-.71-.07-1.07-.14 3.86-1.28 5.86-5.5 5.93-5.64l.36-.79-.65.29zm-11.5 7.78c-1.07-.64-1.71-1-2.28-1-.57 0-1.15.29-2.29 1-1.64-.92-1.79-3.92-1-5.35.13.27.22.56.29.85.2-.58.44-1.15.71-1.71.5-.93.64-1.14.64-1.14.57-.86 2.65-.86 3.15 0 .26.35.48.73.64 1.14.3.55.53 1.12.71 1.71.07-.28.22-.57.29-.85.86 1.5.71 4.5-.86 5.35zm-6.64-6.92c-.93-.22-1.36-.93-1.86-1.36 1.14.14 2.93.57 3.29.93a1.33 1.33 0 01-1.43.43zm7.29-.43c.35-.36 2.14-.79 3.28-.93a3.93 3.93 0 01-1.86 1.36 1.37 1.37 0 01-1.43-.43zm3.92 5.5c-.28.07-.93.14-.85.14.07.14.43.14 1.71.57-1.25.36-2.56.49-3.86.36.17-.32.29-.65.36-1 .09-.18.14-.37.14-.57 1-.15 2-.36 3-.5a1.56 1.56 0 01-.35-.29c-.15-.09-.3-.18-.43-.28a10.5 10.5 0 005-5.79c-2.29-.36-3.22-1.14-3.57-2.79a4.83 4.83 0 00-4.43 1.29c-.07-.36-.07-.64-.14-1-1.08 1.71-1.36 2-2.08 2.14-.63-1.5-1.04-3.09-1.21-4.71-.36 1.64-.5 3.21-1.21 4.71-.65-.14-.93-.43-2.08-2.14a5.6 5.6 0 00-.14 1 4.7 4.7 0 00-4.43-1.29c-.36 1.65-1.28 2.43-3.57 2.79.9 2.48 2.68 4.54 5 5.79a1.5 1.5 0 01-.43.28c-.14.07-.21.07-.36.14.93.15 1.8.65 2.72.86.07.14.36.22.36.43.07.35.2.68.35 1-1.3.13-2.6 0-3.85-.36 1.21-.14 1.21-.28 1.21-.5 0-.07 0-.28-.36-.35-3.35-.43-5.5-3.36-6.35-4.86.85.36 1.28.64 1.42.5.15-.14-.28-.43-.5-.72-.7-1-1.2-3.57-1.35-4.78.79.33 1.66.4 2.5.21 1.14-.35 2.07-1.35 2.71-3 .07 0 .14.07.22.07l.21-.42a.6.6 0 000-.5c-.47-1.21-.74-2.5-.79-3.79.02-.38.07-.77.15-1.14.8.35 1.51.89 2.07 1.57.29.37.6.73.93 1.07a.99.99 0 001.64-.36c.07-.21-.14-.43-.29-.64a.07.07 0 01-.07-.07c.79-.29 2.65-.93 4.22-.57h.36a7.36 7.36 0 014.2.57h-.35c-.14.21-.36.5-.28.64a.98.98 0 001.64.36c.29-.38.6-.73.93-1.07a5.3 5.3 0 012.07-1.57c.08.37.13.75.14 1.14a10 10 0 01-.78 3.78.6.6 0 000 .5l.21.43c.07 0 .14-.07.21-.07.65 1.64 1.58 2.64 2.72 3 .83.24 1.72.17 2.5-.21-.21 1.6-.67 3.17-1.36 4.64-.21.36-.57.71-.5.79.07.07.5-.08 1.29-.43-.79 1.43-2.86 4.5-6.22 5z" fill="#1E1E40"/><path d="M19.86 26.79c.35 0 .64-.1.64-.22s-.29-.21-.64-.21c-.36 0-.65.1-.65.21 0 .12.3.22.65.22z" fill="#fff"/><path d="M14.86 27.64l2 2.43c.7.9 1.26 1.92 1.64 3 .64 2.07 1.07 1.43 1.43 4.43l-.07 3.5-4.43-.29s-.57-.28-3.72-7.28c-.21-.5-1-5.29-1-5.29l3.15-.43h1v-.07z" fill="#4A4797"/><path d="M14.93 27.36c-.07.28-.07.5-.14.78l1.78 2.22.43.64c.5.7.9 1.47 1.14 2.29.22.71.57 1.42.86 2.28.14.36.64 1.22.79 1.72.14-.22.14-.86.28-1.08-.07-.21-.43-.57-.5-.78-.32-.72-.6-1.46-.86-2.22a9.06 9.06 0 00-1.21-2.5 5 5 0 01-.43-.64l-2.14-2.57v-.14z" fill="#1E1E40"/><path d="M39.07 36.86c.07-2.5-.71-2.86-2.57-4.43-1.71-1.43-5.36-2.22-5.36-2.22 0-.42.29-2.57.36-2.92.5-1.79.29-1.93.29-1.93-1.71.04-3.41.26-5.08.64-1.53.25-3.08.42-4.64.5l.43 2.21h-1.79l.08 4.43-1 5.43s-.29 3.93-1.22 2.36c-.86-1.43-.86-1.22-1.5-2.36-1.64-2.57-1-1.36-3.57-5.36-.43-.64 1.86-1.57 1.71-2.28l-.42-1.43.21-1.79-5.86-1 .15.65c.08.41.2.82.35 1.21.22.57.5 1.14.79 1.79l.21.43s-5.43-.08-7.43 3a8.07 8.07 0 00-1.79 6.36l.72.7 21.57.36 15.15-.71c0 .07.14-1.86.21-3.64z" fill="#2E2C55"/><path d="M19.5 41.86L1 40.93c-.02-1.55.05-3.1.21-4.64.35-.96.88-1.83 1.57-2.58 2.43-2.71 6-3.21 7.29-3.28-.3-.58-.57-1.17-.79-1.79-.14-.43-.21-.78-.35-1.21l-.22-1.14 6.57 1.14L15 29.5l.36 1.43c.14.57-.43 1-.93 1.43-.22.21-.72.57-.72.71.29.57 1.57 2.36 2.65 3.93l.92 1.36c.47.69.9 1.4 1.29 2.14.36.64.79-.21.79-.21l-.08-1.79 1-5.43.08-4.71h1.78l-.43-2.22h.43c1.5-.08 3.01-.25 4.5-.5a23.2 23.2 0 015.07-.64h.07l.08.07c.21.14.35.5-.15 2.29a56.8 56.8 0 00-.35 2.57c.85.21 3.71.86 5.21 2.21 1.93 1.72 2.86 2.5 2.64 5.07-.28 4.65-.07 3.86-.07 3.86l-19.64.79zm1.64-12.79l-.07 4.07-.86 7.36 8.65-.07 8.57-.07 1.28-.15v-3.14c.07-2.5-.71-2.86-2.5-4.36-1.64-1.35-5.14-2.14-5.14-2.14l-.21-.07v-.29c0-.5.28-2.64.35-3.07.14-.46.23-.94.29-1.43a25 25 0 00-4.72.65c-1.42.24-2.85.4-4.28.5l.43 2.21h-1.79zM1.78 40.64l11 .29c-.07-.14 6.79 1.28 4-2.22l-.92-1.35C14.7 35.64 13.5 34 13.2 33.43c-.28-.57.29-1.07.86-1.57.29-.22.79-.65.71-.79l-.42-1.57.14-1.57-5.07-.86.07.22c.07.35.21.78.28 1.14.2.6.47 1.17.79 1.71l.5.93h-.57c-.5 0-4.14.14-6.57 2.43-.89.8-1.58 1.8-2 2.93-.12.37-.17.75-.15 1.14a18.2 18.2 0 000 3.07z" fill="#1E1E40"/><path d="M12.43 32a.26.26 0 01-.22-.07 2.64 2.64 0 00-2-.93.39.39 0 01-.35-.36.34.34 0 01.35-.35c.92.03 1.79.41 2.43 1.07.14.14.14.35 0 .43-.14.07-.14.21-.21.21zm-4.65 9.07c-.21 0-.35-.14-.28-.36 0 0 .14-2.64.07-3.5 0-.14.07-.35.29-.35.21 0 .35.07.35.28a26.9 26.9 0 01-.07 3.65.47.47 0 01-.36.28zm25.08 0a.77.77 0 01-.5-.21c-.5-.43-.65-1.65-.43-3.36 0-.14.21-.29.35-.29.15 0 .3.22.3.36-.22 2.07.06 2.64.2 2.79.15.14.08.07.15.07.07 0 .35.07.35.21 0 .15-.07.36-.28.36-.07.07-.07.07-.14.07zm-8.79-7.5a.26.26 0 01-.21-.07c-.15-.14-.15-.36 0-.43 3.64-3.28 7.21-3.14 7.35-3.14a.32.32 0 01-.07.64c-2.59.1-5.05 1.14-6.93 2.93 0 .07-.07.07-.14.07z" fill="#1E1E40"/><path d="M23.64 31.86c-.14 0-.28-.07-.28-.22a.32.32 0 01.21-.43c2.37-.92 4.9-1.36 7.43-1.28a.32.32 0 11-.07.64 20.14 20.14 0 00-7.29 1.29z" fill="#1E1E40"/></svg>