<svg fill="none" xmlns="http://www.w3.org/2000/svg" viewBox="0 0 18 22"><path fill-rule="evenodd" clip-rule="evenodd" d="M11.52.63c.23-.35.6-.63 1.02-.63H17a1 1 0 011 1v20a1 1 0 01-1 1h-4.46c-.43 0-.79-.28-1.02-.63a3 3 0 00-5.04 0c-.23.35-.6.63-1.01.63H1a1 1 0 01-1-1v-5h1.5a.5.5 0 000-1H0V1a1 1 0 011-1h4.47c.42 0 .78.28 1.01.63a3 3 0 005.04 0zM4 5.5v6a.5.5 0 01-1 0v-6a.5.5 0 011 0zM11 9V8a2 2 0 10-4 0v1a2 2 0 104 0zM9 5a3 3 0 00-3 3v1a3 3 0 106 0V8a3 3 0 00-3-3zm6 6.5v-6a.5.5 0 00-1 0v6a.5.5 0 001 0zm-7 4c0-.28.22-.5.5-.5h1a.5.5 0 010 1h-1a.5.5 0 01-.5-.5zM4.5 15a.5.5 0 000 1h1a.5.5 0 000-1h-1zm8 0a.5.5 0 000 1h1a.5.5 0 000-1h-1zm3.5.5c0-.28.22-.5.5-.5H18v1h-1.5a.5.5 0 01-.5-.5z" fill="#5957DB"/></svg>