<svg width="15" height="15" fill="none" xmlns="http://www.w3.org/2000/svg"><path d="M8.01 1.743l1.654 3.328a.57.57 0 00.429.312l3.704.535a.57.57 0 01.377.219.55.55 0 01-.061.737L11.429 9.47a.544.544 0 00-.162.5l.643 3.663a.562.562 0 01-.466.638.62.62 0 01-.368-.058l-3.299-1.729a.554.554 0 00-.53 0l-3.323 1.739a.58.58 0 01-.769-.236.568.568 0 01-.058-.357l.643-3.663a.563.563 0 00-.161-.5L.88 6.872a.561.561 0 01-.002-.794l.002-.003a.65.65 0 01.323-.159l3.704-.535a.58.58 0 00.429-.313l1.653-3.325a.562.562 0 01.763-.254c.11.055.201.144.258.254z" fill="#F8D456"/></svg>