<svg width="58" height="40" fill="none" xmlns="http://www.w3.org/2000/svg"><path d="M42.52 23.72c2.4.77 4.8 1.57 7.2 2.38L58 28.89l-1.1.44a853.11 853.11 0 01-13.7 5.35l-6.88 2.6-6.9 2.57L29 40l-7.31-2.72c-2.3-.85-4.6-1.74-6.88-2.6a812.53 812.53 0 01-13.7-5.35L0 28.88l7.7-2.57c2.2-.73 4.4-1.46 6.62-2.16a390.2 390.2 0 01-6.37 2.61l-6.4 2.57v-.82a907.09 907.09 0 0113.98 4.81c4.65 1.63 9.26 3.33 13.88 5h-.82l6.93-2.52c2.3-.84 4.64-1.65 6.95-2.47a895.12 895.12 0 0113.98-4.82v.82l-6.98-2.78a482.16 482.16 0 01-6.95-2.83z" fill="#DDAE67"/><path d="M33.1 2.49v33.64l-4.1 2V0l4.1 2.49zm12.66 7.68v19.8l-4.1 2V7.67l4.1 2.5zm-6.34-3.85v26.74l-4.1 1.98V3.84l4.1 2.48zM24.83 2.53V36.4l-2.24-1.14V3.88l2.24-1.36zm-5.17 3.14v28.09l-2.23-1.14V7.02l2.23-1.35zM14.5 8.81v22.3l-2.24-1.13V10.17L14.5 8.8z" fill="#DDAE67"/></svg>