<svg width="11" height="14" fill="none" xmlns="http://www.w3.org/2000/svg"><path d="M3.341 4.68l-.001.001-.001.002.002-.003zm6.083-.118a.76.76 0 00-.14-.11.597.597 0 00-.855.26c-.21.43-.501.811-.855 1.125a5.667 5.667 0 00-.638-3.73A5.422 5.422 0 004.966.08a.595.595 0 00-.815.21.648.648 0 00-.096.3 4.566 4.566 0 01-.445 1.725A4.422 4.422 0 012.545 3.72l-.14.119A5.28 5.28 0 001.19 5.018 5.777 5.777 0 00.117 7.384 5.883 5.883 0 00.18 9.998a5.754 5.754 0 001.186 2.308 5.497 5.497 0 002.058 1.514.592.592 0 00.571-.06.625.625 0 00.199-.228.651.651 0 00.041-.496 4.568 4.568 0 01-.116-1.633 5.585 5.585 0 002.635 2.542.59.59 0 00.438.024 5.478 5.478 0 002.334-1.538 5.758 5.758 0 001.315-2.52 5.89 5.89 0 00-.037-2.865 5.745 5.745 0 00-1.38-2.484zm-2.386 8.12a4.288 4.288 0 01-1.379-1.151 4.468 4.468 0 01-.807-1.634 5.818 5.818 0 01-.11-.61.642.642 0 00-.16-.349.606.606 0 00-.445-.198.595.595 0 00-.306.085.622.622 0 00-.223.232 5.829 5.829 0 00-.737 2.986 4.38 4.38 0 01-1.097-1.316 4.573 4.573 0 01-.39-3.384 4.48 4.48 0 01.769-1.545c.267-.36.59-.672.954-.923a.46.46 0 00.046-.035s.18-.155.187-.159A5.707 5.707 0 005.111 1.75a4.31 4.31 0 011.263 2.41 4.397 4.397 0 01-.415 2.71.652.652 0 00.072.698.61.61 0 00.296.201c.116.036.24.035.355-.002a4.804 4.804 0 002.36-1.701c.361.552.597 1.181.69 1.84.094.66.042 1.333-.15 1.97a4.469 4.469 0 01-.962 1.705c-.44.486-.981.863-1.582 1.103z" fill="#fff"/></svg>