<svg width="28" height="28" fill="none" xmlns="http://www.w3.org/2000/svg"><path d="M4.12 4.12A3.12 3.12 0 001 7.24v16.64A3.12 3.12 0 004.12 27h16.64a3.12 3.12 0 003.12-3.12M4.12 4.12v16.64m0-16.64A3.12 3.12 0 017.24 1h16.64A3.12 3.12 0 0127 4.12v16.64a3.12 3.12 0 01-3.12 3.12m0 0H7.24a3.12 3.12 0 01-3.12-3.12m19.76 3.12a3.121 3.121 0 003.031-2.378.475.475 0 00-.135-.446l-3.048-3.048a.52.52 0 00-.736 0l-1.961 1.961a.52.52 0 01-.751-.016l-7.457-8.135a.52.52 0 00-.766 0l-7.8 8.51a.52.52 0 00-.137.35v.082M17.018 7.24a2.702 2.702 0 115.404 0 2.702 2.702 0 01-5.404 0z" stroke="#F85A47" stroke-linecap="round" stroke-linejoin="round"/></svg>