<svg width="79" height="18" fill="none" xmlns="http://www.w3.org/2000/svg"><path d="M24.308 14.816V3h2.887v4.743h5.979V3h2.906v11.816h-2.906v-4.91h-5.979v4.91h-2.887zM42.99 15c-1 0-1.87-.178-2.61-.536a4.164 4.164 0 01-1.703-1.542c-.395-.66-.592-1.447-.592-2.363 0-.905.197-1.687.592-2.346a4.051 4.051 0 011.703-1.526c.74-.357 1.61-.536 2.61-.536 1 0 1.87.179 2.61.536.74.358 1.308.866 1.703 1.526.407.659.61 1.44.61 2.346 0 .916-.203 1.704-.61 2.363-.395.66-.963 1.173-1.703 1.542-.74.358-1.61.536-2.61.536zm0-1.91c.642 0 1.147-.207 1.518-.62.382-.414.573-1.05.573-1.911 0-.86-.19-1.492-.573-1.894-.37-.402-.877-.603-1.518-.603-.642 0-1.154.2-1.537.603-.37.402-.555 1.034-.555 1.894 0 .86.185 1.497.555 1.91.383.414.895.62 1.537.62zM53.124 15c-1.172 0-2.042-.29-2.61-.871-.567-.592-.851-1.486-.851-2.682V6.32h2.795v5.128c0 .537.117.933.352 1.19.246.257.623.386 1.129.386.555 0 1.012-.173 1.37-.52.37-.357.555-.832.555-1.425v-4.76h2.795v8.498h-2.721V13.19h.259a3.217 3.217 0 01-1.222 1.341c-.53.313-1.147.47-1.85.47zM60.684 14.816v-1.642l5.59-5.565v.604h-5.59V6.319h8.108v1.659l-5.665 5.615-.018-.654h5.868v1.877h-8.293zM75.317 15c-1.086 0-2.018-.178-2.795-.536-.778-.357-1.37-.866-1.778-1.525-.407-.67-.61-1.458-.61-2.363 0-.883.191-1.654.573-2.313a4.122 4.122 0 011.63-1.542c.703-.38 1.523-.57 2.461-.57.926 0 1.697.179 2.314.536.63.358 1.098.86 1.407 1.509.32.637.481 1.38.481 2.229v.586h-6.571V9.755h4.535l-.315.235c0-.704-.16-1.235-.481-1.592-.309-.369-.759-.553-1.351-.553-.444 0-.82.1-1.13.301-.296.19-.524.475-.684.855-.148.369-.222.827-.222 1.375v.268c0 .827.222 1.441.666 1.843.457.403 1.11.604 1.962.604.506 0 .981-.056 1.425-.168a4.712 4.712 0 001.296-.57l.777 1.676a5.515 5.515 0 01-1.628.721 7.323 7.323 0 01-1.962.251zM9.409 8.99h-.963V6.745h.963c.421 0 .742.093.963.279.226.179.34.46.34.844 0 .378-.114.66-.34.845-.22.186-.542.279-.963.279z" fill="#F85A47"/><path fill-rule="evenodd" clip-rule="evenodd" d="M18.23 9c0 4.971-4.081 9-9.115 9H0V9c0-4.97 4.082-9 9.115-9 5.034 0 9.116 4.03 9.116 9zM7.213 11.199V12.6h1.254V11.2h1.565v-.71H8.466V9.7h1.118c.48 0 .888-.074 1.225-.22.337-.154.596-.372.778-.654.181-.281.272-.62.272-1.017 0-.397-.09-.743-.272-1.037a1.767 1.767 0 00-.788-.691c-.343-.167-.764-.25-1.264-.25H7.212v3.159h-.827v.71h.827v.787h-.827v.71h.827z" fill="#F85A47"/></svg>