<svg width="19" height="19" viewBox="0 0 19 19" fill="none" xmlns="http://www.w3.org/2000/svg">
<path d="M17.5847 11.2488L19 4.34673H5.05245L4.56776 2.05122L0.36449 0L0 0.725102L3.83878 2.57857L5.77755 11.8382H16.9837C16.9837 11.8382 18.0888 12.5322 17.6622 13.4086C17.4722 13.68 17.1776 14.0135 16.6502 14.0135H5.49837V14.8122H16.6541C17.4218 14.8122 18.0694 14.409 18.4339 13.7653C19.1473 12.4314 17.5847 11.2488 17.5847 11.2488ZM6.46776 11.0278L5.21531 5.14939H18.0306L16.8169 11.0278H6.46776Z" fill="black"/>
<path d="M7.80163 15.9406C6.95245 15.9406 6.26612 16.6231 6.26612 17.4684C6.26612 18.3137 6.95245 18.9961 7.80163 18.9961C8.65082 18.9961 9.33714 18.3137 9.33714 17.4684C9.33714 16.6231 8.65082 15.9406 7.80163 15.9406ZM7.80163 18.1935C7.39837 18.1935 7.07265 17.8716 7.07265 17.4684C7.07265 17.0651 7.39449 16.7433 7.80163 16.7433C8.20878 16.7433 8.53061 17.0651 8.53061 17.4684C8.53061 17.8716 8.2049 18.1935 7.80163 18.1935Z" fill="black"/>
<path d="M16.0492 15.9406C15.2 15.9406 14.5137 16.6231 14.5137 17.4684C14.5137 18.3137 15.2 19 16.0492 19C16.8984 19 17.6273 18.3176 17.5847 17.4722C17.5847 16.6269 16.8984 15.9406 16.0492 15.9406ZM16.7782 17.4722C16.7782 17.8755 16.4563 18.1973 16.0492 18.1973C15.642 18.1973 15.3202 17.8755 15.3202 17.4722C15.3202 17.069 15.642 16.7471 16.0492 16.7471C16.4563 16.7471 16.8169 17.069 16.7782 17.4722Z" fill="black"/>
</svg>
