<svg width="18" height="17" viewBox="0 0 18 17" fill="none" xmlns="http://www.w3.org/2000/svg">
<path d="M9.00002 17C9.00002 17 8.49669 16.6402 8.30415 16.4639C7.577 15.7994 6.87593 15.1749 6.2574 14.624L6.25424 14.6212C4.44081 13.006 2.87485 11.6112 1.78528 10.2372C0.567307 8.70116 0 7.24477 0 5.65375C0 4.10795 0.507156 2.68184 1.42795 1.63795C2.35973 0.581723 3.63826 0 5.02844 0C6.06747 0 7.01903 0.343322 7.8566 1.02035C8.2793 1.36209 8.66245 1.78033 9 2.26819C9.33769 1.78033 9.7207 1.36209 10.1435 1.02035C10.9811 0.343322 11.9327 0 12.9717 0C14.3617 0 15.6404 0.581723 16.5722 1.63795C17.493 2.68184 18 4.10795 18 5.65375C18 7.24477 17.4328 8.70116 16.2149 10.2371C15.1253 11.6112 13.5595 13.0059 11.7463 14.6209C11.1267 15.1726 10.4245 15.7981 9.69571 16.4642C9.50331 16.6402 9.00002 17 9.00002 17ZM5.02844 1.10202C3.93626 1.10202 2.93294 1.55758 2.20303 2.38488C1.46228 3.22467 1.05428 4.38553 1.05428 5.65375C1.05428 6.99188 1.53012 8.18862 2.59703 9.53406C3.62823 10.8346 5.16206 12.2007 6.938 13.7825L6.9413 13.7854C7.56216 14.3384 8.26598 14.9653 8.99849 15.6348C9.7354 14.9641 10.4403 14.3361 11.0624 13.7822C12.8382 12.2004 14.3719 10.8346 15.4031 9.53406C16.4699 8.18862 16.9457 6.99188 16.9457 5.65375C16.9457 4.38553 16.5377 3.22467 15.797 2.38488C15.0672 1.55758 14.0637 1.10202 12.9717 1.10202C12.1716 1.10202 11.437 1.36783 10.7884 1.892C10.2104 2.35933 9.5717 3.36346 9.5717 3.36346L9.00002 4.06628L8.4283 3.36346C8.4283 3.36346 7.78972 2.35933 7.21156 1.892C6.56296 1.36783 5.82838 1.10202 5.02844 1.10202Z" fill="black"/>
</svg>
