<svg width="98" height="31" viewBox="0 0 98 31" fill="none" xmlns="http://www.w3.org/2000/svg">
<path d="M40.4574 0.263867H42.5024L47.1306 9.20897H47.2292L51.7677 0.263867H53.7768V11.9268H51.7677V2.36601H51.7049L46.8256 11.9268H46.413L41.4799 2.44517H41.3454V11.9268H40.4574V0.263867Z" fill="#0E091B"/>
<path d="M63.0394 12.1995C62.1185 12.1995 61.2575 12.0382 60.4562 11.7157C59.661 11.3932 58.9673 10.9534 58.3754 10.3964C57.7894 9.83345 57.326 9.17965 56.9851 8.43496C56.6503 7.6844 56.4829 6.884 56.4829 6.03376C56.4829 5.47671 56.5576 4.94018 56.7071 4.42417C56.8626 3.90817 57.0808 3.42734 57.3618 2.9817C57.6429 2.53606 57.9807 2.13146 58.3754 1.76791C58.776 1.3985 59.2185 1.08479 59.7028 0.826783C60.1872 0.562917 60.7104 0.360619 61.2724 0.219889C61.8405 0.0732965 62.4295 0 63.0394 0C63.6553 0 64.2443 0.0732965 64.8063 0.219889C65.3684 0.360619 65.8916 0.562917 66.376 0.826783C66.8663 1.08479 67.3088 1.3985 67.7034 1.76791C68.0981 2.13146 68.4359 2.53606 68.7169 2.9817C69.004 3.42734 69.2222 3.90817 69.3717 4.42417C69.5272 4.94018 69.6049 5.47671 69.6049 6.03376C69.6049 6.60254 69.5272 7.14787 69.3717 7.66974C69.2222 8.19161 69.004 8.68123 68.7169 9.1386C68.4359 9.59597 68.0981 10.0123 67.7034 10.3876C67.3088 10.7629 66.8663 11.0854 66.376 11.3551C65.8916 11.6248 65.3684 11.833 64.8063 11.9796C64.2443 12.1262 63.6553 12.1995 63.0394 12.1995ZM63.0394 11.619C63.7211 11.619 64.322 11.4812 64.8422 11.2056C65.3684 10.9241 65.8109 10.5342 66.1697 10.0358C66.5284 9.53733 66.7975 8.94803 66.9769 8.26784C67.1623 7.58765 67.255 6.84296 67.255 6.03376C67.255 5.23043 67.1623 4.49454 66.9769 3.82607C66.7975 3.15761 66.5284 2.58297 66.1697 2.10214C65.8109 1.61545 65.3684 1.24018 64.8422 0.976309C64.322 0.706578 63.7211 0.571712 63.0394 0.571712C62.3458 0.571712 61.7359 0.706578 61.2097 0.976309C60.6894 1.24018 60.25 1.61545 59.8912 2.10214C59.5384 2.58297 59.2723 3.15761 59.0929 3.82607C58.9135 4.49454 58.8238 5.23043 58.8238 6.03376C58.8238 6.84296 58.9135 7.58765 59.0929 8.26784C59.2723 8.94803 59.5384 9.53733 59.8912 10.0358C60.25 10.5342 60.6894 10.9241 61.2097 11.2056C61.7359 11.4812 62.3458 11.619 63.0394 11.619Z" fill="#0E091B"/>
<path d="M72.2896 0.263867H73.4107L81.205 8.79557H81.2947V0.263867H82.1737V12.1995H81.7073L73.2672 2.71783H73.1955V11.9268H72.2896V0.263867Z" fill="#0E091B"/>
<path d="M91.4345 12.1995C90.5136 12.1995 89.6526 12.0382 88.8513 11.7157C88.0561 11.3932 87.3624 10.9534 86.7705 10.3964C86.1845 9.83345 85.7211 9.17965 85.3802 8.43496C85.0454 7.6844 84.878 6.884 84.878 6.03376C84.878 5.47671 84.9527 4.94018 85.1022 4.42417C85.2577 3.90817 85.4759 3.42734 85.7569 2.9817C86.038 2.53606 86.3758 2.13146 86.7705 1.76791C87.1711 1.3985 87.6136 1.08479 88.0979 0.826783C88.5823 0.562917 89.1055 0.360619 89.6675 0.219889C90.2356 0.0732965 90.8246 0 91.4345 0C92.0504 0 92.6394 0.0732965 93.2014 0.219889C93.7635 0.360619 94.2867 0.562917 94.7711 0.826783C95.2614 1.08479 95.7039 1.3985 96.0985 1.76791C96.4932 2.13146 96.831 2.53606 97.112 2.9817C97.3991 3.42734 97.6173 3.90817 97.7668 4.42417C97.9223 4.94018 98 5.47671 98 6.03376C98 6.60254 97.9223 7.14787 97.7668 7.66974C97.6173 8.19161 97.3991 8.68123 97.112 9.1386C96.831 9.59597 96.4932 10.0123 96.0985 10.3876C95.7039 10.7629 95.2614 11.0854 94.7711 11.3551C94.2867 11.6248 93.7635 11.833 93.2014 11.9796C92.6394 12.1262 92.0504 12.1995 91.4345 12.1995ZM91.4345 11.619C92.1162 11.619 92.7171 11.4812 93.2373 11.2056C93.7635 10.9241 94.206 10.5342 94.5648 10.0358C94.9235 9.53733 95.1926 8.94803 95.372 8.26784C95.5574 7.58765 95.6501 6.84296 95.6501 6.03376C95.6501 5.23043 95.5574 4.49454 95.372 3.82607C95.1926 3.15761 94.9235 2.58297 94.5648 2.10214C94.206 1.61545 93.7635 1.24018 93.2373 0.976309C92.7171 0.706578 92.1162 0.571712 91.4345 0.571712C90.7409 0.571712 90.131 0.706578 89.6048 0.976309C89.0845 1.24018 88.6451 1.61545 88.2863 2.10214C87.9335 2.58297 87.6674 3.15761 87.488 3.82607C87.3086 4.49454 87.2189 5.23043 87.2189 6.03376C87.2189 6.84296 87.3086 7.58765 87.488 8.26784C87.6674 8.94803 87.9335 9.53733 88.2863 10.0358C88.6451 10.5342 89.0845 10.9241 89.6048 11.2056C90.131 11.4812 90.7409 11.619 91.4345 11.619Z" fill="#0E091B"/>
<path d="M44.3501 30.2612C44.6431 30.2612 44.9331 30.2231 45.2201 30.1468C45.5071 30.0647 45.7643 29.9475 45.9915 29.795C46.2187 29.6367 46.4011 29.4461 46.5386 29.2233C46.6761 28.9946 46.7449 28.7307 46.7449 28.4317C46.7449 28.074 46.6492 27.7574 46.4579 27.4818C46.2725 27.2003 46.0274 26.9452 45.7224 26.7166C45.4174 26.482 45.0676 26.2621 44.673 26.0569C44.2843 25.8517 43.8867 25.6464 43.4801 25.4412C43.0735 25.236 42.6728 25.0219 42.2782 24.7991C41.8895 24.5704 41.5427 24.3183 41.2378 24.0427C40.9328 23.7612 40.6847 23.4505 40.4933 23.1104C40.3079 22.7644 40.2153 22.3686 40.2153 21.923C40.2153 21.4773 40.299 21.0639 40.4664 20.6828C40.6398 20.3017 40.8909 19.9733 41.2198 19.6977C41.5487 19.4162 41.9523 19.1963 42.4307 19.038C42.915 18.8797 43.4681 18.8005 44.09 18.8005C44.6521 18.8005 45.1543 18.8592 45.5968 18.9764C46.0393 19.0937 46.428 19.2667 46.7628 19.4954C47.0977 19.7241 47.3817 20.0055 47.6149 20.3398C47.8481 20.674 48.0365 21.061 48.18 21.5008L47.1575 21.9582C47.0379 21.6005 46.8854 21.275 46.7 20.9818C46.5147 20.6828 46.2934 20.4277 46.0363 20.2166C45.7792 20.0055 45.4802 19.8443 45.1394 19.7329C44.8045 19.6156 44.4248 19.557 44.0003 19.557C43.6236 19.557 43.2947 19.6097 43.0137 19.7153C42.7326 19.815 42.4964 19.9498 42.3051 20.1199C42.1197 20.2841 41.9792 20.4717 41.8835 20.6828C41.7939 20.888 41.749 21.0991 41.749 21.3161C41.749 21.621 41.8447 21.9024 42.036 22.1604C42.2274 22.4126 42.4815 22.653 42.7984 22.8817C43.1153 23.1045 43.4741 23.3215 43.8747 23.5326C44.2813 23.7437 44.6939 23.9577 45.1125 24.1746C45.5311 24.3916 45.9406 24.6173 46.3413 24.8519C46.7479 25.0864 47.1096 25.3444 47.4266 25.6259C47.7435 25.9015 47.9976 26.2064 48.1889 26.5406C48.3803 26.869 48.476 27.2384 48.476 27.6489C48.476 28.1121 48.3863 28.549 48.2069 28.9594C48.0275 29.364 47.7584 29.7188 47.3996 30.0237C47.0409 30.3227 46.5954 30.5602 46.0632 30.7361C45.5311 30.912 44.9122 31 44.2066 31C43.6326 31 43.1213 30.9384 42.6728 30.8153C42.2244 30.6922 41.8267 30.5133 41.4799 30.2788C41.1391 30.0442 40.8461 29.7598 40.6009 29.4256C40.3558 29.0855 40.1555 28.6985 40 28.2646L41.0673 27.8336C41.1929 28.2147 41.3603 28.5548 41.5696 28.8539C41.7849 29.1529 42.033 29.408 42.3141 29.6191C42.5951 29.8243 42.906 29.9826 43.2469 30.0941C43.5937 30.2055 43.9614 30.2612 44.3501 30.2612Z" fill="#0E091B"/>
<path d="M60.6033 19.0644V19.8208H56.2981V30.7273H54.2979V19.8208H49.9927V19.0644H60.6033Z" fill="#0E091B"/>
<path d="M68.5891 31C67.6683 31 66.8072 30.8387 66.006 30.5162C65.2107 30.1937 64.5171 29.754 63.9251 29.1969C63.3391 28.634 62.8757 27.9802 62.5349 27.2355C62.2 26.4849 62.0326 25.6845 62.0326 24.8343C62.0326 24.2773 62.1073 23.7407 62.2568 23.2247C62.4123 22.7087 62.6305 22.2279 62.9116 21.7822C63.1926 21.3366 63.5305 20.932 63.9251 20.5684C64.3257 20.199 64.7682 19.8853 65.2526 19.6273C65.7369 19.3635 66.2601 19.1612 66.8222 19.0204C67.3902 18.8738 67.9792 18.8005 68.5891 18.8005C69.205 18.8005 69.794 18.8738 70.3561 19.0204C70.9182 19.1612 71.4414 19.3635 71.9257 19.6273C72.416 19.8853 72.8585 20.199 73.2532 20.5684C73.6478 20.932 73.9856 21.3366 74.2667 21.7822C74.5537 22.2279 74.7719 22.7087 74.9214 23.2247C75.0769 23.7407 75.1546 24.2773 75.1546 24.8343C75.1546 25.4031 75.0769 25.9484 74.9214 26.4703C74.7719 26.9921 74.5537 27.4818 74.2667 27.9391C73.9856 28.3965 73.6478 28.8128 73.2532 29.1881C72.8585 29.5634 72.416 29.8859 71.9257 30.1556C71.4414 30.4254 70.9182 30.6335 70.3561 30.7801C69.794 30.9267 69.205 31 68.5891 31ZM68.5891 30.4195C69.2708 30.4195 69.8717 30.2817 70.392 30.0061C70.9181 29.7246 71.3606 29.3347 71.7194 28.8363C72.0782 28.3379 72.3473 27.7486 72.5266 27.0684C72.712 26.3882 72.8047 25.6435 72.8047 24.8343C72.8047 24.031 72.712 23.2951 72.5266 22.6266C72.3473 21.9582 72.0782 21.3835 71.7194 20.9027C71.3606 20.416 70.9181 20.0407 70.392 19.7768C69.8717 19.5071 69.2708 19.3723 68.5891 19.3723C67.8955 19.3723 67.2856 19.5071 66.7594 19.7768C66.2392 20.0407 65.7997 20.416 65.4409 20.9027C65.0881 21.3835 64.822 21.9582 64.6427 22.6266C64.4633 23.2951 64.3736 24.031 64.3736 24.8343C64.3736 25.6435 64.4633 26.3882 64.6427 27.0684C64.822 27.7486 65.0881 28.3379 65.4409 28.8363C65.7997 29.3347 66.2392 29.7246 66.7594 30.0061C67.2856 30.2817 67.8955 30.4195 68.5891 30.4195Z" fill="#0E091B"/>
<path d="M77.8393 19.0644H81.9652C82.6767 19.0644 83.3016 19.1406 83.8398 19.2931C84.3779 19.4397 84.8264 19.6478 85.1852 19.9176C85.5439 20.1873 85.813 20.5098 85.9924 20.8851C86.1778 21.2545 86.2704 21.6591 86.2704 22.0989C86.2704 22.4624 86.1987 22.8025 86.0552 23.1192C85.9176 23.4358 85.7203 23.7231 85.4632 23.9811C85.2121 24.2333 84.9071 24.4532 84.5483 24.6408C84.1896 24.8226 83.7949 24.9662 83.3644 25.0718L87.6965 30.7273H85.3735L81.2387 25.2477H79.8395V30.7273H77.8393V19.0644ZM79.8395 24.6584H80.9965C81.445 24.6584 81.8576 24.5998 82.2343 24.4825C82.617 24.3652 82.9458 24.201 83.2209 23.9899C83.5019 23.773 83.7202 23.512 83.8756 23.2071C84.0311 22.9022 84.1088 22.5592 84.1088 22.178C84.1088 21.8262 84.0461 21.5037 83.9205 21.2105C83.8009 20.9173 83.6275 20.6681 83.4003 20.4629C83.179 20.2518 82.9129 20.0876 82.602 19.9704C82.297 19.8531 81.9622 19.7944 81.5974 19.7944H79.8395V24.6584Z" fill="#0E091B"/>
<path d="M97.5869 19.0644V19.8208H91.3173V23.9899H95.5149V24.7463H91.3173V29.9709H97.5869V30.7273H89.3172V19.0644H97.5869Z" fill="#0E091B"/>
<path d="M0 30.1368L3.18512e-06 0.242316L0.501398 3.11906e-10L15 12.8818L29.4968 1.97478e-06C29.6043 0.133451 29.8926 0.484359 29.8926 0.484359L15.1966 13.5413H14.8034L0.608593 0.930089V30.1368H0Z" fill="#0E091B"/>
<path d="M29.6933 30.3496C29.5256 30.3496 29.3893 30.2069 29.3893 30.0313V6.9085L15.1966 19.5202H14.8034L3.18794 9.20063L3.58214 8.71573L15 18.8603L29.4968 5.97841L30 6.22045V30.0313L29.6933 30.3496Z" fill="#0E091B"/>
<path d="M29.6933 30.3496H15L15 29.7052L29.6934 29.7131C29.8637 29.7131 30 29.8557 30 30.0313L29.6933 30.3496Z" fill="#0E091B"/>
<path d="M11.2546 29.0631C10.9107 29.0631 10.6308 29.3549 10.6308 29.7137C10.6308 30.0718 10.9107 30.3639 11.2546 30.3639C11.5987 30.3639 11.8789 30.0718 11.8789 29.7137C11.8789 29.3549 11.5987 29.0631 11.2546 29.0631ZM11.2546 31C10.5752 31 10.0219 30.4228 10.0219 29.7137C10.0219 29.004 10.5752 28.427 11.2546 28.427C11.9345 28.427 12.4875 29.004 12.4875 29.7137C12.4875 30.4228 11.9345 31 11.2546 31Z" fill="#0E091B"/>
</svg>
