<svg width="15" height="19" viewBox="0 0 15 19" fill="none" xmlns="http://www.w3.org/2000/svg">
<path d="M7.39472 8.00851C9.62173 8.00851 11.4272 6.21566 11.4272 4.00417C11.4272 1.79268 9.62173 0 7.39472 0C5.16771 0 3.36245 1.79285 3.36245 4.00434C3.36495 6.21467 5.16888 8.00603 7.39472 8.00851ZM7.39472 0.848215C9.15011 0.848215 10.573 2.26119 10.573 4.00434C10.573 5.74732 9.15011 7.16029 7.39472 7.16029C5.63951 7.16029 4.21662 5.74732 4.21662 4.00434C4.21862 2.26202 5.64034 0.850203 7.39472 0.848215Z" fill="black"/>
<path d="M7.5 9.41898C3.35712 9.41732 -0.00166768 12.7529 6.2121e-07 16.8667V18.5759L0 19H0.427085H14.5729H15V18.5759V16.8667C15.0018 12.7529 11.6429 9.41732 7.5 9.41898ZM14.1458 18.1518H0.854169V16.8667C0.848163 14.505 2.11357 12.3201 4.17225 11.1374C6.23093 9.95491 8.76907 9.95491 10.8279 11.1374C12.8866 12.3201 14.152 14.505 14.1458 16.8667V18.1518Z" fill="black"/>
</svg>
