<svg width="16" height="16" fill="none" xmlns="http://www.w3.org/2000/svg"><path fill-rule="evenodd" clip-rule="evenodd" d="M15 8A7 7 0 1 1 1 8a7 7 0 0 1 14 0Zm1 0A8 8 0 1 1 0 8a8 8 0 0 1 16 0ZM6 6.5a.5.5 0 1 1-1 0 .5.5 0 0 1 1 0Zm1 0a1.5 1.5 0 1 1-3 0 1.5 1.5 0 0 1 3 0Zm3.5.5a.5.5 0 1 0 0-1 .5.5 0 0 0 0 1Zm0 1a1.5 1.5 0 1 0 0-3 1.5 1.5 0 0 0 0 3Zm-5.32 2.66A1.37 1.37 0 0 1 5 10H4c0 .4.1.78.3 1.15.2.36.5.7.87.97.37.28.81.5 1.3.65a5.18 5.18 0 0 0 3.06 0c.49-.15.93-.37 1.3-.65s.66-.6.87-.97c.2-.37.3-.76.3-1.15h-1c0 .22-.06.44-.18.66-.12.23-.32.46-.6.66-.26.2-.6.38-.99.5a4.18 4.18 0 0 1-2.46 0c-.39-.12-.73-.3-1-.5s-.47-.43-.59-.66Z" fill="#5757DB"/></svg>