<svg width="16" height="16" fill="none" xmlns="http://www.w3.org/2000/svg"><mask id="a" fill="#fff"><path fill-rule="evenodd" clip-rule="evenodd" d="M14.75 12.3a8 8 0 1 0-2.9 2.72c.9.54 2.23.98 4.15.98-.99-.99-1.24-2.46-1.25-3.7Z"/></mask><path d="m14.75 12.3-.84-.54-.16.25v.29h1Zm-2.9 2.72.5-.86-.48-.3-.5.28.48.88ZM16 16v1h2.41l-1.7-1.7-.71.7Zm-1-8c0 1.38-.4 2.67-1.1 3.76l1.7 1.07C16.47 11.43 17 9.78 17 8h-2ZM8 1a7 7 0 0 1 7 7h2a9 9 0 0 0-9-9v2ZM1 8a7 7 0 0 1 7-7v-2a9 9 0 0 0-9 9h2Zm7 7a7 7 0 0 1-7-7h-2a9 9 0 0 0 9 9v-2Zm3.36-.86c-1 .55-2.14.86-3.36.86v2c1.57 0 3.04-.4 4.33-1.1l-.97-1.76Zm-.03 1.74A8.95 8.95 0 0 0 16 17v-2c-1.76 0-2.9-.4-3.64-.84l-1.03 1.72Zm5.38-.59c-.7-.7-.95-1.84-.96-3l-2 .01c0 1.32.27 3.13 1.54 4.4l1.42-1.4Z" fill="#fff" mask="url(#a)"/></svg>