<svg width="118" height="20" fill="none" xmlns="http://www.w3.org/2000/svg"><path d="M10.38 7.26A1.95 1.95 0 0 0 8.91 5.8c-.25-.07-.53-.1-.84-.1-.66 0-1.23.15-1.7.47-.46.32-.82.77-1.06 1.37-.25.6-.37 1.32-.37 2.16 0 .85.12 1.58.35 2.19.23.6.58 1.07 1.04 1.39a2.9 2.9 0 0 0 1.71.48c.6 0 1.1-.09 1.5-.26.4-.18.7-.43.9-.75.2-.32.3-.7.3-1.13l.68.07H8.1V8.88h6.45v2.01c0 1.33-.29 2.46-.85 3.4a5.6 5.6 0 0 1-2.32 2.16c-.98.5-2.1.75-3.37.75-1.41 0-2.66-.3-3.73-.9a6.34 6.34 0 0 1-2.5-2.57 8.29 8.29 0 0 1-.9-3.97c0-1.2.18-2.27.55-3.2a6.7 6.7 0 0 1 3.8-3.8c.85-.34 1.77-.5 2.75-.5.86 0 1.66.12 2.4.37.75.24 1.4.58 1.97 1.03a5.04 5.04 0 0 1 2.02 3.6h-3.99Zm20.1 2.47a8.2 8.2 0 0 1-.95 4.1 6.34 6.34 0 0 1-2.55 2.52 7.51 7.51 0 0 1-3.58.85 7.5 7.5 0 0 1-3.59-.86 6.4 6.4 0 0 1-2.54-2.53 8.23 8.23 0 0 1-.94-4.08c0-1.62.31-2.99.94-4.1a6.3 6.3 0 0 1 2.54-2.51 7.5 7.5 0 0 1 3.6-.86c1.31 0 2.5.28 3.57.86a6.28 6.28 0 0 1 2.55 2.52c.63 1.1.95 2.47.95 4.09Zm-4.06 0c0-.87-.12-1.6-.35-2.2a2.78 2.78 0 0 0-1.02-1.37 2.8 2.8 0 0 0-1.65-.47c-.65 0-1.2.16-1.65.47-.45.31-.78.76-1.02 1.37-.22.6-.34 1.33-.34 2.2 0 .87.12 1.6.34 2.2.24.6.57 1.06 1.02 1.37.45.3 1 .46 1.65.46.66 0 1.2-.15 1.65-.46.45-.31.79-.77 1.02-1.36.23-.6.35-1.34.35-2.21Zm19.98 0c0 1.62-.32 2.98-.95 4.1a6.34 6.34 0 0 1-2.55 2.52 7.51 7.51 0 0 1-3.58.85 7.5 7.5 0 0 1-3.6-.86 6.4 6.4 0 0 1-2.53-2.53 8.23 8.23 0 0 1-.94-4.08c0-1.62.31-2.99.94-4.1a6.3 6.3 0 0 1 2.54-2.51 7.5 7.5 0 0 1 3.6-.86c1.3 0 2.5.28 3.57.86a6.28 6.28 0 0 1 2.55 2.52c.63 1.1.95 2.47.95 4.09Zm-4.07 0c0-.87-.11-1.6-.34-2.2a2.78 2.78 0 0 0-1.02-1.37 2.8 2.8 0 0 0-1.65-.47c-.65 0-1.2.16-1.65.47-.45.31-.79.76-1.02 1.37-.23.6-.34 1.33-.34 2.2 0 .87.11 1.6.34 2.2.23.6.57 1.06 1.02 1.37.45.3 1 .46 1.65.46.66 0 1.2-.15 1.65-.46.45-.31.79-.77 1.02-1.36.23-.6.34-1.34.34-2.21ZM53.82 17h-5.6V2.45h5.54c1.5 0 2.8.3 3.88.88a6.02 6.02 0 0 1 2.53 2.5c.6 1.08.9 2.38.9 3.9 0 1.51-.3 2.81-.9 3.9a6.1 6.1 0 0 1-2.5 2.5 8.06 8.06 0 0 1-3.85.87Zm-1.65-3.35h1.5a4.4 4.4 0 0 0 1.85-.35c.5-.23.9-.63 1.16-1.2.27-.57.4-1.36.4-2.37 0-1.02-.13-1.8-.4-2.37a2.36 2.36 0 0 0-1.2-1.2 4.7 4.7 0 0 0-1.92-.35h-1.39v7.84ZM70.73 7a1.53 1.53 0 0 0-.53-1.1c-.31-.27-.79-.4-1.43-.4-.4 0-.74.04-1 .14s-.45.23-.57.4a.97.97 0 0 0-.19.56c-.01.18.02.34.1.48.07.14.19.26.35.37.16.11.36.21.62.3.25.1.54.17.89.24l1.2.26c.8.17 1.49.4 2.06.67.57.28 1.04.61 1.4 1 .37.37.64.79.8 1.26a4.46 4.46 0 0 1-.44 3.96 4.38 4.38 0 0 1-2.03 1.51c-.88.35-1.93.52-3.16.52a8.94 8.94 0 0 1-3.31-.56 4.61 4.61 0 0 1-2.19-1.73 5.38 5.38 0 0 1-.78-3h3.75c.03.45.14.83.34 1.13.2.3.47.53.83.69.37.15.8.23 1.3.23.42 0 .78-.05 1.06-.15.29-.1.5-.25.65-.44.14-.18.22-.4.22-.63a.9.9 0 0 0-.22-.58 1.7 1.7 0 0 0-.68-.46 7.25 7.25 0 0 0-1.28-.38l-1.45-.31a6.68 6.68 0 0 1-3.05-1.4 3.4 3.4 0 0 1-1.1-2.7 4 4 0 0 1 .74-2.42c.5-.7 1.2-1.23 2.08-1.62a7.6 7.6 0 0 1 3.06-.58c1.18 0 2.2.2 3.05.59A4.46 4.46 0 0 1 74.52 7h-3.79Z" fill="#4EB543"/><path d="M79.13 17.23a1.95 1.95 0 0 1-2-2c0-.53.2-1 .58-1.38.4-.38.87-.57 1.42-.57.52 0 .98.19 1.37.57a1.87 1.87 0 0 1 .32 2.4c-.18.3-.42.53-.72.71-.3.18-.62.27-.97.27Zm8-14.78V17H83.2V2.45h3.95Zm14.46 0V17h-3.3l-5.25-7.64h-.08V17H89V2.45h3.35l5.17 7.62h.11V2.45h3.95Zm15.45 5.46h-4c-.03-.33-.1-.63-.23-.9-.12-.27-.29-.5-.5-.7-.2-.2-.46-.35-.76-.45-.3-.11-.64-.17-1.02-.17-.66 0-1.22.16-1.68.49-.45.32-.8.78-1.03 1.38-.24.6-.35 1.32-.35 2.17 0 .89.11 1.63.35 2.23.24.6.6 1.05 1.05 1.35.45.3 1 .45 1.64.45.36 0 .69-.04.98-.13a2.1 2.1 0 0 0 1.27-1.04c.14-.25.23-.53.28-.85l4 .03a5.43 5.43 0 0 1-.52 1.88 6.12 6.12 0 0 1-3.3 3.06c-.8.33-1.73.49-2.8.49a7.44 7.44 0 0 1-3.6-.86 6.24 6.24 0 0 1-2.5-2.53 8.4 8.4 0 0 1-.92-4.08c0-1.62.32-2.99.94-4.1a6.26 6.26 0 0 1 2.53-2.51 8.16 8.16 0 0 1 6.09-.48 6.1 6.1 0 0 1 2.03 1.1 5.44 5.44 0 0 1 1.4 1.76c.36.7.58 1.5.65 2.4Z" fill="#95B7DB"/></svg>