<svg width="122" height="56" fill="none" xmlns="http://www.w3.org/2000/svg"><path d="M19.42 51.78c0 .57.08 1.08.26 1.54a3.3 3.3 0 001.85 1.88c.43.16.89.24 1.39.24.26 0 .52-.05.77-.17a3.67 3.67 0 001.36-1.07c.19-.22.34-.45.45-.66l.54.37c-.18.28-.38.54-.6.8a4.02 4.02 0 01-1.78 1.14 4.59 4.59 0 01-3.01-.16 4.1 4.1 0 01-2.59-3.91 4.4 4.4 0 01.55-2.15 4.33 4.33 0 016.03-1.51 5.47 5.47 0 011.4 1.48l-.51.37a4.13 4.13 0 00-1.95-1.77c-.25-.1-.48-.15-.7-.15a3.48 3.48 0 00-2.45 1c-.3.33-.56.72-.74 1.18-.18.45-.27.97-.27 1.55zM32.19 56.03a4.38 4.38 0 01-4.04-2.64 4.23 4.23 0 012.31-5.59 4.45 4.45 0 011.73-.33 4.45 4.45 0 014.05 2.58 4.23 4.23 0 01-.93 4.72 4.39 4.39 0 01-3.12 1.26zm0-.4a2.72 2.72 0 002.24-1.11c.26-.36.45-.77.58-1.25a5.89 5.89 0 000-3.12 3.6 3.6 0 00-.58-1.2 2.6 2.6 0 00-.95-.8c-.37-.19-.8-.28-1.3-.28-.48 0-.92.1-1.3.28-.38.19-.7.45-.95.8-.25.33-.44.73-.57 1.2a6.07 6.07 0 000 3.12c.13.48.32.9.57 1.24.26.35.57.62.95.82.38.2.82.3 1.3.3zM43.7 47.65v.53h-3.98v2.93h2.88v.53h-2.88v4.2h-1.13v-8.19h5.12zM50.17 47.65v.53h-4v2.93h2.9v.53h-2.9v4.2h-1.12v-8.19h5.12zM57.03 47.65v.53h-4.3v2.93h2.88v.53h-2.89v3.67h4.31v.53H51.6v-8.19h5.43zM64.33 47.65v.53h-4.3v2.93h2.88v.53h-2.89v3.67h4.31v.53H58.9v-8.19h5.43zM74.3 55.51c.21 0 .43-.03.64-.08.21-.06.4-.14.56-.25.17-.1.3-.24.41-.4a1.12 1.12 0 00-.02-1.17 2.13 2.13 0 00-.48-.51c-.2-.16-.42-.31-.68-.45l-.8-.43-.85-.46a4.72 4.72 0 01-.76-.53c-.22-.2-.4-.43-.54-.68a2.25 2.25 0 01-.04-1.76c.11-.27.28-.5.49-.7.22-.19.49-.34.8-.46.32-.1.68-.16 1.09-.16.36 0 .69.04.98.12a2.28 2.28 0 011.33.97c.15.24.28.52.39.83l-.5.23a2.68 2.68 0 00-.31-.66 2.05 2.05 0 00-1.12-.85 2.77 2.77 0 00-1.57 0c-.2.07-.38.16-.52.28-.14.12-.24.25-.31.4a1 1 0 00-.1.44c0 .19.05.37.17.53.13.17.29.33.48.48.2.15.43.3.69.44l.78.42c.3.16.6.32.89.5.3.16.56.35.8.56.24.2.43.43.58.68.15.25.23.53.23.84 0 .32-.06.63-.18.92-.12.28-.3.53-.53.74-.24.21-.53.38-.88.5-.35.13-.76.19-1.22.19-.37 0-.7-.04-1-.13a2.6 2.6 0 01-.8-.38 2.59 2.59 0 01-.58-.6c-.16-.25-.3-.53-.4-.83l.52-.22a2.37 2.37 0 00.88 1.2c.2.15.42.26.67.33.25.07.52.11.8.11zM80.3 55.84h-1.13v-8.19h1.12v3.73h4.36v-3.73h1.12v8.19h-1.12V51.9h-4.36v3.93zM92.27 56.03a4.38 4.38 0 01-4.04-2.64 4.23 4.23 0 012.32-5.59 4.45 4.45 0 011.72-.33 4.45 4.45 0 014.05 2.58 4.23 4.23 0 01-.93 4.72 4.39 4.39 0 01-3.12 1.26zm0-.4a2.72 2.72 0 002.24-1.11c.26-.36.45-.77.59-1.25a5.89 5.89 0 000-3.12 3.6 3.6 0 00-.58-1.2 2.6 2.6 0 00-.95-.8c-.38-.19-.8-.28-1.3-.28s-.93.1-1.3.28c-.38.19-.7.45-.95.8-.25.33-.45.73-.58 1.2-.12.47-.19.99-.19 1.55 0 .57.07 1.1.2 1.57.12.48.32.9.57 1.24.25.35.57.62.95.82.37.2.8.3 1.3.3zM98.76 47.65h2.46c.42 0 .8.05 1.16.16.36.1.67.25.93.45a2.11 2.11 0 01.86 1.73 2.08 2.08 0 01-.82 1.7c-.24.2-.52.35-.83.44a3.05 3.05 0 01-1.37.13 7.87 7.87 0 01-1.26-.2v3.78h-1.13v-8.19zm1.13 3.87l.57.18a2.38 2.38 0 001.42-.06c.23-.08.43-.2.59-.36.16-.15.28-.33.36-.54a1.88 1.88 0 00-.04-1.41 1.85 1.85 0 00-1.04-.94c-.24-.09-.5-.13-.77-.13h-1.1v3.26z" fill="#553B2C"/><path d="M122 24.77c-.16 3.32-2.56 5.91-5.37 5.78-2.8-.13-4.95-2.93-4.8-6.26.16-3.33 2.56-5.92 5.36-5.78 2.81.13 4.96 2.93 4.8 6.26z" fill="#B88C43"/><path d="M117.79 18.58s.14.14.34.44c.09.15.2.34.3.57l.15.38c.05.13.09.28.13.43l.1.48c.02.17.05.35.05.53a5.03 5.03 0 01-.48 2.34c-.1.18-.18.38-.3.56l-.36.53-.33.47c-.12.16-.19.3-.28.45-.18.3-.34.64-.47.95-.07.16-.11.33-.17.49-.06.15-.08.31-.13.47a7.41 7.41 0 00-.14 2.7l.02.14s-.12-.17-.26-.5a4.66 4.66 0 01-.36-1.44 5.39 5.39 0 01.19-2.14c.06-.2.11-.39.2-.58.08-.19.14-.38.25-.57.1-.18.2-.4.32-.55l.35-.5.32-.45.27-.47a5.65 5.65 0 00.6-1.92l.04-.47v-.44a56.7 56.7 0 00-.08-.77l-.12-.6-.1-.4-.05-.13z" fill="#FFFDFC"/><path d="M74.7 11.14C80.5 3.26 90.56.84 97.2 5.72c6.63 4.89 7.33 15.23 1.55 23.1-5.77 7.88-15.84 10.3-22.48 5.42-6.64-4.89-7.34-15.23-1.56-23.1z" fill="#fff"/><path d="M74.7 11.14l.5.36c3.64-4.98 9.05-7.7 14.1-7.7 2.71 0 5.32.78 7.54 2.41 3.44 2.54 5.22 6.62 5.23 11.1 0 3.71-1.25 7.68-3.8 11.16-3.65 4.98-9.06 7.7-14.1 7.69-2.72 0-5.33-.78-7.54-2.4-3.45-2.54-5.23-6.63-5.23-11.1 0-3.72 1.24-7.69 3.8-11.16l-.5-.36-.48-.36a20.23 20.23 0 00-4.03 11.88c0 4.78 1.93 9.27 5.73 12.06a13.79 13.79 0 008.24 2.64c5.48 0 11.22-2.92 15.08-8.18a20.22 20.22 0 004.03-11.88c0-4.78-1.93-9.27-5.72-12.06A13.78 13.78 0 0089.3 2.6c-5.48 0-11.21 2.92-15.08 8.18l.49.36z" fill="#553B2C"/><path d="M74.93 33.1c-.51-3.17.31-6.59 2.19-9.42a15.73 15.73 0 018.05-6.07 23.14 23.14 0 007.41-4.12 22.95 22.95 0 005.55-7c0 3.23-1.4 6.42-3.52 8.99a18.64 18.64 0 01-8.27 5.54 17.23 17.23 0 00-7 4.4 19.9 19.9 0 00-4.4 7.68z" fill="#553B2C"/><path d="M76.16 33.91s12.32 5.12 20.83-7.75c8.52-12.86.2-20.44.2-20.44s10.64 7.96 2.27 22.08c0 0-10.8 15.23-23.3 6.11zM92.29 5.29a18.48 18.48 0 00-8.42 1.19c-1.32.53-2.61 1.15-3.8 1.96-1.2.77-2.29 1.72-3.39 2.68.47-.56.94-1.11 1.46-1.63.55-.48 1.06-1.01 1.67-1.43a15.61 15.61 0 018.13-3.13 12.3 12.3 0 014.35.36z" fill="#553B2C"/><path d="M91.33 20.88a8.55 8.55 0 01-2.12 1.6c-.79.43-1.6.8-2.46 1.05-1.66.5-3.23 1.28-4.56 2.33l-.02.02c-.88.68-1.72 1.48-2.48 2.34-.76.86-1.49 1.75-2.16 2.7.54-1.03 1.17-2.01 1.89-2.93.73-.9 1.5-1.79 2.43-2.54l-.02.01a11 11 0 012.25-1.5c.8-.4 1.65-.74 2.52-.95.83-.23 1.66-.49 2.45-.84.79-.37 1.57-.76 2.28-1.3zM97.2 26.66l-2.1-2.44 2.73 1.8-.63.64z" fill="#553B2C"/><path d="M98.1 26.4a25 25 0 00-2.46-3.14c1.1.78 2.17 1.6 3.17 2.58l-.7.57zM98.27 25.3a15.97 15.97 0 00-2.02-2.96c.99.7 1.93 1.5 2.77 2.45l-.75.5zM98.71 24.35a15.55 15.55 0 00-2.1-3.1c1.03.75 2 1.6 2.86 2.6l-.76.5zM99.12 23.16c-.5-.99-1.17-1.93-1.9-2.83.94.68 1.84 1.43 2.64 2.32l-.74.51z" fill="#553B2C"/><path d="M100.14 23.11l-.54-1.05a18.03 18.03 0 00-2.03-2.81 18.25 18.25 0 012.59 2.43l.72.91-.74.52zM100.3 21.83l-.54-1.01a14.46 14.46 0 00-1.97-2.75 17.95 17.95 0 012.53 2.36l.72.89-.74.51z" fill="#553B2C"/><path d="M100.4 20.52a17.46 17.46 0 00-2.45-3.66 17.95 17.95 0 013.18 3.14l-.74.52zM100.64 19.3a18.08 18.08 0 00-2.39-3.56 18.07 18.07 0 013.13 3.05l-.74.51zM100.83 18.05c-.33-.63-.66-1.22-1.05-1.8-.39-.57-.82-1.13-1.27-1.66a19.03 19.03 0 013.06 2.94l-.74.52zM101.18 16.9a17.81 17.81 0 00-2.27-3.36 18.3 18.3 0 013.01 2.84l-.74.52zM101.17 15.51a18.2 18.2 0 00-2.2-3.26c1.06.8 2.06 1.72 2.94 2.75l-.74.51z" fill="#553B2C"/><path d="M100.93 13.98a18.62 18.62 0 00-2.15-3.17c1.04.78 2.02 1.65 2.9 2.65l-.75.52z" fill="#553B2C"/><path d="M100.7 12.44c-.57-1.07-1.3-2.1-2.09-3.06 1 .75 1.97 1.58 2.83 2.54l-.74.52zM94.82 31.16c-.68-.42-1.2-.9-1.74-1.38l-1.59-1.44 1.86 1.08c.61.34 1.24.71 1.85.92l-.38.82zM95.64 30.27l-3.32-2.71 3.76 1.92-.44.8zM96.38 29.38a26.38 26.38 0 01-3.3-2.57c1.2.66 2.44 1.31 3.68 1.75l-.38.82z" fill="#553B2C"/><path d="M96.25 28.35l-2.4-2.4 2.95 1.68-.55.72zM96.86 27.55l-2.41-2.49 2.97 1.78-.56.7zM93.8 31.62a15.72 15.72 0 01-3.23-2.76c1.14.8 2.36 1.5 3.62 1.95l-.38.81z" fill="#553B2C"/><path d="M93.56 32.47c-.28-.17-.73-.4-1.07-.62-.37-.24-.71-.48-1.05-.75-.67-.53-1.28-1.1-1.86-1.71.68.49 1.38.94 2.1 1.33.37.2.74.37 1.12.53.4.17.72.25 1.2.43l-.44.8zM92.42 32.9c-.28-.18-.7-.4-1.05-.63a18.35 18.35 0 01-2.83-2.41 18.18 18.18 0 003.15 1.81c.38.16.71.26 1.16.43l-.43.8zM91.47 33.54c-.29-.18-.69-.4-1.02-.62a18.06 18.06 0 01-2.76-2.36 17.89 17.89 0 003.08 1.76c.37.16.7.26 1.13.43l-.43.8zM90.32 33.97l-.98-.63a17.92 17.92 0 01-2.68-2.32 17.38 17.38 0 003 1.73l1.1.43-.44.79zM89.07 34.26l-.95-.62a14.86 14.86 0 01-2.61-2.27 17.54 17.54 0 002.93 1.67l1.07.43-.44.79zM87.77 34.5c-.59-.4-1.25-.84-1.82-1.31-.58-.48-1.12-1-1.63-1.54a17.7 17.7 0 003.89 2.05l-.44.8zM86.6 34.87a18.34 18.34 0 01-3.35-2.8 18.06 18.06 0 003.78 2.01l-.43.8zM85.37 35.19a18.24 18.24 0 01-3.25-2.74 18 18 0 003.69 1.95l-.44.79zM84.27 35.66a18.27 18.27 0 01-3.15-2.7c1.14.79 2.32 1.41 3.58 1.9l-.43.8zM82.89 35.8a18.64 18.64 0 01-3.04-2.65c1.1.75 2.26 1.37 3.47 1.86l-.43.79z" fill="#553B2C"/><path d="M81.33 35.72a18.98 18.98 0 01-2.93-2.6 18.5 18.5 0 003.37 1.81l-.44.8z" fill="#553B2C"/><path d="M79.79 35.65a19.19 19.19 0 01-2.83-2.54c1.05.68 2.14 1.3 3.26 1.75l-.43.8z" fill="#553B2C"/><path d="M22.37 27.58c-4.96-8.42-3.23-18.64 3.87-22.83C33.34.56 43.11 4 48.07 12.4c4.95 8.42 3.22 18.64-3.88 22.83-7.1 4.19-16.87.76-21.82-7.65z" fill="#fff"/><path d="M22.37 27.58l.51-.3a19.35 19.35 0 01-2.74-9.78c0-5.14 2.25-9.78 6.4-12.23a12.39 12.39 0 016.36-1.7c5.45 0 11.23 3.33 14.65 9.14a19.34 19.34 0 012.74 9.77c0 5.15-2.25 9.78-6.4 12.23a12.39 12.39 0 01-6.36 1.7c-5.45.01-11.23-3.32-14.65-9.14l-.51.3-.52.31c3.62 6.15 9.74 9.73 15.68 9.74 2.42 0 4.81-.6 6.97-1.87 4.57-2.7 7-7.78 7-13.27 0-3.44-.95-7.05-2.92-10.38-3.62-6.15-9.74-9.73-15.68-9.74-2.42 0-4.81.6-6.96 1.88-4.58 2.7-7 7.78-7 13.26 0 3.44.94 7.05 2.9 10.38l.53-.3z" fill="#553B2C"/><path d="M42.62 36.01a13.4 13.4 0 01-7.8-5.72 15.77 15.77 0 01-2.4-9.8c.2-2.86-.03-5.69-.86-8.44a22.99 22.99 0 00-4.24-7.86c2.96 1.27 5.33 3.81 6.86 6.78 1.52 3 2.1 6.48 1.84 9.8-.18 2.8.14 5.57 1.28 8.16 1.1 2.6 2.94 4.99 5.32 7.08z" fill="#553B2C"/><path d="M43.84 35.2s9.55-9.33 1.09-22.22C36.46.08 26.24 4.75 26.24 4.75s11.49-6.67 21.16 6.6c0 0 9.73 15.94-3.56 23.85zM23.9 9.1a18.56 18.56 0 00-2.22 8.22c-.02 1.42.04 2.85.32 4.26.23 1.42.68 2.79 1.12 4.17-.32-.65-.65-1.3-.92-1.98-.22-.7-.5-1.37-.65-2.1a15.63 15.63 0 01.32-8.71c.47-1.4 1.12-2.73 2.04-3.87z" fill="#553B2C"/><path d="M37.85 16.11c.35.81.55 1.7.64 2.59.08.88.1 1.79 0 2.68-.2 1.71-.1 3.47.34 5.1v.03c.28 1.08.7 2.17 1.18 3.2.49 1.04 1.02 2.06 1.63 3.05-.73-.9-1.39-1.87-1.95-2.89a16.32 16.32 0 01-1.38-3.23v.02c-.29-.88-.42-1.76-.5-2.66-.04-.9-.01-1.81.14-2.7.11-.85.2-1.71.18-2.58-.02-.87-.07-1.75-.28-2.6zM45.46 12.98l-3.07.98 2.73-1.81.34.83z" fill="#553B2C"/><path d="M45.59 12.05c-1.29.22-2.59.59-3.86 1.02 1.15-.7 2.33-1.36 3.61-1.9l.25.88zM44.64 11.46c-1.17.08-2.35.34-3.52.7a16.36 16.36 0 013.34-1.59l.18.89zM43.95 10.68c-1.23.07-2.47.34-3.68.72 1.1-.65 2.25-1.22 3.52-1.6l.16.88zM43.01 9.84c-1.11.07-2.24.31-3.35.64 1-.6 2.04-1.14 3.17-1.53l.18.89z" fill="#553B2C"/><path d="M43.37 8.88l-1.18.08a17.82 17.82 0 00-3.38.76 18.12 18.12 0 013.25-1.42l1.12-.3.19.88zM42.25 8.23l-1.14.1a17.74 17.74 0 00-3.3.74 18.1 18.1 0 013.16-1.4l1.1-.32.18.88zM41.08 7.63c-.77.06-1.45.11-2.18.25-.72.14-1.43.33-2.14.56a18.05 18.05 0 014.14-1.7l.18.89zM40.07 6.92a18.06 18.06 0 00-4.2.8 18.18 18.18 0 014.02-1.69l.18.89zM38.99 6.25a18.41 18.41 0 00-4.1.78 18.23 18.23 0 013.92-1.66l.18.88zM38.07 5.48c-1.35.1-2.67.35-3.98.76a18.14 18.14 0 013.8-1.65l.18.89zM36.8 4.94c-1.3.1-2.6.36-3.87.75a18.63 18.63 0 013.68-1.63l.18.88z" fill="#553B2C"/><path d="M35.29 4.56c-1.26.1-2.51.36-3.75.73 1.12-.65 2.3-1.2 3.56-1.62l.19.89z" fill="#553B2C"/><path d="M33.79 4.17c-1.21.1-2.43.37-3.64.71a19.21 19.21 0 013.45-1.6l.19.89zM48.66 16.95c-.65.45-1.3.74-1.95 1.05l-1.95.9 1.72-1.29c.56-.43 1.15-.86 1.58-1.34l.6.68zM48.17 15.84l-3.8 1.98 3.25-2.7.55.72zM47.64 14.8a26.23 26.23 0 01-3.66 2.04 26.14 26.14 0 003.06-2.7l.6.67z" fill="#553B2C"/><path d="M46.64 14.52l-3.13 1.26 2.69-2.05.44.79zM46.14 13.65l-3.22 1.23 2.8-2.03.42.8zM48.69 18.06c-1.2.84-2.5 1.42-3.81 1.9 1.18-.75 2.3-1.59 3.21-2.58l.6.68z" fill="#553B2C"/><path d="M49.37 18.62c-.26.19-.65.52-1 .74-.35.24-.72.47-1.1.67-.74.4-1.51.75-2.3 1.04.72-.43 1.41-.9 2.06-1.42.32-.26.63-.53.92-.81.3-.3.51-.57.87-.93l.55.7zM49.31 19.84c-.27.19-.64.49-.98.71A18.28 18.28 0 0145 22.21a18.16 18.16 0 002.9-2.18c.3-.3.51-.56.86-.9l.55.7zM49.53 20.97c-.28.19-.64.47-.97.69a18.04 18.04 0 01-3.26 1.61 17.45 17.45 0 002.84-2.14c.29-.28.51-.54.84-.87l.55.71zM49.47 22.19l-.96.66a17.97 17.97 0 01-3.18 1.56 17.76 17.76 0 002.76-2.1l.83-.83.55.7zM49.24 23.45l-.94.64a18.05 18.05 0 01-3.1 1.51 17.8 17.8 0 002.68-2.05l.8-.8.56.7zM48.95 24.74c-.6.4-1.25.83-1.92 1.17-.66.35-1.35.64-2.05.9a17.8 17.8 0 003.41-2.78l.56.71zM48.83 25.97c-.58.39-1.23.8-1.88 1.13-.65.33-1.32.61-2 .86a18.09 18.09 0 003.33-2.7l.55.71zM48.65 27.23a18.82 18.82 0 01-3.8 1.91 18.43 18.43 0 003.24-2.62l.56.7zM48.64 28.43a18.26 18.26 0 01-3.7 1.83c1.15-.73 2.2-1.58 3.15-2.54l.55.7zM48.22 29.75c-1.14.72-2.37 1.31-3.62 1.76a18.26 18.26 0 003.07-2.47l.55.71z" fill="#553B2C"/><path d="M47.54 31.15c-1.12.7-2.32 1.24-3.53 1.68 1.08-.7 2.09-1.5 2.98-2.39l.55.71z" fill="#553B2C"/><path d="M46.87 32.55c-1.1.67-2.27 1.17-3.45 1.6 1.04-.7 2.04-1.45 2.9-2.31l.55.71z" fill="#553B2C"/><path d="M54.63 4.49c10-6.4 22.48-4.72 27.87 3.73 5.39 8.45 1.65 20.49-8.35 26.88-10 6.39-22.48 4.72-27.87-3.73-5.38-8.46-1.65-20.5 8.35-26.88z" fill="#fff"/><path d="M54.63 4.49l.33.5c4-2.55 8.4-3.79 12.55-3.79C73.5 1.2 78.94 3.75 82 8.54a15.32 15.32 0 012.37 8.31c0 6.52-3.8 13.44-10.53 17.74-4 2.56-8.4 3.8-12.56 3.8-5.99-.01-11.42-2.56-14.48-7.35a15.31 15.31 0 01-2.37-8.3c0-6.52 3.8-13.44 10.54-17.75l-.33-.5-.32-.51c-7.06 4.51-11.09 11.77-11.1 18.76 0 3.14.83 6.22 2.57 8.95 3.3 5.19 9.17 7.9 15.49 7.9 4.39 0 9.01-1.3 13.2-3.98 7.06-4.51 11.1-11.78 11.1-18.76 0-3.14-.83-6.23-2.57-8.95C79.7 2.7 73.83 0 67.51 0c-4.39 0-9.01 1.3-13.2 3.98l.32.5z" fill="#553B2C"/><path d="M45.27 29.48a16.1 16.1 0 016.52-9.86c3.37-2.5 7.76-3.56 11.88-3.42 3.46.12 6.84-.26 10.13-1.35a28.79 28.79 0 009.43-5.34 14.77 14.77 0 01-3.11 5.02 18.8 18.8 0 01-4.76 3.77A22.53 22.53 0 0163.48 21c-3.37-.09-6.69.4-9.76 1.85a24.77 24.77 0 00-8.45 6.62z" fill="#553B2C"/><path d="M46.3 30.94s11.73 11.22 27.02.37C88.61 20.46 82.5 8.2 82.5 8.2s8.58 13.7-7.1 26.04c0 0-18.92 12.52-29.1-3.3zM77.13 5.57a20.05 20.05 0 00-4.9-1.82c-1.7-.38-3.43-.65-5.17-.6-1.74.01-3.48.17-5.17.59-1.71.35-3.36.96-5.01 1.59.78-.4 1.56-.83 2.38-1.18.83-.3 1.65-.66 2.52-.86a19.29 19.29 0 0110.56.01c1.7.5 3.36 1.22 4.79 2.27zM69.21 22.83c-.97.45-2.04.71-3.1.85-1.08.13-2.17.18-3.25.08-1.06-.1-2.1-.08-3.15.03-1.04.1-2.1.29-3.07.62h-.02c-1.3.4-2.6.95-3.84 1.6a37.82 37.82 0 00-3.61 2.14 24.47 24.47 0 013.44-2.45c1.23-.7 2.48-1.36 3.87-1.8l-.03.01c2.08-.74 4.3-.93 6.45-.67 1.05.1 2.11.15 3.17.09 1.05-.08 2.11-.2 3.14-.5z" fill="#553B2C"/><path d="M73.43 31.92L72 28.27l2.24 3.27-.82.38zM74.57 32.04c-.36-1.55-.9-3.1-1.5-4.62.87 1.38 1.69 2.8 2.36 4.35l-.86.27zM75.24 30.87a19.52 19.52 0 00-1.08-4.23 19.91 19.91 0 011.96 4.02l-.88.2zM76.16 30a18.98 18.98 0 00-1.12-4.43 19.4 19.4 0 012 4.23l-.88.2zM77.15 28.82c-.18-1.35-.55-2.7-1.03-4.02.75 1.19 1.41 2.45 1.9 3.8l-.87.22zM78.32 29.2c-.07-.51-.1-.94-.18-1.4-.07-.47-.16-.93-.27-1.38-.22-.9-.52-1.8-.86-2.7a22 22 0 011.8 3.91c.14.45.26.96.39 1.36l-.88.22zM79.06 27.83l-.19-1.38a21.41 21.41 0 00-1.1-3.96 21.86 21.86 0 011.76 3.8l.4 1.32-.87.22zM79.74 26.38c-.12-.92-.23-1.77-.45-2.64-.21-.87-.5-1.72-.81-2.56.45.77.87 1.58 1.23 2.41.37.83.66 1.74.9 2.57l-.87.22zM80.56 25.11a22.16 22.16 0 00-1.24-5.06 22.34 22.34 0 012.12 4.85l-.88.21zM81.32 23.77c-.12-.85-.25-1.67-.45-2.49-.2-.82-.47-1.63-.77-2.43a22.78 22.78 0 012.1 4.7l-.88.22zM82.22 22.62a21.8 21.8 0 00-1.2-4.78 22.25 22.25 0 012.08 4.57l-.88.21zM82.82 21.05a22.28 22.28 0 00-1.17-4.65 22.72 22.72 0 012.04 4.43l-.87.22zM83.22 19.2a22.76 22.76 0 00-1.14-4.5c.8 1.34 1.5 2.77 2.02 4.28l-.88.21zM83.63 17.35c-.2-1.46-.62-2.93-1.12-4.36a23.4 23.4 0 012 4.15l-.88.21zM68.73 35.95c-.58-.74-.97-1.51-1.39-2.28l-1.21-2.3 1.59 2.05c.53.67 1.07 1.38 1.66 1.9l-.65.63zM70.06 35.31a43.5 43.5 0 01-2.65-4.47 43.1 43.1 0 003.35 3.9l-.7.57zM71.29 34.62a32.52 32.52 0 01-2.7-4.3c1.06 1.3 2.14 2.6 3.35 3.67l-.65.63zM71.6 33.4l-1.75-3.7 2.52 3.23-.76.48zM72.64 32.77l-1.72-3.83 2.5 3.37-.78.46zM67.38 36.03a19.1 19.1 0 01-2.53-4.48 18.59 18.59 0 003.19 3.86l-.66.62zM66.74 36.9c-.26-.33-.67-.77-.96-1.17-.32-.42-.61-.85-.88-1.29-.53-.88-1-1.8-1.4-2.73.54.86 1.13 1.7 1.77 2.47.32.38.66.75 1.01 1.1.37.37.7.63 1.15 1.03l-.7.59zM65.26 36.87c-.26-.33-.64-.75-.93-1.15-.3-.41-.59-.83-.85-1.26-.52-.86-.97-1.76-1.36-2.67.53.84 1.1 1.65 1.73 2.4.31.38.64.74.99 1.08.35.36.7.63 1.1 1.02l-.68.58zM63.9 37.19c-.26-.34-.62-.75-.9-1.14a22.01 22.01 0 01-2.15-3.84 21.74 21.74 0 002.66 3.4c.34.34.68.62 1.07 1l-.69.58zM62.41 37.17l-.86-1.12a21.88 21.88 0 01-2.09-3.76 21.72 21.72 0 002.6 3.32c.34.33.67.61 1.04.98l-.69.58zM60.87 36.95l-.83-1.11a21.89 21.89 0 01-2.02-3.67 21.5 21.5 0 002.54 3.23l1 .97-.7.58zM59.3 36.64c-.53-.7-1.1-1.46-1.54-2.25-.46-.78-.86-1.6-1.22-2.42.5.75 1.01 1.48 1.59 2.16.57.7 1.18 1.29 1.85 1.93l-.69.58zM57.8 36.56a22.02 22.02 0 01-2.65-4.58 21.79 21.79 0 003.33 4l-.69.58zM56.26 36.38a22.7 22.7 0 01-2.56-4.47 22.61 22.61 0 003.25 3.89l-.7.58zM54.8 36.43a22.12 22.12 0 01-2.46-4.37c.92 1.39 1.97 2.65 3.15 3.79l-.69.58zM53.18 35.98a22.74 22.74 0 01-2.36-4.27c.9 1.34 1.91 2.58 3.05 3.69l-.7.58zM51.45 35.2a23.06 23.06 0 01-2.26-4.16c.87 1.3 1.85 2.52 2.95 3.59l-.69.58zM49.73 34.45a23.35 23.35 0 01-2.17-4.07c.86 1.26 1.8 2.46 2.86 3.49l-.7.58z" fill="#553B2C"/><path d="M10.16 24.77c-.15 3.32-2.55 5.91-5.36 5.78C2 30.42-.15 27.62 0 24.29c.16-3.33 2.56-5.92 5.37-5.78 2.8.13 4.95 2.93 4.8 6.26z" fill="#B88C43"/><path d="M5.96 18.58s.15.14.34.44c.1.16.2.34.3.57l.16.38.12.43.1.48c.02.17.05.35.05.53a5 5 0 01-.48 2.34c-.1.18-.18.38-.3.56l-.36.53-.33.47c-.12.16-.18.3-.28.45-.18.3-.34.64-.46.95-.08.16-.12.33-.17.49-.06.15-.1.31-.14.47a7.37 7.37 0 00-.18 2.3l.04.4.02.14s-.12-.17-.26-.5a4.68 4.68 0 01-.36-1.44 5.44 5.44 0 01.2-2.14c.05-.2.1-.39.19-.58.08-.19.14-.38.26-.57.1-.18.2-.4.32-.55l.34-.5.32-.45.27-.47a5.85 5.85 0 00.6-1.92l.04-.47v-.44l-.03-.4-.05-.37a9.04 9.04 0 00-.12-.6l-.1-.4-.05-.13z" fill="#FFFDFC"/></svg>