<svg width="118" height="30" fill="none" xmlns="http://www.w3.org/2000/svg"><path d="M46.1 17.21h-4.23v-3.17h4.24c.58 0 1.05-.1 1.4-.3.37-.2.63-.46.8-.8a3.25 3.25 0 0 0 0-2.48 2.1 2.1 0 0 0-.8-.97 2.41 2.41 0 0 0-1.4-.38h-2.7V23h-4.1V5.94h6.8a7.7 7.7 0 0 1 3.53.75 5.49 5.49 0 0 1 3.08 5.04c0 1.1-.27 2.06-.8 2.88a5.3 5.3 0 0 1-2.28 1.92c-.99.45-2.16.68-3.53.68ZM60.72 23.23a7.5 7.5 0 0 1-2.76-.48 6.02 6.02 0 0 1-2.07-1.34 5.98 5.98 0 0 1-1.7-4.33v-.44c0-.93.12-1.8.38-2.58.26-.8.64-1.5 1.15-2.09.5-.6 1.14-1.05 1.9-1.38a6.6 6.6 0 0 1 2.68-.5c.9 0 1.7.14 2.41.43.72.29 1.32.7 1.8 1.24.5.54.89 1.2 1.15 1.96.26.76.4 1.62.4 2.58v1.6H55.7v-2.47h6.5v-.3c0-.43-.07-.79-.22-1.08-.15-.3-.37-.53-.66-.68a2.2 2.2 0 0 0-1.05-.24c-.43 0-.79.1-1.07.28a1.9 1.9 0 0 0-.65.78c-.14.32-.25.69-.31 1.11-.06.42-.1.87-.1 1.34v.44c0 .47.07.9.2 1.28.12.38.31.71.55.98.25.27.55.48.9.62.35.15.75.23 1.2.23.53 0 1.06-.1 1.58-.3.53-.21.98-.55 1.35-1.02l1.8 2.14c-.26.36-.63.72-1.1 1.06a6.1 6.1 0 0 1-1.7.85c-.65.2-1.38.31-2.2.31ZM74.34 10.32v2.74H66.7v-2.74h7.64ZM68.3 7.17h3.95v11.7c0 .33.04.6.12.78.08.18.21.3.4.39.2.07.45.1.77.1l.57-.01.42-.06v2.82a6.98 6.98 0 0 1-2.23.34c-.84 0-1.57-.13-2.17-.4a2.83 2.83 0 0 1-1.36-1.25 4.62 4.62 0 0 1-.47-2.22V7.16ZM84.36 5.94V23h-4.11V5.94h4.1Zm5.13 0V9.1H75.23V5.94H89.5ZM94.26 13.46V23h-3.95V10.32h3.7l.25 3.14Zm3.75-3.23-.07 3.66a59.59 59.59 0 0 0-1.3-.09c-.46 0-.86.06-1.2.16a1.84 1.84 0 0 0-1.29 1.24c-.09.32-.13.68-.12 1.1l-.72-.47c0-.85.08-1.63.25-2.32.17-.7.41-1.31.73-1.82.3-.51.69-.9 1.13-1.18.45-.28.95-.42 1.5-.42a4.63 4.63 0 0 1 1.1.14ZM103.54 10.32V23h-3.96V10.32h3.96Zm-4.2-3.27c0-.56.21-1.02.62-1.38.4-.36.93-.54 1.58-.54s1.17.18 1.58.54c.4.36.61.82.61 1.38 0 .56-.2 1.02-.6 1.38-.41.36-.94.54-1.6.54a2.3 2.3 0 0 1-1.57-.54c-.4-.36-.61-.82-.61-1.38ZM109.97 12.76v15.12h-3.95V10.32h3.67l.28 2.44Zm7.78 3.75v.24c0 .93-.1 1.78-.32 2.57a6.4 6.4 0 0 1-.94 2.06 4.4 4.4 0 0 1-1.55 1.37 4.5 4.5 0 0 1-2.12.48 3.67 3.67 0 0 1-3.32-1.9 8.4 8.4 0 0 1-.9-2.03c-.22-.77-.4-1.58-.53-2.43v-.32a19 19 0 0 1 .54-2.54c.22-.79.52-1.47.89-2.06.36-.59.82-1.04 1.36-1.37.54-.33 1.2-.5 1.95-.5.8 0 1.51.16 2.12.46.62.3 1.14.75 1.55 1.32.42.56.74 1.23.95 2.02.21.8.32 1.67.32 2.63Zm-3.95.24v-.24c0-.5-.04-.94-.1-1.35a3.72 3.72 0 0 0-.35-1.08c-.15-.3-.35-.54-.6-.7a1.65 1.65 0 0 0-.92-.25c-.42 0-.78.07-1.07.2-.28.13-.5.32-.68.59a2.7 2.7 0 0 0-.35.97c-.06.38-.09.83-.08 1.35v.96c-.02.6.04 1.12.17 1.57.14.44.37.8.7 1.04.32.25.77.38 1.33.38.38 0 .69-.09.94-.26.25-.18.45-.43.6-.74.14-.32.25-.69.31-1.1.07-.41.1-.86.1-1.34Z" fill="#444"/><path fill-rule="evenodd" clip-rule="evenodd" d="M15 7c0 3.31-2.01 5-4.5 5S6 10.31 6 7s3.01-7 5.5-7S15 3.69 15 7Zm2 0c0 3.31 2.01 5 4.5 5S26 10.31 26 7s-3.01-7-5.5-7S17 3.69 17 7ZM4 20c2.2 0 4-1.46 4-4.5S5.2 9 3 9s-3 3.46-3 6.5S1.8 20 4 20Zm20-4.5c0 3.04 1.8 4.5 4 4.5s4-1.46 4-4.5S31.2 9 29 9s-5 3.46-5 6.5Zm-.9 3.64c.32.63.9 1.06 1.46 1.5C26.05 21.8 27 23.1 27 25c0 3.31-2.91 5-6.5 5-.78 0-1.52-.13-2.21-.36a7.45 7.45 0 0 0-4.58 0 6.83 6.83 0 0 1-2.21.36C7.91 30 5 28.31 5 25c0-1.9.95-3.2 2.44-4.36.56-.44 1.14-.87 1.47-1.5C10.17 16.7 10.6 12 16 12c5.4 0 5.83 4.7 7.1 7.14Z" fill="#3680A9"/></svg>