<svg width="198" height="28" fill="none" xmlns="http://www.w3.org/2000/svg"><path d="M37.65 24a2575.1 2575.1 0 002.66-5l2.3-4.3v.92l-2.02-3.54a1417.84 1417.84 0 00-2.98-5.2h4.49a2380.99 2380.99 0 002 3.81l1.17 2.25h.3l1.13-2.26.92-1.85.97-1.94h4.35c-.5.94-1 1.84-1.47 2.7l-1.27 2.36-2.2 4.08v-1.05l2.25 3.75 1.6 2.65L53.42 24h-4.66a1756.39 1756.39 0 01-1.9-3.5l-1.43-2.63h-.3l-1.34 2.65A162.57 162.57 0 0042.03 24h-4.38zm26 .32c-1.54 0-2.88-.23-4-.7a7.64 7.64 0 01-4.42-4.8 10.63 10.63 0 01-.53-3.36c0-1.67.33-3.17.98-4.52a7.63 7.63 0 012.95-3.21 9.35 9.35 0 014.91-1.19c1.49 0 2.79.23 3.9.7a7.5 7.5 0 012.77 1.9c.75.82 1.3 1.76 1.67 2.84.37 1.07.55 2.22.55 3.45 0 1.7-.34 3.23-1.02 4.56a7.6 7.6 0 01-2.96 3.17 9.24 9.24 0 01-4.8 1.16zm-.06-3.25c.8 0 1.48-.15 2.08-.44a4.2 4.2 0 001.47-1.25c.4-.53.69-1.13.88-1.8a7.57 7.57 0 00-.03-4.36 5.33 5.33 0 00-.92-1.8 4.22 4.22 0 00-3.48-1.63 4.2 4.2 0 00-3.55 1.68c-.4.52-.7 1.12-.91 1.8a7.62 7.62 0 00-.01 4.32c.2.67.49 1.27.88 1.8.4.52.9.93 1.49 1.24.6.3 1.3.44 2.1.44zM77.27 24a218.47 218.47 0 002.1-4.66l-3.62-7.54a921.72 921.72 0 00-2.35-4.91h4.44a227.94 227.94 0 011.2 3.02 206.61 206.61 0 011.05 2.62l1.24 3.08h.29l1.17-3.03a88.72 88.72 0 001.03-2.68A303.9 303.9 0 0085 6.89h4.26a900.43 900.43 0 00-2.87 6.31l-2.45 5.4-1.2 2.69L81.5 24h-4.23zm12.9 0a308.66 308.66 0 00.7-5.6l.71-5.74a299.35 299.35 0 00.72-5.77h4l1.09 2.8 1.04 2.66 2.04 5.23h.27l1.98-5.22a1444.46 1444.46 0 002.05-5.47h3.95l.34 2.82.39 2.96.73 5.76a706.24 706.24 0 00.7 5.57h-3.75a591.47 591.47 0 00-.79-6.46l-.5-4.05h-.27l-1.48 4.35-1.1 3.2c-.36 1.04-.7 2.03-1 2.96h-2.62a228.23 228.23 0 00-1.53-4.03l-.8-2.11-1.66-4.37h-.26l-.5 4.03c-.1.95-.23 1.97-.36 3.06L93.85 24h-3.69zm37.56 3.65l-.21-4.26.7.61H114.5v-2.68-8.7-3V6.9h3.95V23.36l-1.83-2.65h14.41v6.94h-3.3zm-2.84-4.29V20.7 12.6 9.62 6.9h3.96V23.36h-3.96zm9 .64v-2.68-8.7-3V6.9h11.37v3.23H135.88l1.88-2.6V23.37l-1.63-2.6h9.24V24H133.9zm2.97-7.13v-3h8.02v3h-8.02zM159.62 24v-2.68-8.7-3V6.9h3.96V24h-3.96zm-10.67 0v-2.68-8.7-3V6.9h3.95V24h-3.95zm2.87-6.97v-3.29h8.96v3.29h-8.96zM171.76 24v-2.68-8.08-3-2.73l1.49 2.82h-6.67V6.9h14.28v3.44h-6.66l1.5-2.82V24h-3.94zm12.11 0v-2.68-8.7-3V6.9H190.73c1.39 0 2.54.17 3.47.51a3.9 3.9 0 012.1 1.7c.47.8.71 1.85.71 3.18 0 1.12-.2 2.12-.6 2.98a4.38 4.38 0 01-1.94 2.02c-.9.48-2.08.72-3.56.72h-3.64v-3H190c.7 0 1.26-.1 1.7-.28.44-.18.76-.46.97-.85.21-.39.32-.9.32-1.51 0-.49-.07-.89-.23-1.2a1.7 1.7 0 00-.58-.72 2.3 2.3 0 00-.83-.35c-.3-.07-.6-.1-.9-.1h-4.59l1.89-2.48V24h-3.89z" fill="#030A23"/><path d="M7.92 0v16.02L25 20.57V4.55L7.92 0zm.98 1.2l15.13 4.04v14.12L8.9 15.33V1.2z" fill="#2D54E2"/><path d="M17.08 28L0 23.45V7.43l17.08 4.55V28z" fill="#2D54E2"/><path d="M7.92 0L0 7.43l17.08 4.55L25 4.55 7.92 0zm.29 1.02L23.15 5l-6.36 5.96L1.85 6.98l6.36-5.96zM18.04 27.1L25 20.57l-6.96-1.86v8.39z" fill="#2D54E2"/></svg>