<svg width="26" height="26" viewBox="0 0 26 26" fill="none" xmlns="http://www.w3.org/2000/svg">
<path d="M21.3495 25.5549C15.7888 26.1484 10.2112 26.1484 4.65045 25.5549C2.43314 25.3182 0.681778 23.5669 0.445129 21.3493C-0.148376 15.7886 -0.148376 10.2112 0.445129 4.65045C0.681778 2.43314 2.43314 0.681778 4.65045 0.445129C10.2112 -0.148376 15.7886 -0.148376 21.3493 0.445129C23.5669 0.681778 25.3182 2.43314 25.5549 4.65045C26.1484 10.2112 26.1484 15.7886 25.5549 21.3493C25.3182 23.5669 23.5671 25.3182 21.3495 25.5549Z" fill="url(#paint0_linear)"/>
<path d="M24.1407 5.5909C23.9309 3.62333 22.3769 2.06915 20.4091 1.85908C15.4746 1.33262 10.5254 1.33262 5.5909 1.85908C3.62333 2.06915 2.06915 3.62333 1.85908 5.5909C1.33262 10.5254 1.33262 15.4746 1.85908 20.4089C2.06915 22.3767 3.62333 23.9309 5.5909 24.1407C10.5254 24.6674 15.4746 24.6674 20.4089 24.1407C22.3767 23.9309 23.9309 22.3767 24.1407 20.4089C24.6674 15.4746 24.6674 10.5254 24.1407 5.5909Z" fill="url(#paint1_linear)"/>
<path d="M0.389587 20.8104C0.40744 20.9901 0.425888 21.1699 0.445129 21.3496C0.681778 23.5669 2.43314 25.3183 4.65065 25.5549C10.2114 26.1484 15.7888 26.1484 21.3495 25.5549C23.5671 25.3183 25.3182 23.5669 25.5549 21.3496C25.5741 21.1699 25.5926 20.9901 25.6106 20.8104H0.389587Z" fill="url(#paint2_linear)"/>
<path d="M17.4797 4.33008C15.2143 4.33008 13.3781 6.16653 13.3781 8.43185V11.4956H11.1707V15.2889L13.3781 17.266V25.9988C16.0366 25.9859 18.6948 25.8381 21.3495 25.5549C23.5671 25.3182 25.3182 23.5668 25.5549 21.3493C25.9964 17.2119 26.1093 13.0652 25.8937 8.923L21.3008 4.33008H17.4797Z" fill="url(#paint3_linear)"/>
<path d="M13.3781 25.9988C14.893 25.9915 16.4077 25.9401 17.9218 25.8449V15.2889H20.9366L21.3008 11.4956H17.9218V9.08685C17.9218 8.55484 18.3531 8.1236 18.8851 8.1236H21.3008V4.33008H17.4797C15.2143 4.33008 13.3781 6.16653 13.3781 8.43185V11.4956H11.1707V15.2889H13.3781V25.9988Z" fill="white"/>
<defs>
<linearGradient id="paint0_linear" x1="8.63251" y1="3.65555" x2="15.2087" y2="17.7254" gradientUnits="userSpaceOnUse">
<stop stop-color="#3457A0"/>
<stop offset="1" stop-color="#3B5998"/>
</linearGradient>
<linearGradient id="paint1_linear" x1="17.9321" y1="16.3888" x2="-4.79618" y2="0.772305" gradientUnits="userSpaceOnUse">
<stop stop-color="#3457A0" stop-opacity="0"/>
<stop offset="1" stop-color="#1F3F77"/>
</linearGradient>
<linearGradient id="paint2_linear" x1="13" y1="21.728" x2="13" y2="25.2463" gradientUnits="userSpaceOnUse">
<stop stop-color="#3457A0" stop-opacity="0"/>
<stop offset="1" stop-color="#1F3F77"/>
</linearGradient>
<linearGradient id="paint3_linear" x1="29.8481" y1="21.4718" x2="11.8019" y2="12.3722" gradientUnits="userSpaceOnUse">
<stop stop-color="#3457A0" stop-opacity="0"/>
<stop offset="0.3251" stop-color="#2A4C8D" stop-opacity="0.32549"/>
<stop offset="0.7045" stop-color="#22427D" stop-opacity="0.705882"/>
<stop offset="1" stop-color="#1F3F77"/>
</linearGradient>
</defs>
</svg>
