<svg width="100" height="34" viewBox="0 0 100 34" fill="none" xmlns="http://www.w3.org/2000/svg">
<path fill-rule="evenodd" clip-rule="evenodd" d="M93.0187 0.97784H6.98939C1.85473 0.97784 1 2.7109 1 6.83243V27.1822C1 31.3006 2.75868 33 6.98355 33H93.0191C97.2474 33 99.0676 31.2982 99.0676 27.1769V6.83243C99.0676 2.7109 97.2464 0.97784 93.0187 0.97784Z" fill="black"/>
<path fill-rule="evenodd" clip-rule="evenodd" d="M26.5679 20.9105C26.0739 21.9777 25.8375 22.454 25.2017 23.3971C24.3142 24.7143 23.0637 26.354 21.5142 26.3677C20.137 26.3802 19.7835 25.494 17.9148 25.5041C16.0461 25.514 15.6557 26.3833 14.2784 26.371C12.7288 26.3571 11.5438 24.8762 10.6563 23.5597C8.17492 19.8776 7.91567 15.5564 9.44579 13.2592C10.5335 11.6266 12.2488 10.6709 13.8622 10.6709C15.5046 10.6709 16.5372 11.549 17.8952 11.549C19.2124 11.549 20.0154 10.6695 21.9141 10.6695C23.3495 10.6695 24.8703 11.4312 25.9541 12.749C22.4036 14.6455 22.9802 19.589 26.5679 20.9105Z" fill="white"/>
<path fill-rule="evenodd" clip-rule="evenodd" d="M20.4737 9.19867C21.1632 8.33558 21.6875 7.1161 21.4974 5.87034C20.3707 5.94597 19.0521 6.6449 18.2822 7.55612C17.5836 8.38352 17.007 9.61044 17.2315 10.8027C18.4617 10.8398 19.7346 10.1235 20.4737 9.19867Z" fill="white"/>
<path fill-rule="evenodd" clip-rule="evenodd" d="M44.1036 19.6783C43.6939 19.6783 43.3237 19.8099 42.989 20.0747C42.6546 20.3433 42.4363 20.691 42.333 21.1214C42.2825 21.3231 42.256 21.4866 42.256 21.6176V22.8314C42.256 23.3626 42.421 23.8118 42.7566 24.177C43.0896 24.5387 43.5245 24.7225 44.0573 24.7225C44.6819 24.7225 45.1732 24.4888 45.5215 24.0174C45.8704 23.5469 46.0435 22.9269 46.0435 22.1544C46.0435 21.4458 45.8815 20.8599 45.5526 20.401C45.1916 19.9229 44.71 19.6783 44.1036 19.6783ZM74.5287 19.5774C73.8633 19.5774 73.3549 19.8653 73.0078 20.4449C72.707 20.9218 72.5595 21.5041 72.5595 22.1927C72.5595 22.864 72.707 23.4361 73.0078 23.9142C73.3633 24.4927 73.8667 24.7806 74.5163 24.7806C75.1485 24.7806 75.6486 24.4888 76.0057 23.8962C76.3156 23.4122 76.4703 22.8314 76.4703 22.1648C76.4703 21.4975 76.3218 20.9218 76.026 20.4449C75.6722 19.8653 75.1761 19.5774 74.5287 19.5774ZM52.3262 19.6783C51.9143 19.6783 51.5463 19.8099 51.2112 20.0747C50.8777 20.3433 50.6528 20.691 50.5496 21.1214C50.4984 21.3231 50.4686 21.4866 50.4686 21.6176V22.8314C50.4686 23.3626 50.6386 23.8118 50.9736 24.177C51.3065 24.5387 51.7438 24.7225 52.275 24.7225C52.9044 24.7225 53.3926 24.4888 53.7419 24.0174C54.0917 23.5469 54.2677 22.9269 54.2677 22.1544C54.2677 21.4458 54.1026 20.8599 53.7753 20.401C53.4134 19.9229 52.9308 19.6783 52.3262 19.6783ZM35.145 17.0831H35.1159C35.0114 17.554 34.8495 18.1808 34.6216 19.0223L33.7592 21.6981H36.5449L35.6711 19.0223C35.5766 18.751 35.4003 18.0249 35.145 17.0831ZM87.1389 19.498C86.5962 19.498 86.1553 19.769 85.815 20.2066C85.5382 20.5559 85.3723 20.9446 85.3222 21.5097H88.7859C88.7949 20.9446 88.6897 20.5724 88.4641 20.2203C88.1755 19.7718 87.7329 19.498 87.1389 19.498ZM37.809 25.7479L36.84 22.8283H33.4674L32.5425 25.7479H30.82L34.1578 15.6704H36.223L39.5809 25.7479H37.809ZM46.7006 25.0399C46.0825 25.6775 45.3108 25.9979 44.3935 25.9979C43.4004 25.9979 42.7391 25.6534 42.256 24.9605V28.856H40.6135V20.9356C40.6135 20.1559 40.5755 19.4377 40.5333 18.4958H41.9959L42.0877 19.7202H42.1168C42.674 18.8726 43.5141 18.4051 44.6447 18.4051C45.5273 18.4051 46.2618 18.7358 46.8555 19.4178C47.4437 20.0965 47.7398 20.9908 47.7398 22.1006C47.7398 23.3446 47.3942 24.3179 46.7006 25.0399ZM54.921 25.0399C54.3013 25.6775 53.5284 25.9979 52.6087 25.9979C51.6185 25.9979 50.9517 25.6534 50.4686 24.9605V28.856H48.8261V20.9356C48.8261 20.1559 48.7956 19.4377 48.7556 18.4958H50.2141L50.3103 19.7202H50.3389C50.897 18.8726 51.7357 18.4051 52.8645 18.4051C53.7477 18.4051 54.4842 18.7358 55.0742 19.4178C55.6658 20.0965 55.9603 20.9908 55.9603 22.1006C55.9603 23.3446 55.6146 24.3179 54.921 25.0399ZM64.5276 25.0964C63.8488 25.6876 62.9076 25.9814 61.7003 25.9814C60.5814 25.9814 59.6867 25.7703 59.0111 25.352L59.3973 24.0016C60.1254 24.4199 60.9254 24.6321 61.7958 24.6321C62.4247 24.6321 62.9109 24.4927 63.2603 24.2196C63.6073 23.9455 63.782 23.5781 63.782 23.1121C63.782 22.7075 63.6382 22.3621 63.3526 22.0803C63.0625 21.8007 62.5891 21.5425 61.9212 21.3C60.1063 20.6416 59.1972 19.6761 59.1972 18.4057C59.1972 17.5756 59.5142 16.893 60.1569 16.3634C60.7985 15.8344 61.6476 15.5684 62.7059 15.5684C63.6496 15.5684 64.4355 15.7297 65.0626 16.0477L64.643 17.3689C64.0581 17.0597 63.3932 16.9028 62.6517 16.9028C62.0655 16.9028 61.6059 17.0483 61.2752 17.3219C60.9988 17.5756 60.8599 17.8805 60.8599 18.2395C60.8599 18.637 61.0192 18.9687 61.3367 19.2326C61.6147 19.4717 62.1178 19.7303 62.8439 20.0101C63.7399 20.3577 64.3944 20.7704 64.8168 21.242C65.2363 21.7119 65.4478 22.2963 65.4478 22.9954C65.4478 23.8568 65.139 24.5591 64.5276 25.0964ZM70.372 19.8144H68.6328V23.2986C68.6328 24.1984 68.9192 24.6445 69.5661 24.6445C69.8636 24.6445 70.0881 24.6234 70.2849 24.5738L70.3223 25.8015C69.9933 25.9216 69.5582 25.9824 69.0243 25.9824C68.3708 25.9824 67.8364 25.7899 67.468 25.3969C67.0951 25.0086 66.8937 24.3524 66.8937 23.4319V19.8144H65.8309V18.4958H66.8937V17.204L68.6328 16.7236V18.4958H70.372V19.8144ZM77.2105 24.8897C76.521 25.6282 75.6075 25.9979 74.4708 25.9979C73.3706 25.9979 72.4931 25.643 71.8418 24.9324C71.1911 24.224 70.8666 23.325 70.8666 22.2458C70.8666 21.1165 71.2017 20.1897 71.8739 19.4705C72.5471 18.7473 73.4504 18.392 74.5895 18.392C75.6919 18.392 76.5738 18.7435 77.2409 19.4573C77.8754 20.1437 78.1937 21.037 78.1937 22.1263C78.1937 23.2503 77.8674 24.1672 77.2105 24.8897ZM83.2222 19.9641C83.1256 19.9349 82.8692 19.9229 82.6858 19.9229C82.1009 19.9229 81.6441 20.1377 81.3252 20.5671C81.0473 20.9481 80.9034 21.4213 80.9034 22.0063V25.7479H79.2609V20.8329C79.2609 19.9974 79.2252 19.2493 79.1959 18.4958H80.6426L80.7044 20.0028H80.75C80.9239 19.5319 81.1994 19.1036 81.5813 18.8158C81.9509 18.5527 82.3658 18.4096 82.7966 18.4096C82.9491 18.4096 83.1256 18.4003 83.2222 18.42V19.9641ZM90.3112 22.6399H85.3222C85.3419 23.2992 85.5832 23.8773 86.0467 24.2565C86.4663 24.5975 87.0097 24.7531 87.6778 24.7531C88.418 24.7531 89.0885 24.6309 89.6948 24.3972L89.9563 25.5206C89.251 25.8233 88.4124 25.9679 87.4455 25.9679C86.288 25.9679 85.3768 25.6362 84.7148 24.9712C84.0533 24.3063 83.7198 23.4127 83.7198 22.293C83.7198 21.1904 84.0292 20.2767 84.6434 19.5432C85.293 18.764 86.1654 18.3745 87.2616 18.3745C88.3426 18.3745 89.1577 18.7639 89.7099 19.543C90.1498 20.1651 90.372 20.962 90.372 21.8727C90.372 22.1605 90.3506 22.4515 90.3112 22.6399Z" fill="white"/>
<path d="M33.5504 9.56186C33.5504 10.2745 33.471 10.9174 33.2962 11.4674C33.1928 11.8082 33.0419 12.1412 32.8988 12.397H34.941V8.74078H33.5504V9.56186ZM35.9184 7.9584V12.4201L36.427 12.4434L36.3713 14.4728H35.6244L35.5688 13.1792H32.3187L32.2631 14.4728H31.5162L31.4684 12.4434L31.8976 12.4201C32.1042 12.0561 32.2949 11.6766 32.414 11.266C32.5809 10.7083 32.6446 10.0731 32.6446 9.3217V7.9584H35.9184Z" fill="white"/>
<path d="M37.8815 11.297C37.8815 12.0251 38.247 12.575 38.843 12.575C39.3993 12.575 39.7886 12.0406 39.7886 11.2814C39.7886 10.6928 39.5185 10.0189 38.851 10.0189C38.1597 10.0189 37.8815 10.6695 37.8815 11.297ZM40.7978 11.2583C40.7978 12.6447 39.7966 13.2645 38.8113 13.2645C37.7146 13.2645 36.8723 12.5286 36.8723 11.3203C36.8723 10.0808 37.7067 9.32169 38.8748 9.32169C40.027 9.32169 40.7978 10.1118 40.7978 11.2583Z" fill="white"/>
<path d="M44.4456 13.063C44.239 13.1561 43.8337 13.2568 43.349 13.2568C42.1412 13.2568 41.3544 12.5054 41.3544 11.3357C41.3544 10.2048 42.1491 9.32172 43.5079 9.32172C43.8655 9.32172 44.231 9.39923 44.4536 9.49992L44.2788 10.2125C44.1198 10.1428 43.8894 10.0654 43.5397 10.0654C42.7928 10.0654 42.3478 10.5999 42.3557 11.2892C42.3557 12.0639 42.8722 12.5054 43.5397 12.5054C43.8814 12.5054 44.1198 12.4357 44.3106 12.3583L44.4456 13.063Z" fill="white"/>
<path d="M48.1567 9.4069V10.1428H46.9965V13.1792H46.0191V10.1428H44.8589V9.4069H48.1567Z" fill="white"/>
<path d="M49.4918 9.40691L50.1911 11.4286C50.2706 11.661 50.35 11.9476 50.4057 12.1645H50.4295C50.4931 11.9476 50.5646 11.6688 50.6361 11.4209L51.2401 9.40691H52.2889L51.3195 11.9786C50.7871 13.3884 50.4295 14.0158 49.9686 14.4031C49.5872 14.7362 49.1899 14.8601 48.9435 14.8912L48.721 14.0855C48.8879 14.0468 49.0945 13.9616 49.2932 13.8221C49.476 13.706 49.6905 13.4814 49.8256 13.2257C49.8653 13.156 49.8891 13.1018 49.8891 13.0553C49.8891 13.0166 49.8812 12.9624 49.8335 12.8694L48.4191 9.40691H49.4918Z" fill="white"/>
<path d="M56.2625 9.4069V13.1792H55.2771V10.1428H53.8229V13.1792H52.8455V9.4069H56.2625Z" fill="white"/>
<path d="M58.2732 9.4069V10.8476H59.7671V9.4069H60.7445V13.1792H59.7671V11.5913H58.2732V13.1792H57.2958V9.4069H58.2732Z" fill="white"/>
<path d="M62.5487 11.297C62.5487 12.0251 62.9143 12.575 63.5102 12.575C64.0664 12.575 64.4558 12.0406 64.4558 11.2814C64.4558 10.6928 64.1857 10.0189 63.5181 10.0189C62.8268 10.0189 62.5487 10.6695 62.5487 11.297ZM65.465 11.2583C65.465 12.6447 64.4637 13.2645 63.4784 13.2645C62.3818 13.2645 61.5395 12.5286 61.5395 11.3203C61.5395 10.0808 62.3739 9.32169 63.542 9.32169C64.6942 9.32169 65.465 10.1118 65.465 11.2583Z" fill="white"/>
<path d="M68.8584 10.9329H69.2637C69.7643 10.9329 70.1776 10.7935 70.1776 10.4372C70.1776 10.1351 69.9074 9.97242 69.3273 9.97242C69.1366 9.97242 69.0094 9.98796 68.8584 10.0034V10.9329ZM68.8505 12.606C69.0094 12.6215 69.1287 12.6293 69.3273 12.6293C69.7722 12.6293 70.3126 12.5131 70.3126 12.0716C70.3126 11.6456 69.8836 11.5062 69.2717 11.5062H68.8505V12.606ZM67.9049 9.45347C68.191 9.40695 68.779 9.36042 69.3114 9.36042C69.9631 9.36042 71.139 9.44565 71.139 10.3133C71.139 10.7935 70.7577 11.0647 70.3444 11.1498V11.1653C70.9166 11.2505 71.3139 11.5603 71.3139 12.0871C71.3139 13.1251 69.9153 13.2258 69.1366 13.2258C68.6519 13.2258 68.1353 13.1948 67.9049 13.1715V9.45347Z" fill="white"/>
</svg>
