<svg width="100" height="34" viewBox="0 0 100 34" fill="none" xmlns="http://www.w3.org/2000/svg">
<path fill-rule="evenodd" clip-rule="evenodd" d="M93.0187 0.97784H6.9894C1.85477 0.97784 1 2.7109 1 6.83243V27.1822C1 31.3006 2.75865 33 6.98355 33H93.0191C97.2474 33 99.0677 31.2982 99.0677 27.1769V6.83243C99.0677 2.7109 97.2464 0.97784 93.0187 0.97784Z" fill="black"/>
<path d="M14.9695 15.1732L11.5629 15.6405V18.1734H14.9695V15.1732ZM14.9664 21.8209V18.5981H11.5635V21.354L14.9664 21.8209ZM19.6916 14.5332L15.4003 15.1483V18.1734H19.6916V14.5332ZM15.3997 18.5977V21.8461L19.6909 22.4612V18.5977H15.3997ZM26.6573 26.0023L23.6107 27.0845L8.25934 24.0831V13.2073L23.6066 10.2062L26.6573 11.3128V26.0023Z" fill="white"/>
<path d="M12.9982 11.6048C12.8125 11.6377 12.6326 11.6694 12.4463 11.7025C12.4463 11.6762 12.4463 11.656 12.4463 11.6359C12.4463 10.7553 12.4441 9.87465 12.4472 8.99404C12.4487 8.59122 12.497 8.19367 12.6335 7.81044C12.8336 7.24939 13.2131 6.84441 13.7574 6.58154C14.0866 6.42256 14.4351 6.31972 14.7906 6.23702C15.0023 6.18777 15.2141 6.13785 15.4281 6.09971C15.6196 6.06561 15.8138 6.04451 16.0074 6.02285C16.1947 6.00204 16.3828 6.00571 16.5701 6.02351C16.9993 6.0641 17.3881 6.19662 17.6953 6.50648C17.9091 6.72197 18.0422 6.98248 18.1314 7.26616C18.1948 7.4679 18.234 7.67444 18.2599 7.884C18.292 8.14423 18.3014 8.40549 18.302 8.66713C18.3033 9.27659 18.3024 9.88614 18.3024 10.4956C18.3024 10.5179 18.3024 10.5402 18.3024 10.5702C18.1197 10.6029 17.9386 10.6352 17.7508 10.6687C17.7508 10.6419 17.7508 10.6198 17.7508 10.5978C17.7505 9.89292 17.7522 9.18805 17.7492 8.48319C17.748 8.19913 17.7267 7.9164 17.6487 7.64054C17.573 7.37277 17.45 7.13223 17.2324 6.94509C17.0601 6.79685 16.857 6.70973 16.6347 6.66377C16.3908 6.61338 16.1443 6.61008 15.8971 6.63721C15.3604 6.69626 14.843 6.83132 14.3401 7.02006C14.0832 7.11641 13.8433 7.24365 13.6325 7.41864C13.3455 7.65674 13.168 7.95944 13.0786 8.31375C13.0235 8.53235 12.9987 8.75463 12.9985 8.97925C12.9976 9.8318 12.9982 10.6843 12.9982 11.537C12.9982 11.5588 12.9982 11.5808 12.9982 11.6048Z" fill="white"/>
<path d="M20.7985 10.079C20.6159 10.1114 20.4378 10.143 20.2521 10.176C20.251 10.153 20.2494 10.1337 20.2494 10.1143C20.2492 9.8937 20.2522 9.67303 20.2482 9.45245C20.2449 9.26757 20.2378 9.0825 20.2241 8.89809C20.2143 8.76614 20.1859 8.63617 20.1332 8.51279C20.0436 8.30286 19.8781 8.18306 19.6554 8.1322C19.4742 8.09085 19.2903 8.09142 19.1064 8.10366C19.0187 8.10941 18.9313 8.12174 18.8438 8.13079C18.8347 8.13182 18.8255 8.13097 18.8204 8.13097C18.7928 7.95184 18.7659 7.77722 18.738 7.5963C18.816 7.585 18.8943 7.56889 18.9734 7.56305C19.1624 7.54911 19.3518 7.5316 19.541 7.53122C19.7482 7.53084 19.9531 7.55881 20.1445 7.64631C20.3807 7.75406 20.5261 7.93912 20.6172 8.17081C20.6951 8.36897 20.7322 8.5758 20.7564 8.78564C20.8049 9.20456 20.8013 9.62509 20.8011 10.0456C20.8011 10.0548 20.7997 10.064 20.7985 10.079Z" fill="white"/>
<path d="M17.1126 7.97062C17.1587 8.06546 17.1733 8.37692 17.1604 8.52602C17.0356 8.58573 16.9096 8.64327 16.786 8.70581C16.6426 8.77843 16.5103 8.86705 16.3976 8.98158C16.2369 9.14451 16.1519 9.34343 16.1059 9.5609C16.0588 9.78336 16.0514 10.0091 16.0513 10.2352C16.0513 10.48 16.0524 10.7249 16.0528 10.9698C16.0528 10.9826 16.0513 10.9954 16.0501 11.0144C15.87 11.0463 15.6909 11.0779 15.5031 11.1111C15.5031 11.0814 15.503 11.0614 15.5031 11.0415C15.5046 10.6956 15.4989 10.3497 15.5098 10.0041C15.5204 9.66591 15.5693 9.33232 15.7004 9.01464C15.8342 8.69018 16.0589 8.44511 16.3698 8.27285C16.6002 8.14514 16.8477 8.05736 17.0971 7.97354C17.1021 7.97194 17.1076 7.97156 17.1126 7.97062Z" fill="white"/>
<path d="M32.0346 14.3361V13.4905C32.4633 13.7872 32.9503 13.9355 33.4955 13.9355C33.8531 13.9355 34.1379 13.8546 34.3496 13.6927C34.5613 13.5308 34.6673 13.3138 34.6673 13.0418C34.6673 12.4485 34.2374 12.1518 33.3775 12.1518H32.7499V11.4619H33.3395C33.7048 11.4619 33.9876 11.3878 34.188 11.2395C34.3882 11.0911 34.4884 10.8822 34.4884 10.6127C34.4884 10.3804 34.4035 10.1943 34.2337 10.0547C34.0636 9.91498 33.8304 9.8451 33.5336 9.8451C33.0821 9.8451 32.6421 9.97856 32.2134 10.2456V9.45942C32.6344 9.24431 33.1201 9.13675 33.6706 9.13675C34.2184 9.13675 34.6495 9.25853 34.964 9.50209C35.2785 9.74555 35.4358 10.0651 35.4358 10.4607C35.4358 11.1456 35.0844 11.5782 34.382 11.7587V11.7735C34.7573 11.8156 35.056 11.9515 35.2778 12.1815C35.4997 12.4113 35.6109 12.6957 35.6109 13.0344C35.6109 13.5215 35.4244 13.9096 35.0515 14.1988C34.6787 14.4881 34.1689 14.6327 33.5222 14.6327C32.8805 14.6327 32.3847 14.5339 32.0346 14.3361Z" fill="white"/>
<path d="M38.6727 12.6784L37.8548 12.7896C37.601 12.8217 37.4102 12.8817 37.2822 12.9695C37.1541 13.0573 37.09 13.2112 37.09 13.4312C37.09 13.592 37.1491 13.7236 37.2669 13.8261C37.3849 13.9288 37.5428 13.9801 37.7406 13.9801C38.0094 13.9801 38.232 13.888 38.4083 13.7038C38.5845 13.5196 38.6727 13.2879 38.6727 13.0084V12.6784ZM39.5248 14.5438H38.6689V13.9503H38.6537C38.3848 14.4053 37.9904 14.6327 37.4705 14.6327C37.0875 14.6327 36.7876 14.5314 36.5707 14.3287C36.3539 14.126 36.2455 13.8577 36.2455 13.5239C36.2455 12.807 36.6691 12.3892 37.5161 12.2704L38.6727 12.1109C38.6727 11.5695 38.409 11.2988 37.8814 11.2988C37.4173 11.2988 36.9988 11.4546 36.626 11.766V11.0132C37.0368 10.7759 37.5111 10.6572 38.0488 10.6572C39.0328 10.6572 39.5248 11.1295 39.5248 12.0738V14.5438Z" fill="white"/>
<path d="M42.9141 11.4323H41.4647V14.5438H40.5782V10.7462H42.9141V11.4323Z" fill="white"/>
<path d="M44.5076 12.4855V12.9565C44.5076 13.2334 44.5983 13.4683 44.7796 13.6611C44.961 13.854 45.1911 13.9503 45.4702 13.9503C45.7973 13.9503 46.0541 13.8261 46.2405 13.5777C46.427 13.3292 46.5202 12.9824 46.5202 12.5374C46.5202 12.1642 46.4333 11.8717 46.2596 11.6604C46.0858 11.449 45.8505 11.3434 45.5538 11.3434C45.2393 11.3434 44.9864 11.4521 44.7948 11.6696C44.6033 11.8873 44.5076 12.1592 44.5076 12.4855ZM44.5304 13.9838H44.5153V16.2904H43.6326V10.7462H44.5153V11.4138H44.5304C44.8323 10.9095 45.2735 10.6572 45.8544 10.6572C46.3489 10.6572 46.7345 10.8266 47.0109 11.1654C47.2874 11.504 47.4256 11.9589 47.4256 12.5301C47.4256 13.163 47.2697 13.6698 46.9577 14.0506C46.6457 14.4312 46.2195 14.6216 45.6794 14.6216C45.1822 14.6216 44.7992 14.409 44.5304 13.9838Z" fill="white"/>
<path d="M51.6783 10.7462L49.9207 15.1519C49.5554 15.9381 49.0431 16.3312 48.3836 16.3312C48.1985 16.3312 48.0437 16.3151 47.9195 16.283V15.5672C48.059 15.6118 48.1858 15.634 48.3 15.634C48.6296 15.634 48.8757 15.4758 49.0379 15.1593L49.3005 14.5363L47.7521 10.7462H48.7298L49.6581 13.5054C49.6683 13.5399 49.6911 13.6314 49.7265 13.7797H49.7457C49.7582 13.7229 49.7811 13.6338 49.8142 13.5127L50.7881 10.7462H51.6783Z" fill="white"/>
<path d="M51.9708 14.4399V13.7316C52.3004 13.9095 52.6859 13.9986 53.1273 13.9986C53.7486 13.9986 54.0593 13.8156 54.0593 13.4497C54.0593 13.0838 53.6928 12.9008 52.9598 12.9008H52.5871V12.2927H52.9447C53.5964 12.2927 53.9223 12.1183 53.9223 11.7698C53.9223 11.6239 53.8531 11.5078 53.7151 11.4211C53.5767 11.3347 53.3884 11.2913 53.1501 11.2913C52.7874 11.2913 52.4247 11.3754 52.062 11.5436V10.8686C52.5007 10.7252 52.904 10.6535 53.2718 10.6535C54.304 10.6535 54.8202 10.9947 54.8202 11.677C54.8202 11.8971 54.746 12.0862 54.5976 12.2445C54.4492 12.4027 54.2406 12.5077 53.9718 12.5597V12.5781C54.2685 12.6005 54.507 12.6945 54.6869 12.86C54.867 13.0257 54.9571 13.2358 54.9571 13.4905C54.9571 13.8366 54.8023 14.1123 54.4929 14.3175C54.1835 14.5227 53.7574 14.6253 53.2147 14.6253C52.672 14.6253 52.2573 14.5635 51.9708 14.4399Z" fill="white"/>
<path d="M59.3508 14.5438H58.5518V11.7587C58.5011 11.8576 58.4238 11.9948 58.3198 12.1703L56.68 14.5438H55.8127V10.7462H56.623V13.4756C56.6509 13.4114 56.7106 13.3002 56.8019 13.142L58.4644 10.7462H59.3508V14.5438Z" fill="white"/>
<path d="M63.1355 11.4323H62.0246V14.5438H61.1382V11.4323H60.0197V10.7462H63.1355V11.4323Z" fill="white"/>
<path d="M66.129 12.2704C66.1265 11.9614 66.0516 11.721 65.9047 11.5491C65.7574 11.3773 65.5546 11.2914 65.2959 11.2914C65.0423 11.2914 64.8273 11.3817 64.651 11.5621C64.4747 11.7426 64.3663 11.9787 64.3258 12.2704H66.129ZM66.9812 12.8786H64.3258C64.3359 13.2297 64.4469 13.5004 64.6587 13.6908C64.8705 13.8812 65.1614 13.9763 65.5317 13.9763C65.9477 13.9763 66.3294 13.8552 66.677 13.6129V14.3064C66.3218 14.524 65.8526 14.6327 65.2693 14.6327C64.6961 14.6327 64.2465 14.4603 63.9206 14.1154C63.5946 13.7705 63.4317 13.2853 63.4317 12.6598C63.4317 12.0689 63.6111 11.5875 63.9701 11.2154C64.3289 10.8433 64.7746 10.6572 65.3073 10.6572C65.84 10.6572 66.252 10.8241 66.5437 11.1579C66.8354 11.4916 66.9812 11.9553 66.9812 12.5486V12.8786Z" fill="white"/>
<path d="M73.3868 14.5438H72.5003V12.8823H70.8036V14.5438H69.9171V10.7462H70.8036V12.237H72.5003V10.7462H73.3868V14.5438Z" fill="white"/>
<path d="M76.6504 12.6784L75.8325 12.7896C75.5788 12.8217 75.3879 12.8817 75.2599 12.9695C75.1318 13.0573 75.0678 13.2112 75.0678 13.4312C75.0678 13.592 75.1267 13.7236 75.2447 13.8261C75.3626 13.9288 75.5204 13.9801 75.7183 13.9801C75.9871 13.9801 76.2097 13.888 76.3859 13.7038C76.5622 13.5196 76.6504 13.2879 76.6504 13.0084V12.6784ZM77.5026 14.5438H76.6465V13.9503H76.6314C76.3625 14.4053 75.9681 14.6327 75.4482 14.6327C75.0652 14.6327 74.7654 14.5314 74.5485 14.3287C74.3315 14.126 74.2231 13.8577 74.2231 13.5239C74.2231 12.807 74.6467 12.3892 75.4939 12.2704L76.6504 12.1109C76.6504 11.5695 76.3866 11.2988 75.8591 11.2988C75.3949 11.2988 74.9765 11.4546 74.6036 11.766V11.0132C75.0145 10.7759 75.4887 10.6572 76.0264 10.6572C77.0105 10.6572 77.5026 11.1295 77.5026 12.0738V14.5438Z" fill="white"/>
<path d="M41.0899 18.14L39.2055 24.8423H37.9158L36.6068 20.1543C36.5524 19.955 36.5189 19.7368 36.5061 19.5H36.4869C36.4708 19.7213 36.4326 19.9363 36.3719 20.145L35.0581 24.8423H33.7395L31.8168 18.14H33.0682L34.3149 23.0475C34.366 23.2531 34.398 23.4682 34.4108 23.6925H34.4348C34.4476 23.5336 34.4924 23.3186 34.569 23.0475L35.9787 18.14H37.1535L38.4576 23.0849C38.5022 23.2531 38.5359 23.4526 38.5583 23.6832H38.5774C38.587 23.5274 38.6237 23.3217 38.6877 23.0662L39.9104 18.14H41.0899Z" fill="white"/>
<path d="M42.8746 24.8423H41.7622V20.0562H42.8746V24.8423ZM42.3232 19.0514C42.1411 19.0514 41.9851 18.9937 41.8557 18.8785C41.7263 18.7632 41.6616 18.6167 41.6616 18.4391C41.6616 18.2615 41.7263 18.1135 41.8557 17.995C41.9851 17.8766 42.1411 17.8174 42.3232 17.8174C42.5117 17.8174 42.6716 17.8766 42.8026 17.995C42.9337 18.1135 42.9992 18.2615 42.9992 18.4391C42.9992 18.6073 42.9337 18.7515 42.8026 18.8714C42.6716 18.9914 42.5117 19.0514 42.3232 19.0514Z" fill="white"/>
<path d="M48.5431 24.8423H47.4308V22.1455C47.4308 21.2512 47.1063 20.804 46.4574 20.804C46.1186 20.804 45.8388 20.9279 45.6183 21.1757C45.3977 21.4234 45.2875 21.7358 45.2875 22.1127V24.8423H44.1703V20.0562H45.2875V20.8507H45.3066C45.6742 20.2463 46.2048 19.944 46.8985 19.944C47.4323 19.944 47.8399 20.1131 48.1212 20.4512C48.4024 20.7893 48.5431 21.2777 48.5431 21.9164V24.8423Z" fill="white"/>
<path d="M53.1088 22.6549V22.0286C53.1088 21.6891 52.9953 21.4008 52.7684 21.164C52.5414 20.9271 52.2521 20.8087 51.9005 20.8087C51.4849 20.8087 51.1581 20.9599 50.92 21.2621C50.6818 21.5644 50.5628 21.9835 50.5628 22.5194C50.5628 23.0055 50.677 23.3895 50.9055 23.6715C51.1341 23.9535 51.4417 24.0945 51.8286 24.0945C52.209 24.0945 52.5174 23.9582 52.7539 23.6855C52.9905 23.4129 53.1088 23.0694 53.1088 22.6549ZM54.2068 24.8423H53.0944V24.029H53.0753C52.7171 24.6459 52.1657 24.9545 51.421 24.9545C50.8168 24.9545 50.3334 24.7403 49.9706 24.3118C49.6078 23.8834 49.4264 23.2999 49.4264 22.5615C49.4264 21.7701 49.627 21.1359 50.0281 20.6592C50.4293 20.1824 50.9639 19.944 51.632 19.944C52.2937 19.944 52.7747 20.2028 53.0753 20.7199H53.0944V17.7566H54.2068V24.8423Z" fill="white"/>
<path d="M57.7321 20.8087C57.2973 20.8087 56.9537 20.9568 56.7012 21.2527C56.4487 21.5488 56.3225 21.957 56.3225 22.4773C56.3225 22.979 56.4503 23.3739 56.706 23.6622C56.9617 23.9504 57.3037 24.0945 57.7321 24.0945C58.17 24.0945 58.5064 23.9526 58.7414 23.6692C58.9764 23.3856 59.0938 22.9821 59.0938 22.4586C59.0938 21.9321 58.9764 21.5255 58.7414 21.2388C58.5064 20.9521 58.17 20.8087 57.7321 20.8087ZM57.6794 24.9545C56.9218 24.9545 56.3168 24.7309 55.8646 24.2838C55.4122 23.8367 55.186 23.2438 55.186 22.5053C55.186 21.7015 55.4218 21.0736 55.8934 20.6218C56.3648 20.17 57.0001 19.944 57.7992 19.944C58.5664 19.944 59.1641 20.1637 59.5925 20.6031C60.0207 21.0424 60.2349 21.6517 60.2349 22.4306C60.2349 23.194 60.0039 23.8054 59.5421 24.2651C59.0801 24.7247 58.4593 24.9545 57.6794 24.9545Z" fill="white"/>
<path d="M67.8117 20.0562L66.3637 24.8423H65.1985L64.3068 21.5986C64.2715 21.474 64.2492 21.3338 64.2395 21.178H64.2204C64.214 21.284 64.1852 21.421 64.1341 21.5892L63.1655 24.8423H62.0245L60.5812 20.0562H61.7319L62.6238 23.5055C62.6526 23.6084 62.6717 23.7455 62.6813 23.9168H62.7149C62.7245 23.7859 62.75 23.6458 62.7916 23.4962L63.7841 20.0562H64.8294L65.7116 23.5196C65.7404 23.6286 65.761 23.7658 65.7739 23.9309H65.8074C65.8138 23.8156 65.8378 23.6785 65.8794 23.5196L66.752 20.0562H67.8117Z" fill="white"/>
<path d="M70.8299 24.5759V23.4308C70.9354 23.5242 71.0608 23.6084 71.2063 23.6832C71.3517 23.758 71.5059 23.8211 71.669 23.8724C71.8319 23.9238 71.995 23.9636 72.158 23.9916C72.3211 24.0197 72.4714 24.0336 72.6088 24.0336C73.0882 24.0336 73.4455 23.9558 73.6804 23.8C73.9153 23.6443 74.0328 23.4183 74.0328 23.1223C74.0328 22.9633 73.9936 22.8255 73.9153 22.7086C73.837 22.5918 73.7275 22.4851 73.5868 22.3886C73.4461 22.2919 73.2807 22.1991 73.0907 22.1103C72.9004 22.0216 72.6967 21.9289 72.4794 21.8323C72.2459 21.7108 72.0287 21.5877 71.8272 21.463C71.6258 21.3385 71.4508 21.2006 71.3022 21.0495C71.1536 20.8983 71.0369 20.7277 70.9521 20.5377C70.8674 20.3476 70.8251 20.1248 70.8251 19.8693C70.8251 19.5546 70.8977 19.2812 71.0432 19.049C71.1887 18.817 71.3805 18.6253 71.6186 18.4741C71.8567 18.3231 72.1276 18.2109 72.4313 18.1376C72.7349 18.0644 73.0451 18.0278 73.3615 18.0278C74.0807 18.0278 74.605 18.1073 74.9343 18.2662V19.3645C74.5442 19.0904 74.0424 18.9531 73.4287 18.9531C73.2592 18.9531 73.0907 18.9688 72.9228 18.9999C72.7549 19.0311 72.6047 19.0825 72.472 19.1541C72.3394 19.2259 72.2316 19.3178 72.1485 19.4299C72.0653 19.5421 72.0238 19.6776 72.0238 19.8366C72.0238 19.9861 72.0557 20.1154 72.1197 20.2245C72.1836 20.3336 72.2772 20.4333 72.4002 20.5236C72.5232 20.6141 72.6735 20.702 72.8509 20.7876C73.0283 20.8734 73.2336 20.9661 73.467 21.0658C73.7068 21.1873 73.9328 21.3152 74.1455 21.449C74.358 21.583 74.545 21.7311 74.7064 21.8931C74.8678 22.0551 74.9957 22.235 75.09 22.4329C75.1843 22.6308 75.2315 22.8559 75.2315 23.1083C75.2315 23.4479 75.1611 23.7346 75.0205 23.9683C74.8798 24.2019 74.6904 24.3921 74.4523 24.5384C74.2142 24.6849 73.9401 24.7909 73.6301 24.8563C73.32 24.9218 72.9923 24.9545 72.6471 24.9545C72.532 24.9545 72.3906 24.9458 72.2228 24.9288C72.0549 24.9116 71.8831 24.8867 71.7073 24.854C71.5316 24.8213 71.3653 24.7816 71.2086 24.7347C71.052 24.688 70.9258 24.6351 70.8299 24.5759Z" fill="white"/>
<path d="M78.5169 24.7908C78.2995 24.8967 78.0135 24.9497 77.6586 24.9497C76.706 24.9497 76.2298 24.5041 76.2298 23.613V20.9068H75.4099V20.0562H76.2298V18.9485L77.3422 18.64V20.0562H78.5169V20.9068H77.3422V23.2998C77.3422 23.5834 77.3949 23.7859 77.5003 23.9074C77.6059 24.029 77.7816 24.0897 78.0278 24.0897C78.2163 24.0897 78.3794 24.0368 78.5169 23.9308V24.7908Z" fill="white"/>
<path d="M81.4907 20.8087C81.0559 20.8087 80.7122 20.9568 80.4598 21.2527C80.2073 21.5488 80.081 21.957 80.081 22.4773C80.081 22.979 80.209 23.3739 80.4646 23.6622C80.7203 23.9504 81.0624 24.0945 81.4907 24.0945C81.9286 24.0945 82.2651 23.9526 82.5 23.6692C82.735 23.3856 82.8525 22.9821 82.8525 22.4586C82.8525 21.9321 82.735 21.5255 82.5 21.2388C82.2651 20.9521 81.9286 20.8087 81.4907 20.8087ZM81.438 24.9545C80.6804 24.9545 80.0754 24.7309 79.6232 24.2838C79.1708 23.8367 78.9447 23.2438 78.9447 22.5053C78.9447 21.7015 79.1804 21.0736 79.652 20.6218C80.1235 20.17 80.7587 19.944 81.5578 19.944C82.325 19.944 82.9227 20.1637 83.3511 20.6031C83.7794 21.0424 83.9935 21.6517 83.9935 22.4306C83.9935 23.194 83.7626 23.8054 83.3008 24.2651C82.8387 24.7247 82.2179 24.9545 81.438 24.9545Z" fill="white"/>
<path d="M87.8161 21.0892C87.6818 20.9863 87.4884 20.9349 87.236 20.9349C86.9067 20.9349 86.6319 21.0798 86.4113 21.3696C86.1908 21.6594 86.0805 22.0535 86.0805 22.552V24.8423H84.968V20.0562H86.0805V21.0424H86.0996C86.2082 20.7059 86.3753 20.4434 86.6007 20.2548C86.8261 20.0664 87.0777 19.9721 87.3558 19.9721C87.5572 19.9721 87.7106 20.0018 87.8161 20.0609V21.0892Z" fill="white"/>
<path d="M91.4421 21.9772C91.4389 21.5877 91.3446 21.2847 91.1591 21.0681C90.9738 20.8516 90.7181 20.7433 90.3921 20.7433C90.0723 20.7433 89.8015 20.8571 89.5793 21.0845C89.3571 21.312 89.2205 21.6096 89.1694 21.9772H91.4421ZM92.5161 22.7437H89.1694C89.1821 23.1862 89.322 23.5274 89.589 23.7673C89.8558 24.0073 90.2225 24.1272 90.6893 24.1272C91.2135 24.1272 91.6945 23.9745 92.1326 23.6692V24.5432C91.685 24.8173 91.0936 24.9545 90.3585 24.9545C89.636 24.9545 89.0695 24.7371 88.6587 24.3024C88.248 23.8678 88.0426 23.2563 88.0426 22.468C88.0426 21.7233 88.2687 21.1165 88.7211 20.6475C89.1733 20.1786 89.7352 19.944 90.4064 19.944C91.0777 19.944 91.5971 20.1544 91.9647 20.5751C92.3323 20.9957 92.5161 21.5799 92.5161 22.3277V22.7437Z" fill="white"/>
</svg>
