<svg width="100" height="34" viewBox="0 0 100 34" fill="none" xmlns="http://www.w3.org/2000/svg">
<path fill-rule="evenodd" clip-rule="evenodd" d="M93.0186 0.97784H6.98939C1.85473 0.97784 1 2.7109 1 6.83243V27.1822C1 31.3006 2.75868 33 6.98355 33H93.019C97.2473 33 99.0676 31.2982 99.0676 27.1769V6.83243C99.0676 2.7109 97.2464 0.97784 93.0186 0.97784Z" fill="black"/>
<path d="M9.41075 7.33935C9.19063 7.41451 9.01929 7.61503 9.01929 7.87412V26.55C9.01929 26.807 9.18777 27.0063 9.40519 27.0829L19.583 17.2085L9.41075 7.33935Z" fill="#00D6FF"/>
<path d="M22.4503 14.4267L9.89084 7.38283C9.73355 7.29468 9.56088 7.28818 9.41071 7.33942L19.5829 17.2086L22.4503 14.4267Z" fill="#00F076"/>
<path d="M9.89096 27.0416L22.4551 19.995L19.583 17.2086L9.40527 27.083C9.55673 27.1364 9.73174 27.1308 9.89096 27.0416Z" fill="#FF3A44"/>
<path d="M22.4551 19.995L26.5408 17.7035C26.9295 17.4856 26.9295 16.9389 26.5408 16.7208L22.4503 14.4267L19.583 17.2086L22.4551 19.995Z" fill="#FFD000"/>
<path d="M78.5596 25.3265H79.9837V16.1939H78.5596V25.3265ZM91.1511 19.4817L89.5772 23.4269H89.5022L87.8533 19.4817H86.3544L88.8277 25.0342L87.4037 28.1027H88.8277L92.6501 19.4817H91.1511ZM83.2814 24.3036C82.8318 24.3036 82.1572 24.0844 82.1572 23.5C82.1572 22.7693 82.9816 22.5501 83.6562 22.5501C84.2558 22.5501 84.5555 22.6963 84.9303 22.8424C84.7805 23.7191 84.0309 24.3036 83.2814 24.3036ZM83.4314 19.2625C82.382 19.2625 81.3327 19.7008 80.9581 20.6506L82.2322 21.162C82.532 20.6506 82.9816 20.5045 83.5063 20.5045C84.2557 20.5045 84.9303 20.9428 85.0053 21.6735V21.7465C84.7805 21.6004 84.1809 21.3812 83.5812 21.3812C82.2322 21.3812 80.8831 22.1118 80.8831 23.4269C80.8831 24.6689 82.0073 25.4725 83.2065 25.4725C84.1809 25.4725 84.6305 25.0342 85.0053 24.5959H85.0802V25.3265H86.4293V21.8196C86.2794 20.2122 85.0053 19.2625 83.4313 19.2625H83.4314ZM74.8122 20.5776H72.7885V17.4359H74.8122C75.8614 17.4359 76.4611 18.3127 76.4611 18.9702C76.3861 19.7739 75.7866 20.5776 74.8122 20.5776ZM74.7372 16.1939H71.3645V25.3265H72.7885V21.8926H74.7372C76.3112 21.8926 77.8101 20.7967 77.8101 19.0432C77.8101 17.2898 76.3112 16.1939 74.7372 16.1939ZM56.4496 24.3036C55.4753 24.3036 54.6508 23.5 54.6508 22.4041C54.6508 21.3081 55.4753 20.5045 56.4496 20.5045C57.4239 20.5045 58.1734 21.3081 58.1734 22.4041C58.1734 23.5 57.4239 24.3036 56.4496 24.3036ZM58.0984 19.9931C57.7238 19.6277 57.1241 19.2625 56.3747 19.2625C54.8007 19.2625 53.3017 20.6506 53.3017 22.4041C53.3017 24.1575 54.7258 25.4725 56.3747 25.4725C57.1241 25.4725 57.7238 25.1073 58.0235 24.742H58.0984V25.1803C58.0984 26.3493 57.424 27.0068 56.3746 27.0068C55.5501 27.0068 54.9506 26.4224 54.8007 25.9109L53.6015 26.4224C53.9762 27.226 54.8756 28.2488 56.4496 28.2488C58.0984 28.2488 59.4475 27.299 59.4475 25.0342V19.4817H58.0984V19.9931ZM60.3469 25.3265H61.771V16.1939H60.3469V25.3265ZM63.8696 22.331C63.8696 21.162 64.844 20.5045 65.5184 20.5045C66.0431 20.5045 66.5677 20.7967 66.7177 21.162L63.8696 22.331ZM68.2166 21.3081C67.9168 20.5776 67.1673 19.3355 65.5184 19.3355C63.8696 19.3355 62.5205 20.5776 62.5205 22.477C62.5205 24.2305 63.8696 25.6187 65.6684 25.6187C67.0924 25.6187 67.9918 24.742 68.2916 24.2305L67.2423 23.5C66.8675 24.0114 66.4179 24.3766 65.6684 24.3766C64.9188 24.3766 64.4692 24.0844 64.0944 23.4269L68.3666 21.6735L68.2166 21.3081ZM34.1896 20.2853V21.6004H37.4125C37.3375 22.331 37.0377 22.9155 36.663 23.2807C36.2132 23.7191 35.4638 24.2305 34.1896 24.2305C32.166 24.2305 30.667 22.6963 30.667 20.7236C30.667 18.751 32.241 17.2167 34.1896 17.2167C35.2389 17.2167 36.0634 17.6552 36.663 18.1666L37.6373 17.2167C36.8128 16.4862 35.7636 15.9017 34.2645 15.9017C31.5664 15.9017 29.243 18.0935 29.243 20.7236C29.243 23.3538 31.5664 25.5456 34.2645 25.5456C35.7636 25.5456 36.8128 25.1073 37.7123 24.1575C38.6117 23.2807 38.9114 22.0387 38.9114 21.089C38.9114 20.7967 38.9114 20.5045 38.8365 20.2853H34.1896ZM42.509 24.3036C41.5347 24.3036 40.7102 23.5 40.7102 22.4041C40.7102 21.3081 41.5347 20.5045 42.509 20.5045C43.4834 20.5045 44.3078 21.2351 44.3078 22.4041C44.3078 23.5 43.4834 24.3036 42.509 24.3036ZM42.509 19.3355C40.7102 19.3355 39.2862 20.6506 39.2862 22.477C39.2862 24.2305 40.7102 25.6187 42.509 25.6187C44.3078 25.6187 45.7318 24.3036 45.7318 22.477C45.7318 20.5776 44.3078 19.3355 42.509 19.3355ZM49.4793 24.3036C48.5049 24.3036 47.6805 23.5 47.6805 22.4041C47.6805 21.3081 48.5049 20.5045 49.4793 20.5045C50.4536 20.5045 51.2781 21.2351 51.2781 22.4041C51.2781 23.5 50.4536 24.3036 49.4793 24.3036ZM49.4793 19.3355C47.6805 19.3355 46.2565 20.6506 46.2565 22.477C46.2565 24.2305 47.6805 25.6187 49.4793 25.6187C51.2781 25.6187 52.7021 24.3036 52.7021 22.477C52.7021 20.5776 51.2781 19.3355 49.4793 19.3355Z" fill="white"/>
<path d="M31.3527 11.9972H30.2791L30.8159 10.5526L31.3527 11.9972ZM30.5178 9.83102L29.1071 13.5042H29.73L30.0863 12.5623H31.5503L31.9015 13.5042H32.5247L31.114 9.83102H30.5178Z" fill="white"/>
<path d="M35.2029 11.974L35.2054 12.5104L33.4793 9.83102H32.7875V13.5042H33.3672V11.2319L33.3669 10.6934L35.1766 13.5042H35.7826V9.83102H35.2029V11.974Z" fill="white"/>
<path d="M37.5396 12.9391H36.9421V10.3961H37.5396C37.9451 10.3961 38.2702 10.5015 38.5059 10.7279C38.7412 10.9542 38.8605 11.2696 38.8605 11.6746C38.8605 12.0828 38.7413 12.3897 38.506 12.6142C38.2704 12.839 37.9453 12.9391 37.5396 12.9391ZM37.5396 9.83102H36.3624V13.5042H37.5396C38.1102 13.5042 38.5739 13.3279 38.9176 12.9911C39.2613 12.6544 39.4356 12.209 39.4356 11.6726C39.4356 11.1363 39.2613 10.6845 38.9176 10.3477C38.5738 10.0109 38.1102 9.83102 37.5396 9.83102Z" fill="white"/>
<path d="M41.7972 10.9505C41.7972 11.1201 41.7366 11.2527 41.6119 11.3636C41.4859 11.4755 41.3392 11.5263 41.1634 11.5263H40.4203V10.3961H41.194C41.3781 10.3961 41.5212 10.4449 41.6315 10.5646C41.7414 10.6842 41.7972 10.8078 41.7972 10.9505ZM42.1113 11.6384C42.2844 11.4403 42.3722 11.2089 42.3722 10.9505C42.3722 10.6338 42.253 10.3599 42.0179 10.1512C41.7841 9.94395 41.5034 9.83102 41.1838 9.83102H39.9373V13.5042H40.4203V12.0914H40.9034L41.8858 13.5042H42.546V13.4116L41.5316 12.002C41.7661 11.9444 41.9506 11.8223 42.1113 11.6384Z" fill="white"/>
<path d="M44.5786 13.0418C44.2035 13.0418 43.8812 12.913 43.6205 12.6589C43.3629 12.4014 43.2323 12.0686 43.2323 11.6699C43.2323 11.2713 43.3637 10.9394 43.623 10.6835C43.8822 10.4277 44.2036 10.298 44.5786 10.298C44.9536 10.298 45.2751 10.4277 45.5341 10.6835C45.7935 10.9394 45.9249 11.2713 45.9249 11.6699C45.9249 12.0686 45.7935 12.4005 45.5341 12.6564C45.2752 12.9121 44.9537 13.0418 44.5786 13.0418ZM44.5786 9.76726C44.0348 9.76726 43.5737 9.95308 43.208 10.3197C42.8425 10.6861 42.6572 11.1404 42.6572 11.6699C42.6572 12.1995 42.8425 12.6538 43.208 13.02C43.5736 13.3866 44.0347 13.5726 44.5786 13.5726C45.1223 13.5726 45.5835 13.3866 45.9493 13.02C46.3147 12.6537 46.4999 12.1994 46.4999 11.6699C46.4999 11.1437 46.3138 10.6903 45.9468 10.3223C45.5793 9.95403 45.1189 9.76726 44.5786 9.76726Z" fill="white"/>
<path d="M46.9904 13.5042H47.5701V9.83102H46.9904V13.5042Z" fill="white"/>
<path d="M49.3222 12.9391H48.7294V10.3961H49.3222C49.7277 10.3961 50.0528 10.5015 50.2884 10.7279C50.5237 10.9542 50.643 11.2696 50.643 11.6746C50.643 12.0828 50.5237 12.3897 50.2886 12.6142C50.053 12.839 49.7279 12.9391 49.3222 12.9391ZM49.3222 9.83102H48.1497V13.5042H49.3222C49.8928 13.5042 50.3564 13.3279 50.7001 12.9911C51.0438 12.6544 51.218 12.209 51.218 11.6726C51.218 11.1363 51.0438 10.6845 50.7001 10.3477C50.3563 10.0109 49.8927 9.83102 49.3222 9.83102Z" fill="white"/>
<path d="M52.7874 13.5042H53.3671V10.3961H55.0096V13.5042H55.4927V9.83102H52.7874V13.5042Z" fill="white"/>
<path d="M57.9031 11.3471C57.7928 11.4668 57.6498 11.5263 57.4656 11.5263H56.7488V10.3961H57.4656C57.6498 10.3961 57.7928 10.4449 57.9031 10.5646C58.013 10.6842 58.0689 10.8132 58.0689 10.9558C58.0689 11.1006 58.0146 11.2259 57.9031 11.3471ZM57.4555 9.83102H56.1691V13.5042H56.7488V12.0914H57.4555C57.7752 12.0914 58.0558 11.9677 58.2896 11.7605C58.5246 11.552 58.6439 11.2764 58.6439 10.9597C58.6439 10.6432 58.5246 10.3645 58.2896 10.1559C58.0557 9.94856 57.7752 9.83102 57.4555 9.83102Z" fill="white"/>
<path d="M59.6078 12.5104L59.6473 11.9725V9.83102H59.0676V13.5042H59.5996L61.398 10.6934L61.3865 11.2333V13.5042H61.9662V9.83102H61.2969L59.6078 12.5104Z" fill="white"/>
<path d="M63.029 12.0178C63.029 12.2651 62.9737 12.4708 62.8676 12.629C62.7605 12.7886 62.5886 12.9293 62.3628 13.0473L62.3145 13.0717L62.6363 13.5465L62.6742 13.5279C62.9725 13.3824 63.2153 13.1881 63.3689 12.9502C63.5224 12.712 63.6088 12.3981 63.6088 12.017V10.3961H64.9614V13.5041H65.5411V9.83099H63.029V12.0178Z" fill="white"/>
<path d="M67.9251 13.0418C67.5501 13.0418 67.2277 12.913 66.9671 12.6589C66.7095 12.4014 66.5789 12.0686 66.5789 11.6699C66.5789 11.2712 66.7104 10.9393 66.9695 10.6835C67.2287 10.4277 67.5502 10.298 67.9251 10.298C68.3001 10.298 68.6216 10.4277 68.8807 10.6835C69.14 10.9394 69.2714 11.2713 69.2714 11.6699C69.2714 12.0686 69.14 12.4005 68.8807 12.6564C68.6217 12.9121 68.3002 13.0418 67.9251 13.0418ZM67.9251 9.76726C67.3814 9.76726 66.9201 9.95308 66.5544 10.3197C66.189 10.686 66.0038 11.1403 66.0038 11.6699C66.0038 12.1995 66.1891 12.6539 66.5544 13.02C66.9201 13.3866 67.3813 13.5726 67.9251 13.5726C68.469 13.5726 68.9301 13.3866 69.2958 13.02C69.6613 12.6538 69.8465 12.1994 69.8465 11.6699C69.8465 11.1437 69.6603 10.6903 69.2932 10.3223C68.9257 9.95403 68.4655 9.76726 67.9251 9.76726Z" fill="white"/>
<path d="M74.6233 9.9301V9.83102H73.9381L72.5943 11.5096V9.83102H72.0146V11.5096L70.6936 9.85683L70.6869 9.83102H70.0822V9.9301L71.5259 11.7084L69.9856 13.4086V13.5042H70.6654L72.0146 11.9237V13.5042H72.5943V11.9237L73.9596 13.5042H74.6233V13.4086L73.1313 11.7084L74.6233 9.9301Z" fill="white"/>
<path d="M74.913 13.5042H77.1352V12.9391H75.4927V11.903H76.9419V11.4321H75.4927V10.3961H77.1352V9.83102H74.913V13.5042Z" fill="white"/>
<path d="M79.9372 11.3379H78.1981V9.83102H77.715V13.5042H78.1981V11.903H79.9372V13.5042H80.517V9.83102H79.9372V11.3379Z" fill="white"/>
<path d="M81.7383 12.5105L81.7729 11.9725V9.83102H81.1932V13.5042H81.7348L83.5284 10.6933L83.5121 11.2333V13.5042H84.0918V9.83102H83.4321L81.7383 12.5105Z" fill="white"/>
<path d="M84.6715 13.5042H86.8937V12.9391H85.2512V11.903H86.7971V11.4321H85.2512V10.3961H86.8937V9.83102H84.6715V13.5042Z" fill="white"/>
<path d="M90.4517 12.7829C90.3485 12.8958 90.217 12.9391 90.0501 12.9391H89.116V11.903H90.0297C90.2039 11.903 90.3405 11.9512 90.4473 12.063C90.5552 12.1758 90.6076 12.2869 90.6076 12.4213C90.6076 12.5561 90.5565 12.6684 90.4517 12.7829ZM90.3478 11.1981C90.2496 11.3029 90.1222 11.3379 89.9585 11.3379H89.116V10.3961H89.9789C90.1355 10.3961 90.2577 10.4368 90.3527 10.5397C90.4488 10.6443 90.4955 10.7432 90.4955 10.8679C90.4955 10.9924 90.4472 11.0918 90.3478 11.1981ZM90.9993 11.8991C90.8961 11.7689 90.7668 11.6706 90.614 11.6059C90.7365 11.5384 90.8383 11.4473 90.9171 11.3342C91.0122 11.1978 91.0604 11.0386 91.0604 10.8612C91.0604 10.5707 90.9497 10.3183 90.7314 10.1263C90.5145 9.93557 90.2544 9.83102 89.9585 9.83102H88.6329V13.5042H90.0297C90.3392 13.5042 90.6113 13.3978 90.8382 13.1988C91.0666 12.9986 91.1825 12.7403 91.1825 12.4367C91.1825 12.2352 91.1209 12.0525 90.9993 11.8991Z" fill="white"/>
</svg>
