<svg width="82" height="48" viewBox="0 0 82 48" fill="none" xmlns="http://www.w3.org/2000/svg">
<path d="M27.2941 32.2162C22.3419 32.2162 12.1632 32.1374 8.61403 32.4291C5.88453 32.6551 3.31486 33.6593 2.01189 35.6502V24.9827C2.57547 20.7409 6.93369 20.4788 9.91813 20.4788C9.91893 20.4788 26.9685 20.4619 26.9685 20.4619C30.0733 20.2507 32.2901 18.6635 33.5477 16.3925C36.0922 11.7972 34.7525 5.51588 29.6908 2.17604C36.9705 3.31863 42.5544 9.57571 42.5544 17.1018C42.5544 25.436 35.7088 32.2162 27.2941 32.2162ZM27.2342 15.8218C27.9803 15.8218 28.5864 16.423 28.5864 17.162C28.5864 17.7712 28.1432 18.5014 27.0673 18.5014C27.0651 18.5014 17.997 18.5066 17.9939 18.5066L17.9884 15.8218H27.2342ZM27.2941 0.000646637C27.1992 0.000646637 8.26959 -0.00312882 8.17592 0.0075657C3.66122 0.160277 0.00515859 3.89377 0.00515859 8.37855C0.00515859 8.38358 0.00515859 8.38861 0.00515859 8.39349C0.00515859 39.4601 -0.0261686 39.7146 0.0655767 39.9637C0.24603 44.4063 3.95724 48 8.51797 48C13.1824 48 16.9774 44.2417 16.9774 39.6221C16.9774 39.6166 16.9774 37.4115 16.9769 37.4065V34.2033H27.2941C36.8152 34.2033 44.5609 26.5316 44.5609 17.1018C44.5609 7.67255 36.8152 0.000646637 27.2941 0.000646637Z" fill="#3E56DD"/>
<path d="M22.3691 44.8938C22.0953 44.8938 21.8501 44.85 21.6336 44.7625C21.417 44.6719 21.2021 44.5109 20.9888 44.2797H20.9028C20.9601 44.6516 20.9888 44.8828 20.9888 44.9734V47.1063H19.1213V39.4891H20.6401L20.9028 40.1641H20.9888C21.3358 39.6516 21.815 39.3953 22.4264 39.3953C23.025 39.3953 23.4947 39.6391 23.8354 40.1266C24.1761 40.6141 24.3464 41.2828 24.3464 42.1328C24.3464 42.9891 24.1681 43.6641 23.8115 44.1578C23.4581 44.6484 22.9773 44.8938 22.3691 44.8938ZM21.7434 40.8344C21.4696 40.8344 21.2769 40.9313 21.1655 41.125C21.0572 41.3156 20.9983 41.6 20.9888 41.9781V42.1234C20.9888 42.5797 21.0509 42.9094 21.175 43.1125C21.2992 43.3156 21.495 43.4172 21.7625 43.4172C22.0013 43.4172 22.1749 43.3172 22.2831 43.1172C22.3914 42.9141 22.4455 42.5797 22.4455 42.1141C22.4455 41.6578 22.3914 41.3313 22.2831 41.1344C22.1749 40.9344 21.995 40.8344 21.7434 40.8344Z" fill="#3E56DD"/>
<path d="M30.5842 42.1328C30.5842 43.0016 30.3454 43.6797 29.8677 44.1672C29.3933 44.6516 28.7278 44.8938 27.8713 44.8938C27.0498 44.8938 26.3954 44.6453 25.9083 44.1484C25.4243 43.6516 25.1823 42.9797 25.1823 42.1328C25.1823 41.2672 25.4195 40.5953 25.8939 40.1172C26.3715 39.6359 27.0402 39.3953 27.8999 39.3953C28.4317 39.3953 28.9013 39.5063 29.3089 39.7281C29.7165 39.95 30.0301 40.2687 30.2498 40.6844C30.4727 41.0969 30.5842 41.5797 30.5842 42.1328ZM27.0784 42.1328C27.0784 42.5891 27.1405 42.9375 27.2647 43.1781C27.3889 43.4156 27.5974 43.5344 27.8904 43.5344C28.1801 43.5344 28.3839 43.4156 28.5017 43.1781C28.6227 42.9375 28.6832 42.5891 28.6832 42.1328C28.6832 41.6797 28.6227 41.3375 28.5017 41.1063C28.3807 40.875 28.1738 40.7594 27.8808 40.7594C27.5943 40.7594 27.3889 40.875 27.2647 41.1063C27.1405 41.3344 27.0784 41.6766 27.0784 42.1328Z" fill="#3E56DD"/>
<path d="M34.1185 44.8938C33.2334 44.8938 32.5615 44.6594 32.103 44.1906C31.6477 43.7219 31.42 43.0484 31.42 42.1703C31.42 41.2891 31.6668 40.6063 32.1603 40.1219C32.6538 39.6375 33.3559 39.3953 34.2666 39.3953C34.8939 39.3953 35.4845 39.5297 36.0386 39.7984L35.4893 41.1531C35.2632 41.0563 35.0547 40.9797 34.8636 40.9234C34.6726 40.8641 34.4736 40.8344 34.2666 40.8344C33.9641 40.8344 33.7301 40.95 33.5645 41.1813C33.3989 41.4125 33.3161 41.7391 33.3161 42.1609C33.3161 43.0109 33.6362 43.4359 34.2762 43.4359C34.8238 43.4359 35.3492 43.2797 35.8523 42.9672V44.425C35.3715 44.7375 34.7936 44.8938 34.1185 44.8938Z" fill="#3E56DD"/>
<path d="M38.7371 41.8141C38.9632 41.4609 39.1559 41.1859 39.3151 40.9891L40.5282 39.4891H42.6106L40.7336 41.7484L42.73 44.8H40.5951L39.4106 42.8969L38.804 43.3516V44.8H36.927V37.5063H38.804V40.375C38.804 40.8656 38.769 41.3453 38.6989 41.8141H38.7371Z" fill="#3E56DD"/>
<path d="M45.9874 44.8938C45.0863 44.8938 44.3858 44.6594 43.8859 44.1906C43.3892 43.7188 43.1408 43.0484 43.1408 42.1797C43.1408 41.2828 43.3717 40.5953 43.8334 40.1172C44.2951 39.6359 44.9542 39.3953 45.8107 39.3953C46.6258 39.3953 47.2547 39.6047 47.6973 40.0234C48.1431 40.4391 48.366 41.0391 48.366 41.8234V42.6391H45.0274C45.0401 42.9359 45.15 43.1688 45.357 43.3375C45.5671 43.5063 45.8521 43.5906 46.2119 43.5906C46.5399 43.5906 46.8408 43.5609 47.1146 43.5016C47.3916 43.4391 47.6909 43.3344 48.0125 43.1875V44.5047C47.7196 44.6516 47.4171 44.7531 47.105 44.8094C46.793 44.8656 46.4205 44.8938 45.9874 44.8938ZM45.8776 40.6422C45.6579 40.6422 45.4732 40.7109 45.3235 40.8484C45.1771 40.9828 45.0911 41.1953 45.0656 41.4859H46.6704C46.664 41.2297 46.5892 41.025 46.4459 40.8719C46.3058 40.7188 46.1164 40.6422 45.8776 40.6422Z" fill="#3E56DD"/>
<path d="M52.0723 43.4453C52.3238 43.4453 52.6248 43.3844 52.975 43.2625V44.5984C52.7235 44.7047 52.4831 44.7797 52.2538 44.8234C52.0277 44.8703 51.7618 44.8938 51.4562 44.8938C50.8289 44.8938 50.3768 44.7438 50.0997 44.4438C49.8227 44.1406 49.6842 43.6766 49.6842 43.0516V40.8625H49.0299V40.1172L49.8609 39.5406L50.3433 38.425H51.566V39.4891H52.8938V40.8625H51.566V42.9297C51.566 43.2734 51.7348 43.4453 52.0723 43.4453Z" fill="#3E56DD"/>
<path d="M60.6408 43.1688C60.6408 43.7375 60.4434 44.1672 60.0486 44.4578C59.6537 44.7484 59.087 44.8938 58.3482 44.8938C57.947 44.8938 57.5984 44.8719 57.3022 44.8281C57.0061 44.7875 56.7036 44.7109 56.3948 44.5984V43.1313C56.6845 43.2563 57.0013 43.3594 57.3452 43.4406C57.6923 43.5219 58.0012 43.5625 58.2718 43.5625C58.6762 43.5625 58.8784 43.4719 58.8784 43.2906C58.8784 43.1969 58.8211 43.1141 58.7065 43.0422C58.595 42.9672 58.267 42.8234 57.7226 42.6109C57.2258 42.4109 56.8788 42.1844 56.6813 41.9313C56.4839 41.675 56.3852 41.3516 56.3852 40.9609C56.3852 40.4672 56.5794 40.0828 56.9679 39.8078C57.3564 39.5328 57.9056 39.3953 58.6157 39.3953C58.9723 39.3953 59.3067 39.4344 59.6187 39.5125C59.9339 39.5875 60.2603 39.6984 60.5978 39.8453L60.0915 41.0266C59.8432 40.9172 59.5805 40.825 59.3035 40.75C59.0265 40.6719 58.8004 40.6328 58.6253 40.6328C58.3196 40.6328 58.1667 40.7063 58.1667 40.8531C58.1667 40.9438 58.2193 41.0219 58.3244 41.0875C58.4326 41.15 58.7415 41.2797 59.2509 41.4766C59.6299 41.6297 59.9116 41.7797 60.0963 41.9266C60.2842 42.0734 60.4211 42.2469 60.5071 42.4469C60.5962 42.6438 60.6408 42.8844 60.6408 43.1688Z" fill="#3E56DD"/>
<path d="M64.328 43.4453C64.5796 43.4453 64.8805 43.3844 65.2307 43.2625V44.5984C64.9792 44.7047 64.7388 44.7797 64.5095 44.8234C64.2835 44.8703 64.0176 44.8938 63.7119 44.8938C63.0846 44.8938 62.6325 44.7438 62.3555 44.4438C62.0784 44.1406 61.9399 43.6766 61.9399 43.0516V40.8625H61.2856V40.1172L62.1167 39.5406L62.5991 38.425H63.8218V39.4891H65.1496V40.8625H63.8218V42.9297C63.8218 43.2734 63.9905 43.4453 64.328 43.4453Z" fill="#3E56DD"/>
<path d="M71.3443 42.1328C71.3443 43.0016 71.1055 43.6797 70.6279 44.1672C70.1534 44.6516 69.4879 44.8938 68.6314 44.8938C67.8099 44.8938 67.1556 44.6453 66.6684 44.1484C66.1844 43.6516 65.9424 42.9797 65.9424 42.1328C65.9424 41.2672 66.1796 40.5953 66.6541 40.1172C67.1317 39.6359 67.8003 39.3953 68.6601 39.3953C69.1918 39.3953 69.6615 39.5063 70.069 39.7281C70.4766 39.95 70.7903 40.2687 71.01 40.6844C71.2328 41.0969 71.3443 41.5797 71.3443 42.1328ZM67.8386 42.1328C67.8386 42.5891 67.9006 42.9375 68.0248 43.1781C68.149 43.4156 68.3576 43.5344 68.6505 43.5344C68.9403 43.5344 69.1441 43.4156 69.2619 43.1781C69.3829 42.9375 69.4434 42.5891 69.4434 42.1328C69.4434 41.6797 69.3829 41.3375 69.2619 41.1063C69.1409 40.875 68.9339 40.7594 68.641 40.7594C68.3544 40.7594 68.149 40.875 68.0248 41.1063C67.9006 41.3344 67.8386 41.6766 67.8386 42.1328Z" fill="#3E56DD"/>
<path d="M75.6811 39.3953C75.8435 39.3953 75.9979 39.4078 76.1444 39.4328L76.2495 39.4516L76.0823 41.1813C75.9294 41.1438 75.7177 41.125 75.447 41.125C75.0395 41.125 74.7433 41.2172 74.5587 41.4016C74.374 41.5828 74.2817 41.8453 74.2817 42.1891V44.8H72.4142V39.4891H73.804L74.0954 40.3375H74.1861C74.3421 40.0563 74.5587 39.8297 74.8357 39.6578C75.1159 39.4828 75.3977 39.3953 75.6811 39.3953Z" fill="#3E56DD"/>
<path d="M79.6215 44.8938C78.7203 44.8938 78.0198 44.6594 77.5199 44.1906C77.0232 43.7188 76.7748 43.0484 76.7748 42.1797C76.7748 41.2828 77.0057 40.5953 77.4674 40.1172C77.9291 39.6359 78.5882 39.3953 79.4447 39.3953C80.2599 39.3953 80.8887 39.6047 81.3313 40.0234C81.7771 40.4391 82 41.0391 82 41.8234V42.6391H78.6614C78.6742 42.9359 78.784 43.1688 78.991 43.3375C79.2011 43.5063 79.4861 43.5906 79.8459 43.5906C80.1739 43.5906 80.4748 43.5609 80.7486 43.5016C81.0257 43.4391 81.325 43.3344 81.6466 43.1875V44.5047C81.3536 44.6516 81.0511 44.7531 80.7391 44.8094C80.427 44.8656 80.0545 44.8938 79.6215 44.8938ZM79.5116 40.6422C79.2919 40.6422 79.1072 40.7109 78.9576 40.8484C78.8111 40.9828 78.7251 41.1953 78.6996 41.4859H80.3044C80.2981 41.2297 80.2233 41.025 80.08 40.8719C79.9399 40.7188 79.7504 40.6422 79.5116 40.6422Z" fill="#3E56DD"/>
</svg>
