<svg width="32" height="32" viewBox="0 0 32 32" fill="none" xmlns="http://www.w3.org/2000/svg">
<path fill-rule="evenodd" clip-rule="evenodd" d="M14.5494 9.51196H21.1147C24.5905 9.51196 25.9808 11.2885 25.7491 13.9146C25.4401 18.24 22.814 20.6344 19.3382 20.6344H17.5617C17.0983 20.6344 16.7893 20.9433 16.6349 21.7929L15.8625 26.7362C15.7852 27.0452 15.6308 27.2769 15.399 27.2769H11.3054C10.9192 27.2769 10.7647 26.968 10.9192 26.35L13.3908 10.4388C13.4681 9.82092 13.8543 9.51196 14.5494 9.51196Z" fill="#1F9CD8"/>
<path fill-rule="evenodd" clip-rule="evenodd" d="M10.4558 4.02802H17.0211C18.8748 4.02802 21.0375 4.10525 22.505 5.34108C23.5091 6.1907 23.9726 7.58101 23.8953 9.04854C23.5091 14.0691 20.4968 16.8497 16.4804 16.8497H13.2364C12.6957 16.8497 12.3095 17.2359 12.155 18.1627L11.2281 23.8784C11.1509 24.2646 10.9964 24.4963 10.6875 24.4963H6.67105C6.20762 24.4963 6.05314 24.1874 6.20762 23.415L9.1427 5.10936C9.21994 4.41421 9.60613 4.02802 10.4558 4.02802Z" fill="#233E81"/>
<path fill-rule="evenodd" clip-rule="evenodd" d="M12.2322 17.6221L13.3908 10.3616C13.4681 9.74371 13.8543 9.43475 14.5494 9.43475H21.1147C22.1961 9.43475 23.0457 9.58923 23.7408 9.89819C23.0457 14.378 20.1878 16.8497 16.4031 16.8497H13.1591C12.7729 16.8497 12.464 17.0814 12.2322 17.6221Z" fill="#27326E"/>
</svg>
