<svg width="32" height="32" viewBox="0 0 32 32" fill="none" xmlns="http://www.w3.org/2000/svg">
<path d="M11.4103 11.7738L21.6064 5.97684C21.2231 5.74802 20.7631 5.51919 20.3031 5.36664L11.4103 10.3245L7.50059 8.11255C7.19394 8.41765 6.96395 8.72276 6.65731 9.10413L11.4103 11.7738ZM23.7529 7.57862C23.4463 7.27352 23.1396 7.0447 22.7563 6.7396L11.4103 13.1467L5.96735 10.0957C5.81403 10.4771 5.6607 10.8585 5.43072 11.2398L11.4103 14.5197L23.7529 7.57862ZM11.4103 15.9689L5.04741 12.3077C4.97074 12.6891 4.81742 13.0705 4.74076 13.5281L11.4103 17.2656L25.3628 9.48551C25.1328 9.18041 24.9028 8.79903 24.5962 8.49393L11.4103 15.9689ZM27.2027 15.5875C27.2027 21.6896 22.143 26.7237 15.8567 26.7237C9.64712 26.7237 4.51077 21.7658 4.51077 15.5875V14.8248L11.3337 18.7148L25.8994 10.4771C26.7427 12.0789 27.2027 13.8332 27.2027 15.5875Z" fill="#2C9E48"/>
</svg>
