<svg width="32" height="32" viewBox="0 0 32 32" fill="none" xmlns="http://www.w3.org/2000/svg">
<path d="M8.54432 22.9627L8.2365 23.485C8.12671 23.1409 7.92765 22.7838 7.7994 22.5314C7.55314 23.0397 7.16289 23.0499 6.78735 23.0527C6.87046 21.8347 5.34128 20.6099 6.01336 19.2206C6.14743 18.9426 6.06056 18.6026 5.77086 18.4569C4.7448 17.9357 5.21986 20.0979 4.19448 20.1629C4.3908 19.9177 4.46502 19.4043 4.49443 19.3598C4.27622 19.4166 3.75361 19.7484 3.51899 19.3232C4.11821 18.997 4.29059 18.5062 4.38465 18.0133C4.50401 17.3898 4.55874 17.1011 4.68015 16.8446C4.80636 16.5707 5.00884 16.3333 5.44184 15.7717C5.33923 15.7874 4.1849 16.0303 3.92634 15.9092C5.92135 14.6841 5.47159 13.1258 8.51491 11.7368C7.71731 11.1445 6.9009 10.6721 7.4861 9.5397C8.31961 10.5411 9.90352 10.1947 10.7593 9.72918C9.91378 9.55988 8.82478 8.81564 8.56553 7.98657C8.88463 7.93732 9.29711 8.28276 9.53482 8.44386C9.64905 8.13809 9.69454 7.78204 10.0653 7.70475C9.57107 8.76399 10.5482 9.31465 11.4802 9.31909C11.6242 9.31909 12.2272 9.25924 12.2272 9.25924C12.1315 9.06087 11.7415 8.51979 12.0251 8.30055C12.2529 8.51466 12.5244 8.68533 12.7724 8.87515C14.5844 10.2774 11.9108 11.5778 10.8171 12.1678C9.10045 13.0954 9.55979 14.1984 10.277 14.4806C10.2739 14.6061 10.197 14.6611 10.0779 14.6998C9.57654 14.8674 9.10558 14.5096 8.70576 14.2801C8.73004 14.9724 8.68284 15.6376 9.4476 16.0186L8.9202 16.2115C9.37373 16.5556 9.51156 16.7382 10.0578 16.8094C9.80262 16.9329 9.48625 16.9308 9.21537 16.9561C9.28377 17.148 9.34021 17.4072 9.48351 17.5793C8.36579 17.7116 7.91876 17.0738 7.57332 17.1001C6.83626 17.1548 6.88209 18.5424 8.69618 18.5445L8.50807 18.8547C8.50807 18.8547 8.85214 19.0554 9.16646 19.0941C9.04607 19.1916 8.92944 19.3232 8.8282 19.4238L9.11789 19.6731C8.37776 19.8062 8.16775 19.0185 7.68755 19.3985C6.95529 19.9789 8.57031 21.2044 10.119 21.0214C9.98868 21.188 9.62545 21.4328 9.46778 21.5604C10.7302 22.7527 10.1074 23.8749 10.6266 24.6971C9.53892 24.6249 8.73278 23.8263 8.54432 22.9627ZM9.96303 21.622C10.3133 21.3436 10.6026 21.2047 10.5889 20.5333C10.0632 20.8015 8.57134 20.7874 7.94818 19.9293C7.77204 19.6858 7.96015 19.563 8.13082 19.7549C8.55698 20.2385 9.34705 20.0193 9.63537 19.8794C9.58988 19.7138 9.46162 19.497 9.35389 19.4043C9.46162 19.2976 9.76637 19.1403 9.82964 18.868C9.66581 18.7794 9.03307 18.7162 9.03307 18.7162C9.13499 18.619 9.26154 18.4819 9.18595 18.1197C8.53953 18.3184 7.74091 18.0489 7.5593 17.8091C7.38076 17.5741 7.5634 17.3535 7.71252 17.5085C8.03471 17.8474 9.62272 18.2349 10.2137 17.6463C9.99415 17.5861 9.75234 17.3898 9.70822 17.2687C10.2548 17.214 10.6912 16.8911 10.7268 16.4889C10.4244 16.4889 9.85324 16.467 9.65931 16.3206C9.92165 16.2238 10.0865 16.1288 10.1693 15.8356C9.16954 15.7751 9.09053 15.0326 9.0854 14.9094C9.73593 15.285 10.882 15.1188 10.5859 14.1936C10.0455 14.1649 9.49891 13.2883 10.9884 12.4821C12.3418 11.7502 13.8819 10.9601 13.7465 9.65906C13.6576 8.82761 12.2867 8.25917 12.113 7.83779C11.5411 8.11004 11.4252 8.42607 11.6834 8.95552C11.6834 8.95552 10.4097 9.08241 10.3092 8.29816C10.265 7.94621 10.5 7.61685 10.7521 7.3658C10.6095 7.3658 9.64905 7.10894 9.3597 7.89115C8.82067 7.52382 8.361 7.53716 7.99811 7.92467C8.57681 8.26874 8.93525 9.44632 9.89189 9.79416C9.21126 10.1635 8.11098 10.0083 7.46866 8.87515C6.86123 9.79074 6.51168 10.6971 7.8141 11.6647C5.44286 12.7444 5.45996 14.8065 3.39757 15.7895C3.60723 16.3511 4.04844 16.3511 4.61004 16.2635C3.71804 17.4226 4.47802 18.6348 3.06683 19.1307C3.19851 19.603 3.46358 19.9796 3.98482 19.8418C3.83638 20.073 3.73891 20.0678 3.50838 20.322C4.27999 20.808 5.19524 20.4557 5.4025 18.8971C5.43978 18.619 5.82319 18.7928 5.69014 19.0657C4.81046 20.8849 7.03498 22.253 6.24798 23.5876C6.94263 23.5585 7.47037 23.5048 7.76075 23.2698C7.902 23.55 7.98648 23.8273 7.95639 24.1006C8.33945 24.023 8.47934 23.7952 8.50567 23.5366C8.75706 24.2682 9.65487 25.0511 11.0924 25.0511C10.33 23.9659 11.0397 22.8635 9.96303 21.622Z" fill="#D0D5D6"/>
<path d="M6.55373 18.6126C6.81538 18.8858 7.13346 18.9139 7.7361 18.8756C7.07395 18.7959 6.70251 18.6348 6.47199 18.1953C6.43745 17.9689 6.41521 17.7264 6.4053 17.4668C6.38512 16.7704 6.61427 15.9407 7.09584 15.0326C7.09242 15.6024 7.54457 16.4982 8.55183 16.6473C7.64547 16.2512 7.11362 15.3592 7.40332 14.4967C7.59211 14.1947 7.80519 13.8834 8.0429 13.5674C8.16261 13.4145 8.27855 13.2674 8.39245 13.1303C8.27034 13.5708 8.80321 14.0257 9.1596 14.1016C8.96602 13.9132 8.55183 13.3006 9.50881 12.2769C9.24135 12.4028 8.94618 12.5817 8.7225 12.7571C10.462 10.8774 11.891 10.825 12.548 9.8797C11.5965 10.5299 9.0782 10.8808 7.94679 10.5737C8.57132 10.9913 10.0766 10.953 10.4442 10.8753C9.21672 12.0686 6.53697 13.3006 6.07319 14.3975C6.72645 13.6813 7.14817 13.5499 7.71319 13.3652C7.26822 14.0295 6.86737 14.614 6.59101 15.2915C5.87824 16.8399 4.92468 16.8593 4.86209 18.1368C5.18735 17.147 5.84712 16.8963 6.30474 16.2461C6.22368 16.6613 6.1864 17.121 6.20077 17.6528C6.21684 18.2305 6.33245 18.7381 6.51611 19.1919C6.4696 19.8237 6.52603 20.9017 7.24975 21.6135C6.75792 20.9906 6.65224 19.9789 6.69601 19.5842C7.2624 20.6777 8.87846 22.1874 9.6593 23.2025C8.87846 21.8973 6.96382 20.3723 6.55373 18.6126ZM24.435 13.3652C24.998 13.5506 25.4221 13.6813 26.0743 14.3975C25.6112 13.3006 22.9294 12.0683 21.7019 10.875C22.0713 10.9526 23.5758 10.9913 24.2004 10.5737C23.07 10.8808 20.5507 10.5299 19.5988 9.8797C20.2565 10.825 21.6848 10.8777 23.4247 12.7571C23.2017 12.5817 22.9058 12.4028 22.638 12.2769C23.5943 13.3006 23.1812 13.9121 22.9872 14.1016C23.344 14.0257 23.8761 13.5715 23.7547 13.1303C23.869 13.2674 23.9859 13.4145 24.1043 13.5674C24.3437 13.8834 24.5551 14.1947 24.7435 14.4967C25.0335 15.3592 24.5 16.2512 23.5964 16.6473C24.6036 16.4985 25.0558 15.6024 25.0506 15.0326C25.5322 15.9407 25.7631 16.7704 25.7412 17.4668C25.7326 17.7264 25.709 17.9689 25.6755 18.1953C25.444 18.6348 25.0725 18.7962 24.4128 18.8756C25.014 18.9139 25.3301 18.8858 25.5948 18.6126C25.1834 20.3723 23.2691 21.8967 22.4879 23.2025C23.2691 22.1874 24.8831 20.6777 25.4512 19.5842C25.4953 19.9789 25.3892 20.9906 24.8988 21.6135C25.6211 20.9017 25.6776 19.8237 25.6314 19.1916C25.8144 18.7374 25.9286 18.2305 25.9461 17.6528C25.9632 17.121 25.9231 16.6613 25.8424 16.2461C26.3001 16.8963 26.9598 17.147 27.2854 18.1368C27.2235 16.8593 26.27 16.8399 25.5558 15.2915C25.2805 14.614 24.8807 14.0295 24.435 13.3652Z" fill="#D0D5D6"/>
<path d="M27.6558 19.3599C27.6832 19.4043 27.7557 19.9177 27.9524 20.1633C26.9263 20.0979 27.4027 17.9357 26.3763 18.4569C26.0866 18.6026 26.0001 18.9426 26.1348 19.2207C26.8062 20.6099 25.2764 21.8347 25.3622 23.0527C24.9843 23.0499 24.5916 23.0397 24.3468 22.5314C24.2202 22.7838 24.0194 23.1409 23.9107 23.485L23.6035 22.9627C23.4134 23.8263 22.6076 24.6253 21.521 24.6971C22.0371 23.8749 21.4173 22.7527 22.6794 21.5604C22.5214 21.4339 22.1592 21.188 22.0282 21.0214C23.5779 21.2044 25.1929 19.9789 24.4589 19.3985C23.9798 19.0185 23.7684 19.8062 23.03 19.6731L23.3193 19.4238C23.2184 19.3226 23.1001 19.1919 22.9807 19.0941C23.2961 19.0555 23.6391 18.8547 23.6391 18.8547L23.451 18.5445C25.2658 18.5424 25.3089 17.1548 24.5749 17.1001C24.2298 17.0738 23.7807 17.7123 22.664 17.5796C22.8053 17.4072 22.8631 17.1473 22.9325 16.9561C22.6637 16.9308 22.3439 16.9329 22.0901 16.8094C22.6363 16.7379 22.7735 16.5556 23.227 16.2115L22.7013 16.0186C23.4647 15.6376 23.4178 14.972 23.4407 14.2801C23.0426 14.5103 22.5696 14.8674 22.0703 14.6998C21.9512 14.6612 21.8736 14.6061 21.8705 14.4806C22.5877 14.1984 23.0447 13.0954 21.3305 12.1678C20.2374 11.5778 17.5624 10.2775 19.3751 8.87482C19.6227 8.68534 19.8929 8.51467 20.1211 8.30056C20.4053 8.5198 20.0168 9.06088 19.9193 9.25925C19.9193 9.25925 20.5219 9.31979 20.6649 9.31979C21.5993 9.31466 22.5782 8.76332 22.0829 7.70476C22.4537 7.78206 22.4974 8.1381 22.6107 8.44387C22.849 8.28278 23.2622 7.93733 23.582 7.98658C23.3224 8.81565 22.2348 9.55989 21.3886 9.72919C22.243 10.1947 23.8276 10.5411 24.6607 9.53971C25.2459 10.6721 24.4309 11.1445 23.6319 11.7375C26.6749 13.1258 26.2262 14.6834 28.2219 15.9092C27.964 16.0303 26.8069 15.7867 26.704 15.7717C27.1394 16.3333 27.3422 16.5707 27.4684 16.8446C27.5891 17.1011 27.6425 17.3891 27.7618 18.0133C27.8573 18.5062 28.0297 18.997 28.6278 19.3226C28.3936 19.7484 27.8713 19.4166 27.6558 19.3599ZM27.5371 16.2635C28.0984 16.3507 28.5399 16.3507 28.7496 15.7888C26.6869 14.8065 26.704 12.7445 24.3324 11.6647C25.6358 10.6971 25.2846 9.79075 24.6795 8.87482C24.0379 10.0083 22.9339 10.1636 22.2567 9.79417C23.2116 9.44634 23.5714 8.26875 24.1494 7.92468C23.7879 7.53717 23.3251 7.52383 22.7882 7.89116C22.4961 7.10827 21.5384 7.36581 21.3944 7.36581C21.6451 7.61652 21.8828 7.94623 21.838 8.29817C21.7388 9.08242 20.4645 8.95588 20.4645 8.95588C20.721 8.42608 20.6071 8.11005 20.0352 7.83781C19.8598 8.25952 18.4906 8.82762 18.4027 9.65873C18.2656 10.9601 19.8061 11.7502 21.1594 12.4821C22.649 13.2883 22.1021 14.1649 21.5627 14.1936C21.2634 15.1188 22.4106 15.285 23.0618 14.9095C23.0587 15.0326 22.9766 15.7751 21.9769 15.8357C22.061 16.1288 22.2255 16.2239 22.4882 16.3213C22.2922 16.467 21.7228 16.4889 21.4201 16.4889C21.4567 16.8911 21.8927 17.2133 22.4396 17.2677C22.3959 17.3891 22.1534 17.5861 21.9341 17.6463C22.5248 18.2349 24.1118 17.8474 24.435 17.5085C24.5828 17.3535 24.7644 17.5742 24.5886 17.8088C24.4056 18.0489 23.6076 18.3184 22.9612 18.1197C22.887 18.4819 23.0122 18.619 23.1131 18.7162C23.1131 18.7162 22.4807 18.7794 22.3172 18.868C22.3784 19.1403 22.6859 19.2976 22.7929 19.4043C22.6859 19.497 22.558 19.7138 22.5121 19.8794C22.8018 20.0193 23.5923 20.2382 24.0153 19.7549C24.1881 19.563 24.3755 19.6855 24.2004 19.9293C23.5758 20.7875 22.085 20.8011 21.5582 20.5333C21.5435 21.2047 21.8336 21.3436 22.1841 21.6223C21.1071 22.8635 21.8182 23.9659 21.0558 25.0511C22.4913 25.0511 23.3901 24.2682 23.6422 23.5366C23.6699 23.7952 23.8077 24.023 24.1908 24.1006C24.1614 23.8274 24.2465 23.55 24.3854 23.2699C24.6768 23.5048 25.2066 23.5585 25.8985 23.5876C25.1129 22.253 27.3377 20.8849 26.456 19.0657C26.325 18.7921 26.7081 18.619 26.745 18.8971C26.9513 20.4557 27.8675 20.808 28.6398 20.322C28.4069 20.0678 28.3115 20.073 28.1634 19.8418C28.6829 19.9796 28.948 19.603 29.0817 19.1307C27.6698 18.6348 28.4295 17.4223 27.5371 16.2635ZM13.1763 21.9394L13.6004 21.6175C13.6757 21.5601 13.7239 21.5238 13.8108 21.5351L14.4083 21.6134C14.4408 21.7571 14.5362 21.8973 14.5362 21.8973L13.9007 21.7632C13.8108 21.7526 13.7844 21.7571 13.6996 21.8176L13.399 22.0451C13.3394 22.0923 13.3377 22.1655 13.3713 22.2383L13.4202 22.3433L13.2095 22.5024L13.1294 22.3508C13.0477 22.1891 13.0422 22.042 13.1763 21.9394ZM14.1473 20.8162L14.0365 20.8747C13.9606 20.9188 13.9216 20.9386 13.8556 20.8555L13.8073 20.7953C13.7841 20.7669 13.7759 20.6955 13.8251 20.6421L14.2981 20.0897L13.8617 19.732L14.4175 19.9368L14.6207 19.6834C14.6802 19.7347 14.6593 19.8811 14.6593 19.8811C14.8844 19.8811 15.538 20.2057 15.5629 21.0193C15.5629 21.0193 15.7103 21.2379 15.8988 21.2495L16.8616 21.3073C17.0206 21.3073 17.4198 21.0036 17.9328 21.2913C18.0624 21.2126 18.2013 21.1503 18.3439 21.1346C18.7954 21.1011 19.1282 21.4161 19.3761 21.7328C19.5571 21.9623 19.805 22.3139 19.805 22.3139C19.6987 22.4404 19.593 22.4832 19.5051 22.4511C19.371 22.3833 19.3283 22.2753 19.2862 22.1265C19.2188 21.8901 18.9585 21.688 18.9585 21.688C19.0464 21.847 19.0652 22.0269 19.1073 22.1918C18.7314 21.82 18.6599 21.3644 18.3973 21.3025C18.2803 21.2735 18.1459 21.3227 18.0193 21.4691C18.1524 21.7762 18.1459 22.1337 18.2813 22.3717C18.3846 22.5506 18.4058 22.5663 18.4527 22.6056C18.5638 22.6853 18.5002 22.828 18.4835 22.9326L18.3408 23.8267H18.1011L18.2591 22.9514C18.3073 22.6853 17.559 22.6853 17.1759 22.1771C16.8493 22.5581 15.9337 22.4627 15.538 22.4032C15.3782 22.3799 15.2226 22.3895 15.1344 22.5472C15.0834 22.6361 14.9965 22.6094 14.9442 22.5964L14.2222 22.4404C14.0953 22.411 14.0406 22.4363 13.9842 22.5526L13.8391 22.8519C13.8073 22.922 13.8087 22.9726 13.8662 23.0287L13.9353 23.1023C13.8942 23.2466 13.7636 23.3554 13.7636 23.3554L13.6055 23.1782C13.5293 23.0886 13.5255 22.9579 13.5864 22.831L13.82 22.344C13.8474 22.2906 13.8966 22.2315 13.9958 22.2315L14.8895 22.2168L14.6155 21.7715C14.4113 21.4366 14.7496 20.8412 14.6993 20.5597C14.674 20.9373 14.2181 20.7645 14.1473 20.8162ZM17.8658 22.8762L17.4803 23.8267H17.2406L17.6257 22.9063C17.6657 22.7879 17.5901 22.7319 17.494 22.6015C17.6366 22.6826 17.7392 22.7346 17.913 22.802C17.8972 22.828 17.8795 22.8434 17.8658 22.8762ZM13.1636 22.7684L13.5973 22.4008L13.5313 22.2681C13.4841 22.1747 13.5094 22.1675 13.5601 22.1309L13.7878 21.9602C13.8412 21.9165 13.8966 21.9216 13.9626 21.9373L14.6497 22.0991H13.9246C13.756 22.1101 13.7071 22.1747 13.6476 22.2982L13.5973 22.4008L13.4106 22.7838C13.347 22.9159 13.3145 23.0913 13.4807 23.2907L13.6127 23.4467L13.3456 23.9884H13.571L13.7553 23.6119C13.7701 23.5985 14.0437 23.3502 14.1008 23.0913C14.0228 23.028 13.9664 22.9829 14.0098 22.8926L14.094 22.7137C14.1206 22.6539 14.1305 22.6292 14.2102 22.6457L14.9326 22.802C15.0225 22.8259 15.1546 22.8656 15.2507 22.7209C15.3502 22.5694 15.3632 22.5862 15.5924 22.6094L15.9607 22.6481C16.4642 22.6959 16.9666 22.5694 17.1626 22.4145C17.231 22.5711 17.3671 22.6908 17.4311 22.8122C17.4543 22.857 17.4157 22.921 17.3842 23.0003L16.9707 23.9884H17.6082L17.9694 23.0855C18.0029 23.0003 18.0511 22.9313 18.0895 22.8977L17.8822 23.9884H18.5002L18.6651 22.9077C18.701 22.6689 18.6798 22.5906 18.5649 22.4928C18.3063 22.2753 18.3125 21.8176 18.229 21.5396C18.2731 21.5146 18.3234 21.5016 18.3846 21.5088C18.5197 21.5225 18.6206 21.8662 18.7797 22.0871C19.0957 22.5325 19.5297 23.0239 20.025 22.3317C19.9767 22.253 19.9237 22.1802 19.8646 22.1121L19.7264 21.9507C19.646 21.8607 19.2619 21.4222 19.1029 21.2639C18.7393 20.899 18.1818 20.954 17.9598 21.1312C17.4564 20.8682 16.9256 21.1449 16.8 21.1346L15.9333 21.0823C15.8944 21.0799 15.8338 21.0662 15.7921 20.9992L15.9525 20.9462C15.8017 20.3189 15.4227 19.7932 14.7609 19.7036C14.7609 19.7036 14.7222 19.5052 14.6217 19.4669L14.424 19.7002C14.3683 19.7077 14.307 19.7245 14.2574 19.7463L13.4126 19.4324L14.0471 20.073C14.0471 20.073 13.7177 20.5388 13.6244 20.6339C13.5624 20.7208 13.5686 20.7892 13.6377 20.873L13.7612 21.0347C13.8251 21.1175 13.8942 21.1151 13.9958 21.0624L14.135 20.9906C14.1945 20.9397 14.399 21.0399 14.4856 20.9602C14.4295 21.1425 14.4028 21.3176 14.3891 21.4575L13.82 21.3887C13.6952 21.3727 13.6391 21.3887 13.5624 21.4482L13.0771 21.8221C12.9184 21.9442 12.8688 22.1545 12.9677 22.3587L13.1636 22.7684ZM15.0167 10.4721C15.2486 10.6321 15.6584 10.8031 15.6584 10.8031V10.5302L14.7561 10.1848C14.7561 10.1848 14.7561 10.2952 15.0167 10.4721ZM15.6584 10.1427V9.8725L14.6343 9.50619C14.6343 9.50619 14.7561 9.63616 15.0167 9.81469C15.2486 9.97408 15.6584 10.1427 15.6584 10.1427ZM15.6584 9.52637V9.25275L14.5372 8.84027C14.5372 8.84027 14.7561 9.01812 15.0167 9.19529C15.2486 9.35536 15.6584 9.52637 15.6584 9.52637Z" fill="#D0D5D6"/>
<path d="M18.8077 13.2411H19.9549C19.9066 13.0752 19.7281 12.9073 19.3939 12.9073C19.0769 12.9073 18.8874 13.0899 18.8077 13.2411ZM17.6082 8.84027L16.4891 9.25275V9.52637C16.4891 9.52637 16.8996 9.3557 17.1298 9.19529C17.3907 9.01812 17.6082 8.84027 17.6082 8.84027ZM17.3907 10.1848L16.4891 10.5302V10.8031C16.4891 10.8031 16.8985 10.6321 17.1301 10.4721C17.3907 10.2952 17.3907 10.1848 17.3907 10.1848ZM17.5121 9.50619L16.4891 9.8725V10.1427C16.4891 10.1427 16.8996 9.97408 17.1301 9.81469C17.3907 9.63616 17.5121 9.50619 17.5121 9.50619ZM12.7502 12.9073C12.4163 12.9073 12.2375 13.0752 12.1909 13.2411H13.3377C13.2567 13.0899 13.0686 12.9073 12.7502 12.9073Z" fill="#D0D5D6"/>
<path d="M16.0736 8.70514L14.2322 7.97766C14.3881 7.60725 15.1105 7.29156 16.0736 7.29156C17.0367 7.29156 17.7581 7.60725 17.914 7.97766L16.0736 8.70514ZM17.4448 10.9786L16.2025 11.6311V8.99415L17.8894 8.42092L17.4448 10.9786ZM18.896 12.0782C18.4301 12.1592 18.031 12.729 17.7027 13.241L17.6657 13.3006H17.3162L17.3158 13.3611C17.2785 13.7568 16.9034 14.2948 16.0729 14.2948C15.6895 14.2948 15.4008 14.1775 15.2025 14.0174C15.0298 13.8775 14.9224 13.7045 14.8697 13.54C14.8498 13.4787 14.8375 13.4196 14.8321 13.3611L14.8293 13.3006H14.4818L14.4442 13.241C14.1145 12.729 13.715 12.1592 13.2516 12.0782L14.5181 11.3435L16.0736 12.189L17.6278 11.3435L18.896 12.0782ZM20.604 14.0174C20.4713 14.3639 20.3639 14.7384 20.3639 15.1133V19.1423H19.8954C19.683 18.9364 19.5031 18.2486 19.5031 18.2486C19.3868 18.4972 19.5198 18.9969 19.645 19.1423H19.0413C18.8922 18.9405 18.7626 18.2247 18.7626 18.2247C18.5823 18.4306 18.6966 18.9877 18.8084 19.1423H18.4079C18.3819 18.8564 18.4637 18.5444 18.4637 18.5444C18.255 18.5058 18.0313 18.395 18.0324 18.1614C18.1381 18.2612 18.1808 18.2599 18.3282 18.2571L18.4989 18.1227C17.9328 18.1405 17.9075 17.5208 18.3546 17.2301C17.9075 17.2444 17.5723 16.9787 17.7362 16.5022C17.4167 16.3374 17.3045 15.7983 17.5402 15.5617C17.3695 15.3763 17.3411 15.0141 17.4502 14.7658C17.2249 14.7658 16.9707 14.6751 16.8291 14.5212C16.8182 14.5264 16.8055 14.5301 16.7936 14.5339C17.0757 14.4186 17.3141 14.2401 17.4762 14.0174H20.604ZM20.365 22.0208C20.365 22.8614 19.9768 23.499 19.3314 23.8537L19.5633 23.3827H19.3392L19.0424 23.9853C18.7352 24.102 18.3857 24.1656 17.9995 24.1656C16.8209 24.1656 16.5093 24.2138 16.0746 24.6482C15.6368 24.2138 15.3259 24.1656 14.1497 24.1656C13.7656 24.1656 13.4181 24.1026 13.1107 23.9884H13.1196L13.4161 23.3827H13.1921L12.9314 23.9121C12.8695 23.8827 12.8097 23.8513 12.7505 23.8167L12.9656 23.3827H12.7437L12.584 23.7062C12.0791 23.3341 11.7823 22.7544 11.7823 22.0208V19.379H20.365V22.0208ZM14.5225 17.1962L14.8847 17.2407C14.9118 17.4394 14.8598 17.7756 14.7305 17.9627L14.3803 17.8611C14.4733 17.6384 14.4972 17.4329 14.5225 17.1962ZM14.002 16.9308C14.002 16.9308 14.3337 16.9147 14.4275 16.9503C14.4972 16.979 14.45 17.095 14.3611 17.0826C14.2667 17.071 14.002 16.9308 14.002 16.9308ZM13.9794 15.6119L13.6818 16.7006L13.7834 14.9457L14.2458 14.5503L14.4808 15.0664L13.8867 16.7704L14.043 15.6232C14.0584 15.5429 13.9927 15.5343 13.9794 15.6119ZM13.7506 17.4257C13.5939 17.4893 13.4346 17.4038 13.4838 17.3022C13.556 17.3689 13.7585 17.3364 13.7585 17.3364L13.7506 17.4257ZM13.4571 17.571C13.529 17.6412 13.7475 17.6148 13.7475 17.6148L13.7561 17.6579C13.6606 17.7848 13.3963 17.728 13.4571 17.571ZM13.1144 16.8709C13.031 16.8152 13.0686 16.6938 13.1613 16.6938C13.2622 16.6962 13.3973 16.8111 13.5314 16.8685C13.5314 16.8685 13.1815 16.915 13.1144 16.8709ZM13.4462 17.8347C13.4462 17.8347 13.5467 17.8778 13.6733 17.8874C13.6586 17.9565 13.6056 18.0242 13.5194 18.0047C13.4482 17.989 13.4161 17.9001 13.4462 17.8347ZM13.6815 17.1777C13.5132 17.2321 13.439 17.1114 13.4472 17.0081C13.7759 16.887 13.9223 16.965 14.0191 17.0269C14.108 17.0826 14.1809 17.2407 14.3006 17.3405C14.2804 17.4749 14.2387 17.6706 14.1904 17.8016C13.8539 17.7147 13.8364 17.4185 13.9626 17.2372C13.8915 17.1548 13.8169 17.1339 13.6815 17.1777ZM15.1409 17.2742L15.5014 17.3169C15.5366 17.516 15.4696 17.9356 15.3335 18.1368L14.9661 18.0307C15.1129 17.8378 15.1669 17.4951 15.1409 17.2742ZM15.7607 17.3501L16.0582 17.3877C16.1051 17.634 16.0746 18.0612 15.917 18.305L15.5705 18.2038C15.7227 17.9982 15.7931 17.5741 15.7607 17.3501ZM16.2935 17.4161H16.3C16.3773 17.4277 16.4587 17.4151 16.5329 17.384C16.6933 17.6148 16.8189 18.1368 16.6263 18.4637C16.5172 18.4644 16.4098 18.4459 16.3099 18.4179L16.2299 18.394C16.3927 18.1405 16.3681 17.6955 16.2935 17.4161ZM16.7477 17.2407L16.9581 17.0344C17.1739 17.2215 17.4554 17.6412 17.3671 18.0389L17.1373 18.2486C17.0908 18.2948 17.0408 18.3293 16.9916 18.3598C17.1342 18.0037 16.9516 17.4578 16.7477 17.2407ZM17.9852 17.359C17.939 17.4202 17.901 17.4927 17.8771 17.5704L17.6209 17.8064C17.6722 17.4312 17.4208 16.9879 17.1907 16.8073L17.4639 16.5402L17.5173 16.5946C17.4263 16.834 17.6042 17.3022 17.9852 17.359ZM17.3045 15.5459C17.1698 15.8031 17.1835 16.0997 17.3415 16.3685L17.2365 16.4718C16.7771 16.4154 16.5959 15.7299 16.5959 15.7299C16.5873 15.7898 16.5812 15.8524 16.5822 15.9122C16.3144 15.8131 16.1441 15.5753 16.1581 15.2487C16.2597 15.3058 16.3739 15.3455 16.4953 15.3671L16.5261 15.1659C16.2053 15.1102 16.0179 14.9094 15.9457 14.6727C15.9313 14.6707 15.917 14.6683 15.9029 14.6656C15.9594 14.6707 16.0161 14.6751 16.0746 14.6751C16.2645 14.6751 16.4454 14.6457 16.615 14.5961C16.7481 14.786 16.9851 14.9217 17.2228 14.9484C17.1852 15.1047 17.2033 15.3021 17.3045 15.5459ZM14.6703 14.0174C14.8919 14.3208 15.2517 14.5452 15.6772 14.6338C15.7138 14.7938 15.7996 14.9683 15.9693 15.1102C15.8992 15.5812 16.1017 16.021 16.6085 16.1383C16.6612 16.3777 16.8107 16.5593 17.06 16.6459L16.7077 17.0529C16.5736 17.2092 16.3978 17.2595 16.2518 17.2407L14.6775 17.0618C14.7452 16.8867 14.5643 16.6838 14.0663 16.7707L14.685 15.0415L14.3071 14.238L13.5919 14.8485L13.5392 16.6637L13.2358 16.5139C12.835 16.3422 12.7187 17.0638 13.0987 17.0669L13.2492 17.0686C13.2399 17.1439 13.2622 17.2246 13.3207 17.2499C13.2492 17.2803 13.2283 17.4151 13.3179 17.4623C13.2263 17.5054 13.2153 17.6422 13.2882 17.702C13.2085 17.8347 13.1965 18.1248 13.4725 18.1973C13.6972 18.2571 13.8392 18.0133 13.8867 17.8724L16.3353 18.6306C16.6827 18.7302 16.929 18.6751 17.217 18.422L17.8562 17.8631C17.7765 18.2284 17.9075 18.5581 18.1856 18.6669C18.1856 18.6669 18.1452 18.9939 18.1586 19.1423H11.7823V15.1133C11.7823 14.7384 11.6742 14.3639 11.5445 14.0174H14.6703ZM14.2568 8.42092L15.9419 8.99415V11.6311L14.7011 10.9786L14.2568 8.42092ZM18.3511 8.10729C18.3511 7.46189 17.2676 6.88422 16.0729 6.88422C14.8772 6.88422 13.7937 7.46189 13.7937 8.10729L13.819 8.26393L14.2944 11.0032L12.0357 12.32C11.7949 12.4612 11.4939 12.8505 11.4556 13.241H11.8678C11.9358 12.8508 12.245 12.4171 12.8223 12.4431C13.3439 12.4715 13.6517 12.7889 13.9589 13.241L14.0379 13.3611L14.1518 13.54H10.8294C11.0726 14.0294 11.3058 14.5493 11.3058 15.1133V22.0208C11.3058 23.7979 12.6715 24.6437 14.1497 24.6437C15.2907 24.6437 15.4446 24.5924 16.0746 25.2217C16.7026 24.5924 16.8555 24.6437 17.9995 24.6437C19.4774 24.6437 20.8428 23.7979 20.8428 22.0208V15.1133C20.8428 14.5493 21.0736 14.0294 21.3175 13.54H17.9934L18.1086 13.3611L18.188 13.241C18.4927 12.7889 18.8023 12.4715 19.3238 12.4431C19.8984 12.4171 20.2093 12.8508 20.2771 13.241H20.6889C20.6519 12.8505 20.3492 12.4612 20.1098 12.32L17.8511 11.0032L18.3275 8.26393L18.3511 8.10729Z" fill="#D0D5D6"/>
<path d="M20.1696 16.6216L20.1724 16.4195C19.5533 16.4051 19.4104 15.6732 19.4104 15.6732C19.2298 16.2115 19.7028 16.6124 20.1696 16.6216ZM19.3868 17.859L19.3238 17.6675C18.7961 17.8026 18.5238 16.9653 18.5238 16.9653C18.3535 17.5741 18.9438 18.0047 19.3868 17.859ZM19.7537 17.0826C19.1227 17.1828 18.8631 16.4482 18.8631 16.4482C18.7933 16.848 19.0526 17.2533 19.4695 17.2967C19.3758 17.8183 19.8608 18.0861 20.2805 17.9001L20.2199 17.7188C19.8553 17.8395 19.5133 17.4794 19.7537 17.0826ZM19.3758 14.986L19.3809 14.7846C18.5478 14.6119 18.6182 14.0386 18.6182 14.0386C18.438 14.5787 18.9103 14.9775 19.3758 14.986Z" fill="#D0D5D6"/>
<path fill-rule="evenodd" clip-rule="evenodd" d="M14.0953 23.3827L13.796 23.9887H14.0207L14.3193 23.3827H14.0953Z" fill="#D0D5D6"/>
<path fill-rule="evenodd" clip-rule="evenodd" d="M14.5446 23.3827L14.2473 23.9887H14.4733L14.7686 23.3827H14.5446Z" fill="#D0D5D6"/>
<path fill-rule="evenodd" clip-rule="evenodd" d="M16.3493 23.3827L16.0527 23.9887H16.2753L16.574 23.3827H16.3493Z" fill="#D0D5D6"/>
<path fill-rule="evenodd" clip-rule="evenodd" d="M16.8027 23.3827L16.5027 23.9887H16.728L17.0247 23.3827H16.8027Z" fill="#D0D5D6"/>
<path fill-rule="evenodd" clip-rule="evenodd" d="M15.8986 23.3827L15.6006 23.9887H15.8253L16.1226 23.3827H15.8986Z" fill="#D0D5D6"/>
<path fill-rule="evenodd" clip-rule="evenodd" d="M18.5347 23.9887H18.758L19.0567 23.3827H18.832L18.5347 23.9887Z" fill="#D0D5D6"/>
<path fill-rule="evenodd" clip-rule="evenodd" d="M14.9967 23.3827L14.6993 23.9887H14.924L15.2213 23.3827H14.9967Z" fill="#D0D5D6"/>
<path fill-rule="evenodd" clip-rule="evenodd" d="M15.4473 23.3827L15.1493 23.9887H15.3747L15.6727 23.3827H15.4473Z" fill="#D0D5D6"/>
<path d="M14.4261 20.1298C14.385 20.1298 14.3495 20.1705 14.3495 20.2224C14.3495 20.272 14.385 20.3127 14.4261 20.3127C14.4692 20.3127 14.5047 20.272 14.5047 20.2224C14.5047 20.1705 14.4692 20.1298 14.4261 20.1298ZM14.3351 6.14617L14.6891 5.39338L15.3482 5.74293L16.0739 5.02605L16.8011 5.74293L17.4584 5.39338L17.8104 6.14617L18.2468 6.07845C18.1356 6.2888 18.0508 6.47246 17.9725 6.73001C17.495 6.45092 16.7847 6.23612 16.0739 6.23612C15.3618 6.23612 14.6535 6.45092 14.175 6.73001C14.0953 6.47246 14.0126 6.2888 13.8994 6.07845L14.3351 6.14617ZM16.0746 6.47588C16.9991 6.47588 17.7399 6.78233 18.149 7.11204C18.149 7.11204 18.2714 6.37738 18.6853 5.73267L17.9407 5.81646L17.5508 4.9874L16.8011 5.37696L16.0746 4.65564L15.3482 5.37696L14.5967 4.9874L14.2065 5.81646L13.4622 5.73267C13.8775 6.37738 13.9982 7.11204 13.9982 7.11204C14.4069 6.78233 15.1484 6.47588 16.0746 6.47588Z" fill="#D0D5D6"/>
<path d="M16.8346 4.99181C16.9434 5.00105 17.0388 4.91964 17.048 4.81157C17.0586 4.70451 16.9006 4.41516 16.9006 4.41516C16.9006 4.41516 16.6639 4.66997 16.6564 4.77907C16.6465 4.88613 16.7276 4.98121 16.8346 4.99181ZM18.0553 5.43507C18.1524 5.48672 18.2697 5.44773 18.3217 5.35162C18.3734 5.25756 18.3398 4.93059 18.3398 4.93059C18.3398 4.93059 18.0245 5.07184 17.9732 5.16829C17.9239 5.26372 17.9599 5.38274 18.0553 5.43507ZM15.3116 4.99181C15.4214 4.98121 15.5014 4.88613 15.4915 4.77907C15.4819 4.66997 15.2476 4.41516 15.2476 4.41516C15.2476 4.41516 15.0899 4.70451 15.1002 4.81157C15.1084 4.91964 15.2052 5.00105 15.3116 4.99181ZM14.0919 5.43507C14.1884 5.38274 14.225 5.26372 14.173 5.16829C14.1224 5.07184 13.8074 4.93059 13.8074 4.93059C13.8074 4.93059 13.7749 5.25756 13.8272 5.35162C13.8775 5.44773 13.9958 5.48672 14.0919 5.43507ZM27.5994 12.2926C27.6798 12.4715 27.8392 13.0933 27.4575 13.5673C27.0238 12.6989 26.4259 11.9557 25.9433 11.6349C25.8373 11.5668 26.0011 11.4447 26.2984 11.4058C27.1996 11.2354 28.2547 11.6171 28.7565 11.7502C28.5229 11.926 28.332 12.0036 28.0943 12.0337C28.4593 12.3395 28.7243 12.5984 28.9135 12.8867C28.5588 12.975 28.3608 12.7509 27.5994 12.2926ZM28.7346 12.1452C28.9949 12.0529 29.196 11.8039 29.2958 11.5754C28.6344 11.4793 26.876 10.7415 25.4313 11.3428C25.9724 10.8284 26.4581 10.7624 26.5036 10.0233C26.729 10.1847 27.1083 10.2757 27.3214 9.8906C27.1729 9.44973 26.7957 9.8068 26.7437 9.68538C26.6695 9.51779 27.2184 9.7384 27.3361 9.16619C26.9092 9.01947 26.7816 9.36799 26.7057 9.28727C26.6353 9.20997 26.9769 9.06359 26.7252 8.60254C26.2806 8.86214 26.5125 9.15525 26.4188 9.18706C26.3045 9.23289 26.3941 8.87479 25.9037 8.89155C25.8554 9.41826 26.3654 9.43571 26.2806 9.5195C26.1807 9.62211 26.0477 9.21613 25.6766 9.42168C25.6834 9.8475 26.0271 10.0808 26.3839 9.98055C26.3264 10.7898 25.5846 10.6389 25.0315 11.5501C26.2016 12.15 26.7307 13.1969 27.451 13.9193C27.689 13.7517 28.096 13.0003 28.096 13.0003C28.8752 13.6043 29.4238 13.003 29.4238 13.003C29.1553 12.7284 29.1454 12.5197 28.7346 12.1452ZM15.8568 26.4978L15.3502 26.4787L15.2917 26.6822L15.3554 26.6849C15.3762 26.6849 15.3762 26.6456 15.3943 26.624C15.405 26.6162 15.4966 26.6011 15.5695 26.6086L15.7819 26.6247C15.6563 26.885 15.3294 27.1302 15.3335 27.3026C15.3386 27.3946 15.4316 27.4138 15.4867 27.4104C15.589 27.4073 15.6218 27.3348 15.6485 27.2243C15.7097 26.9678 15.8342 26.7718 15.9238 26.4787L15.8609 26.4811L15.8568 26.4978ZM16.2025 26.8002L16.2111 26.6442H16.6516L16.6287 26.4698C16.508 26.4736 16.3311 26.5132 16.168 26.5143L16.1382 26.8549C16.3424 26.846 16.4755 26.9349 16.4755 27.149C16.4755 27.2284 16.4232 27.3779 16.3311 27.3888C16.3099 27.3919 16.2819 27.3844 16.2686 27.3738C16.2241 27.3406 16.2822 27.3047 16.2822 27.2493C16.2822 27.1791 16.2097 27.1538 16.1618 27.1624C16.0859 27.1668 16.0582 27.2157 16.0582 27.2763C16.0582 27.4021 16.2443 27.4367 16.325 27.4367C16.5052 27.4367 16.7146 27.3361 16.7146 27.1313C16.7146 26.8621 16.4136 26.8057 16.2025 26.8002ZM17.2854 26.9394C17.1183 26.9394 17.0942 26.6948 17.0942 26.5765C17.0942 26.5426 17.1274 26.4958 17.164 26.4958C17.3168 26.4958 17.3592 26.8282 17.3713 26.9219C17.3464 26.9308 17.3168 26.9394 17.2854 26.9394ZM17.179 26.4493C17.0112 26.4493 16.8722 26.5669 16.8722 26.7277C16.8722 26.9815 17.1633 27.0649 17.3793 26.9685C17.406 27.1655 17.3633 27.3071 17.2832 27.3118C17.2148 27.3118 17.2247 27.264 17.2148 27.2239C17.1969 27.1467 17.1329 27.1261 17.0656 27.1467C16.9954 27.1655 16.9845 27.2243 16.9965 27.2674C17.028 27.3676 17.16 27.37 17.2229 27.3625C17.5011 27.3327 17.6166 27.1405 17.6166 26.9267C17.6166 26.6788 17.4653 26.4493 17.179 26.4493ZM14.9935 26.3973C14.9702 26.4257 14.8618 26.5618 14.6279 26.7355L14.647 26.7708C14.673 26.7564 14.7141 26.7373 14.7849 26.6948L14.647 27.1757C14.6398 27.2021 14.608 27.2051 14.5923 27.2021L14.5099 27.1897L14.4948 27.2469L14.9422 27.3269L14.9555 27.2711L14.8786 27.2534C14.856 27.2469 14.8413 27.2311 14.8457 27.2051L15.0492 26.4058L14.9935 26.3973Z" fill="#D0D5D6"/>
<path d="M18.3819 26.9657L17.9852 25.6742C18.83 25.5002 19.4189 25.3202 19.868 25.1465V25.9523L20.565 26.2331C19.9761 26.5016 19.2455 26.768 18.3819 26.9657ZM16.0746 27.7202C15.2852 27.7202 14.5164 27.6022 13.8576 27.4408L14.2766 26.0881C14.5547 26.1521 15.2486 26.2372 16.0746 26.2372C16.9006 26.2372 17.5922 26.1521 17.872 26.0881L18.2916 27.4408C17.6308 27.6022 16.8606 27.7202 16.0746 27.7202ZM11.5808 26.2331L12.2795 25.9523V25.1465C12.7283 25.3202 13.3176 25.5002 14.1624 25.6742L13.7667 26.9657C12.9044 26.768 12.1725 26.5016 11.5808 26.2331ZM20.0838 25.784V24.797C19.3204 25.1465 18.3494 25.4304 17.1004 25.5432L17.0432 25.8959C17.1499 25.9106 17.2837 25.9239 17.4639 25.9349C16.9998 25.9992 16.4026 26.0299 16.0746 26.0299C15.7459 26.0299 15.1491 25.9992 14.685 25.9349C14.8639 25.9239 14.9976 25.9106 15.1043 25.8959L15.0479 25.5432C13.7981 25.4304 12.8254 25.1465 12.0637 24.797V25.784L11.0284 26.2095C11.7949 26.6086 12.678 26.9339 13.6972 27.1969L13.5772 27.6104C14.162 27.7811 15.0951 27.9555 16.0746 27.9555C17.0532 27.9555 17.9869 27.7811 18.5704 27.6104L18.4496 27.1969C19.4692 26.9339 20.353 26.6086 21.1198 26.2095L20.0838 25.784ZM3.2334 12.8867C3.42254 12.5984 3.68589 12.3395 4.05391 12.0347C3.81347 12.0036 3.62501 11.926 3.39005 11.7502C3.89248 11.6171 4.95001 11.2354 5.84987 11.4058C6.14538 11.4447 6.31263 11.5668 6.20421 11.6349C5.72024 11.9557 5.12273 12.6989 4.68802 13.5667C4.30838 13.0933 4.46776 12.4715 4.54813 12.2926C3.78782 12.7509 3.5891 12.975 3.2334 12.8867ZM4.05117 13.0003C4.05117 13.0003 4.45818 13.7517 4.69554 13.9193C5.41653 13.1969 5.94632 12.15 7.11569 11.5501C6.5623 10.6389 5.81909 10.7915 5.76539 9.98123C6.11938 10.0808 6.46448 9.84647 6.47167 9.42168C6.0992 9.21818 5.96718 9.62313 5.86663 9.5195C5.78318 9.434 6.29279 9.41826 6.24388 8.89189C5.75274 8.87684 5.84371 9.23289 5.72777 9.18706C5.63576 9.15422 5.86663 8.86145 5.42097 8.60254C5.17061 9.06564 5.51298 9.20963 5.44184 9.28727C5.36659 9.36799 5.23765 9.01946 4.81217 9.16619C4.92709 9.7384 5.47775 9.51779 5.40319 9.68538C5.3512 9.8068 4.97498 9.45041 4.82722 9.89128C5.03825 10.2757 5.41892 10.1847 5.64226 10.024C5.68912 10.7655 6.17445 10.8267 6.7169 11.3428C5.27219 10.7415 3.51317 11.4789 2.84999 11.5757C2.95089 11.8039 3.152 12.0529 3.41159 12.1432C3.00288 12.5214 2.99296 12.729 2.72379 13.0023C2.72379 13.0023 3.27136 13.6043 4.05117 13.0003ZM15.4402 12.4503V12.885C15.591 12.7048 15.88 12.7396 15.88 12.7396V13.3655C15.88 13.3655 15.8704 13.6744 15.761 13.8081H16.3879C16.2788 13.6744 16.2686 13.3655 16.2686 13.3655V12.7396C16.2686 12.7396 16.5576 12.7048 16.7077 12.885V12.4503H15.4402Z" fill="#D0D5D6"/>
<path fill-rule="evenodd" clip-rule="evenodd" d="M29.7986 12.6371C29.7227 12.5587 29.6768 12.4879 29.6139 12.3891C29.5814 12.3385 29.5459 12.2851 29.5055 12.2266C29.6146 12.0997 29.708 11.9534 29.7777 11.7929L30.0579 11.1547L29.3687 11.0555C29.2521 11.0384 29.0646 10.9892 28.8461 10.9317C28.423 10.8209 27.8812 10.6786 27.2888 10.6167C27.4913 10.5278 27.6623 10.3684 27.7824 10.1523L27.8956 9.94807C27.8956 9.94807 27.8655 9.6618 27.754 9.57185C27.7971 9.48327 27.8289 9.38545 27.8515 9.27874L27.9448 8.82179L27.5043 8.67096C27.4363 8.64702 27.3672 8.63026 27.2998 8.61932C27.2748 8.53552 27.2379 8.44694 27.1876 8.35391L26.926 7.87439L26.454 8.15075C26.3367 8.21984 26.2375 8.29816 26.1571 8.3864C26.0866 8.3734 26.0114 8.3669 25.932 8.3669C25.932 8.3669 25.6636 8.33681 25.3653 8.44454L24.9846 8.05019L24.5345 7.56931C24.1139 7.11852 23.5434 6.98548 22.9612 7.20676C22.7393 6.98548 22.3928 6.80147 21.8555 6.80147C21.6735 6.80147 21.5138 6.82336 21.4191 6.83601C21.4191 6.83601 20.6789 6.97077 20.2634 7.36581L19.7582 7.12571C19.4199 7.65789 18.8412 7.82719 18.8412 7.82719C18.8022 7.67157 18.7342 7.52587 18.6381 7.39351L18.6712 7.2054C18.6712 7.19992 18.7845 6.5641 19.1309 6.02576L19.7329 5.08862L18.8799 5.18439C18.8819 5.09957 18.8782 5.00004 18.8662 4.88135L18.7899 4.15182L18.1213 4.45348C18.0471 4.487 17.9852 4.5195 17.9277 4.55062L17.7957 4.26913L17.4896 4.42818C17.4588 4.35225 17.4194 4.26708 17.3654 4.16858L17.0124 3.52182L16.5114 4.06187C16.4601 4.11762 16.417 4.16858 16.379 4.21783L16.075 3.91548L15.7692 4.2192C15.7312 4.16995 15.6892 4.11899 15.6379 4.06392L15.1358 3.51874L14.7818 4.16892C14.7277 4.26811 14.6891 4.35225 14.6583 4.42818L14.3529 4.26948L14.2202 4.55062C14.1624 4.5195 14.0998 4.487 14.0262 4.4528L13.3552 4.15114L13.281 4.88307C13.2687 5.00106 13.2656 5.10025 13.2676 5.18439L12.4133 5.08862L13.0173 6.02645C13.3648 6.56411 13.4756 7.1989 13.4759 7.20369L13.5077 7.3918C13.4106 7.52587 13.3429 7.67157 13.3039 7.82719C13.3039 7.82719 12.7577 7.59359 12.3921 7.12502L11.877 7.37059C11.289 6.97385 10.9248 6.81925 10.2914 6.80147C9.7537 6.78676 9.40723 6.98548 9.18594 7.20642C8.60314 6.98582 8.03401 7.11955 7.61469 7.56931C7.61469 7.56931 7.33868 7.86892 7.16391 8.05019C6.98914 8.23215 6.73228 8.3823 6.73228 8.3823C6.73228 8.3823 6.36631 8.30021 5.99043 8.38708C5.91005 8.2985 5.81018 8.21984 5.69082 8.14972L5.2178 7.87439L4.95752 8.35664C4.90793 8.44865 4.87167 8.53586 4.84739 8.61932C4.77967 8.63026 4.71127 8.64702 4.64252 8.67096L4.20507 8.82179L4.29673 9.276C4.31862 9.38545 4.35043 9.48327 4.39421 9.57219C4.3689 9.62042 4.34633 9.6724 4.32752 9.72713L4.25364 9.94773L4.36617 10.1519C4.48519 10.3677 4.65586 10.5278 4.85868 10.6167C4.26629 10.6786 3.72419 10.8209 3.30008 10.9321C3.08256 10.9895 2.8941 11.0388 2.77781 11.0562L2.08522 11.1561L2.24289 11.5125L2.36875 11.796C2.44024 11.9547 2.53327 12.1011 2.64271 12.227C2.60201 12.2851 2.42656 12.5584 2.34994 12.6367L2.0004 12.9931L2.33626 13.3635C2.37799 13.409 2.75421 13.8034 3.36336 13.804C3.52958 13.804 3.69512 13.775 3.85895 13.7172C4.02141 13.9713 4.21328 14.2281 4.39011 14.3547C4.06655 14.7354 3.69785 15.0651 3.17353 15.3147L2.73506 15.5237L2.92283 16.0244C3.04596 16.3264 3.28435 16.6586 3.74642 16.7854C3.64758 17.0806 3.59969 17.3618 3.55797 17.6107C3.45912 18.2038 3.4174 18.4494 2.89513 18.6327L2.42621 18.7969L2.56029 19.275C2.66905 19.6646 2.83048 19.9225 3.00697 20.0918L2.69539 20.4348C2.69539 20.4348 3.43518 20.9889 4.15993 21.0566C4.17019 21.058 4.78891 21.0973 5.06629 20.7437C5.17744 21.1445 5.35324 21.5142 5.51228 21.8501C5.83994 22.5389 6.01437 22.9473 5.79479 23.3191L5.29989 24.1591L6.27397 24.1184C6.6991 24.1006 7.09448 24.0753 7.43582 23.9905C7.43582 24.0093 7.43479 24.0264 7.43274 24.0438L7.35305 24.7652L8.20639 24.5853C8.29669 24.5582 8.38014 24.5234 8.45744 24.4816C8.9862 25.0993 9.88333 25.5819 11.0934 25.5819H11.1642L9.7732 26.1531L10.7856 26.6802C11.4525 27.0273 12.1937 27.3184 13.0388 27.5646L12.9208 27.9696L13.4294 28.1184C13.7229 28.2049 14.7831 28.4857 16.0746 28.4857C17.3661 28.4857 18.4253 28.2042 18.7195 28.1184L19.2267 27.9696L19.109 27.5653C19.9552 27.3184 20.6967 27.0273 21.3637 26.6802L22.3767 26.1531L20.9847 25.5819H21.0548C22.2639 25.5819 23.1613 25.0993 23.6897 24.4816C23.7664 24.5223 23.8508 24.5582 23.9401 24.5853L24.7931 24.7652L24.7151 24.0445C24.7134 24.0274 24.7124 24.0096 24.7124 23.9908C25.0534 24.0753 25.4491 24.1006 25.8739 24.1184L26.8466 24.1591L26.3534 23.3198C26.1335 22.9473 26.3083 22.5393 26.6352 21.8505C26.7946 21.5153 26.9701 21.1449 27.0816 20.7437C27.2694 20.887 27.4705 20.9721 27.6719 21.0169C27.6719 21.0169 27.8279 21.0638 27.9773 21.0676C28.4083 21.0806 28.6224 20.9585 28.9186 20.7721L29.4556 20.4341L29.1412 20.0907C29.3174 19.9214 29.4788 19.6639 29.5879 19.2764L29.7234 18.7969L29.2531 18.6327C28.7305 18.4494 28.6894 18.2038 28.5899 17.6111C28.5475 17.3617 28.5013 17.0806 28.4014 16.7854C28.8632 16.6582 29.1012 16.3258 29.2243 16.0244L29.4118 15.523L28.9736 15.3147C28.449 15.0651 28.0806 14.7354 27.7567 14.3547C27.9342 14.2278 28.1261 13.9706 28.2896 13.7172C28.4524 13.775 28.6173 13.8034 28.7842 13.804C29.3933 13.804 29.7706 13.4093 29.8116 13.3642L30.1475 12.9941L29.7986 12.6371Z" fill="#FFFFFE"/>
<path d="M16.0746 24.6492C15.6372 24.2145 15.3259 24.1666 14.1477 24.1666C12.7406 24.1666 11.784 23.3417 11.784 22.0221V19.3817H20.3643V22.0221C20.3643 23.3417 19.4097 24.1666 17.9995 24.1666C16.8209 24.1666 16.5093 24.2145 16.0746 24.6492ZM11.784 19.1447V15.1167C11.784 14.7415 11.6755 14.367 11.5456 14.0215H14.671C14.9579 14.4152 15.4781 14.6793 16.0746 14.6793C16.6691 14.6793 17.1893 14.4152 17.4766 14.0215H20.6027C20.47 14.367 20.3632 14.7415 20.3632 15.1167V19.1447H11.784Z" fill="#FFE52B"/>
<path d="M12.2806 25.1476V25.9523L11.5828 26.2331C12.1735 26.5016 12.9054 26.7681 13.767 26.9654L14.1634 25.6753C13.3179 25.5005 12.7293 25.3203 12.2806 25.1476ZM16.0746 26.2373C15.249 26.2373 14.5547 26.1521 14.2773 26.0874L13.8586 27.4408C14.5164 27.6023 15.2862 27.7203 16.0746 27.7203C16.8606 27.7203 17.6301 27.6023 18.2909 27.4408L17.8709 26.0874C17.5922 26.1521 16.9006 26.2373 16.0746 26.2373ZM19.867 25.1476C19.4182 25.3203 18.8299 25.5005 17.9848 25.6753L18.3819 26.9654C19.2445 26.7681 19.975 26.5016 20.5643 26.2331L19.867 25.9523V25.1476ZM9.51154 12.281C8.55388 13.3047 8.96841 13.9169 9.16199 14.1057C8.80526 14.0291 8.27342 13.5749 8.3945 13.1351C8.28094 13.2712 8.16534 13.4186 8.04529 13.5708C7.80759 13.8875 7.59485 14.1984 7.40639 14.4994C7.11602 15.3627 7.64855 16.2543 8.55388 16.6493C7.54696 16.5016 7.09549 15.6058 7.09857 15.036C6.61735 15.9444 6.38819 16.7735 6.40906 17.4699C6.41829 17.7284 6.44052 17.9709 6.47438 18.1984C6.70559 18.6372 7.07703 18.7983 7.73815 18.8783C7.13654 18.9163 6.81914 18.8882 6.55681 18.6146C6.96689 20.3743 8.88051 21.8984 9.66032 23.2035C8.88051 22.1891 7.26514 20.679 6.69909 19.5863C6.65531 19.981 6.76066 20.9927 7.25248 21.6148C6.52876 20.9038 6.47267 19.825 6.51919 19.1943C6.33586 18.7401 6.21992 18.2326 6.20419 17.6552C6.18948 17.1241 6.2271 16.664 6.30782 16.2495C5.85088 16.8994 5.19077 17.1501 4.86551 18.1388C4.92878 16.8628 5.88166 16.8429 6.59409 15.2949C6.87044 14.6174 7.27095 14.0332 7.71558 13.3693C7.15124 13.554 6.72919 13.6857 6.07661 14.4009C6.54005 13.3047 9.21877 12.0727 10.4456 10.8798C10.0779 10.9577 8.57303 10.9957 7.94884 10.5788C9.08059 10.8856 11.5986 10.535 12.5494 9.88482C11.8927 10.8291 10.4641 10.8825 8.72455 12.7605C8.94857 12.5865 9.24374 12.4076 9.51154 12.281ZM10.8188 12.1723C11.9125 11.5819 14.5851 10.2826 12.7734 8.88098C12.5261 8.69082 12.2549 8.51981 12.0261 8.30639C11.7432 8.5246 12.1325 9.06568 12.2293 9.26405C12.2293 9.26405 11.6263 9.32493 11.4816 9.32493C10.5499 9.32082 9.57242 8.76914 10.0673 7.71093C9.69658 7.78754 9.65074 8.14358 9.53753 8.44969C9.29949 8.2886 8.88667 7.94316 8.56824 7.99173C8.82715 8.81976 9.9165 9.56571 10.7613 9.73501C9.90624 10.2002 8.32267 10.5463 7.48916 9.54485C6.90396 10.6763 7.71934 11.1496 8.51728 11.7423C5.47636 13.1299 5.92475 14.6868 3.92974 15.9123C4.18899 16.0337 5.34263 15.7898 5.44524 15.7751C5.01189 16.3371 4.80976 16.5744 4.68321 16.847C4.56248 17.1035 4.50741 17.3926 4.3877 18.0161C4.29365 18.5089 4.12195 18.9997 3.52307 19.3257C3.7577 19.7505 4.27928 19.4187 4.49749 19.3619C4.46774 19.4064 4.39454 19.9191 4.19857 20.1653C5.22326 20.0993 4.74888 17.9388 5.7746 18.459C6.06361 18.6047 6.15049 18.9446 6.01676 19.2231C5.34366 20.612 6.87386 21.8364 6.79041 23.0537C7.16664 23.0506 7.5562 23.0407 7.80246 22.5325C7.93003 22.7859 8.12909 23.1419 8.23956 23.486L8.54635 22.9641C8.73481 23.8274 9.54027 24.626 10.6286 24.6971C10.1094 23.8759 10.7312 22.7538 9.4705 21.5615C9.62714 21.4349 9.99071 21.19 10.1207 21.0235C8.57269 21.2054 6.95766 19.981 7.69061 19.3999C8.17047 19.0202 8.37979 19.8083 9.11993 19.6759L8.83057 19.4259C8.9325 19.3257 9.0481 19.1943 9.16849 19.0962C8.85452 19.0579 8.51078 18.8568 8.51078 18.8568L8.69821 18.5469C6.88515 18.5448 6.83864 17.1579 7.57535 17.1025C7.92182 17.0772 8.36884 17.7147 9.48521 17.5824C9.34224 17.41 9.28546 17.1507 9.21774 16.9582C9.4876 16.9336 9.80465 16.936 10.0591 16.8121C9.51394 16.7413 9.37576 16.559 8.92258 16.215L9.44998 16.0221C8.68556 15.6411 8.73207 14.9762 8.70847 14.2836C9.10795 14.5138 9.57858 14.8705 10.08 14.7043C10.1993 14.6642 10.276 14.6092 10.2787 14.4847C9.56182 14.2029 9.10317 13.0995 10.8188 12.1723ZM25.8397 16.2495C25.9201 16.664 25.9608 17.1244 25.9433 17.6552C25.9262 18.2326 25.8113 18.7401 25.6283 19.1943C25.6752 19.825 25.6187 20.9038 24.8957 21.6148C25.3862 20.992 25.4922 19.981 25.4491 19.5863C24.8807 20.679 23.267 22.1891 22.4862 23.2035C23.267 21.8984 25.1813 20.3736 25.5917 18.6146C25.3277 18.8882 25.012 18.9163 24.41 18.8786C25.0705 18.7983 25.4409 18.6372 25.6724 18.1984C25.707 17.9709 25.7296 17.7284 25.7384 17.4695C25.7603 16.7735 25.5298 15.9444 25.0486 15.036C25.0534 15.6058 24.6016 16.5016 23.5936 16.65C24.4976 16.2543 25.0308 15.3627 24.7408 14.4994C24.553 14.1984 24.3416 13.8875 24.1022 13.5708C23.9835 13.4186 23.8669 13.2715 23.7527 13.1351C23.8737 13.5749 23.3419 14.0291 22.9852 14.1057C23.1791 13.9169 23.5923 13.3047 22.6363 12.281C22.9045 12.4076 23.2 12.5865 23.423 12.7605C21.6838 10.8825 20.2565 10.8295 19.5971 9.88482C20.5496 10.535 23.0679 10.8859 24.1983 10.5788C23.5745 10.9957 22.0692 10.9577 21.7009 10.8798C22.9274 12.0727 25.6085 13.3047 26.0709 14.4005C25.419 13.6857 24.9949 13.554 24.433 13.3697C24.8776 14.0336 25.2774 14.6174 25.5527 15.2946C26.2669 16.8429 27.2201 16.8624 27.2827 18.1395C26.9571 17.1494 26.2973 16.8994 25.8397 16.2495ZM27.7591 18.0161C27.6394 17.3922 27.5857 17.1035 27.4646 16.8477C27.3395 16.5744 27.1366 16.3371 26.7009 15.7751C26.8042 15.7898 27.9602 16.0337 28.2185 15.9123C26.2231 14.6868 26.6718 13.1299 23.6299 11.7423C24.4288 11.1496 25.2432 10.6766 24.659 9.54417C23.8255 10.5463 22.2409 10.2002 21.3869 9.73501C22.2334 9.56571 23.321 8.82045 23.5799 7.99173C23.2602 7.94316 22.8473 8.2886 22.6096 8.44901C22.4964 8.14358 22.4523 7.7872 22.0815 7.7099C22.5768 8.76914 21.5983 9.32082 20.6639 9.32493C20.5212 9.32493 19.9186 9.26405 19.9186 9.26405C20.0154 9.06568 20.4039 8.5246 20.12 8.30639C19.8919 8.51981 19.6221 8.69082 19.3741 8.88098C17.5614 10.2826 20.2367 11.5826 21.3294 12.1723C23.0426 13.0995 22.5864 14.2022 21.8695 14.4847C21.8715 14.6092 21.9492 14.6642 22.0686 14.7043C22.5676 14.8705 23.0399 14.5138 23.4384 14.2836C23.4154 14.9755 23.4633 15.6411 22.6986 16.0221L23.2246 16.215C22.7707 16.559 22.6343 16.7413 22.0891 16.8121C22.3422 16.936 22.6616 16.9336 22.9304 16.9589C22.8614 17.1504 22.8029 17.41 22.662 17.5824C23.7793 17.7147 24.2277 17.0772 24.5722 17.1025C25.3061 17.1579 25.263 18.5448 23.449 18.5469L23.6371 18.8574C23.6371 18.8574 23.294 19.0579 22.9787 19.0962C23.0984 19.1943 23.2164 19.3253 23.3173 19.4259L23.0279 19.6759C23.7663 19.8083 23.9777 19.0202 24.4569 19.3999C25.1898 19.981 23.5755 21.2054 22.0265 21.0235C22.1571 21.1897 22.5197 21.4349 22.6777 21.5621C21.416 22.7538 22.0357 23.8759 21.5196 24.6982C22.6052 24.626 23.411 23.8274 23.6018 22.9641L23.9083 23.486C24.0181 23.1419 24.2192 22.7859 24.3447 22.5325C24.5896 23.0407 24.9816 23.051 25.3591 23.0537C25.2736 21.8364 26.8032 20.612 26.1318 19.2231C25.9977 18.9453 26.0842 18.6047 26.3732 18.459C27.4 17.9388 26.9236 20.0993 27.9493 20.1653C27.753 19.9191 27.6798 19.4064 27.6521 19.3619C27.8689 19.4187 28.3895 19.7515 28.6244 19.3253C28.0266 18.9997 27.8545 18.5082 27.7591 18.0161Z" fill="#FFFFFE"/>
<path d="M17.4762 14.0215C17.1893 14.4152 16.6684 14.6793 16.0746 14.6793C15.9364 14.6793 15.8024 14.6642 15.6762 14.6392C15.7114 14.8017 15.7952 14.9689 15.9682 15.1136C15.8978 15.5846 16.1016 16.0255 16.6071 16.1414C16.6612 16.3812 16.8093 16.5631 17.0596 16.649L16.7077 17.056C16.5719 17.2119 16.3947 17.2615 16.2518 17.2437L14.6781 17.0645C14.7462 16.8897 14.5642 16.6876 14.0659 16.7745L14.6836 15.0442L14.307 14.2415L13.5929 14.852L13.5402 16.6667L13.2327 16.5169C12.8363 16.3446 12.7197 17.0669 13.097 17.07L13.2492 17.0717C13.2389 17.1459 13.2628 17.228 13.3217 17.2543C13.2505 17.2831 13.2286 17.4175 13.3179 17.4647C13.2283 17.5081 13.2153 17.6453 13.2882 17.7044C13.2105 17.8382 13.1958 18.1268 13.4711 18.2C13.6979 18.2592 13.8402 18.016 13.8867 17.8748L16.3356 18.6334C16.68 18.7329 16.929 18.6768 17.2166 18.4244L17.8559 17.8655C17.7755 18.2308 17.9065 18.5605 18.1845 18.6693C18.1845 18.6693 18.1401 19.0041 18.1575 19.1433L19.014 19.1447H20.3632V15.1174C20.3632 14.7418 20.4699 14.367 20.6026 14.0215H17.4762ZM13.8084 20.7984L13.8559 20.8582C13.9226 20.9403 13.9613 20.9208 14.0375 20.877L14.1487 20.8182C14.2181 20.7659 14.674 20.9393 14.7 20.5607C14.7503 20.8435 14.4137 21.4386 14.6159 21.7714L14.8895 22.2195L13.9961 22.2321C13.8983 22.2321 13.8474 22.291 13.8203 22.345L13.5867 22.8296C13.5262 22.9569 13.5303 23.0903 13.6073 23.1785L13.7653 23.3564C13.7653 23.3564 13.8946 23.2462 13.9363 23.1029L13.8662 23.0308C13.8084 22.9747 13.8084 22.923 13.8402 22.8532L13.9842 22.5547C14.0399 22.4373 14.096 22.4124 14.2229 22.4418L14.9449 22.5978C14.9983 22.6104 15.0834 22.6364 15.1347 22.5482C15.2226 22.3912 15.3796 22.3809 15.538 22.4049C15.9344 22.4644 16.8493 22.5591 17.1759 22.1781C17.559 22.6867 18.3077 22.6867 18.2584 22.9528L18.1004 23.8273H18.3388L18.4835 22.9336C18.4999 22.8296 18.5638 22.6863 18.4517 22.6063C18.4058 22.5704 18.3846 22.5526 18.2803 22.3734C18.1442 22.135 18.1514 21.7783 18.0197 21.4715C18.1442 21.3247 18.2789 21.2748 18.3966 21.3018C18.6603 21.3665 18.7321 21.8217 19.107 22.1935C19.0642 22.0283 19.0464 21.847 18.9575 21.69C18.9575 21.69 19.2178 21.8918 19.2848 22.1278C19.3276 22.2763 19.371 22.384 19.5041 22.4524C19.5927 22.4845 19.6977 22.4418 19.8033 22.3152C19.8033 22.3152 19.5561 21.964 19.3751 21.7341C19.1272 21.4181 18.7954 21.1018 18.3432 21.1383C18.2013 21.1503 18.0635 21.215 17.9328 21.2926C17.4198 21.0053 17.021 21.3094 16.8619 21.3094L15.9009 21.2522C15.7114 21.2403 15.5626 21.021 15.5626 21.021C15.538 20.2077 14.8847 19.8835 14.6593 19.8835C14.6593 19.8835 14.6805 19.7367 14.621 19.6858L14.4199 19.9378L13.8628 19.7347L14.2995 20.0924L13.8255 20.6434C13.7769 20.6978 13.7844 20.769 13.8084 20.7984Z" fill="#FFFFFE"/>
<path d="M13.1773 21.9411C13.0433 22.0451 13.0487 22.1904 13.1301 22.3526L13.2109 22.5027L13.4209 22.343L13.3733 22.2397C13.3395 22.1672 13.3405 22.0933 13.4 22.0468L13.7006 21.8197C13.7851 21.7581 13.8115 21.7516 13.9017 21.7646L14.5372 21.8983C14.5372 21.8983 14.4415 21.7581 14.4086 21.6155L13.8104 21.5365C13.7256 21.5255 13.6746 21.5621 13.6004 21.6179L13.1773 21.9411ZM17.2406 23.8274H17.4803L17.8654 22.8772C17.8791 22.8447 17.8972 22.8297 17.912 22.8027C17.7389 22.7346 17.6377 22.6857 17.4933 22.6029C17.5901 22.7325 17.6657 22.7883 17.6257 22.9077L17.2406 23.8274ZM16.4891 10.5353L17.3897 10.1899C17.3897 10.1899 17.3897 10.3004 17.1301 10.4765C16.8992 10.6366 16.4891 10.8072 16.4891 10.8072V10.5353ZM16.4891 9.87695L17.5121 9.51167C17.5121 9.51167 17.3897 9.64129 17.1301 9.81949C16.8992 9.97818 16.4891 10.1489 16.4891 10.1489V9.87695ZM16.4891 9.25823L17.6082 8.84575C17.6082 8.84575 17.3897 9.02292 17.1301 9.20077C16.8992 9.36083 16.4891 9.53116 16.4891 9.53116V9.25823ZM17.4441 10.9834L17.8887 8.42609L16.2036 8.99863V11.6363L17.4441 10.9834Z" fill="#FFFFFE"/>
<path fill-rule="evenodd" clip-rule="evenodd" d="M14.4449 13.2459L14.4825 13.3047H14.8293L14.8331 13.3652C14.8375 13.423 14.8502 13.4829 14.8697 13.5434C14.9234 13.709 15.0301 13.8817 15.2025 14.0216C15.4015 14.182 15.6895 14.299 16.0729 14.299C16.9033 14.299 17.2785 13.7613 17.3148 13.3652L17.3168 13.3047H17.6654L17.7023 13.2459C18.03 12.7332 18.4298 12.1637 18.8953 12.083L17.6277 11.3477L16.0736 12.1931L14.5184 11.3477L13.2526 12.083C13.716 12.1637 14.1155 12.7332 14.4449 13.2459Z" fill="#FFFFFE"/>
<path d="M15.6584 9.87691V10.1488C15.6584 10.1488 15.249 9.97884 15.0184 9.81945C14.7568 9.64092 14.6354 9.51163 14.6354 9.51163L15.6584 9.87691ZM15.6584 9.25819V9.53113C15.6584 9.53113 15.249 9.3608 15.0184 9.20073C14.7568 9.02254 14.5379 8.84572 14.5379 8.84572L15.6584 9.25819ZM15.6584 10.8076C15.6584 10.8076 15.249 10.6365 15.0184 10.4772C14.7568 10.3007 14.7568 10.1899 14.7568 10.1899L15.6584 10.5353V10.8076ZM15.9419 11.6363V8.9986L14.2585 8.42571L14.7014 10.9834L15.9419 11.6363ZM16.0739 7.29772C15.1108 7.29772 14.3891 7.61341 14.2325 7.98313L16.0739 8.71062L17.914 7.98313C17.7577 7.61341 17.0367 7.29772 16.0739 7.29772ZM16.0746 6.24224C16.7843 6.24224 17.4943 6.45703 17.9725 6.73612C18.0501 6.47892 18.1339 6.2956 18.2468 6.08525L17.8104 6.15229L17.4584 5.3995L16.8 5.74939L16.0746 5.03217L15.3482 5.74939L14.6901 5.3995L14.3351 6.15229L13.8997 6.08525C14.0136 6.2956 14.096 6.47892 14.1757 6.73612C14.6545 6.45703 15.3625 6.24224 16.0746 6.24224ZM28.0905 12.0388C28.3289 12.0081 28.5198 11.9294 28.753 11.7546C28.2503 11.6209 27.1962 11.2402 26.2963 11.4109C25.9987 11.4499 25.8342 11.5706 25.9402 11.6394C26.4235 11.9598 27.0207 12.703 27.4547 13.5708C27.8361 13.0974 27.676 12.4749 27.5963 12.2967C28.3573 12.7554 28.556 12.9784 28.9097 12.8912C28.7216 12.6025 28.4555 12.3429 28.0905 12.0388ZM4.69176 13.5708C5.12613 12.703 5.72364 11.9598 6.20795 11.6394C6.31568 11.5706 6.14878 11.4499 5.85327 11.4109C4.95238 11.2402 3.89622 11.6209 3.39344 11.7546C3.6291 11.9294 3.81755 12.0081 4.05731 12.0388C3.691 12.3436 3.42594 12.6025 3.23782 12.8912C3.59318 12.9784 3.79122 12.7554 4.55119 12.2964C4.47252 12.4756 4.31177 13.0974 4.69176 13.5708Z" fill="#FFFFFE"/>
<path d="M8.54637 22.9641L8.23958 23.486C8.1291 23.142 7.93005 22.7859 7.80247 22.5325C7.55622 23.0407 7.16665 23.051 6.79043 23.0537C6.87388 21.8365 5.34367 20.612 6.01677 19.2231C6.15085 18.9453 6.06363 18.6047 5.77462 18.459C4.7489 17.9388 5.22328 20.0993 4.19858 20.1653C4.39456 19.9191 4.46775 19.4064 4.49751 19.3619C4.2793 19.4187 3.75772 19.7515 3.52309 19.3257C4.12197 18.9997 4.29367 18.5089 4.38806 18.0161C4.50743 17.3926 4.5625 17.1036 4.68323 16.8477C4.80978 16.5744 5.01191 16.3371 5.44525 15.7751C5.34265 15.7898 4.18901 16.0337 3.92941 15.9123C5.92477 14.6868 5.4757 13.1299 8.5173 11.7424C7.7197 11.1496 6.90432 10.6766 7.48918 9.54486C8.32269 10.5463 9.90625 10.2002 10.7613 9.73502C9.91651 9.56572 8.82717 8.82045 8.5686 7.99173C8.88668 7.94317 9.29951 8.28861 9.53687 8.4497C9.6511 8.14325 9.69659 7.78755 10.0673 7.71093C9.57244 8.76915 10.5499 9.32083 11.4816 9.32494C11.6263 9.32494 12.2293 9.26406 12.2293 9.26406C12.1325 9.06568 11.7433 8.5246 12.0261 8.30639C12.2549 8.51982 12.5261 8.69083 12.7734 8.88099C14.5851 10.2826 11.9119 11.5826 10.8181 12.1723C9.10318 13.0995 9.56184 14.2029 10.2787 14.4847C10.276 14.6092 10.1994 14.6642 10.08 14.7043C9.5786 14.8705 9.10797 14.5134 8.70849 14.2836C8.73209 14.9762 8.68489 15.6411 9.44999 16.0221L8.9226 16.214C9.37578 16.5591 9.51395 16.7413 10.0591 16.8121C9.80467 16.936 9.4883 16.9336 9.21776 16.9589C9.28582 17.1508 9.34226 17.41 9.48522 17.5824C8.36886 17.7147 7.92184 17.0772 7.57537 17.1025C6.83865 17.1579 6.88517 18.5448 8.69823 18.5469L8.51012 18.8574C8.51012 18.8574 8.85351 19.0579 9.16851 19.0962C9.04812 19.1937 8.93252 19.3257 8.83059 19.4259L9.12029 19.6759C8.37981 19.8083 8.17049 19.0202 7.69063 19.3999C6.95768 19.981 8.57271 21.2054 10.1207 21.0235C9.99073 21.19 9.62716 21.4349 9.47052 21.5622C10.7312 22.7538 10.1094 23.8759 10.6283 24.6982C9.54029 24.6253 8.73517 23.8274 8.54637 22.9641ZM9.96474 21.6234C10.3153 21.3457 10.6053 21.2068 10.5906 20.5347C10.0646 20.8035 8.57373 20.7892 7.95091 19.9317C7.77443 19.6875 7.96322 19.5651 8.13287 19.757C8.55903 20.2406 9.34944 20.0217 9.63742 19.8821C9.59193 19.7152 9.46368 19.4991 9.35594 19.4064C9.46368 19.3004 9.7691 19.1423 9.83101 18.8704C9.66786 18.7822 9.03546 18.7186 9.03546 18.7186C9.13704 18.6204 9.26359 18.4843 9.18801 18.1221C8.54158 18.3208 7.74365 18.051 7.56169 17.8119C7.3835 17.5766 7.56545 17.3563 7.7156 17.5123C8.0371 17.8498 9.62477 18.2377 10.2151 17.6494C9.9962 17.5889 9.75371 17.3926 9.71062 17.2711C10.2568 17.2164 10.6926 16.8939 10.7288 16.492C10.4265 16.492 9.85529 16.4701 9.66102 16.3237C9.92301 16.2269 10.0886 16.1322 10.1713 15.8388C9.17227 15.7782 9.09292 15.036 9.08745 14.9132C9.73798 15.2884 10.8841 15.1212 10.5879 14.1974C10.0465 14.1683 9.50096 13.2924 10.9898 12.488C12.3438 11.7547 13.8826 10.9646 13.7465 9.66456C13.6579 8.83208 12.2878 8.26467 12.114 7.84364C11.5421 8.11589 11.4272 8.43192 11.6855 8.96102C11.6855 8.96102 10.4111 9.08757 10.3105 8.30366C10.2671 7.95206 10.5017 7.62303 10.7541 7.37199C10.6108 7.37199 9.6511 7.11513 9.36175 7.89699C8.82375 7.52966 8.36373 7.54334 8.00119 7.93085C8.57921 8.2739 8.9373 9.45183 9.8936 9.79932C9.21332 10.168 8.11337 10.0138 7.47174 8.88099C6.86431 9.7959 6.51476 10.7023 7.81718 11.6695C5.44628 12.7486 5.46372 14.8103 3.40167 15.7929C3.61099 16.3542 4.05186 16.3542 4.6138 16.2663C3.72215 17.4247 4.48212 18.6372 3.07025 19.1328C3.20296 19.6051 3.46802 19.9827 3.98824 19.8445C3.84049 20.075 3.74301 20.0706 3.51249 20.324C4.28409 20.81 5.199 20.4581 5.40626 18.8992C5.44286 18.6204 5.82627 18.7949 5.69391 19.0681C4.81422 20.8863 7.03839 22.2544 6.2514 23.5886C6.94536 23.5596 7.47379 23.5052 7.7628 23.2716C7.90474 23.551 7.98956 23.8284 7.95912 24.1017C8.34253 24.024 8.48173 23.7973 8.50807 23.5367C8.75979 24.2696 9.65726 25.0522 11.0934 25.0522C10.3314 23.9666 11.0411 22.8642 9.96474 21.6234Z" fill="#1A1919"/>
<path d="M6.55681 18.6146C6.81914 18.8882 7.13654 18.9163 7.73815 18.8786C7.07702 18.7983 6.70559 18.6372 6.47404 18.1984C6.44052 17.9709 6.41829 17.7284 6.40906 17.4699C6.38819 16.7735 6.61735 15.9444 7.09857 15.036C7.09549 15.6055 7.54662 16.5012 8.55388 16.65C7.64854 16.2543 7.11602 15.3627 7.40639 14.4994C7.59485 14.1984 7.80759 13.8875 8.04529 13.5708C8.16466 13.4186 8.28094 13.2715 8.3945 13.1351C8.27342 13.5746 8.80526 14.0291 9.16097 14.1054C8.96841 13.9169 8.55388 13.3047 9.51086 12.281C9.24374 12.4076 8.94857 12.5865 8.72455 12.7606C10.463 10.8825 11.8927 10.8295 12.5494 9.88483C11.5986 10.535 9.08059 10.8859 7.94884 10.5788C8.57303 10.9957 10.0779 10.9578 10.4456 10.8798C9.21877 12.0727 6.54005 13.3047 6.07627 14.4009C6.7285 13.685 7.15124 13.554 7.71558 13.3697C7.27095 14.0336 6.87044 14.6174 6.59409 15.2949C5.88166 16.8429 4.92878 16.8628 4.86551 18.1395C5.19077 17.1501 5.85019 16.899 6.30782 16.2495C6.2271 16.6641 6.18948 17.1244 6.20384 17.6552C6.21992 18.2326 6.33586 18.7401 6.51919 19.1943C6.47267 19.825 6.52876 20.9038 7.25248 21.6148C6.76065 20.9927 6.65531 19.981 6.69909 19.5863C7.26514 20.6791 8.88051 22.1891 9.661 23.2035C8.88051 21.8984 6.96689 20.3743 6.55681 18.6146ZM24.4336 13.3697C24.9952 13.554 25.419 13.685 26.0712 14.4009C25.6092 13.3047 22.9274 12.0727 21.7009 10.8798C22.0692 10.9571 23.5745 10.9957 24.1983 10.5788C23.0679 10.8859 20.5496 10.535 19.5978 9.88483C20.2555 10.8295 21.6838 10.8825 23.423 12.7606C23.2 12.5865 22.9045 12.4076 22.6363 12.281C23.5923 13.3047 23.1791 13.9169 22.9852 14.1057C23.3419 14.0291 23.8737 13.5746 23.7527 13.1351C23.8669 13.2715 23.9835 13.4186 24.1022 13.5708C24.3416 13.8875 24.553 14.1984 24.7408 14.4994C25.0308 15.3627 24.4976 16.2543 23.5943 16.65C24.6016 16.5016 25.0534 15.6055 25.0482 15.036C25.5298 15.9444 25.7603 16.7735 25.7384 17.4699C25.7296 17.7284 25.707 17.9709 25.6731 18.1984C25.4409 18.6372 25.0695 18.7983 24.4097 18.8786C25.012 18.9163 25.3277 18.8882 25.5917 18.6146C25.1813 20.3743 23.2677 21.8984 22.4862 23.2035C23.2677 22.1891 24.8807 20.6791 25.4491 19.5863C25.4929 19.981 25.3865 20.9927 24.8957 21.6148C25.6191 20.9038 25.6752 19.825 25.6283 19.1936C25.8113 18.7401 25.9262 18.2326 25.9433 17.6552C25.9608 17.1244 25.9201 16.6641 25.8397 16.2495C26.2973 16.8994 26.9567 17.1501 27.2827 18.1395C27.2201 16.8628 26.2669 16.8429 25.5527 15.2949C25.2774 14.6174 24.8779 14.0336 24.4336 13.3697Z" fill="#1A1919"/>
<path d="M27.6521 19.3619C27.6798 19.4064 27.753 19.9191 27.9493 20.1653C26.9236 20.0993 27.3993 17.9388 26.3732 18.459C26.0842 18.6047 25.9977 18.9453 26.1318 19.223C26.8025 20.612 25.2736 21.8364 25.3595 23.0537C24.9816 23.051 24.5896 23.0407 24.345 22.5325C24.2192 22.7859 24.0181 23.1419 23.9083 23.4853L23.6015 22.9641C23.411 23.8273 22.6052 24.626 21.5196 24.6981C22.0357 23.8759 21.4153 22.7537 22.6784 21.5621C22.5193 21.4349 22.1571 21.1897 22.0265 21.0234C23.5755 21.2054 25.1898 19.981 24.4569 19.3999C23.9774 19.0202 23.7663 19.8082 23.0279 19.6759L23.3173 19.4259C23.2164 19.3257 23.0984 19.1943 22.9787 19.0962C23.294 19.0578 23.6371 18.8574 23.6371 18.8574L23.4489 18.5469C25.2627 18.5448 25.3061 17.1579 24.5721 17.1025C24.2277 17.0772 23.7793 17.7147 22.662 17.5824C22.8029 17.41 22.8614 17.1507 22.9304 16.9589C22.6616 16.9335 22.3422 16.9359 22.0884 16.8121C22.6342 16.7413 22.7707 16.559 23.2246 16.215L22.6992 16.0221C23.4633 15.641 23.4154 14.9762 23.4387 14.2836C23.0399 14.5137 22.5676 14.8705 22.0685 14.7042C21.9492 14.6642 21.8715 14.6092 21.8691 14.4847C22.5864 14.2028 23.043 13.0995 21.3294 12.1723C20.2367 11.5826 17.5614 10.2826 19.3741 8.88097C19.6221 8.69081 19.8912 8.5198 20.1194 8.30638C20.4039 8.52459 20.0154 9.06566 19.9186 9.26404C19.9186 9.26404 20.5212 9.32492 20.6639 9.32492C21.5983 9.32081 22.5768 8.76913 22.0815 7.70989C22.4523 7.78719 22.4964 8.14357 22.6096 8.449C22.8473 8.28859 23.2601 7.94315 23.5799 7.99171C23.3203 8.82043 22.2327 9.5657 21.3869 9.735C22.2409 10.2002 23.8259 10.5463 24.659 9.54484C25.2432 10.6766 24.4288 11.1496 23.6299 11.7423C26.6718 13.1292 26.2227 14.6868 28.2184 15.9123C27.9602 16.0337 26.8042 15.7898 26.7009 15.7751C27.1366 16.3371 27.3394 16.5744 27.4646 16.8477C27.5857 17.1035 27.6394 17.3922 27.7591 18.016C27.8545 18.5089 28.0266 18.9997 28.6244 19.3257C28.3895 19.7515 27.8689 19.4187 27.6521 19.3619ZM27.5337 16.2659C28.095 16.3538 28.5365 16.3538 28.7458 15.7929C26.6831 14.8103 26.7009 12.7486 24.3303 11.6695C25.6334 10.7022 25.2818 9.79588 24.6768 8.88097C24.0359 10.0138 22.9325 10.168 22.2553 9.7993C23.2092 9.45181 23.5693 8.27388 24.1474 7.93049C23.7858 7.54264 23.3241 7.52964 22.7854 7.89629C22.4944 7.11511 21.5364 7.37197 21.3924 7.37197C21.6441 7.62301 21.8818 7.9517 21.8367 8.30364C21.7375 9.08755 20.4627 8.96101 20.4627 8.96101C20.7199 8.4319 20.6057 8.11587 20.0335 7.84362C19.8587 8.26465 18.4906 8.83206 18.4017 9.6642C18.2646 10.9646 19.805 11.7546 21.1577 12.4879C22.6462 13.2924 22.1004 14.1683 21.5613 14.1974C21.2621 15.1219 22.4082 15.2884 23.0604 14.9132C23.0573 15.036 22.9746 15.7782 21.9752 15.8391C22.0597 16.1322 22.2245 16.2269 22.4862 16.3237C22.2909 16.4701 21.7207 16.492 21.419 16.492C21.4546 16.8939 21.8914 17.2164 22.4379 17.2711C22.3945 17.3922 22.1517 17.5889 21.9331 17.6494C22.5234 18.2377 24.1104 17.8498 24.4336 17.5122C24.5814 17.3563 24.7616 17.5765 24.5858 17.8112C24.4032 18.0509 23.6059 18.3208 22.9592 18.1221C22.885 18.4839 23.0094 18.6211 23.1117 18.7186C23.1117 18.7186 22.4793 18.7815 22.3155 18.8704C22.377 19.1423 22.6838 19.3003 22.7916 19.4064C22.6838 19.4991 22.5559 19.7152 22.5098 19.8821C22.7998 20.0217 23.5895 20.2402 24.014 19.7569C24.1857 19.5651 24.3731 19.6875 24.1976 19.9314C23.5745 20.7892 22.0829 20.8032 21.5565 20.5347C21.5418 21.2068 21.8325 21.3449 22.1824 21.6234C21.1044 22.8642 21.8168 23.9666 21.0548 25.0521C22.4899 25.0521 23.3874 24.2686 23.6395 23.5366C23.6678 23.7973 23.8057 24.024 24.1881 24.1017C24.1586 23.8277 24.2441 23.551 24.3834 23.2716C24.6737 23.5052 25.2035 23.5595 25.8961 23.5886C25.1108 22.2544 27.3343 20.8863 26.4522 19.0681C26.3219 18.7948 26.705 18.6211 26.7419 18.8991C26.9482 20.4581 27.8641 20.81 28.6364 20.324C28.4042 20.0706 28.3081 20.075 28.1596 19.8445C28.6795 19.9827 28.9442 19.6051 29.0776 19.1327C27.6668 18.6372 28.4267 17.4247 27.5337 16.2659ZM13.1773 21.9411L13.6004 21.6193C13.6763 21.5621 13.7256 21.5255 13.8114 21.5365L14.4086 21.6155C14.4414 21.7581 14.5372 21.8983 14.5372 21.8983L13.9017 21.7646C13.8114 21.754 13.7851 21.7581 13.7006 21.819L13.4 22.0468C13.3398 22.0933 13.3384 22.1672 13.3723 22.2397L13.4208 22.3443L13.2108 22.5034L13.1301 22.3525C13.0487 22.1904 13.0433 22.044 13.1773 21.9411ZM14.1476 20.8182L14.0375 20.8767C13.9612 20.9208 13.9226 20.9403 13.8559 20.8579L13.8084 20.7974C13.7844 20.769 13.7769 20.6978 13.8255 20.6435L14.2985 20.0925L13.8627 19.7347L14.4178 19.9392L14.621 19.6858C14.6805 19.7368 14.6597 19.8831 14.6597 19.8831C14.8847 19.8831 15.538 20.2077 15.5629 21.0214C15.5629 21.0214 15.7114 21.2399 15.8991 21.2512L16.8616 21.3094C17.021 21.3094 17.4198 21.0053 17.9328 21.2926C18.0621 21.215 18.2013 21.1524 18.3432 21.1363C18.7954 21.1028 19.1272 21.4181 19.3751 21.7349C19.556 21.964 19.804 22.3153 19.804 22.3153C19.6973 22.4418 19.5926 22.4846 19.5041 22.4524C19.371 22.384 19.3276 22.2763 19.2848 22.1278C19.2171 21.8918 18.9575 21.6901 18.9575 21.6901C19.0461 21.8484 19.0642 22.0283 19.107 22.1935C18.7304 21.8217 18.6599 21.3665 18.3966 21.3039C18.28 21.2748 18.1442 21.3248 18.0187 21.4705C18.1514 21.7783 18.1442 22.135 18.2803 22.3734C18.3839 22.5516 18.4055 22.568 18.4517 22.6063C18.5628 22.6864 18.4999 22.8297 18.4831 22.9336L18.3405 23.8277H18.1004L18.2584 22.9528C18.307 22.6864 17.559 22.6864 17.1759 22.1781C16.8493 22.5598 15.9344 22.4644 15.538 22.4049C15.3786 22.3809 15.2226 22.3912 15.1347 22.5485C15.0834 22.6364 14.9972 22.6101 14.9449 22.5978L14.2229 22.4418C14.096 22.4124 14.0409 22.4374 13.9845 22.554L13.8402 22.8529C13.8084 22.923 13.8104 22.9743 13.8679 23.0308L13.9359 23.104C13.8945 23.2473 13.7646 23.3564 13.7646 23.3564L13.6073 23.1789C13.5303 23.0896 13.5262 22.9596 13.5867 22.8331L13.8203 22.345C13.8484 22.291 13.8983 22.2322 13.9961 22.2322L14.8895 22.2185L14.6159 21.7728C14.4124 21.4387 14.7503 20.8432 14.7 20.5617C14.6744 20.9393 14.2181 20.7669 14.1476 20.8182ZM17.8654 22.8772L17.4796 23.8277H17.2406L17.6257 22.9073C17.6657 22.7883 17.5901 22.7329 17.4933 22.6029C17.6366 22.6836 17.7389 22.7366 17.9119 22.8026C17.8972 22.8297 17.8791 22.8447 17.8654 22.8772ZM13.1647 22.7695L13.5984 22.4018L13.5323 22.2701C13.4851 22.1757 13.5105 22.1703 13.5604 22.1326L13.7895 21.962C13.8422 21.9185 13.8983 21.9237 13.9626 21.939L14.6504 22.1005H13.925C13.7574 22.1118 13.7088 22.1757 13.6483 22.3002L13.5984 22.4018L13.412 22.7852C13.3487 22.9169 13.3155 23.093 13.4821 23.2914L13.6138 23.4484L13.3466 23.9888H13.5717L13.7564 23.6139C13.7711 23.6002 14.044 23.3513 14.1018 23.093C14.0232 23.0287 13.9667 22.9839 14.0105 22.894L14.0943 22.7148C14.1217 22.6552 14.1312 22.631 14.2113 22.6467L14.9326 22.8026C15.0225 22.8276 15.1546 22.867 15.251 22.7219C15.3495 22.5711 15.3632 22.5872 15.5924 22.6101L15.9607 22.6491C16.4642 22.697 16.9666 22.5711 17.1626 22.4158C17.231 22.5725 17.3671 22.6915 17.4311 22.8133C17.4543 22.8584 17.4153 22.922 17.3842 23.0014L16.9707 23.9888H17.6082L17.9691 23.0876C18.0026 23.0014 18.0511 22.9326 18.0884 22.8981L17.8815 23.9888H18.5002L18.6644 22.9097C18.7006 22.6699 18.6791 22.5923 18.5638 22.4938C18.306 22.2763 18.3118 21.819 18.2287 21.5416C18.2724 21.5163 18.3231 21.5036 18.3839 21.5108C18.519 21.5228 18.6203 21.8672 18.7793 22.0888C19.0957 22.5338 19.528 23.025 20.0229 22.3331C19.975 22.2544 19.9234 22.1822 19.8635 22.1138L19.7253 21.9517C19.645 21.8621 19.2619 21.424 19.1018 21.2659C18.7393 20.9 18.1815 20.9561 17.9591 21.1332C17.4564 20.8695 16.9256 21.1466 16.8 21.1363L15.9337 21.084C15.8944 21.0813 15.8342 21.0683 15.7921 21.0005L15.9532 20.9479C15.8024 20.3209 15.4237 19.7956 14.7619 19.7056C14.7619 19.7056 14.7233 19.5076 14.622 19.4693L14.4247 19.7022C14.3686 19.7097 14.3081 19.7272 14.2585 19.7487L13.4137 19.4344L14.0481 20.075C14.0481 20.075 13.7188 20.5409 13.6254 20.6363C13.5628 20.7232 13.5689 20.7912 13.6387 20.8747L13.7615 21.0361C13.8255 21.1199 13.8945 21.1165 13.9961 21.0648L14.1353 20.9927C14.1959 20.9417 14.399 21.0419 14.4866 20.9619C14.4305 21.1445 14.4028 21.3196 14.3901 21.4588L13.8203 21.3908C13.6962 21.374 13.6397 21.3908 13.5638 21.4496L13.0781 21.8238C12.9198 21.9455 12.8705 22.1552 12.968 22.3597L13.1647 22.7695ZM15.0184 10.4772C15.249 10.6366 15.6584 10.8076 15.6584 10.8076V10.5353L14.7568 10.1899C14.7568 10.1899 14.7568 10.3007 15.0184 10.4772ZM15.6584 10.1488V9.87694L14.6354 9.51166C14.6354 9.51166 14.7568 9.64129 15.0184 9.81948C15.249 9.97818 15.6584 10.1488 15.6584 10.1488ZM15.6584 9.53116V9.25822L14.5379 8.84574C14.5379 8.84574 14.7568 9.02291 15.0184 9.20076C15.249 9.36083 15.6584 9.53116 15.6584 9.53116Z" fill="#1A1919"/>
<path d="M18.8074 13.2459H19.9532C19.906 13.0793 19.7278 12.9114 19.3929 12.9114C19.0769 12.9114 18.8864 13.0947 18.8074 13.2459ZM17.6083 8.84576L16.4892 9.25824V9.53118C16.4892 9.53118 16.8992 9.36085 17.1301 9.20078C17.3907 9.02293 17.6083 8.84576 17.6083 8.84576ZM17.3904 10.1899L16.4892 10.5354V10.8076C16.4892 10.8076 16.8992 10.6366 17.1301 10.4772C17.3904 10.3007 17.3904 10.1899 17.3904 10.1899ZM17.5122 9.51168L16.4892 9.87696V10.1489C16.4892 10.1489 16.8996 9.97888 17.1301 9.8195C17.3904 9.64131 17.5122 9.51168 17.5122 9.51168ZM12.7515 12.9114C12.4174 12.9114 12.2395 13.0793 12.1917 13.2459H13.3388C13.2571 13.0944 13.0696 12.9114 12.7515 12.9114Z" fill="#1A1919"/>
<path d="M16.0739 8.71062L14.2325 7.98314C14.3891 7.61342 15.1108 7.29773 16.0739 7.29773C17.0367 7.29773 17.7577 7.61342 17.914 7.98314L16.0739 8.71062ZM17.4441 10.9834L16.2036 11.6363V8.99861L17.8894 8.42606L17.4441 10.9834ZM18.8953 12.083C18.4298 12.1637 18.03 12.7331 17.7023 13.2458L17.6657 13.3047H17.3162L17.3148 13.3652C17.2785 13.7613 16.9033 14.2989 16.0729 14.2989C15.6898 14.2989 15.4015 14.1816 15.2025 14.0215C15.0301 13.8817 14.923 13.7089 14.8697 13.5434C14.8502 13.4835 14.8375 13.423 14.8324 13.3652L14.8293 13.3047H14.4825L14.4449 13.2458C14.1155 12.7331 13.716 12.1637 13.2526 12.083L14.5184 11.3476L16.0739 12.1931L17.6277 11.3476L18.8953 12.083ZM20.603 14.0215C20.47 14.367 20.3632 14.7418 20.3632 15.1174V19.1447H19.895C19.6819 18.9385 19.5024 18.2524 19.5024 18.2524C19.3857 18.4996 19.5195 18.9997 19.644 19.1447H19.041C18.8912 18.9426 18.7619 18.2274 18.7619 18.2274C18.5816 18.433 18.6959 18.9898 18.8077 19.1447H18.4069C18.3819 18.8588 18.4637 18.5468 18.4637 18.5468C18.254 18.5082 18.031 18.3981 18.0313 18.1648C18.1377 18.264 18.1808 18.2623 18.3275 18.2592L18.4979 18.1251C17.9328 18.1436 17.9065 17.5232 18.3545 17.2331C17.9065 17.2475 17.5723 16.9811 17.7351 16.5057C17.4167 16.3411 17.3045 15.8021 17.5398 15.5648C17.3695 15.3801 17.3411 15.0172 17.4502 14.7692C17.2248 14.7692 16.9707 14.6793 16.8291 14.5253C16.8182 14.5305 16.8052 14.5339 16.7936 14.538C17.0757 14.4227 17.3148 14.2439 17.4762 14.0215H20.603ZM20.3643 22.0221C20.3643 22.8621 19.9761 23.5007 19.3303 23.854L19.5622 23.3837H19.3382L19.0413 23.9864C18.7342 24.103 18.3846 24.1666 17.9995 24.1666C16.8209 24.1666 16.5093 24.2145 16.0746 24.6489C15.6372 24.2145 15.3263 24.1666 14.1497 24.1666C13.7667 24.1666 13.4181 24.104 13.1124 23.9888H13.1199L13.4171 23.3837H13.1938L12.9331 23.9132C12.8706 23.8838 12.8107 23.8523 12.7526 23.8174L12.9667 23.3837H12.744L12.585 23.7069C12.0801 23.3355 11.784 22.7554 11.784 22.0221V19.381H20.3643V22.0221ZM14.5236 17.1986L14.8847 17.2437C14.9121 17.4414 14.8604 17.7776 14.7315 17.9651L14.3809 17.8642C14.4743 17.6422 14.4976 17.4349 14.5236 17.1986ZM14.0023 16.9339C14.0023 16.9339 14.3348 16.9181 14.4285 16.9534C14.4976 16.9821 14.4504 17.0984 14.3611 17.0854C14.2677 17.0741 14.0023 16.9339 14.0023 16.9339ZM13.9804 15.6161L13.6822 16.7033L13.7841 14.9491L14.2462 14.5537L14.4815 15.0698L13.887 16.7735L14.044 15.6267C14.0587 15.547 13.9938 15.5377 13.9804 15.6161ZM13.7513 17.4291C13.5953 17.4914 13.4356 17.4065 13.4848 17.3056C13.557 17.3713 13.7591 17.3392 13.7591 17.3392L13.7513 17.4291ZM13.4578 17.5741C13.5303 17.6436 13.7485 17.6172 13.7485 17.6172L13.7564 17.661C13.661 17.7879 13.3973 17.7304 13.4578 17.5741ZM13.1154 16.8733C13.032 16.8176 13.0696 16.6968 13.1623 16.6968C13.2632 16.6992 13.399 16.8142 13.5324 16.8713C13.5324 16.8713 13.1825 16.9188 13.1154 16.8733ZM13.4472 17.8382C13.4472 17.8382 13.5471 17.8799 13.6743 17.8902C13.6596 17.9596 13.6056 18.0266 13.5204 18.0075C13.4493 17.9917 13.4171 17.9032 13.4472 17.8382ZM13.6822 17.1808C13.5142 17.2352 13.4404 17.1138 13.4476 17.0105C13.7769 16.8908 13.9236 16.9681 14.0198 17.0293C14.108 17.0854 14.1819 17.2437 14.3006 17.3429C14.2814 17.478 14.2397 17.673 14.1914 17.8036C13.8549 17.7174 13.8375 17.4206 13.9626 17.2403C13.8925 17.1579 13.818 17.137 13.6822 17.1808ZM15.1412 17.2773L15.5014 17.32C15.537 17.518 15.4696 17.9387 15.3338 18.1395L14.9665 18.0331C15.1135 17.8406 15.1672 17.4982 15.1412 17.2773ZM15.761 17.3532L16.0582 17.3901C16.1057 17.6371 16.0746 18.0643 15.917 18.3071L15.5715 18.2069C15.7227 18.0006 15.7942 17.5765 15.761 17.3532ZM16.2935 17.4192H16.3C16.3773 17.4308 16.4587 17.4175 16.5329 17.387C16.6933 17.6172 16.8192 18.1395 16.6263 18.4654C16.5172 18.4675 16.4098 18.4483 16.3099 18.42L16.2299 18.396C16.3927 18.1436 16.3691 17.6979 16.2935 17.4192ZM16.7477 17.2437L16.9591 17.0372C17.1735 17.2246 17.4554 17.6436 17.3675 18.0413L17.1373 18.2524C17.0901 18.2979 17.0408 18.3321 16.9909 18.3625C17.1342 18.0075 16.9516 17.4602 16.7477 17.2437ZM17.9841 17.3617C17.9386 17.4233 17.901 17.4951 17.8771 17.5731L17.6209 17.8081C17.6722 17.4339 17.4205 16.9903 17.1906 16.8101L17.4629 16.5429L17.5173 16.5977C17.4263 16.8364 17.6041 17.3056 17.9841 17.3617ZM17.3045 15.5497C17.1698 15.8066 17.1835 16.1028 17.3422 16.3716L17.2365 16.4752C16.7771 16.4178 16.5959 15.733 16.5959 15.733C16.5866 15.7946 16.5812 15.8548 16.5822 15.916C16.3144 15.8168 16.1447 15.5784 16.1584 15.2525C16.2597 15.3089 16.3739 15.3489 16.4946 15.3698L16.5261 15.1697C16.2053 15.1136 16.0178 14.9132 15.9467 14.6762C15.9313 14.6748 15.9176 14.671 15.9029 14.67C15.9604 14.6748 16.0161 14.6793 16.0746 14.6793C16.2651 14.6793 16.4454 14.6498 16.615 14.5999C16.7481 14.7897 16.9851 14.9259 17.2221 14.9522C17.1852 15.1075 17.2033 15.3052 17.3045 15.5497ZM14.671 14.0215C14.8926 14.3246 15.2521 14.5493 15.6779 14.6372C15.7138 14.7973 15.8003 14.9724 15.9693 15.1136C15.8992 15.5846 16.1016 16.0244 16.6085 16.1414C16.6612 16.3812 16.8107 16.5631 17.0596 16.649L16.7077 17.056C16.5736 17.2119 16.3978 17.2615 16.2518 17.2437L14.6781 17.0645C14.7462 16.8897 14.5649 16.6876 14.067 16.7745L14.6857 15.0442L14.3081 14.2415L13.5926 14.852L13.5402 16.6667L13.2362 16.5169C12.8364 16.3446 12.7201 17.0669 13.0997 17.07L13.2505 17.0717C13.241 17.1459 13.2632 17.228 13.3217 17.253C13.2505 17.2831 13.2287 17.4175 13.3189 17.4654C13.2283 17.5081 13.216 17.6453 13.2892 17.7044C13.2095 17.8382 13.1975 18.1268 13.4735 18.2C13.6989 18.2592 13.8402 18.016 13.887 17.8748L16.3356 18.6334C16.6827 18.7329 16.929 18.6768 17.2166 18.4244L17.8559 17.8655C17.7755 18.2308 17.9072 18.5605 18.1856 18.6693C18.1856 18.6693 18.1452 18.9976 18.1579 19.1447H11.784V15.1174C11.784 14.7418 11.6755 14.367 11.5466 14.0215H14.671ZM14.2575 8.42606L15.9419 8.99861V11.6363L14.7011 10.9834L14.2575 8.42606ZM18.3504 8.11208C18.3504 7.46737 17.2676 6.89038 16.0729 6.89038C14.8775 6.89038 13.7947 7.46737 13.7947 8.11208L13.8193 8.2701L14.2951 11.0083L12.0367 12.3248C11.7966 12.4653 11.496 12.8546 11.4577 13.2458H11.8698C11.9379 12.8549 12.2467 12.4212 12.8227 12.4482C13.3439 12.4756 13.6528 12.7927 13.9596 13.2458L14.0386 13.3652L14.1521 13.5434H10.8314C11.0753 14.0335 11.3075 14.5534 11.3075 15.1174V22.0221C11.3075 23.7989 12.6718 24.6448 14.1497 24.6448C15.2907 24.6448 15.4446 24.5928 16.0746 25.2228C16.7026 24.5928 16.8558 24.6448 17.9995 24.6448C19.4757 24.6448 20.8414 23.7989 20.8414 22.0221V15.1174C20.8414 14.5534 21.0726 14.0335 21.3165 13.5434H17.9934L18.1076 13.3652L18.187 13.2458C18.4924 12.7927 18.8023 12.4756 19.3238 12.4482C19.8981 12.4212 20.2083 12.8549 20.2764 13.2458H20.6875C20.6509 12.8546 20.3485 12.4653 20.1088 12.3248L17.8507 11.0083L18.3272 8.2701L18.3504 8.11208Z" fill="#1A1919"/>
<path d="M20.1683 16.624L20.1717 16.4222C19.552 16.4075 19.4104 15.6769 19.4104 15.6769C19.2288 16.2149 19.7018 16.6158 20.1683 16.624ZM19.3857 17.8614L19.3238 17.6706C18.7954 17.8057 18.5221 16.9684 18.5221 16.9684C18.3532 17.5765 18.9428 18.0075 19.3857 17.8614ZM19.7531 17.0854C19.1217 17.1853 18.8625 16.4509 18.8625 16.4509C18.7927 16.8508 19.0516 17.2564 19.4695 17.2992C19.3751 17.8214 19.8598 18.0885 20.2795 17.9028L20.2189 17.7209C19.8543 17.8433 19.5123 17.4825 19.7531 17.0854ZM19.3751 14.9898L19.381 14.7877C18.5478 14.616 18.6172 14.0424 18.6172 14.0424C18.4373 14.5825 18.9103 14.9813 19.3751 14.9898Z" fill="#1A1919"/>
<path fill-rule="evenodd" clip-rule="evenodd" d="M14.096 23.384L13.7973 23.9893H14.0213L14.3193 23.384H14.096Z" fill="#1A1919"/>
<path fill-rule="evenodd" clip-rule="evenodd" d="M14.5453 23.384L14.2487 23.9893H14.474L14.7693 23.384H14.5453Z" fill="#1A1919"/>
<path fill-rule="evenodd" clip-rule="evenodd" d="M16.3493 23.384L16.0527 23.9893H16.276L16.574 23.384H16.3493Z" fill="#1A1919"/>
<path fill-rule="evenodd" clip-rule="evenodd" d="M16.8013 23.384L16.5027 23.9893H16.728L17.0247 23.384H16.8013Z" fill="#1A1919"/>
<path fill-rule="evenodd" clip-rule="evenodd" d="M15.8987 23.384L15.6013 23.9893H15.8253L16.1227 23.384H15.8987Z" fill="#1A1919"/>
<path fill-rule="evenodd" clip-rule="evenodd" d="M18.534 23.9893H18.758L19.056 23.384H18.832L18.534 23.9893Z" fill="#1A1919"/>
<path fill-rule="evenodd" clip-rule="evenodd" d="M14.9973 23.384L14.7007 23.9893H14.9247L15.222 23.384H14.9973Z" fill="#1A1919"/>
<path fill-rule="evenodd" clip-rule="evenodd" d="M15.4473 23.384L15.1493 23.9893H15.3747L15.6727 23.384H15.4473Z" fill="#1A1919"/>
<path d="M14.4264 20.1325C14.386 20.1325 14.3498 20.1725 14.3498 20.2238C14.3498 20.2737 14.386 20.3148 14.4264 20.3148C14.4692 20.3148 14.5054 20.2737 14.5054 20.2238C14.5054 20.1725 14.4692 20.1325 14.4264 20.1325ZM14.3351 6.1523L14.6901 5.39985L15.3481 5.7494L16.0746 5.03218L16.8011 5.7494L17.4584 5.39985L17.8093 6.1523L18.2468 6.08526C18.1346 6.29561 18.0501 6.47825 17.9725 6.73613C17.4943 6.45704 16.7843 6.24225 16.0746 6.24225C15.3625 6.24225 14.6542 6.45704 14.1757 6.73613C14.096 6.47825 14.0129 6.29561 13.8997 6.08526L14.3351 6.1523ZM16.0746 6.48201C16.9991 6.48201 17.7392 6.78812 18.1483 7.11749C18.1483 7.11749 18.2707 6.38351 18.6849 5.73914L17.9397 5.82259L17.5504 4.99353L16.8011 5.38309L16.0746 4.66211L15.3481 5.38309L14.5974 4.99353L14.2075 5.82259L13.4629 5.73914C13.8778 6.38351 13.9989 7.11749 13.9989 7.11749C14.4069 6.78812 15.1491 6.48201 16.0746 6.48201Z" fill="#1A1919"/>
<path d="M16.8346 4.99867C16.9427 5.00756 17.0388 4.92582 17.048 4.81911C17.0586 4.71137 16.9006 4.42236 16.9006 4.42236C16.9006 4.42236 16.6639 4.67683 16.6564 4.78559C16.6461 4.8923 16.7275 4.98773 16.8346 4.99867ZM18.0553 5.44091C18.1514 5.49289 18.2687 5.45459 18.3207 5.35814C18.373 5.2634 18.3388 4.93642 18.3388 4.93642C18.3388 4.93642 18.0245 5.07836 17.9725 5.17481C17.9232 5.26989 17.9591 5.38858 18.0553 5.44091ZM15.3116 4.99867C15.4217 4.98773 15.5014 4.8923 15.4918 4.78559C15.4819 4.67683 15.2476 4.42236 15.2476 4.42236C15.2476 4.42236 15.0899 4.71137 15.1002 4.81911C15.1087 4.92582 15.2052 5.00756 15.3116 4.99867ZM14.0929 5.44091C14.1887 5.38858 14.2253 5.26989 14.174 5.17481C14.1234 5.07836 13.8084 4.93642 13.8084 4.93642C13.8084 4.93642 13.7748 5.2634 13.8275 5.35814C13.8778 5.45459 13.9968 5.49289 14.0929 5.44091ZM27.596 12.2967C27.676 12.4756 27.8357 13.0967 27.4547 13.5708C27.0207 12.7031 26.4235 11.9599 25.9402 11.6394C25.8346 11.5706 25.9987 11.4499 26.2963 11.4109C27.1961 11.2402 28.2503 11.6209 28.753 11.7546C28.5191 11.9294 28.3293 12.0081 28.0905 12.0375C28.4555 12.3436 28.7216 12.6025 28.9097 12.8912C28.556 12.9784 28.3573 12.7551 27.596 12.2967ZM28.7311 12.1493C28.9911 12.057 29.1922 11.809 29.2924 11.5795C28.6306 11.4844 26.8733 10.7464 25.4282 11.3473C25.9693 10.8336 26.4553 10.7672 26.5015 10.0285C26.7259 10.1899 27.1052 10.2809 27.3186 9.89575C27.1695 9.45591 26.7936 9.81195 26.7406 9.69122C26.667 9.5226 27.2153 9.74286 27.3323 9.17134C26.9061 9.02496 26.7785 9.37314 26.7026 9.29242C26.6322 9.21547 26.9731 9.06874 26.7221 8.60803C26.2785 8.86763 26.5094 9.1604 26.4157 9.19323C26.3021 9.23804 26.3914 8.88097 25.9012 8.89704C25.853 9.42444 26.362 9.44052 26.2785 9.52465C26.1776 9.62658 26.0446 9.22162 25.6741 9.42684C25.6806 9.85265 26.0251 10.0863 26.3811 9.9857C26.323 10.7946 25.5818 10.6438 25.0287 11.5546C26.1988 12.1545 26.7283 13.2004 27.4482 13.9237C27.6859 13.7551 28.0922 13.0051 28.0922 13.0051C28.8714 13.6084 29.4193 13.0075 29.4193 13.0075C29.1511 12.7328 29.1416 12.5238 28.7311 12.1493ZM15.8567 26.4979L15.3495 26.479L15.2917 26.6819L15.3553 26.6853C15.3765 26.6853 15.3765 26.6456 15.395 26.6241C15.4049 26.6162 15.4969 26.6011 15.5694 26.6087L15.7818 26.6247C15.657 26.885 15.3297 27.1299 15.3338 27.3026C15.3386 27.3946 15.4319 27.4128 15.4877 27.4104C15.59 27.4066 15.6218 27.3348 15.6484 27.224C15.7103 26.9678 15.8342 26.7728 15.9238 26.479L15.8608 26.4811L15.8567 26.4979ZM16.2035 26.8005L16.2111 26.6442H16.6516L16.6283 26.4698C16.5079 26.4739 16.3311 26.5132 16.169 26.5143L16.1382 26.8549C16.3424 26.846 16.4755 26.935 16.4755 27.1487C16.4755 27.2284 16.4231 27.3772 16.3311 27.3885C16.3099 27.3916 16.2819 27.3844 16.2685 27.3738C16.2244 27.3406 16.2822 27.304 16.2822 27.2493C16.2822 27.1781 16.2097 27.1532 16.1615 27.1621C16.0859 27.1668 16.0589 27.2161 16.0589 27.2763C16.0589 27.4018 16.2453 27.4367 16.325 27.4367C16.5059 27.4367 16.7145 27.3362 16.7145 27.1313C16.7145 26.8618 16.4129 26.8064 16.2035 26.8005ZM17.2859 26.9394C17.1182 26.9394 17.0941 26.6949 17.0941 26.5762C17.0941 26.5427 17.1262 26.4955 17.1639 26.4955C17.3166 26.4955 17.3586 26.8282 17.3711 26.922C17.3462 26.9309 17.3166 26.9394 17.2859 26.9394ZM17.1789 26.4493C17.01 26.4493 16.8715 26.5669 16.8715 26.7277C16.8715 26.9815 17.1628 27.0649 17.3787 26.9688C17.4051 27.1658 17.3623 27.3071 17.2826 27.3119C17.2147 27.3119 17.2245 27.264 17.2147 27.2233C17.1968 27.1467 17.1321 27.1262 17.0656 27.1467C16.995 27.1658 16.9844 27.224 16.9965 27.2681C17.0279 27.3676 17.1595 27.3697 17.2227 27.3625C17.4997 27.3331 17.6159 27.1405 17.6159 26.9268C17.6159 26.6791 17.4643 26.4493 17.1789 26.4493ZM14.9942 26.3973C14.9706 26.4264 14.8618 26.5618 14.6282 26.7362L14.6477 26.7701C14.6733 26.7564 14.7147 26.7373 14.7852 26.6949L14.6477 27.1761C14.6398 27.2021 14.608 27.2045 14.5926 27.2021L14.5109 27.1905L14.4955 27.2469L14.9429 27.3269L14.9565 27.2701L14.8792 27.2534C14.8563 27.2469 14.8423 27.2305 14.8461 27.2045L15.0499 26.4059L14.9942 26.3973Z" fill="#1A1919"/>
<path d="M18.3809 26.9654L17.9841 25.6753C18.8296 25.5005 19.4179 25.321 19.867 25.1475V25.9523L20.564 26.2331C19.9751 26.5016 19.2445 26.7681 18.3809 26.9654ZM16.0746 27.7202C15.2863 27.7202 14.5164 27.6022 13.8587 27.4408L14.2773 26.0874C14.5547 26.1521 15.249 26.2372 16.0746 26.2372C16.9006 26.2372 17.5922 26.1521 17.8709 26.0874L18.2909 27.4408C17.6301 27.6022 16.8606 27.7202 16.0746 27.7202ZM11.5829 26.2331L12.2806 25.9523V25.1475C12.7297 25.321 13.3179 25.5005 14.1634 25.6753L13.767 26.9654C12.9055 26.7681 12.1728 26.5016 11.5829 26.2331ZM20.0828 25.7851V24.7977C19.3197 25.1475 18.3484 25.4311 17.0997 25.5433L17.0429 25.8962C17.1489 25.9113 17.2837 25.9243 17.4629 25.9359C17.0001 25.9992 16.4023 26.03 16.0746 26.03C15.7463 26.03 15.1491 25.9992 14.6857 25.9359C14.8646 25.9243 14.9983 25.9113 15.1043 25.8962L15.0479 25.5433C13.7988 25.4311 12.8264 25.1475 12.0654 24.7977V25.7851L11.0301 26.2099C11.7966 26.6087 12.679 26.9339 13.6989 27.1966L13.5782 27.6101C14.1624 27.7811 15.0958 27.9566 16.0746 27.9566C17.0532 27.9566 17.9859 27.7811 18.57 27.6101L18.4496 27.1966C19.4682 26.9339 20.3526 26.6087 21.1191 26.2099L20.0828 25.7851ZM3.23682 12.8912C3.42596 12.6025 3.69069 12.3436 4.05802 12.0389C3.81758 12.0081 3.62912 11.9294 3.39347 11.7546C3.89624 11.6209 4.95343 11.2402 5.85329 11.4109C6.1488 11.4499 6.31571 11.5706 6.20729 11.6387C5.72367 11.9599 5.12615 12.7031 4.69179 13.5704C4.3118 13.0967 4.47255 12.4756 4.55121 12.2967C3.79124 12.7554 3.59321 12.9784 3.23682 12.8912ZM4.05528 13.0051C4.05528 13.0051 4.46229 13.7551 4.69863 13.9234C5.41995 13.2004 5.94974 12.1545 7.11878 11.5546C6.56538 10.6437 5.82285 10.7966 5.76779 9.9857C6.12315 10.0863 6.46688 9.85163 6.47406 9.42683C6.10229 9.22265 5.96958 9.62863 5.86937 9.52465C5.78626 9.43915 6.29519 9.42444 6.24696 8.89773C5.75616 8.88233 5.84611 9.23804 5.73085 9.19323C5.63884 9.15971 5.86937 8.86729 5.42406 8.60803C5.17404 9.07079 5.51606 9.21512 5.44526 9.29242C5.36967 9.37314 5.24107 9.02496 4.81526 9.17134C4.93086 9.74286 5.48151 9.5226 5.40661 9.69122C5.35428 9.81195 4.9784 9.45591 4.83065 9.89575C5.04236 10.2809 5.42234 10.1899 5.645 10.0291C5.69288 10.7703 6.17753 10.8322 6.71998 11.3473C5.27528 10.7464 3.51728 11.4838 2.85341 11.5805C2.95568 11.809 3.1561 12.057 3.41638 12.1473C3.0063 12.5252 2.99672 12.7332 2.72858 13.0075C2.72858 13.0075 3.27513 13.6084 4.05528 13.0051ZM15.4412 12.4541V12.8891C15.591 12.7089 15.8804 12.7445 15.8804 12.7445V13.37C15.8804 13.37 15.8704 13.6792 15.761 13.8116H16.3879C16.2788 13.6792 16.2686 13.37 16.2686 13.37V12.7445C16.2686 12.7445 16.5576 12.7089 16.7077 12.8891V12.4541H15.4412Z" fill="#1A1919"/>
</svg>
