<svg width="26" height="26" viewBox="0 0 26 26" fill="none" xmlns="http://www.w3.org/2000/svg">
<path d="M21.3495 25.5549C15.7888 26.1484 10.2112 26.1484 4.65045 25.5549C2.43314 25.3182 0.681778 23.5669 0.445129 21.3493C-0.148376 15.7886 -0.148376 10.2112 0.445129 4.65045C0.681778 2.43314 2.43314 0.681778 4.65045 0.445129C10.2112 -0.148376 15.7886 -0.148376 21.3493 0.445129C23.5669 0.681778 25.3182 2.43314 25.5549 4.65045C26.1484 10.2112 26.1484 15.7886 25.5549 21.3493C25.3182 23.5669 23.5671 25.3182 21.3495 25.5549Z" fill="url(#paint0_linear)"/>
<path d="M24.1407 5.5909C23.9309 3.62333 22.3769 2.06915 20.4091 1.85908C15.4746 1.33262 10.5254 1.33262 5.5909 1.85908C3.62333 2.06915 2.06915 3.62333 1.85908 5.5909C1.33262 10.5254 1.33262 15.4746 1.85908 20.4089C2.06915 22.3767 3.62333 23.9309 5.5909 24.1407C10.5254 24.6674 15.4746 24.6674 20.4089 24.1407C22.3767 23.9309 23.9309 22.3767 24.1407 20.4089C24.6674 15.4746 24.6674 10.5254 24.1407 5.5909Z" fill="url(#paint1_linear)"/>
<path d="M0.389587 20.8104C0.40744 20.9901 0.425888 21.1699 0.445129 21.3496C0.681778 23.5669 2.43314 25.3183 4.65065 25.5549C10.2114 26.1484 15.7888 26.1484 21.3495 25.5549C23.5671 25.3183 25.3182 23.5669 25.5549 21.3496C25.5741 21.1699 25.5926 20.9901 25.6106 20.8104H0.389587Z" fill="url(#paint2_linear)"/>
<path d="M25.9944 12.0863L20.5975 6.68961C19.9927 7.03535 19.4597 7.22717 19.0582 7.3335C18.8325 7.394 18.6482 7.42693 18.5157 7.44498C17.9071 6.82112 17.0573 6.43372 16.1167 6.43372C14.266 6.43372 12.7653 7.93414 12.7653 9.78528C12.7653 9.85213 12.7671 9.91818 12.7715 9.98404C12.7804 10.1445 12.8008 10.3022 12.8324 10.4556C12.0598 10.444 9.54846 10.2377 7.15341 8.18468C7.15321 8.18468 7.15321 8.18448 7.15321 8.18448H7.15302L6.02353 7.05479C6.02353 7.05479 4.69846 9.36752 6.64659 11.1225C6.73209 11.2179 6.82611 11.3121 6.92906 11.4047C6.93719 11.4138 6.94572 11.4228 6.95386 11.4319C6.69817 11.4146 5.92911 11.3381 5.48398 11.0237C5.48398 11.0237 5.39452 12.4372 6.5722 13.4778L7.52316 14.4369C7.23355 14.4609 6.91319 14.4552 6.69043 14.3576C6.69043 14.3576 6.8876 15.1949 7.64972 15.8649L8.98193 17.2041C8.18272 17.6697 6.78366 18.2523 4.94205 18.1035L13.0236 26C15.8003 25.9992 18.577 25.8508 21.3495 25.5548C23.5671 25.3182 25.3184 23.5668 25.5551 21.3495C25.8842 18.265 26.0303 15.1752 25.9944 12.0863Z" fill="url(#paint3_linear)"/>
<path d="M21.0581 7.99127C20.4829 8.29219 19.6164 8.43124 19.3292 8.47131C19.3268 8.45743 19.3244 8.44414 19.3221 8.43085C20.2986 7.82683 20.5975 6.68961 20.5975 6.68961C19.9927 7.03535 19.4597 7.22717 19.0582 7.3335C18.8325 7.394 18.6482 7.42673 18.5157 7.44498C17.9071 6.82092 17.0573 6.43372 16.1167 6.43372C14.2659 6.43372 12.7653 7.93394 12.7653 9.78528C12.7653 9.85193 12.7671 9.91818 12.7715 9.98384C12.7804 10.1443 12.8008 10.302 12.8324 10.4554C11.9366 10.4421 8.70302 10.1673 6.02351 7.05479C6.02351 7.05479 4.53142 9.65813 7.03993 11.4365C7.03993 11.4365 6.02351 11.4047 5.48396 11.0237C5.48396 11.0237 5.32527 13.5322 8.21445 14.3256C8.21445 14.3256 7.19862 14.5799 6.69022 14.3576C6.69022 14.3576 7.19843 16.5166 9.73848 16.6757C9.73848 16.6757 7.9167 18.3435 4.94183 18.1035C6.40497 19.0298 8.13966 19.566 9.99953 19.566C15.229 19.566 19.4684 15.3268 19.4684 10.0973C19.4684 10.032 19.4678 9.96678 19.4665 9.90152C19.4678 9.86284 19.4684 9.82436 19.4684 9.78528C19.4684 9.7581 19.4678 9.73093 19.4675 9.70375C20.4343 9.05946 21.0581 7.99127 21.0581 7.99127Z" fill="white"/>
<defs>
<linearGradient id="paint0_linear" x1="8.63251" y1="3.65555" x2="15.2087" y2="17.7254" gradientUnits="userSpaceOnUse">
<stop stop-color="#00C3FF"/>
<stop offset="1" stop-color="#00B0ED"/>
</linearGradient>
<linearGradient id="paint1_linear" x1="18.4987" y1="15.9497" x2="-19.2759" y2="-4.31397" gradientUnits="userSpaceOnUse">
<stop stop-color="#00B0ED" stop-opacity="0"/>
<stop offset="1" stop-color="#00A2CE"/>
</linearGradient>
<linearGradient id="paint2_linear" x1="13" y1="22.2109" x2="13" y2="25.6177" gradientUnits="userSpaceOnUse">
<stop stop-color="#00B0ED" stop-opacity="0"/>
<stop offset="1" stop-color="#00A2CE"/>
</linearGradient>
<linearGradient id="paint3_linear" x1="24.8534" y1="24.4802" x2="12.1516" y2="11.7784" gradientUnits="userSpaceOnUse">
<stop stop-color="#00B0ED" stop-opacity="0"/>
<stop offset="1" stop-color="#00A2CE"/>
</linearGradient>
</defs>
</svg>
