<svg width="32" height="32" viewBox="0 0 32 32" fill="none" xmlns="http://www.w3.org/2000/svg">
<g opacity="0.9">
<path opacity="0.9" fill-rule="evenodd" clip-rule="evenodd" d="M14.0527 15.1653H19.7453V25.4366H14.0527V15.1653Z" fill="#FF5F00"/>
<path opacity="0.9" fill-rule="evenodd" clip-rule="evenodd" d="M14.4241 20.3009C14.4241 18.2177 15.3935 16.3614 16.8992 15.1651C15.806 14.2988 14.4035 13.7626 12.8978 13.7626C9.30892 13.7626 6.4007 16.6914 6.4007 20.3009C6.4007 23.9104 9.30892 26.8393 12.8978 26.8393C14.4241 26.8393 15.806 26.303 16.8992 25.4367C15.3935 24.2404 14.4241 22.3841 14.4241 20.3009Z" fill="#EB001B"/>
<path opacity="0.9" fill-rule="evenodd" clip-rule="evenodd" d="M27.4183 20.3009C27.4183 23.9104 24.5101 26.8393 20.9212 26.8393C19.3949 26.8393 18.013 26.303 16.9198 25.4367C18.4255 24.2404 19.3949 22.3841 19.3949 20.3009C19.3949 18.2177 18.4255 16.3614 16.8992 15.1651C18.013 14.2988 19.4155 13.7626 20.9212 13.7626C24.5101 13.7626 27.4183 16.6914 27.4183 20.3009Z" fill="#F79E1B"/>
<path opacity="0.9" d="M15.2491 4.8729L13.6403 12.36H11.7015L13.3309 4.8729H15.2491ZM23.4169 9.69932L24.4276 6.89422L25.0051 9.71994H23.4169V9.69932ZM25.5826 12.36H27.3771L25.8095 4.8729H24.1594C23.7882 4.8729 23.4788 5.07916 23.3344 5.42979L20.4262 12.36H22.4681L22.86 11.2462H25.3351L25.5826 12.36ZM20.5293 9.90557C20.5499 7.92551 17.7861 7.82238 17.8067 6.93547C17.8067 6.66734 18.0542 6.37858 18.6317 6.3167C18.9205 6.27545 19.6837 6.25482 20.5499 6.64671L20.88 5.07916C20.4056 4.89353 19.8074 4.74915 19.0649 4.74915C17.1467 4.74915 15.806 5.75981 15.7854 7.22423C15.7648 8.29677 16.7548 8.91554 17.4767 9.26618C18.2192 9.63744 18.4874 9.88495 18.4874 10.1943C18.4874 10.71 17.8686 10.9162 17.3323 10.9369C16.3629 10.9575 15.7854 10.6687 15.3316 10.4625L14.981 12.1125C15.4348 12.3188 16.2598 12.5044 17.1261 12.5044C19.1886 12.4838 20.5087 11.4731 20.5293 9.90557ZM12.5059 4.8729L9.35018 12.36H7.30823L5.74067 6.37858C5.65817 6.00731 5.57567 5.88356 5.30753 5.71855C4.83314 5.47105 4.06999 5.22354 3.38934 5.07916L3.43059 4.8729H6.73071C7.16385 4.8729 7.51449 5.16166 7.61762 5.63605L8.44264 9.96745L10.464 4.8729H12.5059Z" fill="#2A2A6C"/>
</g>
</svg>
