<svg width="46" height="46" viewBox="0 0 46 46" fill="none" xmlns="http://www.w3.org/2000/svg">
<path d="M6.13332 6.66293H8.12442C8.66255 6.66293 8.93162 6.87475 8.93162 7.35136V38.6487C8.93162 39.1253 8.66255 39.3371 8.12442 39.3371H6.13332V39.8667H16.035V39.3371H14.0439C13.5058 39.3371 13.2367 39.1253 13.2367 38.6487V7.35136C13.2367 6.87475 13.5058 6.66293 14.0439 6.66293H16.035V6.13336H6.13332V6.66293Z" fill="#222020"/>
<path d="M13.821 6.66293H15.812C16.3502 6.66293 16.6192 6.87475 16.6192 7.35136V38.6487C16.6192 39.1253 16.3502 39.3371 15.812 39.3371H13.821V39.8667H39.0594L39.8666 27.7926H39.4361C38.4137 35.842 35.9921 39.3371 28.6735 39.3371H20.8705V23.0795H28.6196C30.1802 23.0795 31.4718 25.2507 31.4718 28.1633V29.3283H32.0637V16.6188H31.4718V17.0954C31.4718 20.2728 30.2879 22.5499 28.6196 22.5499H20.8705V6.66293H28.5658C35.6154 6.66293 37.5527 10.3699 38.5751 17.1483H39.0056L38.1984 6.13336H13.821V6.66293Z" fill="#222020"/>
<path fill-rule="evenodd" clip-rule="evenodd" d="M44.2963 1.76923H1.725V0H46V44.275H44.2963V1.76923ZM1.7037 44.2308V8.84615H0V46H37.2868V44.2308H1.7037Z" fill="#222020"/>
</svg>
