<svg width="22" height="20" viewBox="0 0 22 20" fill="none" xmlns="http://www.w3.org/2000/svg">
<path d="M7.63712 20C8.52995 20 9.25374 19.3153 9.25374 18.4707C9.25374 17.626 8.52995 16.9413 7.63712 16.9413C6.74429 16.9413 6.0205 17.626 6.0205 18.4707C6.0205 19.3153 6.74429 20 7.63712 20Z" fill="#182454"/>
<path d="M17.459 20C18.3518 20 19.0756 19.3153 19.0756 18.4707C19.0756 17.626 18.3518 16.9413 17.459 16.9413C16.5661 16.9413 15.8424 17.626 15.8424 18.4707C15.8424 19.3153 16.5661 20 17.459 20Z" fill="#182454"/>
<path d="M21.8274 1.89932C21.7606 1.82134 21.6763 1.75835 21.5806 1.71487C21.485 1.67138 21.3803 1.64849 21.2742 1.64782H6.31509L6.78211 3.00724H20.333L18.4146 11.1638H7.63712L4.35359 1.32836C4.31807 1.224 4.2564 1.12931 4.17383 1.05238C4.09125 0.975445 3.99023 0.91855 3.87938 0.886548L0.933546 0.0301134C0.842966 0.00378143 0.747791 -0.00541465 0.653454 0.0030501C0.559117 0.0115148 0.467466 0.0374747 0.383734 0.0794475C0.21463 0.164215 0.0880472 0.309061 0.0318328 0.482121C-0.0243816 0.65518 -0.0056229 0.842278 0.0839821 1.00225C0.173587 1.16223 0.326698 1.28198 0.509633 1.33516L3.08904 2.08284L6.38694 11.9386L5.2086 12.8494L5.1152 12.9378C4.82373 13.2556 4.65852 13.6595 4.64803 14.0801C4.63754 14.5007 4.78242 14.9116 5.05772 15.242C5.25355 15.4673 5.5024 15.6461 5.78436 15.7642C6.06632 15.8822 6.37357 15.9362 6.68152 15.9217H18.6732C18.8638 15.9217 19.0465 15.8501 19.1813 15.7227C19.316 15.5952 19.3917 15.4223 19.3917 15.242C19.3917 15.0618 19.316 14.8889 19.1813 14.7614C19.0465 14.6339 18.8638 14.5623 18.6732 14.5623H6.56656C6.48382 14.5596 6.40321 14.5368 6.33252 14.4961C6.26182 14.4553 6.20343 14.398 6.16298 14.3297C6.12253 14.2614 6.10139 14.1843 6.1016 14.106C6.10182 14.0277 6.12338 13.9507 6.1642 13.8826L7.89578 12.5232H18.9894C19.1555 12.527 19.3178 12.4763 19.4488 12.3796C19.5798 12.283 19.6714 12.1463 19.7079 11.993L21.9855 2.47707C22.0074 2.37574 22.0045 2.27102 21.9771 2.1709C21.9497 2.07078 21.8985 1.9779 21.8274 1.89932Z" fill="#182454"/>
</svg>
