<svg width="60" height="62" viewBox="0 0 60 62" fill="none" xmlns="http://www.w3.org/2000/svg">
<path d="M23.4861 32.9422L30.0001 36.4163L36.5137 32.9422C38.8892 31.3011 40.3058 28.6236 40.3058 25.7687V13.9265C40.3058 13.0874 39.7284 12.3543 38.9013 12.1446L35.7783 11.3501C31.9983 10.3893 28.0019 10.3893 24.2215 11.3501L21.0985 12.1446C20.2714 12.3543 19.694 13.0874 19.694 13.9265V25.7687C19.694 28.6236 21.1106 31.3011 23.4861 32.9422ZM30.0001 38.6998L22.3655 34.6213C19.4134 32.6084 17.6512 29.2989 17.6512 25.7687V13.9265C17.6512 12.1725 18.8581 10.6408 20.5866 10.2018L23.7095 9.40727C27.8247 8.3609 32.1751 8.3609 36.2902 9.40727L39.4132 10.2018V10.2014C41.1417 10.6408 42.349 12.1725 42.349 13.9265V25.7687C42.349 29.2989 40.5864 32.6084 37.6339 34.6213L37.5388 34.679L30.0001 38.6998Z" fill="#182454"/>
<path d="M22.5097 44.3961C22.5097 44.3961 22.5422 44.2962 22.5764 44.1237C22.611 43.9513 22.6477 43.7064 22.659 43.4181C22.6706 43.1286 22.6581 42.7928 22.5964 42.4418C22.5664 42.2657 22.5226 42.0892 22.4659 41.9065C22.4092 41.7239 22.3375 41.5412 22.2479 41.3618C22.197 41.2627 22.1449 41.1624 22.0903 41.0674C22.0353 40.9715 21.9782 40.8798 21.9186 40.7913C21.8594 40.7037 21.7993 40.6156 21.738 40.5317C21.6763 40.4477 21.6138 40.3671 21.5504 40.2897C21.4862 40.2139 21.4233 40.1365 21.3599 40.0644C21.2961 39.9919 21.2323 39.9223 21.169 39.8568C21.1048 39.7917 21.0431 39.7257 20.9814 39.6651C20.9201 39.6037 20.8592 39.5459 20.8 39.4915C20.7404 39.4374 20.6833 39.3854 20.6283 39.3354C20.5728 39.2859 20.5195 39.2404 20.4686 39.1974C20.4177 39.1552 20.3694 39.1163 20.3235 39.0807C20.2789 39.0434 20.2372 39.0103 20.1989 38.9808C20.0459 38.8616 19.9496 38.8006 19.9496 38.8006C19.9496 38.8006 19.902 38.9079 19.8395 39.0959C19.777 39.2838 19.6994 39.5525 19.6427 39.876C19.6144 40.0378 19.5914 40.2135 19.5785 40.3998C19.5656 40.5862 19.5643 40.7803 19.5777 40.9834C19.591 41.1857 19.619 41.3975 19.6681 41.61C19.7182 41.8217 19.7878 42.0372 19.882 42.2534C20.0529 42.6355 20.3014 42.9713 20.5816 43.2482C20.72 43.3899 20.8684 43.5119 21.0164 43.6249C21.0902 43.681 21.164 43.7339 21.2373 43.7842C21.3116 43.8326 21.3849 43.878 21.4566 43.921C21.5283 43.9632 21.5984 44.0033 21.6663 44.0402C21.7005 44.0582 21.7339 44.0758 21.7664 44.093C21.7993 44.109 21.8318 44.125 21.8635 44.1401C21.9894 44.1995 22.1032 44.2482 22.1987 44.2872C22.2467 44.3064 22.29 44.3232 22.328 44.3371C22.3663 44.3506 22.3992 44.3617 22.4259 44.3703C22.4801 44.3875 22.5097 44.3961 22.5097 44.3961Z" fill="#182454"/>
<path d="M15.5488 46.6342C15.5488 46.6342 15.6985 46.703 15.9561 46.8013C16.0203 46.8259 16.0912 46.8525 16.1683 46.8799C16.2463 46.9062 16.3305 46.9332 16.4201 46.9606C16.5093 46.9885 16.6044 47.0163 16.704 47.0442C16.7536 47.0581 16.8049 47.0716 16.8566 47.0855C16.9091 47.099 16.9629 47.1113 17.0175 47.124C17.1268 47.1486 17.2402 47.1723 17.3565 47.1949C17.4732 47.217 17.5924 47.2391 17.7158 47.2547C17.8392 47.271 17.9647 47.2854 18.0923 47.2973C18.2194 47.3083 18.3483 47.3181 18.4796 47.3202C18.6105 47.3235 18.7426 47.3231 18.8748 47.319C19.0065 47.3149 19.1387 47.3071 19.2713 47.2915C19.4038 47.2764 19.5352 47.2571 19.6657 47.2326C19.7957 47.2084 19.9241 47.1801 20.0517 47.1425C20.2793 47.0765 20.4853 46.9926 20.6708 46.8971C20.8567 46.8025 21.0239 46.6895 21.1723 46.574C21.47 46.3414 21.6947 46.0858 21.8652 45.8459C22.0357 45.6059 22.1508 45.3847 22.2237 45.2238C22.2971 45.0636 22.3284 44.9629 22.3284 44.9629C22.3284 44.9629 22.2984 44.9535 22.2425 44.9375C22.1866 44.9224 22.1053 44.8998 22.0032 44.872C21.9011 44.8449 21.7772 44.8155 21.6363 44.7872C21.5655 44.7733 21.4908 44.7577 21.4129 44.7426C21.3345 44.7274 21.2524 44.7127 21.1669 44.6992C21.0814 44.6856 20.9922 44.6729 20.9005 44.6623C20.8092 44.65 20.715 44.6377 20.6183 44.6287C20.4252 44.6095 20.221 44.6005 20.0129 44.5947C19.5939 44.5902 19.152 44.6201 18.7093 44.725C18.4625 44.7815 18.2278 44.854 18.006 44.9379C17.7842 45.0202 17.5766 45.1111 17.3819 45.2103C17.1872 45.3085 17.005 45.4154 16.8391 45.5211C16.6732 45.6268 16.5214 45.7341 16.3855 45.8389C16.1133 46.0486 15.9032 46.2468 15.7623 46.3934C15.6209 46.5396 15.5488 46.6342 15.5488 46.6342Z" fill="#182454"/>
<path d="M18.2361 42.6375C18.2361 42.6375 18.287 42.545 18.3529 42.3816C18.4191 42.2182 18.5013 41.9839 18.5663 41.7017C18.6976 41.137 18.7622 40.381 18.545 39.6061C18.5146 39.498 18.4808 39.3924 18.4437 39.29C18.407 39.1872 18.3691 39.0844 18.3274 38.9861C18.2861 38.8874 18.2424 38.792 18.1969 38.6994C18.1515 38.6069 18.1056 38.5143 18.0581 38.4263C18.0102 38.3386 17.9614 38.2539 17.9114 38.1719C17.8622 38.0892 17.813 38.0085 17.7629 37.9315C17.7133 37.855 17.6629 37.7812 17.6129 37.7108C17.5637 37.6404 17.5157 37.5712 17.4678 37.5064C17.2739 37.2497 17.1009 37.0379 16.9696 36.8971C16.8416 36.7525 16.7591 36.673 16.7591 36.673C16.7591 36.673 16.6924 36.7709 16.5956 36.9442C16.4989 37.1182 16.3726 37.3688 16.2563 37.6776C16.027 38.2915 15.8377 39.143 16.0524 40.0575C16.1012 40.2598 16.1691 40.4576 16.2554 40.6419C16.3422 40.8249 16.443 40.9998 16.5539 41.1628C16.6665 41.3229 16.7874 41.4728 16.9112 41.6112C17.0367 41.7472 17.1651 41.8701 17.2893 41.9811C17.351 42.0372 17.4132 42.0879 17.4736 42.1354C17.5341 42.183 17.5928 42.2276 17.6491 42.2686C17.7613 42.3509 17.863 42.4213 17.951 42.4741C18.1261 42.5823 18.2361 42.6375 18.2361 42.6375Z" fill="#182454"/>
<path d="M10.9792 43.5881C10.9792 43.5881 11.1122 43.6839 11.3465 43.8273C11.5841 43.9661 11.9197 44.1569 12.3308 44.3322C12.4333 44.3769 12.5388 44.4215 12.6493 44.4645C12.7606 44.5059 12.8752 44.5468 12.9928 44.5857C13.1104 44.6242 13.23 44.6623 13.3534 44.6963C13.4768 44.7295 13.6031 44.7598 13.7307 44.7872C13.8583 44.8138 13.9871 44.8392 14.118 44.8581C14.2489 44.8765 14.3815 44.8908 14.5136 44.9007C14.6462 44.9101 14.778 44.9166 14.9109 44.915C15.0443 44.9133 15.1769 44.9064 15.3082 44.8937C15.5434 44.8712 15.7602 44.8273 15.9624 44.7643C16.1637 44.702 16.3476 44.6246 16.5147 44.5378C16.6815 44.4518 16.8333 44.3543 16.9696 44.2532C17.1059 44.152 17.2264 44.0476 17.3323 43.9452C17.5445 43.7404 17.6987 43.5443 17.8009 43.3997C17.9026 43.2555 17.9522 43.1622 17.9522 43.1622C17.9522 43.1622 17.8421 43.1011 17.6495 43.0143C17.5524 42.9717 17.4378 42.9181 17.3052 42.8636C17.2385 42.8362 17.168 42.8083 17.0934 42.7801C17.0188 42.7526 16.9404 42.724 16.8595 42.6941C16.6973 42.6351 16.5202 42.579 16.333 42.527C16.1475 42.4721 15.9503 42.4229 15.7439 42.3844C15.5396 42.3431 15.3274 42.3099 15.1081 42.2923C14.8893 42.2735 14.6675 42.2645 14.4394 42.2772C13.426 42.3267 12.5621 42.6412 11.9472 42.9582C11.6416 43.1147 11.399 43.2715 11.2335 43.3903C11.0676 43.5086 10.9792 43.5881 10.9792 43.5881Z" fill="#182454"/>
<path d="M14.3615 40.141C14.3615 40.141 14.4282 40.0595 14.5236 39.9108C14.6187 39.7626 14.7429 39.5464 14.8601 39.2797C14.9772 39.0131 15.0873 38.6966 15.1577 38.348C15.1919 38.1748 15.2199 37.9897 15.2324 37.8005C15.2461 37.6101 15.2432 37.4172 15.2265 37.2157C15.2086 36.9904 15.1723 36.775 15.1273 36.5666C15.0844 36.3565 15.0268 36.1587 14.966 35.9686C14.9063 35.7761 14.8363 35.5984 14.7675 35.4289C14.6996 35.2581 14.6258 35.1025 14.5553 34.9579C14.4865 34.8121 14.4173 34.6815 14.3523 34.5672C14.2889 34.4509 14.2314 34.3497 14.1805 34.2682C14.0784 34.1056 14.0138 34.0119 14.0138 34.0119C14.0138 34.0119 13.93 34.0954 13.8024 34.2494C13.6744 34.4038 13.5039 34.6274 13.3342 34.9092C13.165 35.1901 12.9928 35.5325 12.8694 35.9207C12.7485 36.3073 12.6693 36.7463 12.6926 37.2128C12.6972 37.3172 12.7068 37.4213 12.7222 37.5232C12.7385 37.6244 12.7593 37.7247 12.7843 37.823C12.8098 37.9213 12.839 38.018 12.8711 38.113C12.9036 38.208 12.9423 38.2985 12.9819 38.3882C13.062 38.5667 13.1508 38.7387 13.25 38.8935C13.2988 38.9718 13.3488 39.0467 13.3993 39.1192C13.4497 39.1917 13.5002 39.2617 13.5527 39.3256C13.6561 39.4546 13.7578 39.5713 13.852 39.6733C13.9471 39.7745 14.0371 39.8588 14.1122 39.928C14.188 39.9977 14.2497 40.0509 14.2931 40.0869C14.336 40.1234 14.3615 40.141 14.3615 40.141Z" fill="#182454"/>
<path d="M7.0496 39.7786C7.0496 39.7786 7.161 39.8977 7.36815 40.0783C7.47125 40.168 7.59582 40.2757 7.74207 40.3908C7.88977 40.5047 8.05716 40.6275 8.24055 40.7524C8.42519 40.8765 8.62976 40.9994 8.84472 41.1198C9.06067 41.239 9.29417 41.3483 9.53293 41.4495C9.77377 41.549 10.0268 41.6325 10.2817 41.7009C10.5385 41.7673 10.8023 41.8123 11.0642 41.8361C11.2989 41.8561 11.5237 41.8484 11.7321 41.8242C11.941 41.8 12.1344 41.7587 12.3166 41.7013C12.6797 41.5883 12.9845 41.4278 13.2304 41.2648C13.4764 41.1022 13.664 40.9371 13.7916 40.813C13.9187 40.689 13.9846 40.6062 13.9846 40.6062C13.9846 40.6062 13.96 40.587 13.9141 40.5518C13.8687 40.5161 13.8016 40.4658 13.7157 40.4056C13.6298 40.3441 13.5239 40.2749 13.4034 40.1971C13.2842 40.1185 13.1479 40.0345 12.9978 39.9497C12.9223 39.908 12.844 39.8646 12.7639 39.8199C12.683 39.7761 12.5988 39.7327 12.5117 39.6901C12.3362 39.6066 12.154 39.5205 11.9593 39.4448C11.8622 39.4063 11.7613 39.3715 11.6604 39.3367C11.5595 39.3019 11.4565 39.2699 11.3506 39.2408C11.2452 39.2118 11.1376 39.1864 11.0275 39.1643C10.9183 39.1417 10.8084 39.1221 10.6957 39.1073C10.1905 39.0426 9.71595 39.0455 9.2782 39.0946C8.84292 39.1421 8.45125 39.2298 8.11952 39.3309C7.78796 39.4321 7.51994 39.5431 7.33593 39.6291C7.15124 39.7159 7.0496 39.7786 7.0496 39.7786Z" fill="#182454"/>
<path d="M11.015 36.9925C11.015 36.9925 11.0959 36.9237 11.2172 36.7943C11.3385 36.6657 11.5003 36.4756 11.6637 36.2352C11.8263 35.9957 11.9956 35.702 12.1298 35.3719C12.1974 35.2061 12.2557 35.0316 12.3032 34.8481C12.352 34.6634 12.3883 34.4705 12.4075 34.2711C12.4521 33.8235 12.4325 33.3939 12.3829 32.9987C12.3328 32.6031 12.252 32.2414 12.1678 31.9322C12.1227 31.7795 12.084 31.6361 12.0419 31.512C12.021 31.4494 12.0002 31.3912 11.9806 31.3376C11.9614 31.2835 11.9435 31.234 11.9272 31.1889C11.8605 31.0087 11.8109 30.9067 11.8109 30.9067C11.8109 30.9067 11.7133 30.9743 11.5599 31.1025C11.4065 31.2303 11.1972 31.4195 10.9767 31.6664C10.8663 31.7897 10.7531 31.9277 10.6427 32.0801C10.5339 32.2316 10.4286 32.3971 10.3317 32.5768C10.2358 32.7562 10.1457 32.9516 10.0757 33.1572C10.0055 33.3632 9.95016 33.5831 9.9153 33.8161C9.88629 34.0229 9.88174 34.2285 9.89283 34.4325C9.89804 34.5344 9.90993 34.6339 9.92573 34.7322C9.94119 34.8301 9.96025 34.9276 9.98238 35.023C10.0247 35.2155 10.0874 35.3949 10.1526 35.5673C10.1863 35.6529 10.2193 35.7376 10.2568 35.8167C10.2941 35.8961 10.3322 35.9723 10.3705 36.046C10.5213 36.3413 10.6874 36.5752 10.8079 36.7398C10.868 36.8225 10.9217 36.8844 10.9575 36.9269C10.9942 36.9699 11.015 36.9925 11.015 36.9925Z" fill="#182454"/>
<path d="M3.89066 35.3248C3.89066 35.3248 3.98121 35.4604 4.14813 35.677C4.19028 35.7307 4.23556 35.7905 4.28834 35.8527C4.34078 35.9154 4.39794 35.9817 4.45935 36.0514C4.58325 36.1898 4.7207 36.3438 4.88208 36.4969C5.19934 36.8074 5.58676 37.1334 6.024 37.4151C6.46124 37.6965 6.94851 37.9324 7.45821 38.0696C7.68717 38.1306 7.90671 38.165 8.11582 38.1793C8.32606 38.192 8.52717 38.1838 8.71524 38.1613C9.09224 38.1158 9.41958 38.0139 9.69382 37.8963C9.96676 37.7788 10.1825 37.6498 10.3304 37.5507C10.4783 37.4516 10.5583 37.3824 10.5583 37.3824C10.5583 37.3824 10.5382 37.3582 10.4991 37.3164C10.4607 37.2734 10.4016 37.214 10.3294 37.1379C10.185 36.9863 9.96889 36.7848 9.70928 36.5608C9.64367 36.5051 9.57446 36.4486 9.50213 36.3921C9.42951 36.3356 9.35688 36.2762 9.27922 36.2189C9.12546 36.103 8.95495 35.9907 8.7809 35.8789C8.69277 35.8237 8.60209 35.77 8.50829 35.7184C8.41415 35.6668 8.3171 35.6177 8.22005 35.5697C8.02477 35.4739 7.81682 35.3895 7.60004 35.3207C7.36032 35.2421 7.12177 35.1836 6.88806 35.1405C6.65389 35.0984 6.43014 35.0681 6.2106 35.0525C5.99223 35.0369 5.78133 35.0337 5.58217 35.0394C5.38465 35.0439 5.19834 35.0578 5.02653 35.0771C4.68309 35.116 4.39873 35.177 4.20058 35.229C4.00239 35.2814 3.89066 35.3248 3.89066 35.3248Z" fill="#182454"/>
<path d="M8.30797 33.298C8.30797 33.298 8.40014 33.2452 8.5436 33.14C8.68726 33.0347 8.88153 32.877 9.08786 32.6698C9.29484 32.4622 9.51013 32.207 9.70524 31.906C9.80308 31.7549 9.89463 31.5931 9.97555 31.4211C10.0158 31.3355 10.0532 31.2467 10.0876 31.1562C10.1236 31.0644 10.1562 30.9698 10.1848 30.8736C10.2495 30.6578 10.2931 30.4448 10.3301 30.2339C10.3656 30.0234 10.3835 29.8194 10.399 29.6196C10.4123 29.4201 10.412 29.2297 10.4118 29.047C10.4104 28.8648 10.3968 28.6944 10.3874 28.5339C10.3765 28.3742 10.3568 28.2292 10.3411 28.0986C10.3255 27.9679 10.3073 27.8541 10.29 27.7603C10.2719 27.6665 10.2573 27.5915 10.2473 27.5404C10.2368 27.4896 10.2298 27.4621 10.2298 27.4621C10.2298 27.4621 10.1208 27.5109 9.94558 27.6087C9.77102 27.707 9.52689 27.8561 9.26554 28.058C9.00364 28.2599 8.72044 28.5171 8.46055 28.8361C8.33156 28.9954 8.21187 29.1691 8.10227 29.3595C8.04774 29.4545 7.99608 29.554 7.94822 29.6572C7.90099 29.7605 7.85963 29.8665 7.8217 29.9779C7.5478 30.772 7.6551 31.6226 7.85017 32.2521C7.89724 32.4106 7.95264 32.5539 8.00376 32.6821C8.02965 32.746 8.05491 32.8062 8.07934 32.8619C8.10406 32.9168 8.12949 32.9667 8.15196 33.0126C8.24364 33.1944 8.30797 33.298 8.30797 33.298Z" fill="#182454"/>
<path d="M1.61661 30.3719C1.61661 30.3719 1.63207 30.4092 1.66284 30.4771C1.69315 30.5455 1.73876 30.6442 1.80292 30.7646C1.86608 30.8859 1.94475 31.03 2.03792 31.1897C2.13139 31.3491 2.24604 31.5223 2.37144 31.7041C2.49568 31.8868 2.64322 32.0735 2.80068 32.2619C2.95685 32.4507 3.13503 32.6354 3.32263 32.8136C3.50878 32.9933 3.7156 33.1604 3.92989 33.314C4.14259 33.468 4.37417 33.6031 4.61093 33.717C5.46344 34.1233 6.26242 34.0798 6.84183 33.9488C7.13153 33.8833 7.3672 33.7952 7.53083 33.7244C7.6945 33.6535 7.78635 33.5995 7.78635 33.5995C7.78635 33.5995 7.72527 33.4909 7.60771 33.3177C7.57773 33.2747 7.545 33.2276 7.50936 33.1764C7.47417 33.1248 7.43557 33.0699 7.39371 33.013C7.31067 32.8975 7.21149 32.7726 7.10385 32.6395C6.66823 32.1092 6.05998 31.469 5.26429 31.0386C5.15289 30.9788 5.03987 30.9244 4.92881 30.8736C4.81842 30.8224 4.70781 30.7757 4.59759 30.7331C4.37776 30.6479 4.15772 30.5804 3.94602 30.5251C3.52458 30.4137 3.12411 30.358 2.77775 30.3346C2.43118 30.3109 2.14328 30.3187 1.93875 30.3342C1.73451 30.3494 1.61661 30.3719 1.61661 30.3719Z" fill="#182454"/>
<path d="M6.33762 29.1789C6.33762 29.1789 6.43809 29.1437 6.59868 29.0663C6.75927 28.9893 6.97926 28.8693 7.2201 28.703C7.46261 28.5364 7.72609 28.3234 7.97281 28.0629C8.21707 27.8033 8.45453 27.4937 8.63576 27.1361C8.73819 26.9359 8.82841 26.7328 8.89911 26.5329C8.93397 26.4334 8.96911 26.3335 8.99992 26.2348C9.03085 26.1361 9.05803 26.0378 9.08196 25.9415C9.18181 25.5553 9.23863 25.1896 9.27432 24.8714C9.28912 24.7129 9.30396 24.5655 9.31126 24.434C9.31972 24.303 9.31876 24.1883 9.32285 24.0921C9.32756 23.9 9.31926 23.7874 9.31926 23.7874C9.31926 23.7874 9.20316 23.8156 9.01276 23.8803C8.82257 23.9454 8.55793 24.0474 8.26105 24.1998C8.11335 24.2755 7.95472 24.3648 7.79822 24.4672C7.64125 24.57 7.48167 24.6867 7.32516 24.8202C7.24699 24.8866 7.16928 24.9574 7.09341 25.0324C7.05547 25.07 7.01753 25.1089 6.98039 25.1487C6.94408 25.188 6.90826 25.2285 6.87275 25.2703C6.73154 25.4378 6.59885 25.6229 6.48061 25.8277C6.37768 26.0103 6.29755 26.2004 6.23323 26.3941C6.2173 26.4424 6.20196 26.4911 6.18845 26.5399C6.17573 26.5882 6.16402 26.6365 6.15297 26.6857C6.13146 26.7827 6.1137 26.8798 6.09907 26.9764C6.06826 27.171 6.05917 27.361 6.05767 27.5445C6.05688 27.6366 6.05884 27.7267 6.06242 27.8139C6.0678 27.9012 6.0756 27.9859 6.08456 28.0683C6.10361 28.2317 6.12412 28.3844 6.1531 28.5187C6.18145 28.6535 6.21126 28.7718 6.23798 28.8701C6.26499 28.968 6.28813 29.0458 6.30764 29.0982C6.32623 29.1507 6.33762 29.1789 6.33762 29.1789Z" fill="#182454"/>
<path d="M0.308932 25.0958C0.308932 25.0958 0.343116 25.2539 0.418533 25.5148C0.454511 25.6454 0.50925 25.8002 0.571617 25.9739C0.634944 26.1471 0.707901 26.3388 0.801537 26.5394C0.982303 26.9416 1.22431 27.3831 1.52785 27.8012C1.6049 27.9053 1.68486 28.0085 1.76824 28.1088C1.85162 28.2095 1.93741 28.3078 2.03092 28.4024C2.2164 28.5912 2.41101 28.7677 2.62434 28.9217C3.00767 29.1978 3.39267 29.3632 3.76363 29.4537C4.132 29.5455 4.47677 29.5655 4.77281 29.5536C5.07052 29.5414 5.31932 29.4975 5.49392 29.4574C5.66835 29.4173 5.76849 29.3812 5.76849 29.3812C5.76849 29.3812 5.75806 29.3513 5.73722 29.2981C5.71537 29.2457 5.68623 29.1679 5.64571 29.0716C5.60531 28.9754 5.55416 28.8611 5.49163 28.7338C5.42863 28.606 5.36135 28.463 5.2788 28.3132C5.23774 28.2386 5.19363 28.1612 5.14706 28.083C5.10224 28.0035 5.05438 27.9233 5.0034 27.8422C4.9018 27.6792 4.78553 27.5141 4.66404 27.3483C4.6023 27.2656 4.53718 27.1828 4.46843 27.1017C4.43408 27.0612 4.3989 27.0207 4.36292 26.9801C4.32727 26.9404 4.29192 26.8998 4.25478 26.8601C4.1079 26.7016 3.94523 26.5497 3.76805 26.4084C3.57357 26.2499 3.37312 26.1103 3.17101 25.987C3.12036 25.9567 3.06987 25.9268 3.01926 25.8985C2.96923 25.8694 2.91941 25.8416 2.8696 25.815C2.76992 25.7609 2.6704 25.7114 2.57172 25.6647C2.37386 25.5725 2.17875 25.4943 1.99103 25.4292C1.80276 25.3641 1.62607 25.3104 1.45848 25.2678C1.1243 25.1818 0.836721 25.1376 0.632984 25.1163C0.429288 25.095 0.308932 25.0958 0.308932 25.0958Z" fill="#182454"/>
<path d="M5.17228 24.7739C5.17228 24.7739 5.27763 24.7575 5.4501 24.71C5.62274 24.6629 5.86212 24.5851 6.13081 24.4647C6.39954 24.3447 6.69754 24.183 6.98691 23.9716C7.13366 23.8652 7.27924 23.7468 7.41798 23.6145C7.48735 23.5486 7.55526 23.4794 7.62088 23.4069C7.65365 23.3704 7.68605 23.3332 7.71765 23.2951C7.74987 23.2566 7.78214 23.2177 7.81357 23.1776C7.9544 22.9986 8.07426 22.8147 8.18324 22.6308C8.2948 22.4461 8.38889 22.2614 8.47211 22.0792C8.5599 21.8973 8.63382 21.7192 8.6959 21.5476C8.7117 21.5046 8.72616 21.4624 8.7405 21.4202C8.74751 21.3989 8.75418 21.3785 8.76101 21.3576C8.76835 21.3371 8.77569 21.3162 8.78298 21.2957C8.812 21.2142 8.83789 21.1348 8.86132 21.0578C8.90839 20.9042 8.94503 20.7617 8.97434 20.6335C9.00857 20.5057 9.03429 20.3927 9.05318 20.2985C9.09128 20.1105 9.10266 19.9979 9.10266 19.9979C9.10266 19.9979 8.98364 20.0053 8.78465 20.0356C8.58596 20.0655 8.30747 20.1191 7.98863 20.2162C7.67008 20.3132 7.30905 20.4537 6.9506 20.6605C6.77408 20.7642 6.59774 20.8841 6.42689 21.023C6.34105 21.093 6.25705 21.1675 6.17463 21.247C6.13344 21.2871 6.09271 21.3281 6.05264 21.3707C6.01212 21.4133 5.97335 21.4567 5.93637 21.5017C5.80317 21.6635 5.68819 21.8363 5.58985 22.0153C5.54049 22.105 5.49521 22.1963 5.45402 22.2876C5.41509 22.3798 5.38023 22.4719 5.34851 22.5649C5.21885 22.9359 5.15957 23.3074 5.13009 23.6358C5.10746 23.9643 5.11204 24.2501 5.13272 24.452C5.15065 24.6543 5.17228 24.7739 5.17228 24.7739Z" fill="#182454"/>
<path d="M0 19.6863C0 19.6863 0.00554403 19.848 0.0336846 20.1179C0.0476923 20.2531 0.0675804 20.4148 0.0952623 20.5962C0.127655 20.7777 0.169511 20.9788 0.221123 21.1921C0.247179 21.299 0.275529 21.4092 0.306963 21.521C0.314759 21.5492 0.322927 21.5771 0.331057 21.6053C0.34002 21.6336 0.349485 21.6619 0.358573 21.6901C0.377459 21.747 0.39701 21.8044 0.417355 21.8617C0.49865 22.0923 0.592287 22.3274 0.699763 22.5592C0.812116 22.7914 0.940768 23.0199 1.0831 23.2386C1.22805 23.4565 1.39285 23.6641 1.57083 23.8537C1.61072 23.8967 1.65095 23.9377 1.69168 23.9762C1.73354 24.0155 1.7754 24.0531 1.81771 24.0888C1.90209 24.1609 1.98755 24.2264 2.07323 24.2858C2.24503 24.4054 2.41784 24.5024 2.58947 24.5806C2.93633 24.7363 3.27247 24.8182 3.56643 24.8603C3.86017 24.9017 4.11227 24.9033 4.29091 24.8952C4.46959 24.8874 4.57494 24.8698 4.57494 24.8698C4.57494 24.8698 4.55835 24.7465 4.51291 24.5434C4.46455 24.3406 4.40022 24.0564 4.29208 23.7325C4.19077 23.4077 4.04894 23.0428 3.86868 22.6734C3.82257 22.5813 3.77325 22.4883 3.7203 22.3966C3.66999 22.304 3.61608 22.2123 3.55809 22.1209C3.44265 21.9391 3.31108 21.7606 3.16187 21.5902C3.11989 21.5435 3.07836 21.4972 3.0373 21.4509C2.99611 21.4055 2.95426 21.3613 2.91207 21.3178C2.82756 21.2314 2.74126 21.1491 2.6538 21.0709C2.47891 20.914 2.2991 20.7732 2.11979 20.6474C1.76627 20.3956 1.41566 20.2027 1.10136 20.0593C0.787519 19.9156 0.512324 19.8214 0.315423 19.7641C0.118398 19.7067 0 19.6863 0 19.6863Z" fill="#182454"/>
<path d="M4.84543 20.233C4.84543 20.233 4.95245 20.2354 5.13042 20.2191C5.30861 20.2035 5.55841 20.1691 5.84403 20.0991C5.98685 20.0638 6.13881 20.0192 6.29515 19.9643C6.45182 19.9094 6.61107 19.8435 6.77654 19.7653C7.10497 19.6088 7.4354 19.4024 7.73311 19.1321C8.41544 18.5277 8.85515 17.8102 9.15414 17.2417C9.17207 17.2061 9.18946 17.1709 9.20676 17.1365C9.22418 17.1025 9.24144 17.0689 9.25837 17.0361C9.2916 16.9702 9.32186 16.9075 9.34938 16.8473C9.40428 16.7278 9.44826 16.6213 9.48278 16.5324C9.51876 16.4435 9.54774 16.3727 9.5655 16.3239C9.58376 16.2748 9.59222 16.2478 9.59222 16.2478C9.59222 16.2478 9.47382 16.233 9.27204 16.2265C9.0701 16.2203 8.78527 16.2224 8.45159 16.2596C8.11924 16.2965 7.7442 16.3706 7.35432 16.5095C7.15988 16.5791 6.96022 16.6643 6.76578 16.7708C6.57393 16.8768 6.38391 17.0034 6.20001 17.1533C6.1178 17.2204 6.03963 17.2913 5.96538 17.365C5.89126 17.4383 5.82597 17.5157 5.76131 17.5952C5.63395 17.7536 5.52126 17.9211 5.42192 18.0919C5.3247 18.2627 5.24803 18.4372 5.17878 18.6079C5.11137 18.7791 5.05113 18.9466 5.01219 19.1063C4.97067 19.2652 4.93861 19.416 4.91368 19.5515C4.9013 19.6195 4.89071 19.6834 4.88158 19.7432C4.87216 19.803 4.86824 19.8587 4.86319 19.9094C4.84543 20.1113 4.84543 20.233 4.84543 20.233Z" fill="#182454"/>
<path d="M0.702841 14.2988C0.702841 14.2988 0.69617 14.3389 0.685914 14.413C0.676117 14.4864 0.660985 14.5941 0.649937 14.7292C0.640307 14.8652 0.631509 15.0286 0.627298 15.2129C0.625005 15.305 0.624006 15.4025 0.624339 15.5045C0.625006 15.5552 0.625673 15.6068 0.626298 15.6601C0.627424 15.7133 0.631342 15.767 0.634594 15.8223C0.677451 16.7015 0.904117 17.813 1.46872 18.6878C1.72832 19.0797 2.03187 19.3697 2.33949 19.5843C2.49191 19.6912 2.65133 19.7804 2.80458 19.8537C2.95834 19.9275 3.10796 19.9856 3.249 20.0323C3.53107 20.1257 3.77908 20.172 3.95626 20.1961C4.13361 20.2195 4.24046 20.2211 4.24046 20.2211C4.24046 20.2211 4.2458 20.097 4.23688 19.889C4.23508 19.837 4.23016 19.7796 4.22808 19.7182C4.22595 19.6559 4.2227 19.5896 4.21782 19.5192C4.20836 19.3783 4.19339 19.221 4.17025 19.0523C4.14453 18.8831 4.12269 18.7029 4.08621 18.5154C4.05119 18.3278 4.0017 18.1325 3.94667 17.9347C3.89323 17.7369 3.82665 17.5362 3.74423 17.3355C3.70354 17.2356 3.65614 17.1352 3.60957 17.0365C3.56267 16.9378 3.51152 16.84 3.45548 16.7429C3.33042 16.5263 3.19284 16.3252 3.04755 16.1392C2.90506 15.9533 2.75898 15.7834 2.60756 15.6277C2.30643 15.3161 1.99147 15.0618 1.71073 14.8639C1.43095 14.6665 1.17935 14.524 0.997129 14.4327C0.815195 14.3406 0.702841 14.2988 0.702841 14.2988Z" fill="#182454"/>
<path d="M5.35893 15.7096C5.35893 15.7096 5.46332 15.7309 5.64129 15.7477C5.81847 15.7641 6.07124 15.7752 6.36665 15.758C6.6619 15.7408 7.00029 15.6949 7.34911 15.5995C7.52354 15.552 7.70055 15.4922 7.8764 15.4176C8.05621 15.3443 8.23501 15.2559 8.40894 15.151C8.79211 14.9135 9.1393 14.642 9.42171 14.3618C9.71988 14.0862 9.95308 13.8012 10.1583 13.5506C10.2589 13.4248 10.3426 13.304 10.4201 13.1967C10.4985 13.0894 10.5635 12.9936 10.6154 12.9129C10.6672 12.8314 10.7059 12.7659 10.7318 12.7208C10.7572 12.6754 10.7711 12.6504 10.7711 12.6504C10.7711 12.6504 10.6566 12.6144 10.4607 12.5722C10.2645 12.5296 9.98531 12.4808 9.65263 12.4575C9.32007 12.435 8.93365 12.4382 8.52196 12.5034C8.31806 12.5365 8.11107 12.5865 7.9002 12.6553C7.6903 12.7249 7.4753 12.813 7.26735 12.9276C7.08367 13.0308 6.91332 13.1513 6.75582 13.2831C6.67736 13.3495 6.60049 13.4179 6.52999 13.4895C6.46057 13.5616 6.39433 13.6353 6.33113 13.7107C6.20523 13.8614 6.08995 14.017 5.99027 14.1726C5.89451 14.3291 5.81017 14.4847 5.73688 14.633C5.70057 14.7071 5.66655 14.7796 5.63541 14.8496C5.60431 14.9196 5.57976 14.988 5.55549 15.0523C5.50809 15.1821 5.47032 15.298 5.44085 15.3951C5.41133 15.4926 5.39048 15.5712 5.37698 15.6253C5.37014 15.6523 5.36543 15.6732 5.36297 15.6875C5.36038 15.7019 5.35893 15.7096 5.35893 15.7096Z" fill="#182454"/>
<path d="M2.39878 9.12714C2.39878 9.12714 2.3952 9.13697 2.38852 9.1554C2.38265 9.17383 2.37368 9.20127 2.36214 9.23649C2.3395 9.30775 2.30773 9.41177 2.27142 9.54282C2.23527 9.67387 2.19454 9.83237 2.15385 10.0122C2.11412 10.1915 2.08169 10.3955 2.05075 10.6134C1.98513 11.0475 1.96542 11.5516 1.99426 12.0623C2.03854 12.5771 2.13122 13.0984 2.33479 13.5821C2.42338 13.7979 2.52743 13.9904 2.64175 14.162C2.76031 14.3348 2.88863 14.4868 3.02133 14.6207C3.28664 14.8881 3.56934 15.0826 3.82794 15.2247C4.08638 15.3673 4.32072 15.4574 4.49156 15.5126C4.66174 15.5683 4.76629 15.5888 4.76629 15.5888C4.76629 15.5888 4.76792 15.581 4.77084 15.5667C4.77347 15.552 4.77784 15.5303 4.78406 15.5024C4.7961 15.4467 4.8119 15.3652 4.82866 15.2624C4.84542 15.16 4.86285 15.0359 4.87769 14.8951C4.88532 14.825 4.8907 14.7497 4.89853 14.6719C4.9065 14.5941 4.91367 14.5126 4.91938 14.4278C4.93109 14.2582 4.93697 14.076 4.93368 13.8839C4.93401 13.6931 4.92947 13.4945 4.91025 13.2893C4.90112 13.1869 4.88857 13.0829 4.87265 12.978C4.85797 12.8736 4.84267 12.7687 4.82166 12.6631C4.78064 12.4526 4.72361 12.2392 4.64694 12.0275C4.56356 11.7916 4.47055 11.5704 4.36403 11.362C4.25868 11.1539 4.14157 10.9582 4.02188 10.7776C3.78659 10.4176 3.52845 10.1125 3.28844 9.86677C3.04856 9.62145 2.82626 9.43512 2.66372 9.31226C2.50088 9.18817 2.39878 9.12714 2.39878 9.12714Z" fill="#182454"/>
<path d="M6.71626 11.3579C6.71626 11.3579 6.81481 11.398 6.98678 11.4468C7.15859 11.4951 7.4038 11.5512 7.69597 11.5868C7.98813 11.6229 8.32506 11.6368 8.68951 11.6085C8.87128 11.5938 9.05755 11.5676 9.24565 11.5266C9.43488 11.4861 9.62053 11.4287 9.81513 11.3583C10.6654 11.0327 11.3515 10.5257 11.8347 10.0982C11.9581 9.99291 12.0673 9.89134 12.1615 9.79838C12.2086 9.7521 12.2511 9.70705 12.292 9.66609C12.3337 9.62514 12.3712 9.58747 12.4046 9.55266C12.5388 9.41341 12.6093 9.32413 12.6093 9.32413C12.6093 9.32413 12.5042 9.26843 12.3191 9.19144C12.1332 9.11404 11.8676 9.01575 11.5437 8.93303C11.2197 8.8503 10.8357 8.78231 10.4253 8.77576C10.219 8.77207 10.0039 8.78272 9.78257 8.81221C9.67264 8.82695 9.55833 8.84539 9.4481 8.87201C9.33716 8.89822 9.22514 8.92975 9.11262 8.96784C8.91164 9.03541 8.71853 9.12141 8.53906 9.22298C8.36283 9.32618 8.19741 9.44331 8.04332 9.56781C7.96678 9.63006 7.89041 9.69272 7.82203 9.75947C7.75346 9.82622 7.68767 9.8938 7.6248 9.96137C7.49956 10.0973 7.38463 10.2337 7.28478 10.366C7.09213 10.6347 6.94509 10.8816 6.85079 11.0618C6.76041 11.244 6.71626 11.3579 6.71626 11.3579Z" fill="#182454"/>
<path d="M5.03404 4.35685C5.03404 4.35685 4.95112 4.49691 4.82934 4.74059C4.7987 4.8012 4.76598 4.86837 4.73129 4.94167C4.69711 5.01498 4.66371 5.09565 4.62836 5.18084C4.55786 5.35162 4.48424 5.54369 4.41245 5.75133C4.13492 6.58801 3.92551 7.69827 4.13834 8.71883C4.18086 8.9449 4.25415 9.15622 4.33591 9.34625C4.41845 9.53668 4.515 9.70869 4.61923 9.86349C4.82622 10.1727 5.07164 10.4168 5.3006 10.6039C5.52973 10.7911 5.74406 10.9226 5.90056 11.0077C6.05723 11.0929 6.15624 11.1322 6.15624 11.1322C6.15624 11.1322 6.20656 11.0184 6.27397 10.8206C6.34547 10.6252 6.4404 10.3488 6.51957 10.0167C6.56288 9.85203 6.6057 9.6751 6.64005 9.48671C6.65748 9.39293 6.67295 9.29628 6.68616 9.19676C6.69934 9.09807 6.7153 8.99896 6.72539 8.89699C6.74736 8.69304 6.75812 8.4813 6.75374 8.26466C6.75274 8.05006 6.73923 7.83178 6.70471 7.61063C6.68533 7.48736 6.6619 7.36613 6.63467 7.24778C6.60666 7.12942 6.58031 7.01598 6.54771 6.90417C6.48371 6.68139 6.40717 6.46925 6.323 6.2698C6.15216 5.86968 5.95884 5.52608 5.76928 5.24186C5.57988 4.95846 5.39686 4.73608 5.26021 4.58578C5.12376 4.43507 5.03404 4.35685 5.03404 4.35685Z" fill="#182454"/>
<path d="M8.86086 7.32314C8.86086 7.32314 8.95008 7.38047 9.11033 7.45911C9.27059 7.53815 9.50151 7.63766 9.78275 7.72571C10.0638 7.81335 10.3952 7.88994 10.754 7.92352C11.1143 7.95833 11.5099 7.95587 11.9085 7.8797C12.811 7.71629 13.5694 7.33092 14.1297 7.00124C14.1639 6.97994 14.1976 6.95906 14.2306 6.93858C14.2639 6.91851 14.2964 6.89845 14.3285 6.8792C14.3919 6.84029 14.4515 6.8022 14.507 6.76494C14.6179 6.69122 14.7125 6.62283 14.7896 6.56467C14.9481 6.45205 15.0356 6.37875 15.0356 6.37875C15.0356 6.37875 14.9422 6.30502 14.7738 6.19527C14.6054 6.08674 14.3615 5.94136 14.0576 5.80129C13.7541 5.66205 13.3955 5.53182 12.9891 5.44909C12.7864 5.40814 12.5705 5.37783 12.3487 5.36842C12.1286 5.36022 11.8989 5.37006 11.6621 5.40282C11.5562 5.41715 11.452 5.43722 11.349 5.46138C11.2485 5.48759 11.1497 5.51831 11.0526 5.55271C10.8592 5.62192 10.6729 5.70587 10.4973 5.79966C10.326 5.89713 10.1645 6.00361 10.0145 6.11336C9.93958 6.16865 9.86663 6.22394 9.79838 6.28005C9.73159 6.33779 9.66776 6.39553 9.60702 6.45205C9.48571 6.5659 9.3774 6.67647 9.28297 6.77845C9.2349 6.82923 9.19354 6.87961 9.15527 6.92671C9.11684 6.9738 9.08198 7.01803 9.05088 7.05858C8.92632 7.22034 8.86086 7.32314 8.86086 7.32314Z" fill="#182454"/>
<path d="M8.50599 0.140259C8.50599 0.140259 8.39735 0.261892 8.23176 0.478537C8.1513 0.589522 8.05687 0.72385 7.95506 0.878246C7.90408 0.955239 7.85134 1.03755 7.79743 1.12437C7.77088 1.16778 7.74386 1.21201 7.71602 1.25747C7.68946 1.30375 7.66324 1.35126 7.63668 1.39959C7.20336 2.16788 6.80322 3.23022 6.81723 4.26676C6.82798 4.73404 6.92733 5.13416 7.07683 5.47735C7.22779 5.82177 7.42123 6.10435 7.61096 6.32877C7.80035 6.5532 7.98633 6.72111 8.12411 6.83251C8.26202 6.94431 8.35224 7.00082 8.35224 7.00082C8.35224 7.00082 8.4239 6.89844 8.5288 6.71783C8.55502 6.67237 8.58333 6.62241 8.61297 6.56754C8.64277 6.51307 8.67354 6.45327 8.70827 6.39184C8.77631 6.26734 8.84847 6.12605 8.9198 5.97125C8.95562 5.89384 8.99113 5.81276 9.02599 5.72839C9.06213 5.64485 9.0994 5.55966 9.13442 5.47038C9.20463 5.29264 9.27025 5.10344 9.32611 4.9044C9.38619 4.70823 9.43784 4.50346 9.47494 4.29091C9.49349 4.18484 9.5085 4.07632 9.51955 3.96656C9.5326 3.85845 9.54156 3.74869 9.54577 3.63729C9.55524 3.3887 9.54548 3.14708 9.52134 2.91405C9.49858 2.68226 9.46519 2.46233 9.41941 2.25142C9.32936 1.83164 9.19646 1.45241 9.06309 1.14035C8.93039 0.828278 8.79177 0.577644 8.68576 0.405638C8.57974 0.233633 8.50599 0.140259 8.50599 0.140259Z" fill="#182454"/>
<path d="M16.0086 0.00060622C16.0086 0.00060622 15.8786 -0.00349035 15.6539 0.00961484C15.5417 0.0157579 15.4054 0.0272305 15.2495 0.0460693C15.1715 0.0554886 15.0877 0.0653115 15.0022 0.0808739C14.9164 0.0960268 14.8263 0.113639 14.7325 0.134116C14.5453 0.17507 14.3419 0.225037 14.1305 0.291382C13.9221 0.361003 13.7036 0.443725 13.481 0.542833C13.4251 0.567815 13.3684 0.592393 13.3134 0.620241C13.2584 0.6485 13.2033 0.677572 13.1479 0.707878C13.0374 0.767671 12.9265 0.832376 12.8156 0.901178C12.5922 1.03592 12.3812 1.20056 12.174 1.37953C12.0823 1.4602 11.9931 1.54087 11.9122 1.62688C11.8317 1.7137 11.7559 1.80217 11.6846 1.89104C11.542 2.06919 11.414 2.24774 11.3115 2.43285C11.2068 2.61633 11.1184 2.79734 11.0438 2.97139C10.97 3.14626 10.915 3.31868 10.8686 3.47717C10.8227 3.63526 10.7882 3.78228 10.7621 3.91333C10.7383 4.04643 10.7233 4.16355 10.7133 4.26102C10.6932 4.45433 10.6942 4.56818 10.6942 4.56818C10.6942 4.56818 10.8093 4.55303 10.9996 4.51085C11.0947 4.48955 11.2089 4.46211 11.3361 4.42607C11.4661 4.39249 11.61 4.35153 11.763 4.30075C11.9164 4.25079 12.0769 4.18936 12.2445 4.12015C12.4141 4.05257 12.5884 3.97394 12.7623 3.88261C12.9344 3.78883 13.1141 3.69013 13.2884 3.57382C13.3755 3.51567 13.4618 3.45382 13.5464 3.38748C13.5885 3.3539 13.6315 3.32032 13.6744 3.28673C13.7174 3.25274 13.7599 3.21753 13.8016 3.18108C14.1735 2.8514 14.492 2.49673 14.7617 2.1388C14.8993 1.9627 15.0231 1.78496 15.1348 1.6105C15.2486 1.43808 15.3537 1.27345 15.445 1.11455C15.5367 0.955645 15.6159 0.804936 15.6885 0.674293C15.7597 0.541603 15.8189 0.422844 15.8665 0.322507C15.9615 0.123062 16.0086 0.00060622 16.0086 0.00060622Z" fill="#182454"/>
<path d="M37.4905 44.3961C37.4905 44.3961 37.4576 44.2962 37.4234 44.1237C37.3888 43.9513 37.3521 43.7064 37.3408 43.4181C37.3291 43.1286 37.3417 42.7928 37.4034 42.4418C37.4338 42.2657 37.4771 42.0892 37.5338 41.9065C37.5905 41.7239 37.6627 41.5412 37.7523 41.3618C37.8027 41.2627 37.8549 41.1624 37.9099 41.0674C37.9645 40.9715 38.022 40.8798 38.0812 40.7913C38.1408 40.7037 38.2005 40.6156 38.2622 40.5317C38.3234 40.4477 38.386 40.3671 38.4498 40.2897C38.5135 40.2139 38.5765 40.1365 38.6399 40.0644C38.7037 39.9919 38.7674 39.9223 38.8308 39.8568C38.895 39.7917 38.9567 39.7257 39.0184 39.6651C39.0797 39.6037 39.1406 39.5459 39.1998 39.4915C39.2594 39.4374 39.3169 39.3854 39.3719 39.3354C39.427 39.2859 39.4803 39.2404 39.5312 39.1974C39.5821 39.1552 39.6308 39.1163 39.6763 39.0807C39.7209 39.0434 39.7626 39.0103 39.8009 38.9808C39.9539 38.8616 40.0502 38.8006 40.0502 38.8006C40.0502 38.8006 40.0978 38.9079 40.1603 39.0959C40.2228 39.2838 40.3004 39.5525 40.3571 39.876C40.3854 40.0378 40.4083 40.2135 40.4213 40.3998C40.4342 40.5862 40.435 40.7803 40.4221 40.9834C40.4088 41.1857 40.3808 41.3975 40.3316 41.61C40.282 41.8217 40.212 42.0372 40.1178 42.2534C39.9468 42.6355 39.6984 42.9713 39.4186 43.2482C39.2798 43.3899 39.1314 43.5119 38.9838 43.6249C38.9096 43.681 38.8358 43.7339 38.7624 43.7842C38.6882 43.8326 38.6149 43.878 38.5431 43.921C38.4719 43.9632 38.4014 44.0033 38.3335 44.0402C38.2993 44.0582 38.2659 44.0758 38.2334 44.093C38.2005 44.109 38.1679 44.125 38.1367 44.1401C38.0104 44.1995 37.8965 44.2482 37.8011 44.2872C37.7531 44.3064 37.7098 44.3232 37.6718 44.3371C37.6339 44.3506 37.6005 44.3617 37.5739 44.3703C37.5201 44.3875 37.4905 44.3961 37.4905 44.3961Z" fill="#182454"/>
<path d="M44.451 46.6342C44.451 46.6342 44.3013 46.703 44.0441 46.8013C43.9795 46.8259 43.9086 46.8525 43.8311 46.8799C43.7531 46.9062 43.6693 46.9332 43.5797 46.9606C43.4905 46.9885 43.3954 47.0163 43.2958 47.0442C43.2462 47.0581 43.1953 47.0716 43.1432 47.0855C43.0907 47.099 43.0369 47.1113 42.9823 47.124C42.873 47.1486 42.7601 47.1723 42.6433 47.1949C42.527 47.217 42.4078 47.2391 42.284 47.2547C42.161 47.271 42.0351 47.2854 41.9079 47.2973C41.7803 47.3083 41.6515 47.3181 41.5202 47.3202C41.3893 47.3235 41.2571 47.3231 41.1254 47.319C40.9932 47.3149 40.8611 47.3071 40.7285 47.2915C40.5964 47.2764 40.4646 47.2571 40.3346 47.2326C40.2041 47.2084 40.0761 47.1801 39.9485 47.1425C39.7205 47.0765 39.5145 46.9926 39.329 46.8971C39.1435 46.8025 38.9759 46.6895 38.8275 46.574C38.5302 46.3414 38.3051 46.0858 38.1346 45.8459C37.9645 45.6059 37.8494 45.3847 37.7761 45.2238C37.7027 45.0636 37.6714 44.9629 37.6714 44.9629C37.6714 44.9629 37.7014 44.9535 37.7573 44.9375C37.8132 44.9224 37.8949 44.8998 37.9966 44.872C38.0987 44.8449 38.2226 44.8155 38.3639 44.7872C38.4343 44.7733 38.509 44.7577 38.5869 44.7426C38.6653 44.7274 38.7474 44.7127 38.8329 44.6992C38.9184 44.6856 39.0076 44.6729 39.0993 44.6623C39.1906 44.65 39.2848 44.6377 39.3815 44.6287C39.575 44.6095 39.7792 44.6005 39.9873 44.5947C40.4063 44.5902 40.8478 44.6201 41.2909 44.725C41.5373 44.7815 41.772 44.854 41.9938 44.9379C42.2156 45.0202 42.4232 45.1111 42.6179 45.2103C42.8126 45.3085 42.9948 45.4154 43.1607 45.5211C43.327 45.6268 43.4784 45.7341 43.6143 45.8389C43.8865 46.0486 44.0966 46.2468 44.2375 46.3934C44.3789 46.5396 44.451 46.6342 44.451 46.6342Z" fill="#182454"/>
<path d="M41.7637 42.6375C41.7637 42.6375 41.7128 42.545 41.6469 42.3816C41.5807 42.2182 41.4985 41.9839 41.4335 41.7017C41.3026 41.137 41.238 40.381 41.4548 39.6061C41.4852 39.498 41.519 39.3924 41.5561 39.29C41.5927 39.1872 41.6307 39.0844 41.6724 38.9861C41.7136 38.8874 41.7574 38.792 41.8033 38.6994C41.8483 38.6069 41.8942 38.5143 41.9417 38.4263C41.9896 38.3386 42.0388 38.2539 42.0884 38.1719C42.1376 38.0892 42.1868 38.0085 42.2369 37.9315C42.2865 37.855 42.3369 37.7812 42.3869 37.7108C42.4361 37.6404 42.4845 37.5712 42.532 37.5064C42.7259 37.2497 42.8989 37.0379 43.0306 36.8971C43.1582 36.7525 43.2407 36.673 43.2407 36.673C43.2407 36.673 43.3074 36.7709 43.4042 36.9442C43.5009 37.1182 43.6272 37.3688 43.7435 37.6776C43.9728 38.2915 44.1621 39.143 43.9478 40.0575C43.8986 40.2598 43.8311 40.4576 43.7443 40.6419C43.6576 40.8249 43.5567 40.9998 43.4459 41.1628C43.3337 41.3229 43.2124 41.4728 43.0886 41.6112C42.9635 41.7472 42.8347 41.8701 42.7104 41.9811C42.6487 42.0372 42.5866 42.0879 42.5262 42.1354C42.4657 42.183 42.4069 42.2276 42.3511 42.2686C42.2385 42.3509 42.1372 42.4213 42.0488 42.4741C41.8737 42.5823 41.7637 42.6375 41.7637 42.6375Z" fill="#182454"/>
<path d="M49.0206 43.5881C49.0206 43.5881 48.8876 43.6839 48.6533 43.8273C48.4157 43.9661 48.0801 44.1569 47.669 44.3322C47.5665 44.3769 47.461 44.4215 47.3505 44.4645C47.2392 44.5059 47.1246 44.5468 47.0074 44.5857C46.8894 44.6242 46.7698 44.6623 46.6468 44.6963C46.523 44.7295 46.3967 44.7598 46.2691 44.7872C46.1411 44.8138 46.0131 44.8392 45.8818 44.8581C45.7505 44.8765 45.6187 44.8908 45.4862 44.9007C45.3536 44.9101 45.2218 44.9166 45.0888 44.915C44.9559 44.9133 44.8229 44.9064 44.6915 44.8937C44.4564 44.8712 44.2396 44.8273 44.0374 44.7643C43.8361 44.702 43.6522 44.6246 43.485 44.5378C43.3183 44.4518 43.1665 44.3543 43.0302 44.2532C42.8939 44.152 42.7734 44.0476 42.6671 43.9452C42.4553 43.7404 42.3011 43.5443 42.1993 43.3997C42.0972 43.2555 42.048 43.1622 42.048 43.1622C42.048 43.1622 42.1581 43.1011 42.3503 43.0143C42.4474 42.9717 42.562 42.9181 42.695 42.8636C42.7613 42.8362 42.8322 42.8083 42.9064 42.7801C42.9814 42.7526 43.0594 42.724 43.1407 42.6941C43.3024 42.6351 43.4796 42.579 43.6668 42.527C43.8527 42.4721 44.0495 42.4229 44.2559 42.3844C44.4602 42.3431 44.6724 42.3099 44.8917 42.2923C45.1105 42.2735 45.3323 42.2645 45.5604 42.2772C46.5738 42.3267 47.4376 42.6412 48.0522 42.9582C48.3582 43.1147 48.6008 43.2715 48.7667 43.3903C48.9322 43.5086 49.0206 43.5881 49.0206 43.5881Z" fill="#182454"/>
<path d="M45.6383 40.141C45.6383 40.141 45.5716 40.0595 45.4766 39.9108C45.3815 39.7626 45.2569 39.5464 45.1401 39.2797C45.0226 39.0131 44.9125 38.6966 44.842 38.348C44.8079 38.1748 44.7799 37.9897 44.7674 37.8005C44.7537 37.6101 44.7566 37.4172 44.7733 37.2157C44.7912 36.9904 44.8274 36.775 44.8725 36.5666C44.9158 36.3565 44.9729 36.1587 45.0342 35.9686C45.0934 35.7761 45.1635 35.5984 45.2323 35.4289C45.3002 35.2581 45.3744 35.1025 45.4445 34.9579C45.5132 34.8121 45.5824 34.6815 45.6475 34.5672C45.7108 34.4509 45.7688 34.3497 45.8197 34.2682C45.9214 34.1056 45.986 34.0119 45.986 34.0119C45.986 34.0119 46.0702 34.0954 46.1974 34.2494C46.3254 34.4038 46.4959 34.6274 46.6656 34.9092C46.8352 35.1901 47.007 35.5325 47.1304 35.9207C47.2513 36.3073 47.3305 36.7463 47.3072 37.2128C47.3026 37.3172 47.293 37.4213 47.278 37.5232C47.2617 37.6244 47.2404 37.7247 47.2154 37.823C47.1904 37.9213 47.1612 38.018 47.1287 38.113C47.0962 38.208 47.0574 38.2985 47.0182 38.3882C46.9378 38.5667 46.849 38.7387 46.7498 38.8935C46.701 38.9718 46.651 39.0467 46.6005 39.1192C46.5501 39.1917 46.4996 39.2617 46.4471 39.3256C46.3437 39.4546 46.242 39.5713 46.1478 39.6733C46.0527 39.7745 45.9627 39.8588 45.8876 39.928C45.8122 39.9977 45.75 40.0509 45.7067 40.0869C45.6637 40.1234 45.6383 40.141 45.6383 40.141Z" fill="#182454"/>
<path d="M52.9503 39.7786C52.9503 39.7786 52.839 39.8977 52.6318 40.0783C52.5288 40.168 52.4037 40.2757 52.2578 40.3908C52.1102 40.5047 51.9426 40.6275 51.7592 40.7524C51.5745 40.8765 51.3698 40.9994 51.1551 41.1198C50.9392 41.239 50.7057 41.3483 50.4668 41.4495C50.2259 41.549 49.9728 41.6325 49.7181 41.7009C49.4613 41.7673 49.1974 41.8123 48.9356 41.8361C48.7008 41.8561 48.4761 41.8484 48.2677 41.8242C48.0588 41.8 47.8654 41.7587 47.6832 41.7013C47.3201 41.5883 47.0158 41.4278 46.7694 41.2648C46.5234 41.1022 46.3358 40.9371 46.2086 40.813C46.0811 40.689 46.0152 40.6062 46.0152 40.6062C46.0152 40.6062 46.0402 40.587 46.0857 40.5518C46.1311 40.5161 46.1982 40.4658 46.2841 40.4056C46.37 40.3441 46.4763 40.2749 46.5964 40.1971C46.716 40.1185 46.8519 40.0345 47.0024 39.9497C47.0779 39.908 47.1558 39.8646 47.2359 39.8199C47.3167 39.7761 47.4005 39.7327 47.4881 39.6901C47.6636 39.6066 47.8458 39.5205 48.0405 39.4448C48.1376 39.4063 48.2385 39.3715 48.3394 39.3367C48.4403 39.3019 48.5437 39.2699 48.6492 39.2408C48.7546 39.2118 48.8626 39.1864 48.9727 39.1643C49.0815 39.1417 49.1915 39.1221 49.3041 39.1073C49.8094 39.0426 50.2838 39.0455 50.7215 39.0946C51.1572 39.1421 51.5487 39.2298 51.8805 39.3309C52.2119 39.4321 52.48 39.5431 52.6639 39.6291C52.8486 39.7159 52.9503 39.7786 52.9503 39.7786Z" fill="#182454"/>
<path d="M48.9848 36.9925C48.9848 36.9925 48.9039 36.9237 48.7826 36.7943C48.6612 36.6657 48.4999 36.4756 48.3365 36.2352C48.1735 35.9957 48.0046 35.702 47.87 35.3719C47.8024 35.2061 47.7441 35.0316 47.6965 34.8481C47.6478 34.6634 47.6115 34.4705 47.5927 34.2711C47.5481 33.8235 47.5673 33.3939 47.6173 32.9987C47.6669 32.6031 47.7478 32.2414 47.832 31.9322C47.8771 31.7795 47.9158 31.6361 47.9584 31.512C47.9792 31.4494 47.9996 31.3912 48.0192 31.3376C48.0388 31.2835 48.0567 31.234 48.0726 31.1889C48.1393 31.0087 48.1889 30.9067 48.1889 30.9067C48.1889 30.9067 48.2864 30.9743 48.4403 31.1025C48.5933 31.2303 48.8026 31.4195 49.0235 31.6664C49.1336 31.7897 49.247 31.9277 49.357 32.0801C49.4659 32.2316 49.5713 32.3971 49.668 32.5768C49.7639 32.7562 49.8544 32.9516 49.9244 33.1572C49.9945 33.3632 50.0499 33.5831 50.0845 33.8161C50.1133 34.0229 50.1183 34.2285 50.107 34.4325C50.102 34.5344 50.0899 34.6339 50.0741 34.7322C50.0587 34.8301 50.0395 34.9276 50.0174 35.023C49.9749 35.2155 49.9123 35.3949 49.8473 35.5673C49.814 35.6529 49.7806 35.7376 49.7431 35.8167C49.706 35.8961 49.6676 35.9723 49.6293 36.046C49.4784 36.3413 49.3124 36.5752 49.1919 36.7398C49.1319 36.8225 49.0781 36.8844 49.0423 36.9269C49.0056 36.9699 48.9848 36.9925 48.9848 36.9925Z" fill="#182454"/>
<path d="M56.1095 35.3248C56.1095 35.3248 56.0186 35.4604 55.8515 35.677C55.8093 35.7307 55.7643 35.7905 55.7118 35.8527C55.6593 35.9154 55.6017 35.9817 55.5405 36.0514C55.4166 36.1898 55.2791 36.3438 55.1177 36.4969C54.8005 36.8074 54.4132 37.1334 53.9758 37.4151C53.5385 37.6965 53.0512 37.9324 52.5417 38.0696C52.3128 38.1306 52.0931 38.165 51.8838 38.1793C51.6737 38.192 51.4728 38.1838 51.2843 38.1613C50.9075 38.1158 50.5802 38.0139 50.3063 37.8963C50.0328 37.7788 49.8173 37.6498 49.6693 37.5507C49.5217 37.4516 49.4417 37.3824 49.4417 37.3824C49.4417 37.3824 49.4617 37.3582 49.5009 37.3164C49.5392 37.2734 49.5984 37.214 49.6705 37.1379C49.8152 36.9863 50.0312 36.7848 50.2909 36.5608C50.3563 36.5051 50.4251 36.4486 50.4977 36.3921C50.5706 36.3356 50.6432 36.2762 50.7207 36.2189C50.8745 36.103 51.0451 35.9907 51.2189 35.8789C51.3069 35.8237 51.3977 35.77 51.4916 35.7184C51.5858 35.6668 51.6825 35.6177 51.7796 35.5697C51.9751 35.4739 52.1832 35.3895 52.4 35.3207C52.6397 35.2421 52.8782 35.1836 53.112 35.1405C53.3459 35.0984 53.5698 35.0681 53.7891 35.0525C54.0079 35.0369 54.2185 35.0337 54.4177 35.0394C54.6154 35.0439 54.8017 35.0578 54.9735 35.0771C55.3166 35.116 55.6013 35.177 55.7993 35.229C55.9974 35.2814 56.1095 35.3248 56.1095 35.3248Z" fill="#182454"/>
<path d="M51.6917 33.298C51.6917 33.298 51.5995 33.2452 51.4565 33.14C51.3127 33.0347 51.118 32.877 50.9121 32.6698C50.7053 32.4622 50.4897 32.207 50.2946 31.906C50.1967 31.7549 50.1049 31.5931 50.0245 31.4211C49.984 31.3355 49.9465 31.2467 49.9123 31.1562C49.8765 31.0644 49.844 30.9698 49.8152 30.8736C49.7506 30.6578 49.7068 30.4448 49.6697 30.2339C49.6343 30.0234 49.6163 29.8194 49.6009 29.6196C49.5876 29.4201 49.588 29.2297 49.588 29.047C49.5897 28.8648 49.603 28.6944 49.6126 28.5339C49.6234 28.3742 49.643 28.2292 49.6589 28.0986C49.6747 27.9679 49.6926 27.8541 49.7101 27.7603C49.7281 27.6665 49.7427 27.5915 49.7527 27.5404C49.7631 27.4896 49.7702 27.4621 49.7702 27.4621C49.7702 27.4621 49.879 27.5109 50.0545 27.6087C50.2292 27.707 50.4731 27.8561 50.7345 28.058C50.9963 28.2599 51.2793 28.5171 51.5395 28.8361C51.6683 28.9954 51.788 29.1691 51.8976 29.3595C51.9522 29.4545 52.0039 29.554 52.0519 29.6572C52.099 29.7605 52.1402 29.8665 52.1782 29.9779C52.4521 30.772 52.3449 31.6226 52.1498 32.2521C52.1023 32.4106 52.0473 32.5539 51.996 32.6821C51.9701 32.746 51.9447 32.8062 51.9205 32.8619C51.8959 32.9168 51.8705 32.9667 51.8476 33.0126C51.7563 33.1944 51.6917 33.298 51.6917 33.298Z" fill="#182454"/>
<path d="M58.3833 30.3719C58.3833 30.3719 58.3678 30.4092 58.337 30.4771C58.3066 30.5455 58.2611 30.6442 58.1969 30.7646C58.1335 30.8859 58.0552 31.03 57.9618 31.1897C57.8684 31.3491 57.7537 31.5223 57.6287 31.7041C57.5044 31.8868 57.3569 32.0735 57.1993 32.2619C57.0429 32.4507 56.8649 32.6354 56.6769 32.8136C56.4914 32.9933 56.2842 33.1604 56.0699 33.314C55.8573 33.468 55.6259 33.6031 55.3887 33.717C54.5361 34.1233 53.7374 34.0798 53.1579 33.9488C52.8686 33.8833 52.6326 33.7952 52.4688 33.7244C52.3053 33.6535 52.2136 33.5995 52.2136 33.5995C52.2136 33.5995 52.2745 33.4909 52.392 33.3177C52.4221 33.2747 52.455 33.2276 52.4904 33.1764C52.5254 33.1248 52.5642 33.0699 52.6059 33.013C52.6893 32.8975 52.7885 32.7726 52.8961 32.6395C53.3317 32.1092 53.94 31.469 54.7354 31.0386C54.8471 30.9788 54.9601 30.9244 55.071 30.8736C55.1815 30.8224 55.292 30.7757 55.402 30.7331C55.6222 30.6479 55.8423 30.5804 56.0536 30.5251C56.4751 30.4137 56.8758 30.358 57.2222 30.3346C57.5686 30.3109 57.8567 30.3187 58.0614 30.3342C58.2657 30.3494 58.3833 30.3719 58.3833 30.3719Z" fill="#182454"/>
<path d="M53.6623 29.1789C53.6623 29.1789 53.5614 29.1437 53.4013 29.0663C53.2408 28.9893 53.0207 28.8693 52.7798 28.703C52.5375 28.5364 52.2736 28.3234 52.0268 28.0629C51.783 27.8033 51.5453 27.4937 51.364 27.1361C51.2618 26.9359 51.1714 26.7328 51.1005 26.5329C51.0659 26.4334 51.0309 26.3335 51 26.2348C50.9692 26.1361 50.9421 26.0378 50.9179 25.9415C50.8183 25.5553 50.7616 25.1896 50.7257 24.8714C50.7107 24.7129 50.6957 24.5655 50.6886 24.434C50.6803 24.303 50.6811 24.1883 50.6769 24.0921C50.6723 23.9 50.6807 23.7874 50.6807 23.7874C50.6807 23.7874 50.7966 23.8156 50.9871 23.8803C51.1772 23.9454 51.4419 24.0474 51.7388 24.1998C51.8868 24.2755 52.0452 24.3648 52.2015 24.4672C52.3587 24.57 52.5179 24.6867 52.6747 24.8202C52.7527 24.8866 52.8302 24.9574 52.9065 25.0324C52.9444 25.07 52.9824 25.1089 53.0195 25.1487C53.0557 25.188 53.0916 25.2285 53.127 25.2703C53.2684 25.4378 53.4009 25.6229 53.5193 25.8277C53.6219 26.0103 53.7024 26.2004 53.767 26.3941C53.7828 26.4424 53.7978 26.4911 53.8112 26.5399C53.8241 26.5882 53.8362 26.6365 53.8466 26.6857C53.8683 26.7827 53.8862 26.8798 53.9008 26.9764C53.9316 27.171 53.9408 27.361 53.9421 27.5445C53.9429 27.6366 53.9412 27.7267 53.9375 27.8139C53.9321 27.9012 53.9241 27.9859 53.915 28.0683C53.8966 28.2317 53.8758 28.3844 53.8466 28.5187C53.8182 28.6535 53.7887 28.7718 53.762 28.8701C53.7349 28.968 53.7115 29.0458 53.6923 29.0982C53.6736 29.1507 53.6623 29.1789 53.6623 29.1789Z" fill="#182454"/>
<path d="M59.6907 25.0958C59.6907 25.0958 59.6569 25.2539 59.5814 25.5148C59.5452 25.6454 59.4905 25.8002 59.4284 25.9739C59.3651 26.1471 59.2921 26.3388 59.1983 26.5394C59.0174 26.9416 58.7756 27.3831 58.4721 27.8012C58.3954 27.9053 58.3149 28.0085 58.2315 28.1088C58.1481 28.2095 58.0623 28.3078 57.9693 28.4024C57.7838 28.5912 57.5887 28.7677 57.3756 28.9217C56.9921 29.1978 56.6073 29.3632 56.2363 29.4537C55.8677 29.5455 55.5229 29.5655 55.2269 29.5536C54.9293 29.5414 54.6804 29.4975 54.5061 29.4574C54.3314 29.4173 54.2314 29.3812 54.2314 29.3812C54.2314 29.3812 54.2418 29.3513 54.2627 29.2981C54.2848 29.2457 54.3139 29.1679 54.3544 29.0716C54.3944 28.9754 54.4457 28.8611 54.5082 28.7338C54.5712 28.606 54.6383 28.463 54.7212 28.3132C54.7621 28.2386 54.8063 28.1612 54.8526 28.083C54.8976 28.0035 54.9455 27.9233 54.9964 27.8422C55.0981 27.6792 55.2144 27.5141 55.3357 27.3483C55.3979 27.2656 55.4629 27.1828 55.5313 27.1017C55.5659 27.0612 55.6009 27.0207 55.6372 26.9801C55.6726 26.9404 55.708 26.8998 55.7451 26.8601C55.8919 26.7016 56.0549 26.5497 56.2321 26.4084C56.4263 26.2499 56.6269 26.1103 56.8291 25.987C56.8795 25.9567 56.93 25.9268 56.9808 25.8985C57.0309 25.8694 57.0805 25.8416 57.1301 25.815C57.2297 25.7609 57.3294 25.7114 57.4282 25.6647C57.6258 25.5725 57.8213 25.4943 58.0089 25.4292C58.1969 25.3641 58.3737 25.3104 58.5417 25.2678C58.8756 25.1818 59.1629 25.1376 59.3667 25.1163C59.5706 25.095 59.6907 25.0958 59.6907 25.0958Z" fill="#182454"/>
<path d="M54.8276 24.7739C54.8276 24.7739 54.7225 24.7575 54.5495 24.71C54.3773 24.6629 54.1376 24.5851 53.8691 24.4647C53.6002 24.3447 53.3021 24.183 53.0128 23.9716C52.8665 23.8652 52.7206 23.7468 52.5817 23.6145C52.5125 23.5486 52.4446 23.4794 52.3791 23.4069C52.3462 23.3704 52.3141 23.3332 52.2824 23.2951C52.2499 23.2566 52.2178 23.2177 52.1865 23.1776C52.0456 22.9986 51.9255 22.8147 51.8167 22.6308C51.705 22.4461 51.6108 22.2614 51.5278 22.0792C51.4399 21.8973 51.3661 21.7192 51.3039 21.5476C51.2885 21.5046 51.2735 21.4624 51.2593 21.4202C51.2527 21.3989 51.2456 21.3785 51.2389 21.3576C51.2314 21.3371 51.2239 21.3162 51.2168 21.2957C51.188 21.2142 51.1618 21.1348 51.1384 21.0578C51.0917 20.9042 51.0546 20.7617 51.0255 20.6335C50.9913 20.5057 50.9654 20.3927 50.9467 20.2985C50.9087 20.1105 50.8975 19.9979 50.8975 19.9979C50.8975 19.9979 51.0163 20.0053 51.2151 20.0356C51.414 20.0655 51.6925 20.1191 52.0114 20.2162C52.3299 20.3132 52.691 20.4537 53.0495 20.6605C53.2258 20.7642 53.4022 20.8841 53.5731 21.023C53.6586 21.093 53.7428 21.1675 53.8253 21.247C53.8662 21.2871 53.907 21.3281 53.9471 21.3707C53.9879 21.4133 54.0267 21.4567 54.0634 21.5017C54.1968 21.6635 54.3114 21.8363 54.4098 22.0153C54.4594 22.105 54.5045 22.1963 54.5461 22.2876C54.5849 22.3798 54.6195 22.4719 54.6512 22.5649C54.7813 22.9359 54.8405 23.3074 54.8701 23.6358C54.8922 23.9643 54.888 24.2501 54.8672 24.452C54.8492 24.6543 54.8276 24.7739 54.8276 24.7739Z" fill="#182454"/>
<path d="M60 19.6863C60 19.6863 59.9946 19.848 59.9662 20.1179C59.9521 20.2531 59.9325 20.4148 59.9049 20.5962C59.872 20.7777 59.8303 20.9788 59.7786 21.1921C59.7528 21.299 59.7244 21.4092 59.6927 21.521C59.6848 21.5492 59.6769 21.5771 59.669 21.6053C59.6598 21.6336 59.6506 21.6619 59.641 21.6901C59.6223 21.747 59.6031 21.8044 59.5827 21.8617C59.5014 22.0923 59.4076 22.3274 59.3 22.5592C59.1879 22.7914 59.0591 23.0199 58.9169 23.2386C58.7718 23.4565 58.6071 23.6641 58.4291 23.8537C58.3891 23.8967 58.3491 23.9377 58.3082 23.9762C58.2661 24.0155 58.2244 24.0531 58.1823 24.0888C58.0977 24.1609 58.0127 24.2264 57.9268 24.2858C57.755 24.4054 57.582 24.5024 57.4102 24.5806C57.0638 24.7363 56.7278 24.8182 56.4334 24.8603C56.1395 24.9017 55.8873 24.9033 55.7089 24.8952C55.53 24.8874 55.425 24.8698 55.425 24.8698C55.425 24.8698 55.4417 24.7465 55.4867 24.5434C55.5354 24.3406 55.5997 24.0564 55.708 23.7325C55.8089 23.4077 55.9511 23.0428 56.1312 22.6734C56.1771 22.5813 56.2267 22.4883 56.2796 22.3966C56.3296 22.304 56.3838 22.2123 56.4418 22.1209C56.5573 21.9391 56.689 21.7606 56.8383 21.5902C56.8799 21.5435 56.9212 21.4972 56.9625 21.4509C57.0038 21.4055 57.0454 21.3613 57.088 21.3178C57.1722 21.2314 57.2585 21.1491 57.346 21.0709C57.5211 20.914 57.7008 20.7732 57.8801 20.6474C58.2336 20.3956 58.5842 20.2027 58.8986 20.0593C59.2125 19.9156 59.4876 19.8214 59.6844 19.7641C59.8816 19.7067 60 19.6863 60 19.6863Z" fill="#182454"/>
<path d="M55.1544 20.233C55.1544 20.233 55.0477 20.2354 54.8692 20.2191C54.6912 20.2035 54.4415 20.1691 54.1559 20.0991C54.0129 20.0638 53.8612 20.0192 53.7049 19.9643C53.5481 19.9094 53.3888 19.8435 53.2233 19.7653C52.8948 19.6088 52.5642 19.4024 52.2666 19.1321C51.5845 18.5277 51.1447 17.8102 50.8458 17.2417C50.8278 17.2061 50.8103 17.1709 50.7932 17.1365C50.7757 17.1025 50.7582 17.0689 50.7416 17.0361C50.7082 16.9702 50.6782 16.9075 50.6507 16.8473C50.5956 16.7278 50.5514 16.6213 50.5173 16.5324C50.4814 16.4435 50.4522 16.3727 50.4343 16.3239C50.4164 16.2748 50.4076 16.2478 50.4076 16.2478C50.4076 16.2478 50.5264 16.233 50.7278 16.2265C50.9296 16.2203 51.2147 16.2224 51.5482 16.2596C51.8805 16.2965 52.2557 16.3706 52.6459 16.5095C52.8398 16.5791 53.0399 16.6643 53.2342 16.7708C53.4259 16.8768 53.6161 17.0034 53.7999 17.1533C53.882 17.2204 53.96 17.2913 54.0346 17.365C54.1088 17.4383 54.1743 17.5157 54.2385 17.5952C54.3661 17.7536 54.4786 17.9211 54.5778 18.0919C54.6754 18.2627 54.7517 18.4372 54.8209 18.6079C54.8884 18.7791 54.9489 18.9466 54.9876 19.1063C55.0289 19.2652 55.061 19.416 55.0864 19.5515C55.0985 19.6195 55.1094 19.6834 55.1185 19.7432C55.1277 19.803 55.1315 19.8587 55.1365 19.9094C55.1544 20.1113 55.1544 20.233 55.1544 20.233Z" fill="#182454"/>
<path d="M59.2971 14.2988C59.2971 14.2988 59.3038 14.3389 59.3142 14.413C59.3238 14.4864 59.3388 14.5941 59.35 14.7292C59.3596 14.8652 59.3684 15.0286 59.3726 15.2129C59.3746 15.305 59.3759 15.4025 59.3755 15.5045C59.3746 15.5552 59.3742 15.6068 59.3734 15.6601C59.3721 15.7133 59.3684 15.767 59.3655 15.8223C59.3225 16.7015 59.0957 17.813 58.5313 18.6878C58.2715 19.0797 57.968 19.3697 57.6604 19.5843C57.5078 19.6912 57.3485 19.7804 57.1955 19.8537C57.0417 19.9275 56.892 19.9856 56.7511 20.0323C56.4685 20.1257 56.2208 20.172 56.0432 20.1961C55.866 20.2195 55.7593 20.2211 55.7593 20.2211C55.7593 20.2211 55.7539 20.097 55.7631 19.889C55.7647 19.837 55.7697 19.7796 55.7718 19.7182C55.7739 19.6559 55.7772 19.5896 55.7818 19.5192C55.7914 19.3783 55.8064 19.221 55.8298 19.0523C55.8552 18.8831 55.8773 18.7029 55.9136 18.5154C55.9486 18.3278 55.9982 18.1325 56.0532 17.9347C56.1066 17.7369 56.1729 17.5362 56.2558 17.3355C56.2963 17.2356 56.3438 17.1352 56.3905 17.0365C56.4372 16.9378 56.4885 16.84 56.5443 16.7429C56.6694 16.5263 56.807 16.3252 56.9521 16.1392C57.0946 15.9533 57.241 15.7834 57.3923 15.6277C57.6933 15.3161 58.0085 15.0618 58.2895 14.8639C58.5688 14.6665 58.8206 14.524 59.0028 14.4327C59.1845 14.3406 59.2971 14.2988 59.2971 14.2988Z" fill="#182454"/>
<path d="M54.6408 15.7096C54.6408 15.7096 54.5366 15.7309 54.3585 15.7477C54.1814 15.7641 53.9287 15.7752 53.6331 15.758C53.338 15.7408 52.9999 15.6949 52.6509 15.5995C52.4763 15.552 52.2991 15.4922 52.1236 15.4176C51.9435 15.3443 51.765 15.2559 51.5908 15.151C51.2076 14.9135 50.8604 14.642 50.5781 14.3618C50.28 14.0862 50.047 13.8012 49.8415 13.5506C49.741 13.4248 49.6572 13.304 49.5801 13.1967C49.5017 13.0894 49.4362 12.9936 49.3846 12.9129C49.3329 12.8314 49.2941 12.7659 49.2682 12.7208C49.2424 12.6754 49.2286 12.6504 49.2286 12.6504C49.2286 12.6504 49.3433 12.6144 49.5392 12.5722C49.7356 12.5296 50.0149 12.4808 50.3472 12.4575C50.6799 12.435 51.0659 12.4382 51.4778 12.5034C51.6817 12.5365 51.8889 12.5865 52.0998 12.6553C52.3095 12.7249 52.5246 12.813 52.7327 12.9276C52.9161 13.0308 53.0866 13.1513 53.2442 13.2831C53.3226 13.3495 53.3993 13.4179 53.4701 13.4895C53.5393 13.5616 53.6056 13.6353 53.6686 13.7107C53.7945 13.8614 53.91 14.017 54.0096 14.1726C54.1055 14.3291 54.1897 14.4847 54.2627 14.633C54.2994 14.7071 54.3331 14.7796 54.3648 14.8496C54.3952 14.9196 54.4198 14.988 54.4444 15.0523C54.492 15.1821 54.5299 15.298 54.5591 15.3951C54.5887 15.4926 54.6095 15.5712 54.6229 15.6253C54.6299 15.6523 54.6345 15.6732 54.6366 15.6875C54.6395 15.7019 54.6408 15.7096 54.6408 15.7096Z" fill="#182454"/>
<path d="M57.6012 9.12714C57.6012 9.12714 57.6045 9.13697 57.6112 9.1554C57.6174 9.17383 57.6262 9.20127 57.6379 9.23649C57.6604 9.30775 57.6921 9.41177 57.7283 9.54282C57.7646 9.67387 57.8055 9.83237 57.8459 10.0122C57.8859 10.1915 57.9184 10.3955 57.9493 10.6134C58.0147 11.0475 58.0343 11.5516 58.0056 12.0623C57.9614 12.5771 57.8684 13.0984 57.665 13.5821C57.5766 13.7979 57.4724 13.9904 57.3581 14.162C57.2397 14.3348 57.1109 14.4868 56.9788 14.6207C56.7132 14.8881 56.4305 15.0826 56.1721 15.2247C55.9132 15.3673 55.6793 15.4574 55.5084 15.5126C55.3383 15.5683 55.2336 15.5888 55.2336 15.5888C55.2336 15.5888 55.232 15.581 55.229 15.5667C55.2261 15.552 55.2219 15.5303 55.2157 15.5024C55.204 15.4467 55.1878 15.3652 55.1711 15.2624C55.1544 15.16 55.1369 15.0359 55.1223 14.8951C55.1144 14.825 55.1094 14.7497 55.1015 14.6719C55.0931 14.5941 55.086 14.5126 55.0802 14.4278C55.0689 14.2582 55.0631 14.076 55.066 13.8839C55.066 13.6931 55.0702 13.4945 55.0894 13.2893C55.099 13.1869 55.1115 13.0829 55.1273 12.978C55.1419 12.8736 55.1569 12.7687 55.1782 12.6631C55.219 12.4526 55.2761 12.2392 55.3529 12.0275C55.4362 11.7916 55.5292 11.5704 55.6355 11.362C55.741 11.1539 55.8581 10.9582 55.9782 10.7776C56.2133 10.4176 56.4714 10.1125 56.7115 9.86677C56.9516 9.62145 57.1734 9.43512 57.3365 9.31226C57.499 9.18817 57.6012 9.12714 57.6012 9.12714Z" fill="#182454"/>
<path d="M53.2838 11.3579C53.2838 11.3579 53.185 11.398 53.0132 11.4468C52.841 11.4951 52.5959 11.5512 52.3041 11.5868C52.0118 11.6229 51.675 11.6368 51.3102 11.6085C51.1288 11.5938 50.9425 11.5676 50.7541 11.5266C50.5648 11.4861 50.3797 11.4287 50.1846 11.3583C49.3345 11.0327 48.6483 10.5257 48.1651 10.0982C48.0417 9.99291 47.9325 9.89134 47.8383 9.79838C47.7912 9.7521 47.7486 9.70705 47.7078 9.66609C47.6665 9.62514 47.6286 9.58747 47.5952 9.55266C47.461 9.41341 47.3905 9.32413 47.3905 9.32413C47.3905 9.32413 47.4956 9.26843 47.6811 9.19144C47.8666 9.11404 48.1322 9.01575 48.4561 8.93303C48.78 8.8503 49.164 8.78231 49.5747 8.77576C49.7806 8.77207 49.9961 8.78272 50.2171 8.81221C50.3272 8.82695 50.4414 8.84539 50.5519 8.87201C50.6628 8.89822 50.7745 8.92975 50.887 8.96784C51.0884 9.03541 51.2814 9.12141 51.4607 9.22298C51.637 9.32618 51.8026 9.44331 51.9568 9.56781C52.0331 9.63006 52.1094 9.69272 52.1778 9.75947C52.2465 9.82622 52.3124 9.8938 52.3754 9.96137C52.5004 10.0973 52.6155 10.2337 52.7151 10.366C52.9077 10.6347 53.0549 10.8816 53.1491 11.0618C53.2396 11.244 53.2838 11.3579 53.2838 11.3579Z" fill="#182454"/>
<path d="M54.966 4.35685C54.966 4.35685 55.0489 4.49691 55.1707 4.74059C55.2011 4.8012 55.234 4.86837 55.2686 4.94167C55.3028 5.01498 55.3362 5.09565 55.3716 5.18084C55.4421 5.35162 55.5158 5.54369 55.5876 5.75133C55.8652 6.58801 56.0745 7.69827 55.8615 8.71883C55.8189 8.9449 55.746 9.15622 55.6643 9.34625C55.5813 9.53668 55.485 9.70869 55.3808 9.86349C55.174 10.1727 54.928 10.4168 54.6992 10.6039C54.4703 10.7911 54.256 10.9226 54.0992 11.0077C53.9425 11.0929 53.8437 11.1322 53.8437 11.1322C53.8437 11.1322 53.7932 11.0184 53.7257 10.8206C53.6544 10.6252 53.5594 10.3488 53.4801 10.0167C53.4372 9.85203 53.3938 9.6751 53.3597 9.48671C53.3426 9.39293 53.3267 9.29628 53.3138 9.19676C53.3005 9.09807 53.2846 8.99896 53.2742 8.89699C53.2525 8.69304 53.2417 8.4813 53.2463 8.26466C53.2471 8.05006 53.2604 7.83178 53.2955 7.61063C53.3146 7.48736 53.338 7.36613 53.3655 7.24778C53.3934 7.12942 53.4197 7.01598 53.4522 6.90417C53.516 6.68139 53.5927 6.46925 53.6769 6.2698C53.8478 5.86968 54.0413 5.52608 54.2306 5.24186C54.4198 4.95846 54.6033 4.73608 54.7396 4.58578C54.8763 4.43507 54.966 4.35685 54.966 4.35685Z" fill="#182454"/>
<path d="M51.1393 7.32314C51.1393 7.32314 51.0496 7.38047 50.8895 7.45911C50.7295 7.53815 50.4985 7.63766 50.2171 7.72571C49.9361 7.81335 49.6047 7.88994 49.2457 7.92352C48.8855 7.95833 48.4899 7.95587 48.0918 7.8797C47.1888 7.71629 46.4304 7.33092 45.8701 7.00124C45.8359 6.97994 45.8026 6.95906 45.7692 6.93858C45.7359 6.91851 45.7034 6.89845 45.6713 6.8792C45.6079 6.84029 45.5483 6.8022 45.4928 6.76494C45.3819 6.69122 45.2873 6.62283 45.2102 6.56467C45.0517 6.45205 44.9646 6.37875 44.9646 6.37875C44.9646 6.37875 45.0576 6.30502 45.226 6.19527C45.3944 6.08674 45.6383 5.94136 45.9422 5.80129C46.2457 5.66205 46.6043 5.53182 47.0107 5.44909C47.2134 5.40814 47.4293 5.37783 47.6511 5.36842C47.8716 5.36022 48.1013 5.37006 48.3381 5.40282C48.4436 5.41715 48.5483 5.43722 48.6512 5.46138C48.7517 5.48759 48.8505 5.51831 48.9472 5.55271C49.1407 5.62192 49.327 5.70587 49.5025 5.79966C49.6739 5.89713 49.8352 6.00361 49.9857 6.11336C50.0603 6.16865 50.1333 6.22394 50.2013 6.28005C50.2684 6.33779 50.3322 6.39553 50.3926 6.45205C50.5139 6.5659 50.6227 6.67647 50.717 6.77845C50.7649 6.82923 50.8062 6.87961 50.8445 6.92671C50.8829 6.9738 50.9179 7.01803 50.9488 7.05858C51.0734 7.22034 51.1393 7.32314 51.1393 7.32314Z" fill="#182454"/>
<path d="M51.4936 0.140259C51.4936 0.140259 51.6025 0.261892 51.7684 0.478537C51.8484 0.589522 51.9431 0.72385 52.0448 0.878246C52.0956 0.955239 52.1486 1.03755 52.2024 1.12437C52.229 1.16778 52.2561 1.21201 52.2837 1.25747C52.3103 1.30375 52.3366 1.35126 52.3633 1.39959C52.7964 2.16788 53.1967 3.23022 53.1825 4.26676C53.1716 4.73404 53.0724 5.13416 52.9232 5.47735C52.7723 5.82177 52.5784 6.10435 52.3891 6.32877C52.1994 6.5532 52.0135 6.72111 51.8755 6.83251C51.7375 6.94431 51.6479 7.00082 51.6479 7.00082C51.6479 7.00082 51.5758 6.89844 51.4711 6.71783C51.4449 6.67237 51.4165 6.62241 51.3869 6.56754C51.3569 6.51307 51.3265 6.45327 51.2919 6.39184C51.2235 6.26734 51.1514 6.12605 51.0801 5.97125C51.0442 5.89384 51.0088 5.81276 50.9738 5.72839C50.9379 5.64485 50.9008 5.55966 50.8658 5.47038C50.7953 5.29264 50.7295 5.10344 50.674 4.9044C50.6136 4.70823 50.5619 4.50346 50.5252 4.29091C50.5064 4.18484 50.4914 4.07632 50.4806 3.96656C50.4672 3.85845 50.4581 3.74869 50.4543 3.63729C50.4447 3.3887 50.4547 3.14708 50.4785 2.91405C50.5014 2.68226 50.5348 2.46233 50.5806 2.25142C50.6707 1.83164 50.8037 1.45241 50.9367 1.14035C51.0692 0.828278 51.2081 0.577644 51.3144 0.405638C51.4203 0.233633 51.4936 0.140259 51.4936 0.140259Z" fill="#182454"/>
<path d="M43.9916 0.00060622C43.9916 0.00060622 44.1212 -0.00349035 44.3459 0.00961484C44.4585 0.0157579 44.5948 0.0272305 44.7507 0.0460693C44.8283 0.0554886 44.9121 0.0653115 44.9975 0.0808739C45.0834 0.0960268 45.1735 0.113639 45.2673 0.134116C45.4545 0.17507 45.6579 0.225037 45.8693 0.291382C46.0777 0.361003 46.2962 0.443725 46.5192 0.542833C46.5747 0.567815 46.6314 0.592393 46.6864 0.620241C46.7414 0.6485 46.7965 0.677572 46.8519 0.707878C46.9624 0.767671 47.0737 0.832376 47.1842 0.901178C47.4076 1.03592 47.619 1.20056 47.8262 1.37953C47.9179 1.4602 48.0071 1.54087 48.0876 1.62688C48.168 1.7137 48.2439 1.80217 48.3156 1.89104C48.4578 2.06919 48.5862 2.24774 48.6883 2.43285C48.793 2.61633 48.8818 2.79734 48.9564 2.97139C49.0302 3.14626 49.0848 3.31868 49.1311 3.47717C49.1769 3.63526 49.212 3.78228 49.2378 3.91333C49.2616 4.04643 49.2766 4.16355 49.2866 4.26102C49.3066 4.45433 49.3058 4.56818 49.3058 4.56818C49.3058 4.56818 49.1903 4.55303 49.0002 4.51085C48.9051 4.48955 48.7913 4.46211 48.6637 4.42607C48.5337 4.39249 48.3898 4.35153 48.2368 4.30075C48.0834 4.25079 47.9233 4.18936 47.7553 4.12015C47.5856 4.05257 47.4114 3.97394 47.2375 3.88261C47.0658 3.78883 46.8857 3.69013 46.7114 3.57382C46.6243 3.51567 46.538 3.45382 46.4534 3.38748C46.4112 3.3539 46.3683 3.32032 46.3254 3.28673C46.2824 3.25274 46.2403 3.21753 46.1982 3.18108C45.8268 2.8514 45.5078 2.49673 45.2381 2.1388C45.1005 1.9627 44.9767 1.78496 44.865 1.6105C44.7512 1.43808 44.6461 1.27345 44.5548 1.11455C44.4631 0.955645 44.3839 0.804936 44.3113 0.674293C44.24 0.541603 44.1809 0.422844 44.1333 0.322507C44.0387 0.123062 43.9916 0.00060622 43.9916 0.00060622Z" fill="#182454"/>
<path d="M35.3347 29.1787H33.5637V23.1123H26.8286V29.1787H25.0668V16.0544H26.8286V21.6971H33.5637V16.0544H35.3347V29.1787Z" fill="#182454"/>
<path d="M8.04263 59.8948H7.07175V56.5691H3.37937V59.8948H2.41352V52.6997H3.37937V55.7932H7.07175V52.6997H8.04263V59.8948Z" fill="#182454"/>
<path d="M10.6233 59.8948H9.69263V54.5479H10.6233V59.8948ZM9.61717 53.1297C9.61717 52.9814 9.66245 52.8562 9.753 52.7541C9.8469 52.652 9.9844 52.6009 10.1655 52.6009C10.3466 52.6009 10.4841 52.652 10.578 52.7541C10.6719 52.8562 10.7188 52.9814 10.7188 53.1297C10.7188 53.2779 10.6719 53.4015 10.578 53.5003C10.4841 53.5991 10.3466 53.6486 10.1655 53.6486C9.9844 53.6486 9.8469 53.5991 9.753 53.5003C9.66245 53.4015 9.61717 53.2779 9.61717 53.1297Z" fill="#182454"/>
<path d="M11.896 57.1769C11.896 56.3434 12.0922 55.6812 12.4846 55.1904C12.8769 54.6962 13.3967 54.4491 14.044 54.4491C14.708 54.4491 15.2262 54.6797 15.5984 55.1409L15.6437 54.5479H16.4938V59.7664C16.4938 60.4582 16.2842 61.0034 15.865 61.4021C15.4492 61.8007 14.8891 62 14.1849 62C13.7925 62 13.4085 61.9176 13.0329 61.7529C12.6573 61.5882 12.3705 61.3625 12.1727 61.0759L12.6556 60.5274C13.0547 61.0117 13.5426 61.2538 14.1195 61.2538C14.5722 61.2538 14.9243 61.1286 15.1759 60.8782C15.4307 60.6279 15.5582 60.2754 15.5582 59.8207V59.3611C15.1859 59.7828 14.6778 59.9937 14.0339 59.9937C13.3967 59.9937 12.8803 59.7416 12.4846 59.2376C12.0922 58.7335 11.896 58.0467 11.896 57.1769ZM12.8317 57.2807C12.8317 57.8836 12.9574 58.358 13.2089 58.7039C13.4605 59.0465 13.8126 59.2178 14.2653 59.2178C14.8522 59.2178 15.2832 58.9559 15.5582 58.4321V55.9909C15.2731 55.4803 14.8455 55.225 14.2754 55.225C13.8227 55.225 13.4688 55.3979 13.214 55.7438C12.9591 56.0897 12.8317 56.602 12.8317 57.2807Z" fill="#182454"/>
<path d="M18.833 55.1953C19.2455 54.6978 19.7821 54.4491 20.4428 54.4491C21.5931 54.4491 22.1733 55.0866 22.1833 56.3615V59.8948H21.2527V56.3566C21.2493 55.9711 21.1588 55.6862 20.981 55.5017C20.8067 55.3172 20.5333 55.225 20.1611 55.225C19.8592 55.225 19.5943 55.304 19.3663 55.4622C19.1382 55.6203 18.9605 55.8278 18.833 56.0848V59.8948H17.9024V52.3044H18.833V55.1953Z" fill="#182454"/>
<path d="M30.4182 56.5691H27.244V59.119H30.9313V59.8948H26.2781V52.6997H30.881V53.4805H27.244V55.7932H30.4182V56.5691Z" fill="#182454"/>
<path d="M32.8681 54.5479L32.8983 55.22C33.3141 54.7061 33.8574 54.4491 34.5281 54.4491C35.6784 54.4491 36.2586 55.0866 36.2687 56.3615V59.8948H35.3381V56.3566C35.3347 55.9711 35.2441 55.6862 35.0664 55.5017C34.892 55.3172 34.6187 55.225 34.2464 55.225C33.9446 55.225 33.6797 55.304 33.4516 55.4622C33.2236 55.6203 33.0458 55.8278 32.9184 56.0848V59.8948H31.9877V54.5479H32.8681Z" fill="#182454"/>
<path d="M37.4509 57.1769C37.4509 56.3434 37.647 55.6812 38.0394 55.1904C38.4318 54.6962 38.9516 54.4491 39.5989 54.4491C40.2629 54.4491 40.781 54.6797 41.1533 55.1409L41.1986 54.5479H42.0487V59.7664C42.0487 60.4582 41.8391 61.0034 41.4199 61.4021C41.0041 61.8007 40.444 62 39.7397 62C39.3473 62 38.9634 61.9176 38.5877 61.7529C38.2121 61.5882 37.9254 61.3625 37.7275 61.0759L38.2105 60.5274C38.6095 61.0117 39.0975 61.2538 39.6743 61.2538C40.1271 61.2538 40.4792 61.1286 40.7307 60.8782C40.9856 60.6279 41.113 60.2754 41.113 59.8207V59.3611C40.7408 59.7828 40.2327 59.9937 39.5888 59.9937C38.9516 59.9937 38.4352 59.7416 38.0394 59.2376C37.647 58.7335 37.4509 58.0467 37.4509 57.1769ZM38.3865 57.2807C38.3865 57.8836 38.5123 58.358 38.7638 58.7039C39.0153 59.0465 39.3675 59.2178 39.8202 59.2178C40.4071 59.2178 40.838 58.9559 41.113 58.4321V55.9909C40.828 55.4803 40.4004 55.225 39.8303 55.225C39.3775 55.225 39.0237 55.3979 38.7688 55.7438C38.514 56.0897 38.3865 56.602 38.3865 57.2807Z" fill="#182454"/>
<path d="M44.4684 59.8948H43.5377V52.3044H44.4684V59.8948Z" fill="#182454"/>
<path d="M46.9736 59.8948H46.0429V54.5479H46.9736V59.8948ZM45.9675 53.1297C45.9675 52.9814 46.0127 52.8562 46.1033 52.7541C46.1972 52.652 46.3347 52.6009 46.5158 52.6009C46.6969 52.6009 46.8344 52.652 46.9283 52.7541C47.0222 52.8562 47.0691 52.9814 47.0691 53.1297C47.0691 53.2779 47.0222 53.4015 46.9283 53.5003C46.8344 53.5991 46.6969 53.6486 46.5158 53.6486C46.3347 53.6486 46.1972 53.5991 46.1033 53.5003C46.0127 53.4015 45.9675 53.2779 45.9675 53.1297Z" fill="#182454"/>
<path d="M51.6368 58.4766C51.6368 58.2295 51.5412 58.0384 51.3501 57.9033C51.1623 57.765 50.832 57.6464 50.3591 57.5475C49.8896 57.4487 49.5156 57.3301 49.2373 57.1917C48.9623 57.0534 48.7577 56.8886 48.6236 56.6976C48.4928 56.5065 48.4274 56.2792 48.4274 56.0156C48.4274 55.5775 48.6152 55.2068 48.9908 54.9037C49.3698 54.6006 49.8527 54.4491 50.4396 54.4491C51.0566 54.4491 51.5563 54.6056 51.9387 54.9186C52.3243 55.2315 52.5172 55.6318 52.5172 56.1194H51.5815C51.5815 55.869 51.4725 55.6532 51.2545 55.472C51.0399 55.2908 50.7682 55.2002 50.4396 55.2002C50.1009 55.2002 49.8359 55.2727 49.6448 55.4177C49.4536 55.5626 49.358 55.7521 49.358 55.986C49.358 56.2067 49.4469 56.3731 49.6246 56.4851C49.8024 56.5971 50.1227 56.7042 50.5855 56.8063C51.0516 56.9084 51.4289 57.0303 51.7173 57.172C52.0057 57.3136 52.2187 57.4849 52.3562 57.6859C52.497 57.8836 52.5675 58.1257 52.5675 58.4123C52.5675 58.89 52.373 59.2738 51.9839 59.5638C51.5949 59.8504 51.0902 59.9937 50.4698 59.9937C50.0338 59.9937 49.6481 59.9179 49.3127 59.7664C48.9774 59.6148 48.7141 59.404 48.523 59.1338C48.3351 58.8604 48.2412 58.5655 48.2412 58.2493H49.1719C49.1887 58.5556 49.3127 58.7994 49.5441 58.9806C49.7789 59.1585 50.0874 59.2475 50.4698 59.2475C50.8219 59.2475 51.1036 59.1783 51.3149 59.0399C51.5295 58.8983 51.6368 58.7105 51.6368 58.4766Z" fill="#182454"/>
<path d="M54.7105 55.1953C55.123 54.6978 55.6595 54.4491 56.3202 54.4491C57.4705 54.4491 58.0507 55.0866 58.0608 56.3615V59.8948H57.1301V56.3566C57.1268 55.9711 57.0362 55.6862 56.8585 55.5017C56.6841 55.3172 56.4108 55.225 56.0385 55.225C55.7367 55.225 55.4717 55.304 55.2437 55.4622C55.0156 55.6203 54.8379 55.8278 54.7105 56.0848V59.8948H53.7798V52.3044H54.7105V55.1953Z" fill="#182454"/>
<path d="M31.0453 44.4665C30.4729 43.996 30.0001 42.6375 30.0001 42.6375C30.0001 42.6375 29.5273 43.996 28.9545 44.4665C28.3821 44.9367 25.3692 45.6829 25.3692 45.6829C25.3692 45.6829 28.3821 46.4294 28.9545 46.9C29.5273 47.3702 30.0001 48.729 30.0001 48.729C30.0001 48.729 30.4729 47.3702 31.0453 46.9C31.6177 46.4294 34.631 45.6829 34.631 45.6829C34.631 45.6829 31.6177 44.9367 31.0453 44.4665Z" fill="#182454"/>
</svg>
