<svg width="19" height="20" viewBox="0 0 19 20" fill="none" xmlns="http://www.w3.org/2000/svg">
<path d="M0.745405 16.3216C1.22202 15.1989 1.91367 14.1792 2.78183 13.3191C3.64735 12.4566 4.67264 11.7689 5.80109 11.294C5.81119 11.2889 5.8213 11.2864 5.83141 11.2814C4.25735 10.1508 3.23409 8.30904 3.23409 6.23116C3.23409 2.78894 6.03859 0 9.5 0C12.9614 0 15.7659 2.78894 15.7659 6.23116C15.7659 8.30904 14.7427 10.1508 13.1686 11.2839C13.1787 11.2889 13.1888 11.2915 13.1989 11.2965C14.3308 11.7714 15.3465 12.4523 16.2182 13.3216C17.0855 14.1823 17.7771 15.2019 18.2546 16.3241C18.7237 17.4227 18.9767 18.6006 18.9999 19.794C19.0006 19.8208 18.9959 19.8475 18.986 19.8724C18.9762 19.8974 18.9614 19.9202 18.9426 19.9394C18.9237 19.9586 18.9012 19.9738 18.8763 19.9842C18.8515 19.9946 18.8248 20 18.7978 20H17.2819C17.1707 20 17.0823 19.9121 17.0797 19.804C17.0292 17.8643 16.246 16.0477 14.8614 14.6709C13.4288 13.2462 11.5263 12.4623 9.5 12.4623C7.47368 12.4623 5.57117 13.2462 4.1386 14.6709C2.75403 16.0477 1.97079 17.8643 1.92026 19.804C1.91774 19.9146 1.82931 20 1.71814 20H0.20219C0.175217 20 0.148512 19.9946 0.123653 19.9842C0.0987949 19.9738 0.0762844 19.9586 0.0574474 19.9394C0.0386124 19.9202 0.0238304 19.8974 0.0139751 19.8724C0.00411987 19.8475 -0.000610352 19.8208 6.29425e-05 19.794C0.0253296 18.593 0.275461 17.4246 0.745405 16.3216ZM9.5 10.5528C10.6597 10.5528 11.7512 10.103 12.5723 9.28643C13.3935 8.46985 13.8457 7.38442 13.8457 6.23116C13.8457 5.07789 13.3935 3.99246 12.5723 3.17588C11.7512 2.3593 10.6597 1.90955 9.5 1.90955C8.3403 1.90955 7.24882 2.3593 6.42768 3.17588C5.60654 3.99246 5.15428 5.07789 5.15428 6.23116C5.15428 7.38442 5.60654 8.46985 6.42768 9.28643C7.24882 10.103 8.3403 10.5528 9.5 10.5528Z" fill="#FAFAFA"/>
</svg>
