<svg width="342" height="301" fill="none" xmlns="http://www.w3.org/2000/svg"><path d="M342 74.5a74.5 74.5 0 11-149 0 74.5 74.5 0 01149 0z" fill="#fff"/><path d="M328.05 74.5c0 3.8-.34 7.52-1.03 11.12a48.5 48.5 0 01-1.08 4.74 60.4 60.4 0 01-13.56 24.8 61.4 61.4 0 01-3.32 3.39 59 59 0 01-3.03 2.65 56.34 56.34 0 01-3.81 2.9 59.68 59.68 0 01-24.17 10.02 63.9 63.9 0 01-4.74.66 64.14 64.14 0 01-5.8.27 61.31 61.31 0 01-9.39-.72 58.3 58.3 0 01-4.74-.95 60.22 60.22 0 01-21.47-9.9 62.94 62.94 0 01-3.77-2.98 56.2 56.2 0 01-2.96-2.71 60.31 60.31 0 01-3.27-3.45 60.44 60.44 0 01-12.83-23.98 49.09 49.09 0 01-1.09-4.74 59.56 59.56 0 01-1.02-11.11 56.82 56.82 0 01.64-8.82 60.18 60.18 0 0110.5-26.2c.92-1.28 1.89-2.55 2.93-3.77a57.6 57.6 0 012.7-3.03 62.61 62.61 0 013.39-3.3 60.2 60.2 0 0126.25-13.75 55.27 55.27 0 014.74-.95 61.3 61.3 0 019.39-.72c1.95 0 3.9.1 5.8.27a60.21 60.21 0 0134.29 14.92 70.2 70.2 0 013.44 3.26c.93.97 1.84 1.98 2.7 3.02a62.42 62.42 0 012.95 3.76 60.2 60.2 0 0110.71 26.49 62.8 62.8 0 01.65 8.82z" fill="#2F5EB4"/><path d="M283.06 85.62l-6.49-6.52c2.8-2.77 5.7-5.65 8.71-8.67a1047.21 1047.21 0 014.78-4.74c8.02-8 16.88-16.8 26.63-26.5a62 62 0 00-2.94-3.75 58.42 58.42 0 00-2.71-3.02 70.2 70.2 0 00-3.44-3.26l-29.55 29.4-4.74 4.72-6.26 6.22-8.93-8.97a1172.83 1172.83 0 01-4.74-4.78l-26.25-26.36a62.65 62.65 0 00-3.4 3.3c-.92.99-1.83 1.99-2.69 3.03a55.43 55.43 0 00-2.94 3.78c8.2 8.21 17.07 17.14 26.08 26.19a930 930 0 014.7 4.74c2.87 2.86 5.73 5.75 8.58 8.61l-6.62 6.58-4.78 4.74a17700.59 17700.59 0 01-24.15 23.98 60.31 60.31 0 003.27 3.45 56.2 56.2 0 002.96 2.71 62.63 62.63 0 003.77 2.98c5.58-5.52 12.6-12.5 21.47-21.32a949.54 949.54 0 004.74-4.7l8.88-8.82 6.31 6.35c1.63 1.65 3.23 3.24 4.74 4.78l24.17 24.33a56.34 56.34 0 003.8-2.9 59.43 59.43 0 003.04-2.65 61.4 61.4 0 003.32-3.4l-24.6-24.79a840.32 840.32 0 01-4.72-4.74z" fill="#fff"/><path d="M281.09 90.36a12095.11 12095.11 0 0127.97 28.19c-.96.9-1.99 1.8-3.03 2.65a12286.48 12286.48 0 00-27.98-28.16 1048.04 1048.04 0 00-4.74-4.78c-2.06-2.09-4.17-4.21-6.3-6.34-3.12 3.12-6.08 6.06-8.89 8.84l-4.74 4.73c-10.74 10.65-18.95 18.81-25.24 25.01a57 57 0 01-2.96-2.71l27.6-27.43c1.59-1.55 3.18-3.15 4.79-4.74l6.6-6.56c-2.84-2.86-5.7-5.75-8.59-8.63l-4.72-4.74c-10.28-10.34-20.49-20.62-29.82-29.97a58.51 58.51 0 012.7-3.03l29.64 29.81 4.74 4.76c3.11 3.13 6.07 6.11 8.92 8.95l6.27-6.23 4.74-4.72c11.38-11.33 22.74-22.65 32.99-32.83a58.83 58.83 0 012.7 3l-30.4 30.26-4.77 4.74a3791.4 3791.4 0 01-8.69 8.65l6.5 6.54 4.7 4.74z" fill="#BE1C2D"/><path d="M327.92 70.43a62.76 62.76 0 00-.52-4.74h-49.35v-50.8a64.55 64.55 0 00-4.74-.65 65 65 0 00-5.8-.27c-3.19 0-6.34.25-9.39.72a55.27 55.27 0 00-4.74.95v50.05H207.6a62.25 62.25 0 00-.5 4.74 56.83 56.83 0 00-.14 4.08c0 3.8.34 7.51 1.02 11.11a49.09 49.09 0 001.09 4.74h44.3v43.02c1.55.38 3.15.7 4.74.95a61.31 61.31 0 009.39.72c1.95 0 3.9-.1 5.8-.27a63.9 63.9 0 004.74-.66V90.36h47.9a48.5 48.5 0 001.07-4.74 59.64 59.64 0 001.03-11.11c0-1.37-.04-2.73-.14-4.08z" fill="#fff"/><path d="M328.05 74.5c0 3.8-.34 7.52-1.03 11.12h-53.7v49.16a64.14 64.14 0 01-5.81.27 61.31 61.31 0 01-9.39-.72v-48.7H208a59.56 59.56 0 01-1.02-11.12c0-1.37.04-2.73.13-4.08h51.02V14.7a61.3 61.3 0 019.39-.72c1.95 0 3.9.1 5.8.26v56.2h54.6c.1 1.35.14 2.71.14 4.08z" fill="#CA3647"/><path d="M32.39 224.34l-.1-.91s1-86.18 3.13-97.67c2.12-11.48 14.47-31.42 53.73-31.73 39.26-.3 189.18 1.94 189.18 1.94s37.36-.8 43.8 45.92c6.43 46.72-2.39 128.82-2.39 128.82h-63a32.7 32.7 0 00-64.78 0h-84.77a32.69 32.69 0 00-64.85 0H11.03s-6.8-47.43 21.36-46.37z" fill="#CB2C3F"/><path d="M25.09 182.01a5.1 5.1 0 005.1 5.1h296.7a5.1 5.1 0 005.11-5.1 5.1 5.1 0 00-5.1-5.1H30.2a5.1 5.1 0 00-5.11 5.1zM5.1 265.61h38.3a32.59 32.59 0 00-1.36 9.24c0 .33.03.64.04.96H5.11a5.1 5.1 0 01-5.11-5.1 5.1 5.1 0 015.1-5.1zm186.55 10.2h-84.21c0-.3.04-.57.04-.86 0-3.25-.47-6.38-1.35-9.34h86.9a32.71 32.71 0 00-1.41 9.46c0 .25.03.49.03.74zm65.41-.65a32.72 32.72 0 00-1.4-9.55h71.23a5.1 5.1 0 110 10.2h-69.86c0-.22.03-.43.03-.65z" fill="#8F2330"/><path d="M197.94 274.34a26.67 26.67 0 1053.33-.02 26.67 26.67 0 00-53.33.02z" fill="#1C3B62"/><path d="M214.26 274.34a10.35 10.35 0 1020.7 0 10.35 10.35 0 00-20.7 0z" fill="#7F9FF4"/><path d="M48.35 274.34a26.67 26.67 0 1053.34-.02 26.67 26.67 0 00-53.34.02z" fill="#1C3B62"/><path d="M64.67 274.34a10.35 10.35 0 1020.7 0 10.35 10.35 0 00-20.7 0z" fill="#7F9FF4"/><path d="M305.68 147.96s-44.46-.2-46.05-.76c-1.6-.56-.81-6.67-1.07-17.5-.25-10.83-1.06-16.82 3.71-17.26 4.77-.45 21.44-1.63 27.53-.9 6.08.71 15.38 4.96 18.14 18.44s1.18 18-2.26 17.98zm-262.56 0s44.46-.2 46.05-.76c1.59-.56.8-6.67 1.06-17.5s1.06-16.82-3.7-17.26c-4.78-.45-21.45-1.63-27.53-.9-6.1.71-15.38 4.96-18.15 18.44-2.76 13.48-1.17 18 2.27 17.98zm207.98-29.3v22.27s.5 6.53-7.36 6.53h-31.8s-8.05-.2-8.05-6.94V121.2s-.06-8.75 9.26-8.75h29.36s8.6.16 8.6 6.2zm-53.8 0v22.27s.5 6.53-7.37 6.53h-31.8s-8.05-.2-8.05-6.94V121.2s-.06-8.75 9.26-8.75h29.36s8.6.16 8.6 6.2zm-52.35 0v22.27s.5 6.53-7.37 6.53h-31.8s-8.04-.2-8.04-6.94V121.2s-.07-8.75 9.26-8.75h29.36s8.59.16 8.59 6.2zm106.15 80.7v22.27s.5 6.53-7.36 6.53h-31.8s-8.05-.2-8.05-6.94v-19.3s-.06-8.76 9.26-8.76h29.36s8.6.17 8.6 6.2zm-53.8 0v22.27s.5 6.53-7.37 6.53h-31.8s-8.05-.2-8.05-6.94v-19.3s-.06-8.76 9.26-8.76h29.36s8.6.17 8.6 6.2zm-52.35 0v22.27s.5 6.53-7.37 6.53h-31.8s-8.04-.2-8.04-6.94v-19.3s-.07-8.76 9.26-8.76h29.36s8.59.17 8.59 6.2zM49 194.12h34.12s6.25.12 6.25 4.5v16.2s.37 4.74-5.35 4.74h-35.9s-5.85-.14-5.85-5.05v-14.04s-.05-6.35 6.73-6.35z" fill="#fff"/></svg>