<svg width="86" height="41" fill="none" xmlns="http://www.w3.org/2000/svg"><path d="M10.1 12.29v-3.9h8.91v7.99a18.33 18.33 0 01-4.53 2.4c-1.3.41-2.86.62-4.66.62-2.22 0-4.02-.38-5.43-1.14a7.83 7.83 0 01-3.24-3.39A11.26 11.26 0 010 9.7c0-2.05.42-3.83 1.26-5.34A8.18 8.18 0 014.96.91C6.21.3 7.91 0 10.05 0c2.06 0 3.6.19 4.62.56 1.03.38 1.88.96 2.55 1.76a7.67 7.67 0 011.53 3l-5.57.99a3.02 3.02 0 00-1.17-1.63 3.6 3.6 0 00-2.09-.56c-1.26 0-2.27.44-3.03 1.33-.74.88-1.12 2.28-1.12 4.19 0 2.03.38 3.48 1.14 4.35.76.87 1.82 1.3 3.18 1.3a6 6 0 001.85-.28 9.9 9.9 0 002-.96v-1.77H10.1zM22.5 9.7c0-3.06.85-5.44 2.54-7.15C26.74.86 29.11 0 32.14 0c3.1 0 5.5.84 7.18 2.52C41 4.2 41.84 6.54 41.84 9.56c0 2.2-.37 4-1.1 5.4a7.87 7.87 0 01-3.19 3.28 10.48 10.48 0 01-5.18 1.16c-2.1 0-3.85-.34-5.24-1.01a7.9 7.9 0 01-3.35-3.2 10.67 10.67 0 01-1.28-5.48zm5.77.03c0 1.9.34 3.25 1.04 4.08.7.83 1.66 1.24 2.87 1.24 1.24 0 2.2-.4 2.87-1.21.68-.81 1.02-2.27 1.02-4.37 0-1.76-.35-3.05-1.07-3.86a3.6 3.6 0 00-2.87-1.23 3.5 3.5 0 00-2.8 1.24c-.71.83-1.06 2.2-1.06 4.1zM45 9.7c0-3.06.85-5.44 2.54-7.15C49.25.86 51.62 0 54.65 0c3.1 0 5.5.84 7.18 2.52 1.68 1.67 2.52 4.02 2.52 7.04 0 2.2-.37 4-1.1 5.4a7.87 7.87 0 01-3.19 3.28 10.48 10.48 0 01-5.18 1.16c-2.1 0-3.85-.34-5.24-1.01a7.9 7.9 0 01-3.35-3.2 10.67 10.67 0 01-1.28-5.48zm5.77.03c0 1.9.34 3.25 1.04 4.08.7.83 1.66 1.24 2.87 1.24 1.24 0 2.2-.4 2.87-1.21.68-.81 1.02-2.27 1.02-4.37 0-1.76-.35-3.05-1.07-3.86a3.6 3.6 0 00-2.88-1.23 3.5 3.5 0 00-2.8 1.24c-.7.83-1.05 2.2-1.05 4.1zM68.32.32h8.57c1.69 0 3.05.23 4.09.7A6.65 6.65 0 0183.56 3a8.22 8.22 0 011.48 3c.3 1.15.46 2.36.46 3.64 0 2-.23 3.56-.69 4.67a7.73 7.73 0 01-1.88 2.77 6.2 6.2 0 01-2.6 1.49c-1.27.34-2.41.51-3.44.51h-8.57V.32zm5.77 4.25v10.25h1.41a6 6 0 002.57-.4c.51-.27.91-.74 1.2-1.4a8.9 8.9 0 00.43-3.27c0-1.99-.32-3.35-.96-4.08-.65-.74-1.72-1.1-3.21-1.1h-1.44zM.47 36.49l3.78-.24c.08.62.25 1.09.5 1.41.41.53 1 .79 1.76.79.57 0 1-.13 1.3-.4.32-.27.47-.58.47-.93 0-.34-.14-.64-.44-.9-.29-.27-.97-.52-2.03-.75-1.75-.4-3-.92-3.74-1.58a3.16 3.16 0 01-1.12-2.5c0-.66.19-1.28.57-1.87.39-.6.96-1.06 1.73-1.4a8.04 8.04 0 013.17-.5c1.65 0 2.9.3 3.76.92.87.61 1.38 1.59 1.55 2.93l-3.75.22c-.1-.58-.31-1-.64-1.27a2 2 0 00-1.31-.4c-.47 0-.81.1-1.05.3a.9.9 0 00-.35.72c0 .2.1.39.29.55.19.17.63.33 1.33.48 1.74.38 2.99.76 3.74 1.15.75.38 1.3.86 1.64 1.43.35.57.52 1.2.52 1.91 0 .83-.23 1.6-.69 2.3-.45.7-1.1 1.23-1.91 1.6-.82.35-1.86.53-3.1.53-2.2 0-3.7-.42-4.55-1.27A5.02 5.02 0 01.47 36.5zm22.8-1l3.49 1.05c-.24.99-.6 1.8-1.1 2.47a4.8 4.8 0 01-1.89 1.49c-.74.33-1.69.5-2.84.5-1.4 0-2.55-.2-3.44-.6a5.49 5.49 0 01-2.29-2.17 7.35 7.35 0 01-.97-3.95c0-2.15.57-3.8 1.7-4.94 1.14-1.15 2.74-1.73 4.81-1.73 1.62 0 2.9.33 3.82.99a5.8 5.8 0 012.08 3.04l-3.52.78a3 3 0 00-.38-.86 2.3 2.3 0 00-.82-.7 2.34 2.34 0 00-1.08-.26c-.9 0-1.6.37-2.07 1.1-.37.54-.55 1.39-.55 2.55 0 1.43.22 2.42.65 2.95.44.53 1.04.8 1.83.8.76 0 1.33-.22 1.72-.65.4-.43.68-1.05.85-1.87zm5.99-7.66h3.98v4.53h4.34v-4.53h4v12.94h-4v-5.23h-4.34v5.23h-3.98V27.83zm15 6.48c0-2.11.59-3.76 1.76-4.93 1.17-1.18 2.8-1.77 4.9-1.77 2.13 0 3.79.58 4.95 1.74 1.16 1.15 1.74 2.77 1.74 4.85a8 8 0 01-.77 3.73 5.43 5.43 0 01-2.2 2.26c-.95.53-2.14.8-3.57.8a8.23 8.23 0 01-3.61-.7 5.44 5.44 0 01-2.31-2.2c-.6-1-.89-2.27-.89-3.78zm3.98.02c0 1.3.24 2.24.72 2.81.49.57 1.15.86 1.98.86.85 0 1.51-.28 1.98-.84.47-.56.7-1.56.7-3 0-1.23-.24-2.11-.73-2.67a2.48 2.48 0 00-1.99-.85c-.8 0-1.44.28-1.93.86-.49.57-.73 1.51-.73 2.83zm11.55-.02c0-2.11.58-3.76 1.75-4.93 1.17-1.18 2.8-1.77 4.9-1.77 2.14 0 3.79.58 4.95 1.74 1.16 1.15 1.74 2.77 1.74 4.85a8 8 0 01-.77 3.73 5.43 5.43 0 01-2.2 2.26c-.95.53-2.14.8-3.57.8a8.23 8.23 0 01-3.6-.7 5.44 5.44 0 01-2.32-2.2c-.59-1-.88-2.27-.88-3.78zm3.98.02c0 1.3.24 2.24.72 2.81.48.57 1.14.86 1.97.86.86 0 1.52-.28 1.99-.84.47-.56.7-1.56.7-3 0-1.23-.25-2.11-.74-2.67a2.48 2.48 0 00-1.98-.85c-.8 0-1.45.28-1.94.86-.48.57-.72 1.51-.72 2.83zm12.04-6.5h3.98v9.75H86v3.19H75.81V27.83z" fill="#7F9FF4"/></svg>