<svg width="16" height="16" fill="none" xmlns="http://www.w3.org/2000/svg"><mask id="a" style="mask-type:alpha" maskUnits="userSpaceOnUse" x="0" y="0" width="16" height="16"><circle cx="8" cy="8" r="8" fill="#fff"/></mask><g mask="url(#a)"><circle cx="8" cy="8" r="8" fill="#4F90DB"/><path fill-rule="evenodd" clip-rule="evenodd" d="M8 7.3.06 2-1 2.7 6.94 8-1 13.3l1.05.7L8 8.7l7.94 5.3 1.06-.7L9.06 8 17 2.7 15.94 2 8 7.3Z" fill="#DB3A4D"/><path fill-rule="evenodd" clip-rule="evenodd" d="M.06.8 8 6.1 15.94.8l2.86 1.9L10.86 8l7.94 5.3-2.86 1.9L8 9.9.05 15.2l-2.86-1.9L5.14 8-2.8 2.7.06.8ZM6.94 8-1 13.3l1.05.7L8 8.7l7.94 5.3 1.06-.7L9.06 8 17 2.7 15.94 2 8 7.3.06 2-1 2.7 6.94 8Z" fill="#fff"/><path fill-rule="evenodd" clip-rule="evenodd" d="M9 7V0H7v7H0v2h7v7h2V9h7V7H9Z" fill="#DB3A4D"/><path fill-rule="evenodd" clip-rule="evenodd" d="M10-1v7h7v4h-7v7H6v-7h-7V6h7v-7h4ZM7 7H0v2h7v7h2V9h7V7H9V0H7v7Z" fill="#fff"/></g></svg>