<svg width="88" height="23" fill="none" xmlns="http://www.w3.org/2000/svg"><path d="M0 .32h3.5v19.17h5.75v3.2H0V.31ZM10.92.32h3.5v22.36h-3.5V.32ZM22 23c-1.7 0-3-.48-3.89-1.44-.89-.98-1.33-2.37-1.33-4.18V5.62c0-1.8.44-3.2 1.33-4.15C19.01.49 20.3 0 22 0c1.7 0 2.99.49 3.88 1.47.89.96 1.33 2.34 1.33 4.15v1.92h-3.3V5.4c0-1.47-.6-2.2-1.81-2.2s-1.82.73-1.82 2.2v12.23c0 1.45.6 2.18 1.82 2.18 1.2 0 1.8-.73 1.8-2.18v-4.37h-1.74v-3.2h5.05v7.32c0 1.8-.44 3.2-1.33 4.18-.9.96-2.19 1.44-3.88 1.44ZM29.45.32h3.49v9.1h3.75V.32h3.5v22.36h-3.5V12.62h-3.75v10.06h-3.5V.32ZM45.52 3.51h-3.65V.31h10.8v3.2H49v19.17h-3.5V3.51ZM59.45.32h3.5v22.36h-3.5V.32ZM65.56.32h5.34c1.74 0 3.04.47 3.9 1.4.88.94 1.3 2.32 1.3 4.13v11.3c0 1.81-.42 3.19-1.3 4.13-.86.93-2.16 1.4-3.9 1.4h-5.34V.32Zm5.28 19.17c.57 0 1-.17 1.3-.51.32-.35.47-.9.47-1.67V5.7c0-.77-.15-1.32-.47-1.67-.3-.34-.73-.5-1.3-.5h-1.78v15.97h1.78ZM78.47.32H88v3.2h-6.04v5.9h4.8v3.2h-4.8v6.87H88v3.2h-9.53V.31Z" fill="#fff"/></svg>