<svg width="322" height="15" fill="none" xmlns="http://www.w3.org/2000/svg"><path d="M30.334 8.154c-1.344-1.659-2.79-2.768-4.276-3.457-1.486-.69-3.009-.958-4.5-.957-2.115 0-4.171.533-6.032 1.161-1.86.63-3.53 1.358-4.845 1.76-1.446.445-2.948.595-4.308.595a20.722 20.722 0 01-4.48-.506c-.12-.027-.213-.05-.275-.067l-.07-.018-.021-.006-.463-.13v4.117h.729V7.01h-.364l-.099.352c.02.005 2.218.624 5.043.624 1.413 0 2.985-.155 4.521-.626 1.378-.424 3.039-1.15 4.865-1.767 1.824-.617 3.807-1.124 5.798-1.123 1.407 0 2.816.25 4.195.89 1.38.64 2.732 1.67 4.017 3.255l.565-.462z" fill="#000D33"/><path d="M30.334 4.415c-1.344-1.66-2.79-2.769-4.276-3.458C24.572.267 23.049 0 21.558 0c-2.115 0-4.171.533-6.032 1.162-1.86.63-3.53 1.357-4.845 1.76-1.446.444-2.948.595-4.308.595a20.67 20.67 0 01-4.48-.506 10.46 10.46 0 01-.275-.067l-.07-.018-.021-.006-.463-.13v4.116h.729V3.272h-.364l-.099.352c.02.004 2.218.623 5.043.624 1.413 0 2.985-.155 4.521-.627 1.378-.424 3.039-1.15 4.865-1.766C17.583 1.237 19.566.73 21.557.73c1.407 0 2.816.25 4.195.89 1.38.64 2.732 1.67 4.017 3.255l.565-.461zM30.284 8.616C31.57 7.03 32.922 6 34.3 5.36c1.38-.64 2.789-.89 4.195-.89 1.991 0 3.974.507 5.799 1.124 1.825.617 3.486 1.343 4.864 1.767 1.537.471 3.108.626 4.521.626 2.826 0 5.023-.619 5.043-.624l-.098-.352h-.364v3.635h.728V6.529l-.462.13-.022.006c-.23.062-2.275.592-4.825.591-1.36 0-2.862-.15-4.307-.594-1.315-.403-2.986-1.131-4.845-1.76-1.861-.63-3.917-1.162-6.032-1.162-1.492 0-3.015.267-4.5.957-1.487.689-2.932 1.798-4.277 3.457l.565.462z" fill="#000D33"/><path d="M30.284 4.876c1.286-1.585 2.638-2.615 4.017-3.255 1.38-.64 2.789-.89 4.195-.89 1.991 0 3.974.506 5.799 1.124 1.825.617 3.486 1.342 4.864 1.766 1.537.472 3.108.627 4.521.627 2.826-.001 5.023-.62 5.043-.624l-.098-.353h-.364v3.635h.728V2.79l-.462.13-.022.006c-.23.062-2.275.591-4.825.59-1.36 0-2.862-.15-4.307-.594-1.315-.403-2.986-1.13-4.845-1.76C42.667.533 40.61 0 38.496 0c-1.492 0-3.015.268-4.5.957-1.487.69-2.932 1.798-4.277 3.458l.565.461z" fill="#000D33"/><path d="M30.416 8.385v-3.74a.365.365 0 10-.728 0v3.74a.365.365 0 10.728 0z" fill="#000D33"/><path d="M51.165 10.557c-2.387-.014-4.685-.64-6.477-1.307-1.842-.685-3.374-1.382-4.827-1.382-2 0-3.343.696-4.183 1.382a4.976 4.976 0 00-1.117 1.259 5.556 5.556 0 00-1.008-1.259c-.727-.674-1.81-1.29-3.347-1.37v-.01c-.025 0-.047.004-.071.005-.025 0-.047-.004-.071-.005v.01c-1.538.08-2.62.696-3.347 1.37a5.553 5.553 0 00-1.008 1.259 4.98 4.98 0 00-1.117-1.259c-.84-.686-2.184-1.382-4.183-1.382-1.454 0-2.985.697-4.828 1.382-1.792.667-4.09 1.293-6.476 1.307-4 .025-8.31-.002-9.105.006v2.266h60.019v-2.255c-.795-.008-4.855.008-8.854-.017zM71.142.79h7.362v1.673h-5.442v2.4h2.081c.672 0 1.265.09 1.777.269.523.168.96.405 1.312.71.352.305.619.674.8 1.105.182.421.273.89.273 1.406 0 1.105-.337 1.963-1.009 2.573-.672.61-1.723.916-3.153.916h-4.001V.79zm1.92 5.747v3.631h2.081c.715 0 1.249-.163 1.6-.489.364-.326.545-.768.545-1.326 0-.527-.187-.958-.56-1.295-.374-.347-.902-.521-1.585-.521h-2.08zM86.176 6.268l-.72 1.469-2.289 4.105h-2.336V3.947h1.856v5.574l.72-1.468 2.29-4.106h2.336v7.895h-1.857V6.268zM93.476 11.984c-1.195 0-2.134-.363-2.817-1.09-.683-.736-1.025-1.862-1.025-3.378v-.821c0-.58.038-1.132.113-1.658a6.591 6.591 0 01.368-1.469c.17-.442.395-.831.672-1.168a3.536 3.536 0 011.04-.853c.363-.19.715-.315 1.056-.379a9.044 9.044 0 011.089-.126c.384-.031.795-.068 1.232-.11a8.998 8.998 0 001.473-.285v1.58c-.406.126-.795.21-1.169.252-.362.032-.715.063-1.056.095-.341.02-.667.052-.976.094a2.446 2.446 0 00-.849.285 2.08 2.08 0 00-.8.773c-.192.327-.33.774-.416 1.342a2.782 2.782 0 011.072-.82c.416-.19.88-.285 1.393-.285.512 0 .976.084 1.392.253.427.168.79.416 1.089.742.309.316.544.705.704 1.168.17.463.256.995.256 1.595v.505c0 .58-.09 1.1-.272 1.563-.17.464-.427.858-.768 1.185-.331.326-.737.579-1.217.758a4.67 4.67 0 01-1.584.252zm0-6.316c-.566 0-1.02.169-1.36.506-.332.337-.507.82-.529 1.452v.6c0 .663.17 1.174.512 1.532.342.347.8.52 1.377.52.576 0 1.035-.173 1.376-.52.342-.358.512-.869.512-1.532v-.505c0-.663-.17-1.168-.512-1.516-.341-.358-.8-.537-1.376-.537zM97.878 10.279h.24a.88.88 0 00.416-.11c.15-.085.283-.222.4-.411.117-.2.208-.469.272-.805.075-.337.112-.764.112-1.28V3.948h6.082v7.895h-1.857V5.558h-2.368v2.116c0 .81-.075 1.49-.224 2.037-.139.547-.342.989-.609 1.326a2.157 2.157 0 01-.96.726 3.423 3.423 0 01-1.264.221h-.24V10.28zM112.825 6.268l-.72 1.469-2.289 4.105h-2.337V3.947h1.857v5.574l.72-1.468 2.289-4.106h2.337v7.895h-1.857V6.268zM120.125 11.984c-1.206 0-2.15-.337-2.833-1.01-.673-.674-1.009-1.616-1.009-2.827v-.505c0-.6.086-1.137.256-1.61a3.34 3.34 0 01.769-1.2c.341-.337.747-.59 1.216-.758.47-.18 1.003-.269 1.601-.269 1.205 0 2.144.337 2.816 1.01.683.674 1.025 1.617 1.025 2.827v.505c0 .6-.091 1.137-.272 1.61a3.21 3.21 0 01-.769 1.217c-.33.326-.736.579-1.216.758a4.67 4.67 0 01-1.584.252zm0-1.705c.608 0 1.072-.174 1.392-.521.331-.347.496-.884.496-1.61v-.506c0-.716-.171-1.247-.512-1.595-.331-.358-.79-.536-1.376-.536-.609 0-1.078.173-1.409.52-.32.348-.48.885-.48 1.611v.505c0 .716.165 1.253.496 1.61.342.348.806.522 1.393.522zM124.45 3.947h6.722v1.61h-2.432v6.285h-1.857V5.558h-2.433v-1.61zM135.424 11.984a4.482 4.482 0 01-1.552-.252 3.452 3.452 0 01-1.185-.758 3.514 3.514 0 01-.768-1.216c-.171-.474-.256-1.01-.256-1.61v-.506c0-.6.085-1.137.256-1.61.182-.474.438-.874.768-1.2.331-.337.726-.59 1.185-.758a4.243 4.243 0 011.552-.269c1.163 0 2.081.353 2.753 1.058.672.705 1.008 1.716 1.008 3.032v.616h-5.665c.053.663.24 1.142.56 1.436.32.285.768.427 1.344.427.566 0 .977-.095 1.233-.285.266-.2.442-.431.528-.694h1.92c-.085.368-.218.71-.4 1.026-.181.316-.421.59-.72.821a3.504 3.504 0 01-1.088.553c-.427.126-.918.19-1.473.19zm0-6.568c-.544 0-.971.131-1.28.395-.31.263-.507.678-.592 1.247h3.745c-.075-.59-.272-1.01-.592-1.263-.31-.253-.737-.38-1.281-.38zM143.443 8.542h-.8v3.3h-1.856V3.947h1.856v2.985h.8l1.921-2.985h2.145l-2.529 3.727 2.849 4.168h-2.241l-2.145-3.3zM150.87 11.984c-.865 0-1.521-.21-1.969-.631-.448-.421-.672-1.006-.672-1.753 0-.41.064-.779.192-1.105.139-.337.352-.616.64-.837.299-.232.678-.405 1.136-.521.47-.126 1.041-.19 1.713-.19h1.344v-.473c0-.38-.106-.663-.32-.853-.202-.2-.544-.3-1.024-.3-.448 0-.774.084-.976.253-.203.168-.326.39-.368.663h-2.017a2.379 2.379 0 01.864-1.737c.544-.463 1.377-.695 2.497-.695 1.067 0 1.867.242 2.401.727.533.484.8 1.131.8 1.942v5.368h-1.456l-.193-1.09c-.277.4-.64.706-1.088.916-.437.21-.939.316-1.504.316zm.32-1.516c.299 0 .571-.047.816-.142.256-.105.475-.242.656-.41.182-.18.326-.38.432-.6a1.61 1.61 0 00.16-.71v-.238h-1.344c-.64 0-1.088.106-1.344.316-.257.21-.385.495-.385.853 0 .284.086.51.257.679.181.168.432.252.752.252zM164.386 11.984a4.616 4.616 0 01-1.568-.252 3.452 3.452 0 01-1.185-.758 3.632 3.632 0 01-.752-1.216 4.748 4.748 0 01-.256-1.61v-.506c0-.59.086-1.121.256-1.595a3.34 3.34 0 01.769-1.2c.33-.336.725-.594 1.184-.773a4.324 4.324 0 011.552-.269c1.014 0 1.798.248 2.353.742.566.495.928 1.137 1.088 1.927h-1.984a1.264 1.264 0 00-.528-.695c-.267-.179-.603-.268-1.009-.268-.234 0-.458.042-.672.126a1.34 1.34 0 00-.544.379c-.16.168-.288.39-.384.663a3.13 3.13 0 00-.128.963v.505c0 .369.048.69.144.964.096.263.224.484.384.663.16.168.341.294.544.379.214.084.432.126.656.126.459 0 .806-.1 1.041-.3.245-.2.41-.447.496-.742h1.984c-.16.831-.522 1.5-1.088 2.005-.555.495-1.339.742-2.353.742zM172.547 11.984c-1.206 0-2.15-.337-2.833-1.01-.672-.674-1.008-1.616-1.008-2.827v-.505c0-.6.085-1.137.256-1.61.181-.474.437-.874.768-1.2.342-.337.747-.59 1.217-.758.469-.18 1.002-.269 1.6-.269 1.206 0 2.145.337 2.817 1.01.683.674 1.024 1.617 1.024 2.827v.505c0 .6-.091 1.137-.272 1.61a3.22 3.22 0 01-.768 1.217 3.39 3.39 0 01-1.217.758 4.665 4.665 0 01-1.584.252zm0-1.705c.608 0 1.072-.174 1.392-.521.331-.347.497-.884.497-1.61v-.506c0-.716-.171-1.247-.513-1.595-.33-.358-.789-.536-1.376-.536-.608 0-1.078.173-1.408.52-.321.348-.481.885-.481 1.611v.505c0 .716.166 1.253.497 1.61.341.348.805.522 1.392.522zM177.986 3.947h3.121c.597 0 1.104.053 1.52.158.416.106.752.258 1.008.458.267.19.459.421.576.695.118.274.177.579.177.916 0 .315-.081.61-.241.884-.16.274-.41.505-.752.695.459.179.79.426.993.742.213.316.32.663.32 1.042 0 .358-.059.679-.176.963-.118.284-.31.526-.577.726-.256.2-.592.353-1.008.458-.416.106-.923.158-1.52.158h-3.441V3.947zm1.792 4.58v1.863h1.649c.49 0 .832-.08 1.024-.237.203-.169.304-.4.304-.695 0-.295-.101-.521-.304-.68-.192-.167-.534-.252-1.024-.252h-1.649zm0-3.127v1.705h1.329c.512 0 .858-.073 1.04-.22.192-.148.288-.359.288-.632 0-.274-.096-.485-.288-.632-.182-.147-.528-.221-1.04-.221h-1.329zM190.494 11.984c-1.003 0-1.782-.31-2.337-.931V15h-1.856V3.947h1.456l.176 1.074c.278-.41.63-.716 1.056-.916.438-.2.939-.3 1.505-.3.459 0 .88.084 1.264.253.395.158.731.4 1.009.726.277.316.496.716.656 1.2.16.474.24 1.027.24 1.658v.505c0 .632-.08 1.185-.24 1.658-.16.474-.384.874-.672 1.2a2.734 2.734 0 01-.993.742 3.291 3.291 0 01-1.264.237zm-.56-1.705c.565 0 1.003-.168 1.312-.505.31-.337.464-.88.464-1.627v-.505c0-.726-.16-1.263-.48-1.61-.32-.348-.752-.521-1.296-.521-.512 0-.934.173-1.265.52-.32.348-.49.853-.512 1.516v.6c0 .695.166 1.227.496 1.595.342.358.769.537 1.281.537zM198.538 11.984a4.483 4.483 0 01-1.553-.252 3.438 3.438 0 01-1.184-.758 3.502 3.502 0 01-.769-1.216 4.748 4.748 0 01-.256-1.61v-.506c0-.6.086-1.137.256-1.61a3.34 3.34 0 01.769-1.2c.33-.337.725-.59 1.184-.758a4.245 4.245 0 011.553-.269c1.163 0 2.08.353 2.752 1.058.673.705 1.009 1.716 1.009 3.032v.616h-5.666c.053.663.24 1.142.56 1.436.32.285.768.427 1.345.427.565 0 .976-.095 1.232-.285.267-.2.443-.431.528-.694h1.921c-.086.368-.219.71-.4 1.026-.182.316-.422.59-.721.821a3.493 3.493 0 01-1.088.553c-.427.126-.918.19-1.472.19zm0-6.568c-.545 0-.971.131-1.281.395-.309.263-.507.678-.592 1.247h3.745c-.075-.59-.272-1.01-.592-1.263-.31-.253-.736-.38-1.28-.38zM206.381 7.737l-.625-1.516v5.621H203.9V3.947h2.657l1.776 4.121 1.809-4.12h2.56v7.894h-1.856V6.221l-.624 1.516-.993 2.29h-1.856l-.992-2.29zM218.059 11.984a4.478 4.478 0 01-1.552-.252 3.452 3.452 0 01-1.185-.758 3.5 3.5 0 01-.768-1.216c-.171-.474-.256-1.01-.256-1.61v-.506c0-.6.085-1.137.256-1.61.181-.474.438-.874.768-1.2.331-.337.726-.59 1.185-.758a4.24 4.24 0 011.552-.269c1.163 0 2.081.353 2.753 1.058.672.705 1.008 1.716 1.008 3.032v.616h-5.665c.053.663.24 1.142.56 1.436.32.285.768.427 1.344.427.566 0 .976-.095 1.233-.285.266-.2.442-.431.528-.694h1.92c-.085.368-.218.71-.4 1.026-.181.316-.421.59-.72.821a3.515 3.515 0 01-1.088.553c-.427.126-.918.19-1.473.19zm0-6.568c-.544 0-.971.131-1.28.395-.31.263-.507.678-.592 1.247h3.745c-.075-.59-.272-1.01-.592-1.263-.31-.253-.737-.38-1.281-.38zM228.767 8.621h-3.489v3.221h-1.857V3.947h1.857v3.064h3.489V3.947h1.857v7.895h-1.857V8.621zM238.051 8.621h-3.489v3.221h-1.856V3.947h1.856v3.064h3.489V3.947h1.857v7.895h-1.857V8.621zM241.99 3.947h1.856v2.369h1.185c1.227 0 2.118.247 2.672.742.566.495.849 1.168.849 2.021s-.283 1.526-.849 2.021c-.554.495-1.445.742-2.672.742h-3.041V3.947zm7.426 0h1.857v7.895h-1.857V3.947zm-5.57 3.869v2.526h1.265c.512 0 .885-.11 1.12-.332.245-.22.368-.531.368-.931s-.123-.71-.368-.932c-.235-.22-.608-.331-1.12-.331h-1.265zM256.281 9.19l-1.808 2.652h-2.081l2.769-3.995-2.641-3.9h2.145l1.68 2.51 1.713-2.51h2.049l-2.641 3.837 2.769 4.058h-2.145l-1.809-2.653zM267.437 11.984c-.864 0-1.521-.21-1.969-.631-.448-.421-.672-1.006-.672-1.753 0-.41.064-.779.192-1.105.139-.337.352-.616.64-.837.299-.232.678-.405 1.137-.521.469-.126 1.04-.19 1.712-.19h1.345v-.473c0-.38-.107-.663-.32-.853-.203-.2-.545-.3-1.025-.3-.448 0-.773.084-.976.253-.203.168-.326.39-.368.663h-2.017a2.379 2.379 0 01.864-1.737c.545-.463 1.377-.695 2.497-.695 1.067 0 1.867.242 2.401.727.533.484.8 1.131.8 1.942v5.368h-1.456l-.192-1.09a2.7 2.7 0 01-1.089.916c-.437.21-.939.316-1.504.316zm.32-1.516c.299 0 .571-.047.816-.142.256-.105.475-.242.656-.41.182-.18.326-.38.433-.6.106-.221.16-.458.16-.71v-.238h-1.345c-.64 0-1.088.106-1.344.316-.256.21-.384.495-.384.853 0 .284.085.51.256.679.181.168.432.252.752.252zM273.671 3.947h3.121c.598 0 1.105.053 1.521.158.416.106.752.258 1.008.458.267.19.459.421.576.695.118.274.176.579.176.916 0 .315-.08.61-.24.884-.16.274-.411.505-.752.695.459.179.79.426.992.742.214.316.32.663.32 1.042 0 .358-.058.679-.176.963a1.717 1.717 0 01-.576.726c-.256.2-.592.353-1.008.458-.416.106-.923.158-1.521.158h-3.441V3.947zm1.793 4.58v1.863h1.648c.491 0 .833-.08 1.025-.237.202-.169.304-.4.304-.695 0-.295-.102-.521-.304-.68-.192-.167-.534-.252-1.025-.252h-1.648zm0-3.127v1.705h1.328c.512 0 .859-.073 1.041-.22.192-.148.288-.359.288-.632 0-.274-.096-.485-.288-.632-.182-.147-.529-.221-1.041-.221h-1.328zM281.03 3.947h6.722v1.61h-2.433v6.285h-1.856V5.558h-2.433v-1.61zM292.084 11.984c-1.206 0-2.15-.337-2.833-1.01-.672-.674-1.008-1.616-1.008-2.827v-.505c0-.6.085-1.137.256-1.61.181-.474.437-.874.768-1.2.341-.337.747-.59 1.216-.758.47-.18 1.003-.269 1.601-.269 1.206 0 2.145.337 2.817 1.01.683.674 1.024 1.617 1.024 2.827v.505c0 .6-.091 1.137-.272 1.61a3.22 3.22 0 01-.768 1.217 3.39 3.39 0 01-1.217.758 4.665 4.665 0 01-1.584.252zm0-1.705c.608 0 1.072-.174 1.392-.521.331-.347.496-.884.496-1.61v-.506c0-.716-.17-1.247-.512-1.595-.33-.358-.789-.536-1.376-.536-.608 0-1.078.173-1.409.52-.32.348-.48.885-.48 1.611v.505c0 .716.166 1.253.496 1.61.342.348.806.522 1.393.522zM301.716 11.984c-1.003 0-1.782-.31-2.337-.931V15h-1.857V3.947h1.457l.176 1.074c.277-.41.629-.716 1.056-.916.438-.2.939-.3 1.505-.3.459 0 .88.084 1.264.253.395.158.731.4 1.008.726.278.316.497.716.657 1.2.16.474.24 1.027.24 1.658v.505c0 .632-.08 1.185-.24 1.658-.16.474-.385.874-.673 1.2a2.722 2.722 0 01-.992.742 3.291 3.291 0 01-1.264.237zm-.56-1.705c.565 0 1.003-.168 1.312-.505.309-.337.464-.88.464-1.627v-.505c0-.726-.16-1.263-.48-1.61-.32-.348-.752-.521-1.296-.521-.513 0-.934.173-1.265.52-.32.348-.491.853-.512 1.516v.6c0 .695.165 1.227.496 1.595.342.358.768.537 1.281.537zM309.839 11.984c-1.205 0-2.15-.337-2.833-1.01-.672-.674-1.008-1.616-1.008-2.827v-.505c0-.6.086-1.137.256-1.61.182-.474.438-.874.768-1.2.342-.337.747-.59 1.217-.758.469-.18 1.003-.269 1.6-.269 1.206 0 2.145.337 2.817 1.01.683.674 1.025 1.617 1.025 2.827v.505c0 .6-.091 1.137-.273 1.61-.17.475-.426.88-.768 1.217a3.394 3.394 0 01-1.216.758c-.47.168-.998.252-1.585.252zm0-1.705c.609 0 1.073-.174 1.393-.521.331-.347.496-.884.496-1.61v-.506c0-.716-.171-1.247-.512-1.595-.331-.358-.79-.536-1.377-.536-.608 0-1.077.173-1.408.52-.32.348-.48.885-.48 1.611v.505c0 .716.165 1.253.496 1.61.341.348.806.522 1.392.522zM315.278 3.947h3.121c.597 0 1.104.053 1.52.158.416.106.753.258 1.009.458.266.19.458.421.576.695.117.274.176.579.176.916 0 .315-.08.61-.24.884-.16.274-.411.505-.752.695.458.179.789.426.992.742.213.316.32.663.32 1.042 0 .358-.059.679-.176.963-.117.284-.31.526-.576.726-.256.2-.592.353-1.009.458-.416.106-.923.158-1.52.158h-3.441V3.947zm1.792 4.58v1.863h1.649c.491 0 .832-.08 1.024-.237.203-.169.304-.4.304-.695 0-.295-.101-.521-.304-.68-.192-.167-.533-.252-1.024-.252h-1.649zm0-3.127v1.705h1.329c.512 0 .859-.073 1.04-.22.192-.148.288-.359.288-.632 0-.274-.096-.485-.288-.632-.181-.147-.528-.221-1.04-.221h-1.329z" fill="#000D33"/></svg>