<svg width="20" height="20" fill="none" xmlns="http://www.w3.org/2000/svg"><path d="M10 1.67c2.26 0 2.55 0 3.44.05.88.04 1.49.18 2.02.38.55.22 1.01.5 1.48.96.42.42.75.93.96 1.48.2.53.34 1.14.38 2.02.04.9.05 1.18.05 3.44s0 2.55-.05 3.44c-.04.88-.18 1.49-.38 2.02-.21.55-.54 1.06-.96 1.47a4.1 4.1 0 01-1.48.97c-.53.2-1.14.34-2.02.38-.9.04-1.18.05-3.44.05a58 58 0 01-3.43-.05 6.16 6.16 0 01-2.03-.38 4.08 4.08 0 01-1.47-.96 4.09 4.09 0 01-.97-1.48 6.13 6.13 0 01-.38-2.03c-.04-.88-.05-1.17-.05-3.43 0-2.26 0-2.55.05-3.44.04-.88.18-1.49.38-2.02.21-.55.54-1.06.97-1.48.41-.42.92-.75 1.47-.96.53-.2 1.14-.34 2.03-.38.88-.04 1.17-.05 3.43-.05zm0 4.16a4.17 4.17 0 100 8.34 4.17 4.17 0 000-8.34zm5.42-.2a1.04 1.04 0 10-2.09 0 1.04 1.04 0 002.09 0zM10 7.5a2.5 2.5 0 110 5 2.5 2.5 0 010-5z" fill="#0F0920"/></svg>