<svg width="149" height="19" fill="none" xmlns="http://www.w3.org/2000/svg"><path d="M5.12 4.57H0v-3.4h14.18v3.4H9.07v13.99H5.12v-14z" fill="#0F0920"/><path d="M13.38 6.63h3.8v1.91h.05c.4-.73.89-1.28 1.45-1.64a3.67 3.67 0 012.1-.57l.66.03c.22.01.42.05.6.1v3.36a4.77 4.77 0 00-.8-.17 4.25 4.25 0 00-.82-.08c-.72 0-1.3.1-1.72.3-.42.2-.75.47-.99.83-.22.35-.36.76-.43 1.25-.07.5-.1 1.04-.1 1.62v4.99h-3.8V6.63zM31.42 17.06h-.05c-.42.64-.99 1.1-1.7 1.38a5.85 5.85 0 01-3.87.17 4.08 4.08 0 01-1.4-.69 3.4 3.4 0 01-.96-1.15 3.43 3.43 0 01-.35-1.6c0-.69.12-1.27.38-1.74.27-.48.62-.87 1.06-1.18a5.3 5.3 0 011.55-.71c.57-.18 1.16-.31 1.77-.4.62-.08 1.24-.13 1.85-.14l1.72-.03c0-.65-.25-1.17-.73-1.54a2.57 2.57 0 00-1.7-.6c-.63 0-1.2.14-1.72.4-.51.25-.97.59-1.37 1.03l-2.03-2.01a6.87 6.87 0 012.48-1.43c.95-.32 1.93-.49 2.94-.49 1.12 0 2.03.14 2.74.42.72.26 1.3.66 1.72 1.18.44.52.74 1.17.91 1.94.17.75.25 1.63.25 2.62v6.07h-3.49v-1.5zm-.94-3.73c-.28 0-.65.02-1.09.05a5.3 5.3 0 00-1.24.2c-.39.11-.72.28-1.01.51-.27.23-.4.55-.4.96 0 .44.19.77.58.98.39.21.79.32 1.21.32a3.79 3.79 0 002-.57c.27-.18.48-.4.64-.68.17-.28.25-.6.25-.98v-.79h-.94zM36 6.63h4.1l3.12 8.1h.05l2.9-8.1h3.82l-4.87 11.93H41.1L36 6.63zM63.02 16.5a6.04 6.04 0 01-2.3 1.74c-.93.4-1.9.61-2.9.61a8.1 8.1 0 01-2.68-.44 6.76 6.76 0 01-2.17-1.25 6.16 6.16 0 01-1.45-7.14 5.9 5.9 0 011.45-1.97 6.53 6.53 0 012.17-1.27c.85-.3 1.74-.45 2.69-.45.88 0 1.67.15 2.38.45.72.29 1.33.72 1.82 1.27.5.54.9 1.2 1.17 1.97.27.76.4 1.62.4 2.57v1.16H54.8c.15.7.48 1.27.99 1.7.5.4 1.13.6 1.87.6.63 0 1.15-.13 1.57-.39a4.3 4.3 0 001.14-1.05l2.66 1.89zm-3.22-5.26a2.1 2.1 0 00-.63-1.6c-.44-.43-1-.66-1.7-.66a2.84 2.84 0 00-1.95.71c-.22.2-.4.44-.53.72-.12.26-.18.54-.2.83h5.01zM65.96 0h3.8v18.56h-3.8V0zM96.7 17.33a14.6 14.6 0 01-3.65 1.28c-1.26.26-2.56.39-3.87.39-1.4 0-2.7-.21-3.88-.64a9.02 9.02 0 01-3.06-1.81 8.56 8.56 0 01-2.03-2.9 9.7 9.7 0 01-.7-3.78c0-1.4.23-2.65.7-3.78a8.3 8.3 0 012.03-2.87 8.82 8.82 0 013.06-1.85c1.18-.42 2.48-.63 3.88-.63 1.43 0 2.75.17 3.95.51a7.7 7.7 0 013.19 1.72l-2.79 2.95a5.56 5.56 0 00-4.35-1.65c-.85 0-1.62.14-2.3.42a5.1 5.1 0 00-2.9 2.94 6.41 6.41 0 00-.37 2.24 5.45 5.45 0 001.52 4.03c.48.48 1.07.87 1.74 1.15.7.28 1.46.42 2.3.42.87 0 1.61-.1 2.24-.27.62-.2 1.12-.4 1.49-.6v-2.82h-3.22V8.25h7.02v9.08zM111.55 18.56h-3.65v-1.62h-.05a3.75 3.75 0 01-1.3 1.3 4.58 4.58 0 01-2.3.61c-.96 0-1.74-.14-2.35-.41-.6-.3-1.06-.7-1.4-1.2-.31-.51-.53-1.11-.65-1.8-.1-.69-.15-1.43-.15-2.23V6.63h3.8v5.84c0 .34 0 .7.02 1.08.03.36.1.7.23 1 .13.32.33.57.58.77.27.2.65.3 1.14.3.49 0 .89-.09 1.19-.25.3-.18.53-.41.68-.69.17-.3.28-.62.33-.98.05-.36.08-.74.08-1.13V6.63h3.8v11.93zM114.29 6.63h3.8v11.93h-3.8V6.63zm-.3-3.76a2 2 0 01.63-1.5c.44-.42.96-.63 1.57-.63.6 0 1.12.2 1.54.63.44.41.66.91.66 1.5 0 .6-.22 1.1-.66 1.52-.42.41-.94.62-1.54.62-.61 0-1.13-.2-1.57-.62a2.09 2.09 0 01-.64-1.52zM133.73 18.56h-3.5v-1.57h-.04a4.24 4.24 0 01-1.47 1.25 5 5 0 01-2.3.61 5.93 5.93 0 01-4.4-1.72 5.9 5.9 0 01-1.23-1.96 7.42 7.42 0 01-.05-4.86c.27-.77.64-1.45 1.11-2.04a5.41 5.41 0 014.13-1.94c.8 0 1.53.13 2.2.37.7.23 1.26.63 1.7 1.2h.05V0h3.8v18.56zm-3.5-5.97a3 3 0 00-.8-2.18c-.53-.56-1.27-.84-2.23-.84a3 3 0 00-2.26.84 3.06 3.06 0 00-.78 2.18c0 .9.26 1.63.78 2.19a3 3 0 002.26.83c.96 0 1.7-.28 2.23-.83a3 3 0 00.8-2.19zM148.42 16.5a6.04 6.04 0 01-2.3 1.74c-.94.4-1.9.61-2.9.61a8.1 8.1 0 01-2.68-.44 6.77 6.77 0 01-2.18-1.25 6.16 6.16 0 01-1.44-7.14 5.9 5.9 0 011.44-1.97 6.54 6.54 0 012.18-1.27 8.1 8.1 0 012.69-.45c.87 0 1.67.15 2.38.45.72.29 1.33.72 1.82 1.27.5.54.9 1.2 1.16 1.97.28.76.41 1.62.41 2.57v1.16h-8.81c.15.7.48 1.27.99 1.7.5.4 1.13.6 1.87.6.62 0 1.15-.13 1.57-.39.44-.28.82-.63 1.14-1.05l2.66 1.89zm-3.22-5.26a2.1 2.1 0 00-.63-1.6c-.44-.43-1-.66-1.7-.66a2.85 2.85 0 00-1.95.71c-.22.2-.4.44-.53.72-.12.26-.19.54-.2.83h5.01z" fill="#0F0920"/></svg>