<svg width="24" height="24" fill="none" xmlns="http://www.w3.org/2000/svg"><path d="M8.1 10.78V4.67c0-.98.41-1.9 1.14-2.6A4.03 4.03 0 0112 1a4.03 4.03 0 012.76 1.07 3.56 3.56 0 011.14 2.6v6.1M19.7 23H4.3c-.18 0-.35-.03-.52-.1a1.3 1.3 0 01-.43-.3 1.21 1.21 0 01-.28-.42 1.15 1.15 0 01-.07-.5L4.11 8.24c.03-.31.17-.6.42-.8.24-.21.55-.33.88-.33h13.18c.33 0 .65.12.89.32.24.21.39.5.41.8L21 21.69c.02.17 0 .34-.06.5a1.21 1.21 0 01-.27.43 1.3 1.3 0 01-.44.29 1.37 1.37 0 01-.52.1z" stroke="#40393B" stroke-linecap="round" stroke-linejoin="round"/></svg>