<svg width="20" height="20" fill="none" xmlns="http://www.w3.org/2000/svg"><path d="M10 1.8c2.68 0 3 .01 4.05.06.97.04 1.5.2 1.85.34.47.18.8.4 1.15.75.35.35.57.68.75 1.15.14.35.3.88.34 1.85.05 1.06.06 1.38.06 4.04 0 2.68-.01 3-.06 4.04-.04.98-.2 1.5-.34 1.86-.18.46-.4.8-.75 1.15-.35.35-.68.57-1.15.74-.35.14-.88.3-1.85.35-1.06.05-1.37.06-4.04.06-2.68 0-3-.01-4.05-.06-.97-.04-1.5-.2-1.85-.35a3.1 3.1 0 01-1.15-.74 3.08 3.08 0 01-.75-1.15 5.5 5.5 0 01-.34-1.86A70.47 70.47 0 011.8 10c0-2.67.01-2.98.06-4.04.04-.97.2-1.5.34-1.85.18-.47.4-.8.75-1.15.35-.35.68-.57 1.15-.75.35-.13.88-.3 1.85-.34 1.06-.05 1.37-.06 4.05-.06zM10 0C7.3 0 6.96.01 5.89.06 4.82.1 4.08.28 3.46.52c-.67.26-1.22.6-1.78 1.16A4.9 4.9 0 00.52 3.45a7.33 7.33 0 00-.46 2.43A73.57 73.57 0 000 10c0 2.72.01 3.06.06 4.12a7.3 7.3 0 00.46 2.43c.26.66.6 1.22 1.16 1.77.56.56 1.11.9 1.77 1.16.64.24 1.37.41 2.43.46C6.95 20 7.28 20 10 20s3.06-.01 4.13-.06a7.32 7.32 0 002.42-.46 4.9 4.9 0 001.77-1.16c.56-.55.9-1.11 1.16-1.77.24-.63.41-1.36.46-2.42.05-1.07.06-1.4.06-4.12s-.01-3.06-.06-4.13a7.3 7.3 0 00-.46-2.42 4.69 4.69 0 00-1.15-1.78A4.9 4.9 0 0016.56.53a7.33 7.33 0 00-2.43-.47A68.35 68.35 0 0010.01 0z" fill="#40393B"/><path d="M10 4.86a5.14 5.14 0 100 10.28 5.14 5.14 0 000-10.28zm0 8.47a3.33 3.33 0 110-6.66 3.33 3.33 0 010 6.66zM16.55 4.66a1.2 1.2 0 11-2.4 0 1.2 1.2 0 012.4 0z" fill="#40393B"/></svg>