<svg width="20" height="20" fill="none" xmlns="http://www.w3.org/2000/svg"><path d="M10 0a10 10 0 00-3.64 19.31c-.09-.79-.17-2 .03-2.86l1.17-4.97s-.3-.6-.3-1.49c0-1.39.8-2.43 1.81-2.43.85 0 1.27.64 1.27 1.41 0 .86-.55 2.14-.83 3.33-.24 1 .5 1.8 1.48 1.8 1.78 0 3.14-1.87 3.14-4.57 0-2.4-1.72-4.07-4.17-4.07A4.33 4.33 0 005.44 9.8c0 .86.33 1.78.75 2.28.08.1.1.19.07.29l-.28 1.13c-.04.18-.14.22-.34.13-1.25-.58-2.03-2.4-2.03-3.87 0-3.16 2.3-6.05 6.6-6.05 3.48 0 6.17 2.47 6.17 5.77 0 3.45-2.17 6.22-5.18 6.22-1.02 0-1.97-.52-2.3-1.15l-.62 2.38c-.23.87-.83 1.96-1.24 2.62A10.02 10.02 0 0020 10 10 10 0 0010 0z" fill="#40393B"/></svg>