<svg fill="none" xmlns="http://www.w3.org/2000/svg" viewBox="0 0 700 370"><path fill="#F1F4FB" d="M0 0h700v370H0z"/><path d="M340 184.78C340 259.46 279.56 320 205 320S70 259.46 70 184.78C70 110.09 130.44 50 205 50s135 60.1 135 134.78z" fill="#FFD978"/><path d="M205 185v135c55.74 0 103.56-33.76 124-82.52C280.57 216.8 205 185 205 185z" fill="#FFA081"/><path d="M205 320c-74.56 0-135-60.44-135-135S130.44 50 205 50v270z" fill="#5974FF"/><circle cx="205" cy="185" r="72" fill="#F1F4FB"/><path d="M429.3 228.17a4.02 4.02 0 01-2.94-1.26l.6-.76c.26.28.58.53.93.74.36.22.81.33 1.34.33a2 2 0 001.33-.44c.35-.3.52-.7.52-1.2 0-.26-.05-.5-.15-.72-.1-.22-.25-.41-.48-.57a2.48 2.48 0 00-.88-.36 6.09 6.09 0 00-1.34-.13v-.88c.47 0 .87-.04 1.19-.13.32-.08.58-.2.78-.35.2-.15.35-.32.43-.53.09-.2.13-.42.13-.66 0-.44-.14-.78-.42-1.03a1.58 1.58 0 00-1.12-.38c-.37 0-.72.08-1.04.25-.3.17-.6.39-.86.66l-.62-.73c.35-.33.72-.6 1.13-.8a3.57 3.57 0 012.5-.17c.34.1.62.26.85.45.24.19.43.42.56.7.13.28.2.6.2.97 0 .54-.15.98-.45 1.33-.3.34-.7.6-1.18.8v.05a2.93 2.93 0 011.37.77 2.2 2.2 0 01.56 1.5c0 .4-.07.75-.23 1.06-.15.32-.36.6-.63.82-.26.21-.57.38-.93.5a3.8 3.8 0 01-1.15.17zm7.14 0c-.9 0-1.6-.4-2.1-1.2-.51-.8-.76-1.96-.76-3.46s.25-2.65.75-3.43c.5-.79 1.21-1.18 2.12-1.18.9 0 1.6.4 2.1 1.18.5.78.75 1.92.75 3.43 0 1.5-.25 2.65-.75 3.45-.5.8-1.2 1.2-2.1 1.2zm0-.93c.27 0 .5-.07.7-.2.22-.16.4-.38.55-.68.16-.3.28-.7.37-1.16.08-.48.12-1.04.12-1.7 0-.65-.04-1.2-.13-1.67-.08-.47-.2-.85-.36-1.14-.15-.3-.33-.52-.55-.66-.2-.14-.43-.2-.7-.2-.26 0-.5.06-.7.2-.22.14-.41.36-.57.66-.15.3-.27.67-.35 1.14a9.64 9.64 0 00-.13 1.68c0 1.3.16 2.25.48 2.85.33.59.75.88 1.27.88zm6.05-2.8c-.63 0-1.14-.25-1.52-.75a3.58 3.58 0 01-.56-2.16c0-.92.19-1.63.56-2.13.38-.5.89-.75 1.52-.75s1.13.25 1.52.75c.38.5.57 1.2.57 2.13 0 .94-.2 1.65-.57 2.16-.39.5-.9.75-1.52.75zm0-.71c.36 0 .65-.18.87-.55.23-.37.34-.92.34-1.65a3.1 3.1 0 00-.34-1.62c-.22-.37-.51-.55-.87-.55s-.65.18-.88.55c-.22.35-.33.9-.33 1.62 0 .73.1 1.28.33 1.65.23.37.52.55.88.55zm.26 4.44l5.06-9.52h.79l-5.07 9.52h-.78zm6.14 0c-.63 0-1.14-.25-1.52-.76a3.58 3.58 0 01-.56-2.15c0-.93.18-1.64.56-2.13.38-.5.89-.76 1.52-.76s1.13.25 1.51.76c.39.5.58 1.2.58 2.13 0 .93-.2 1.65-.58 2.15-.38.5-.88.76-1.5.76zm0-.72c.36 0 .65-.18.87-.54.22-.38.34-.93.34-1.65a3.1 3.1 0 00-.34-1.63c-.22-.36-.51-.54-.87-.54s-.66.18-.88.54c-.22.36-.34.9-.34 1.63 0 .72.12 1.28.34 1.65.22.36.52.54.88.54zM429.28 176.17a4.02 4.02 0 01-1.78-.38 4.34 4.34 0 01-.65-.38c-.18-.15-.35-.3-.5-.46l.56-.76c.26.28.57.51.92.72a2.67 2.67 0 002.09.17 1.93 1.93 0 001.05-1.06c.1-.26.15-.54.15-.85 0-.61-.17-1.1-.51-1.44-.35-.34-.81-.52-1.39-.52-.3 0-.57.05-.8.14a5 5 0 00-.73.4l-.61-.38.3-4.3h4.46v1h-3.46l-.24 2.64c.22-.11.43-.2.65-.27a3.39 3.39 0 011.8.07 2.4 2.4 0 011.47 1.39c.15.34.23.76.23 1.24 0 .49-.09.92-.26 1.3-.16.37-.39.68-.67.94a3.09 3.09 0 01-2.08.79zm7.17 0c-.91 0-1.62-.4-2.12-1.2-.5-.8-.75-1.96-.75-3.46s.25-2.65.75-3.43c.5-.79 1.21-1.18 2.12-1.18.9 0 1.6.4 2.1 1.18.5.78.75 1.92.75 3.43 0 1.5-.25 2.65-.75 3.45-.5.8-1.2 1.2-2.1 1.2zm0-.93c.26 0 .49-.07.7-.2.21-.16.4-.38.54-.68.16-.3.28-.7.37-1.16.08-.48.12-1.04.12-1.7 0-.65-.04-1.2-.13-1.67-.08-.47-.2-.85-.36-1.14-.15-.3-.33-.52-.55-.66-.2-.14-.43-.2-.7-.2-.26 0-.5.06-.7.2-.22.14-.41.36-.57.66-.15.3-.27.67-.35 1.14a9.64 9.64 0 00-.13 1.68c0 1.3.16 2.25.48 2.85.33.59.75.88 1.27.88zm6.04-2.8c-.63 0-1.14-.25-1.52-.75a3.58 3.58 0 01-.56-2.16c0-.92.19-1.63.56-2.13.38-.5.89-.75 1.52-.75s1.13.25 1.52.75c.38.5.57 1.2.57 2.13 0 .94-.2 1.65-.57 2.16-.39.5-.9.75-1.52.75zm0-.71c.36 0 .65-.18.87-.55.23-.37.34-.92.34-1.65a3.1 3.1 0 00-.34-1.62c-.22-.37-.51-.55-.87-.55s-.65.18-.88.55c-.22.35-.33.9-.33 1.62 0 .73.1 1.28.33 1.65.23.37.52.55.88.55zm.26 4.44l5.06-9.52h.79l-5.07 9.52h-.78zm6.14 0c-.63 0-1.14-.25-1.52-.76a3.58 3.58 0 01-.56-2.15c0-.93.18-1.64.56-2.13.38-.5.89-.76 1.52-.76s1.13.25 1.51.76c.39.5.58 1.2.58 2.13 0 .93-.2 1.65-.58 2.15-.38.5-.88.76-1.5.76zm0-.72c.36 0 .65-.18.87-.54.22-.38.34-.93.34-1.65a3.1 3.1 0 00-.34-1.63c-.22-.36-.51-.54-.87-.54s-.66.18-.88.54c-.22.36-.34.9-.34 1.63 0 .72.12 1.28.34 1.65.22.36.52.54.88.54zM427.16 259v-9.16h1.63v3.73h1.3l1.23-2.21c.18-.33.35-.6.52-.82.18-.22.35-.4.52-.51.17-.13.36-.22.56-.27a2.34 2.34 0 01.96-.06c.12.01.23.04.31.09l-.27 1.48a.6.6 0 00-.2-.04.98.98 0 00-.45.03.73.73 0 00-.26.15 3.86 3.86 0 00-.57.78l-1.08 1.92 3.05 4.89h-1.72l-2.62-4.12h-1.28V259h-1.63zm10.92.17a3.25 3.25 0 01-2.28-.94 3.4 3.4 0 01-.72-1.13 4.13 4.13 0 01-.26-1.53c0-.57.09-1.08.26-1.53a3.14 3.14 0 011.76-1.83 3.1 3.1 0 012.47 0c.4.16.75.4 1.05.7.3.3.54.69.72 1.13.18.45.28.96.28 1.53a3.93 3.93 0 01-1 2.66 3.25 3.25 0 01-2.28.94zm0-1.32c.5 0 .9-.2 1.19-.61.29-.42.43-.98.43-1.67 0-.7-.14-1.25-.43-1.67a1.37 1.37 0 00-1.19-.63c-.5 0-.9.21-1.19.63-.28.41-.42.97-.42 1.67s.14 1.25.42 1.67c.29.4.69.61 1.19.61zm4.87 3.87v-9.6h1.33l.11.73h.06c.29-.24.6-.45.96-.63.36-.17.73-.26 1.11-.26a2.45 2.45 0 011.99.95c.23.3.4.68.53 1.1a5.31 5.31 0 01-.07 3.03 3.6 3.6 0 01-.64 1.16c-.27.31-.59.55-.94.72-.36.16-.73.25-1.1.25-.3 0-.6-.07-.9-.2-.3-.13-.6-.32-.87-.56l.04 1.15v2.16h-1.61zm3-3.88c.45 0 .84-.2 1.14-.59.31-.4.47-1 .47-1.78 0-.69-.12-1.22-.35-1.6-.24-.4-.62-.58-1.14-.58-.48 0-.99.25-1.51.77v3.2c.25.22.5.37.73.45.23.09.45.13.66.13zm4.9 1.16v-6.87h5.84V259h-1.61v-5.6h-2.62v5.6h-1.6zm10.72.17a3.25 3.25 0 01-2.28-.94c-.3-.3-.54-.69-.72-1.13a4.13 4.13 0 01-.26-1.53c0-.57.08-1.08.26-1.53a3.14 3.14 0 011.76-1.83 3.1 3.1 0 012.47 0c.4.16.75.4 1.05.7a3.93 3.93 0 011 2.66 3.93 3.93 0 01-1 2.66 3.24 3.24 0 01-2.28.94zm0-1.32c.5 0 .9-.2 1.19-.61.29-.42.43-.98.43-1.67 0-.7-.14-1.25-.43-1.67a1.37 1.37 0 00-1.2-.63c-.5 0-.9.21-1.18.63-.28.41-.42.97-.42 1.67s.14 1.25.42 1.67c.29.4.68.61 1.19.61zm4.87 3.87v-9.6h1.33l.11.73h.06c.29-.24.6-.45.96-.63.36-.17.73-.26 1.1-.26a2.45 2.45 0 012 .95c.23.3.4.68.53 1.1a5.31 5.31 0 01-.07 3.03c-.16.46-.38.84-.65 1.16-.27.31-.58.55-.93.72-.36.16-.73.25-1.11.25-.3 0-.6-.07-.9-.2-.3-.13-.58-.32-.86-.56l.04 1.15v2.16h-1.61zm3-3.88c.45 0 .83-.2 1.14-.59.31-.4.46-1 .46-1.78 0-.69-.11-1.22-.35-1.6-.23-.4-.6-.58-1.13-.58-.49 0-.99.25-1.51.77v3.2c.25.22.5.37.73.45.23.09.45.13.65.13zm6.4 1.33c-.6 0-1.1-.18-1.47-.55a1.99 1.99 0 01-.56-1.47c0-.36.08-.68.23-.96.15-.3.4-.54.72-.75.34-.2.76-.37 1.26-.51.52-.14 1.13-.25 1.84-.33-.01-.17-.04-.34-.09-.5a.98.98 0 00-.2-.43.84.84 0 00-.38-.3 1.37 1.37 0 00-.6-.11c-.33 0-.66.06-.99.2-.31.13-.63.28-.93.47l-.6-1.08c.4-.24.82-.45 1.3-.63.47-.17.99-.26 1.54-.26.85 0 1.5.25 1.91.77.43.5.65 1.24.65 2.2V259h-1.33l-.11-.76h-.06c-.3.26-.64.49-1 .66-.34.18-.72.27-1.13.27zm.52-1.26c.28 0 .53-.07.76-.2.23-.13.48-.31.74-.56v-1.54c-.47.06-.86.13-1.18.23-.31.09-.57.2-.77.32a.96.96 0 00-.55.87c0 .3.1.53.29.67.18.14.42.2.71.2zm6.31 1.09v-5.6h-2.15v-1.27h5.93v1.27h-2.15v5.6h-1.63zm5.16 0v-6.87h1.57v2.36c0 .36-.02.75-.05 1.2l-.09 1.3h.05l.43-.73.42-.73 2.18-3.4h1.49V259h-1.57v-2.37c0-.35.01-.74.04-1.17l.11-1.32h-.05a35.58 35.58 0 01-.86 1.46l-2.18 3.4h-1.49zm8.04 0v-6.87h2.79c.38 0 .73.03 1.05.1.33.05.6.15.84.29a1.53 1.53 0 01.77 1.39c0 .33-.1.63-.3.89-.18.25-.47.43-.85.55v.05c.41.1.75.28 1.02.53.27.26.41.62.41 1.1a1.73 1.73 0 01-.81 1.5c-.25.17-.55.28-.9.36-.33.07-.7.11-1.09.11h-2.93zm1.59-4.09h1.05c.44 0 .77-.07.96-.22.2-.15.3-.36.3-.62 0-.27-.1-.48-.28-.63-.2-.15-.5-.22-.94-.22h-1.1v1.7zm0 3h1.23c.46 0 .8-.1 1-.27a.88.88 0 00.33-.71.8.8 0 00-.34-.67c-.22-.17-.57-.26-1.05-.26h-1.17v1.9zm5.66 1.09v-6.87h1.61v2.63h2.74v-2.63h1.61V259h-1.6v-2.83h-2.75V259h-1.61zm8.01 0v-6.87h1.61v2.35h.73c.41 0 .79.04 1.13.12.36.09.66.22.91.4.25.17.45.4.6.7.14.28.22.62.22 1.02s-.08.76-.23 1.05c-.14.29-.34.53-.59.71-.25.18-.55.31-.9.4a4.8 4.8 0 01-1.14.12h-2.34zm1.61-1.25h.63c.92 0 1.39-.35 1.39-1.05 0-.67-.47-1-1.39-1h-.63v2.05zm4.63 1.25v-6.87H519V259h-1.62zm6.6.17a3.24 3.24 0 01-3.14-2.07 4.33 4.33 0 01-.25-1.53c0-.56.09-1.06.27-1.51a3.2 3.2 0 011.72-1.85 2.99 2.99 0 012.4-.01c.36.15.66.38.89.67.24.29.42.63.55 1.03a4.54 4.54 0 01.1 2.1h-4.36c.07.62.29 1.1.64 1.43a2 2 0 001.39.5c.3 0 .57-.05.83-.13.26-.1.51-.22.77-.38l.54 1c-.33.22-.69.4-1.09.54-.4.14-.82.2-1.26.2zm-1.83-4.26h3.05c0-.53-.12-.94-.35-1.24-.23-.31-.58-.47-1.05-.47-.41 0-.77.15-1.08.44-.3.29-.5.71-.57 1.27zm11.6 4.26a3.25 3.25 0 01-2.28-.94c-.3-.3-.54-.69-.71-1.13a4.13 4.13 0 01-.27-1.53c0-.57.09-1.08.27-1.53a3.14 3.14 0 011.76-1.83 3.1 3.1 0 012.46 0c.4.16.76.4 1.05.7.3.3.54.69.72 1.13.18.45.28.96.28 1.53a3.93 3.93 0 01-1 2.66 3.24 3.24 0 01-2.28.94zm0-1.32c.5 0 .9-.2 1.2-.61.28-.42.43-.98.43-1.67 0-.7-.15-1.25-.44-1.67a1.37 1.37 0 00-1.19-.63c-.5 0-.9.21-1.19.63-.28.41-.42.97-.42 1.67s.14 1.25.42 1.67c.3.4.69.61 1.2.61zm7.84 1.32a2.9 2.9 0 01-2.46-1.15 5.36 5.36 0 01-.86-3.25c0-1.1.1-2 .31-2.67.2-.7.5-1.24.87-1.64.38-.4.84-.7 1.37-.87a9.35 9.35 0 011.76-.42 8.75 8.75 0 001.24-.26l.3-.13.33 1.43c-.2.13-.42.23-.69.3-.26.07-.54.13-.84.17-.52.08-.97.15-1.33.23-.36.07-.65.2-.9.39-.23.18-.41.43-.54.76a5.1 5.1 0 00-.28 1.35c.27-.32.6-.57.96-.74a2.83 2.83 0 012.24-.04c.34.14.63.35.87.63.25.27.43.6.56 1 .14.4.21.85.21 1.37 0 .53-.08 1.01-.24 1.45-.16.44-.37.81-.65 1.12a2.9 2.9 0 01-2.23.97zm-.01-1.32c.44 0 .8-.2 1.07-.6.27-.41.41-.95.41-1.62 0-.68-.13-1.17-.4-1.5a1.33 1.33 0 00-1.1-.5 2.05 2.05 0 00-1.75 1.03v.46c0 .9.15 1.58.45 2.05.3.45.74.68 1.32.68zm4.46 1.32c-.27 0-.51-.05-.73-.14l.28-1.46a.77.77 0 00.34.06c.21 0 .4-.1.53-.28.14-.2.24-.52.3-.95l.25-2.13.24-2.14h4.66V259h-1.61v-5.6h-1.77l-.2 1.72-.22 1.71a3.3 3.3 0 01-.67 1.75c-.34.4-.81.59-1.4.59zm7.9-.17v-6.87h1.58v2.36a881.3 881.3 0 00-.14 2.5h.04l.43-.73.42-.73 2.19-3.4h1.48V259h-1.57v-2.37c0-.35.02-.74.04-1.17l.12-1.32h-.06a31.62 31.62 0 01-.85 1.46l-2.19 3.4h-1.48zm8.05 0v-6.87h4.52v1.27h-2.91v5.6h-1.61zm7.06.17c-.6 0-1.1-.18-1.47-.55a1.99 1.99 0 01-.56-1.47c0-.36.08-.68.23-.96.16-.3.4-.54.73-.75.33-.2.75-.37 1.25-.51.52-.14 1.13-.25 1.84-.33-.01-.17-.04-.34-.08-.5a.98.98 0 00-.22-.43.84.84 0 00-.37-.3 1.37 1.37 0 00-.6-.11c-.33 0-.66.06-.99.2-.31.13-.63.28-.93.47l-.6-1.08c.4-.24.82-.45 1.3-.63.47-.17.99-.26 1.54-.26.86 0 1.5.25 1.91.77.44.5.65 1.24.65 2.2V259h-1.33l-.11-.76h-.06c-.3.26-.64.49-1 .66-.34.18-.72.27-1.13.27zm.52-1.26c.28 0 .53-.07.76-.2.23-.13.48-.31.74-.56v-1.54c-.47.06-.86.13-1.18.23-.31.09-.57.2-.77.32a.96.96 0 00-.55.87c0 .3.1.53.29.67.18.14.42.2.71.2zm5.04 1.09v-6.87h1.6v5.58h2.55v-5.58h1.61v5.58h1.05v1.05l-.16 2.65h-1.39V259h-5.26zm8.05 0v-6.87h1.57v2.36a881.3 881.3 0 00-.14 2.5h.04l.43-.73.42-.73 2.19-3.4h1.48V259h-1.57v-2.37c0-.35.02-.74.04-1.17l.12-1.32h-.06a31.62 31.62 0 01-.85 1.46l-2.19 3.4h-1.48zm8.04 0v-6.87h1.57v2.36a881.3 881.3 0 00-.14 2.5h.04l.43-.73.42-.73 2.19-3.4h1.48V259h-1.57v-2.37c0-.35.02-.74.04-1.17l.12-1.32h-.06a31.62 31.62 0 01-.85 1.46l-2.19 3.4h-1.48zM426.56 280v-.69l1.8-1.82c.51-.54.95-1.04 1.3-1.5.36-.46.63-.88.82-1.27.19-.39.28-.77.28-1.13 0-.51-.14-.94-.42-1.26-.28-.33-.7-.5-1.27-.5-.38 0-.72.12-1.04.33-.32.2-.6.46-.87.76l-.66-.66c.38-.41.77-.74 1.2-.98.41-.25.92-.38 1.5-.38.84 0 1.49.24 1.97.73.47.47.71 1.1.71 1.9 0 .42-.1.85-.28 1.28-.18.42-.43.86-.76 1.31-.31.45-.7.92-1.14 1.42l-1.46 1.55.76-.06.74-.02h2.59v.99h-5.77zm9.88.17c-.9 0-1.6-.4-2.1-1.2-.51-.8-.76-1.96-.76-3.46s.25-2.65.75-3.43c.5-.79 1.21-1.18 2.12-1.18.9 0 1.6.4 2.1 1.18.5.78.75 1.92.75 3.43 0 1.5-.25 2.65-.75 3.45-.5.8-1.2 1.2-2.1 1.2zm0-.93c.27 0 .5-.07.7-.2.22-.16.4-.38.55-.68.16-.3.28-.7.37-1.16.08-.48.12-1.04.12-1.7 0-.65-.04-1.2-.13-1.67-.08-.47-.2-.85-.36-1.14-.15-.3-.33-.52-.55-.66-.2-.14-.43-.2-.7-.2-.26 0-.5.06-.7.2-.22.14-.41.36-.57.66-.15.3-.27.67-.35 1.14a9.64 9.64 0 00-.13 1.68c0 1.3.16 2.25.48 2.85.33.59.75.88 1.27.88zm6.05-2.8c-.63 0-1.14-.25-1.52-.75a3.58 3.58 0 01-.56-2.16c0-.92.19-1.63.56-2.13.38-.5.89-.75 1.52-.75s1.13.25 1.52.75c.38.5.57 1.2.57 2.13 0 .94-.2 1.65-.57 2.16-.39.5-.9.75-1.52.75zm0-.71c.36 0 .65-.18.87-.55.23-.37.34-.92.34-1.65a3.1 3.1 0 00-.34-1.62c-.22-.37-.51-.55-.87-.55s-.65.18-.88.55c-.22.35-.33.9-.33 1.62 0 .73.1 1.28.33 1.65.23.37.52.55.88.55zm.26 4.44l5.06-9.52h.79l-5.07 9.52h-.78zm6.14 0c-.63 0-1.14-.25-1.52-.76a3.58 3.58 0 01-.56-2.15c0-.93.18-1.64.56-2.13.38-.5.89-.76 1.52-.76s1.13.25 1.51.76c.39.5.58 1.2.58 2.13 0 .93-.2 1.65-.58 2.15-.38.5-.88.76-1.5.76zm0-.72c.36 0 .65-.18.87-.54.22-.38.34-.93.34-1.65a3.1 3.1 0 00-.34-1.63c-.22-.36-.51-.54-.87-.54s-.66.18-.88.54c-.22.36-.34.9-.34 1.63 0 .72.12 1.28.34 1.65.22.36.52.54.88.54zM427.16 207v-9.16h5.53v1.38h-3.9V207h-1.63zm8.47.17a3.25 3.25 0 01-2.28-.94 3.4 3.4 0 01-.71-1.13 4.13 4.13 0 01-.27-1.53c0-.57.09-1.08.27-1.53a3.14 3.14 0 011.76-1.83 3.1 3.1 0 012.46 0c.4.16.76.4 1.06.7a3.93 3.93 0 011 2.66 3.93 3.93 0 01-1 2.66 3.25 3.25 0 01-2.28.94zm0-1.32c.5 0 .9-.2 1.2-.61.28-.42.43-.98.43-1.67 0-.7-.15-1.25-.44-1.67a1.37 1.37 0 00-1.19-.63c-.5 0-.9.21-1.19.63-.28.41-.42.97-.42 1.67s.14 1.25.42 1.67c.3.4.69.61 1.2.61zm7.74 1.32c-.46 0-.9-.08-1.31-.24a2.97 2.97 0 01-1.75-1.83 4.33 4.33 0 01-.26-1.53c0-.57.1-1.08.28-1.53a3.24 3.24 0 011.85-1.83c.42-.17.86-.25 1.32-.25.45 0 .83.07 1.15.22.32.15.61.33.86.55l-.78 1.05a2.35 2.35 0 00-.56-.37c-.18-.09-.37-.14-.59-.14-.56 0-1.01.21-1.36.63a2.5 2.5 0 00-.51 1.67c0 .7.16 1.25.5 1.67.35.4.79.61 1.33.61.27 0 .52-.05.76-.17.24-.12.46-.26.65-.42l.66 1.07a3.4 3.4 0 01-2.24.84zm4.12 2.66a2.52 2.52 0 01-.9-.14l.3-1.26a3.84 3.84 0 00.48.1c.37 0 .66-.12.87-.34a2 2 0 00.5-.84l.13-.43-2.7-6.8h1.64l1.19 3.38.3.95.3.98h.06a131.6 131.6 0 00.51-1.93l1.04-3.37h1.55l-2.49 7.18c-.14.39-.3.74-.46 1.05-.17.3-.36.57-.59.78-.21.23-.47.4-.75.5-.28.13-.61.19-.98.19zm7.04-2.83v2.4h-1.4l-.15-2.64v-1.05h.4a.84.84 0 00.23-.2c.08-.1.16-.25.24-.44.07-.2.14-.46.2-.79.07-.32.14-.75.2-1.27l.34-2.88h4.72v5.58h1.05v1.05l-.17 2.65h-1.39V207h-4.27zm1.12-3.64c-.06.54-.15 1-.26 1.39-.1.38-.24.7-.4.96h2.7v-4.31h-1.83l-.2 1.96zm7.7 3.8c-.61 0-1.1-.17-1.47-.54a1.99 1.99 0 01-.56-1.47c0-.36.07-.68.22-.96.16-.3.4-.54.73-.75.33-.2.75-.37 1.26-.51s1.12-.25 1.83-.33c0-.17-.04-.34-.08-.5a.98.98 0 00-.21-.43.84.84 0 00-.38-.3 1.37 1.37 0 00-.59-.11c-.33 0-.67.06-1 .2-.3.13-.62.28-.93.47l-.59-1.08c.38-.24.81-.45 1.29-.63.48-.17.99-.26 1.54-.26.86 0 1.5.25 1.92.77.43.5.64 1.24.64 2.2V207h-1.33l-.11-.76h-.06c-.3.26-.64.48-.99.66-.35.18-.72.27-1.13.27zm.51-1.25c.28 0 .54-.07.76-.2.23-.13.48-.31.74-.56v-1.54c-.46.06-.86.13-1.17.23-.32.09-.58.2-.77.32a.96.96 0 00-.55.87c0 .3.1.53.28.67.19.14.43.2.71.2zm5.04 3.8v-9.58h1.33l.11.72h.06c.29-.24.6-.45.96-.63.36-.17.73-.26 1.1-.26a2.45 2.45 0 012 .95c.23.3.4.68.53 1.1a5.31 5.31 0 01-.07 3.03c-.16.46-.37.84-.65 1.16-.27.31-.58.55-.93.72-.36.16-.73.25-1.1.25-.3 0-.6-.07-.9-.2-.3-.13-.6-.31-.87-.56l.04 1.15v2.16h-1.61zm3-3.87c.45 0 .84-.2 1.14-.59.31-.4.46-1 .46-1.78 0-.69-.11-1.22-.35-1.6-.23-.4-.6-.58-1.13-.58-.48 0-.99.25-1.51.77v3.2c.25.22.5.37.73.45.23.09.45.13.65.13zm7.77 1.33c-.47 0-.9-.08-1.31-.24a2.97 2.97 0 01-1.75-1.83 4.33 4.33 0 01-.26-1.53c0-.57.1-1.08.28-1.53a3.24 3.24 0 011.85-1.83c.42-.17.86-.25 1.32-.25.44 0 .83.07 1.14.22.33.15.62.33.87.55l-.78 1.05a2.35 2.35 0 00-.56-.37c-.18-.09-.37-.14-.59-.14-.56 0-1.01.21-1.36.63a2.5 2.5 0 00-.51 1.67c0 .7.16 1.25.5 1.67.35.4.79.61 1.33.61.27 0 .52-.05.76-.17.24-.12.46-.26.65-.42l.66 1.07a3.4 3.4 0 01-2.24.84zm4.96-.17v-5.6h-2.16v-1.27h5.94v1.27h-2.16v5.6h-1.62zm5.16 0v-6.87h2.79c.38 0 .73.03 1.05.1.32.05.6.15.84.29a1.53 1.53 0 01.77 1.39c0 .33-.1.63-.3.89-.19.25-.47.43-.85.55v.05c.4.1.75.28 1.02.53.27.26.4.62.4 1.1a1.73 1.73 0 01-.8 1.5c-.26.17-.56.28-.9.36-.34.07-.7.11-1.1.11h-2.92zm1.58-4.09h1.05c.45 0 .77-.07.97-.22.2-.15.3-.36.3-.62 0-.27-.1-.48-.29-.63-.19-.15-.5-.22-.94-.22h-1.09v1.7zm0 3h1.23c.47 0 .8-.1 1.01-.27a.88.88 0 00.32-.71.8.8 0 00-.33-.67c-.23-.17-.58-.26-1.05-.26h-1.18v1.9zm8.6 1.26a3.24 3.24 0 01-3.14-2.07 4.33 4.33 0 01-.24-1.53c0-.56.09-1.06.26-1.51a3.2 3.2 0 011.72-1.85 2.99 2.99 0 012.4-.01c.37.15.66.38.9.67.24.29.42.63.54 1.03a4.54 4.54 0 01.11 2.1h-4.36c.07.62.28 1.1.64 1.43a2 2 0 001.39.5c.3 0 .57-.05.82-.13.26-.1.52-.22.77-.38l.55 1c-.33.22-.7.4-1.1.54-.4.14-.82.2-1.25.2zm-1.83-4.26h3.05c0-.53-.11-.94-.35-1.24-.22-.31-.57-.47-1.05-.47-.4 0-.77.15-1.07.44-.31.29-.5.71-.58 1.27zm6 4.09v-6.87h1.6v2.63h2.75v-2.63h1.6V207h-1.6v-2.83h-2.75V207h-1.6zm8 0v-6.87h1.61v2.63h2.75v-2.63h1.6V207h-1.6v-2.83h-2.75V207h-1.6zm8.01 0v-6.87h1.62v2.35h.72c.41 0 .8.04 1.14.12.35.09.65.22.9.4.26.17.46.4.6.7.14.28.22.62.22 1.02s-.08.76-.23 1.05c-.13.29-.33.52-.58.71-.25.18-.56.31-.91.4a4.8 4.8 0 01-1.14.12h-2.34zm1.62-1.25h.63c.92 0 1.38-.35 1.38-1.05 0-.67-.46-1-1.38-1h-.63v2.05zm4.63 1.25v-6.87h1.6V207h-1.6zm6.6.17a3.25 3.25 0 01-3.14-2.07 4.33 4.33 0 01-.25-1.53c0-.56.08-1.06.26-1.51a3.22 3.22 0 011.72-1.85 2.9 2.9 0 011.18-.25c.47 0 .88.08 1.23.24.36.16.65.38.88.67.25.29.43.63.55 1.03a4.5 4.5 0 01.11 2.1h-4.37c.08.62.3 1.1.65 1.43a2 2 0 001.38.5c.3 0 .58-.05.83-.13.26-.1.52-.22.77-.38l.55 1c-.33.22-.7.4-1.1.54-.4.14-.82.2-1.26.2zm-1.84-4.26h3.05c0-.53-.12-.94-.35-1.24-.22-.31-.57-.47-1.05-.47-.4 0-.77.15-1.08.44-.3.29-.5.71-.57 1.27zm11.6 4.26a3.24 3.24 0 01-2.28-.94 3.4 3.4 0 01-.71-1.13 4.1 4.1 0 01-.27-1.53c0-.57.1-1.08.27-1.53a3.14 3.14 0 011.76-1.83 3.1 3.1 0 012.47 0c.4.16.75.4 1.05.7a3.95 3.95 0 011 2.66 3.95 3.95 0 01-1 2.66 3.25 3.25 0 01-2.28.94zm0-1.32c.51 0 .9-.2 1.2-.61.28-.42.43-.98.43-1.67 0-.7-.14-1.25-.43-1.67a1.37 1.37 0 00-1.2-.63c-.5 0-.9.21-1.18.63-.28.41-.42.97-.42 1.67s.14 1.25.42 1.67c.28.4.68.61 1.19.61zm7.84 1.32a2.9 2.9 0 01-2.46-1.15 5.36 5.36 0 01-.86-3.25c0-1.1.1-2 .31-2.67.2-.7.5-1.24.87-1.64.38-.4.84-.7 1.37-.87a9.35 9.35 0 011.77-.42 8.62 8.62 0 001.23-.26l.3-.13.33 1.43a2.2 2.2 0 01-.69.3c-.26.07-.54.13-.84.17-.52.08-.96.15-1.33.23-.35.07-.65.2-.9.39-.23.18-.4.43-.54.76-.13.32-.22.78-.28 1.35a2.84 2.84 0 013.2-.78c.34.14.63.35.88.63.24.27.42.6.55 1 .14.4.22.85.22 1.37 0 .53-.08 1.01-.24 1.45a3.3 3.3 0 01-.66 1.12 2.9 2.9 0 01-2.23.97zm-.01-1.32c.45 0 .8-.2 1.08-.6.27-.41.4-.95.4-1.62 0-.68-.13-1.17-.39-1.5a1.33 1.33 0 00-1.1-.5 2.05 2.05 0 00-1.75 1.03v.46c0 .9.14 1.58.44 2.05.3.45.74.68 1.32.68zm4.46 1.32c-.27 0-.5-.05-.72-.14l.28-1.46a.75.75 0 00.33.06c.22 0 .4-.1.53-.28.14-.2.24-.51.3-.95a154.07 154.07 0 00.49-4.27h4.66V207h-1.6v-5.6h-1.77c-.08.57-.15 1.14-.21 1.72l-.21 1.71c-.1.76-.33 1.35-.67 1.75-.35.4-.82.59-1.4.59zm7.91-.17v-6.87h1.57v2.36a881.3 881.3 0 00-.14 2.5h.04a21.2 21.2 0 00.85-1.46l2.19-3.4h1.48V207h-1.57v-2.37c0-.35.02-.74.05-1.17l.1-1.32h-.05a31.62 31.62 0 01-.85 1.46l-2.18 3.4h-1.49zm8.04 0v-6.87h4.52v1.27h-2.9v5.6H571zm7.07.17c-.61 0-1.1-.18-1.47-.55a1.99 1.99 0 01-.56-1.47c0-.36.07-.68.22-.96.16-.3.4-.54.73-.75.34-.2.75-.37 1.26-.51s1.12-.25 1.83-.33c0-.17-.03-.34-.08-.5a.98.98 0 00-.21-.43.84.84 0 00-.38-.3 1.37 1.37 0 00-.59-.11c-.33 0-.66.06-1 .2-.3.13-.62.28-.93.47l-.59-1.08c.39-.24.82-.45 1.3-.63.47-.17.98-.26 1.53-.26.86 0 1.5.25 1.92.77.43.5.64 1.24.64 2.2V207h-1.33l-.1-.76h-.06c-.31.26-.64.48-1 .66-.34.18-.72.27-1.13.27zm.51-1.26c.28 0 .54-.07.76-.2.23-.13.48-.31.74-.56v-1.54c-.46.06-.86.13-1.17.23-.32.09-.58.2-.77.32a.96.96 0 00-.55.87c0 .3.1.53.28.67.19.14.43.2.72.2zm5.04 1.09v-6.87h1.61v5.58h2.55v-5.58h1.6v5.58h1.06v1.05l-.17 2.65h-1.39V207h-5.26zm8.05 0v-6.87h1.57v2.36a881.3 881.3 0 00-.14 2.5h.04a21.2 21.2 0 00.85-1.46l2.19-3.4h1.48V207h-1.56v-2.37c0-.35.01-.74.04-1.17l.11-1.32h-.06a31.62 31.62 0 01-.85 1.46l-2.18 3.4h-1.49zm8.04 0v-6.87h1.57v2.36a881.3 881.3 0 00-.14 2.5h.04a21.2 21.2 0 00.85-1.46l2.19-3.4h1.48V207h-1.57v-2.37c0-.35.02-.74.05-1.17l.1-1.32h-.05a31.62 31.62 0 01-.85 1.46l-2.18 3.4h-1.49zM429.04 150.13l-.32 1.12h2.33l-.32-1.12a49.33 49.33 0 01-.82-3.03h-.06l-.4 1.54c-.12.5-.26 1-.41 1.49zm-3.07 4.87l2.98-9.16h1.9l2.99 9.16h-1.7l-.72-2.48h-3.08l-.72 2.48h-1.65zm8.86 0v-6.87h1.6v2.67h1.02l.64-1.39c.13-.3.27-.54.4-.72.16-.2.31-.34.47-.44.16-.11.33-.19.52-.22.18-.05.38-.07.6-.07.19 0 .35.03.49.08l-.27 1.5a.8.8 0 00-.73.11c-.14.1-.3.31-.44.66l-.48 1.06L441 155h-1.78l-1.73-2.91h-1.04V155h-1.61zm7.31 0v-6.87h1.61v5.58h2.55v-5.58h1.61v5.58h1.05v1.05l-.17 2.65h-1.38V155h-5.27zm8.06 0v-6.87h1.56v2.36c0 .36-.01.75-.05 1.2l-.09 1.3h.05l.43-.73.42-.73 2.18-3.4h1.49V155h-1.57v-2.37c0-.35.01-.74.04-1.17l.11-1.32h-.05a35.58 35.58 0 01-.86 1.46l-2.18 3.4h-1.48zm8.04 0v-6.87h1.56v2.36c0 .36-.02.75-.05 1.2l-.09 1.3h.04l.44-.73.42-.73 2.18-3.4h1.49V155h-1.57v-2.37c0-.35.01-.74.04-1.17l.11-1.32h-.05a31.62 31.62 0 01-.86 1.46l-2.18 3.4h-1.49zM401.58 106V94.23h2.07v5.11c0 .66-.03 1.34-.09 2.05l-.18 1.96h.07l1.23-2.5 3.69-6.62h2.21V106h-2.07v-5.15c0-.66.03-1.33.09-2.01l.18-1.97h-.07l-1.2 2.49-3.72 6.64h-2.21zm11.8 0v-8.84h2.08v3.39h3.53v-3.39h2.07V106h-2.07v-3.64h-3.53V106h-2.07zm10.3 0v-8.84h3.6c.48 0 .93.04 1.34.13.42.07.78.2 1.08.38a1.97 1.97 0 01.99 1.78c0 .43-.13.81-.38 1.15-.24.32-.6.56-1.1.7v.07c.53.14.97.36 1.32.69.35.32.52.79.52 1.4a2.22 2.22 0 01-1.04 1.95c-.33.2-.71.35-1.15.45-.44.1-.9.14-1.4.14h-3.77zm2.04-5.26h1.35c.58 0 1-.1 1.25-.28.25-.2.37-.46.37-.8a.98.98 0 00-.36-.8c-.24-.2-.64-.3-1.2-.3h-1.4v2.18zm0 3.86h1.59c.6 0 1.03-.12 1.3-.35.27-.22.4-.53.4-.91 0-.36-.14-.65-.43-.87-.28-.21-.73-.32-1.34-.32h-1.52v2.45zm11.06 1.62a4.17 4.17 0 01-4.03-2.66 5.56 5.56 0 01-.32-1.97c0-.72.11-1.37.34-1.94a4.13 4.13 0 012.21-2.38c.5-.22 1-.32 1.52-.32.6 0 1.13.1 1.58.3.46.2.84.5 1.13.87.32.37.55.81.7 1.33a5.83 5.83 0 01.15 2.7h-5.62c.1.79.38 1.4.83 1.83.47.42 1.06.63 1.79.63.38 0 .73-.05 1.06-.16.33-.12.66-.28.99-.48l.7 1.3c-.42.27-.89.5-1.4.68-.52.18-1.06.27-1.63.27zm-2.35-5.48h3.92c0-.68-.15-1.21-.45-1.6-.29-.4-.74-.6-1.35-.6-.53 0-.99.2-1.38.57-.4.37-.65.91-.74 1.63zm11.39 5.48c-.6 0-1.17-.1-1.7-.31-.51-.2-.96-.5-1.34-.9-.39-.4-.69-.88-.9-1.46a5.56 5.56 0 01-.33-1.96c0-.73.12-1.39.36-1.96a4.14 4.14 0 012.38-2.36c.54-.22 1.1-.32 1.69-.32.58 0 1.07.1 1.48.28.42.2.79.43 1.11.7l-1 1.36c-.25-.2-.49-.36-.73-.47a1.6 1.6 0 00-.75-.18c-.72 0-1.3.27-1.75.8a3.22 3.22 0 00-.66 2.15c0 .89.21 1.6.64 2.14.45.53 1.02.8 1.71.8.35 0 .68-.08.98-.22.3-.16.59-.34.84-.54l.85 1.37a4.38 4.38 0 01-2.88 1.08zm6.37-.22v-7.2h-2.77v-1.64h7.63v1.64h-2.77v7.2h-2.09zm6.64 0v-8.84h2.01v3.04c0 .46-.02.97-.07 1.53l-.1 1.68h.05c.15-.28.34-.59.56-.94l.54-.93 2.8-4.38h1.91V106h-2.01v-3.04c0-.46.01-.96.05-1.51l.14-1.7h-.07a43.2 43.2 0 01-1.1 1.88l-2.8 4.37h-1.91zm10.33 0v-8.84h2.07v7.18h3.28v-7.18h2.07v7.18h1.35v1.35l-.22 3.4h-1.78V106h-6.77zm10.36 0v-8.84h2.01v3.04c0 .46-.02.97-.07 1.53l-.1 1.68h.05c.15-.28.34-.59.55-.94l.55-.93 2.8-4.38h1.91V106h-2.02v-3.04c0-.46.02-.96.06-1.51l.14-1.7h-.07a43.2 43.2 0 01-1.1 1.88l-2.8 4.37h-1.91zm10.33 0v-8.84h2.02v3.04c0 .46-.02.97-.07 1.53l-.11 1.68h.05l.56-.94.54-.93 2.8-4.38h1.92V106h-2.02v-3.04c0-.46.02-.96.06-1.51l.14-1.7h-.07a43.2 43.2 0 01-1.1 1.88l-2.8 4.37h-1.92zm13.94 0v-8.84h3.58c.5 0 .95.04 1.36.13.41.07.77.2 1.07.38.32.18.56.42.72.72.19.28.28.64.28 1.06 0 .43-.13.81-.38 1.15-.24.32-.6.56-1.1.7v.07c.53.14.97.36 1.31.69.35.32.52.79.52 1.4a2.22 2.22 0 01-1.04 1.95c-.32.2-.7.35-1.15.45-.43.1-.9.14-1.4.14h-3.77zm2.04-5.26h1.35c.57 0 .99-.1 1.24-.28.25-.2.38-.46.38-.8a.98.98 0 00-.36-.8c-.24-.2-.64-.3-1.2-.3h-1.41v2.18zm0 3.86h1.58c.6 0 1.03-.12 1.3-.35.27-.22.41-.53.41-.91 0-.36-.14-.65-.43-.87-.29-.21-.74-.32-1.35-.32h-1.51v2.45zm7.05 1.62c-.35 0-.66-.06-.94-.18l.36-1.88a1.03 1.03 0 00.43.08c.28 0 .5-.12.68-.36.19-.26.31-.66.38-1.23l.33-2.73.3-2.76h6V106h-2.07v-7.2h-2.27c-.1.73-.19 1.47-.27 2.21a137 137 0 01-.27 2.2 4.26 4.26 0 01-.87 2.25c-.44.5-1.04.76-1.8.76zm12.3 0a2.6 2.6 0 01-1.89-.7 2.56 2.56 0 01-.72-1.9c0-.46.1-.88.3-1.24.2-.37.5-.69.93-.95a6.4 6.4 0 011.62-.67c.66-.18 1.44-.32 2.36-.41a2.81 2.81 0 00-.11-.65c-.05-.22-.14-.4-.27-.56a1.1 1.1 0 00-.49-.38c-.2-.1-.45-.14-.75-.14-.44 0-.86.08-1.28.25-.41.17-.81.37-1.2.61l-.76-1.38c.49-.31 1.04-.58 1.65-.81a5.63 5.63 0 011.98-.34c1.1 0 1.93.33 2.47.99.55.64.83 1.59.83 2.82V106h-1.72l-.14-.97h-.07c-.4.33-.82.62-1.28.84-.44.23-.93.35-1.46.35zm.67-1.62c.36 0 .68-.09.97-.26.3-.16.62-.4.95-.72v-1.98c-.6.08-1.1.17-1.5.3-.41.11-.75.25-1 .4-.25.15-.43.32-.54.51-.1.2-.16.4-.16.61 0 .4.12.69.36.87.24.18.55.27.92.27zm7.43 1.4v3.1h-1.8l-.2-3.4v-1.36h.5c.11-.06.21-.15.3-.27.12-.12.22-.3.31-.55.1-.26.19-.6.27-1.01.09-.42.17-.97.26-1.64l.43-3.7h6.06v7.17h1.35v1.35l-.21 3.4h-1.78V106h-5.5zm1.44-4.68c-.09.7-.2 1.29-.35 1.78-.13.5-.3.9-.5 1.24h3.47V98.8H535l-.27 2.52zm11.42 4.9a4.17 4.17 0 01-4.03-2.66 5.56 5.56 0 01-.33-1.97c0-.72.12-1.37.35-1.94a4.13 4.13 0 012.21-2.38c.5-.22 1-.32 1.51-.32.6 0 1.13.1 1.58.3.46.2.84.5 1.14.87.31.37.54.81.7 1.33a5.83 5.83 0 01.14 2.7h-5.61c.1.79.37 1.4.83 1.83.47.42 1.06.63 1.78.63.38 0 .74-.05 1.06-.16.34-.12.67-.28 1-.48l.7 1.3c-.43.27-.9.5-1.41.68-.52.18-1.06.27-1.62.27zm-2.36-5.48h3.93c0-.68-.16-1.21-.46-1.6-.28-.4-.73-.6-1.35-.6-.52 0-.99.2-1.38.57-.4.37-.64.91-.74 1.63zm7.47 5.48c-.35 0-.66-.06-.94-.18l.36-1.88a1.03 1.03 0 00.43.08c.28 0 .5-.12.69-.36.18-.26.3-.66.38-1.23.12-.92.22-1.83.32-2.73.1-.92.21-1.83.3-2.76h6V106h-2.07v-7.2h-2.27c-.1.73-.18 1.47-.27 2.21a137 137 0 01-.27 2.2 4.26 4.26 0 01-.86 2.25c-.45.5-1.05.76-1.8.76zm10.16-.22v-8.84h2.07v3.03h1.34c.52 0 1.01.05 1.45.16.46.1.85.27 1.17.5.33.23.58.53.76.9.18.36.27.8.27 1.32s-.09.97-.27 1.35c-.18.37-.43.67-.76.91-.32.23-.71.4-1.17.5-.44.12-.93.17-1.45.17h-3.4zm2.07-1.6h1.2c1.2 0 1.8-.45 1.8-1.35 0-.87-.6-1.3-1.8-1.3h-1.2v2.65zm7 1.6v-8.84h2.07v7.18h3.28v-7.18h2.07v7.18h1.35v1.35l-.22 3.4h-1.78V106h-6.77zm14.14.22a4.17 4.17 0 01-4.03-2.66 5.56 5.56 0 01-.33-1.97c0-.72.12-1.37.34-1.94a4.13 4.13 0 012.21-2.38c.5-.22 1-.32 1.52-.32.6 0 1.13.1 1.58.3.46.2.84.5 1.14.87.3.37.54.81.7 1.33a5.83 5.83 0 01.14 2.7h-5.61c.1.79.37 1.4.83 1.83.46.42 1.06.63 1.78.63.38 0 .74-.05 1.06-.16.33-.12.66-.28.99-.48l.7 1.3c-.42.27-.89.5-1.4.68-.52.18-1.06.27-1.62.27zm-2.36-5.48h3.92c0-.68-.15-1.21-.45-1.6-.28-.4-.74-.6-1.35-.6-.52 0-.99.2-1.38.57-.4.37-.64.91-.74 1.63zm7.7 5.26v-8.84h3.58c.5 0 .94.04 1.35.13.42.07.78.2 1.08.38a1.97 1.97 0 01.99 1.78c0 .43-.12.81-.38 1.15-.24.32-.6.56-1.1.7v.07c.53.14.97.36 1.32.69.35.32.52.79.52 1.4a2.22 2.22 0 01-1.04 1.95c-.33.2-.71.35-1.15.45-.44.1-.9.14-1.4.14h-3.77zm2.03-5.26h1.35c.58 0 1-.1 1.25-.28.25-.2.37-.46.37-.8a.98.98 0 00-.36-.8c-.24-.2-.64-.3-1.2-.3H592v2.18zm0 3.86h1.59c.6 0 1.03-.12 1.3-.35.27-.22.4-.53.4-.91 0-.36-.14-.65-.42-.87-.3-.21-.74-.32-1.35-.32h-1.52v2.45zm11.07 1.4V94.23h2.07v5.11c0 .66-.03 1.34-.09 2.05l-.18 1.96h.07l1.23-2.5 3.69-6.62h2.21V106h-2.07v-5.15c0-.66.03-1.33.09-2.01l.18-1.97h-.07l-1.2 2.49-3.72 6.64h-2.21zm11.99 0V94.23h2.07v5.11c0 .66-.03 1.34-.1 2.05-.05.7-.11 1.35-.17 1.96h.07l1.23-2.5 3.69-6.62h2.2V106h-2.06v-5.15c0-.66.03-1.33.09-2.01l.18-1.97h-.07l-1.2 2.49-3.72 6.64h-2.21zm16.69.22c-.75 0-1.45-.14-2.1-.4a4.71 4.71 0 01-1.68-1.17 5.72 5.72 0 01-1.12-1.9 7.53 7.53 0 01-.42-2.6c0-.96.14-1.82.42-2.57.29-.77.67-1.42 1.15-1.95a4.99 4.99 0 013.82-1.62c.74 0 1.4.15 1.98.45.57.3 1.05.65 1.42 1.05l-1.12 1.35a3.88 3.88 0 00-1-.74 2.94 2.94 0 00-3.6.86c-.3.36-.52.8-.69 1.33a6.28 6.28 0 00-.23 1.79c0 1.34.28 2.4.86 3.16a2.85 2.85 0 002.38 1.14c.53 0 1-.11 1.4-.33.4-.22.78-.52 1.12-.88l1.11 1.32a4.76 4.76 0 01-3.7 1.71z" fill="#000218"/><circle cx="408" cy="150" r="8" fill="#5974FF"/><circle cx="408" cy="202" r="8" fill="#FFD978"/><circle cx="408" cy="254" r="8" fill="#FFA081"/></svg>