<svg fill="none" xmlns="http://www.w3.org/2000/svg" viewBox="0 0 700 339"><path fill="#F1F4FB" d="M0 0h700v339H0z"/><path fill="#5974FF" stroke="#FCFCFC" d="M30.5 263.5h639v45h-639zM30.5 217.5h339v45h-339zM30.5 171.5h239v45h-239zM30.5 125.5h183v45h-183zM30.5 79.5h139v45h-139z"/><path d="M40.56 300v-.69l1.8-1.82c.51-.54.95-1.04 1.3-1.5.36-.46.63-.88.82-1.27.19-.39.28-.77.28-1.13 0-.51-.14-.94-.42-1.26-.28-.33-.7-.5-1.27-.5-.38 0-.72.12-1.04.33-.32.2-.6.46-.87.76l-.66-.66a5 5 0 011.2-.98c.41-.25.92-.38 1.5-.38.84 0 1.49.24 1.97.73.47.47.71 1.1.71 1.9 0 .42-.1.85-.28 1.28-.18.42-.43.86-.76 1.31-.31.45-.7.92-1.14 1.42l-1.46 1.55.76-.06.74-.02h2.59v.99h-5.77zm12.69.17c-.9 0-1.61-.4-2.12-1.2-.5-.8-.75-1.96-.75-3.46s.25-2.65.75-3.43c.5-.79 1.21-1.18 2.12-1.18.9 0 1.6.4 2.1 1.18.5.78.75 1.92.75 3.43 0 1.5-.25 2.65-.75 3.45-.5.8-1.2 1.2-2.1 1.2zm0-.93c.26 0 .5-.07.7-.2.21-.16.4-.38.54-.68.16-.3.28-.7.37-1.16.08-.48.12-1.04.12-1.7 0-.65-.04-1.2-.12-1.67-.09-.47-.2-.85-.37-1.14-.15-.3-.33-.52-.54-.66-.2-.14-.44-.2-.7-.2-.26 0-.5.06-.72.2-.21.14-.4.36-.56.66-.15.3-.26.67-.35 1.14a9.64 9.64 0 00-.12 1.68c0 1.3.16 2.25.47 2.85.33.59.76.88 1.28.88zm6.96.93c-.9 0-1.61-.4-2.12-1.2-.5-.8-.75-1.96-.75-3.46s.25-2.65.75-3.43c.5-.79 1.21-1.18 2.12-1.18.9 0 1.6.4 2.1 1.18.5.78.75 1.92.75 3.43 0 1.5-.25 2.65-.75 3.45-.5.8-1.2 1.2-2.1 1.2zm0-.93c.26 0 .5-.07.7-.2.21-.16.4-.38.54-.68.16-.3.28-.7.37-1.16.08-.48.12-1.04.12-1.7 0-.65-.04-1.2-.12-1.67-.09-.47-.2-.85-.37-1.14-.15-.3-.33-.52-.54-.66-.2-.14-.44-.2-.7-.2-.26 0-.5.06-.72.2-.21.14-.4.36-.56.66-.15.3-.26.67-.35 1.14a9.64 9.64 0 00-.12 1.68c0 1.3.16 2.25.47 2.85.33.59.75.88 1.28.88zm6.96.93c-.91 0-1.61-.4-2.12-1.2-.5-.8-.75-1.96-.75-3.46s.25-2.65.75-3.43c.5-.79 1.21-1.18 2.12-1.18.9 0 1.6.4 2.1 1.18.5.78.75 1.92.75 3.43 0 1.5-.25 2.65-.75 3.45-.5.8-1.2 1.2-2.1 1.2zm0-.93c.26 0 .49-.07.7-.2.21-.16.4-.38.54-.68.16-.3.28-.7.37-1.16.08-.48.12-1.04.12-1.7 0-.65-.04-1.2-.12-1.67-.09-.47-.21-.85-.37-1.14-.15-.3-.33-.52-.54-.66-.21-.14-.44-.2-.7-.2-.27 0-.5.06-.72.2-.21.14-.4.36-.56.66-.15.3-.26.67-.35 1.14a9.64 9.64 0 00-.12 1.68c0 1.3.15 2.25.47 2.85.33.59.75.88 1.28.88zM40.56 282v-.69l1.8-1.82c.51-.54.95-1.04 1.3-1.5.36-.46.63-.88.82-1.27.19-.39.28-.77.28-1.13 0-.51-.14-.94-.42-1.26-.28-.33-.7-.5-1.27-.5-.38 0-.72.12-1.04.33-.32.2-.6.46-.87.76l-.66-.66a5 5 0 011.2-.98c.41-.25.92-.38 1.5-.38.84 0 1.49.24 1.97.73.47.47.71 1.1.71 1.9 0 .42-.1.85-.28 1.28-.18.42-.43.86-.76 1.31-.31.45-.7.92-1.14 1.42l-1.46 1.55.76-.06.74-.02h2.59v.99h-5.77zm9.88.17c-.9 0-1.6-.4-2.1-1.2-.51-.8-.77-1.96-.77-3.46s.26-2.65.76-3.43c.5-.79 1.21-1.18 2.12-1.18.9 0 1.6.4 2.1 1.18.5.78.75 1.92.75 3.43 0 1.5-.25 2.65-.75 3.45-.5.8-1.2 1.2-2.1 1.2zm0-.93c.27 0 .5-.07.7-.2.22-.16.4-.38.55-.68.16-.3.28-.7.37-1.16.08-.48.12-1.04.12-1.7 0-.65-.04-1.2-.13-1.67-.08-.47-.2-.85-.36-1.14-.15-.3-.33-.52-.54-.66-.21-.14-.44-.2-.7-.2-.27 0-.5.06-.72.2-.21.14-.4.36-.56.66-.15.3-.27.67-.35 1.14a9.64 9.64 0 00-.13 1.68c0 1.3.16 2.25.48 2.85.33.59.75.88 1.27.88zm4.04.76v-.69c.67-.67 1.27-1.27 1.79-1.82.52-.54.96-1.04 1.32-1.5.35-.46.62-.88.8-1.27.2-.39.29-.77.29-1.13 0-.51-.14-.94-.42-1.26-.28-.33-.7-.5-1.28-.5-.37 0-.71.12-1.03.33-.32.2-.6.46-.87.76l-.66-.66a5 5 0 011.2-.98c.41-.25.92-.38 1.5-.38.83 0 1.49.24 1.96.73.48.47.72 1.1.72 1.9 0 .42-.1.85-.28 1.28-.18.42-.43.86-.76 1.31-.32.45-.7.92-1.15 1.42-.43.48-.92 1-1.45 1.55l.75-.06.75-.02h2.59v.99h-5.77zm9.88.17c-.9 0-1.6-.4-2.11-1.2-.5-.8-.76-1.96-.76-3.46s.25-2.65.76-3.43c.5-.79 1.2-1.18 2.11-1.18.9 0 1.6.4 2.1 1.18.5.78.76 1.92.76 3.43 0 1.5-.25 2.65-.76 3.45-.5.8-1.2 1.2-2.1 1.2zm0-.93c.26 0 .5-.07.7-.2.22-.16.4-.38.55-.68.16-.3.28-.7.36-1.16.09-.48.13-1.04.13-1.7 0-.65-.04-1.2-.13-1.67-.08-.47-.2-.85-.36-1.14-.15-.3-.33-.52-.55-.66-.2-.14-.44-.2-.7-.2-.26 0-.5.06-.71.2-.22.14-.4.36-.56.66-.15.3-.27.67-.35 1.14a9.64 9.64 0 00-.13 1.68c0 1.3.16 2.25.48 2.85.33.59.75.88 1.27.88zM41.1 254v-.95h2.05v-6.58h-1.62v-.74c.4-.08.76-.17 1.06-.27.3-.11.58-.24.83-.4h.88v7.99h1.85v.95H41.1zm12.15.17c-.9 0-1.61-.4-2.12-1.2-.5-.8-.75-1.96-.75-3.46s.25-2.65.75-3.43c.5-.79 1.21-1.18 2.12-1.18.9 0 1.6.4 2.1 1.18.5.78.75 1.92.75 3.43 0 1.5-.25 2.65-.75 3.45-.5.8-1.2 1.2-2.1 1.2zm0-.93c.26 0 .5-.07.7-.2.21-.16.4-.38.54-.68.16-.3.28-.7.37-1.16.08-.48.12-1.04.12-1.7 0-.65-.04-1.2-.12-1.67-.09-.47-.2-.85-.37-1.14-.15-.3-.33-.52-.54-.66-.2-.14-.44-.2-.7-.2-.26 0-.5.06-.72.2-.21.14-.4.36-.56.66-.15.3-.26.67-.35 1.14a9.64 9.64 0 00-.12 1.68c0 1.3.16 2.25.47 2.85.33.59.76.88 1.28.88zm6.96.93c-.9 0-1.61-.4-2.12-1.2-.5-.8-.75-1.96-.75-3.46s.25-2.65.75-3.43c.5-.79 1.21-1.18 2.12-1.18.9 0 1.6.4 2.1 1.18.5.78.75 1.92.75 3.43 0 1.5-.25 2.65-.75 3.45-.5.8-1.2 1.2-2.1 1.2zm0-.93c.26 0 .5-.07.7-.2.21-.16.4-.38.54-.68.16-.3.28-.7.37-1.16.08-.48.12-1.04.12-1.7 0-.65-.04-1.2-.12-1.67-.09-.47-.2-.85-.37-1.14-.15-.3-.33-.52-.54-.66-.2-.14-.44-.2-.7-.2-.26 0-.5.06-.72.2-.21.14-.4.36-.56.66-.15.3-.26.67-.35 1.14a9.64 9.64 0 00-.12 1.68c0 1.3.16 2.25.47 2.85.33.59.75.88 1.28.88zm6.96.93c-.91 0-1.61-.4-2.12-1.2-.5-.8-.75-1.96-.75-3.46s.25-2.65.75-3.43c.5-.79 1.21-1.18 2.12-1.18.9 0 1.6.4 2.1 1.18.5.78.75 1.92.75 3.43 0 1.5-.25 2.65-.75 3.45-.5.8-1.2 1.2-2.1 1.2zm0-.93c.26 0 .49-.07.7-.2.21-.16.4-.38.54-.68.16-.3.28-.7.37-1.16.08-.48.12-1.04.12-1.7 0-.65-.04-1.2-.12-1.67-.09-.47-.21-.85-.37-1.14-.15-.3-.33-.52-.54-.66-.21-.14-.44-.2-.7-.2-.27 0-.5.06-.72.2-.21.14-.4.36-.56.66-.15.3-.26.67-.35 1.14a9.64 9.64 0 00-.12 1.68c0 1.3.15 2.25.47 2.85.33.59.75.88 1.28.88zM40.56 236v-.69l1.8-1.82c.51-.54.95-1.04 1.3-1.5.36-.46.63-.89.82-1.27.19-.39.28-.77.28-1.13 0-.52-.14-.94-.42-1.26-.28-.33-.7-.5-1.27-.5-.38 0-.72.11-1.04.33-.32.2-.6.46-.87.76l-.66-.66a5 5 0 011.2-.98c.41-.25.92-.38 1.5-.38.84 0 1.49.24 1.97.73.47.47.71 1.1.71 1.9 0 .42-.1.85-.28 1.28-.18.42-.43.85-.76 1.31-.31.45-.7.92-1.14 1.42l-1.46 1.55.76-.06c.26-.02.5-.02.74-.02h2.59v.99h-5.77zm9.88.17c-.9 0-1.6-.4-2.1-1.2-.51-.8-.77-1.96-.77-3.46s.26-2.65.76-3.43c.5-.79 1.21-1.18 2.12-1.18.9 0 1.6.4 2.1 1.18.5.78.75 1.92.75 3.43 0 1.5-.25 2.65-.75 3.45-.5.8-1.2 1.2-2.1 1.2zm0-.93c.27 0 .5-.07.7-.2.22-.16.4-.38.55-.68.16-.3.28-.7.37-1.16.08-.48.12-1.04.12-1.7 0-.65-.04-1.2-.13-1.67-.08-.47-.2-.85-.36-1.14-.15-.3-.33-.52-.54-.66-.21-.14-.44-.2-.7-.2-.27 0-.5.06-.72.2-.21.14-.4.36-.56.66-.15.3-.27.67-.35 1.14a9.64 9.64 0 00-.13 1.68c0 1.3.16 2.25.48 2.85.33.59.75.88 1.27.88zm4.58.76v-.95h2.05v-6.58h-1.63v-.74c.41-.08.77-.17 1.07-.27.3-.11.58-.24.82-.4h.89v7.99h1.84v.95h-5.04zm9.15-4.34c.3 0 .6-.1.94-.28.33-.19.64-.49.93-.91a3.85 3.85 0 00-.61-1.99 1.61 1.61 0 00-1.98-.53c-.18.1-.35.23-.49.4s-.25.38-.33.62c-.08.25-.12.51-.12.8 0 .59.14 1.05.41 1.39.27.33.69.5 1.25.5zm-.42 4.5a2.85 2.85 0 01-2.16-.93l.64-.73c.2.22.41.39.66.52.26.13.53.2.81.2a1.92 1.92 0 001.64-.84c.22-.31.39-.7.52-1.2.13-.48.2-1.08.21-1.8-.28.36-.6.63-.98.84-.37.2-.75.3-1.12.3a2.5 2.5 0 01-1.85-.68c-.45-.46-.68-1.15-.68-2.07a3.07 3.07 0 01.77-2.07 2.63 2.63 0 011.86-.8c.44 0 .84.09 1.22.27.38.17.7.44.98.8.28.36.5.81.64 1.35.16.53.24 1.16.24 1.88 0 .9-.1 1.66-.28 2.3a4.57 4.57 0 01-.76 1.53 3 3 0 01-1.09.87c-.4.18-.83.27-1.27.27zM43.28 208.17a4.02 4.02 0 01-1.78-.38 4.33 4.33 0 01-.65-.38c-.18-.15-.35-.3-.5-.46l.56-.76c.26.28.57.51.92.72a2.67 2.67 0 002.09.17 1.92 1.92 0 001.05-1.06c.1-.26.15-.54.15-.85 0-.61-.17-1.1-.51-1.44-.35-.34-.81-.52-1.39-.52-.3 0-.57.05-.8.14a5 5 0 00-.73.4l-.61-.38.3-4.3h4.46v1h-3.46l-.24 2.64c.22-.11.43-.2.65-.27a3.39 3.39 0 011.8.07 2.4 2.4 0 011.47 1.39c.15.34.23.76.23 1.24 0 .49-.09.92-.26 1.3-.16.37-.39.68-.67.94a3.09 3.09 0 01-2.08.79zm7.16 0c-.9 0-1.6-.4-2.1-1.2-.51-.8-.77-1.96-.77-3.46s.26-2.65.76-3.43c.5-.79 1.21-1.18 2.12-1.18.9 0 1.6.4 2.1 1.18.5.78.75 1.92.75 3.43 0 1.5-.25 2.65-.75 3.45-.5.8-1.2 1.2-2.1 1.2zm0-.93c.27 0 .5-.07.7-.2.22-.16.4-.38.55-.68.16-.3.28-.7.37-1.16.08-.48.12-1.04.12-1.7 0-.65-.04-1.2-.13-1.67-.08-.47-.2-.85-.36-1.14-.15-.3-.33-.52-.54-.66-.21-.14-.44-.2-.7-.2-.27 0-.5.06-.72.2-.21.14-.4.36-.56.66-.15.3-.27.67-.35 1.14a9.64 9.64 0 00-.13 1.68c0 1.3.16 2.25.48 2.85.33.59.75.88 1.27.88zm4.04.76v-.69l1.79-1.82c.52-.54.96-1.04 1.32-1.5.35-.46.62-.89.8-1.27.2-.39.29-.77.29-1.13 0-.52-.14-.94-.42-1.26-.28-.33-.7-.5-1.28-.5-.37 0-.71.11-1.03.33-.32.2-.6.46-.87.76l-.66-.66a5 5 0 011.2-.98c.41-.25.92-.38 1.5-.38.83 0 1.49.24 1.96.73.48.47.72 1.1.72 1.9 0 .42-.1.85-.28 1.28-.18.42-.43.85-.76 1.31-.32.45-.7.92-1.15 1.42-.43.48-.92 1-1.45 1.55l.75-.06c.27-.02.51-.02.75-.02h2.59v.99h-5.77zm7.34 2.38l-.29-.67c.4-.18.72-.42.94-.72.23-.28.33-.62.33-.99a.93.93 0 01-.73-.18c-.16-.14-.24-.34-.24-.6 0-.26.08-.45.25-.6a.88.88 0 01.6-.22c.3 0 .54.13.7.37.18.24.27.57.27 1 0 .6-.16 1.13-.5 1.57-.32.45-.77.8-1.34 1.04zm6.03-2.21c-.9 0-1.61-.4-2.11-1.2-.5-.8-.76-1.96-.76-3.46s.25-2.65.76-3.43c.5-.79 1.2-1.18 2.1-1.18.9 0 1.6.4 2.1 1.18.51.78.77 1.92.77 3.43 0 1.5-.26 2.65-.76 3.45-.5.8-1.2 1.2-2.1 1.2zm0-.93c.26 0 .5-.07.7-.2.21-.16.4-.38.55-.68.15-.3.28-.7.36-1.16.08-.48.13-1.04.13-1.7 0-.65-.05-1.2-.13-1.67s-.2-.85-.36-1.14c-.15-.3-.34-.52-.55-.66-.2-.14-.44-.2-.7-.2-.26 0-.5.06-.71.2-.22.14-.4.36-.56.66-.15.3-.27.67-.35 1.14a9.64 9.64 0 00-.13 1.68c0 1.3.16 2.25.48 2.85.32.59.75.88 1.27.88zM40.56 190v-.69l1.8-1.82c.51-.54.95-1.04 1.3-1.5.36-.46.63-.89.82-1.27.19-.39.28-.77.28-1.13 0-.52-.14-.94-.42-1.26-.28-.33-.7-.5-1.27-.5-.38 0-.72.11-1.04.33-.32.2-.6.46-.87.76l-.66-.66a5 5 0 011.2-.98c.41-.25.92-.38 1.5-.38.84 0 1.49.24 1.97.73.47.47.71 1.1.71 1.9 0 .42-.1.85-.28 1.28-.18.42-.43.85-.76 1.31-.31.45-.7.92-1.14 1.42l-1.46 1.55.76-.06c.26-.02.5-.02.74-.02h2.59v.99h-5.77zm9.88.17c-.9 0-1.6-.4-2.1-1.2-.51-.8-.77-1.96-.77-3.46s.26-2.65.76-3.43c.5-.79 1.21-1.18 2.12-1.18.9 0 1.6.4 2.1 1.18.5.78.75 1.92.75 3.43 0 1.5-.25 2.65-.75 3.45-.5.8-1.2 1.2-2.1 1.2zm0-.93c.27 0 .5-.07.7-.2.22-.16.4-.38.55-.68.16-.3.28-.7.37-1.16.08-.48.12-1.04.12-1.7 0-.65-.04-1.2-.13-1.67-.08-.47-.2-.85-.36-1.14-.15-.3-.33-.52-.54-.66-.21-.14-.44-.2-.7-.2-.27 0-.5.06-.72.2-.21.14-.4.36-.56.66-.15.3-.27.67-.35 1.14a9.64 9.64 0 00-.13 1.68c0 1.3.16 2.25.48 2.85.33.59.75.88 1.27.88zm4.58.76v-.95h2.05v-6.58h-1.63v-.74c.41-.08.77-.17 1.07-.27.3-.11.58-.24.82-.4h.89v7.99h1.84v.95h-5.04zm9.36.17a3.7 3.7 0 01-1.18-.18 2.92 2.92 0 01-.92-.5 2.59 2.59 0 01-.6-.8 2.2 2.2 0 01-.08-1.78 2.91 2.91 0 01.9-1.2c.2-.15.42-.29.63-.4v-.06a4.1 4.1 0 01-.87-.84 1.97 1.97 0 01-.38-1.21 2.2 2.2 0 011.53-2.13c.3-.11.65-.17 1-.17.4 0 .75.06 1.06.18.3.11.57.28.78.5.23.2.4.45.5.75.13.29.19.6.19.95a2.77 2.77 0 01-.42 1.27c-.11.2-.24.36-.4.5-.13.16-.27.28-.41.39v.05a4.5 4.5 0 011.06.88 2.13 2.13 0 01.49 1.41c0 .34-.07.66-.2.95a2.3 2.3 0 01-.6.75c-.25.22-.55.39-.9.5-.36.13-.75.19-1.18.19zm.63-5.04c.3-.27.52-.56.68-.86.17-.3.25-.6.25-.93 0-.45-.13-.83-.4-1.12-.27-.31-.65-.47-1.15-.47-.42 0-.76.13-1.04.4-.27.26-.4.6-.4 1.05 0 .27.05.5.17.7.1.18.26.35.45.5.2.15.41.28.65.4.25.12.52.22.79.33zm-.6 4.18c.52 0 .94-.14 1.26-.43.32-.29.48-.67.48-1.13 0-.3-.06-.54-.2-.75a1.8 1.8 0 00-.52-.53c-.23-.16-.49-.3-.79-.42l-.9-.39c-.36.24-.66.53-.9.85a1.8 1.8 0 00-.21 1.78c.1.2.23.39.4.55a2 2 0 00.62.35c.23.08.48.12.76.12zM43.3 162.17a4.02 4.02 0 01-2.94-1.26l.6-.76c.26.28.58.53.93.74.36.22.81.33 1.34.33a2 2 0 001.33-.44c.35-.3.52-.7.52-1.2 0-.26-.05-.5-.15-.72-.1-.22-.25-.41-.48-.57a2.48 2.48 0 00-.88-.36 6.09 6.09 0 00-1.34-.13v-.88c.47 0 .87-.04 1.19-.13.32-.08.58-.2.78-.35.2-.15.35-.32.43-.53.09-.2.13-.42.13-.66 0-.44-.14-.78-.42-1.03a1.58 1.58 0 00-1.12-.38c-.37 0-.72.08-1.04.25-.3.17-.6.39-.86.66l-.62-.73c.35-.33.72-.6 1.13-.8a3.57 3.57 0 012.5-.17c.34.1.62.26.85.45.24.19.43.42.56.7.13.28.2.6.2.97 0 .54-.15.98-.45 1.33-.3.34-.7.6-1.18.8v.05a2.94 2.94 0 011.37.77 2.2 2.2 0 01.56 1.5 2.33 2.33 0 01-.87 1.88c-.26.21-.56.38-.92.5a3.8 3.8 0 01-1.15.17zm4.77-.17v-.95h2.04v-6.58h-1.63v-.74c.42-.08.77-.17 1.07-.27.3-.11.58-.24.83-.4h.88v7.99h1.84v.95h-5.04zm9.33.17c-.9 0-1.6-.4-2.11-1.2-.5-.8-.76-1.96-.76-3.46s.26-2.65.76-3.43c.5-.79 1.2-1.18 2.11-1.18.9 0 1.6.4 2.1 1.18.5.78.76 1.92.76 3.43 0 1.5-.25 2.65-.76 3.45-.5.8-1.2 1.2-2.1 1.2zm0-.93c.27 0 .5-.07.7-.2.22-.16.4-.38.55-.68.16-.3.28-.7.36-1.16.09-.48.13-1.04.13-1.7 0-.65-.04-1.2-.13-1.67-.08-.47-.2-.85-.36-1.14-.15-.3-.33-.52-.55-.66-.2-.14-.43-.2-.7-.2-.26 0-.5.06-.71.2-.21.14-.4.36-.56.66-.15.3-.27.67-.35 1.14a9.64 9.64 0 00-.13 1.68c0 1.3.16 2.25.48 2.85.33.59.75.88 1.27.88zm4.41 3.14l-.28-.67c.4-.18.72-.42.94-.72.23-.28.33-.62.33-.99a.93.93 0 01-.73-.18c-.16-.14-.24-.34-.24-.6 0-.26.08-.45.25-.6a.88.88 0 01.6-.22c.3 0 .54.13.7.37.18.24.27.57.27 1 0 .6-.16 1.13-.5 1.57-.32.45-.77.8-1.34 1.04zm5.86-2.21a4.02 4.02 0 01-2.94-1.26l.59-.76c.27.28.58.53.93.74.37.22.82.33 1.35.33a2 2 0 001.33-.44c.34-.3.52-.7.52-1.2 0-.26-.06-.5-.16-.72-.1-.22-.25-.41-.47-.57a2.48 2.48 0 00-.89-.36 6.09 6.09 0 00-1.34-.13v-.88c.48 0 .87-.04 1.19-.13.33-.08.59-.2.78-.35.2-.15.35-.32.44-.53.08-.2.12-.42.12-.66 0-.44-.14-.78-.42-1.03a1.58 1.58 0 00-1.12-.38c-.37 0-.72.08-1.03.25-.31.17-.6.39-.87.66l-.62-.73c.35-.33.73-.6 1.14-.8a3.57 3.57 0 012.5-.17c.33.1.61.26.84.45.25.19.43.42.56.7.13.28.2.6.2.97 0 .54-.15.98-.45 1.33-.3.34-.69.6-1.17.8v.05a2.94 2.94 0 011.37.77 2.2 2.2 0 01.56 1.5c0 .4-.08.75-.24 1.06-.15.32-.36.6-.63.82-.26.21-.57.38-.92.5a3.8 3.8 0 01-1.15.17zM40.56 144v-.69l1.8-1.82c.51-.54.95-1.04 1.3-1.5.36-.46.63-.89.82-1.27.19-.39.28-.77.28-1.13 0-.52-.14-.94-.42-1.26-.28-.33-.7-.5-1.27-.5-.38 0-.72.11-1.04.33-.32.2-.6.46-.87.76l-.66-.66a5 5 0 011.2-.98c.41-.25.92-.38 1.5-.38.84 0 1.49.24 1.97.73.47.47.71 1.1.71 1.9 0 .42-.1.85-.28 1.28-.18.42-.43.85-.76 1.31-.31.45-.7.92-1.14 1.42l-1.46 1.55.76-.06c.26-.02.5-.02.74-.02h2.59v.99h-5.77zm9.88.17c-.9 0-1.6-.4-2.1-1.2-.51-.8-.77-1.96-.77-3.46s.26-2.65.76-3.43c.5-.79 1.21-1.18 2.12-1.18.9 0 1.6.4 2.1 1.18.5.78.75 1.92.75 3.43 0 1.5-.25 2.65-.75 3.45-.5.8-1.2 1.2-2.1 1.2zm0-.93c.27 0 .5-.07.7-.2.22-.16.4-.38.55-.68.16-.3.28-.7.37-1.16.08-.48.12-1.04.12-1.7 0-.65-.04-1.2-.13-1.67-.08-.47-.2-.85-.36-1.14-.15-.3-.33-.52-.54-.66-.21-.14-.44-.2-.7-.2-.27 0-.5.06-.72.2-.21.14-.4.36-.56.66-.15.3-.27.67-.35 1.14a9.64 9.64 0 00-.13 1.68c0 1.3.16 2.25.48 2.85.33.59.75.88 1.27.88zm4.58.76v-.95h2.05v-6.58h-1.63v-.74c.41-.08.77-.17 1.07-.27.3-.11.58-.24.82-.4h.89v7.99h1.84v.95h-5.04zm8.33 0c.04-.84.12-1.61.23-2.31a11.7 11.7 0 011.23-3.82c.32-.59.7-1.2 1.13-1.8H61.5v-1h5.76v.71a10.64 10.64 0 00-2.52 5.85c-.09.71-.15 1.5-.19 2.37h-1.19zM41.1 116v-.95h2.05v-6.58h-1.62v-.74c.4-.08.76-.17 1.06-.27.3-.11.58-.24.83-.4h.88v7.99h1.85v.95H41.1zm9.15-4.34c.3 0 .61-.1.94-.28.33-.19.65-.49.94-.91a3.85 3.85 0 00-.62-1.99 1.61 1.61 0 00-1.98-.53c-.18.1-.34.23-.48.4-.14.17-.26.38-.34.62-.08.25-.11.51-.11.8 0 .59.13 1.05.4 1.39.27.33.69.5 1.25.5zm-.42 4.5a2.85 2.85 0 01-2.16-.93l.65-.73c.18.22.4.39.66.52s.53.2.8.2a1.92 1.92 0 001.64-.84c.22-.31.4-.7.52-1.2.13-.48.2-1.08.21-1.8-.28.36-.6.64-.98.84-.37.2-.74.3-1.12.3a2.5 2.5 0 01-1.84-.68c-.46-.45-.7-1.15-.7-2.07a3.07 3.07 0 01.78-2.07 2.63 2.63 0 011.86-.8c.44 0 .85.09 1.22.27.38.17.7.44.98.8.28.36.5.81.64 1.35.16.53.24 1.16.24 1.88 0 .9-.1 1.66-.28 2.3a4.57 4.57 0 01-.76 1.53 3 3 0 01-1.09.87c-.4.18-.82.27-1.27.27zm8.34-.16v-2.46h-4.01v-.76l3.82-5.71h1.29v5.54h1.21v.93h-1.21V116h-1.1zm-2.8-3.39h2.8v-2.59a30.15 30.15 0 01.07-1.72h-.05a13.33 13.33 0 01-.73 1.26l-2.09 3.05zm6.45 5.77l-.29-.67c.4-.18.72-.42.94-.72.23-.28.33-.62.33-.99a.93.93 0 01-.73-.18c-.16-.14-.24-.34-.24-.6 0-.26.08-.45.25-.6a.88.88 0 01.6-.22c.3 0 .54.13.7.37.18.24.27.57.27 1 0 .6-.16 1.13-.5 1.57-.32.45-.77.8-1.34 1.04zm5.82-2.21a4.02 4.02 0 01-1.78-.38 4.32 4.32 0 01-.64-.38c-.19-.15-.36-.3-.5-.46l.55-.76c.26.28.57.51.93.72a2.67 2.67 0 002.08.17 1.92 1.92 0 001.05-1.06c.1-.26.16-.54.16-.85 0-.61-.18-1.1-.52-1.44-.35-.34-.8-.52-1.39-.52-.3 0-.57.05-.8.14a5 5 0 00-.72.4l-.62-.38.3-4.3h4.46v1h-3.46l-.23 2.64c.21-.11.42-.2.64-.27a3.39 3.39 0 011.8.07 2.4 2.4 0 011.48 1.39c.14.34.22.76.22 1.24a2.93 2.93 0 01-.92 2.24 3.09 3.09 0 01-2.1.79zM40.56 98v-.69l1.8-1.82c.51-.54.95-1.04 1.3-1.5.36-.46.63-.89.82-1.27.19-.39.28-.77.28-1.13 0-.52-.14-.94-.42-1.26-.28-.33-.7-.5-1.27-.5-.38 0-.72.12-1.04.33-.32.2-.6.46-.87.76l-.66-.66a5 5 0 011.2-.98c.41-.25.92-.38 1.5-.38.84 0 1.49.24 1.97.73.47.47.71 1.1.71 1.9 0 .42-.1.85-.28 1.28-.18.42-.43.85-.76 1.31-.31.45-.7.92-1.14 1.42l-1.46 1.55a139.37 139.37 0 011.5-.08h2.59V98h-5.77zm9.88.17c-.9 0-1.6-.4-2.1-1.2-.51-.8-.77-1.96-.77-3.46s.26-2.65.76-3.43c.5-.79 1.21-1.18 2.12-1.18.9 0 1.6.4 2.1 1.18.5.78.75 1.92.75 3.43 0 1.5-.25 2.65-.75 3.45-.5.8-1.2 1.2-2.1 1.2zm0-.93c.27 0 .5-.07.7-.2.22-.16.4-.38.55-.68.16-.3.28-.7.37-1.16.08-.48.12-1.04.12-1.7 0-.65-.04-1.2-.13-1.67-.08-.47-.2-.85-.36-1.14-.15-.3-.33-.52-.54-.66-.21-.14-.44-.2-.7-.2-.27 0-.5.06-.72.2-.21.14-.4.36-.56.66-.15.3-.27.67-.35 1.14a9.64 9.64 0 00-.13 1.68c0 1.3.16 2.25.48 2.85.33.59.75.88 1.27.88zm4.58.76v-.95h2.05v-6.58h-1.63v-.74c.41-.08.77-.17 1.07-.27.3-.11.58-.24.82-.4h.89v7.99h1.84V98h-5.04zm9.6.17a2.74 2.74 0 01-2.2-1.06 4.28 4.28 0 01-.63-1.35 6.74 6.74 0 01-.24-1.89c0-.9.1-1.66.28-2.28a4.4 4.4 0 01.76-1.54c.31-.4.67-.7 1.07-.87a3.08 3.08 0 012.54 0c.35.18.66.4.9.67l-.64.72a2 2 0 00-.67-.5c-.25-.14-.52-.2-.8-.2a1.92 1.92 0 00-1.62.84c-.22.3-.39.69-.52 1.17a7.2 7.2 0 00-.2 1.78c.27-.35.6-.62.97-.81a2.5 2.5 0 012.95.38c.47.45.7 1.14.7 2.07a2.79 2.79 0 01-1.62 2.66 2.5 2.5 0 01-1.02.2zm0-.91c.23 0 .44-.05.63-.14.18-.1.34-.23.48-.4.14-.17.25-.38.33-.61.08-.24.12-.51.12-.81 0-.59-.13-1.05-.4-1.39-.27-.33-.69-.5-1.25-.5-.29 0-.6.1-.94.28-.33.18-.64.47-.92.9.07.87.27 1.54.6 2 .34.44.79.67 1.36.67z" fill="#FCFCFC"/><path d="M204.5 48V36.23h3.7c.65 0 1.25.06 1.8.18a3.9 3.9 0 011.46.61c.4.29.73.67.95 1.13.23.46.35 1.03.35 1.71a3.9 3.9 0 01-.35 1.7c-.22.48-.54.88-.95 1.2-.4.31-.87.55-1.42.7-.54.15-1.13.22-1.77.22h-1.69V48h-2.09zm2.08-6h1.53c1.73 0 2.6-.7 2.6-2.14 0-.74-.23-1.25-.69-1.53a3.67 3.67 0 00-1.98-.43h-1.46V42zM218 48.23a4.18 4.18 0 01-2.93-1.21c-.38-.4-.69-.88-.92-1.46a5.3 5.3 0 01-.34-1.96c0-.73.11-1.39.34-1.96a4.04 4.04 0 012.27-2.36 3.98 3.98 0 013.17 0c.51.2.96.5 1.35.9a5.06 5.06 0 011.28 3.42 5.06 5.06 0 01-1.28 3.42 4.18 4.18 0 01-2.93 1.2zm0-1.7c.65 0 1.16-.26 1.53-.79a3.7 3.7 0 00.56-2.14c0-.9-.18-1.61-.56-2.14a1.76 1.76 0 00-1.53-.81c-.64 0-1.15.27-1.53.8a3.75 3.75 0 00-.54 2.15c0 .89.18 1.6.54 2.14.38.53.89.8 1.53.8zm9.96 1.7c-.6 0-1.17-.1-1.7-.31-.51-.2-.96-.5-1.35-.9-.38-.4-.68-.88-.9-1.46a5.56 5.56 0 01-.32-1.96c0-.73.12-1.39.36-1.96a4.14 4.14 0 012.38-2.36c.53-.22 1.1-.32 1.69-.32.57 0 1.06.1 1.47.28.42.2.8.43 1.12.7l-1 1.36c-.25-.2-.49-.36-.73-.47a1.6 1.6 0 00-.75-.18c-.72 0-1.3.27-1.75.8a3.22 3.22 0 00-.67 2.15c0 .89.22 1.6.65 2.14.44.53 1.01.8 1.71.8.35 0 .67-.08.97-.22.32-.16.6-.34.85-.54l.84 1.37a4.38 4.38 0 01-2.88 1.08zm6.37-.22v-7.2h-2.77v-1.64h7.63v1.64h-2.77V48h-2.09zm10.24 0v-8.84h2.07v3.44h1.3l.82-1.78c.17-.39.34-.7.52-.94.2-.24.4-.42.6-.56.2-.14.42-.24.66-.28.24-.06.5-.1.78-.1.24 0 .45.04.63.11l-.34 1.93a1.02 1.02 0 00-.94.14c-.2.12-.38.4-.58.85l-.6 1.37 3 4.66h-2.29l-2.23-3.74h-1.33V48h-2.07zm12.62.22a4.18 4.18 0 01-2.94-1.21c-.38-.4-.69-.88-.92-1.46a5.3 5.3 0 01-.34-1.96c0-.73.12-1.39.34-1.96a4.04 4.04 0 012.27-2.36 3.98 3.98 0 013.17 0c.52.2.97.5 1.35.9a5.06 5.06 0 011.28 3.42 5.06 5.06 0 01-1.28 3.42 4.18 4.18 0 01-2.93 1.2zm0-1.7c.64 0 1.15-.26 1.53-.79a3.7 3.7 0 00.55-2.14c0-.9-.18-1.61-.55-2.14a1.76 1.76 0 00-1.53-.81c-.65 0-1.16.27-1.53.8a3.75 3.75 0 00-.54 2.15c0 .89.18 1.6.54 2.14.37.53.88.8 1.53.8zm6.02 1.7c-.34 0-.66-.06-.93-.18l.36-1.88a1.03 1.03 0 00.43.08c.28 0 .5-.12.68-.36.18-.26.3-.66.38-1.23a193.14 193.14 0 00.63-5.49h6V48h-2.07v-7.2h-2.27c-.1.73-.19 1.47-.27 2.21a137 137 0 01-.27 2.2 4.26 4.26 0 01-.87 2.25c-.44.5-1.04.76-1.8.76zm10.17-.22v-8.84h2.01v3.04c0 .46-.02.97-.07 1.53l-.1 1.68h.05c.15-.28.34-.59.56-.94l.54-.93 2.8-4.38h1.91V48h-2.01v-3.04c0-.46.01-.96.05-1.51l.14-1.7h-.07a43.2 43.2 0 01-1.1 1.88L275.3 48h-1.91zm15.2 0v-3.26a7.08 7.08 0 01-3.12-.02c-.43-.12-.8-.3-1.12-.55-.3-.27-.55-.6-.72-1.01a4.07 4.07 0 01-.25-1.51v-2.49h2.07v2.49c0 .55.15.96.45 1.22.3.25.8.38 1.48.38.42 0 .82-.04 1.2-.13v-3.96h2.07V48h-2.07zm8.48.22a4.17 4.17 0 01-4.03-2.66 5.56 5.56 0 01-.33-1.97c0-.72.12-1.37.34-1.94a4.13 4.13 0 012.21-2.38c.5-.22 1-.32 1.52-.32.6 0 1.13.1 1.58.3.46.2.84.5 1.14.87.3.37.54.81.7 1.33a5.83 5.83 0 01.14 2.7h-5.61c.1.79.37 1.4.82 1.83.47.42 1.07.63 1.79.63.38 0 .74-.05 1.06-.16.34-.12.67-.28.99-.48l.7 1.3c-.42.27-.89.5-1.4.68-.52.18-1.06.27-1.62.27zm-2.36-5.48h3.92c0-.68-.15-1.21-.45-1.6-.29-.4-.74-.6-1.35-.6-.52 0-.99.2-1.38.57-.4.37-.64.91-.74 1.63zm11.39 5.48c-.6 0-1.16-.1-1.7-.31-.5-.2-.96-.5-1.34-.9-.39-.4-.69-.88-.9-1.46a5.56 5.56 0 01-.33-1.96c0-.73.12-1.39.36-1.96a4.14 4.14 0 012.38-2.36c.54-.22 1.1-.32 1.7-.32.57 0 1.06.1 1.47.28.42.2.79.43 1.11.7l-1 1.36c-.24-.2-.48-.36-.72-.47a1.6 1.6 0 00-.76-.18c-.72 0-1.3.27-1.75.8a3.22 3.22 0 00-.66 2.15c0 .89.21 1.6.65 2.14.44.53 1.01.8 1.7.8.35 0 .68-.08.98-.22.31-.16.6-.34.84-.54l.85 1.37a4.38 4.38 0 01-2.88 1.08zm6.38-.22v-7.2h-2.78v-1.64h7.63v1.64h-2.77V48h-2.09zm6.63 0v-8.84h3.58c.5 0 .94.04 1.35.13.42.07.78.2 1.08.38a1.97 1.97 0 01.99 1.78c0 .43-.12.81-.38 1.15-.24.32-.6.56-1.1.7v.07c.53.14.97.36 1.32.69.35.32.52.79.52 1.4a2.22 2.22 0 01-1.04 1.95c-.33.2-.71.35-1.16.45-.43.1-.9.14-1.4.14h-3.76zm2.03-5.26h1.35c.58 0 1-.1 1.25-.28.25-.2.37-.46.37-.8a.98.98 0 00-.36-.8c-.24-.2-.64-.3-1.2-.3h-1.4v2.18zm0 3.86h1.59c.6 0 1.03-.12 1.3-.35.27-.22.4-.53.4-.91 0-.36-.14-.65-.43-.87-.28-.21-.73-.32-1.35-.32h-1.5v2.45zm9.43 1.62a2.6 2.6 0 01-1.9-.7 2.56 2.56 0 01-.71-1.9c0-.46.1-.88.29-1.24.2-.37.51-.69.93-.95a6.4 6.4 0 011.62-.67c.66-.18 1.45-.32 2.36-.41a2.81 2.81 0 00-.1-.65c-.06-.22-.15-.4-.28-.56a1.1 1.1 0 00-.48-.38c-.2-.1-.46-.14-.76-.14-.43 0-.86.08-1.28.25-.4.17-.8.37-1.2.61l-.76-1.38c.5-.31 1.04-.58 1.66-.81a5.63 5.63 0 011.98-.34c1.1 0 1.92.33 2.46.99.55.64.83 1.59.83 2.82V48h-1.71l-.14-.97h-.08c-.4.33-.82.62-1.27.84-.45.23-.93.35-1.46.35zm.66-1.62c.36 0 .69-.09.98-.26.3-.16.61-.4.95-.72v-1.98c-.6.08-1.1.17-1.51.3-.41.11-.74.25-1 .4-.24.15-.42.32-.53.51-.11.2-.16.4-.16.61 0 .4.12.69.36.87.24.18.54.27.91.27zm13.7 1.62a4.18 4.18 0 01-2.94-1.21c-.38-.4-.69-.88-.91-1.46a5.3 5.3 0 01-.35-1.96c0-.73.12-1.39.35-1.96a4.04 4.04 0 012.27-2.36 3.98 3.98 0 013.16 0c.52.2.97.5 1.35.9a5.06 5.06 0 011.28 3.42 5.06 5.06 0 01-1.28 3.42 4.18 4.18 0 01-2.93 1.2zm0-1.7c.65 0 1.16-.26 1.53-.79a3.7 3.7 0 00.56-2.14c0-.9-.19-1.61-.56-2.14a1.76 1.76 0 00-1.53-.81c-.65 0-1.16.27-1.53.8a3.75 3.75 0 00-.54 2.15c0 .89.18 1.6.54 2.14.37.53.88.8 1.53.8zM352.7 48v-7.2h-2.77v-1.64h7.63v1.64h-2.77V48h-2.09zm6.63 0v-8.84h2.07v3.44h1.3l.83-1.78c.17-.39.34-.7.52-.94.2-.24.4-.42.6-.56.2-.14.42-.24.66-.28.24-.06.5-.1.77-.1.25 0 .46.04.63.11l-.34 1.93a1.02 1.02 0 00-.93.14c-.2.12-.39.4-.58.85l-.61 1.37 3 4.66h-2.28l-2.23-3.74h-1.34V48h-2.06zm9.41 3.5V39.15h1.71l.14.94h.08c.37-.31.78-.58 1.24-.81.45-.23.93-.34 1.42-.34a3.14 3.14 0 012.56 1.22c.3.4.52.87.68 1.42a6.81 6.81 0 01-.09 3.89 4.6 4.6 0 01-.83 1.5c-.35.39-.75.7-1.2.91-.46.22-.93.33-1.43.33-.38 0-.76-.09-1.15-.26a4.4 4.4 0 01-1.11-.72l.05 1.48v2.77h-2.07zm3.85-5a1.8 1.8 0 001.48-.75c.4-.52.6-1.28.6-2.29 0-.88-.16-1.57-.46-2.07-.3-.49-.78-.73-1.46-.73-.62 0-1.27.33-1.94.99v4.12c.32.27.64.47.94.57.3.11.58.17.84.17zm6.31 1.5v-8.84h2.07v3.03h.94c.52 0 1.01.05 1.45.16.46.1.85.27 1.17.5.33.23.58.53.76.9.2.36.29.8.29 1.32s-.1.97-.29 1.35c-.18.37-.43.67-.76.91-.32.23-.71.4-1.17.5-.44.12-.93.17-1.45.17h-3.01zm2.07-1.6h.81c1.19 0 1.78-.45 1.78-1.35 0-.87-.6-1.3-1.78-1.3h-.81v2.65zm5.96 1.6v-8.84H389V48h-2.07zm6.62 0v-7.2h-2.77v-1.64h7.63v1.64h-2.77V48h-2.09zm6.64 0v-8.84h2.07v3.03h.93c.53 0 1.02.05 1.46.16.46.1.85.27 1.17.5.32.23.58.53.76.9.19.36.29.8.29 1.32s-.1.97-.3 1.35c-.17.37-.43.67-.75.91-.32.23-.71.4-1.17.5-.44.12-.93.17-1.46.17h-3zm2.07-1.6h.8c1.2 0 1.79-.45 1.79-1.35 0-.87-.6-1.3-1.78-1.3h-.81v2.65zm5.95 1.6v-8.84h2.08V48h-2.08zm3.64 0l2.81-4.6-2.63-4.24h2.23l1 1.68.39.75.41.74h.08l.34-.74.34-.75.85-1.68h2.14l-2.61 4.47L420 48h-2.23l-1.08-1.75a26.51 26.51 0 00-.9-1.56h-.07a46.1 46.1 0 00-.77 1.56L414 48h-2.16zm13.51 0V36.23h2.07v5.11c0 .66-.03 1.34-.09 2.05l-.18 1.96h.07l1.23-2.5 3.69-6.62h2.21V48h-2.07v-5.15c0-.66.03-1.33.1-2.01.06-.69.13-1.34.17-1.97h-.07l-1.2 2.49-3.71 6.64h-2.22zm12 0V36.23h2.06v5.11c0 .66-.03 1.34-.09 2.05l-.18 1.96h.07l1.23-2.5 3.69-6.62h2.21V48h-2.07v-5.15c0-.66.03-1.33.1-2.01l.17-1.97h-.07l-1.2 2.49-3.71 6.64h-2.22zm16.68.22c-.75 0-1.44-.14-2.09-.4a4.71 4.71 0 01-1.7-1.17 5.72 5.72 0 01-1.1-1.9 7.53 7.53 0 01-.42-2.6c0-.96.14-1.82.41-2.57.29-.77.67-1.42 1.15-1.95a4.99 4.99 0 013.82-1.62c.74 0 1.4.15 1.98.45.58.3 1.05.65 1.42 1.05l-1.11 1.35a3.88 3.88 0 00-1.01-.74 2.94 2.94 0 00-3.6.86c-.29.36-.52.8-.69 1.33a6.28 6.28 0 00-.23 1.79c0 1.34.29 2.4.86 3.16a2.85 2.85 0 002.38 1.14c.53 0 1-.11 1.4-.33.41-.22.78-.52 1.12-.88l1.12 1.32a4.76 4.76 0 01-3.7 1.71zm5.47 3.06l-.45-1.14a3.17 3.17 0 001.35-.92c.33-.38.48-.8.47-1.26h-.16c-.35 0-.66-.1-.94-.32a1.2 1.2 0 01-.4-.95c0-.39.14-.7.4-.92.28-.24.6-.36 1-.36.49 0 .86.18 1.13.56.27.37.41.89.41 1.56a3.7 3.7 0 01-.74 2.3 4.2 4.2 0 01-2.07 1.45zM470.18 48v-7.54h-2.94v-1.2h7.35v1.2h-2.94V48h-1.47zm6.35 0v-8.75h1.48v3.22h1.24c.52 0 .99.06 1.4.17.44.1.8.27 1.1.5.31.22.56.5.72.85.17.33.25.74.25 1.22 0 .5-.08.91-.25 1.26-.17.35-.4.64-.72.86-.3.23-.66.4-1.1.5-.41.12-.88.17-1.4.17h-2.72zm1.48-1.19h1.08c1.45 0 2.18-.53 2.18-1.6 0-.55-.18-.95-.54-1.2-.35-.26-.9-.38-1.64-.38H478v3.18zm6.23 1.19v-8.75h1.47V48h-1.47zm7.88.22c-.58 0-1.12-.1-1.62-.31-.5-.2-.94-.5-1.32-.88-.36-.4-.64-.88-.86-1.44a5.8 5.8 0 01-.3-1.95c0-.73.1-1.38.34-1.94.22-.58.53-1.06.91-1.46.39-.4.83-.7 1.34-.9.51-.2 1.05-.3 1.62-.3.57 0 1.06.1 1.47.3.41.2.77.45 1.08.72l-.75.97a3.62 3.62 0 00-.81-.55 2 2 0 00-.94-.22c-.4 0-.76.08-1.1.25-.33.16-.62.39-.86.69-.24.3-.43.66-.58 1.08-.13.4-.2.86-.2 1.36 0 .5.07.96.2 1.37a2.66 2.66 0 001.4 1.75c.34.15.7.23 1.1.23.41 0 .78-.08 1.12-.25.35-.18.66-.39.94-.63l.64.99a4.03 4.03 0 01-2.83 1.12z" fill="#000218"/></svg>