<svg fill="none" xmlns="http://www.w3.org/2000/svg" viewBox="0 0 238 16"><path d="M0 .27h11.98v2.77H3.49v3.81h7.6v2.77h-7.6v6.11H0V.27zM15.45.27h3.5v15.46h-3.5V.27zM22.88.27h3.4l6.36 8.4c.2.26.51.76.96 1.52l.13-.07-.08-1.3V.26h3.4v15.46h-3.4l-6.38-8.47c-.3-.4-.62-.9-.94-1.5l-.12.08c.05.64.07 1.1.07 1.35v8.54h-3.4V.27zM45.89.27h4.38l6.46 15.46h-3.8l-1.19-2.95h-7.52l-1.18 2.95h-3.61L45.89.27zm4.74 9.78l-1.56-3.92c-.2-.48-.54-1.5-1.04-3.04h-.12c-.5 1.54-.84 2.56-1.04 3.04l-1.56 3.92h5.32zM59.1.27h3.4l6.36 8.4c.2.26.52.76.97 1.52l.12-.07-.07-1.3V.26h3.4v15.46h-3.4l-6.39-8.47c-.3-.4-.62-.9-.94-1.5l-.12.08c.05.64.07 1.1.07 1.35v8.54h-3.4V.27zM84.62 16c-5.34 0-8-2.67-8-8 0-2.67.7-4.67 2.1-6 1.39-1.33 3.36-2 5.9-2 1.4 0 2.65.23 3.75.68a5.46 5.46 0 013.64 5.34h-3.59c0-1.01-.34-1.8-1.03-2.37a4.03 4.03 0 00-2.7-.88c-1.51 0-2.64.42-3.38 1.26-.73.85-1.1 2.05-1.1 3.63v.68c0 3.26 1.49 4.89 4.48 4.89 1.17 0 2.1-.29 2.8-.86a2.87 2.87 0 001.05-2.36h3.47a5.6 5.6 0 01-.96 3.33 5.9 5.9 0 01-2.63 2c-1.1.44-2.37.66-3.8.66zM95.33.27h12.99v2.77h-9.5v3.4h8.44v2.78h-8.44v3.74h9.64v2.77H95.33V.27zM124.23 16c-1.83 0-3.24-.4-4.22-1.17-.98-.78-1.47-1.93-1.47-3.45v-.97h3.47v.93c0 .61.19 1.08.56 1.41.38.34.94.5 1.66.5.7 0 1.23-.16 1.59-.5.35-.33.53-.8.53-1.41V.27h3.52v11.11c0 1.52-.49 2.67-1.45 3.45-.96.78-2.36 1.17-4.2 1.17zM141.42 16c-2.65 0-4.7-.66-6.16-1.98-1.47-1.34-2.2-3.35-2.2-6.02 0-2.67.73-4.67 2.2-6 1.46-1.33 3.51-2 6.16-2 2.67 0 4.74.67 6.2 2s2.19 3.33 2.19 6-.73 4.68-2.2 6.02c-1.46 1.32-3.52 1.98-6.19 1.98zm0-2.77c1.58 0 2.77-.42 3.57-1.26a5.04 5.04 0 001.23-3.63v-.68c0-1.56-.41-2.76-1.23-3.6-.8-.86-2-1.29-3.57-1.29-1.57 0-2.76.43-3.56 1.29-.8.84-1.2 2.04-1.2 3.6v.68c0 1.56.4 2.77 1.2 3.63.8.84 1.99 1.26 3.56 1.26zM160.2 16c-2.23 0-3.96-.51-5.2-1.53-1.24-1.02-1.86-2.52-1.86-4.49V.27h3.5v9.56c0 1.1.3 1.96.91 2.54a3.8 3.8 0 002.65.86 3.8 3.8 0 002.65-.86c.65-.58.97-1.43.97-2.54V.27h3.5v9.71c0 1.97-.64 3.47-1.89 4.49-1.24 1.02-2.98 1.53-5.23 1.53zM171.25.27h8.78c1.84 0 3.23.43 4.16 1.28.94.85 1.4 2.03 1.4 3.57 0 2.16-.96 3.6-2.89 4.32l3.37 6.29h-3.78l-2.91-5.77h-4.63v5.77h-3.5V.27zm8.46 6.96c.76 0 1.33-.18 1.74-.56.4-.38.6-.9.6-1.55 0-.67-.2-1.18-.6-1.54-.4-.36-.98-.54-1.74-.54h-4.96v4.2h4.96zM189.37.27h3.4l6.35 8.4c.2.26.52.76.97 1.52l.12-.07-.07-1.3V.26h3.4v15.46h-3.4l-6.39-8.47c-.3-.4-.62-.9-.94-1.5l-.12.08c.05.64.07 1.1.07 1.35v8.54h-3.4V.27zM212.37.27h4.39l6.45 15.46h-3.8l-1.19-2.95h-7.51l-1.18 2.95h-3.62L212.37.27zm4.75 9.78l-1.57-3.92c-.2-.48-.54-1.5-1.04-3.04h-.12c-.5 1.54-.84 2.56-1.03 3.04l-1.57 3.92h5.33zM225.6.27h3.49v12.62H238v2.84h-12.4V.27z" fill="#FCFCFC"/></svg>