<svg fill="none" xmlns="http://www.w3.org/2000/svg" viewBox="0 0 23 18"><path d="M23 2.14c-.86.36-1.78.6-2.71.71A4.6 4.6 0 0022.36.34c-.92.53-1.93.9-3 1.1a4.88 4.88 0 00-5.67-.9 4.62 4.62 0 00-2.07 2.13 4.39 4.39 0 00-.3 2.91 13.8 13.8 0 01-5.38-1.37A13.32 13.32 0 011.6.84a4.4 4.4 0 00-.64 2.28 4.5 4.5 0 002.1 3.78 4.84 4.84 0 01-2.14-.57v.06c0 1.05.38 2.07 1.07 2.88a4.76 4.76 0 002.72 1.57c-.7.19-1.43.21-2.13.08.3.9.89 1.7 1.68 2.26.79.57 1.74.88 2.73.9A9.61 9.61 0 010 15.96 13.73 13.73 0 007.23 18 13.08 13.08 0 0020.65 4.49 9.4 9.4 0 0023 2.14z" fill="#FCFCFC"/></svg>