<svg fill="none" xmlns="http://www.w3.org/2000/svg" viewBox="0 0 28 16"><path fill-rule="evenodd" clip-rule="evenodd" d="M13.7 15.93h1.67s.5-.05.77-.33c.23-.26.23-.74.23-.74s-.04-2.25 1-2.58c1.03-.32 2.35 2.18 3.75 3.14 1.06.72 1.86.57 1.86.57l3.74-.06s1.96-.12 1.03-1.66c-.08-.12-.54-1.14-2.78-3.22-2.34-2.18-2.03-1.83.8-5.6 1.71-2.3 2.4-3.7 2.19-4.3-.2-.57-1.47-.42-1.47-.42l-4.21.03s-.32-.04-.55.1c-.22.13-.37.45-.37.45s-.66 1.77-1.55 3.29c-1.88 3.18-2.63 3.35-2.93 3.15-.72-.46-.54-1.85-.54-2.84 0-3.09.47-4.38-.91-4.71-.46-.11-.8-.18-1.97-.2-1.5-.01-2.77 0-3.49.36-.48.24-.85.76-.62.79.28.04.9.17 1.24.63.43.58.42 1.9.42 1.9s.24 3.64-.58 4.1c-.57.3-1.35-.33-3.02-3.22-.86-1.48-1.5-3.12-1.5-3.12s-.13-.3-.35-.47C5.29.77 4.91.7 4.91.7l-4 .02s-.6.02-.82.28c-.2.23-.01.72-.01.72S3.2 9.07 6.75 12.76c3.26 3.4 6.95 3.17 6.95 3.17z" fill="#FCFCFC"/></svg>