<svg width="14" height="14" fill="none" xmlns="http://www.w3.org/2000/svg"><path fill-rule="evenodd" clip-rule="evenodd" d="M5.482 5.211a.7.7 0 11-1.164.778.7.7 0 011.164-.778zm3.01 3.141a.7.7 0 01.518 1.042 2.318 2.318 0 01-4.019 0 .7.7 0 01.518-1.042.7.7 0 01.7.342.91.91 0 001.582 0 .7.7 0 01.7-.342zm.22-3.334a.7.7 0 11.777 1.164.7.7 0 01-.778-1.164zM3.11 1.18a7 7 0 117.778 11.64A7 7 0 013.111 1.18zm.312 10.149A5.6 5.6 0 007 12.6a5.6 5.6 0 003.96-9.56C9.91 1.99 8.674 1.403 7 1.4c-2.24-.004-4.315 1.773-4.94 2.918a5.6 5.6 0 001.363 7.01z" fill="#fff"/></svg>