<svg width="17" height="14" fill="none" xmlns="http://www.w3.org/2000/svg"><path fill-rule="evenodd" clip-rule="evenodd" d="M1.1 1H0V0h1.1c.76 0 1.4.56 1.5 1.32l.08.68H14.5c1.03 0 1.75 1 1.43 1.97l-1.33 4A1.5 1.5 0 0 1 13.18 9H3.86a1.5 1.5 0 0 1-1.49-1.32l-.63-5.12-.14-1.12A.5.5 0 0 0 1.1 1Zm1.7 2 .57 4.56a.5.5 0 0 0 .5.44h9.3a.5.5 0 0 0 .48-.34l1.33-4A.5.5 0 0 0 14.5 3H2.8Zm2.66 8a1 1 0 0 0-.99 1 1 1 0 0 0 1 1 1 1 0 0 0 .98-1 1 1 0 0 0-.99-1Zm-1.99 1a2 2 0 0 1 2-2 2 2 0 0 1 1.98 2 2 2 0 0 1-1.99 2 2 2 0 0 1-1.99-2Zm6.96 0a1 1 0 0 1 .99-1 1 1 0 0 1 .99 1 1 1 0 0 1-1 1 1 1 0 0 1-.98-1Zm.99-2a2 2 0 0 0-2 2 2 2 0 0 0 2 2 2 2 0 0 0 1.99-2 2 2 0 0 0-2-2Z" fill="#fff"/></svg>