<svg width="40" height="40" fill="none" xmlns="http://www.w3.org/2000/svg"><mask id="a" fill="#fff"><path fill-rule="evenodd" clip-rule="evenodd" d="M13 1.26c-.69.26-1.35.55-2 .87V10a9 9 0 0 0 9 9 11 11 0 0 1 11 11v6.7c.7-.45 1.37-.96 2-1.5v-5.87C33 22.53 27.48 17 20.67 17A7.67 7.67 0 0 1 13 9.33V1.26Zm22 31.97v-3.9C35 21.42 28.58 15 20.67 15A5.67 5.67 0 0 1 15 9.33V.63A20.04 20.04 0 0 1 40 20c0 5.07-1.89 9.7-5 13.23Zm-6 4.64V30a9 9 0 0 0-9-9A11 11 0 0 1 9 10V3.3c-.7.45-1.37.96-2 1.5v5.87C7 17.47 12.52 23 19.33 23A7.67 7.67 0 0 1 27 30.67v8.07a19.9 19.9 0 0 0 2-.87Zm-4 1.5v-8.7A5.67 5.67 0 0 0 19.33 25 14.33 14.33 0 0 1 5 10.67v-3.9a20 20 0 0 0 20 32.6Z"/></mask><path d="M11 2.13 10.1.35 9 .9v1.23h2Zm2-.87h2v-2.88l-2.7 1 .7 1.88ZM31 36.7h-2v3.71l3.1-2.04L31 36.7Zm2-1.51 1.3 1.52.7-.6v-.92h-2Zm2-1.97h-2v5.29l3.5-3.97-1.5-1.32ZM15 .63l-.5-1.94-1.5.39V.63h2Zm14 37.24.9 1.78 1.1-.55v-1.23h-2ZM9 3.29h2V-.42L7.9 1.62 9 3.3ZM7 4.8 5.7 3.28l-.7.6v.92h2Zm20 33.94h-2v2.88l2.7-1-.7-1.88Zm-2 .63.5 1.94 1.5-.39v-1.55h-2ZM5 6.77h2V1.48L3.5 5.45 5 6.77Zm6.9-2.85c.58-.3 1.18-.56 1.8-.79L12.3-.6c-.75.28-1.49.6-2.2.96l1.8 3.57ZM9 2.13V10h4V2.13H9ZM9 10a11 11 0 0 0 11 11v-4a7 7 0 0 1-7-7H9Zm11 11a9 9 0 0 1 9 9h4a13 13 0 0 0-13-13v4Zm9 9v6.7h4V30h-4Zm2.7 3.68c-.57.49-1.17.94-1.8 1.36l2.2 3.34c.77-.51 1.5-1.07 2.2-1.66l-2.6-3.04Zm-.7-4.35v5.87h4v-5.87h-4ZM20.67 19C26.37 19 31 23.63 31 29.33h4C35 21.42 28.58 15 20.67 15v4ZM11 9.33A9.67 9.67 0 0 0 20.67 19v-4A5.67 5.67 0 0 1 15 9.33h-4Zm0-8.07v8.07h4V1.26h-4Zm26 31.97v-3.9h-4v3.9h4Zm0-3.9C37 20.31 29.69 13 20.67 13v4C27.47 17 33 22.52 33 29.33h4ZM20.67 13A3.67 3.67 0 0 1 17 9.33h-4A7.67 7.67 0 0 0 20.67 17v-4ZM17 9.33V.63h-4v8.7h4Zm-1.5-6.76C16.94 2.2 18.44 2 20 2v-4c-1.9 0-3.74.24-5.5.7l1 3.87ZM20 2a18 18 0 0 1 18 18h4A22 22 0 0 0 20-2v4Zm18 18c0 4.57-1.7 8.73-4.5 11.9l3 2.65A21.92 21.92 0 0 0 42 20h-4Zm-7 17.87V30h-4v7.87h4ZM31 30a11 11 0 0 0-11-11v4a7 7 0 0 1 7 7h4ZM20 19a9 9 0 0 1-9-9H7a13 13 0 0 0 13 13v-4Zm-9-9V3.3H7V10h4ZM8.3 6.32c.57-.49 1.17-.94 1.8-1.36L7.9 1.62c-.77.51-1.5 1.07-2.2 1.66l2.6 3.04ZM5 4.8v5.87h4V4.8H5Zm0 5.87C5 18.58 11.42 25 19.33 25v-4C13.63 21 9 16.37 9 10.67H5ZM19.33 25A5.67 5.67 0 0 1 25 30.67h4A9.67 9.67 0 0 0 19.33 21v4ZM25 30.67v8.07h4v-8.07h-4Zm3.1 5.41c-.58.3-1.18.56-1.8.79l1.4 3.74c.75-.28 1.49-.6 2.2-.96l-1.8-3.57ZM27 39.37v-8.7h-4v8.7h4Zm0-8.7A7.67 7.67 0 0 0 19.33 23v4A3.67 3.67 0 0 1 23 30.67h4ZM19.33 23A12.33 12.33 0 0 1 7 10.67H3C3 19.69 10.31 27 19.33 27v-4ZM7 10.67v-3.9H3v3.9h4ZM2 20c0-4.57 1.7-8.73 4.5-11.9l-3-2.65A21.92 21.92 0 0 0-2 20h4Zm18 18A18 18 0 0 1 2 20h-4a22 22 0 0 0 22 22v-4Zm4.5-.57c-1.44.37-2.94.57-4.5.57v4c1.9 0 3.74-.24 5.5-.7l-1-3.87Z" fill="#8FC0CF" mask="url(#a)"/></svg>