<svg width="699" height="112" fill="none" xmlns="http://www.w3.org/2000/svg"><path d="M33.26 72H79.6V47.05H33.26v-21.1H85.9V1H1.56v107h31.7V72ZM112.9 1h-1v59.2c0 15.79 4.4 28.13 13.35 36.87 8.93 8.72 21.31 13.03 37 13.03 15.68 0 28.06-4.3 37-13.03 8.94-8.74 13.35-21.08 13.35-36.87V1h-31.25v58.3c0 8.92-1.75 15.06-5 18.68-3.27 3.65-7.83 5.52-13.8 5.52-5.97 0-10.59-1.87-13.96-5.52-3.25-3.63-5-9.77-5-18.68V1h-30.7Zm153.55 106v1h31.7V26.55h32.1V1H234.2v25.55h32.25V107ZM352.81 1h-1v59.2c0 15.79 4.4 28.13 13.35 36.87 8.93 8.72 21.31 13.03 37 13.03 15.68 0 28.06-4.3 37-13.03 8.94-8.74 13.35-21.08 13.35-36.87V1h-31.25v58.3c0 8.92-1.74 15.06-5 18.68-3.27 3.65-7.83 5.52-13.8 5.52-5.97 0-10.58-1.87-13.96-5.52-3.25-3.63-5-9.77-5-18.68V1h-30.7Zm132.82 106v1h31.7V80.1H532l18.74 27.46.3.44h34.23l-1.08-1.57-22-32.07c6-3.07 10.74-7.2 14.21-12.4v-.01c3.93-5.99 5.87-13.03 5.87-21.1 0-8.16-1.94-15.26-5.87-21.25-3.91-6.07-9.47-10.7-16.63-13.86C552.74 2.57 544.33 1 534.63 1h-49v106Zm47.2-51.85h-15.5V26.4h15.5c6.08 0 10.39 1.33 13.13 3.8h.01c2.84 2.48 4.3 5.98 4.3 10.65 0 4.56-1.45 8.02-4.3 10.5h-.01c-2.74 2.47-7.05 3.8-13.13 3.8Zm110.23 10.7h46.65v-24.2h-46.65v-15.7h52.95V1h-84.35v107h86.3V83.05h-54.9v-17.2Z" stroke="#fff" stroke-width="2"/></svg>