<svg width="101" height="20" fill="none" xmlns="http://www.w3.org/2000/svg"><path fill-rule="evenodd" clip-rule="evenodd" d="M9.97 0v8.87h2.28V0H9.97ZM3.19 8.73c.57.2 1.19.3 1.85.3.6 0 1.23-.09 1.86-.27a5.46 5.46 0 0 0 1.67-.79V4.51h-2.1v2.3a2.77 2.77 0 0 1-1.29.27 2.28 2.28 0 0 1-1.72-.66 2.38 2.38 0 0 1-.65-1.73c0-.37.05-.7.17-.98a2.24 2.24 0 0 1 1.24-1.25 2.77 2.77 0 0 1 3.03.77l1.51-1.37C8.36 1.37 7.84 1 7.21.73A5.42 5.42 0 0 0 5.1.33C4.4.33 3.78.44 3.2.66A4.26 4.26 0 0 0 .76 2.94C.52 3.47.4 4.04.4 4.69a4.26 4.26 0 0 0 2.78 4.04Zm13.8.25c-.71 0-1.34-.15-1.9-.43a3.35 3.35 0 0 1-1.3-1.19 3.28 3.28 0 0 1-.47-1.74c0-.66.16-1.23.47-1.74.32-.5.75-.89 1.3-1.17a4.05 4.05 0 0 1 1.9-.43c.71 0 1.35.15 1.9.43a3.16 3.16 0 0 1 1.77 2.9c0 .66-.15 1.24-.46 1.75-.32.5-.75.9-1.31 1.19-.55.28-1.19.43-1.9.43Zm0-1.8c.27 0 .5-.07.7-.19.2-.12.37-.3.49-.52.12-.24.18-.53.18-.85 0-.33-.06-.6-.18-.83a1.33 1.33 0 0 0-1.19-.7c-.25 0-.49.06-.7.18-.2.12-.36.3-.49.52-.12.23-.18.5-.18.83 0 .32.06.6.18.85.13.23.3.4.5.52s.44.18.7.18Zm7.36 1.44c.39.24.88.36 1.46.36.6 0 1.13-.14 1.61-.41.49-.28.87-.67 1.15-1.16.29-.5.43-1.1.43-1.8 0-.68-.14-1.27-.43-1.76-.28-.5-.66-.89-1.15-1.16a3.21 3.21 0 0 0-3.02-.05c-.15.09-.28.2-.4.32V0h-2.28v8.87h2.17v-.65c.14.16.29.3.46.4Zm1.67-1.63c-.2.12-.43.18-.69.18-.25 0-.49-.06-.7-.18-.2-.12-.36-.3-.49-.52a1.87 1.87 0 0 1-.18-.85c0-.33.06-.6.18-.83.13-.23.3-.4.5-.52s.44-.18.7-.18c.25 0 .48.06.68.18.2.12.37.3.49.52.13.23.19.5.19.83 0 .32-.06.6-.2.85-.11.23-.28.4-.48.52Zm7.88 1.88v-.84c-.14.25-.32.46-.56.61-.34.22-.8.34-1.36.34a3 3 0 0 1-1.32-.27 1.98 1.98 0 0 1-.83-.71c-.19-.3-.28-.65-.28-1.02 0-.4.1-.74.3-1.03.2-.3.53-.52.95-.67.42-.16.97-.24 1.64-.24h1.3a.99.99 0 0 0-.34-.73c-.21-.2-.56-.3-1.04-.3a3.07 3.07 0 0 0-1.76.57l-.77-1.54c.37-.24.8-.43 1.32-.55.52-.14 1.03-.2 1.55-.2 1.05 0 1.87.24 2.44.72.59.48.88 1.23.88 2.26v3.6H33.9Zm-.16-2.64v.56c-.1.25-.25.45-.46.57-.2.12-.42.18-.67.18a.98.98 0 0 1-.62-.18.58.58 0 0 1-.23-.48c0-.2.07-.35.22-.47s.4-.18.78-.18h.98ZM37.46 0v8.87h2.28V0h-2.28Zm37.47 19.83v-6.48h2.28v6.48h-2.28Zm1.14-7.2c-.41 0-.75-.1-1-.34a1.11 1.11 0 0 1-.4-.86c0-.34.14-.63.4-.86.25-.23.59-.35 1-.35.42 0 .75.11 1 .34.27.21.4.5.4.83 0 .36-.13.66-.4.9-.24.23-.57.35-1 .35ZM57.5 10.97v8.87h2.28v-8.87H57.5ZM44.8 20c-.69 0-1.35-.08-1.99-.25a5.27 5.27 0 0 1-1.55-.67l.78-1.75a5.04 5.04 0 0 0 3.56.74c.2-.06.35-.14.44-.23.1-.1.14-.23.14-.36 0-.2-.09-.34-.26-.46-.18-.1-.4-.2-.69-.27l-.93-.22c-.34-.07-.68-.16-1.02-.27a4.26 4.26 0 0 1-.93-.43c-.28-.18-.5-.42-.68-.7-.18-.3-.26-.67-.26-1.12 0-.5.13-.95.4-1.36.28-.4.7-.73 1.25-.98a5.06 5.06 0 0 1 2.07-.37 6.88 6.88 0 0 1 3.04.73l-.73 1.75a5.46 5.46 0 0 0-2.33-.64c-.32 0-.59.04-.79.1a.87.87 0 0 0-.43.27.6.6 0 0 0-.13.38c0 .19.08.33.25.44.18.1.4.2.68.27l.94.2c.34.07.68.16 1.02.28.34.1.66.24.94.43a2.05 2.05 0 0 1 .94 1.8c0 .47-.15.92-.43 1.34-.27.4-.68.73-1.23.98a5 5 0 0 1-2.07.37Zm7.98-.06c-.72 0-1.35-.14-1.9-.43a3.35 3.35 0 0 1-1.3-1.18 3.28 3.28 0 0 1-.48-1.75c0-.65.16-1.23.47-1.73.32-.5.76-.9 1.3-1.17a4.05 4.05 0 0 1 1.9-.43c.72 0 1.35.14 1.9.43a3.16 3.16 0 0 1 1.78 2.9c0 .66-.16 1.24-.47 1.75-.31.5-.75.9-1.3 1.18-.56.29-1.2.43-1.9.43Zm0-1.8c.26 0 .5-.06.7-.18.2-.12.36-.3.48-.53.12-.24.18-.52.18-.85 0-.32-.06-.6-.18-.82-.12-.23-.28-.4-.49-.53-.2-.12-.43-.18-.7-.18-.25 0-.48.06-.7.18-.2.12-.35.3-.48.53-.12.22-.18.5-.18.82 0 .33.06.61.18.85.13.23.29.4.49.53.2.12.44.18.7.18Zm11.22 1.8c-.53 0-1-.1-1.43-.31-.41-.2-.74-.53-.98-.97-.23-.44-.35-1-.35-1.68v-3.63h2.28v3.26c0 .5.1.86.28 1.07.19.22.46.32.8.32.23 0 .43-.05.61-.15.19-.1.34-.27.45-.5.1-.22.17-.52.17-.88v-3.12h2.28v6.48h-2.18v-.67c-.16.17-.34.32-.55.43-.42.23-.88.35-1.38.35Zm6.53-.6c.47.4 1.12.6 1.95.6.3 0 .6-.03.87-.1.28-.05.52-.14.71-.27l-.56-1.59c-.2.14-.43.2-.7.2a.67.67 0 0 1-.49-.19.77.77 0 0 1-.2-.55V15.3h1.5v-1.7h-1.5v-1.68h-2.27v1.68h-.95v1.7h.95v2.18c0 .82.23 1.45.7 1.86Zm9.54.17c.55.29 1.18.43 1.9.43.7 0 1.34-.14 1.9-.43.55-.29.99-.68 1.3-1.18.31-.51.47-1.1.47-1.75a3.16 3.16 0 0 0-1.78-2.9 4.05 4.05 0 0 0-1.9-.43c-.7 0-1.34.14-1.89.43-.55.28-.99.67-1.3 1.17-.32.5-.48 1.08-.48 1.73 0 .66.16 1.24.47 1.75.32.5.76.9 1.31 1.18Zm2.6-1.55c-.2.12-.44.18-.7.18-.26 0-.5-.06-.7-.18-.2-.12-.36-.3-.5-.53a1.87 1.87 0 0 1-.17-.85c0-.32.06-.6.18-.82.13-.23.3-.4.5-.53.2-.12.43-.18.69-.18.26 0 .5.06.7.18.2.12.37.3.48.53.13.22.19.5.19.82 0 .33-.06.61-.19.85-.11.23-.28.4-.49.53Zm8.26-4.71c.5 0 .96.1 1.37.3.4.2.73.52.96.94.24.42.36.97.36 1.64v3.7h-2.28V16.5c0-.46-.1-.8-.29-1a.97.97 0 0 0-.78-.33c-.24 0-.46.06-.66.17-.2.1-.35.27-.47.49-.1.22-.16.51-.16.87v3.13h-2.28v-6.48h2.17v.71c.17-.18.37-.33.6-.45.43-.24.92-.36 1.46-.36Zm4.86 6.5c.53.13 1.07.19 1.62.19.7 0 1.3-.1 1.77-.29.48-.19.84-.44 1.08-.76.25-.32.37-.68.37-1.08 0-.36-.07-.66-.2-.9a1.49 1.49 0 0 0-.56-.56 2.58 2.58 0 0 0-.75-.32 5.87 5.87 0 0 0-.82-.15l-.75-.11a2.2 2.2 0 0 1-.54-.16c-.14-.07-.2-.17-.2-.3 0-.12.07-.23.22-.32.16-.09.43-.13.82-.13a4.18 4.18 0 0 1 1.87.48l.68-1.54a3.77 3.77 0 0 0-1.19-.41c-.46-.1-.92-.14-1.38-.14-.68 0-1.25.1-1.72.28a2.4 2.4 0 0 0-1.08.77c-.24.32-.36.68-.36 1.1 0 .36.06.67.2.9.14.25.32.44.54.58.23.14.48.24.76.31a10.7 10.7 0 0 0 1.57.26c.23.04.41.08.55.15.14.05.22.14.22.27 0 .14-.08.25-.23.33-.15.07-.4.11-.8.11a4.86 4.86 0 0 1-2.26-.6l-.69 1.56c.32.2.74.35 1.26.48ZM42 4h59V6H42V4ZM39 15H0v2h39v-2Z" fill="#fff"/></svg>