<svg xmlns="http://www.w3.org/2000/svg" viewBox="0 0 640 115" style="enable-background:new 0 0 640 115" xml:space="preserve"><path d="M1.9 110v1h29.5V59.4l25 40.8.3.5H71l.3-.5 25.2-42.3.2 52.1v1H126v-1l-.3-105V4h-26l-.3.5-35.1 59.2L28.2 4.5l-.3-.5h-26v106zm169.5-12.6c5.4 5 11.7 8.9 18.9 11.6 7.2 2.7 15.1 4.1 23.6 4.1 8.6 0 16.5-1.4 23.6-4.1 7.2-2.7 13.5-6.6 18.8-11.6 5.3-5 9.4-10.9 12.4-17.6 3.1-6.8 4.6-14.3 4.6-22.3s-1.5-15.4-4.6-22.2c-3-6.7-7.1-12.6-12.4-17.6-5.3-5.1-11.6-9-18.8-11.8-7.1-2.7-15-4.1-23.6-4.1-8.5 0-16.4 1.4-23.6 4.1-7.2 2.7-13.5 6.7-18.9 11.8-5.3 5-9.4 10.9-12.4 17.6-3 6.7-4.4 14.1-4.4 22.2s1.5 15.4 4.4 22.2c3 6.7 7.1 12.6 12.4 17.7zm53.3-12.9c-3.3 1.3-6.8 2-10.7 2-3.9 0-7.5-.7-10.9-2-3.3-1.3-6.2-3.3-8.7-5.8a31.2 31.2 0 0 1-5.8-9.3c-1.3-3.6-2-7.5-2-11.9 0-4.5.7-8.5 2-11.9 1.5-3.6 3.4-6.6 5.8-9.1 2.5-2.6 5.4-4.6 8.7-5.9 3.4-1.3 7-2 10.9-2 3.9 0 7.4.7 10.7 2 3.4 1.3 6.2 3.3 8.6 5.9 2.5 2.5 4.4 5.5 5.8 9.1 1.4 3.5 2.2 7.4 2.2 11.9 0 4.4-.7 8.4-2.2 11.9-1.4 3.6-3.3 6.7-5.8 9.3-2.4 2.5-5.2 4.4-8.6 5.8zm77.2 25.5v1h50.6c11.7 0 22.1-2.2 31-6.6 9-4.4 16-10.5 21-18.5 5.1-8.1 7.7-17.6 7.7-28.4 0-11-2.5-20.5-7.7-28.4-5-8-12-14.1-21-18.5S364.2 4 352.5 4h-50.6v106zm64.5-77c4.3 2.1 7.7 5.2 10.1 9.4 2.4 4.1 3.6 9.1 3.6 15.1 0 5.9-1.2 10.9-3.6 15.1-2.4 4.1-5.8 7.3-10.1 9.5-4.2 2.1-9.3 3.2-15.1 3.2h-17.8V29.7h17.8c5.9 0 10.9 1.1 15.1 3.3zm105.8 35.8h46.6V44.7h-46.6V29h52.9V4h-84.3v107h86.3V86.1h-54.9V68.8zm84.4 41.2v1h81.8V85.4h-50.1V4h-31.7v106z" style="fill:none;stroke:#fff;stroke-width:2"/></svg>