<svg xmlns="http://www.w3.org/2000/svg" viewBox="0 0 589 115" style="enable-background:new 0 0 589 115" xml:space="preserve"><path d="M22.4 109.9c-8-2.2-14.5-5.1-19.7-8.5l-.7-.5.3-.8 9.8-21.9.5-1.1 1 .6c4.6 2.9 9.9 5.4 16 7.4 6.1 1.9 12.2 2.8 18.1 2.8 4 0 7.2-.3 9.6-1 2.4-.8 4-1.7 4.9-2.7 1-1.1 1.5-2.4 1.5-3.8 0-2-.9-3.6-2.8-4.9a29.8 29.8 0 0 0-8.3-3.3c-3.5-.9-7.4-1.8-11.7-2.7-4.2-.9-8.5-2.1-12.9-3.5-4.3-1.4-8.2-3.3-11.8-5.5-3.6-2.4-6.6-5.4-8.9-9.2-2.3-3.9-3.4-8.7-3.4-14.5 0-6.5 1.8-12.4 5.3-17.7 3.6-5.3 9-9.5 16-12.6C32.3 3.3 41 1.8 51.4 1.8c7 0 13.8.8 20.5 2.4C78.7 5.7 84.7 8 90 11.1l.8.4-.3.8-9.2 22-.4 1-1-.5c-4.9-2.7-9.8-4.6-14.6-5.9-4.8-1.4-9.5-2.1-14-2.1-4 0-7.2.4-9.6 1.3-2.4.8-4 1.8-4.9 3-1 1.2-1.4 2.6-1.4 4.2 0 1.9.8 3.5 2.7 4.7 2.1 1.2 4.8 2.3 8.3 3.2 3.6.8 7.5 1.6 11.7 2.5 5.3 1.1 9.6 2.4 12.8 3.5 6.6 2.3 10 4.2 11.9 5.5a25.74 25.74 0 0 1 8.7 9.1C95 70 95 75.7 95 78.2c0 3.5-.6 6.2-1 7.7-.2.7-1.4 5.2-4.5 9.8-5 7.5-12.3 11-15.9 12.7-9.4 4.4-17.6 4.6-26.2 4.7a87.1 87.1 0 0 1-25-3.2m99.4.1v1h31.7V83.6h17.3c9.7 0 18.1-1.6 25.2-4.7 7.2-3.3 12.7-7.9 16.6-13.9 3.9-6 5.9-13 5.9-21.1 0-8.2-1.9-15.3-5.9-21.2-3.9-6.1-9.5-10.7-16.6-13.9-7.1-3.2-15.5-4.8-25.2-4.8h-49v106zm47.1-51.8h-15.5V29.4h15.5c6.1 0 10.4 1.3 13.1 3.8 2.8 2.5 4.3 6 4.3 10.6s-1.5 8-4.3 10.5c-2.7 2.5-7 3.9-13.1 3.9zm108.4 10.6h46.6V44.7h-46.6V29h52.9V4h-84.3v107h86.3V86.1h-54.9V68.8zm115.8 0h46.6V44.7h-46.6V29H446V4h-84.4v107H448V86.1h-54.9V68.8zm84.3 41.2v1h50.7c11.7 0 22.1-2.2 31-6.6 9-4.4 16-10.5 21-18.5 5.1-8.1 7.7-17.6 7.7-28.4 0-11-2.5-20.4-7.7-28.4-5-8-12-14.1-21-18.5S539.8 4 528.1 4h-50.7v106zM542 33c4.3 2.1 7.7 5.2 10.1 9.4 2.4 4.1 3.6 9.1 3.6 15.1 0 5.9-1.2 10.9-3.6 15.1-2.4 4.1-5.8 7.3-10.1 9.5-4.2 2.1-9.3 3.2-15.1 3.2h-17.8V29.7h17.8c5.9 0 10.9 1.1 15.1 3.3z" style="fill:none;stroke:#fff;stroke-width:2"/></svg>