<svg fill="none" xmlns="http://www.w3.org/2000/svg" viewBox="0 0 376 52"><path d="M159.9 19.11a5.5 5.5 0 01-2.65-.64 4.87 4.87 0 01-2.52-4.37c0-.95.22-1.8.67-2.56a4.72 4.72 0 011.86-1.8 5.4 5.4 0 012.66-.65c.77 0 1.47.13 2.1.39.64.25 1.18.63 1.63 1.13l-.91.89a3.65 3.65 0 00-2.76-1.17 4 4 0 00-1.98.5 3.59 3.59 0 00-1.87 3.27 3.62 3.62 0 001.88 3.28 4 4 0 001.97.49c1.09 0 2-.4 2.76-1.18l.9.88c-.44.5-.99.89-1.63 1.15-.64.26-1.34.4-2.1.4zm10.78-6.35h-2.72V19h-1.34v-6.24h-2.72v-1.18h6.78v1.18zm8.03-1.18l-3.6 8.16c-.31.76-.69 1.29-1.12 1.6-.42.3-.92.46-1.52.46-.37 0-.72-.06-1.06-.18a2.1 2.1 0 01-.84-.5l.57-1.01c.38.36.83.54 1.33.54.33 0 .6-.09.81-.26.22-.17.43-.47.6-.89l.24-.51-3.28-7.41h1.4l2.6 5.94 2.56-5.94h1.31zm8.53 6.24v2.9h-1.26V19h-6.2v1.72h-1.28v-2.9h.4c.47-.02.8-.36.97-1 .18-.65.3-1.56.37-2.73l.11-2.51h5.75v6.24h1.14zm-5.77-3.64c-.04.94-.12 1.71-.24 2.33-.1.6-.32 1.04-.63 1.31h4.16v-5.06h-3.22l-.07 1.42zm7.52-2.6h1.34v5.4l4.55-5.4h1.22V19h-1.34v-5.4l-4.54 5.4H189v-7.42zm15.67 0V19h-1.2v-2.35h-2.31L199.52 19h-1.44l1.8-2.53a2.48 2.48 0 01-1.28-.83c-.3-.4-.45-.88-.45-1.46 0-.85.29-1.49.87-1.93a3.82 3.82 0 012.4-.67h3.24zm-5.14 2.65c0 .5.16.86.46 1.1.32.24.8.35 1.42.35h2.06v-2.92h-2c-1.3 0-1.94.49-1.94 1.47zm19.07 3.6v2.9h-1.26V19h-6.2v1.72h-1.28v-2.9h.4c.47-.02.8-.36.97-1 .18-.65.3-1.56.37-2.73l.11-2.51h5.75v6.24h1.14zm-5.77-3.65c-.04.94-.12 1.71-.24 2.33-.11.6-.32 1.04-.63 1.31h4.16v-5.06h-3.22l-.07 1.42zm7.52-2.6h1.34v5.4l4.55-5.4h1.22V19h-1.34v-5.4l-4.54 5.4h-1.23v-7.42zm13.62 3.56c.49.13.87.34 1.14.63.27.29.4.64.4 1.07 0 .44-.14.83-.44 1.18-.3.34-.71.6-1.25.8-.52.18-1.1.28-1.76.28-.55 0-1.1-.07-1.62-.21a5.03 5.03 0 01-1.4-.63l.4-1.02a4.65 4.65 0 002.6.71c.64 0 1.15-.1 1.52-.32.38-.23.57-.52.57-.9a.88.88 0 00-.46-.8c-.3-.18-.72-.28-1.27-.28h-1.36v-.96h1.26c.5 0 .9-.1 1.19-.27.29-.18.43-.42.43-.73 0-.33-.17-.6-.51-.78-.34-.19-.8-.28-1.38-.28-.74 0-1.51.2-2.34.57l-.36-1.03c.9-.46 1.85-.69 2.84-.69.6 0 1.14.09 1.61.25.48.17.85.41 1.12.72.27.3.4.66.4 1.05 0 .36-.11.69-.35.98-.25.29-.57.5-.98.66zm6.24-3.63c1.03 0 1.8.25 2.35.76.55.5.83 1.25.83 2.25V19h-1.28v-.98c-.22.35-.54.61-.96.8-.41.18-.9.26-1.47.26-.83 0-1.5-.2-2-.6-.5-.4-.75-.93-.75-1.58s.24-1.18.72-1.57c.47-.4 1.23-.6 2.26-.6h2.13v-.27c0-.57-.17-1.02-.5-1.33-.34-.3-.83-.46-1.49-.46a3.82 3.82 0 00-2.35.8l-.56-1c.38-.32.84-.55 1.37-.7a5.6 5.6 0 011.7-.26zm-.31 6.54c.51 0 .96-.11 1.33-.34a2 2 0 00.81-.98V15.7h-2.07c-1.14 0-1.7.38-1.7 1.14 0 .38.14.67.43.89.28.21.69.32 1.2.32zm5.9-6.47h1.35v5.4l4.55-5.4h1.22V19h-1.35v-5.4l-4.53 5.4h-1.23v-7.42zm3.48-.97a2.4 2.4 0 01-1.61-.49 1.85 1.85 0 01-.59-1.44h.91c0 .35.13.63.35.84.23.2.54.31.92.31.39 0 .7-.1.93-.3.23-.22.35-.5.36-.85h.94c0 .63-.21 1.1-.6 1.44-.4.33-.93.5-1.61.5zm6.25.97h1.34v3.15h4.23v-3.15h1.34V19h-1.34v-3.1h-4.23V19h-1.34v-7.42zm16.23 3.75c0 .1 0 .24-.03.4h-6.02c.09.66.37 1.19.86 1.59.5.4 1.1.59 1.83.59.89 0 1.6-.3 2.14-.9l.75.87c-.34.4-.76.7-1.26.9-.5.2-1.05.3-1.67.3-.78 0-1.48-.15-2.09-.47a3.54 3.54 0 01-1.41-1.36 3.91 3.91 0 01-.49-1.96c0-.72.16-1.37.48-1.95.32-.57.77-1.02 1.33-1.34.56-.33 1.2-.49 1.91-.49s1.34.16 1.9.49c.55.32.99.77 1.3 1.34.31.58.47 1.25.47 2zm-3.67-2.69c-.64 0-1.18.2-1.62.6-.43.38-.68.9-.76 1.53h4.76a2.34 2.34 0 00-2.38-2.13zm9.7-1.13c.71 0 1.35.16 1.92.48.57.31 1.02.76 1.33 1.33.33.57.5 1.22.5 1.97s-.17 1.4-.5 1.99a3.38 3.38 0 01-1.33 1.33 3.9 3.9 0 01-3.4.17c-.44-.2-.81-.5-1.12-.9v3.84h-1.34V11.58h1.29v1.18c.3-.41.67-.72 1.13-.93.46-.21.96-.32 1.51-.32zm-.12 6.4a2.37 2.37 0 002.17-1.25c.22-.4.34-.86.34-1.37 0-.51-.12-.97-.34-1.36-.22-.4-.51-.7-.9-.92a2.5 2.5 0 00-1.27-.32 2.48 2.48 0 00-2.17 1.24c-.22.4-.32.85-.32 1.36 0 .51.1.97.32 1.37a2.37 2.37 0 002.17 1.25zm9.05 1.17c-.76 0-1.43-.16-2.03-.49a3.62 3.62 0 01-1.89-3.3c0-.73.17-1.38.5-1.95.34-.57.8-1.02 1.39-1.34.6-.33 1.27-.49 2.03-.49.67 0 1.27.14 1.8.4.52.28.93.67 1.22 1.18l-1.02.66a2.29 2.29 0 00-2.01-1.06c-.49 0-.93.1-1.32.32-.38.21-.69.52-.91.92-.22.4-.32.85-.32 1.36 0 .52.1.98.32 1.39.22.39.53.7.91.9a2.7 2.7 0 002.46.06c.35-.18.64-.44.87-.8l1.02.65c-.29.51-.7.9-1.23 1.19-.52.27-1.12.4-1.79.4zm7.65-3.22h-1.54V19h-1.35v-7.42h1.35v3.14h1.57l2.4-3.14h1.45l-2.82 3.57 3.01 3.85h-1.58l-2.5-3.14zm8.41 3.22c-.73 0-1.4-.16-1.98-.49a3.62 3.62 0 01-1.88-3.3c0-.73.16-1.38.49-1.95.34-.57.8-1.02 1.39-1.34a4.02 4.02 0 011.98-.49c.74 0 1.4.16 1.98.49a3.4 3.4 0 011.37 1.34c.33.57.5 1.22.5 1.95s-.17 1.38-.5 1.96a3.52 3.52 0 01-1.37 1.34c-.58.33-1.24.5-1.98.5zm0-1.17a2.37 2.37 0 002.17-1.25c.22-.4.32-.86.32-1.37 0-.51-.1-.97-.32-1.36-.21-.4-.51-.7-.9-.92a2.5 2.5 0 00-1.27-.32 2.37 2.37 0 00-2.18 1.25c-.22.38-.32.84-.32 1.35a2.5 2.5 0 001.22 2.3c.38.21.8.32 1.28.32zm11.25-5.15h-4.11V19h-1.35v-7.42h5.46v1.18zm4.23 6.32c-.74 0-1.4-.16-1.99-.49a3.62 3.62 0 01-1.87-3.3c0-.73.16-1.38.49-1.95.33-.57.8-1.02 1.38-1.34a4.02 4.02 0 011.99-.49c.74 0 1.4.16 1.97.49a3.4 3.4 0 011.38 1.34c.33.57.5 1.22.5 1.95s-.17 1.38-.5 1.96a3.52 3.52 0 01-1.38 1.34c-.58.33-1.23.5-1.97.5zm0-1.17a2.38 2.38 0 002.17-1.25c.21-.4.32-.86.32-1.37 0-.51-.1-.97-.32-1.36-.22-.4-.51-.7-.9-.92-.37-.22-.8-.32-1.27-.32a2.37 2.37 0 00-2.18 1.25c-.22.38-.33.84-.33 1.35 0 .51.11.97.33 1.37.22.4.52.7.9.93.37.21.8.32 1.28.32zM160.83 32.76h-2.71V39h-1.35v-6.24h-2.71v-1.18h6.77v1.18zm7.75 2.57c0 .1 0 .24-.02.4h-6.02c.08.66.37 1.19.85 1.59.5.4 1.1.59 1.83.59.9 0 1.6-.3 2.15-.9l.74.87c-.34.4-.76.7-1.26.9-.5.2-1.05.3-1.67.3-.78 0-1.48-.15-2.08-.47a3.54 3.54 0 01-1.9-3.32c0-.72.15-1.37.47-1.95.33-.57.77-1.02 1.33-1.34.57-.33 1.2-.49 1.92-.49.7 0 1.34.16 1.89.49.56.32.99.77 1.3 1.34.32.58.47 1.25.47 2zm-3.66-2.69c-.65 0-1.19.2-1.63.6-.43.38-.68.9-.75 1.53h4.76a2.34 2.34 0 00-2.38-2.13zm8.63 3.22h-1.54V39h-1.34v-7.42H172v3.14h1.57l2.4-3.14h1.45l-2.81 3.57 3 3.85h-1.58l-2.49-3.14zm8.47 3.22c-.75 0-1.43-.16-2.03-.49a3.62 3.62 0 01-1.89-3.3c0-.73.17-1.38.5-1.95.34-.57.8-1.02 1.4-1.34.6-.33 1.27-.49 2.02-.49.68 0 1.27.14 1.8.4.53.28.94.67 1.23 1.18l-1.02.66a2.28 2.28 0 00-2.02-1.06c-.48 0-.92.1-1.32.32-.38.21-.68.52-.9.92-.22.4-.33.85-.33 1.36 0 .52.11.98.32 1.39.23.39.53.7.91.9a2.7 2.7 0 002.47.06c.34-.18.63-.44.87-.8l1.02.65c-.3.51-.7.9-1.23 1.19-.53.27-1.12.4-1.8.4zm10.2-6.32h-2.71V39h-1.35v-6.24h-2.71v-1.18h6.77v1.18zm1.38-1.18h1.34v5.4l4.55-5.4h1.22V39h-1.34v-5.4l-4.54 5.4h-1.23v-7.42zm16.09 0V39h-1.35v-6.24h-3.19l-.08 1.65c-.05 1-.14 1.83-.27 2.5-.13.67-.34 1.2-.64 1.6-.3.4-.72.6-1.25.6-.24 0-.52-.04-.82-.12l.08-1.14c.12.03.23.04.34.04a.9.9 0 00.84-.49c.18-.32.3-.71.36-1.16.06-.45.1-1.09.15-1.92l.13-2.74h5.7zm8.55 0V39h-1.2v-2.35H214.71L213.1 39h-1.44l1.8-2.53a2.48 2.48 0 01-1.29-.83c-.3-.4-.44-.88-.44-1.46 0-.85.29-1.49.86-1.93a3.82 3.82 0 012.4-.67h3.25zm-5.14 2.65c0 .5.15.86.46 1.1.32.24.79.35 1.41.35h2.06v-2.92h-2c-1.29 0-1.93.49-1.93 1.47zm16.57.92c.96.24 1.44.84 1.44 1.8 0 .66-.24 1.16-.74 1.52a3.7 3.7 0 01-2.18.53h-3.57v-7.42h3.44c.88 0 1.57.17 2.06.5.5.33.74.8.74 1.4 0 .4-.1.74-.32 1.03-.2.28-.5.5-.87.64zm-3.74-.38h2.02a2 2 0 001.16-.28c.27-.18.4-.46.4-.81 0-.7-.51-1.06-1.56-1.06h-2.02v2.15zm2.16 3.2c.56 0 .98-.1 1.26-.27.28-.18.42-.45.42-.83 0-.38-.13-.67-.4-.85-.24-.19-.65-.28-1.2-.28h-2.24v2.22h2.16zm13.5 1.14a5.5 5.5 0 01-2.67-.64 4.87 4.87 0 01-2.52-4.37c0-.95.23-1.8.68-2.56a4.7 4.7 0 011.86-1.8 5.4 5.4 0 012.66-.65c.76 0 1.46.13 2.1.39.63.25 1.17.63 1.62 1.13l-.9.89a3.65 3.65 0 00-2.77-1.17 4 4 0 00-1.97.5 3.59 3.59 0 00-1.88 3.27 3.62 3.62 0 001.88 3.28 4 4 0 001.97.49c1.1 0 2.01-.4 2.76-1.18l.91.88c-.45.5-1 .89-1.64 1.15-.63.26-1.33.4-2.1.4zm7.99-7.6c1.02 0 1.8.25 2.35.76.55.5.82 1.25.82 2.25V39h-1.27v-.98c-.22.35-.54.61-.97.8-.4.18-.9.26-1.47.26-.83 0-1.5-.2-2-.6-.5-.4-.74-.93-.74-1.58s.24-1.18.71-1.57c.48-.4 1.24-.6 2.27-.6h2.13v-.27c0-.57-.17-1.02-.5-1.33-.34-.3-.83-.46-1.49-.46a3.82 3.82 0 00-2.35.8l-.56-1c.38-.32.84-.55 1.37-.7a5.6 5.6 0 011.7-.26zm-.31 6.54c.51 0 .96-.11 1.33-.34a2 2 0 00.81-.98V35.7h-2.07c-1.14 0-1.7.38-1.7 1.14 0 .38.14.67.43.89.28.21.69.32 1.2.32zm5.9-6.47h1.35v3.15h4.23v-3.15h1.34V39h-1.34v-3.1h-4.23V39h-1.34v-7.42zm12.42 4.28h-1.54V39h-1.35v-7.42h1.35v3.14h1.57l2.4-3.14h1.45l-2.82 3.57 3.01 3.85h-1.58l-2.5-3.14zm10.89-3.1h-2.72V39h-1.34v-6.24h-2.72v-1.18h6.78v1.18zm13.8-3.56V39h-1.37v-8.58h-5.69V39h-1.38v-9.8h8.44zm9.54 6.13l-.03.4h-6.02c.08.66.37 1.19.85 1.59.5.4 1.1.59 1.84.59.88 0 1.6-.3 2.14-.9l.74.87c-.33.4-.75.7-1.26.9-.5.2-1.05.3-1.66.3-.79 0-1.49-.15-2.1-.47a3.54 3.54 0 01-1.4-1.36 3.91 3.91 0 01-.5-1.96c0-.72.16-1.37.48-1.95.33-.57.77-1.02 1.33-1.34.57-.33 1.2-.49 1.92-.49.7 0 1.34.16 1.89.49.56.32 1 .77 1.3 1.34.32.58.48 1.25.48 2zm-3.67-2.69c-.64 0-1.19.2-1.63.6-.42.38-.68.9-.75 1.53h4.76a2.35 2.35 0 00-2.38-2.13zm10.97.12h-2.72V39h-1.34v-6.24h-2.72v-1.18h6.78v1.18zm7.75 2.57l-.03.4h-6.02c.08.66.37 1.19.86 1.59.49.4 1.1.59 1.83.59.89 0 1.6-.3 2.14-.9l.74.87c-.33.4-.75.7-1.26.9-.5.2-1.05.3-1.66.3-.79 0-1.48-.15-2.09-.47a3.54 3.54 0 01-1.9-3.32c0-.72.16-1.37.47-1.95.33-.57.77-1.02 1.33-1.34.57-.33 1.21-.49 1.92-.49s1.34.16 1.9.49c.55.32.98.77 1.3 1.34.31.58.47 1.25.47 2zm-3.67-2.69c-.64 0-1.18.2-1.62.6-.43.38-.68.9-.76 1.53h4.76a2.34 2.34 0 00-2.38-2.13zm9.69-1.13c.72 0 1.36.16 1.93.48.57.31 1.01.76 1.33 1.33.33.57.49 1.22.49 1.97s-.16 1.4-.49 1.99a3.37 3.37 0 01-1.33 1.33 3.9 3.9 0 01-3.4.17c-.44-.2-.81-.5-1.12-.9v3.84h-1.35V31.58h1.3v1.18c.3-.41.67-.72 1.13-.93.45-.21.96-.32 1.5-.32zm-.11 6.4a2.36 2.36 0 002.17-1.25c.22-.4.33-.86.33-1.37 0-.51-.11-.97-.33-1.36-.22-.4-.52-.7-.9-.92a2.5 2.5 0 00-1.27-.32 2.48 2.48 0 00-2.17 1.24c-.22.4-.33.85-.33 1.36 0 .51.11.97.33 1.37a2.38 2.38 0 002.17 1.25zm9.6-6.08c.68 0 1.3.16 1.84.46.54.31.96.74 1.26 1.3.3.53.46 1.15.46 1.85 0 .72-.16 1.36-.49 1.92-.31.55-.77.98-1.35 1.29-.58.3-1.25.46-2 .46a3.54 3.54 0 01-2.92-1.29 5.8 5.8 0 01-1.02-3.65c0-1.52.31-2.71.94-3.57a4.56 4.56 0 012.87-1.72l3.38-.76.2 1.23-3.12.68c-.97.21-1.7.57-2.17 1.09a3.5 3.5 0 00-.81 2.21c.31-.48.73-.84 1.23-1.1.5-.27 1.07-.4 1.7-.4zm-.25 6.16c.48 0 .9-.1 1.26-.32.38-.21.67-.5.87-.88.2-.38.31-.82.31-1.3a2.4 2.4 0 00-.67-1.78 2.39 2.39 0 00-1.76-.67c-.73 0-1.33.22-1.78.67a2.4 2.4 0 00-.68 1.78 2.36 2.36 0 001.19 2.18c.38.21.8.32 1.26.32zm12.15-6.41l-3.6 8.16a3.64 3.64 0 01-1.12 1.6c-.42.3-.93.46-1.52.46a3.2 3.2 0 01-1.07-.18 2.1 2.1 0 01-.84-.5l.57-1.01c.39.36.83.54 1.34.54.32 0 .6-.09.8-.26.23-.17.43-.47.6-.89l.25-.51-3.28-7.41h1.4l2.6 5.94 2.55-5.94h1.32zm5.31-.07c.72 0 1.36.16 1.93.48.57.31 1.01.76 1.33 1.33.33.57.5 1.22.5 1.97s-.17 1.4-.5 1.99a3.38 3.38 0 01-1.33 1.33 3.9 3.9 0 01-3.4.17c-.44-.2-.81-.5-1.12-.9v3.84h-1.34V31.58h1.28v1.18c.3-.41.68-.72 1.14-.93.46-.21.96-.32 1.51-.32zm-.11 6.4a2.38 2.38 0 002.17-1.25c.22-.4.33-.86.33-1.37 0-.51-.1-.97-.33-1.36-.22-.4-.52-.7-.9-.92-.37-.22-.8-.32-1.27-.32a2.47 2.47 0 00-2.17 1.24c-.22.4-.32.85-.32 1.36 0 .51.1.97.32 1.37a2.36 2.36 0 002.17 1.25zm11.27-5.15h-4.11V39h-1.35v-7.42h5.46v1.18zm7.76 2.57l-.03.4h-6.02c.08.66.37 1.19.85 1.59.5.4 1.11.59 1.84.59.89 0 1.6-.3 2.14-.9l.74.87c-.33.4-.75.7-1.26.9-.5.2-1.05.3-1.66.3-.79 0-1.48-.15-2.09-.47a3.54 3.54 0 01-1.41-1.36 3.91 3.91 0 01-.5-1.96c0-.72.16-1.37.48-1.95.33-.57.77-1.02 1.33-1.34.57-.33 1.21-.49 1.92-.49.7 0 1.34.16 1.89.49.56.32 1 .77 1.3 1.34.32.58.48 1.25.48 2zm-3.67-2.69c-.64 0-1.19.2-1.62.6-.43.38-.69.9-.76 1.53h4.76a2.34 2.34 0 00-2.38-2.13zM15.74 29.98H6.72l-2.2 7.48 2.86 1.1V39H.78v-.44l2.86-1.1 8.58-29.92h.66l9.24 30.36 2.64.66V39h-9.24v-.44l2.64-.66-2.42-7.92zm-8.8-.84h8.54l-4.4-14.56-4.14 14.56zM25.84 39v-.44l2.64-.66V9.3l-2.64-.66V8.2h7.92c1.38 0 2.57.16 3.56.48 1.03.3 1.88.72 2.56 1.28a4.88 4.88 0 011.5 1.9 5.04 5.04 0 01-.54 5.32 5.6 5.6 0 01-2.24 1.62c-.97.44-2.07.72-3.3.84 1.82.18 3.43.63 4.84 1.36.62.33 1.2.72 1.76 1.2.59.43 1.1.99 1.54 1.66.47.65.84 1.41 1.1 2.3.3.84.44 1.83.44 2.94a9.32 9.32 0 01-3.08 7.04c-.97.88-2.14 1.58-3.52 2.11-1.38.5-2.92.75-4.62.75h-7.92zm6.38-18.92v18.04h1.54c1 0 1.92-.2 2.77-.57a5.91 5.91 0 002.2-1.72 8.06 8.06 0 001.5-2.81c.38-1.12.57-2.42.57-3.92s-.2-2.8-.57-3.92a8.06 8.06 0 00-1.5-2.81 5.91 5.91 0 00-2.2-1.72 6.7 6.7 0 00-2.77-.57h-1.54zm0-.88h1.54a4.34 4.34 0 003.17-1.28c.82-.85 1.23-2.1 1.23-3.78 0-1.67-.41-2.93-1.23-3.78a4.12 4.12 0 00-3.17-1.28h-1.54V19.2zm36.3 4.4c0 2.7-.31 5.06-.93 7.08-.59 2-1.38 3.67-2.38 5.02a10.2 10.2 0 01-3.3 3 7.98 7.98 0 01-3.74.96c-1.26 0-2.5-.32-3.74-.97a10.63 10.63 0 01-3.34-2.99 17.33 17.33 0 01-2.38-5.02 25.56 25.56 0 01-.88-7.08c0-2.7.3-5.05.88-7.04.62-2.02 1.41-3.7 2.38-5.02a9.96 9.96 0 013.34-2.99 7.71 7.71 0 013.74-1.01c1.27 0 2.51.34 3.74 1.01a9.58 9.58 0 013.3 3c1 1.31 1.8 2.99 2.38 5.01.62 2 .92 4.34.92 7.04zm-4.19 0c0-3.02-.19-5.51-.57-7.48-.35-2-.83-3.58-1.45-4.75a6.03 6.03 0 00-1.98-2.47 4 4 0 00-2.16-.7 4 4 0 00-2.15.7c-.74.47-1.41 1.3-2.03 2.47a18.72 18.72 0 00-1.45 4.75 43.67 43.67 0 00-.53 7.48c0 3.02.18 5.53.53 7.52A18.7 18.7 0 0054 35.83c.62 1.18 1.3 2 2.03 2.47a4 4 0 002.15.7 4 4 0 002.16-.7c.73-.47 1.4-1.3 1.98-2.47.62-1.17 1.1-2.74 1.45-4.7.38-2 .57-4.5.57-7.53zm23.54 7.04c0 1.38-.22 2.63-.66 3.74a7.8 7.8 0 01-1.8 2.86A7.66 7.66 0 0182.58 39c-1.12.44-2.37.66-3.74.66-1.12 0-2.16-.2-3.13-.62a7.92 7.92 0 01-4.18-3.92 6.38 6.38 0 01-.61-2.72c0-1.67.33-2.92 1-3.74a4.48 4.48 0 012.52-1.54l3.08 2.64c-2.94.44-4.4 1.98-4.4 4.62 0 .56.13 1.1.4 1.63.26.53.64 1 1.14 1.4.5.42 1.1.75 1.8 1.02.7.23 1.5.35 2.38.35.7 0 1.37-.15 2.02-.44.64-.32 1.2-.8 1.67-1.45.5-.68.88-1.53 1.15-2.55.29-1.03.44-2.26.44-3.7V9.3l-2.64-.66V8.2h9.02v.44l-2.64.66v21.34zm25.3-.44c0 3.31-.68 5.72-2.06 7.22-1.35 1.5-3.3 2.24-5.85 2.24-3 0-5.33-.82-7-2.46-1.64-1.68-2.46-4-2.46-7V9.3l-2.64-.66V8.2h9.02v.44l-2.64.66v20.9c0 2.96.58 5.13 1.76 6.51a5.54 5.54 0 004.4 2.07c1 0 1.89-.16 2.68-.48a5.22 5.22 0 002.07-1.59 7.49 7.49 0 001.36-2.64c.33-1.08.49-2.37.49-3.87V9.74l-2.86-1.1V8.2h6.6v.44l-2.86 1.1V30.2zm13.88-22c1.88 0 3.5.2 4.88.62 1.38.4 2.53.96 3.44 1.67a6.72 6.72 0 011.32 9.46c-.39.5-.84.92-1.37 1.27-.53.36-1.05.65-1.58.88-1.26.56-2.69.91-4.27 1.06 1.29.15 2.46.45 3.52.92.9.41 1.76 1.02 2.55 1.8.8.8 1.26 1.87 1.41 3.22l.88 7.7c.06.56.19.95.4 1.19.2.23.44.35.7.35.15 0 .3-.04.44-.13.18-.12.34-.25.48-.4.15-.14.28-.34.4-.57l.44.44c-.18.38-.43.72-.75 1.01-.26.24-.61.46-1.05.66-.41.2-.91.31-1.5.31-1 0-1.82-.28-2.46-.84a3.26 3.26 0 01-1.06-2.02l-.88-7.7c-.12-1-.3-1.83-.57-2.5a4.45 4.45 0 00-1.1-1.72 3.93 3.93 0 00-1.72-.97 9.2 9.2 0 00-2.55-.31h-1.76v14.3l2.64.66V39h-9.02v-.44l2.64-.66V9.3l-2.64-.66V8.2h8.14zm6.82 7.7c0-2.2-.59-3.89-1.76-5.06-1.17-1.17-2.86-1.76-5.06-1.76h-1.76v13.64h1.76c2.2 0 3.89-.59 5.06-1.76 1.17-1.17 1.76-2.86 1.76-5.06z" fill="#695A59"/></svg>