<svg fill="none" xmlns="http://www.w3.org/2000/svg" viewBox="0 0 20 20"><path d="M16.15 11.73a1.9 1.9 0 00-1.37-.63c-.5 0-.97.22-1.38.63L12.12 13l-.31-.17-.4-.2A13.89 13.89 0 018.07 9.6a8.17 8.17 0 01-1.1-1.72c.34-.3.65-.62.95-.92l.34-.34c.85-.85.85-1.95 0-2.8l-1.1-1.1-.38-.38L6 1.6C5.62 1.21 5.15 1 4.66 1c-.5 0-.97.2-1.38.6L1.9 2.98a2.94 2.94 0 00-.88 1.88c-.1 1.18.25 2.27.52 3 .65 1.75 1.63 3.39 3.1 5.14 1.77 2.1 3.9 3.77 6.34 4.94A9.92 9.92 0 0014.8 19c.94 0 1.72-.33 2.34-1l.01-.02c.21-.25.46-.48.71-.73l.53-.52a2 2 0 00.61-1.4c0-.5-.21-.98-.62-1.38l-2.23-2.22zm1.45 4.25l-.5.49c-.25.25-.52.51-.77.8-.41.44-.9.65-1.53.65h-.18a8.82 8.82 0 01-3.16-.95c-2.3-1.1-4.3-2.68-5.98-4.66a16.35 16.35 0 01-2.92-4.84c-.37-1-.51-1.78-.45-2.52.04-.47.22-.87.56-1.2l1.38-1.38c.2-.18.4-.28.62-.28a.87.87 0 01.6.3c.25.22.48.46.73.71l.38.4 1.1 1.1c.44.42.44.82 0 1.25l-.34.34c-.34.35-.66.67-1.02.99l-.02.02c-.34.34-.28.68-.2.91v.04c.3.7.7 1.35 1.31 2.12a14.84 14.84 0 003.6 3.27l.5.27c.15.07.29.14.4.21.02 0 .04.02.05.03.14.07.27.1.4.1.34 0 .55-.21.62-.28l1.38-1.38c.14-.14.36-.3.62-.3.25 0 .45.16.58.3l2.24 2.22c.42.41.42.84 0 1.27z" fill="#9A8584"/><path d="M17.6 15.98s0 0 0 0zm0 0l-.5.49c-.25.25-.52.51-.77.8-.41.44-.9.65-1.53.65h-.18a8.82 8.82 0 01-3.16-.95c-2.3-1.1-4.3-2.68-5.98-4.66a16.35 16.35 0 01-2.92-4.84c-.37-1-.51-1.78-.45-2.52.04-.47.22-.87.56-1.2l1.38-1.38c.2-.18.4-.28.62-.28a.87.87 0 01.6.3c.25.22.48.46.73.71l.38.4 1.1 1.1c.44.42.44.82 0 1.25l-.34.34c-.34.35-.66.67-1.02.99l-.02.02c-.34.34-.28.68-.2.91v.04c.3.7.7 1.35 1.31 2.12h0a14.84 14.84 0 003.6 3.27l.5.27c.15.07.29.14.4.21.02 0 .04.02.05.03.14.07.27.1.4.1.34 0 .55-.21.62-.28l1.38-1.38c.14-.14.36-.3.62-.3.25 0 .45.16.58.3 0 0 0 0 0 0l2.24 2.22c.42.41.42.84 0 1.27zm-1.45-4.25a1.9 1.9 0 00-1.37-.63c-.5 0-.97.22-1.38.63L12.12 13l-.31-.17-.4-.2A13.89 13.89 0 018.07 9.6a8.17 8.17 0 01-1.1-1.72c.34-.3.65-.62.95-.92l.34-.34c.85-.85.85-1.95 0-2.8l-1.1-1.1-.38-.38L6 1.6C5.62 1.21 5.15 1 4.66 1c-.5 0-.97.2-1.38.6 0 0 0 0 0 0L1.9 2.98a2.94 2.94 0 00-.88 1.88c-.1 1.18.25 2.27.52 3 .65 1.75 1.63 3.39 3.1 5.14 1.77 2.1 3.9 3.77 6.34 4.94A9.92 9.92 0 0014.8 19c.94 0 1.72-.33 2.34-1l.01-.02c.21-.25.46-.48.71-.73l.53-.52a2 2 0 00.61-1.4c0-.5-.21-.98-.62-1.38l-2.23-2.22z" stroke="#9A8584" stroke-width=".4"/></svg>