<svg fill="none" xmlns="http://www.w3.org/2000/svg" viewBox="0 0 18 22"><path d="M9 1a8.02 8.02 0 00-7.27 11.37c.86 2.03 2.76 5.16 6.91 8.5a.57.57 0 00.72 0c4.15-3.34 6.05-6.47 6.9-8.5A7.82 7.82 0 0017 9.02C17 4.6 13.4 1 9 1zm6.74 9.32v.03l-.04.18s0 0 0 0c-.1.48-.26.94-.47 1.38v.01c-.79 1.86-2.5 4.7-6.23 7.78-3.73-3.09-5.45-5.92-6.23-7.78v-.01c-.21-.44-.36-.9-.47-1.37v-.01l-.04-.18v-.03a6.87 6.87 0 1113.48 0z" fill="#9A8584" stroke="#9A8584" stroke-width=".3"/><path d="M9 4a5 5 0 10.02 10.02A5 5 0 009 4zm0 8.89A3.9 3.9 0 119 5.1a3.9 3.9 0 010 7.79z" fill="#9A8584" stroke="#9A8584" stroke-width=".3"/></svg>