<svg fill="none" xmlns="http://www.w3.org/2000/svg" viewBox="0 0 397 400"><g filter="url(#filter0_f)" stroke="#F0EBF9" stroke-width="3" stroke-miterlimit="10" stroke-linecap="round" stroke-linejoin="round"><path d="M253.76 330.2c25.1 25.09 54.78-21.73 84.04 7.53-28.85-28.84 17.98-58.52-7.52-84.02 35.53 0 23.41-53.92 64.38-53.92-40.97 0-28.85-53.92-64.38-53.92 25.08-25.08-21.74-54.76 7.52-84.02-28.85 28.84-58.53-17.98-84.04 7.52 0-35.53-53.93-23.4-53.93-64.37 0 40.96-53.93 28.84-53.93 64.37v.42c-25.09-25.08-54.77 21.74-84.04-7.52 28.85 28.84-17.98 58.52 7.53 84.02-35.54 0-23.42 53.92-64.39 53.92 40.97 0 28.85 53.92 64.39 53.92-25.09 25.08 21.74 54.76-7.53 84.02 28.85-28.84 58.53 17.98 84.04-7.52 0 35.53 53.93 23.4 53.93 64.37 0-40.96 53.93-28.84 53.93-64.8z"/><path d="M199.83 304.71c10.04 24.66 43.9.84 55.6 28.84-11.7-28 28.86-35.1 18.82-59.77 24.67 10.03 31.78-30.52 59.79-18.81-28.01-11.7-4.6-45.56-28.85-55.6 24.67-10.03.84-43.89 28.85-55.6-28.01 11.71-35.12-28.83-59.79-18.8 10.04-24.66-30.52-31.77-18.81-59.78-11.7 28.01-45.57 4.6-55.6 28.85-10.04-24.67-43.9-.84-55.62-28.85 11.71 28.01-28.84 35.12-18.8 59.78-24.68-10.03-31.78 30.51-59.8 18.8 28.02 11.71 4.6 45.57 28.85 55.6-24.25 10.45-.83 43.9-28.85 55.6 28.02-11.7 35.12 28.84 59.8 18.8-10.04 24.67 30.51 31.78 18.8 59.78 11.3-28 45.16-4.18 55.61-28.84z"/><path d="M229.52 271.69c13.8 13.8 30.1-11.7 46.4 4.18-15.88-15.89 10.04-32.19-4.18-46.4 19.65 0 12.96-29.68 35.54-29.68-22.58 0-15.89-29.68-35.54-29.68 13.8-13.8-11.7-30.1 4.18-46.4-15.88 15.89-32.19-10.03-46.4 4.18 0-19.64-29.69-12.95-29.69-35.53 0 22.58-29.68 15.89-29.68 35.53-13.8-13.79-30.1 11.7-46.41-4.18 15.89 15.89-10.04 32.2 4.18 46.4-19.65 0-12.96 29.68-35.54 29.68 22.58 0 15.89 29.68 35.54 29.68-13.8 13.8 11.7 30.1-4.18 46.4 15.89-15.89 32.2 10.03 46.4-4.18 0 19.64 29.7 12.96 29.7 35.53 0-22.57 29.68-15.89 29.68-35.53z"/><path d="M199.83 258.31c5.85 13.8 24.67.42 30.94 16.3-6.69-15.88 16.3-19.64 10.45-33.44 13.8 5.86 17.56-17.13 33.45-10.45-15.89-6.69-2.5-25.5-16.3-30.93 13.8-5.85.41-24.66 16.3-30.93-15.89 6.69-19.65-16.3-33.45-10.45 5.86-13.8-17.14-17.56-10.45-33.44-6.69 15.88-25.5 2.5-30.94 16.3-5.85-13.8-24.67-.42-30.94-16.3 6.7 15.88-16.3 19.64-10.45 33.44-13.8-5.85-17.56 17.14-33.45 10.45 15.89 6.69 2.51 25.5 16.3 30.93-13.79 5.85-.41 24.66-16.3 30.93 15.89-6.69 19.65 16.3 33.45 10.45-5.85 13.8 17.14 17.56 10.45 33.44 6.27-15.88 25.09-2.5 30.94-16.3z"/><path d="M216.97 240.76c7.95 7.94 17.56-6.7 26.34 2.5-9.2-9.2 5.44-18.39-2.5-26.33 11.28 0 7.52-17.14 20.48-17.14-12.96 0-9.2-17.14-20.49-17.14 7.95-7.94-6.69-17.55 2.51-26.33-9.2 9.2-18.4-5.44-26.34 2.5 0-11.28-17.14-7.52-17.14-20.48 0 12.96-17.14 9.2-17.14 20.49-7.94-7.95-17.56 6.68-26.34-2.51 9.2 9.2-5.44 18.4 2.5 26.33-11.28 0-7.52 17.14-20.48 17.14 12.96 0 9.2 17.14 20.49 17.14-7.95 7.94 6.69 17.56-2.51 26.33 9.2-9.2 18.4 5.44 26.34-2.5 0 11.28 17.14 7.52 17.14 20.48 0-12.96 17.14-9.2 17.14-20.48z"/><path d="M199.83 234.07c3.35 7.94 14.22.42 17.98 9.61-3.76-9.2 9.62-11.7 6.27-19.65 7.94 3.35 10.45-10.03 19.65-6.27-9.2-3.76-1.25-15.04-9.61-18.39 7.94-3.34.41-14.2 9.61-17.97-9.2 3.76-11.7-9.62-19.65-6.27 3.35-7.94-10.03-10.45-6.27-19.65-3.76 9.2-15.05 1.26-18.4 9.62-3.34-7.95-14.21-.42-17.97-9.62 3.76 9.2-9.62 11.7-6.28 19.65-7.94-3.34-10.45 10.03-19.65 6.27 9.2 3.76 1.26 15.05 9.62 18.4-7.94 3.33-.42 14.2-9.62 17.96 9.2-3.76 11.71 9.62 19.65 6.28-3.34 7.94 10.04 10.45 6.28 19.64 3.76-9.2 15.05-1.67 18.4-9.61z"/><path d="M209.87 224.45c4.6 4.6 10.45-4.18 15.88 1.26-5.43-5.44 3.35-11.29-1.25-15.89 6.69 0 4.6-10.45 12.12-10.45-7.94 0-5.43-10.45-12.12-10.45 4.6-4.6-4.18-10.45 1.25-15.88-5.43 5.43-11.28-3.34-15.88 1.25 0-6.69-10.46-4.6-10.46-12.12 0 7.94-10.45 5.44-10.45 12.12-4.6-4.6-10.45 4.18-15.89-1.25 5.44 5.43-3.34 11.28 1.26 15.88-6.7 0-4.6 10.45-12.13 10.45 7.95 0 5.44 10.45 12.13 10.45-4.6 4.6 4.18 10.45-1.26 15.89 5.44-5.44 11.3 3.34 15.9-1.26 0 6.7 10.44 4.6 10.44 12.13.42-7.53 10.46-5.44 10.46-12.13z"/><path d="M199.83 220.27c2.1 5.02 8.78 0 10.87 5.85-2.5-5.43 5.86-7.1 3.77-11.7 5.01 2.1 6.27-5.85 11.7-3.76-5.43-2.5-.83-8.78-5.85-10.87 5.02-2.09 0-8.78 5.85-10.87-5.43 2.51-7.1-5.85-11.7-3.76 2.09-5.01-5.86-6.27-3.77-11.7-2.5 5.43-8.78.83-10.87 5.85-2.09-5.02-8.78 0-10.87-5.85 2.5 5.43-5.85 7.1-3.76 11.7-5.02-2.09-6.27 5.85-11.7 3.76 5.43 2.51.83 8.78 5.84 10.87-5.01 2.1 0 8.78-5.85 10.87 5.44-2.5 7.1 5.85 11.7 3.76-2.08 5.02 5.86 6.27 3.77 11.7 2.1-5.43 8.78-.83 10.87-5.85z"/><path d="M199.83 217.76a18.4 18.4 0 100-36.78 18.4 18.4 0 000 36.78z"/></g><defs><filter id="filter0_f" x=".5" y=".5" width="398.66" height="399" filterUnits="userSpaceOnUse" color-interpolation-filters="sRGB"><feFlood flood-opacity="0" result="BackgroundImageFix"/><feBlend in="SourceGraphic" in2="BackgroundImageFix" result="shape"/><feGaussianBlur stdDeviation="1.5" result="effect1_foregroundBlur"/></filter></defs></svg>