<svg fill="none" xmlns="http://www.w3.org/2000/svg" viewBox="0 0 12 8"><path d="M10.64 3.56c.67-.06 1.13-.35 1.3-.76-.24.15-.99.3-1.4.16l-.07-.27C10.15 1.56 9.07.65 7.92.76l.28-.1c.13-.04.86-.16.75-.4-.1-.23-1 .16-1.17.21.22-.08.6-.22.63-.47-.34.05-.67.2-.93.43.09-.1.16-.22.18-.34-.92.56-1.45 1.7-1.88 2.8a4.45 4.45 0 00-.91-.7c-.76-.4-1.66-.8-3.08-1.32-.04.46.23 1.06 1.03 1.46a2.6 2.6 0 00-.74.09c.1.52.44.95 1.34 1.16-.41.02-.63.11-.82.31.19.36.65.79 1.48.7-.92.38-.38 1.1.37.99A3.26 3.26 0 010 5.69c3.02 3.99 9.59 2.36 10.57-1.48.73 0 1.16-.24 1.43-.52-.42.07-1.03 0-1.36-.13z" fill="#8B7EAC" fill-opacity=".65"/></svg>