<svg fill="none" xmlns="http://www.w3.org/2000/svg" viewBox="0 0 13 8"><path d="M12.88 7.14c-.03-.07-.25-.57-1.29-1.62-1.09-1.09-.94-.9.37-2.8.8-1.14 1.12-1.84 1.02-2.14-.1-.29-.68-.21-.68-.21l-1.96.01s-.14-.02-.25.05a.59.59 0 00-.17.22s-.31.9-.72 1.65c-.87 1.6-1.22 1.68-1.36 1.58-.34-.23-.25-.93-.25-1.42C7.59.9 7.8.26 7.16.1c-.2-.06-.36-.1-.9-.1-.7 0-1.3 0-1.63.18-.22.12-.4.38-.29.4.13.01.42.08.58.3.2.3.2.96.2.96s.1 1.82-.28 2.05c-.26.15-.62-.16-1.4-1.61-.4-.74-.7-1.56-.7-1.56S2.68.57 2.58.48c-.12-.1-.3-.13-.3-.13L.42.37S.14.37.04.5c-.09.11 0 .35 0 .35s1.45 3.67 3.1 5.52c1.5 1.7 3.22 1.59 3.22 1.59h.78s.23-.03.35-.17c.11-.13.1-.37.1-.37s0-1.12.48-1.29c.47-.16 1.09 1.09 1.74 1.57.49.36.86.28.86.28l1.74-.02s.9-.06.47-.83z" fill="#8B7EAC" fill-opacity=".65"/></svg>