<svg fill="none" xmlns="http://www.w3.org/2000/svg" viewBox="0 0 80 15"><path d="M6 15c-2.03 0-3.54-.59-4.53-1.76C.49 12.05 0 10.22 0 7.74V.27h3.82v7.92c0 1.3.17 2.2.51 2.74.36.52.92.78 1.67.78.76 0 1.31-.26 1.67-.78.37-.54.55-1.45.55-2.74V.27h3.7v7.47c0 2.48-.49 4.31-1.45 5.5C9.5 14.41 8.02 15 6 15zM18.89 14.73V3.47h-3.82V.27h11.47v3.2H22.7v11.26H18.9zM35.2 15c-1 0-1.92-.17-2.75-.51A6.02 6.02 0 0129 10.64a9.83 9.83 0 01-.5-3.2c0-1.2.17-2.25.5-3.17.32-.93.77-1.71 1.35-2.33.6-.64 1.3-1.12 2.11-1.45A7.47 7.47 0 0135.21 0c1 0 1.9.16 2.73.49.83.33 1.54.8 2.11 1.45.6.63 1.06 1.41 1.38 2.33.33.92.5 1.98.5 3.16 0 1.19-.17 2.26-.5 3.2a6.85 6.85 0 01-1.38 2.39 5.76 5.76 0 01-2.1 1.47c-.84.34-1.75.51-2.74.51zm0-3.3a2.3 2.3 0 002.05-1.13c.5-.77.76-1.82.76-3.14s-.25-2.33-.76-3.05a2.33 2.33 0 00-2.04-1.09c-.88 0-1.56.37-2.07 1.1a5.36 5.36 0 00-.73 3.04c0 1.32.24 2.37.73 3.14.5.76 1.2 1.14 2.07 1.14zM45.62 14.73V.27h5.29c.78 0 1.53.08 2.24.24.72.15 1.34.42 1.87.8.53.37.96.87 1.27 1.5.32.6.49 1.36.49 2.26 0 .9-.17 1.66-.5 2.3a4.43 4.43 0 01-1.26 1.58c-.53.4-1.15.7-1.84.9-.7.2-1.43.3-2.18.3h-1.56v4.58h-3.82zm3.82-7.6h1.38c.76 0 1.31-.19 1.67-.54.37-.36.55-.86.55-1.52 0-.65-.2-1.1-.6-1.38-.4-.26-.97-.4-1.7-.4h-1.3v3.83zM60.25 14.73V.27h3.83v14.46h-3.83zM72.13 7.7l-.24 1h2.66l-.24-1c-.18-.7-.36-1.45-.53-2.27-.18-.82-.36-1.59-.54-2.31h-.09a1366.72 1366.72 0 00-1.02 4.58zm-5.56 7.03L70.97.27h4.63L80 14.73h-4.05l-.7-3.07H71.2l-.71 3.07h-3.92z" fill="#fff"/></svg>