<svg fill="none" xmlns="http://www.w3.org/2000/svg" viewBox="0 0 56 20"><path d="M46 0v20M38.86 2.86l14.28 14.28M36.68 6.1l18.64 7.8M42.1.68l7.8 18.64M36 10h20m-17.14 7.14L53.14 2.86M36.68 13.9l18.64-7.8M42.1 19.32L49.9.68" stroke="url(#paint0_linear)" stroke-width="2"/><path d="M10 0v20M2.86 2.86l14.28 14.28M.68 6.1l18.64 7.8M6.1.68l7.8 18.64M0 10h20M2.86 17.14L17.14 2.86M.68 13.9l18.64-7.8M6.1 19.32L13.9.68" stroke="url(#paint1_linear)" stroke-width="2"/><defs><linearGradient id="paint0_linear" x1="46" y1="-6.07" x2="46" y2="22.14" gradientUnits="userSpaceOnUse"><stop stop-color="#3601BA"/><stop offset=".3" stop-color="#6E00EA"/><stop offset=".52" stop-color="#A44BFF"/><stop offset=".76" stop-color="#009CFF"/><stop offset="1" stop-color="#FD37E8"/></linearGradient><linearGradient id="paint1_linear" x1="10" y1="-6.07" x2="10" y2="22.14" gradientUnits="userSpaceOnUse"><stop stop-color="#3601BA"/><stop offset=".3" stop-color="#6E00EA"/><stop offset=".52" stop-color="#A44BFF"/><stop offset=".76" stop-color="#009CFF"/><stop offset="1" stop-color="#FD37E8"/></linearGradient></defs></svg>