<svg fill="none" xmlns="http://www.w3.org/2000/svg" viewBox="0 0 18 14"><path d="M18 1.66c-.68.29-1.39.47-2.12.56A3.58 3.58 0 0017.5.26c-.72.42-1.52.7-2.34.86a3.84 3.84 0 00-4.44-.7 3.6 3.6 0 00-1.63 1.66 3.4 3.4 0 00-.23 2.26c-1.46-.07-2.9-.43-4.21-1.07A10.41 10.41 0 011.25.65a3.4 3.4 0 00-.5 1.78c0 1.22.65 2.3 1.65 2.94a3.8 3.8 0 01-1.68-.44v.04c0 .82.3 1.6.84 2.24.54.63 1.29 1.06 2.13 1.22-.55.15-1.12.17-1.67.06.23.7.7 1.32 1.31 1.76a3.8 3.8 0 002.14.7A7.55 7.55 0 010 12.4 10.8 10.8 0 005.66 14a10.2 10.2 0 0010.5-10.5A7.33 7.33 0 0018 1.65z" fill="#FCFCFC"/></svg>