<svg width="20" height="20" fill="none" xmlns="http://www.w3.org/2000/svg"><path d="M12.61.66l-.34-.37-.73.69.35.36.72-.68zM19 8.2l.5.07.03-.24-.17-.17-.36.34zM17.46 19v.5h.43l.06-.43-.5-.07zM2.54 19l-.5.07.07.43h.43V19zM1 8.2l-.36-.34-.17.17.03.24.5-.07zm7.11-6.86l.35-.36-.73-.69-.34.37.72.68zm3.78 0l6.75 7.2.72-.68-6.75-7.2-.72.68zm6.61 6.79l-1.54 10.8 1 .14 1.53-10.8-.99-.14zM17.46 18.5H2.54v1h14.92v-1zm-14.42.43L1.49 8.13l-.99.14 1.55 10.8.99-.14zM1.36 8.54l6.75-7.2L7.4.66.64 7.86l.72.68zM1 8.7h18v-1H1v1z" fill="#211E1D"/></svg>