<svg width="90" height="36" fill="none" xmlns="http://www.w3.org/2000/svg"><path d="M13.54 5.31l-.32-.96a4.35 4.35 0 00-.51-1.09c-.23-.34-.51-.63-.85-.87a2.18 2.18 0 00-1.28-.36c-.5 0-.88.25-1.15.75-.27.49-.4 1.23-.4 2.23v4.3h4.5v2.22h-4.5v16.02H3.54V11.53H0V9.3h3.54V7.27c0-.94.18-1.84.55-2.7A7.62 7.62 0 018.02.6C8.94.2 9.95 0 11.04 0a6.46 6.46 0 013.99 1.27c.46.34.83.7 1.13 1.1.3.38.55.72.72 1.02L13.54 5.3zM21.26 9.3v12.87c0 .36.07.7.21 1.02.14.3.33.58.57.82a2.86 2.86 0 001.87.73c.2 0 .43-.06.67-.16a6.24 6.24 0 002.27-2.09V9.3h5.49v18.25h-5.49v-1.7a9.94 9.94 0 01-2.32 1.49c-.8.37-1.6.55-2.37.55a6.86 6.86 0 01-4.55-1.68 5.96 5.96 0 01-1.34-1.81c-.33-.7-.5-1.45-.5-2.23V9.3h5.49zM49.69 13.13c-.25-.2-.48-.4-.7-.55-.2-.15-.4-.28-.6-.37a3.34 3.34 0 00-2.48-.07 4.42 4.42 0 00-1.9 1.28c-.23.29-.43.6-.57.93v13.2h-5.49V10.96l3.84-2.03 1.65 1.78a7.62 7.62 0 012-1.51 5.06 5.06 0 014.48-.08c.63.33 1.19.68 1.66 1.07l-1.9 2.94zM59.3 27.55h-5.46V2.03L57.66 0h1.65v27.55zM64.98 31.87l.46.23a7.92 7.92 0 001.38.48c.26.06.52.09.78.09.21 0 .43-.13.64-.38.21-.25.41-.54.6-.87.19-.33.35-.67.5-1l.33-.73 1.58-3.44L62.42 9.3h5.8l5.72 10.93L79 9.3h3.87L72.86 31.28a8.17 8.17 0 01-2.92 3.42 7.7 7.7 0 01-1.9.96 5.84 5.84 0 01-3.4.14c-.44-.11-.83-.3-1.16-.55l1.5-3.38zM85.12 25.49a2.3 2.3 0 01.7-1.73 2.33 2.33 0 011.72-.73c.34 0 .66.06.96.2.3.12.56.3.77.53a2.33 2.33 0 01.73 1.73 2.38 2.38 0 01-1.5 2.22c-.3.13-.62.2-.96.2a2.5 2.5 0 01-2.25-1.46c-.12-.3-.17-.62-.17-.96z" fill="#211E1D"/></svg>