<svg width="18" height="18" fill="none" xmlns="http://www.w3.org/2000/svg"><path d="M9 0a9 9 0 00-3.28 17.38 8.6 8.6 0 01.03-2.58l1.06-4.47s-.27-.54-.27-1.34c0-1.25.72-2.18 1.62-2.18.77 0 1.14.57 1.14 1.27 0 .77-.49 1.92-.74 3-.21.89.45 1.62 1.33 1.62 1.6 0 2.83-1.69 2.83-4.12 0-2.16-1.55-3.67-3.76-3.67A3.9 3.9 0 004.9 8.82c0 .77.3 1.6.67 2.05.07.1.08.17.06.26-.06.29-.22.9-.25 1.02-.04.17-.13.2-.3.12-1.12-.52-1.83-2.17-1.83-3.49 0-2.84 2.07-5.44 5.95-5.44 3.12 0 5.54 2.22 5.54 5.2 0 3.1-1.95 5.6-4.66 5.6-.91 0-1.77-.48-2.07-1.04l-.56 2.14c-.2.78-.75 1.76-1.11 2.36A9.02 9.02 0 0018 9a9 9 0 00-9-9z" fill="#211E1D"/></svg>