<svg width="99" height="21" fill="none" xmlns="http://www.w3.org/2000/svg"><path d="M.728.56h4.2l2.4 12.264L9.872.56h4.056l.36 19.44h-2.88l-.312-13.2L8.6 20H6.152L3.584 6.728 3.296 20H.392L.728.56zm21.871 19.704c-2.064 0-3.535-.536-4.416-1.608-.88-1.088-1.32-2.68-1.32-4.776V6.632c0-2.096.44-3.672 1.32-4.728C19.063.848 20.535.32 22.6.32c2.049 0 3.512.536 4.392 1.608.896 1.056 1.345 2.624 1.345 4.704v7.272c0 2.08-.448 3.664-1.345 4.752-.88 1.072-2.343 1.608-4.392 1.608zm0-2.832c.672 0 1.12-.224 1.345-.672.24-.464.36-1.096.36-1.896V5.672c0-.8-.12-1.416-.36-1.848-.224-.448-.672-.672-1.345-.672-.672 0-1.128.224-1.367.672-.224.432-.337 1.048-.337 1.848v9.192c0 .816.113 1.448.337 1.896.224.448.68.672 1.367.672zm13.853 2.832c-1.44 0-2.568-.24-3.384-.72-.816-.496-1.392-1.208-1.728-2.136-.336-.928-.504-2.112-.504-3.552V.56h3.888v13.848c0 .928.112 1.656.336 2.184.224.528.688.792 1.392.792s1.168-.264 1.392-.792c.224-.528.336-1.256.336-2.184V.56h3.912v13.296c0 1.44-.168 2.624-.504 3.552a3.993 3.993 0 01-1.752 2.136c-.816.48-1.944.72-3.384.72zM44.855.56h2.76l4.32 10.104V.56h3.288V20h-2.664l-4.32-10.752V20h-3.384V.56zm15.113 2.928h-3V.56h9.936v2.928h-2.952V20h-3.984V3.488zM70.772.56h4.392L78.908 20H75.26l-.72-4.272h-3.072L70.724 20h-3.72L70.772.56zm3.384 12.72L72.98 5.456l-1.152 7.824h2.328zM80.926.56h3.936V20h-3.936V.56zm6.89 0h2.76l4.32 10.104V.56h3.288V20H95.52L91.2 9.248V20h-3.384V.56z" fill="#FCFCFC"/></svg>
