<svg width="69" height="36" fill="none" xmlns="http://www.w3.org/2000/svg"><path d="M43.45 20.63c0-.22-.02-.43-.06-.62a1.18 1.18 0 0 0-.26-.52 2.33 2.33 0 0 0-.58-.47 6.63 6.63 0 0 0-.96-.5c-.48-.2-.94-.4-1.38-.63-.45-.23-.85-.5-1.2-.79-.36-.3-.65-.65-.86-1.05-.2-.41-.3-.9-.3-1.45a3.2 3.2 0 0 1 1.13-2.6c.36-.3.79-.55 1.27-.72a5.01 5.01 0 0 1 3.77.26c.6.34 1.07.8 1.4 1.4.33.59.5 1.27.5 2.03h-2.57c0-.36-.05-.68-.15-.95-.1-.29-.26-.5-.49-.66a1.45 1.45 0 0 0-.86-.24c-.33 0-.6.07-.82.2-.2.13-.37.3-.47.54-.1.22-.15.47-.15.75 0 .21.05.4.15.57.1.17.25.32.43.45s.4.26.64.38c.25.12.53.24.83.36.58.23 1.1.48 1.54.76.44.27.81.57 1.11.91.3.34.53.71.68 1.13a4.23 4.23 0 0 1-.05 2.9c-.19.44-.45.81-.8 1.13a3.7 3.7 0 0 1-1.28.72 5.62 5.62 0 0 1-3.33 0A3.6 3.6 0 0 1 38 21.86a4.77 4.77 0 0 1-.34-1.88h2.58c0 .38.03.71.11.99.08.27.2.49.35.65.16.16.35.28.58.36.24.08.5.11.8.11.34 0 .61-.06.81-.19.2-.13.35-.3.44-.52.09-.21.13-.46.13-.74Zm8.38 1.18v-4.4c0-.28-.04-.5-.1-.68a.68.68 0 0 0-.3-.37.87.87 0 0 0-.48-.12.98.98 0 0 0-.53.13.8.8 0 0 0-.32.38c-.06.16-.1.36-.1.59h-2.46a2.87 2.87 0 0 1 .93-2.13c.31-.28.68-.5 1.1-.66.43-.16.92-.24 1.45-.24.63 0 1.2.11 1.69.33.49.21.88.55 1.16 1.01.3.46.44 1.06.44 1.8v4.24c0 .53.02.97.07 1.3.06.33.15.62.26.86V24h-2.48c-.11-.26-.2-.6-.25-.98-.06-.4-.08-.8-.08-1.2Zm.3-3.62v1.48h-.9c-.23 0-.44.04-.62.11a1.34 1.34 0 0 0-.7.8 2.07 2.07 0 0 0 .03 1.16.75.75 0 0 0 .74.48c.27 0 .5-.05.7-.16.2-.11.35-.25.45-.4.1-.16.13-.31.1-.45l.56.96a4.35 4.35 0 0 1-.74 1.33c-.18.2-.4.36-.68.5a2.83 2.83 0 0 1-2.34-.17 2.6 2.6 0 0 1-1-.99 3.52 3.52 0 0 1-.13-2.8c.16-.4.4-.73.7-1 .31-.27.7-.48 1.18-.63a5.68 5.68 0 0 1 1.67-.22h.98Zm6.58-7.69V24h-2.47V10.5h2.47Zm5.78 13.68c-.65 0-1.23-.1-1.73-.3a3.43 3.43 0 0 1-2.06-2.24 5.77 5.77 0 0 1-.27-1.85v-.78c0-.78.09-1.45.27-2.03.17-.59.42-1.08.74-1.48.32-.4.72-.7 1.19-.89.47-.2 1.01-.3 1.6-.3.6 0 1.13.1 1.58.3.46.2.84.49 1.13.88a4 4 0 0 1 .68 1.44c.15.58.23 1.25.23 2v1.13h-6.37v-1.73h3.95v-.22c0-.39-.04-.7-.12-.97a1.11 1.11 0 0 0-.39-.58c-.17-.13-.4-.2-.7-.2-.25 0-.45.05-.62.15-.17.1-.3.26-.4.47-.1.2-.18.48-.23.82-.05.34-.07.74-.07 1.2v.79c0 .44.04.8.12 1.1.07.3.18.54.33.73.15.18.34.31.55.4.22.07.47.1.76.1a2.7 2.7 0 0 0 2.07-.87l.98 1.5a3.84 3.84 0 0 1-1.78 1.21c-.41.15-.9.22-1.44.22Z" fill="#DE5609"/><path fill-rule="evenodd" clip-rule="evenodd" d="M2.58 11.61 2.41 9l2.35-1.16.51-2.57 2.57-.51L9 2.4l2.61.17L13.34.61l2.48.84L18 0l2.18 1.45 2.48-.84 1.73 1.97L27 2.41l1.16 2.35 2.57.51.51 2.57L33.6 9l-.17 2.61 1.97 1.73-.84 2.48L36 18l-1.45 2.18.84 2.48-1.97 1.73.17 2.61-2.35 1.16-.51 2.57-2.57.51L27 33.6l-2.61-.17-1.73 1.97-2.48-.84L18 36l-2.18-1.45-2.48.84-1.73-1.97-2.6.17-1.17-2.35-2.57-.51-.51-2.57L2.41 27l.17-2.61-1.97-1.73.84-2.48L0 18l1.45-2.18-.84-2.48 1.97-1.73Z" fill="#DE5609"/><path d="M12.13 11.2V24H9.58V11.2h2.55Zm3.19 0v2.14H6.46V11.2h8.86Zm-.72 8.37v-.64c0-.75.08-1.4.26-1.98.18-.57.44-1.05.77-1.44.34-.4.74-.69 1.2-.89.48-.2 1.01-.3 1.6-.3.59 0 1.12.1 1.59.3.47.2.88.5 1.21.89.34.39.6.87.78 1.44.19.58.28 1.23.28 1.98v.64c0 .74-.1 1.4-.28 1.97a4.05 4.05 0 0 1-.78 1.45c-.33.4-.73.69-1.2.89a4 4 0 0 1-1.58.3c-.6 0-1.12-.1-1.6-.3-.46-.2-.87-.5-1.2-.9-.35-.38-.6-.87-.8-1.44a6.73 6.73 0 0 1-.25-1.97Zm2.46-.64v.64c0 .44.03.82.08 1.14.07.33.16.6.28.8.12.21.27.37.44.47.17.1.36.15.59.15.22 0 .42-.05.6-.15.17-.1.31-.26.42-.47.12-.2.2-.47.26-.8.06-.32.09-.7.09-1.14v-.64c0-.43-.04-.8-.1-1.13-.06-.32-.16-.6-.27-.8a1.24 1.24 0 0 0-.44-.47 1.04 1.04 0 0 0-.58-.17c-.22 0-.41.06-.58.17-.17.1-.31.26-.43.47-.12.2-.21.48-.28.8-.05.33-.08.7-.08 1.13Zm9.24-2.61v11.34h-2.45V14.49h2.27l.18 1.83Zm4.94 2.6v.63c0 .75-.06 1.4-.2 1.98a4.47 4.47 0 0 1-.57 1.45c-.25.4-.57.7-.95.9-.38.2-.83.3-1.34.3-.47 0-.88-.12-1.23-.34a2.85 2.85 0 0 1-.86-.94c-.23-.4-.42-.86-.56-1.4a13.1 13.1 0 0 1-.33-1.71v-.98c.07-.65.18-1.25.31-1.8.14-.55.32-1.03.56-1.43.24-.4.53-.71.87-.93.34-.22.75-.34 1.23-.34.51 0 .96.1 1.34.29.39.18.7.47.96.85.26.37.45.85.58 1.43.13.58.2 1.26.2 2.04Zm-2.46.63v-.63c0-.46-.03-.85-.08-1.17a2.54 2.54 0 0 0-.23-.79c-.1-.2-.24-.35-.4-.45-.18-.1-.39-.14-.63-.14s-.45.05-.64.14c-.17.1-.32.23-.43.41-.1.18-.2.4-.25.66-.06.25-.1.53-.1.86v1.72c.01.38.06.72.15 1.01.1.3.24.53.45.7.2.17.48.26.83.26.26 0 .46-.05.63-.16.17-.1.3-.26.41-.47.1-.22.18-.48.22-.8.05-.33.07-.7.07-1.15Z" fill="#fff"/></svg>