<svg width="16" height="16" viewBox="0 0 16 16" fill="none" xmlns="http://www.w3.org/2000/svg">
<path d="M11.334 1.33325H4.66732C2.82637 1.33325 1.33398 2.82564 1.33398 4.66659V11.3333C1.33398 13.1742 2.82637 14.6666 4.66732 14.6666H11.334C13.1749 14.6666 14.6673 13.1742 14.6673 11.3333V4.66659C14.6673 2.82564 13.1749 1.33325 11.334 1.33325Z" stroke="#F9FAFB" stroke-width="0.666667" stroke-linecap="round" stroke-linejoin="round"/>
<path d="M10.6658 7.57996C10.7481 8.13479 10.6533 8.70143 10.395 9.1993C10.1367 9.69717 9.72792 10.1009 9.2269 10.3531C8.72589 10.6052 8.15812 10.693 7.60434 10.6039C7.05057 10.5148 6.53899 10.2533 6.14238 9.85673C5.74577 9.46012 5.48431 8.94854 5.3952 8.39477C5.30609 7.84099 5.39386 7.27322 5.64604 6.77221C5.89821 6.27119 6.30194 5.86245 6.79981 5.60412C7.29768 5.34579 7.86432 5.25102 8.41915 5.33329C8.9851 5.41721 9.50905 5.68093 9.91362 6.08549C10.3182 6.49006 10.5819 7.01401 10.6658 7.57996Z" stroke="#F9FAFB" stroke-width="0.666667" stroke-linecap="round" stroke-linejoin="round"/>
<path d="M11.666 4.33325H11.6727" stroke="#F9FAFB" stroke-width="0.666667" stroke-linecap="round" stroke-linejoin="round"/>
</svg>
