<svg width="153" height="24" viewBox="0 0 153 24" fill="none" xmlns="http://www.w3.org/2000/svg">
<path d="M32 19.5131V4H42.3572V7.43675H36.2415V9.87112H41.4694V13.3079H36.2415V16.0764H42.6038V19.5131H32Z" fill="#282B31"/>
<path d="M48.0265 19.5131L43.9822 7.57995H48.2238L49.5554 12.7828C49.8513 13.9761 50.1472 15.2172 50.4432 16.506H50.5418C50.8377 15.2172 51.1336 13.9761 51.4296 12.7828L52.7612 7.57995H56.8054L52.9092 19.5131H48.0265Z" fill="#282B31"/>
<path d="M64.0106 19.7995C63.1064 19.7995 62.268 19.6643 61.4953 19.3938C60.7226 19.1074 60.0486 18.7017 59.4732 18.1766C58.9142 17.6356 58.4703 16.9753 58.1415 16.1957C57.8127 15.4161 57.6483 14.533 57.6483 13.5465C57.6483 12.576 57.8127 11.7088 58.1415 10.9451C58.4868 10.1655 58.9306 9.50517 59.4732 8.9642C60.0321 8.42323 60.6651 8.00955 61.372 7.72315C62.0789 7.43675 62.8105 7.29356 63.5667 7.29356C64.4709 7.29356 65.26 7.44471 65.9341 7.74702C66.6081 8.04932 67.1671 8.46301 67.6109 8.98807C68.0548 9.51313 68.3836 10.1257 68.5973 10.8258C68.8275 11.5259 68.9426 12.2737 68.9426 13.0692C68.9426 13.4352 68.9179 13.7772 68.8686 14.0955C68.8357 14.4137 68.8028 14.6444 68.77 14.7876H61.7419C61.9391 15.5036 62.2926 16.0048 62.8022 16.2912C63.3119 16.5617 63.9119 16.6969 64.6024 16.6969C65.0299 16.6969 65.4409 16.6412 65.8354 16.5298C66.2464 16.4025 66.6739 16.2196 67.1177 15.9809L68.4987 18.4153C67.8247 18.8767 67.0766 19.2267 66.2546 19.4654C65.4491 19.6881 64.7011 19.7995 64.0106 19.7995ZM61.6926 12.1146H65.3422C65.3422 11.6531 65.2189 11.2554 64.9723 10.9212C64.7422 10.5712 64.3065 10.3962 63.6653 10.3962C63.1886 10.3962 62.7694 10.5314 62.4077 10.8019C62.0625 11.0724 61.8241 11.5099 61.6926 12.1146Z" fill="#282B31"/>
<path d="M71.2697 19.5131V7.57995H74.7221L75.018 9.63246H75.1166C75.577 8.821 76.1195 8.2323 76.7442 7.86635C77.3854 7.48449 78.0101 7.29356 78.6184 7.29356C78.9965 7.29356 79.3006 7.31742 79.5308 7.36516C79.7609 7.39698 79.9664 7.45267 80.1473 7.53222L79.4568 11.0644C79.2266 11.0167 79.0047 10.9769 78.791 10.9451C78.5937 10.8974 78.3553 10.8735 78.0758 10.8735C77.632 10.8735 77.1634 11.0247 76.6702 11.327C76.1935 11.6134 75.8071 12.1305 75.5112 12.8783V19.5131H71.2697Z" fill="#282B31"/>
<path d="M83.4016 24C82.9742 24 82.6207 23.9761 82.3412 23.9284C82.0782 23.8966 81.8069 23.8409 81.5275 23.7613L82.2673 20.6587C82.3823 20.6905 82.5056 20.7224 82.6372 20.7542C82.7851 20.786 82.9249 20.8019 83.0564 20.8019C83.6318 20.8019 84.0592 20.6905 84.3387 20.4678C84.6346 20.2609 84.8483 19.9745 84.9799 19.6086L85.1278 19.0835L80.4424 7.57995H84.6839L86.1635 12.1623C86.3444 12.7192 86.5006 13.2761 86.6321 13.8329C86.7636 14.3739 86.9033 14.9467 87.0513 15.5513H87.1499C87.2815 14.9785 87.4048 14.4137 87.5198 13.8568C87.6514 13.2999 87.7911 12.7351 87.9391 12.1623L89.1721 7.57995H93.2163L89.0734 19.3222C88.7446 20.1337 88.4076 20.8337 88.0624 21.4224C87.7336 22.0111 87.3472 22.4964 86.9033 22.8783C86.4595 23.2601 85.9498 23.5386 85.3744 23.7136C84.8155 23.9045 84.1579 24 83.4016 24Z" fill="#282B31"/>
<path d="M95.2875 19.5131V4H99.6277L103.179 10.9212L104.708 14.4057H104.806C104.757 13.992 104.699 13.5386 104.634 13.0453C104.568 12.5521 104.51 12.0509 104.461 11.5418C104.412 11.0167 104.362 10.4996 104.313 9.99045C104.28 9.46539 104.264 8.9642 104.264 8.48687V4H108.308V19.5131H103.968L100.417 12.568L98.8879 9.1074H98.7893C98.8879 9.99841 99.003 10.969 99.1345 12.0191C99.266 13.0692 99.3318 14.0716 99.3318 15.0263V19.5131H95.2875Z" fill="#282B31"/>
<path d="M117.232 19.7995C116.328 19.7995 115.489 19.6643 114.717 19.3938C113.944 19.1074 113.27 18.7017 112.694 18.1766C112.135 17.6356 111.692 16.9753 111.363 16.1957C111.034 15.4161 110.87 14.533 110.87 13.5465C110.87 12.576 111.034 11.7088 111.363 10.9451C111.708 10.1655 112.152 9.50517 112.694 8.9642C113.253 8.42323 113.886 8.00955 114.593 7.72315C115.3 7.43675 116.032 7.29356 116.788 7.29356C117.692 7.29356 118.481 7.44471 119.155 7.74702C119.829 8.04932 120.388 8.46301 120.832 8.98807C121.276 9.51313 121.605 10.1257 121.819 10.8258C122.049 11.5259 122.164 12.2737 122.164 13.0692C122.164 13.4352 122.139 13.7772 122.09 14.0955C122.057 14.4137 122.024 14.6444 121.991 14.7876H114.963C115.16 15.5036 115.514 16.0048 116.024 16.2912C116.533 16.5617 117.133 16.6969 117.824 16.6969C118.251 16.6969 118.662 16.6412 119.057 16.5298C119.468 16.4025 119.895 16.2196 120.339 15.9809L121.72 18.4153C121.046 18.8767 120.298 19.2267 119.476 19.4654C118.67 19.6881 117.922 19.7995 117.232 19.7995ZM114.914 12.1146H118.563C118.563 11.6531 118.44 11.2554 118.194 10.9212C117.963 10.5712 117.528 10.3962 116.887 10.3962C116.41 10.3962 115.991 10.5314 115.629 10.8019C115.284 11.0724 115.045 11.5099 114.914 12.1146Z" fill="#282B31"/>
<path d="M126.371 19.5131L123.412 7.57995H127.604L128.541 12.5919C128.64 13.1965 128.722 13.8011 128.788 14.4057C128.853 14.9944 128.936 15.599 129.034 16.2196H129.133C129.231 15.599 129.33 14.9865 129.429 14.3819C129.544 13.7613 129.675 13.1647 129.823 12.5919L130.958 7.57995H134.558L135.742 12.5919C135.89 13.1965 136.013 13.8011 136.112 14.4057C136.227 14.9944 136.35 15.599 136.481 16.2196H136.58C136.679 15.599 136.761 14.9944 136.827 14.4057C136.892 13.8011 136.975 13.1965 137.073 12.5919L138.01 7.57995H141.907L139.095 19.5131H134.163L133.276 15.3604C133.177 14.8035 133.078 14.2466 132.98 13.6897C132.881 13.1329 132.782 12.5203 132.684 11.852H132.585C132.487 12.5203 132.396 13.1329 132.314 13.6897C132.232 14.2466 132.141 14.8035 132.043 15.3604L131.204 19.5131H126.371Z" fill="#282B31"/>
<path d="M147.723 19.7995C146.934 19.7995 146.095 19.6484 145.207 19.3461C144.336 19.0438 143.58 18.638 142.939 18.1289L144.813 15.599C145.931 16.3946 146.934 16.7924 147.821 16.7924C148.265 16.7924 148.578 16.7367 148.758 16.6253C148.956 16.498 149.054 16.315 149.054 16.0764C149.054 15.9173 148.989 15.782 148.857 15.6706C148.726 15.5434 148.545 15.432 148.315 15.3365C148.101 15.2251 147.854 15.1217 147.575 15.0263C147.295 14.9308 146.999 14.8194 146.687 14.6921C146.325 14.5489 145.955 14.3819 145.577 14.1909C145.216 13.9841 144.887 13.7375 144.591 13.4511C144.295 13.1647 144.048 12.8385 143.851 12.4726C143.67 12.0907 143.58 11.6531 143.58 11.1599C143.58 10.5712 143.695 10.0382 143.925 9.56086C144.172 9.08353 144.509 8.6778 144.936 8.34368C145.364 8.00955 145.873 7.75497 146.465 7.57995C147.073 7.38902 147.739 7.29356 148.463 7.29356C149.482 7.29356 150.353 7.46062 151.077 7.79475C151.816 8.11297 152.457 8.47096 153 8.86874L151.126 11.3031C150.682 10.9849 150.246 10.7383 149.819 10.5632C149.391 10.3882 148.989 10.3007 148.611 10.3007C147.887 10.3007 147.525 10.5235 147.525 10.969C147.525 11.1281 147.583 11.2633 147.698 11.3747C147.83 11.4861 148.002 11.5895 148.216 11.685C148.43 11.7804 148.676 11.8759 148.956 11.9714C149.235 12.0509 149.531 12.1464 149.844 12.2578C150.205 12.385 150.575 12.5442 150.953 12.7351C151.331 12.926 151.668 13.1647 151.964 13.4511C152.277 13.7216 152.523 14.0557 152.704 14.4535C152.901 14.8353 153 15.2967 153 15.8377C153 16.3946 152.885 16.9197 152.655 17.4129C152.425 17.8902 152.088 18.3119 151.644 18.6778C151.2 19.0278 150.649 19.3063 149.991 19.5131C149.334 19.7041 148.578 19.7995 147.723 19.7995Z" fill="#282B31"/>
<path fill-rule="evenodd" clip-rule="evenodd" d="M17.8668 19.5816C17.6604 19.062 17.3676 18.6084 17.1108 18.2208C16.9812 18.0264 16.848 17.8284 16.7316 17.6244C16.2648 16.8132 16.4256 16.4844 17.1828 15.216L17.3052 15.0084C17.9184 13.9752 17.952 12.984 17.9832 12.1104C17.9976 11.6808 18.012 11.2764 18.0948 10.896C18.288 10.0176 20.1444 9.78362 21.2952 9.64562C21.4884 10.4004 21.6 11.1864 21.6 12C21.6 15.0828 20.1336 17.8236 17.8668 19.5816ZM12 2.4C12.7392 2.4 13.4532 2.4912 14.1444 2.6496C13.9416 3.096 13.6284 3.5028 13.2156 3.8256C12.954 4.032 12.66 4.2036 12.3684 4.3776C11.5872 4.8432 10.7028 5.3712 10.1484 6.3864C9.4092 7.7424 9.4092 9.1272 9.4092 10.3488C9.4092 11.9748 9.3564 12.936 8.2716 13.7844C6.6288 15.072 4.1148 14.3532 2.5596 13.6992C2.4612 13.146 2.4 12.5796 2.4 12C2.4 6.7068 6.7068 2.4 12 2.4ZM12 0C5.3832 0 0 5.3832 0 12C0 18.6156 5.3832 24 12 24C18.6168 24 24 18.6156 24 12C24 5.3832 18.6168 0 12 0Z" fill="#4447E2"/>
</svg>
