<svg width="150" height="24" viewBox="0 0 150 24" fill="none" xmlns="http://www.w3.org/2000/svg">
<path d="M29 19.5131V4H39.3572V7.43675H33.2415V9.87112H38.4694V13.3079H33.2415V16.0764H39.6038V19.5131H29Z" fill="#282B31"/>
<path d="M45.0265 19.5131L40.9822 7.57995H45.2238L46.5554 12.7828C46.8513 13.9761 47.1472 15.2172 47.4432 16.506H47.5418C47.8377 15.2172 48.1336 13.9761 48.4296 12.7828L49.7612 7.57995H53.8054L49.9092 19.5131H45.0265Z" fill="#282B31"/>
<path d="M61.0106 19.7995C60.1064 19.7995 59.268 19.6643 58.4953 19.3938C57.7226 19.1074 57.0486 18.7017 56.4732 18.1766C55.9142 17.6356 55.4703 16.9753 55.1415 16.1957C54.8127 15.4161 54.6483 14.533 54.6483 13.5465C54.6483 12.576 54.8127 11.7088 55.1415 10.9451C55.4868 10.1655 55.9306 9.50517 56.4732 8.9642C57.0321 8.42323 57.6651 8.00955 58.372 7.72315C59.0789 7.43675 59.8105 7.29356 60.5667 7.29356C61.4709 7.29356 62.26 7.44471 62.9341 7.74702C63.6081 8.04932 64.1671 8.46301 64.6109 8.98807C65.0548 9.51313 65.3836 10.1257 65.5973 10.8258C65.8275 11.5259 65.9426 12.2737 65.9426 13.0692C65.9426 13.4352 65.9179 13.7772 65.8686 14.0955C65.8357 14.4137 65.8028 14.6444 65.77 14.7876H58.7419C58.9391 15.5036 59.2926 16.0048 59.8022 16.2912C60.3119 16.5617 60.9119 16.6969 61.6024 16.6969C62.0299 16.6969 62.4409 16.6412 62.8354 16.5298C63.2464 16.4025 63.6739 16.2196 64.1177 15.9809L65.4987 18.4153C64.8247 18.8767 64.0766 19.2267 63.2546 19.4654C62.4491 19.6881 61.7011 19.7995 61.0106 19.7995ZM58.6926 12.1146H62.3422C62.3422 11.6531 62.2189 11.2554 61.9723 10.9212C61.7422 10.5712 61.3065 10.3962 60.6653 10.3962C60.1886 10.3962 59.7694 10.5314 59.4077 10.8019C59.0625 11.0724 58.8241 11.5099 58.6926 12.1146Z" fill="#282B31"/>
<path d="M68.2697 19.5131V7.57995H71.7221L72.018 9.63246H72.1166C72.577 8.821 73.1195 8.2323 73.7442 7.86635C74.3854 7.48449 75.0101 7.29356 75.6184 7.29356C75.9965 7.29356 76.3006 7.31742 76.5308 7.36516C76.7609 7.39698 76.9664 7.45267 77.1473 7.53222L76.4568 11.0644C76.2266 11.0167 76.0047 10.9769 75.791 10.9451C75.5937 10.8974 75.3553 10.8735 75.0758 10.8735C74.632 10.8735 74.1634 11.0247 73.6702 11.327C73.1935 11.6134 72.8071 12.1305 72.5112 12.8783V19.5131H68.2697Z" fill="#282B31"/>
<path d="M80.4016 24C79.9742 24 79.6207 23.9761 79.3412 23.9284C79.0782 23.8966 78.8069 23.8409 78.5275 23.7613L79.2673 20.6587C79.3823 20.6905 79.5056 20.7224 79.6372 20.7542C79.7851 20.786 79.9249 20.8019 80.0564 20.8019C80.6318 20.8019 81.0592 20.6905 81.3387 20.4678C81.6346 20.2609 81.8483 19.9745 81.9799 19.6086L82.1278 19.0835L77.4424 7.57995H81.6839L83.1635 12.1623C83.3444 12.7192 83.5006 13.2761 83.6321 13.8329C83.7636 14.3739 83.9033 14.9467 84.0513 15.5513H84.1499C84.2815 14.9785 84.4048 14.4137 84.5198 13.8568C84.6514 13.2999 84.7911 12.7351 84.9391 12.1623L86.1721 7.57995H90.2163L86.0734 19.3222C85.7446 20.1337 85.4076 20.8337 85.0624 21.4224C84.7336 22.0111 84.3472 22.4964 83.9033 22.8783C83.4595 23.2601 82.9498 23.5386 82.3744 23.7136C81.8155 23.9045 81.1579 24 80.4016 24Z" fill="#282B31"/>
<path d="M92.2875 19.5131V4H96.6277L100.179 10.9212L101.708 14.4057H101.806C101.757 13.992 101.699 13.5386 101.634 13.0453C101.568 12.5521 101.51 12.0509 101.461 11.5418C101.412 11.0167 101.362 10.4996 101.313 9.99045C101.28 9.46539 101.264 8.9642 101.264 8.48687V4H105.308V19.5131H100.968L97.4168 12.568L95.8879 9.1074H95.7893C95.8879 9.99841 96.003 10.969 96.1345 12.0191C96.266 13.0692 96.3318 14.0716 96.3318 15.0263V19.5131H92.2875Z" fill="#282B31"/>
<path d="M114.232 19.7995C113.328 19.7995 112.489 19.6643 111.717 19.3938C110.944 19.1074 110.27 18.7017 109.694 18.1766C109.135 17.6356 108.692 16.9753 108.363 16.1957C108.034 15.4161 107.87 14.533 107.87 13.5465C107.87 12.576 108.034 11.7088 108.363 10.9451C108.708 10.1655 109.152 9.50517 109.694 8.9642C110.253 8.42323 110.886 8.00955 111.593 7.72315C112.3 7.43675 113.032 7.29356 113.788 7.29356C114.692 7.29356 115.481 7.44471 116.155 7.74702C116.829 8.04932 117.388 8.46301 117.832 8.98807C118.276 9.51313 118.605 10.1257 118.819 10.8258C119.049 11.5259 119.164 12.2737 119.164 13.0692C119.164 13.4352 119.139 13.7772 119.09 14.0955C119.057 14.4137 119.024 14.6444 118.991 14.7876H111.963C112.16 15.5036 112.514 16.0048 113.024 16.2912C113.533 16.5617 114.133 16.6969 114.824 16.6969C115.251 16.6969 115.662 16.6412 116.057 16.5298C116.468 16.4025 116.895 16.2196 117.339 15.9809L118.72 18.4153C118.046 18.8767 117.298 19.2267 116.476 19.4654C115.67 19.6881 114.922 19.7995 114.232 19.7995ZM111.914 12.1146H115.563C115.563 11.6531 115.44 11.2554 115.194 10.9212C114.963 10.5712 114.528 10.3962 113.887 10.3962C113.41 10.3962 112.991 10.5314 112.629 10.8019C112.284 11.0724 112.045 11.5099 111.914 12.1146Z" fill="#282B31"/>
<path d="M123.371 19.5131L120.412 7.57995H124.604L125.541 12.5919C125.64 13.1965 125.722 13.8011 125.788 14.4057C125.853 14.9944 125.936 15.599 126.034 16.2196H126.133C126.231 15.599 126.33 14.9865 126.429 14.3819C126.544 13.7613 126.675 13.1647 126.823 12.5919L127.958 7.57995H131.558L132.742 12.5919C132.89 13.1965 133.013 13.8011 133.112 14.4057C133.227 14.9944 133.35 15.599 133.481 16.2196H133.58C133.679 15.599 133.761 14.9944 133.827 14.4057C133.892 13.8011 133.975 13.1965 134.073 12.5919L135.01 7.57995H138.907L136.095 19.5131H131.163L130.276 15.3604C130.177 14.8035 130.078 14.2466 129.98 13.6897C129.881 13.1329 129.782 12.5203 129.684 11.852H129.585C129.487 12.5203 129.396 13.1329 129.314 13.6897C129.232 14.2466 129.141 14.8035 129.043 15.3604L128.204 19.5131H123.371Z" fill="#282B31"/>
<path d="M144.723 19.7995C143.934 19.7995 143.095 19.6484 142.207 19.3461C141.336 19.0438 140.58 18.638 139.939 18.1289L141.813 15.599C142.931 16.3946 143.934 16.7924 144.821 16.7924C145.265 16.7924 145.578 16.7367 145.758 16.6253C145.956 16.498 146.054 16.315 146.054 16.0764C146.054 15.9173 145.989 15.782 145.857 15.6706C145.726 15.5434 145.545 15.432 145.315 15.3365C145.101 15.2251 144.854 15.1217 144.575 15.0263C144.295 14.9308 143.999 14.8194 143.687 14.6921C143.325 14.5489 142.955 14.3819 142.577 14.1909C142.216 13.9841 141.887 13.7375 141.591 13.4511C141.295 13.1647 141.048 12.8385 140.851 12.4726C140.67 12.0907 140.58 11.6531 140.58 11.1599C140.58 10.5712 140.695 10.0382 140.925 9.56086C141.172 9.08353 141.509 8.6778 141.936 8.34368C142.364 8.00955 142.873 7.75497 143.465 7.57995C144.073 7.38902 144.739 7.29356 145.463 7.29356C146.482 7.29356 147.353 7.46062 148.077 7.79475C148.816 8.11297 149.457 8.47096 150 8.86874L148.126 11.3031C147.682 10.9849 147.246 10.7383 146.819 10.5632C146.391 10.3882 145.989 10.3007 145.611 10.3007C144.887 10.3007 144.525 10.5235 144.525 10.969C144.525 11.1281 144.583 11.2633 144.698 11.3747C144.83 11.4861 145.002 11.5895 145.216 11.685C145.43 11.7804 145.676 11.8759 145.956 11.9714C146.235 12.0509 146.531 12.1464 146.844 12.2578C147.205 12.385 147.575 12.5442 147.953 12.7351C148.331 12.926 148.668 13.1647 148.964 13.4511C149.277 13.7216 149.523 14.0557 149.704 14.4535C149.901 14.8353 150 15.2967 150 15.8377C150 16.3946 149.885 16.9197 149.655 17.4129C149.425 17.8902 149.088 18.3119 148.644 18.6778C148.2 19.0278 147.649 19.3063 146.991 19.5131C146.334 19.7041 145.578 19.7995 144.723 19.7995Z" fill="#282B31"/>
<path fill-rule="evenodd" clip-rule="evenodd" d="M17.8668 19.5816C17.6604 19.062 17.3676 18.6084 17.1108 18.2208C16.9812 18.0264 16.848 17.8284 16.7316 17.6244C16.2648 16.8132 16.4256 16.4844 17.1828 15.216L17.3052 15.0084C17.9184 13.9752 17.952 12.984 17.9832 12.1104C17.9976 11.6808 18.012 11.2764 18.0948 10.896C18.288 10.0176 20.1444 9.78362 21.2952 9.64562C21.4884 10.4004 21.6 11.1864 21.6 12C21.6 15.0828 20.1336 17.8236 17.8668 19.5816ZM12 2.4C12.7392 2.4 13.4532 2.4912 14.1444 2.6496C13.9416 3.096 13.6284 3.5028 13.2156 3.8256C12.954 4.032 12.66 4.2036 12.3684 4.3776C11.5872 4.8432 10.7028 5.3712 10.1484 6.3864C9.4092 7.7424 9.4092 9.1272 9.4092 10.3488C9.4092 11.9748 9.3564 12.936 8.2716 13.7844C6.6288 15.072 4.1148 14.3532 2.5596 13.6992C2.4612 13.146 2.4 12.5796 2.4 12C2.4 6.7068 6.7068 2.4 12 2.4ZM12 0C5.3832 0 0 5.3832 0 12C0 18.6156 5.3832 24 12 24C18.6168 24 24 18.6156 24 12C24 5.3832 18.6168 0 12 0Z" fill="#4447E2"/>
</svg>
