<svg width="16" height="16" viewBox="0 0 16 16" fill="none" xmlns="http://www.w3.org/2000/svg">
<path d="M15.3337 2.00011C14.6952 2.45043 13.9884 2.79485 13.2403 3.02011C12.8388 2.55845 12.3052 2.23124 11.7117 2.08273C11.1181 1.93422 10.4933 1.97158 9.92171 2.18975C9.3501 2.40792 8.85929 2.79638 8.51565 3.30259C8.17201 3.8088 7.99212 4.40834 8.00033 5.02011V5.68678C6.82875 5.71716 5.66784 5.45732 4.621 4.93041C3.57415 4.4035 2.67387 3.62587 2.00033 2.66678C2.00033 2.66678 -0.666341 8.66678 5.33366 11.3334C3.96068 12.2654 2.3251 12.7327 0.666992 12.6668C6.66699 16.0001 14.0003 12.6668 14.0003 5.00011C13.9997 4.81441 13.9819 4.62918 13.947 4.44678C14.6274 3.77577 15.1075 2.92859 15.3337 2.00011V2.00011Z" stroke="#282B31" stroke-width="0.666667" stroke-linecap="round" stroke-linejoin="round"/>
</svg>
