<svg width="16" height="16" viewBox="0 0 16 16" fill="none" xmlns="http://www.w3.org/2000/svg">
<path d="M15.3327 2.00011C14.6943 2.45043 13.9874 2.79485 13.2393 3.02011C12.8378 2.55845 12.3042 2.23124 11.7107 2.08273C11.1172 1.93422 10.4923 1.97158 9.92074 2.18975C9.34913 2.40792 8.85831 2.79638 8.51467 3.30259C8.17103 3.8088 7.99115 4.40834 7.99935 5.02011V5.68678C6.82777 5.71716 5.66687 5.45732 4.62002 4.93041C3.57318 4.4035 2.67289 3.62587 1.99935 2.66678C1.99935 2.66678 -0.667318 8.66678 5.33268 11.3334C3.9597 12.2654 2.32412 12.7327 0.666016 12.6668C6.66602 16.0001 13.9993 12.6668 13.9993 5.00011C13.9987 4.81441 13.9809 4.62918 13.946 4.44678C14.6264 3.77577 15.1066 2.92859 15.3327 2.00011V2.00011Z" stroke="#F9FAFB" stroke-width="0.666667" stroke-linecap="round" stroke-linejoin="round"/>
</svg>
