<svg width="16" height="16" viewBox="0 0 16 16" fill="none" xmlns="http://www.w3.org/2000/svg">
<path d="M13 15H3C2.44772 15 2 14.5708 2 14.0413C2 12.4557 3.0262 11.0363 4.57508 10.4798L4.8826 10.3693C6.8926 9.64716 9.1074 9.64716 11.1174 10.3693L11.4249 10.4798C12.9738 11.0363 14 12.4557 14 14.0413C14 14.5708 13.5523 15 13 15Z" stroke="#F9FAFB" stroke-linecap="square" stroke-linejoin="round"/>
<path d="M6.47536 7.53866C7.43235 8.00992 8.56765 8.00992 9.52464 7.53866C10.4153 7.10008 11.0534 6.30126 11.2629 5.36264L11.3188 5.11213C11.5331 4.15229 11.3042 3.15052 10.6911 2.36437L10.6013 2.24925C9.98814 1.46298 9.02406 1 8 1C6.97594 1 6.01186 1.46299 5.39867 2.24925L5.30889 2.36437C4.69579 3.15052 4.46694 4.15229 4.68119 5.11213L4.7371 5.36264C4.94661 6.30126 5.58473 7.10008 6.47536 7.53866Z" stroke="#F9FAFB" stroke-linecap="square" stroke-linejoin="round"/>
</svg>
